# Blender 5.1.1
# www.blender.org
mtllib ARROW8.mtl
o 112691946025878
v 0.045106 -1.661198 1.696634
v -0.080952 -1.601798 1.603535
v 0.040808 -1.898798 1.598218
v -0.080952 -1.601798 1.603535
v 0.036511 -1.661198 1.499800
v 0.040808 -1.898798 1.598218
v 0.162569 -1.601798 1.592902
v 0.045106 -1.661198 1.696634
v 0.040808 -1.898798 1.598218
v 0.036511 -1.661198 1.499800
v 0.162569 -1.601798 1.592902
v 0.040808 -1.898798 1.598218
v -0.008646 1.886760 1.629724
v 0.043366 1.886760 1.656799
v 0.040809 1.937524 1.598219
v 0.092820 1.886760 1.625294
v -0.011203 1.886760 1.571143
v 0.090263 1.886760 1.566712
v 0.038251 1.886760 1.539636
v 0.125026 1.973243 1.384080
v 0.020025 1.836985 1.585781
v 0.065758 1.836985 1.609588
v 0.170756 1.973243 1.407886
v 0.043435 1.836985 1.572299
v -0.167149 1.945273 1.567114
v -0.183746 1.973243 1.582219
v 0.042809 1.829607 1.557947
v -0.181497 1.973243 1.633727
v 0.045684 1.836985 1.623808
v -0.163646 1.945273 1.647327
v 0.046311 1.829607 1.638159
v 0.045684 1.836985 1.623808
v -0.181497 1.973243 1.633727
v 0.020025 1.836985 1.585781
v 0.125026 1.973243 1.384080
v 0.104322 1.945273 1.392737
v 0.007282 1.829607 1.579148
v 0.189704 1.945273 1.754243
v 0.076786 1.829607 1.576999
v 0.064672 1.836985 1.584718
v 0.186851 1.973243 1.776500
v 0.065758 1.836985 1.609588
v 0.175539 1.945273 1.429811
v 0.170756 1.973243 1.407886
v 0.078501 1.829607 1.616221
v 0.045684 1.658785 1.623808
v -0.120392 1.741851 1.579453
v -0.118144 1.741851 1.630960
v 0.043435 1.658785 1.572299
v 0.186851 1.381043 1.776500
v 0.189704 1.945273 1.754243
v 0.186851 1.973243 1.776500
v 0.189704 1.388493 1.754243
v -0.117516 1.724415 1.645313
v 0.046311 1.651230 1.638159
v 0.045684 1.658785 1.623808
v -0.118144 1.741851 1.630960
v 0.170756 1.381043 1.407886
v 0.065758 1.266561 1.609588
v 0.125026 1.381043 1.384080
v 0.020025 1.266561 1.585781
v 0.170756 1.973243 1.407886
v 0.125026 1.973243 1.384080
v -0.183746 1.381043 1.582219
v 0.043435 1.266561 1.572299
v -0.181497 1.381043 1.633727
v 0.045684 1.266561 1.623808
v -0.183746 1.973243 1.582219
v -0.181497 1.973243 1.633727
v -0.167149 1.945273 1.567114
v -0.167149 1.388493 1.567114
v 0.042809 1.294265 1.557947
v 0.043435 1.658785 1.572299
v -0.121019 1.724415 1.565100
v -0.120392 1.741851 1.579453
v 0.042809 1.641350 1.557947
v 0.064672 1.266561 1.584718
v 0.189704 1.388493 1.754243
v 0.186851 1.381043 1.776500
v 0.076786 1.294265 1.576999
v 0.045684 1.266561 1.623808
v -0.163646 1.388493 1.647327
v -0.181497 1.381043 1.633727
v 0.046311 1.294265 1.638159
v -0.163646 1.945273 1.647327
v -0.181497 1.973243 1.633727
v 0.175539 1.388493 1.429811
v 0.065758 1.266561 1.609588
v 0.170756 1.381043 1.407886
v 0.078501 1.294265 1.616221
v 0.175539 1.945273 1.429811
v 0.170756 1.973243 1.407886
v 0.104321 1.388493 1.392736
v 0.020025 1.266561 1.585781
v 0.007282 1.294265 1.579148
v 0.125026 1.381043 1.384080
v 0.104322 1.945273 1.392737
v 0.125026 1.973243 1.384080
v 0.095805 1.412633 1.756279
v 0.095805 1.859436 1.756279
v 0.098656 1.831612 1.734021
v 0.009072 1.773648 1.620138
v 0.021188 1.745826 1.612418
v 0.009072 1.829607 1.620138
v 0.098656 1.420645 1.734021
v 0.009072 1.337751 1.620138
v 0.021188 1.345759 1.612418
v 0.009072 1.294265 1.620138
v 0.121989 1.388493 1.797381
v 0.021188 1.266561 1.612418
v 0.121989 1.945273 1.797381
v 0.021188 1.836985 1.612418
v 0.143368 1.381043 1.804202
v 0.064672 1.266561 1.584718
v 0.186851 1.381043 1.776500
v 0.143368 1.381043 1.804202
v 0.143368 1.973243 1.804202
v 0.064672 1.836985 1.584718
v 0.186851 1.973243 1.776500
v 0.143368 1.973243 1.804202
v 0.186851 1.381043 1.776500
v 0.186851 1.973243 1.776500
v -0.118460 1.859436 1.564989
v -0.167149 1.388493 1.567114
v -0.167149 1.945273 1.567114
v 0.042809 1.829607 1.557947
v 0.042809 1.773648 1.557947
v -0.118460 1.412633 1.564989
v 0.042809 1.294265 1.557947
v 0.042809 1.337751 1.557947
v 0.046311 1.829607 1.638159
v -0.114958 1.859436 1.645201
v 0.046311 1.773648 1.638159
v -0.163646 1.945273 1.647327
v -0.163646 1.388493 1.647327
v -0.114958 1.412633 1.645201
v 0.046311 1.294265 1.638159
v 0.046311 1.337751 1.638159
v 0.046311 1.651230 1.638159
v -0.117516 1.664003 1.645313
v 0.046311 1.594222 1.638159
v -0.117516 1.724415 1.645313
v -0.121019 1.724415 1.565100
v 0.042809 1.641350 1.557947
v -0.121019 1.664003 1.565100
v 0.042809 1.584803 1.557947
v 0.076786 1.829607 1.576999
v 0.189704 1.945273 1.754243
v 0.163520 1.859436 1.713140
v 0.076786 1.773648 1.576999
v 0.189704 1.388493 1.754243
v 0.163520 1.412633 1.713140
v 0.076786 1.294265 1.576999
v 0.076786 1.337751 1.576999
v 0.153037 1.859436 1.473038
v 0.175539 1.388493 1.429811
v 0.175539 1.945273 1.429811
v 0.078501 1.829607 1.616221
v 0.078501 1.773648 1.616221
v 0.153037 1.412633 1.473038
v 0.078501 1.294265 1.616221
v 0.078501 1.337751 1.616221
v 0.007282 1.829607 1.579148
v 0.081819 1.859436 1.435964
v 0.007282 1.773648 1.579148
v 0.104322 1.945273 1.392737
v 0.104321 1.388493 1.392736
v 0.081819 1.412633 1.435964
v 0.007282 1.294265 1.579148
v 0.007282 1.337751 1.579148
v -0.011203 -1.685417 1.571143
v -0.011203 1.886760 1.571143
v 0.038251 1.886760 1.539636
v -0.008646 -1.685417 1.629724
v 0.038250 -1.685417 1.539635
v -0.008646 1.886760 1.629724
v 0.090263 1.886760 1.566712
v 0.043366 -1.685417 1.656799
v 0.090263 -1.685417 1.566712
v 0.043366 1.886760 1.656799
v 0.092820 1.886760 1.625294
v 0.092821 -1.685417 1.625293
v -0.118460 1.412633 1.564989
v -0.118460 1.859436 1.564989
v -0.100611 1.831612 1.578589
v 0.042809 1.773648 1.557947
v 0.043435 1.745826 1.572299
v -0.100611 1.420645 1.578589
v 0.042809 1.337751 1.557947
v 0.043435 1.345759 1.572299
v 0.046311 1.337751 1.638159
v -0.098362 1.420645 1.630097
v -0.114958 1.412633 1.645201
v 0.045684 1.345759 1.623808
v -0.098362 1.831612 1.630097
v -0.114958 1.859436 1.645201
v 0.046311 1.773648 1.638159
v 0.045684 1.745826 1.623808
v 0.076786 1.337751 1.576999
v 0.142141 1.420645 1.706320
v 0.163520 1.412633 1.713140
v 0.064672 1.345759 1.584718
v 0.142141 1.831612 1.706320
v 0.163520 1.859436 1.713140
v 0.076786 1.773648 1.576999
v 0.064672 1.745826 1.584718
v 0.153037 1.412633 1.473038
v 0.153037 1.859436 1.473038
v 0.132334 1.831612 1.481696
v 0.078501 1.773648 1.616221
v 0.065758 1.745826 1.609588
v 0.132334 1.420645 1.481696
v 0.078501 1.337751 1.616221
v 0.065758 1.345759 1.609588
v 0.007282 1.337751 1.579148
v 0.086600 1.420645 1.457889
v 0.081819 1.412633 1.435964
v 0.020025 1.345759 1.585781
v 0.086600 1.831612 1.457889
v 0.081819 1.859436 1.435964
v 0.007282 1.773648 1.579148
v 0.020025 1.745826 1.585781
v -0.118144 1.646826 1.630960
v 0.045684 1.567624 1.623808
v 0.046311 1.594222 1.638159
v -0.117516 1.664003 1.645313
v 0.042809 1.584803 1.557947
v -0.120392 1.646826 1.579453
v -0.121019 1.664003 1.565100
v 0.043435 1.567624 1.572299
v 0.097180 1.744216 1.758439
v 0.009072 1.641350 1.620138
v 0.097180 1.683805 1.758439
v 0.009072 1.584803 1.620138
v 0.021188 1.658785 1.612418
v 0.109297 1.666624 1.750722
v 0.109297 1.761651 1.750722
v 0.021188 1.567624 1.612418
v 0.064672 1.658785 1.584718
v 0.064672 1.567624 1.584718
v 0.152780 1.761651 1.723019
v 0.152780 1.666624 1.723019
v 0.164895 1.744216 1.715301
v 0.076786 1.594222 1.576999
v 0.076786 1.651230 1.576999
v 0.164895 1.683805 1.715301
v 0.095745 1.761651 1.440326
v 0.065758 1.658785 1.609588
v 0.141477 1.761651 1.464132
v 0.154219 1.744216 1.470766
v 0.020025 1.658785 1.585781
v 0.078501 1.641350 1.616221
v 0.083001 1.744216 1.433693
v 0.154219 1.683805 1.470766
v 0.007282 1.651230 1.579148
v 0.078501 1.584803 1.616221
v 0.083001 1.683805 1.433693
v 0.141477 1.666624 1.464132
v 0.007282 1.594222 1.579148
v 0.065758 1.567624 1.609588
v 0.095745 1.666624 1.440326
v 0.020025 1.567624 1.585781
v -0.120392 1.646826 1.579453
v 0.043435 1.567624 1.572299
v -0.118144 1.646826 1.630960
v 0.045684 1.567624 1.623808
v -0.100611 1.831612 1.578589
v 0.043435 1.745826 1.572299
v -0.098362 1.831612 1.630097
v 0.045684 1.745826 1.623808
v -0.100611 1.420645 1.578589
v -0.098362 1.420645 1.630097
v 0.045684 1.345759 1.623808
v 0.043435 1.345759 1.572299
v 0.064672 1.345759 1.584718
v 0.098656 1.420645 1.734021
v 0.142141 1.420645 1.706320
v 0.021188 1.345759 1.612418
v 0.142141 1.831612 1.706320
v 0.098656 1.831612 1.734021
v 0.064672 1.745826 1.584718
v 0.021188 1.745826 1.612418
v 0.132334 1.831612 1.481696
v 0.020025 1.745826 1.585781
v 0.086600 1.831612 1.457889
v 0.065758 1.745826 1.609588
v 0.132334 1.420645 1.481696
v 0.086600 1.420645 1.457889
v 0.020025 1.345759 1.585781
v 0.065758 1.345759 1.609588
v 0.036511 -1.661198 1.499800
v 0.045106 -1.661198 1.696634
v 0.162569 -1.601798 1.592902
v -0.080952 -1.601798 1.603535
v 0.045106 -1.661198 1.696634
v 0.036511 -1.661198 1.499800
vn -0.652200 -0.280000 0.704432
vn -0.711073 -0.280000 -0.644911
vn 0.711073 -0.280000 0.644911
vn 0.652200 -0.280000 -0.704432
vn -0.552157 0.755700 0.352034
vn 0.029065 0.756000 0.653880
vn 0.000000 1.000000 0.000000
vn 0.580798 0.755700 0.302595
vn -0.580714 0.755800 -0.302414
vn 0.552386 0.755500 -0.352252
vn -0.028213 0.756000 -0.653946
vn -0.237355 0.857800 0.455927
vn -0.237705 0.857800 0.455649
vn -0.237663 0.857800 0.455740
vn -0.237838 0.857800 0.455601
vn 0.460944 0.809400 -0.363787
vn 0.369248 0.688000 -0.624789
vn 0.493525 0.845900 -0.202109
vn 0.369200 0.688100 -0.624656
vn 0.513535 0.857800 -0.022431
vn 0.422216 0.688000 0.590267
vn 0.422264 0.688100 0.590134
vn 0.422222 0.688200 0.590044
vn 0.422258 0.687900 0.590358
vn -0.723052 0.687200 0.070258
vn -0.723185 0.687100 0.070209
vn 0.300365 0.687400 -0.661298
vn 0.300317 0.687500 -0.661165
vn 0.300184 0.687500 -0.661214
vn 0.356729 0.687500 0.632500
vn 0.356862 0.687400 0.632549
vn 0.451334 0.892100 -0.020238
vn 0.991852 0.000300 0.127357
vn 0.991859 -0.000000 0.127134
vn 0.991852 0.000400 0.127357
vn 0.365105 0.709600 0.602665
vn 0.365153 0.709600 0.602532
vn 0.365111 0.709700 0.602442
vn 0.393077 -0.524600 -0.755176
vn 0.207700 -0.893200 -0.398847
vn 0.461509 0.000400 -0.887162
vn -0.800378 -0.458700 -0.385902
vn -0.426065 -0.828100 -0.364266
vn -0.850754 -0.524300 0.036570
vn -0.449291 -0.893200 0.019175
vn -0.978048 -0.000000 -0.208493
vn -0.999019 0.000300 0.043257
vn -0.673010 -0.000000 -0.739565
vn -0.497708 -0.299600 -0.813917
vn -0.289309 -0.533900 -0.794578
vn 0.274304 0.605300 -0.747236
vn 0.274262 0.605300 -0.747327
vn 0.816614 -0.534300 -0.218155
vn 0.816656 -0.534300 -0.218065
vn 0.816705 -0.534300 -0.218198
vn -0.219072 -0.533900 0.816702
vn -0.424865 -0.299600 0.854297
vn -0.455947 -0.256500 0.852240
vn -0.218939 -0.533900 0.816751
vn -0.606012 -0.000000 0.795438
vn 0.953831 -0.299600 -0.023509
vn 0.832564 -0.534300 0.146135
vn 0.965071 -0.256500 -0.053355
vn 0.977085 -0.000000 -0.213100
vn -0.527164 -0.299600 -0.795216
vn -0.597596 -0.533900 -0.598191
vn -0.509631 -0.256600 -0.821267
vn -0.385756 -0.000000 -0.922614
vn -0.385937 0.000300 -0.922530
vn -0.949222 0.191900 0.249428
vn -0.889057 -0.153000 0.431456
vn -0.894578 -0.302500 0.328989
vn -0.670981 -0.344500 0.656586
vn -0.532498 -0.507800 0.677191
vn -0.884051 0.300500 0.357954
vn -0.913521 0.404000 -0.048581
vn -0.872232 0.320800 0.369103
vn -0.699994 0.713400 0.031921
vn -0.686452 -0.351300 0.636657
vn -0.612388 -0.204800 0.763545
vn -0.102531 -0.827900 0.551503
vn -0.715905 0.355200 0.601180
vn -0.545845 0.809500 -0.216280
vn -0.078508 -0.836900 0.541735
vn 0.241603 -0.893200 0.379224
vn 0.181388 -0.000000 0.983377
vn -0.421774 0.845900 -0.326435
vn -0.276500 0.857800 -0.433237
vn -0.276180 0.857800 -0.433497
vn 0.308112 0.000200 0.951317
vn 0.537027 0.000400 0.843579
vn -0.043257 0.000300 -0.999019
vn -0.043166 0.000300 -0.999062
vn 0.044018 0.000300 0.998995
vn 0.044151 0.000300 0.999044
vn 0.843537 0.000400 -0.537118
vn 0.843579 0.000500 -0.537027
vn 0.843579 0.000400 -0.537027
vn 0.843362 -0.000000 -0.537257
vn 0.887162 0.000400 0.461509
vn 0.887211 0.000400 0.461376
vn 0.887211 0.000700 0.461376
vn -0.887162 0.000400 -0.461509
vn -0.887072 0.000300 -0.461551
vn -0.887211 0.000400 -0.461376
vn -0.887120 0.000500 -0.461418
vn -0.843579 0.000400 0.537027
vn -0.843362 -0.000000 0.537257
vn 0.887066 -0.000000 0.461775
vn 0.517872 0.353900 -0.778833
vn 0.176650 -0.294700 -0.939146
vn 0.161892 -0.302500 -0.939326
vn -0.320172 -0.508000 -0.799716
vn -0.320130 -0.508000 -0.799626
vn 0.499062 0.403900 -0.766641
vn 0.322507 0.713600 -0.621861
vn 0.375523 0.713600 0.591407
vn 0.564020 0.403900 0.720213
vn 0.583729 0.353900 0.730773
vn 0.375481 0.713600 0.591317
vn 0.243159 -0.302500 0.921581
vn 0.257828 -0.294700 0.920148
vn -0.249305 -0.508000 0.824511
vn 0.324361 0.713600 -0.620960
vn 0.341942 0.403800 -0.848510
vn 0.340988 0.353900 -0.870905
vn 0.676356 -0.302600 -0.671560
vn 0.668215 -0.294800 -0.683101
vn 0.838839 -0.507700 -0.196521
vn 0.415449 0.354000 0.837931
vn 0.725113 -0.294800 0.622254
vn 0.732246 -0.302600 0.610101
vn 0.852755 -0.507700 0.122707
vn 0.852803 -0.507700 0.122574
vn 0.414586 0.403800 0.815494
vn 0.377118 0.713600 0.590332
vn 0.377300 0.713600 0.590248
vn -0.700144 0.713400 0.029232
vn -0.905774 0.404000 0.127988
vn -0.924596 0.354100 0.140627
vn -0.919835 -0.302500 -0.249762
vn -0.925784 -0.294600 -0.236726
vn -0.589529 -0.507800 -0.628213
vn -0.206175 -0.532200 0.821171
vn -0.206175 -0.532100 0.821171
vn -0.327258 -0.613300 -0.718845
vn -0.327258 -0.613400 -0.718845
vn -0.327391 -0.613200 -0.718893
vn -0.327301 -0.613300 -0.718935
vn -0.874164 0.419400 0.244992
vn -0.888728 0.221600 0.401401
vn -0.739167 -0.227700 0.633875
vn -0.597195 -0.421700 0.682313
vn -0.624105 0.762700 -0.169966
vn -0.114122 -0.772000 0.625317
vn -0.546253 0.800300 -0.247205
vn -0.015724 -0.808300 0.588592
vn 0.021386 0.802600 -0.596087
vn 0.563851 -0.799800 0.205677
vn -0.047751 0.820700 -0.569254
vn 0.655224 -0.747800 0.106797
vn 0.530568 0.494500 -0.688428
vn 0.878644 -0.358200 -0.315600
vn 0.694843 0.299400 -0.653920
vn 0.882446 -0.200900 -0.425283
vn -0.469306 0.820700 0.325979
vn 0.164554 0.762900 0.625236
vn 0.058732 0.800600 0.596352
vn 0.649214 0.419400 0.634586
vn -0.526962 0.802500 0.279710
vn 0.791933 0.221600 0.568918
vn -0.861317 0.494800 -0.115514
vn 0.918545 -0.227600 0.323186
vn -0.913883 0.299200 -0.274384
vn 0.889548 -0.421600 0.176056
vn -0.809494 -0.200800 -0.551681
vn 0.598621 -0.772000 -0.213822
vn -0.712523 -0.358300 -0.603299
vn 0.517683 -0.808300 -0.280680
vn -0.234869 -0.747900 -0.620805
vn -0.103578 -0.800200 -0.590777
vn -0.434780 -0.900300 0.018588
vn -0.434478 -0.900500 0.018998
vn -0.434822 -0.900300 0.018497
vn 0.493351 -0.869500 -0.022177
vn -0.510925 -0.859300 0.021876
vn 0.493870 -0.869300 -0.021536
vn -0.510967 -0.859300 0.021785
vn 0.853738 0.519300 -0.037742
vn 0.460244 0.887500 -0.020531
vn -0.247340 0.887500 -0.388687
vn -0.459180 0.519200 -0.720883
vn -0.247696 0.887400 -0.388741
vn -0.265981 -0.869100 -0.417068
vn -0.265582 -0.869300 -0.416923
vn 0.274718 -0.859400 0.431309
vn 0.274489 -0.859300 0.431527
vn -0.228288 -0.869300 0.438459
vn 0.235778 -0.859300 -0.453868
vn -0.228608 -0.869100 0.438719
vn 0.236128 -0.859400 -0.453590
vn -0.394679 0.519200 0.758129
vn -0.394588 0.519200 0.758087
vn -0.212850 0.887400 0.408861
vn -0.212536 0.887500 0.408825
vn -0.437734 0.898900 0.018641
vn 0.437626 0.898900 -0.019583
vt 0.000000 0.000000
s 1
f 1/1/1 2/1/1 3/1/1
f 4/1/2 5/1/2 6/1/2
f 7/1/3 8/1/3 9/1/3
f 10/1/4 11/1/4 12/1/4
f 13/1/5 14/1/6 15/1/7
f 14/1/6 16/1/8 15/1/7
f 17/1/9 13/1/5 15/1/7
f 16/1/8 18/1/10 15/1/7
f 19/1/11 17/1/9 15/1/7
f 18/1/10 19/1/11 15/1/7
f 20/1/12 21/1/13 22/1/14
f 20/1/12 22/1/14 23/1/15
f 24/1/16 25/1/17 26/1/18
f 25/1/17 24/1/16 27/1/19
f 28/1/20 24/1/16 26/1/18
f 24/1/16 28/1/20 29/1/20
f 30/1/21 31/1/22 32/1/23
f 30/1/21 32/1/23 33/1/24
f 34/1/25 35/1/26 36/1/26
f 36/1/26 37/1/25 34/1/25
f 38/1/27 39/1/28 40/1/29
f 38/1/27 40/1/29 41/1/27
f 42/1/30 43/1/31 44/1/31
f 43/1/31 42/1/30 45/1/30
f 46/1/32 47/1/32 48/1/32
f 47/1/32 46/1/32 49/1/32
f 50/1/33 51/1/34 52/1/34
f 51/1/34 50/1/33 53/1/35
f 54/1/36 55/1/37 56/1/38
f 54/1/36 56/1/38 57/1/36
f 58/1/39 59/1/40 60/1/39
f 61/1/40 60/1/39 59/1/40
f 60/1/39 62/1/41 58/1/39
f 60/1/39 63/1/41 62/1/41
f 64/1/42 65/1/43 66/1/44
f 67/1/45 66/1/44 65/1/43
f 66/1/44 68/1/46 64/1/42
f 66/1/44 69/1/47 68/1/46
f 64/1/42 68/1/46 70/1/48
f 64/1/42 70/1/48 71/1/49
f 65/1/43 64/1/42 71/1/49
f 65/1/43 71/1/49 72/1/50
f 73/1/51 74/1/52 75/1/52
f 74/1/52 73/1/51 76/1/51
f 77/1/53 78/1/54 79/1/54
f 78/1/54 77/1/53 80/1/55
f 81/1/56 82/1/57 83/1/58
f 82/1/57 81/1/56 84/1/59
f 85/1/60 83/1/58 82/1/57
f 83/1/58 85/1/60 86/1/60
f 87/1/61 88/1/62 89/1/63
f 88/1/62 87/1/61 90/1/62
f 89/1/63 91/1/64 87/1/61
f 89/1/63 92/1/64 91/1/64
f 93/1/65 94/1/66 95/1/66
f 94/1/66 93/1/65 96/1/67
f 97/1/68 96/1/67 93/1/65
f 96/1/67 97/1/68 98/1/69
f 99/1/70 100/1/71 101/1/72
f 101/1/72 102/1/73 103/1/74
f 102/1/73 101/1/72 100/1/71
f 100/1/71 104/1/75 102/1/73
f 99/1/70 101/1/72 105/1/76
f 106/1/77 99/1/70 105/1/76
f 105/1/76 107/1/78 106/1/77
f 99/1/70 106/1/77 108/1/79
f 99/1/70 108/1/79 109/1/80
f 109/1/80 100/1/71 99/1/70
f 109/1/80 108/1/79 110/1/81
f 104/1/75 100/1/71 111/1/82
f 100/1/71 109/1/80 111/1/82
f 111/1/82 112/1/83 104/1/75
f 110/1/81 113/1/84 109/1/80
f 114/1/85 113/1/84 110/1/81
f 113/1/84 114/1/85 115/1/85
f 116/1/86 111/1/82 109/1/80
f 112/1/83 111/1/82 117/1/87
f 117/1/87 118/1/88 112/1/83
f 118/1/88 117/1/87 119/1/89
f 116/1/86 120/1/90 111/1/82
f 121/1/91 120/1/90 116/1/86
f 121/1/91 122/1/91 120/1/90
f 123/1/92 124/1/92 125/1/92
f 126/1/92 123/1/92 125/1/92
f 123/1/92 126/1/92 127/1/92
f 124/1/92 123/1/92 128/1/92
f 128/1/92 129/1/92 124/1/92
f 128/1/92 130/1/93 129/1/92
f 131/1/94 132/1/94 133/1/94
f 132/1/94 131/1/94 134/1/94
f 134/1/94 135/1/94 132/1/94
f 136/1/94 132/1/94 135/1/94
f 137/1/94 136/1/94 135/1/94
f 136/1/94 137/1/94 138/1/95
f 139/1/94 140/1/94 141/1/94
f 140/1/94 139/1/94 142/1/94
f 143/1/92 144/1/92 145/1/92
f 145/1/92 144/1/92 146/1/92
f 147/1/96 148/1/97 149/1/97
f 149/1/97 150/1/98 147/1/96
f 148/1/97 151/1/96 149/1/97
f 152/1/99 149/1/97 151/1/96
f 153/1/96 152/1/99 151/1/96
f 152/1/99 153/1/96 154/1/96
f 155/1/100 156/1/100 157/1/101
f 158/1/100 155/1/100 157/1/101
f 155/1/100 158/1/100 159/1/100
f 156/1/100 155/1/100 160/1/100
f 161/1/102 156/1/100 160/1/100
f 161/1/102 160/1/100 162/1/100
f 163/1/103 164/1/104 165/1/103
f 164/1/104 163/1/103 166/1/103
f 166/1/103 167/1/103 164/1/104
f 168/1/103 164/1/104 167/1/103
f 169/1/105 168/1/103 167/1/103
f 168/1/103 169/1/105 170/1/104
f 171/1/104 172/1/106 173/1/93
f 174/1/107 172/1/106 171/1/104
f 171/1/104 173/1/93 175/1/93
f 174/1/107 176/1/108 172/1/106
f 175/1/93 173/1/93 177/1/98
f 178/1/94 176/1/108 174/1/107
f 175/1/93 177/1/98 179/1/97
f 178/1/94 180/1/94 176/1/108
f 181/1/100 179/1/97 177/1/98
f 182/1/109 180/1/94 178/1/94
f 179/1/97 181/1/100 182/1/109
f 182/1/109 181/1/100 180/1/94
f 183/1/110 184/1/111 185/1/112
f 184/1/111 186/1/113 185/1/112
f 187/1/114 185/1/112 186/1/113
f 183/1/110 185/1/112 188/1/115
f 189/1/116 183/1/110 188/1/115
f 188/1/115 190/1/116 189/1/116
f 191/1/117 192/1/118 193/1/119
f 192/1/118 191/1/117 194/1/120
f 195/1/121 193/1/119 192/1/118
f 193/1/119 195/1/121 196/1/122
f 197/1/123 196/1/122 195/1/121
f 195/1/121 198/1/123 197/1/123
f 199/1/124 200/1/125 201/1/126
f 200/1/125 199/1/124 202/1/124
f 203/1/127 201/1/126 200/1/125
f 201/1/126 203/1/127 204/1/128
f 205/1/129 204/1/128 203/1/127
f 205/1/129 203/1/127 206/1/129
f 207/1/130 208/1/131 209/1/132
f 210/1/133 209/1/132 208/1/131
f 209/1/132 210/1/133 211/1/134
f 207/1/130 209/1/132 212/1/135
f 213/1/136 207/1/130 212/1/135
f 212/1/135 214/1/137 213/1/136
f 215/1/138 216/1/139 217/1/140
f 216/1/139 215/1/138 218/1/138
f 219/1/141 217/1/140 216/1/139
f 217/1/140 219/1/141 220/1/142
f 221/1/143 220/1/142 219/1/141
f 219/1/141 222/1/143 221/1/143
f 223/1/144 224/1/145 225/1/145
f 225/1/145 226/1/144 223/1/144
f 227/1/146 228/1/147 229/1/148
f 228/1/147 227/1/146 230/1/149
f 231/1/150 232/1/151 233/1/152
f 233/1/152 232/1/151 234/1/153
f 231/1/150 235/1/154 232/1/151
f 234/1/153 236/1/155 233/1/152
f 235/1/154 231/1/150 237/1/156
f 236/1/155 234/1/153 238/1/157
f 237/1/156 239/1/158 235/1/154
f 240/1/159 236/1/155 238/1/157
f 239/1/158 237/1/156 241/1/160
f 236/1/155 240/1/159 242/1/161
f 243/1/162 239/1/158 241/1/160
f 244/1/163 242/1/161 240/1/159
f 243/1/162 245/1/164 239/1/158
f 244/1/163 246/1/165 242/1/161
f 246/1/165 245/1/164 243/1/162
f 245/1/164 246/1/165 244/1/163
f 247/1/166 248/1/167 249/1/168
f 248/1/167 250/1/169 249/1/168
f 248/1/167 247/1/166 251/1/170
f 250/1/169 248/1/167 252/1/171
f 251/1/170 247/1/166 253/1/172
f 250/1/169 252/1/171 254/1/173
f 253/1/172 255/1/174 251/1/170
f 256/1/175 254/1/173 252/1/171
f 257/1/176 255/1/174 253/1/172
f 256/1/175 258/1/177 254/1/173
f 255/1/174 257/1/176 259/1/178
f 258/1/177 256/1/175 260/1/179
f 261/1/180 259/1/178 257/1/176
f 258/1/177 260/1/179 261/1/180
f 261/1/180 262/1/181 259/1/178
f 262/1/181 261/1/180 260/1/179
f 263/1/182 264/1/183 265/1/183
f 266/1/184 265/1/183 264/1/183
f 267/1/185 268/1/186 269/1/187
f 270/1/188 269/1/187 268/1/186
f 269/1/187 271/1/189 267/1/185
f 269/1/187 272/1/189 271/1/189
f 273/1/190 271/1/189 272/1/189
f 271/1/189 273/1/190 274/1/190
f 275/1/191 276/1/192 277/1/192
f 276/1/192 275/1/191 278/1/193
f 276/1/192 279/1/194 277/1/192
f 279/1/194 276/1/192 280/1/195
f 280/1/195 281/1/196 279/1/194
f 281/1/196 280/1/195 282/1/197
f 283/1/198 284/1/199 285/1/200
f 284/1/199 283/1/198 286/1/201
f 285/1/200 287/1/202 283/1/198
f 287/1/202 285/1/200 288/1/203
f 289/1/204 287/1/202 288/1/203
f 287/1/202 289/1/204 290/1/205
f 291/1/206 292/1/206 293/1/206
f 294/1/207 295/1/207 296/1/207
