# Blender 5.1.1
# www.blender.org
mtllib ARROW8.mtl
o 112691946025878
v -0.106643 -1.961198 0.000040
v 0.031008 -1.901798 -0.074861
v -0.015631 -2.198798 0.037738
v 0.031008 -1.901798 -0.074861
v 0.075382 -1.961198 0.075437
v -0.015631 -2.198798 0.037738
v -0.062272 -1.901798 0.150337
v -0.106643 -1.961198 0.000040
v -0.015631 -2.198798 0.037738
v 0.075382 -1.961198 0.075437
v -0.062272 -1.901798 0.150337
v -0.015631 -2.198798 0.037738
v -0.023285 1.586760 -0.020398
v -0.069805 1.586760 0.015299
v -0.015632 1.637524 0.037738
v -0.062152 1.586760 0.073434
v 0.030888 1.586760 0.002042
v -0.007978 1.586760 0.095874
v 0.038543 1.586760 0.060178
v 0.142852 1.673243 0.204564
v 0.004424 1.536985 0.024158
v -0.036480 1.536985 0.055545
v 0.101950 1.673243 0.235949
v 0.006749 1.536985 0.051072
v 0.100445 1.645273 -0.137590
v 0.093770 1.673243 -0.159016
v 0.020021 1.529607 0.056570
v 0.046137 1.673243 -0.178746
v -0.040884 1.536985 0.031342
v 0.026267 1.645273 -0.168315
v -0.054156 1.529607 0.025845
v -0.040884 1.536985 0.031342
v 0.046137 1.673243 -0.178746
v 0.004424 1.536985 0.024158
v 0.142852 1.673243 0.204564
v 0.143756 1.645273 0.182141
v 0.015821 1.529607 0.015412
v -0.219964 1.645273 0.106744
v -0.011605 1.529607 0.079313
v -0.013481 1.536985 0.065071
v -0.238930 1.673243 0.094752
v -0.036480 1.536985 0.055545
v 0.080058 1.645273 0.231017
v 0.101950 1.673243 0.235949
v -0.047877 1.529607 0.064291
v -0.040884 1.358785 0.031342
v 0.069502 1.441851 -0.100429
v 0.021870 1.441851 -0.120159
v 0.006749 1.358785 0.051072
v -0.238930 1.081043 0.094752
v -0.219964 1.645273 0.106744
v -0.238930 1.673243 0.094752
v -0.219964 1.088493 0.106744
v 0.008597 1.424415 -0.125656
v -0.054156 1.351230 0.025845
v -0.040884 1.358785 0.031342
v 0.021870 1.441851 -0.120159
v 0.101950 1.081043 0.235949
v -0.036480 0.966561 0.055545
v 0.142852 1.081043 0.204564
v 0.004424 0.966561 0.024158
v 0.101950 1.673243 0.235949
v 0.142852 1.673243 0.204564
v 0.093770 1.081043 -0.159016
v 0.006749 0.966561 0.051072
v 0.046137 1.081043 -0.178746
v -0.040884 0.966561 0.031342
v 0.093770 1.673243 -0.159016
v 0.046137 1.673243 -0.178746
v 0.100445 1.645273 -0.137590
v 0.100445 1.088493 -0.137590
v 0.020021 0.994265 0.056570
v 0.006749 1.358785 0.051072
v 0.082775 1.424415 -0.094931
v 0.069502 1.441851 -0.100429
v 0.020021 1.341350 0.056570
v -0.013481 0.966561 0.065071
v -0.219964 1.088493 0.106744
v -0.238930 1.081043 0.094752
v -0.011605 0.994265 0.079313
v -0.040884 0.966561 0.031342
v 0.026267 1.088493 -0.168315
v 0.046137 1.081043 -0.178746
v -0.054156 0.994265 0.025845
v 0.026267 1.645273 -0.168315
v 0.046137 1.673243 -0.178746
v 0.080058 1.088493 0.231017
v -0.036480 0.966561 0.055545
v 0.101950 1.081043 0.235949
v -0.047877 0.994265 0.064291
v 0.080058 1.645273 0.231017
v 0.101950 1.673243 0.235949
v 0.143757 1.088493 0.182141
v 0.004424 0.966561 0.024158
v 0.015821 0.994265 0.015412
v 0.142852 1.081043 0.204564
v 0.143756 1.645273 0.182141
v 0.142852 1.673243 0.204564
v -0.182126 1.112633 0.020782
v -0.182126 1.559436 0.020782
v -0.163158 1.531612 0.032773
v -0.022085 1.473648 -0.000289
v -0.020209 1.445826 0.013955
v -0.022085 1.529607 -0.000289
v -0.163158 1.120645 0.032773
v -0.022085 1.037751 -0.000289
v -0.020209 1.045759 0.013955
v -0.022085 0.994265 -0.000289
v -0.230443 1.088493 0.027143
v -0.020209 0.966561 0.013955
v -0.230443 1.645273 0.027143
v -0.020209 1.536985 0.013955
v -0.245660 1.081043 0.043636
v -0.013481 0.966561 0.065071
v -0.238930 1.081043 0.094752
v -0.245660 1.081043 0.043636
v -0.245660 1.673243 0.043636
v -0.013481 1.536985 0.065071
v -0.238930 1.673243 0.094752
v -0.245660 1.673243 0.043636
v -0.238930 1.081043 0.094752
v -0.238930 1.673243 0.094752
v 0.081794 1.559436 -0.092565
v 0.100445 1.088493 -0.137590
v 0.100445 1.645273 -0.137590
v 0.020021 1.529607 0.056570
v 0.020021 1.473648 0.056570
v 0.081794 1.112633 -0.092565
v 0.020021 0.994265 0.056570
v 0.020021 1.037751 0.056570
v -0.054156 1.529607 0.025845
v 0.007617 1.559436 -0.123290
v -0.054156 1.473648 0.025845
v 0.026267 1.645273 -0.168315
v 0.026267 1.088493 -0.168315
v 0.007617 1.112633 -0.123290
v -0.054156 0.994265 0.025845
v -0.054156 1.037751 0.025845
v -0.054156 1.351230 0.025845
v 0.008597 1.364003 -0.125656
v -0.054156 1.294222 0.025845
v 0.008597 1.424415 -0.125656
v 0.082775 1.424415 -0.094931
v 0.020021 1.341350 0.056570
v 0.082775 1.364003 -0.094931
v 0.020021 1.284803 0.056570
v -0.011605 1.529607 0.079313
v -0.219964 1.645273 0.106744
v -0.171646 1.559436 0.100384
v -0.011605 1.473648 0.079313
v -0.219964 1.088493 0.106744
v -0.171646 1.112633 0.100384
v -0.011605 0.994265 0.079313
v -0.011605 1.037751 0.079313
v 0.050391 1.559436 0.192355
v 0.080058 1.088493 0.231017
v 0.080058 1.645273 0.231017
v -0.047877 1.529607 0.064291
v -0.047877 1.473648 0.064291
v 0.050391 1.112633 0.192355
v -0.047877 0.994265 0.064291
v -0.047877 1.037751 0.064291
v 0.015821 1.529607 0.015412
v 0.114089 1.559436 0.143478
v 0.015821 1.473648 0.015412
v 0.143756 1.645273 0.182141
v 0.143757 1.088493 0.182141
v 0.114089 1.112633 0.143478
v 0.015821 0.994265 0.015412
v 0.015821 1.037751 0.015412
v 0.030888 -1.985417 0.002042
v 0.030888 1.586760 0.002042
v 0.038543 1.586760 0.060178
v -0.023285 -1.985417 -0.020398
v 0.038544 -1.985417 0.060178
v -0.023285 1.586760 -0.020398
v -0.007978 1.586760 0.095874
v -0.069805 -1.985417 0.015299
v -0.007978 -1.985417 0.095874
v -0.069805 1.586760 0.015299
v -0.062152 1.586760 0.073434
v -0.062151 -1.985417 0.073435
v 0.081794 1.112633 -0.092565
v 0.081794 1.559436 -0.092565
v 0.061925 1.531612 -0.082136
v 0.020021 1.473648 0.056570
v 0.006749 1.445826 0.051072
v 0.061925 1.120645 -0.082136
v 0.020021 1.037751 0.056570
v 0.006749 1.045759 0.051072
v -0.054156 1.037751 0.025845
v 0.014292 1.120645 -0.101866
v 0.007617 1.112633 -0.123290
v -0.040884 1.045759 0.031342
v 0.014292 1.531612 -0.101866
v 0.007617 1.559436 -0.123290
v -0.054156 1.473648 0.025845
v -0.040884 1.445826 0.031342
v -0.011605 1.037751 0.079313
v -0.156430 1.120645 0.083891
v -0.171646 1.112633 0.100384
v -0.013481 1.045759 0.065071
v -0.156430 1.531612 0.083891
v -0.171646 1.559436 0.100384
v -0.011605 1.473648 0.079313
v -0.013481 1.445826 0.065071
v 0.050391 1.112633 0.192355
v 0.050391 1.559436 0.192355
v 0.051293 1.531612 0.169933
v -0.047877 1.473648 0.064291
v -0.036480 1.445826 0.055545
v 0.051293 1.120645 0.169933
v -0.047877 1.037751 0.064291
v -0.036480 1.045759 0.055545
v 0.015821 1.037751 0.015412
v 0.092198 1.120645 0.138545
v 0.114089 1.112633 0.143478
v 0.004424 1.045759 0.024158
v 0.092198 1.531612 0.138545
v 0.114089 1.559436 0.143478
v 0.015821 1.473648 0.015412
v 0.004424 1.445826 0.024158
v 0.021870 1.346826 -0.120159
v -0.040884 1.267624 0.031342
v -0.054156 1.294222 0.025845
v 0.008597 1.364003 -0.125656
v 0.020021 1.284803 0.056570
v 0.069502 1.346826 -0.100429
v 0.082775 1.364003 -0.094931
v 0.006749 1.267624 0.051072
v -0.184665 1.444216 0.021116
v -0.022085 1.341350 -0.000289
v -0.184665 1.383805 0.021116
v -0.022085 1.284803 -0.000289
v -0.020209 1.358785 0.013955
v -0.182791 1.366624 0.035359
v -0.182791 1.461651 0.035359
v -0.020209 1.267624 0.013955
v -0.013481 1.358785 0.065071
v -0.013481 1.267624 0.065071
v -0.176061 1.461651 0.086476
v -0.176061 1.366624 0.086476
v -0.174186 1.444216 0.100717
v -0.011605 1.294222 0.079313
v -0.011605 1.351230 0.079313
v -0.174186 1.383805 0.100717
v 0.104250 1.461651 0.154255
v -0.036480 1.358785 0.055545
v 0.063347 1.461651 0.185642
v 0.051950 1.444216 0.194386
v 0.004424 1.358785 0.024158
v -0.047877 1.341350 0.064291
v 0.115648 1.444216 0.145509
v 0.051950 1.383805 0.194386
v 0.015821 1.351230 0.015412
v -0.047877 1.284803 0.064291
v 0.115648 1.383805 0.145509
v 0.063347 1.366624 0.185642
v 0.015821 1.294222 0.015412
v -0.036480 1.267624 0.055545
v 0.104250 1.366624 0.154255
v 0.004424 1.267624 0.024158
v 0.069502 1.346826 -0.100429
v 0.006749 1.267624 0.051072
v 0.021870 1.346826 -0.120159
v -0.040884 1.267624 0.031342
v 0.061925 1.531612 -0.082136
v 0.006749 1.445826 0.051072
v 0.014292 1.531612 -0.101866
v -0.040884 1.445826 0.031342
v 0.061925 1.120645 -0.082136
v 0.014292 1.120645 -0.101866
v -0.040884 1.045759 0.031342
v 0.006749 1.045759 0.051072
v -0.013481 1.045759 0.065071
v -0.163158 1.120645 0.032773
v -0.156430 1.120645 0.083891
v -0.020209 1.045759 0.013955
v -0.156430 1.531612 0.083891
v -0.163158 1.531612 0.032773
v -0.013481 1.445826 0.065071
v -0.020209 1.445826 0.013955
v 0.051293 1.531612 0.169933
v 0.004424 1.445826 0.024158
v 0.092198 1.531612 0.138545
v -0.036480 1.445826 0.055545
v 0.051293 1.120645 0.169933
v 0.092198 1.120645 0.138545
v 0.004424 1.045759 0.024158
v -0.036480 1.045759 0.055545
v 0.075382 -1.961198 0.075437
v -0.106643 -1.961198 0.000040
v -0.062272 -1.901798 0.150337
v 0.031008 -1.901798 -0.074861
v -0.106643 -1.961198 0.000040
v 0.075382 -1.961198 0.075437
vn -0.362800 -0.280000 -0.888800
vn 0.885000 -0.280000 -0.371900
vn -0.885000 -0.280000 0.371900
vn 0.362800 -0.280000 0.888800
vn -0.085700 0.755700 -0.649200
vn -0.604900 0.756000 -0.250000
vn -0.000000 1.000000 -0.000000
vn -0.519700 0.755700 0.398500
vn 0.519500 0.755800 -0.398500
vn 0.085800 0.755500 0.649500
vn 0.604600 0.756000 0.250800
vn -0.312900 0.857800 -0.407800
vn -0.312500 0.857800 -0.408000
vn -0.312600 0.857800 -0.408000
vn -0.312400 0.857800 -0.408100
vn 0.134900 0.809400 0.571500
vn 0.410200 0.688000 0.598700
vn -0.025400 0.845900 0.532700
vn 0.410100 0.688100 0.598600
vn -0.196700 0.857800 0.474900
vn -0.713400 0.688000 0.133200
vn -0.713300 0.688100 0.133300
vn -0.713200 0.688200 0.133300
vn -0.713500 0.687900 0.133200
vn 0.241900 0.687200 -0.685000
vn 0.242000 0.687100 -0.685100
vn 0.472400 0.687400 0.551700
vn 0.472300 0.687500 0.551600
vn 0.472400 0.687500 0.551500
vn -0.724000 0.687500 0.056000
vn -0.724100 0.687400 0.056100
vn -0.172400 0.892100 0.417600
vn -0.534600 0.000300 0.845100
vn -0.534400 -0.000000 0.845200
vn -0.534600 0.000400 0.845100
vn -0.700500 0.709600 0.076200
vn -0.700400 0.709600 0.076300
vn -0.700300 0.709700 0.076300
vn 0.518300 -0.524600 0.675400
vn 0.273700 -0.893200 0.356800
vn 0.609000 0.000400 0.793200
vn 0.688000 -0.458700 -0.562300
vn 0.510200 -0.828100 -0.232200
vn 0.326400 -0.524300 -0.786500
vn 0.172500 -0.893200 -0.415300
vn 0.602300 -0.000000 -0.798300
vn 0.383000 0.000300 -0.923700
vn 0.954700 -0.000000 -0.297400
vn 0.948000 -0.299600 -0.107100
vn 0.842400 -0.533900 0.073600
vn 0.561300 0.605300 0.564400
vn 0.561400 0.605300 0.564400
vn -0.147400 -0.534300 0.832300
vn -0.147500 -0.534300 0.832300
vn -0.147400 -0.534300 0.832400
vn -0.647600 -0.533900 -0.543700
vn -0.594700 -0.299600 -0.746100
vn -0.579700 -0.256500 -0.773400
vn -0.647700 -0.533900 -0.543600
vn -0.464800 -0.000000 -0.885400
vn -0.381800 -0.299600 0.874400
vn -0.484300 -0.534300 0.692800
vn -0.359500 -0.256500 0.897200
vn -0.219800 -0.000000 0.975600
vn 0.943500 -0.299600 -0.141700
vn 0.794700 -0.533900 -0.288800
vn 0.959700 -0.256600 -0.114800
vn 0.999200 -0.000000 0.040300
vn 0.999200 0.000300 0.040100
vn 0.175100 0.191900 -0.965700
vn -0.015300 -0.153000 -0.988100
vn 0.079900 -0.302500 -0.949800
vn -0.311500 -0.344500 -0.885600
vn -0.388700 -0.507800 -0.768800
vn 0.049200 0.300500 -0.952500
vn 0.430100 0.404000 -0.807400
vn 0.034100 0.320800 -0.946500
vn 0.266900 0.713400 -0.647900
vn -0.286900 -0.351300 -0.891200
vn -0.433200 -0.204800 -0.877700
vn -0.456500 -0.827900 -0.326000
vn -0.242300 0.355200 -0.902900
vn 0.426700 0.809500 -0.403300
vn -0.457800 -0.836900 -0.300100
vn -0.445800 -0.893200 0.058700
vn -0.967900 -0.000000 -0.251200
vn 0.474100 0.845900 -0.244300
vn 0.509500 0.857800 -0.067500
vn 0.509600 0.857800 -0.067100
vn -0.992400 0.000200 -0.122800
vn -0.991500 0.000400 0.130200
vn 0.923700 0.000300 0.383000
vn 0.923700 0.000300 0.383100
vn -0.924000 0.000300 -0.382300
vn -0.924100 0.000300 -0.382200
vn 0.130300 0.000400 0.991500
vn 0.130200 0.000500 0.991500
vn 0.130200 0.000400 0.991500
vn 0.130500 -0.000000 0.991400
vn -0.793200 0.000400 0.609000
vn -0.793100 0.000400 0.609100
vn -0.793100 0.000700 0.609100
vn 0.793200 0.000400 -0.609000
vn 0.793200 0.000300 -0.608900
vn 0.793100 0.000400 -0.609100
vn 0.793100 0.000500 -0.609000
vn -0.130200 0.000400 -0.991500
vn -0.130500 -0.000000 -0.991400
vn -0.793400 -0.000000 0.608800
vn 0.487000 0.353900 0.798500
vn 0.776500 -0.294700 0.557000
vn 0.782900 -0.302500 0.543700
vn 0.860100 -0.508000 0.047800
vn 0.860000 -0.508000 0.047800
vn 0.483900 0.403900 0.776300
vn 0.427300 0.713600 0.555100
vn -0.694700 0.713600 0.090400
vn -0.891100 0.403900 0.206800
vn -0.909000 0.353900 0.220200
vn -0.694600 0.713600 0.090400
vn -0.938000 -0.302500 -0.169100
vn -0.942900 -0.294700 -0.155200
vn -0.641900 -0.508000 -0.574400
vn 0.425700 0.713600 0.556400
vn 0.624500 0.403800 0.668500
vn 0.645200 0.353900 0.677100
vn 0.322800 -0.302600 0.896800
vn 0.336700 -0.294800 0.894300
vn -0.176400 -0.507700 0.843300
vn -0.935000 0.354000 0.022400
vn -0.870400 -0.294800 0.394200
vn -0.862400 -0.302600 0.405800
vn -0.471600 -0.507700 0.721000
vn -0.471500 -0.507700 0.721100
vn -0.914300 0.403800 0.031100
vn -0.694400 0.713600 0.092300
vn -0.694400 0.713600 0.092500
vn 0.269400 0.713400 -0.646900
vn 0.266800 0.404000 -0.875000
vn 0.263300 0.354100 -0.897400
vn 0.615100 -0.302500 -0.728100
vn 0.605800 -0.294600 -0.739000
vn 0.818500 -0.507800 -0.268800
vn -0.657100 -0.532200 -0.533900
vn -0.657100 -0.532100 -0.533900
vn 0.789800 -0.613300 0.007200
vn 0.789800 -0.613400 0.007200
vn 0.789900 -0.613200 0.007100
vn 0.789900 -0.613300 0.007200
vn 0.147400 0.419400 -0.895800
vn 0.011800 0.221600 -0.975100
vn -0.262100 -0.227700 -0.937800
vn -0.366000 -0.421700 -0.829600
vn 0.417800 0.762700 -0.493800
vn -0.518500 -0.772000 -0.367700
vn 0.454900 0.800300 -0.390600
vn -0.526800 -0.808300 -0.263000
vn 0.531200 0.802600 0.271300
vn -0.424700 -0.799800 0.424100
vn 0.536100 0.820700 0.197300
vn -0.373700 -0.747800 0.548700
vn 0.399700 0.494500 0.771800
vn -0.085300 -0.358200 0.929700
vn 0.299000 0.299400 0.906100
vn 0.012500 -0.200900 0.979500
vn -0.097100 0.820700 -0.563100
vn -0.636200 0.762900 -0.115100
vn -0.565300 0.800600 -0.198800
vn -0.849500 0.419400 0.320200
vn -0.030800 0.802500 -0.595800
vn -0.850300 0.221600 0.477300
vn 0.468700 0.494800 -0.731800
vn -0.681100 -0.227600 0.695900
vn 0.634900 0.299200 -0.712300
vn -0.535500 -0.421600 0.731800
vn 0.842100 -0.200800 -0.500500
vn -0.059200 -0.772000 0.632900
vn 0.847900 -0.358300 -0.390800
vn 0.035600 -0.808300 0.587800
vn 0.661900 -0.747900 0.049500
vn 0.579200 -0.800200 0.155800
vn 0.166900 -0.900300 -0.401900
vn 0.166400 -0.900500 -0.401800
vn 0.167000 -0.900300 -0.401900
vn -0.188400 -0.869500 0.456500
vn 0.196100 -0.859300 -0.472300
vn -0.189200 -0.869300 0.456700
vn 0.196200 -0.859300 -0.472300
vn -0.326600 0.519300 0.789700
vn -0.175900 0.887500 0.425800
vn 0.456800 0.887500 -0.059900
vn 0.847400 0.519200 -0.111500
vn 0.457000 0.887400 -0.060200
vn 0.490400 -0.869100 -0.064800
vn 0.490100 -0.869300 -0.064500
vn -0.507000 -0.859400 0.066700
vn -0.507100 -0.859300 0.066400
vn -0.300900 -0.869300 -0.392200
vn 0.311700 -0.859300 0.405500
vn -0.301000 -0.869100 -0.392600
vn 0.311300 -0.859400 0.405700
vn -0.520300 0.519200 -0.678100
vn -0.520300 0.519200 -0.678000
vn -0.280600 0.887400 -0.365700
vn -0.280700 0.887500 -0.365400
vn 0.168100 0.898900 -0.404600
vn -0.167200 0.898900 0.404900
vt 0.000000 0.000000
s 1
f 1/1/1 2/1/1 3/1/1
f 4/1/2 5/1/2 6/1/2
f 7/1/3 8/1/3 9/1/3
f 10/1/4 11/1/4 12/1/4
f 13/1/5 14/1/6 15/1/7
f 14/1/6 16/1/8 15/1/7
f 17/1/9 13/1/5 15/1/7
f 16/1/8 18/1/10 15/1/7
f 19/1/11 17/1/9 15/1/7
f 18/1/10 19/1/11 15/1/7
f 20/1/12 21/1/13 22/1/14
f 20/1/12 22/1/14 23/1/15
f 24/1/16 25/1/17 26/1/18
f 25/1/17 24/1/16 27/1/19
f 28/1/20 24/1/16 26/1/18
f 24/1/16 28/1/20 29/1/20
f 30/1/21 31/1/22 32/1/23
f 30/1/21 32/1/23 33/1/24
f 34/1/25 35/1/26 36/1/26
f 36/1/26 37/1/25 34/1/25
f 38/1/27 39/1/28 40/1/29
f 38/1/27 40/1/29 41/1/27
f 42/1/30 43/1/31 44/1/31
f 43/1/31 42/1/30 45/1/30
f 46/1/32 47/1/32 48/1/32
f 47/1/32 46/1/32 49/1/32
f 50/1/33 51/1/34 52/1/34
f 51/1/34 50/1/33 53/1/35
f 54/1/36 55/1/37 56/1/38
f 54/1/36 56/1/38 57/1/36
f 58/1/39 59/1/40 60/1/39
f 61/1/40 60/1/39 59/1/40
f 60/1/39 62/1/41 58/1/39
f 60/1/39 63/1/41 62/1/41
f 64/1/42 65/1/43 66/1/44
f 67/1/45 66/1/44 65/1/43
f 66/1/44 68/1/46 64/1/42
f 66/1/44 69/1/47 68/1/46
f 64/1/42 68/1/46 70/1/48
f 64/1/42 70/1/48 71/1/49
f 65/1/43 64/1/42 71/1/49
f 65/1/43 71/1/49 72/1/50
f 73/1/51 74/1/52 75/1/52
f 74/1/52 73/1/51 76/1/51
f 77/1/53 78/1/54 79/1/54
f 78/1/54 77/1/53 80/1/55
f 81/1/56 82/1/57 83/1/58
f 82/1/57 81/1/56 84/1/59
f 85/1/60 83/1/58 82/1/57
f 83/1/58 85/1/60 86/1/60
f 87/1/61 88/1/62 89/1/63
f 88/1/62 87/1/61 90/1/62
f 89/1/63 91/1/64 87/1/61
f 89/1/63 92/1/64 91/1/64
f 93/1/65 94/1/66 95/1/66
f 94/1/66 93/1/65 96/1/67
f 97/1/68 96/1/67 93/1/65
f 96/1/67 97/1/68 98/1/69
f 99/1/70 100/1/71 101/1/72
f 101/1/72 102/1/73 103/1/74
f 102/1/73 101/1/72 100/1/71
f 100/1/71 104/1/75 102/1/73
f 99/1/70 101/1/72 105/1/76
f 106/1/77 99/1/70 105/1/76
f 105/1/76 107/1/78 106/1/77
f 99/1/70 106/1/77 108/1/79
f 99/1/70 108/1/79 109/1/80
f 109/1/80 100/1/71 99/1/70
f 109/1/80 108/1/79 110/1/81
f 104/1/75 100/1/71 111/1/82
f 100/1/71 109/1/80 111/1/82
f 111/1/82 112/1/83 104/1/75
f 110/1/81 113/1/84 109/1/80
f 114/1/85 113/1/84 110/1/81
f 113/1/84 114/1/85 115/1/85
f 116/1/86 111/1/82 109/1/80
f 112/1/83 111/1/82 117/1/87
f 117/1/87 118/1/88 112/1/83
f 118/1/88 117/1/87 119/1/89
f 116/1/86 120/1/90 111/1/82
f 121/1/91 120/1/90 116/1/86
f 121/1/91 122/1/91 120/1/90
f 123/1/92 124/1/92 125/1/92
f 126/1/92 123/1/92 125/1/92
f 123/1/92 126/1/92 127/1/92
f 124/1/92 123/1/92 128/1/92
f 128/1/92 129/1/92 124/1/92
f 128/1/92 130/1/93 129/1/92
f 131/1/94 132/1/94 133/1/94
f 132/1/94 131/1/94 134/1/94
f 134/1/94 135/1/94 132/1/94
f 136/1/94 132/1/94 135/1/94
f 137/1/94 136/1/94 135/1/94
f 136/1/94 137/1/94 138/1/95
f 139/1/94 140/1/94 141/1/94
f 140/1/94 139/1/94 142/1/94
f 143/1/92 144/1/92 145/1/92
f 145/1/92 144/1/92 146/1/92
f 147/1/96 148/1/97 149/1/97
f 149/1/97 150/1/98 147/1/96
f 148/1/97 151/1/96 149/1/97
f 152/1/99 149/1/97 151/1/96
f 153/1/96 152/1/99 151/1/96
f 152/1/99 153/1/96 154/1/96
f 155/1/100 156/1/100 157/1/101
f 158/1/100 155/1/100 157/1/101
f 155/1/100 158/1/100 159/1/100
f 156/1/100 155/1/100 160/1/100
f 161/1/102 156/1/100 160/1/100
f 161/1/102 160/1/100 162/1/100
f 163/1/103 164/1/104 165/1/103
f 164/1/104 163/1/103 166/1/103
f 166/1/103 167/1/103 164/1/104
f 168/1/103 164/1/104 167/1/103
f 169/1/105 168/1/103 167/1/103
f 168/1/103 169/1/105 170/1/104
f 171/1/104 172/1/106 173/1/93
f 174/1/107 172/1/106 171/1/104
f 171/1/104 173/1/93 175/1/93
f 174/1/107 176/1/108 172/1/106
f 175/1/93 173/1/93 177/1/98
f 178/1/94 176/1/108 174/1/107
f 175/1/93 177/1/98 179/1/97
f 178/1/94 180/1/94 176/1/108
f 181/1/100 179/1/97 177/1/98
f 182/1/109 180/1/94 178/1/94
f 179/1/97 181/1/100 182/1/109
f 182/1/109 181/1/100 180/1/94
f 183/1/110 184/1/111 185/1/112
f 184/1/111 186/1/113 185/1/112
f 187/1/114 185/1/112 186/1/113
f 183/1/110 185/1/112 188/1/115
f 189/1/116 183/1/110 188/1/115
f 188/1/115 190/1/116 189/1/116
f 191/1/117 192/1/118 193/1/119
f 192/1/118 191/1/117 194/1/120
f 195/1/121 193/1/119 192/1/118
f 193/1/119 195/1/121 196/1/122
f 197/1/123 196/1/122 195/1/121
f 195/1/121 198/1/123 197/1/123
f 199/1/124 200/1/125 201/1/126
f 200/1/125 199/1/124 202/1/124
f 203/1/127 201/1/126 200/1/125
f 201/1/126 203/1/127 204/1/128
f 205/1/129 204/1/128 203/1/127
f 205/1/129 203/1/127 206/1/129
f 207/1/130 208/1/131 209/1/132
f 210/1/133 209/1/132 208/1/131
f 209/1/132 210/1/133 211/1/134
f 207/1/130 209/1/132 212/1/135
f 213/1/136 207/1/130 212/1/135
f 212/1/135 214/1/137 213/1/136
f 215/1/138 216/1/139 217/1/140
f 216/1/139 215/1/138 218/1/138
f 219/1/141 217/1/140 216/1/139
f 217/1/140 219/1/141 220/1/142
f 221/1/143 220/1/142 219/1/141
f 219/1/141 222/1/143 221/1/143
f 223/1/144 224/1/145 225/1/145
f 225/1/145 226/1/144 223/1/144
f 227/1/146 228/1/147 229/1/148
f 228/1/147 227/1/146 230/1/149
f 231/1/150 232/1/151 233/1/152
f 233/1/152 232/1/151 234/1/153
f 231/1/150 235/1/154 232/1/151
f 234/1/153 236/1/155 233/1/152
f 235/1/154 231/1/150 237/1/156
f 236/1/155 234/1/153 238/1/157
f 237/1/156 239/1/158 235/1/154
f 240/1/159 236/1/155 238/1/157
f 239/1/158 237/1/156 241/1/160
f 236/1/155 240/1/159 242/1/161
f 243/1/162 239/1/158 241/1/160
f 244/1/163 242/1/161 240/1/159
f 243/1/162 245/1/164 239/1/158
f 244/1/163 246/1/165 242/1/161
f 246/1/165 245/1/164 243/1/162
f 245/1/164 246/1/165 244/1/163
f 247/1/166 248/1/167 249/1/168
f 248/1/167 250/1/169 249/1/168
f 248/1/167 247/1/166 251/1/170
f 250/1/169 248/1/167 252/1/171
f 251/1/170 247/1/166 253/1/172
f 250/1/169 252/1/171 254/1/173
f 253/1/172 255/1/174 251/1/170
f 256/1/175 254/1/173 252/1/171
f 257/1/176 255/1/174 253/1/172
f 256/1/175 258/1/177 254/1/173
f 255/1/174 257/1/176 259/1/178
f 258/1/177 256/1/175 260/1/179
f 261/1/180 259/1/178 257/1/176
f 258/1/177 260/1/179 261/1/180
f 261/1/180 262/1/181 259/1/178
f 262/1/181 261/1/180 260/1/179
f 263/1/182 264/1/183 265/1/183
f 266/1/184 265/1/183 264/1/183
f 267/1/185 268/1/186 269/1/187
f 270/1/188 269/1/187 268/1/186
f 269/1/187 271/1/189 267/1/185
f 269/1/187 272/1/189 271/1/189
f 273/1/190 271/1/189 272/1/189
f 271/1/189 273/1/190 274/1/190
f 275/1/191 276/1/192 277/1/192
f 276/1/192 275/1/191 278/1/193
f 276/1/192 279/1/194 277/1/192
f 279/1/194 276/1/192 280/1/195
f 280/1/195 281/1/196 279/1/194
f 281/1/196 280/1/195 282/1/197
f 283/1/198 284/1/199 285/1/200
f 284/1/199 283/1/198 286/1/201
f 285/1/200 287/1/202 283/1/198
f 287/1/202 285/1/200 288/1/203
f 289/1/204 287/1/202 288/1/203
f 287/1/202 289/1/204 290/1/205
f 291/1/206 292/1/206 293/1/206
f 294/1/207 295/1/207 296/1/207
