# Blender 5.1.1
# www.blender.org
mtllib ARROW8.mtl
o 112691946025878
v -0.045033 -1.961198 1.096668
v -0.054743 -1.901798 0.940260
v 0.027596 -2.198798 1.030115
v -0.054743 -1.901798 0.940260
v 0.100227 -1.961198 0.963562
v 0.027596 -2.198798 1.030115
v 0.109934 -1.901798 1.119973
v -0.045033 -1.961198 1.096668
v 0.027596 -2.198798 1.030115
v 0.100227 -1.961198 0.963562
v 0.109934 -1.901798 1.119973
v 0.027596 -2.198798 1.030115
v -0.028328 1.586760 1.012483
v -0.015635 1.586760 1.069730
v 0.027596 1.637524 1.030116
v 0.040287 1.586760 1.087363
v 0.014905 1.586760 0.972869
v 0.083520 1.586760 1.047749
v 0.070829 1.586760 0.990501
v 0.245770 1.673243 0.956985
v 0.023764 1.536985 1.006200
v 0.034924 1.536985 1.056536
v 0.256928 1.673243 1.007318
v 0.049139 1.536985 1.015467
v -0.082249 1.645273 0.850818
v -0.104489 1.673243 0.847812
v 0.059731 1.529607 1.005762
v -0.142501 1.673243 0.882644
v 0.011127 1.536985 1.050299
v -0.141444 1.645273 0.905061
v 0.000536 1.529607 1.060005
v 0.011127 1.536985 1.050299
v -0.142501 1.673243 0.882644
v 0.023764 1.536985 1.006200
v 0.245770 1.673243 0.956985
v 0.225830 1.645273 0.946689
v 0.020654 1.529607 0.992175
v 0.003782 1.645273 1.244467
v 0.066978 1.529607 1.044037
v 0.053277 1.536985 1.039718
v -0.015102 1.673243 1.256588
v 0.034924 1.536985 1.056536
v 0.243206 1.645273 1.025075
v 0.256928 1.673243 1.007318
v 0.038034 1.529607 1.070562
v 0.011127 1.358785 1.050299
v -0.061647 1.441851 0.894567
v -0.099658 1.441851 0.929398
v 0.049139 1.358785 1.015467
v -0.015102 1.081043 1.256588
v 0.003782 1.645273 1.244467
v -0.015102 1.673243 1.256588
v 0.003782 1.088493 1.244467
v -0.110250 1.424415 0.939104
v 0.000536 1.351230 1.060005
v 0.011127 1.358785 1.050299
v -0.099658 1.441851 0.929398
v 0.256928 1.081043 1.007318
v 0.034924 0.966561 1.056536
v 0.245770 1.081043 0.956985
v 0.023764 0.966561 1.006200
v 0.256928 1.673243 1.007318
v 0.245770 1.673243 0.956985
v -0.104489 1.081043 0.847812
v 0.049139 0.966561 1.015467
v -0.142501 1.081043 0.882644
v 0.011127 0.966561 1.050299
v -0.104489 1.673243 0.847812
v -0.142501 1.673243 0.882644
v -0.082249 1.645273 0.850818
v -0.082249 1.088493 0.850818
v 0.059731 0.994265 1.005762
v 0.049139 1.358785 1.015467
v -0.051054 1.424415 0.884861
v -0.061647 1.441851 0.894567
v 0.059731 1.341350 1.005762
v 0.053277 0.966561 1.039718
v 0.003782 1.088493 1.244467
v -0.015102 1.081043 1.256588
v 0.066978 0.994265 1.044037
v 0.011127 0.966561 1.050299
v -0.141444 1.088493 0.905061
v -0.142501 1.081043 0.882644
v 0.000536 0.994265 1.060005
v -0.141444 1.645273 0.905061
v -0.142501 1.673243 0.882644
v 0.243206 1.088493 1.025075
v 0.034924 0.966561 1.056536
v 0.256928 1.081043 1.007318
v 0.038034 0.994265 1.070562
v 0.243206 1.645273 1.025075
v 0.256928 1.673243 1.007318
v 0.225830 1.088493 0.946688
v 0.023764 0.966561 1.006200
v 0.020654 0.994265 0.992175
v 0.245770 1.081043 0.956985
v 0.225830 1.645273 0.946689
v 0.245770 1.673243 0.956985
v -0.058135 1.112633 1.173845
v -0.058135 1.559436 1.173845
v -0.039251 1.531612 1.161722
v -0.009595 1.473648 1.019894
v 0.004107 1.445826 1.024213
v -0.009595 1.529607 1.019894
v -0.039251 1.120645 1.161722
v -0.009595 1.037751 1.019894
v 0.004107 1.045759 1.024213
v -0.009595 0.994265 1.019894
v -0.072790 1.088493 1.220323
v 0.004107 0.966561 1.024213
v -0.072790 1.645273 1.220323
v 0.004107 1.536985 1.024213
v -0.064273 1.081043 1.241085
v 0.053277 0.966561 1.039718
v -0.015102 1.081043 1.256588
v -0.064273 1.081043 1.241085
v -0.064273 1.673243 1.241085
v 0.053277 1.536985 1.039718
v -0.015102 1.673243 1.256588
v -0.064273 1.673243 1.241085
v -0.015102 1.081043 1.256588
v -0.015102 1.673243 1.256588
v -0.049325 1.559436 0.886750
v -0.082249 1.088493 0.850818
v -0.082249 1.645273 0.850818
v 0.059731 1.529607 1.005762
v 0.059731 1.473648 1.005762
v -0.049325 1.112633 0.886750
v 0.059731 0.994265 1.005762
v 0.059731 1.037751 1.005762
v 0.000536 1.529607 1.060005
v -0.108520 1.559436 0.940992
v 0.000536 1.473648 1.060005
v -0.141444 1.645273 0.905061
v -0.141444 1.088493 0.905061
v -0.108520 1.112633 0.940992
v 0.000536 0.994265 1.060005
v 0.000536 1.037751 1.060005
v 0.000536 1.351230 1.060005
v -0.110250 1.364003 0.939104
v 0.000536 1.294222 1.060005
v -0.110250 1.424415 0.939104
v -0.051054 1.424415 0.884861
v 0.059731 1.341350 1.005762
v -0.051054 1.364003 0.884861
v 0.059731 1.284803 1.005762
v 0.066978 1.529607 1.044037
v 0.003782 1.645273 1.244467
v 0.018438 1.559436 1.197988
v 0.066978 1.473648 1.044037
v 0.003782 1.088493 1.244467
v 0.018438 1.112633 1.197988
v 0.066978 0.994265 1.044037
v 0.066978 1.037751 1.044037
v 0.195629 1.559436 1.035623
v 0.243206 1.088493 1.025075
v 0.243206 1.645273 1.025075
v 0.038034 1.529607 1.070562
v 0.038034 1.473648 1.070562
v 0.195629 1.112633 1.035623
v 0.038034 0.994265 1.070562
v 0.038034 1.037751 1.070562
v 0.020654 1.529607 0.992175
v 0.178251 1.559436 0.957237
v 0.020654 1.473648 0.992175
v 0.225830 1.645273 0.946689
v 0.225830 1.088493 0.946688
v 0.178251 1.112633 0.957237
v 0.020654 0.994265 0.992175
v 0.020654 1.037751 0.992175
v 0.014905 -1.985417 0.972869
v 0.014905 1.586760 0.972869
v 0.070829 1.586760 0.990501
v -0.028328 -1.985417 1.012483
v 0.070829 -1.985417 0.990500
v -0.028328 1.586760 1.012483
v 0.083520 1.586760 1.047749
v -0.015635 -1.985417 1.069730
v 0.083520 -1.985417 1.047749
v -0.015635 1.586760 1.069730
v 0.040287 1.586760 1.087363
v 0.040289 -1.985417 1.087363
v -0.049325 1.112633 0.886750
v -0.049325 1.559436 0.886750
v -0.048270 1.531612 0.909165
v 0.059731 1.473648 1.005762
v 0.049139 1.445826 1.015467
v -0.048270 1.120645 0.909165
v 0.059731 1.037751 1.005762
v 0.049139 1.045759 1.015467
v 0.000536 1.037751 1.060005
v -0.086282 1.120645 0.943997
v -0.108520 1.112633 0.940992
v 0.011127 1.045759 1.050299
v -0.086282 1.531612 0.943997
v -0.108520 1.559436 0.940992
v 0.000536 1.473648 1.060005
v 0.011127 1.445826 1.050299
v 0.066978 1.037751 1.044037
v 0.009921 1.120645 1.177228
v 0.018438 1.112633 1.197988
v 0.053277 1.045759 1.039718
v 0.009921 1.531612 1.177228
v 0.018438 1.559436 1.197988
v 0.066978 1.473648 1.044037
v 0.053277 1.445826 1.039718
v 0.195629 1.112633 1.035623
v 0.195629 1.559436 1.035623
v 0.175689 1.531612 1.025330
v 0.038034 1.473648 1.070562
v 0.034924 1.445826 1.056536
v 0.175689 1.120645 1.025330
v 0.038034 1.037751 1.070562
v 0.034924 1.045759 1.056536
v 0.020654 1.037751 0.992175
v 0.164529 1.120645 0.974992
v 0.178251 1.112633 0.957237
v 0.023764 1.045759 1.006200
v 0.164529 1.531612 0.974992
v 0.178251 1.559436 0.957237
v 0.020654 1.473648 0.992175
v 0.023764 1.445826 1.006200
v -0.099658 1.346826 0.929398
v 0.011127 1.267624 1.050299
v 0.000536 1.294222 1.060005
v -0.110250 1.364003 0.939104
v 0.059731 1.284803 1.005762
v -0.061647 1.346826 0.894567
v -0.051054 1.364003 0.884861
v 0.049139 1.267624 1.015467
v -0.058905 1.444216 1.176287
v -0.009595 1.341350 1.019894
v -0.058905 1.383805 1.176287
v -0.009595 1.284803 1.019894
v 0.004107 1.358785 1.024213
v -0.045205 1.366624 1.180608
v -0.045205 1.461651 1.180608
v 0.004107 1.267624 1.024213
v 0.053277 1.358785 1.039718
v 0.053277 1.267624 1.039718
v 0.003967 1.461651 1.196112
v 0.003967 1.366624 1.196112
v 0.017666 1.444216 1.200431
v 0.066978 1.294222 1.044037
v 0.066978 1.351230 1.044037
v 0.017666 1.383805 1.200431
v 0.183860 1.461651 0.970708
v 0.034924 1.358785 1.056536
v 0.195020 1.461651 1.021044
v 0.198129 1.444216 1.035068
v 0.023764 1.358785 1.006200
v 0.038034 1.341350 1.070562
v 0.180751 1.444216 0.956682
v 0.198129 1.383805 1.035068
v 0.020654 1.351230 0.992175
v 0.038034 1.284803 1.070562
v 0.180751 1.383805 0.956682
v 0.195020 1.366624 1.021044
v 0.020654 1.294222 0.992175
v 0.034924 1.267624 1.056536
v 0.183860 1.366624 0.970708
v 0.023764 1.267624 1.006200
v -0.061647 1.346826 0.894567
v 0.049139 1.267624 1.015467
v -0.099658 1.346826 0.929398
v 0.011127 1.267624 1.050299
v -0.048270 1.531612 0.909165
v 0.049139 1.445826 1.015467
v -0.086282 1.531612 0.943997
v 0.011127 1.445826 1.050299
v -0.048270 1.120645 0.909165
v -0.086282 1.120645 0.943997
v 0.011127 1.045759 1.050299
v 0.049139 1.045759 1.015467
v 0.053277 1.045759 1.039718
v -0.039251 1.120645 1.161722
v 0.009921 1.120645 1.177228
v 0.004107 1.045759 1.024213
v 0.009921 1.531612 1.177228
v -0.039251 1.531612 1.161722
v 0.053277 1.445826 1.039718
v 0.004107 1.445826 1.024213
v 0.175689 1.531612 1.025330
v 0.023764 1.445826 1.006200
v 0.164529 1.531612 0.974992
v 0.034924 1.445826 1.056536
v 0.175689 1.120645 1.025330
v 0.164529 1.120645 0.974992
v 0.023764 1.045759 1.006200
v 0.034924 1.045759 1.056536
v 0.100227 -1.961198 0.963562
v -0.045033 -1.961198 1.096668
v 0.109934 -1.901798 1.119973
v -0.054743 -1.901798 0.940260
v -0.045033 -1.961198 1.096668
v 0.100227 -1.961198 0.963562
vn -0.958852 -0.280000 -0.046815
vn 0.036961 -0.280000 -0.959254
vn -0.036961 -0.280000 0.959254
vn 0.958852 -0.280000 0.046815
vn -0.624593 0.755700 -0.196693
vn -0.482219 0.756000 0.442571
vn -0.000000 1.000000 0.000000
vn 0.141529 0.755700 0.639422
vn -0.141613 0.755800 -0.639240
vn 0.624908 0.755500 0.196729
vn 0.482817 0.756000 -0.441961
vn -0.501830 0.857800 0.111240
vn -0.501842 0.857800 0.110793
vn -0.501884 0.857800 0.110884
vn -0.501890 0.857800 0.110660
vn 0.574966 0.809400 0.119265
vn 0.715964 0.688000 -0.118746
vn 0.472056 0.845900 0.248149
vn 0.715832 0.688100 -0.118698
vn 0.347277 0.857800 0.378972
vn -0.180776 0.688000 0.702853
vn -0.180643 0.688100 0.702804
vn -0.180601 0.688200 0.702714
vn -0.180818 0.687900 0.702943
vn -0.518589 0.687200 -0.508729
vn -0.518638 0.687100 -0.508862
vn 0.699655 0.687400 -0.194981
vn 0.699522 0.687500 -0.194933
vn 0.699474 0.687500 -0.195066
vn -0.255222 0.687500 0.679833
vn -0.255174 0.687400 0.679966
vn 0.305615 0.892100 0.332733
vn 0.539989 0.000300 0.841667
vn 0.540164 -0.000000 0.841528
vn 0.539989 0.000400 0.841667
vn -0.226983 0.709600 0.667072
vn -0.226851 0.709600 0.667024
vn -0.226808 0.709700 0.666933
vn 0.831163 -0.524600 -0.184303
vn 0.439041 -0.893200 -0.097266
vn 0.976258 0.000400 -0.216721
vn -0.218856 -0.458700 -0.861178
vn 0.005175 -0.828100 -0.560530
vn -0.574868 -0.524300 -0.628208
vn -0.303488 -0.893200 -0.331851
vn -0.468963 -0.000000 -0.883245
vn -0.675294 0.000300 -0.737488
vn 0.133938 -0.000000 -0.990939
vn 0.303577 -0.299600 -0.904442
vn 0.422718 -0.533900 -0.732369
vn 0.748736 0.605300 -0.270185
vn 0.748778 0.605300 -0.270275
vn 0.692026 -0.534300 0.485335
vn 0.691984 -0.534300 0.485426
vn 0.692117 -0.534300 0.485377
vn -0.766447 -0.533900 0.357147
vn -0.927527 -0.299600 0.223666
vn -0.945930 -0.256500 0.198534
vn -0.766399 -0.533900 0.357280
vn -0.998878 -0.000000 0.047066
vn 0.631120 -0.299600 0.715566
vn 0.423216 -0.534300 0.731715
vn 0.661208 -0.256500 0.704991
vn 0.791302 -0.000000 0.611513
vn 0.270317 -0.299600 -0.914986
vn 0.074113 -0.533900 -0.842295
vn 0.301543 -0.256600 -0.918300
vn 0.458804 -0.000000 -0.888551
vn 0.458623 0.000300 -0.888636
vn -0.801221 0.191900 -0.566817
vn -0.901989 -0.153000 -0.403723
vn -0.827044 -0.302500 -0.473817
vn -0.934272 -0.344500 -0.091956
vn -0.861041 -0.507800 0.027373
vn -0.842465 0.300500 -0.447134
vn -0.549985 0.404000 -0.731025
vn -0.843409 0.320800 -0.430913
vn -0.474400 0.713400 -0.515708
vn -0.928951 -0.351300 -0.116618
vn -0.978545 -0.204800 0.021680
vn -0.488382 -0.827900 0.275956
vn -0.920706 0.355200 -0.161984
vn -0.185183 0.809500 -0.557163
vn -0.465458 -0.836900 0.288080
vn -0.135203 -0.893200 0.428840
vn -0.636717 -0.000000 0.771054
vn -0.021048 0.845900 -0.532926
vn 0.154148 0.857800 -0.490291
vn 0.154553 0.857800 -0.490212
vn -0.530701 0.000200 0.847522
vn -0.301025 0.000400 0.953629
vn 0.737488 0.000300 -0.675294
vn 0.737579 0.000300 -0.675251
vn -0.736981 0.000300 0.675861
vn -0.736932 0.000300 0.675994
vn 0.953671 0.000400 0.300934
vn 0.953629 0.000500 0.301025
vn 0.953629 0.000400 0.301025
vn 0.953665 -0.000000 0.300711
vn 0.216721 0.000400 0.976258
vn 0.216854 0.000400 0.976209
vn 0.216854 0.000700 0.976209
vn -0.216721 0.000400 -0.976258
vn -0.216630 0.000300 -0.976216
vn -0.216854 0.000400 -0.976209
vn -0.216763 0.000500 -0.976167
vn -0.953629 0.000400 -0.301025
vn -0.953665 -0.000000 -0.300711
vn 0.216455 -0.000000 0.976355
vn 0.929502 0.353900 -0.103911
vn 0.832977 -0.294700 -0.468350
vn 0.823627 -0.302500 -0.479771
vn 0.406815 -0.508000 -0.759314
vn 0.406773 -0.508000 -0.759224
vn 0.908072 0.403900 -0.110484
vn 0.683676 0.713600 -0.152670
vn -0.211663 0.713600 0.667817
vn -0.189171 0.403900 0.895008
vn -0.184591 0.353900 0.916894
vn -0.211620 0.713600 0.667726
vn -0.549673 -0.302500 0.778652
vn -0.539146 -0.294700 0.788967
vn -0.791862 -0.508000 0.339007
vn 0.684178 0.713600 -0.150670
vn 0.869792 0.403800 -0.283469
vn 0.886334 0.353900 -0.298595
vn 0.949198 -0.302600 0.086448
vn 0.952807 -0.294800 0.072794
vn 0.689739 -0.507700 0.516267
vn -0.374847 0.354000 0.856864
vn -0.010580 -0.294800 0.955446
vn 0.003314 -0.302600 0.953098
vn 0.454141 -0.507700 0.732123
vn 0.454274 -0.507700 0.732074
vn -0.358214 0.403800 0.841781
vn -0.209814 0.713600 0.668348
vn -0.209633 0.713600 0.668432
vn -0.472437 0.713400 -0.517551
vn -0.680265 0.404000 -0.611594
vn -0.702045 0.354100 -0.617888
vn -0.399930 -0.302500 -0.865178
vn -0.413739 -0.294600 -0.861356
vn 0.102298 -0.507800 -0.855413
vn -0.761580 -0.532200 0.369899
vn -0.761580 -0.532100 0.369899
vn 0.340309 -0.613300 -0.712759
vn 0.340309 -0.613400 -0.712759
vn 0.340261 -0.613200 -0.712892
vn 0.340352 -0.613300 -0.712850
vn -0.749577 0.419400 -0.512171
vn -0.878754 0.221600 -0.422789
vn -0.960704 -0.227700 -0.158788
vn -0.906551 -0.421700 -0.018895
vn -0.270965 0.762700 -0.587344
vn -0.552377 -0.772000 0.314524
vn -0.161755 0.800300 -0.577354
vn -0.460994 -0.808300 0.366294
vn 0.470376 0.802600 -0.366774
vn 0.204879 -0.799800 0.564141
vn 0.405380 0.820700 -0.402489
vn 0.339359 -0.747800 0.570578
vn 0.868409 0.494500 -0.036074
vn 0.806545 -0.358200 0.470216
vn 0.947568 0.299400 0.111948
vn 0.893011 -0.200900 0.402626
vn -0.551378 0.820700 -0.149974
vn -0.373186 0.762900 0.527950
vn -0.419080 0.800600 0.428319
vn -0.068814 0.419400 0.905231
vn -0.552995 0.802500 -0.223882
vn 0.073228 0.221600 0.972349
vn -0.465155 0.494800 -0.734059
vn 0.342854 -0.227600 0.911386
vn -0.377243 0.299200 -0.876446
vn 0.436924 -0.421600 0.794600
vn -0.097720 -0.200800 -0.974722
vn 0.548583 -0.772000 0.321129
vn 0.004153 -0.358300 -0.933618
vn 0.547773 -0.808300 0.216150
vn 0.324593 -0.747900 -0.578966
vn 0.385983 -0.800200 -0.459090
vn -0.293710 -0.900300 -0.321113
vn -0.293831 -0.900500 -0.320618
vn -0.293668 -0.900300 -0.321204
vn 0.334108 -0.869500 0.363674
vn -0.345174 -0.859300 -0.377330
vn 0.333951 -0.869300 0.364483
vn -0.345131 -0.859300 -0.377420
vn 0.577684 0.519300 0.629742
vn 0.311567 0.887500 0.339370
vn 0.138764 0.887500 -0.439316
vn 0.257073 0.519200 -0.815127
vn 0.138577 0.887400 -0.439624
vn 0.148523 -0.869100 -0.471839
vn 0.148668 -0.869300 -0.471440
vn -0.153817 -0.859400 0.487687
vn -0.154131 -0.859300 0.487651
vn -0.482620 -0.869300 0.106957
vn 0.499238 -0.859300 -0.111124
vn -0.483025 -0.869100 0.106879
vn 0.499250 -0.859400 -0.110677
vn -0.834456 0.519200 0.184974
vn -0.834365 0.519200 0.185017
vn -0.450023 0.887400 0.099758
vn -0.449794 0.887500 0.099976
vn -0.295650 0.898900 -0.323342
vn 0.296302 0.898900 0.322653
vt 0.000000 0.000000
s 1
f 1/1/1 2/1/1 3/1/1
f 4/1/2 5/1/2 6/1/2
f 7/1/3 8/1/3 9/1/3
f 10/1/4 11/1/4 12/1/4
f 13/1/5 14/1/6 15/1/7
f 14/1/6 16/1/8 15/1/7
f 17/1/9 13/1/5 15/1/7
f 16/1/8 18/1/10 15/1/7
f 19/1/11 17/1/9 15/1/7
f 18/1/10 19/1/11 15/1/7
f 20/1/12 21/1/13 22/1/14
f 20/1/12 22/1/14 23/1/15
f 24/1/16 25/1/17 26/1/18
f 25/1/17 24/1/16 27/1/19
f 28/1/20 24/1/16 26/1/18
f 24/1/16 28/1/20 29/1/20
f 30/1/21 31/1/22 32/1/23
f 30/1/21 32/1/23 33/1/24
f 34/1/25 35/1/26 36/1/26
f 36/1/26 37/1/25 34/1/25
f 38/1/27 39/1/28 40/1/29
f 38/1/27 40/1/29 41/1/27
f 42/1/30 43/1/31 44/1/31
f 43/1/31 42/1/30 45/1/30
f 46/1/32 47/1/32 48/1/32
f 47/1/32 46/1/32 49/1/32
f 50/1/33 51/1/34 52/1/34
f 51/1/34 50/1/33 53/1/35
f 54/1/36 55/1/37 56/1/38
f 54/1/36 56/1/38 57/1/36
f 58/1/39 59/1/40 60/1/39
f 61/1/40 60/1/39 59/1/40
f 60/1/39 62/1/41 58/1/39
f 60/1/39 63/1/41 62/1/41
f 64/1/42 65/1/43 66/1/44
f 67/1/45 66/1/44 65/1/43
f 66/1/44 68/1/46 64/1/42
f 66/1/44 69/1/47 68/1/46
f 64/1/42 68/1/46 70/1/48
f 64/1/42 70/1/48 71/1/49
f 65/1/43 64/1/42 71/1/49
f 65/1/43 71/1/49 72/1/50
f 73/1/51 74/1/52 75/1/52
f 74/1/52 73/1/51 76/1/51
f 77/1/53 78/1/54 79/1/54
f 78/1/54 77/1/53 80/1/55
f 81/1/56 82/1/57 83/1/58
f 82/1/57 81/1/56 84/1/59
f 85/1/60 83/1/58 82/1/57
f 83/1/58 85/1/60 86/1/60
f 87/1/61 88/1/62 89/1/63
f 88/1/62 87/1/61 90/1/62
f 89/1/63 91/1/64 87/1/61
f 89/1/63 92/1/64 91/1/64
f 93/1/65 94/1/66 95/1/66
f 94/1/66 93/1/65 96/1/67
f 97/1/68 96/1/67 93/1/65
f 96/1/67 97/1/68 98/1/69
f 99/1/70 100/1/71 101/1/72
f 101/1/72 102/1/73 103/1/74
f 102/1/73 101/1/72 100/1/71
f 100/1/71 104/1/75 102/1/73
f 99/1/70 101/1/72 105/1/76
f 106/1/77 99/1/70 105/1/76
f 105/1/76 107/1/78 106/1/77
f 99/1/70 106/1/77 108/1/79
f 99/1/70 108/1/79 109/1/80
f 109/1/80 100/1/71 99/1/70
f 109/1/80 108/1/79 110/1/81
f 104/1/75 100/1/71 111/1/82
f 100/1/71 109/1/80 111/1/82
f 111/1/82 112/1/83 104/1/75
f 110/1/81 113/1/84 109/1/80
f 114/1/85 113/1/84 110/1/81
f 113/1/84 114/1/85 115/1/85
f 116/1/86 111/1/82 109/1/80
f 112/1/83 111/1/82 117/1/87
f 117/1/87 118/1/88 112/1/83
f 118/1/88 117/1/87 119/1/89
f 116/1/86 120/1/90 111/1/82
f 121/1/91 120/1/90 116/1/86
f 121/1/91 122/1/91 120/1/90
f 123/1/92 124/1/92 125/1/92
f 126/1/92 123/1/92 125/1/92
f 123/1/92 126/1/92 127/1/92
f 124/1/92 123/1/92 128/1/92
f 128/1/92 129/1/92 124/1/92
f 128/1/92 130/1/93 129/1/92
f 131/1/94 132/1/94 133/1/94
f 132/1/94 131/1/94 134/1/94
f 134/1/94 135/1/94 132/1/94
f 136/1/94 132/1/94 135/1/94
f 137/1/94 136/1/94 135/1/94
f 136/1/94 137/1/94 138/1/95
f 139/1/94 140/1/94 141/1/94
f 140/1/94 139/1/94 142/1/94
f 143/1/92 144/1/92 145/1/92
f 145/1/92 144/1/92 146/1/92
f 147/1/96 148/1/97 149/1/97
f 149/1/97 150/1/98 147/1/96
f 148/1/97 151/1/96 149/1/97
f 152/1/99 149/1/97 151/1/96
f 153/1/96 152/1/99 151/1/96
f 152/1/99 153/1/96 154/1/96
f 155/1/100 156/1/100 157/1/101
f 158/1/100 155/1/100 157/1/101
f 155/1/100 158/1/100 159/1/100
f 156/1/100 155/1/100 160/1/100
f 161/1/102 156/1/100 160/1/100
f 161/1/102 160/1/100 162/1/100
f 163/1/103 164/1/104 165/1/103
f 164/1/104 163/1/103 166/1/103
f 166/1/103 167/1/103 164/1/104
f 168/1/103 164/1/104 167/1/103
f 169/1/105 168/1/103 167/1/103
f 168/1/103 169/1/105 170/1/104
f 171/1/104 172/1/106 173/1/93
f 174/1/107 172/1/106 171/1/104
f 171/1/104 173/1/93 175/1/93
f 174/1/107 176/1/108 172/1/106
f 175/1/93 173/1/93 177/1/98
f 178/1/94 176/1/108 174/1/107
f 175/1/93 177/1/98 179/1/97
f 178/1/94 180/1/94 176/1/108
f 181/1/100 179/1/97 177/1/98
f 182/1/109 180/1/94 178/1/94
f 179/1/97 181/1/100 182/1/109
f 182/1/109 181/1/100 180/1/94
f 183/1/110 184/1/111 185/1/112
f 184/1/111 186/1/113 185/1/112
f 187/1/114 185/1/112 186/1/113
f 183/1/110 185/1/112 188/1/115
f 189/1/116 183/1/110 188/1/115
f 188/1/115 190/1/116 189/1/116
f 191/1/117 192/1/118 193/1/119
f 192/1/118 191/1/117 194/1/120
f 195/1/121 193/1/119 192/1/118
f 193/1/119 195/1/121 196/1/122
f 197/1/123 196/1/122 195/1/121
f 195/1/121 198/1/123 197/1/123
f 199/1/124 200/1/125 201/1/126
f 200/1/125 199/1/124 202/1/124
f 203/1/127 201/1/126 200/1/125
f 201/1/126 203/1/127 204/1/128
f 205/1/129 204/1/128 203/1/127
f 205/1/129 203/1/127 206/1/129
f 207/1/130 208/1/131 209/1/132
f 210/1/133 209/1/132 208/1/131
f 209/1/132 210/1/133 211/1/134
f 207/1/130 209/1/132 212/1/135
f 213/1/136 207/1/130 212/1/135
f 212/1/135 214/1/137 213/1/136
f 215/1/138 216/1/139 217/1/140
f 216/1/139 215/1/138 218/1/138
f 219/1/141 217/1/140 216/1/139
f 217/1/140 219/1/141 220/1/142
f 221/1/143 220/1/142 219/1/141
f 219/1/141 222/1/143 221/1/143
f 223/1/144 224/1/145 225/1/145
f 225/1/145 226/1/144 223/1/144
f 227/1/146 228/1/147 229/1/148
f 228/1/147 227/1/146 230/1/149
f 231/1/150 232/1/151 233/1/152
f 233/1/152 232/1/151 234/1/153
f 231/1/150 235/1/154 232/1/151
f 234/1/153 236/1/155 233/1/152
f 235/1/154 231/1/150 237/1/156
f 236/1/155 234/1/153 238/1/157
f 237/1/156 239/1/158 235/1/154
f 240/1/159 236/1/155 238/1/157
f 239/1/158 237/1/156 241/1/160
f 236/1/155 240/1/159 242/1/161
f 243/1/162 239/1/158 241/1/160
f 244/1/163 242/1/161 240/1/159
f 243/1/162 245/1/164 239/1/158
f 244/1/163 246/1/165 242/1/161
f 246/1/165 245/1/164 243/1/162
f 245/1/164 246/1/165 244/1/163
f 247/1/166 248/1/167 249/1/168
f 248/1/167 250/1/169 249/1/168
f 248/1/167 247/1/166 251/1/170
f 250/1/169 248/1/167 252/1/171
f 251/1/170 247/1/166 253/1/172
f 250/1/169 252/1/171 254/1/173
f 253/1/172 255/1/174 251/1/170
f 256/1/175 254/1/173 252/1/171
f 257/1/176 255/1/174 253/1/172
f 256/1/175 258/1/177 254/1/173
f 255/1/174 257/1/176 259/1/178
f 258/1/177 256/1/175 260/1/179
f 261/1/180 259/1/178 257/1/176
f 258/1/177 260/1/179 261/1/180
f 261/1/180 262/1/181 259/1/178
f 262/1/181 261/1/180 260/1/179
f 263/1/182 264/1/183 265/1/183
f 266/1/184 265/1/183 264/1/183
f 267/1/185 268/1/186 269/1/187
f 270/1/188 269/1/187 268/1/186
f 269/1/187 271/1/189 267/1/185
f 269/1/187 272/1/189 271/1/189
f 273/1/190 271/1/189 272/1/189
f 271/1/189 273/1/190 274/1/190
f 275/1/191 276/1/192 277/1/192
f 276/1/192 275/1/191 278/1/193
f 276/1/192 279/1/194 277/1/192
f 279/1/194 276/1/192 280/1/195
f 280/1/195 281/1/196 279/1/194
f 281/1/196 280/1/195 282/1/197
f 283/1/198 284/1/199 285/1/200
f 284/1/199 283/1/198 286/1/201
f 285/1/200 287/1/202 283/1/198
f 287/1/202 285/1/200 288/1/203
f 289/1/204 287/1/202 288/1/203
f 287/1/202 289/1/204 290/1/205
f 291/1/206 292/1/206 293/1/206
f 294/1/207 295/1/207 296/1/207
