# Blender 5.1.1
# www.blender.org
mtllib body13.mtl
o 104528334607148
v -0.484200 -0.076703 -0.710658
v -0.453271 0.088436 -0.707128
v -0.453271 -0.088436 -0.707128
v -0.484200 0.076703 -0.710658
v -0.484200 -0.076703 0.710658
v -0.453271 0.088436 0.707127
v -0.484200 0.076703 0.710658
v -0.453271 -0.088436 0.707127
v -1.158652 -0.051105 -0.956115
v -0.655102 0.051062 -0.877570
v -0.655102 -0.051062 -0.877570
v -1.158652 0.051106 -0.956115
v -0.509326 0.050929 -0.688497
v -0.509326 -0.050929 -0.688497
v -1.158652 -0.051106 0.956115
v -0.655102 -0.051062 0.877569
v -0.655102 0.051062 0.877569
v -1.158652 0.051106 0.956115
v -0.509326 0.050929 0.688497
v -0.509326 -0.050929 0.688497
v -0.484200 -0.076703 -0.710658
v -0.470712 -0.108749 -0.691586
v -0.510723 -0.093954 -0.687265
v -0.453271 -0.088436 -0.707128
v -0.484200 0.076703 -0.710658
v -0.470712 0.108749 -0.691586
v -0.453271 0.088436 -0.707128
v -0.510723 0.093954 -0.687265
v -0.470712 -0.108749 0.691583
v -0.484200 -0.076703 0.710658
v -0.510723 -0.093954 0.687263
v -0.453271 -0.088436 0.707127
v -0.470712 0.108749 0.691583
v -0.484200 0.076703 0.710658
v -0.453271 0.088436 0.707127
v -0.510723 0.093954 0.687263
v -0.484200 0.076703 -0.710658
v -0.509326 -0.050929 -0.688497
v -0.509326 0.050929 -0.688497
v -0.529052 0.072499 -0.671099
v -0.484200 -0.076703 -0.710658
v -0.510723 0.093954 -0.687265
v -0.529052 -0.072499 -0.671099
v -0.659383 0.072499 -0.556145
v -0.510723 -0.093954 -0.687265
v -0.677726 0.093954 -0.539965
v -0.659383 -0.072499 -0.556145
v -0.704630 0.076703 -0.516236
v -0.677726 -0.093954 -0.539965
v -0.679505 0.050929 -0.538398
v -0.704630 -0.076703 -0.516236
v -0.679505 -0.050929 -0.538398
v -0.509326 -0.050929 0.688497
v -0.484200 0.076703 0.710658
v -0.509326 0.050929 0.688497
v -0.529052 0.072499 0.671099
v -0.484200 -0.076703 0.710658
v -0.510723 0.093954 0.687263
v -0.529052 -0.072499 0.671099
v -0.659383 0.072499 0.556144
v -0.510723 -0.093954 0.687263
v -0.677726 0.093954 0.539965
v -0.659383 -0.072499 0.556144
v -0.704630 0.076703 0.516236
v -0.677726 -0.093954 0.539965
v -0.679505 0.050929 0.538396
v -0.704630 -0.076703 0.516236
v -0.679505 -0.050929 0.538396
v -0.670349 0.072499 -0.854749
v -1.158652 0.051106 -0.956115
v -1.158652 0.072499 -0.930979
v -0.655102 0.051062 -0.877570
v -0.509326 0.050929 -0.688497
v -0.529052 0.072499 -0.671099
v -0.670349 -0.072499 -0.854749
v -1.158652 -0.051105 -0.956115
v -0.655102 -0.051062 -0.877570
v -1.158652 -0.072499 -0.930979
v -0.509326 -0.050929 -0.688497
v -0.529052 -0.072499 -0.671099
v -0.670349 0.072499 0.854747
v -1.158652 0.051106 0.956115
v -0.655102 0.051062 0.877569
v -1.158652 0.072499 0.930978
v -0.509326 0.050929 0.688497
v -0.529052 0.072499 0.671099
v -0.670349 -0.072499 0.854747
v -1.158652 -0.051106 0.956115
v -1.158652 -0.072499 0.930978
v -0.655102 -0.051062 0.877569
v -0.509326 -0.050929 0.688497
v -0.529052 -0.072499 0.671099
v -0.288960 -0.088436 -0.477308
v -0.453271 -0.088436 -0.707128
v -0.453271 0.088436 -0.707128
v -0.288960 0.088436 -0.477308
v -0.288960 -0.088436 0.477308
v -0.453271 0.088436 0.707127
v -0.453271 -0.088436 0.707127
v -0.288960 0.088436 0.477308
v -0.704630 -0.076703 -0.516236
v -0.677726 -0.093954 -0.539965
v -0.689265 -0.108749 -0.498816
v -0.706684 -0.088436 -0.483453
v -0.689265 0.108749 -0.498816
v -0.704630 0.076703 -0.516236
v -0.706684 0.088436 -0.483453
v -0.677726 0.093954 -0.539965
v -0.704630 -0.076703 0.516236
v -0.689265 -0.108749 0.498815
v -0.677726 -0.093954 0.539965
v -0.706684 -0.088436 0.483450
v -0.704630 0.076703 0.516236
v -0.689265 0.108749 0.498815
v -0.706684 0.088436 0.483450
v -0.677726 0.093954 0.539965
v -0.470712 -0.108749 -0.691586
v -0.677726 -0.093954 -0.539965
v -0.510723 -0.093954 -0.687265
v -0.689265 -0.108749 -0.498816
v -0.689265 0.108749 -0.498816
v -0.470712 0.108749 -0.691586
v -0.677726 0.093954 -0.539965
v -0.510723 0.093954 -0.687265
v -0.470712 -0.108749 0.691583
v -0.677726 -0.093954 0.539965
v -0.689265 -0.108749 0.498815
v -0.510723 -0.093954 0.687263
v -0.470712 0.108749 0.691583
v -0.689265 0.108749 0.498815
v -0.677726 0.093954 0.539965
v -0.510723 0.093954 0.687263
v -0.453271 -0.088436 -0.707128
v -0.310524 -0.108749 -0.467533
v -0.470712 -0.108749 -0.691586
v -0.288960 -0.088436 -0.477308
v -0.453271 0.088436 -0.707128
v -0.310524 0.108749 -0.467533
v -0.288960 0.088436 -0.477308
v -0.470712 0.108749 -0.691586
v -0.453271 -0.088436 0.707127
v -0.310524 -0.108749 0.467532
v -0.288960 -0.088436 0.477308
v -0.470712 -0.108749 0.691583
v -0.453271 0.088436 0.707127
v -0.288960 0.088436 0.477308
v -0.310524 0.108749 0.467532
v -0.470712 0.108749 0.691583
v -0.087465 -0.094626 0.003071
v -0.093285 -0.094626 -0.172393
v -0.093285 0.094626 -0.172393
v -0.087465 0.094626 0.003071
v -0.093285 0.094626 -0.450343
v -0.093285 0.094626 0.178534
v -0.093285 -0.094626 -0.450343
v -0.093285 -0.094626 0.178534
v -0.177785 -0.094626 -0.520829
v -0.093285 0.094626 0.456483
v -0.177785 0.094626 -0.520829
v -0.093285 -0.094626 0.456483
v -0.350165 -0.094626 -0.520829
v -0.177785 0.094626 0.526971
v -0.350165 0.094626 -0.520829
v -0.431285 -0.094626 -0.520829
v -0.431285 0.094626 -0.520829
v -0.177785 -0.094626 0.526971
v -0.350165 -0.094626 0.526971
v -0.350165 0.094626 0.526971
v -0.431285 -0.094626 0.526971
v -0.431285 0.094626 0.526971
v -0.102249 -0.114996 0.003071
v -0.108069 -0.114996 -0.172393
v -0.093285 -0.094626 -0.172393
v -0.108069 -0.114996 -0.435326
v -0.087465 -0.094626 0.003071
v -0.093285 -0.094626 -0.450343
v -0.093285 -0.094626 0.178534
v -0.177785 -0.094626 -0.520829
v -0.108069 -0.114996 0.178534
v -0.177785 -0.114996 -0.506047
v -0.108069 -0.114996 0.441467
v -0.350165 -0.094626 -0.520829
v -0.093285 -0.094626 0.456483
v -0.350165 -0.114996 -0.506047
v -0.415826 -0.114996 -0.506047
v -0.431285 -0.094626 -0.520829
v -0.177785 -0.094626 0.526971
v -0.177785 -0.114996 0.512187
v -0.350165 -0.094626 0.526971
v -0.350165 -0.114996 0.512187
v -0.415826 -0.114996 0.512187
v -0.431285 -0.094626 0.526971
v -0.093285 0.094626 -0.172393
v -0.093285 0.094626 -0.450343
v -0.108069 0.114996 -0.435326
v -0.177785 0.094626 -0.520829
v -0.108069 0.114996 -0.172393
v -0.177785 0.114996 -0.506047
v -0.087465 0.094626 0.003071
v -0.350165 0.114996 -0.506047
v -0.102249 0.114996 0.003071
v -0.350165 0.094626 -0.520829
v -0.415826 0.114996 -0.506047
v -0.431285 0.094626 -0.520829
v -0.108069 0.114996 0.178534
v -0.093285 0.094626 0.178534
v -0.108069 0.114996 0.441467
v -0.093285 0.094626 0.456483
v -0.177785 0.094626 0.526971
v -0.177785 0.114996 0.512187
v -0.350165 0.114996 0.512187
v -0.350165 0.094626 0.526971
v -0.415826 0.114996 0.512187
v -0.431285 0.094626 0.526971
v -0.706684 -0.088436 -0.483453
v -0.704630 0.076703 -0.516236
v -0.704630 -0.076703 -0.516236
v -0.706684 0.088436 -0.483453
v -0.706684 -0.088436 0.483450
v -0.704630 0.076703 0.516236
v -0.706684 0.088436 0.483450
v -0.704630 -0.076703 0.516236
v -0.415826 -0.114996 0.512187
v -0.431285 -0.094626 0.432331
v -0.415798 -0.114996 0.432331
v -0.431285 -0.094626 0.526971
v -0.481985 -0.094626 0.347831
v -0.472555 -0.114996 0.337727
v -0.552172 -0.114996 0.306699
v -0.568469 -0.094626 0.312107
v -0.415826 0.114996 0.512187
v -0.431285 0.094626 0.432331
v -0.431285 0.094626 0.526971
v -0.415798 0.114996 0.432331
v -0.481985 0.094626 0.347831
v -0.472555 0.114996 0.337727
v -0.552172 0.114996 0.306699
v -0.568469 0.094626 0.312107
v -0.415826 -0.114996 -0.506047
v -0.415798 -0.114996 -0.426188
v -0.431285 -0.094626 -0.426188
v -0.431285 -0.094626 -0.520829
v -0.481985 -0.094626 -0.341688
v -0.472555 -0.114996 -0.331586
v -0.552172 -0.114996 -0.300557
v -0.568469 -0.094626 -0.305965
v -0.431285 0.094626 -0.426188
v -0.415826 0.114996 -0.506047
v -0.431285 0.094626 -0.520829
v -0.415798 0.114996 -0.426188
v -0.481985 0.094626 -0.341688
v -0.472555 0.114996 -0.331586
v -0.552172 0.114996 -0.300557
v -0.568469 0.094626 -0.305965
v -0.431285 -0.094626 0.432331
v -0.431285 0.094626 0.432331
v -0.481985 -0.094626 0.347831
v -0.431285 -0.094626 0.526971
v -0.431285 0.094626 0.526971
v -0.481985 0.094626 0.347831
v -0.568469 -0.094626 0.312107
v -0.568469 0.094626 0.312107
v -0.481985 -0.094626 -0.341688
v -0.431285 0.094626 -0.426188
v -0.431285 -0.094626 -0.426188
v -0.431285 -0.094626 -0.520829
v -0.431285 0.094626 -0.520829
v -0.481985 0.094626 -0.341688
v -0.568469 -0.094626 -0.305965
v -0.568469 0.094626 -0.305965
v -0.552201 -0.114996 -0.148743
v -0.657098 -0.114996 0.003071
v -0.673336 -0.094626 0.003071
v -0.552201 -0.114996 0.154885
v -0.568469 -0.094626 -0.151447
v -0.552172 -0.114996 -0.300557
v -0.568469 -0.094626 -0.305965
v -0.568469 -0.094626 0.157589
v -0.552172 -0.114996 0.306699
v -0.568469 -0.094626 0.312107
v -0.568469 0.094626 -0.151447
v -0.552172 0.114996 -0.300557
v -0.568469 0.094626 -0.305965
v -0.552201 0.114996 -0.148743
v -0.673336 0.094626 0.003071
v -0.657098 0.114996 0.003071
v -0.552201 0.114996 0.154885
v -0.568469 0.094626 0.157589
v -0.552172 0.114996 0.306699
v -0.568469 0.094626 0.312107
v -0.673336 -0.094626 0.003071
v -0.568469 0.094626 -0.151447
v -0.568469 -0.094626 -0.151447
v -0.568469 0.094626 -0.305965
v -0.568469 -0.094626 -0.305965
v -0.673336 0.094626 0.003071
v -0.568469 0.094626 0.157589
v -0.568469 -0.094626 0.157589
v -0.568469 0.094626 0.312107
v -0.568469 -0.094626 0.312107
v -0.108069 -0.114996 -0.172393
v -0.195395 -0.114996 0.003071
v -0.195395 -0.114996 -0.172393
v -0.102249 -0.114996 0.003071
v -0.108069 -0.114996 0.178534
v -0.195395 -0.114996 -0.366237
v -0.195395 -0.114996 0.178534
v -0.108069 -0.114996 -0.435326
v -0.177785 -0.114996 -0.506047
v -0.350165 -0.114996 -0.506047
v -0.195395 -0.114996 0.372378
v -0.108069 -0.114996 0.441467
v -0.177785 -0.114996 0.512187
v -0.350165 -0.114996 0.512187
v -0.352472 -0.114996 -0.366237
v -0.352472 -0.114996 0.372378
v -0.415798 -0.114996 -0.426188
v -0.415826 -0.114996 -0.506047
v -0.472555 -0.114996 -0.331586
v -0.423176 -0.114996 -0.253037
v -0.471583 -0.114996 -0.223609
v -0.552172 -0.114996 -0.300557
v -0.552201 -0.114996 -0.148743
v -0.471554 -0.114996 -0.110270
v -0.657098 -0.114996 0.003071
v -0.403925 -0.114996 0.003071
v -0.471554 -0.114996 0.116410
v -0.552201 -0.114996 0.154885
v -0.471583 -0.114996 0.229750
v -0.552172 -0.114996 0.306699
v -0.472555 -0.114996 0.337727
v -0.423176 -0.114996 0.259177
v -0.415798 -0.114996 0.432331
v -0.415826 -0.114996 0.512187
v -0.352472 0.114996 -0.366237
v -0.195395 0.114996 -0.366237
v -0.350165 0.114996 -0.506047
v -0.177785 0.114996 -0.506047
v -0.108069 0.114996 -0.435326
v -0.108069 0.114996 -0.172393
v -0.195395 0.114996 -0.172393
v -0.195395 0.114996 0.003071
v -0.102249 0.114996 0.003071
v -0.108069 0.114996 0.178534
v -0.195395 0.114996 0.178534
v -0.195395 0.114996 0.372378
v -0.108069 0.114996 0.441467
v -0.177785 0.114996 0.512187
v -0.350165 0.114996 0.512187
v -0.352472 0.114996 0.372378
v -0.415798 0.114996 0.432331
v -0.415826 0.114996 0.512187
v -0.472555 0.114996 0.337727
v -0.423176 0.114996 0.259177
v -0.471583 0.114996 0.229750
v -0.552172 0.114996 0.306699
v -0.552201 0.114996 0.154885
v -0.471554 0.114996 0.116410
v -0.657098 0.114996 0.003071
v -0.403925 0.114996 0.003071
v -0.471554 0.114996 -0.110270
v -0.552201 0.114996 -0.148743
v -0.471583 0.114996 -0.223609
v -0.552172 0.114996 -0.300557
v -0.472555 0.114996 -0.331586
v -0.423176 0.114996 -0.253037
v -0.415798 0.114996 -0.426188
v -0.415826 0.114996 -0.506047
v -0.689265 -0.108749 0.498815
v -0.310524 -0.108749 0.467532
v -0.470712 -0.108749 0.691583
v -0.493776 -0.108749 0.286220
v -0.689265 -0.108749 -0.498816
v -0.310524 -0.108749 -0.467533
v -0.493776 -0.108749 -0.286221
v -0.470712 -0.108749 -0.691586
v -0.493776 0.108749 0.286220
v -0.689265 0.108749 0.498815
v -0.310524 0.108749 0.467532
v -0.470712 0.108749 0.691583
v -0.310524 0.108749 -0.467533
v -0.470712 0.108749 -0.691586
v -0.689265 0.108749 -0.498816
v -0.493776 0.108749 -0.286221
v -0.783982 -0.072499 0.684648
v -0.529052 -0.072499 0.671099
v -0.670349 -0.072499 0.854747
v -0.659383 -0.072499 0.556144
v -1.158652 -0.072499 0.930978
v -1.158652 -0.072499 0.725535
v -0.783982 -0.072499 -0.684648
v -0.529052 -0.072499 -0.671099
v -0.659383 -0.072499 -0.556145
v -0.670349 -0.072499 -0.854749
v -1.158652 -0.072499 -0.930979
v -1.158652 -0.072499 -0.725535
v -0.659383 0.072499 0.556144
v -0.783982 0.072499 0.684648
v -0.529052 0.072499 0.671099
v -0.670349 0.072499 0.854747
v -1.158652 0.072499 0.930978
v -1.158652 0.072499 0.725535
v -0.529052 0.072499 -0.671099
v -0.670349 0.072499 -0.854749
v -0.783982 0.072499 -0.684648
v -0.659383 0.072499 -0.556145
v -1.158652 0.072499 -0.930979
v -1.158652 0.072499 -0.725535
v -0.207369 0.091045 -0.354263
v -0.352472 0.114996 -0.366237
v -0.346997 0.091045 -0.354263
v -0.195395 0.114996 -0.366237
v -0.423176 0.114996 -0.253037
v -0.415442 0.091045 -0.244751
v -0.458116 0.091045 -0.219141
v -0.471583 0.114996 -0.223609
v -0.471554 0.114996 -0.110270
v -0.458116 0.091045 -0.108035
v -0.403925 0.114996 0.003071
v -0.390516 0.091045 0.003071
v -0.352472 -0.114996 -0.366237
v -0.195395 -0.114996 -0.366237
v -0.207369 -0.091045 -0.354263
v -0.346997 -0.091045 -0.354263
v -0.423176 -0.114996 -0.253037
v -0.415442 -0.091045 -0.244751
v -0.458116 -0.091045 -0.219141
v -0.471583 -0.114996 -0.223609
v -0.471554 -0.114996 -0.110270
v -0.458116 -0.091045 -0.108035
v -0.403925 -0.114996 0.003071
v -0.390516 -0.091045 0.003071
v -0.352472 0.114996 0.372378
v -0.207369 0.091045 0.360404
v -0.346997 0.091045 0.360404
v -0.195395 0.114996 0.372378
v -0.423176 0.114996 0.259177
v -0.415442 0.091045 0.250892
v -0.458116 0.091045 0.225281
v -0.471583 0.114996 0.229750
v -0.471554 0.114996 0.116410
v -0.458116 0.091045 0.114176
v -0.403925 0.114996 0.003071
v -0.390516 0.091045 0.003071
v -0.195395 -0.114996 0.372378
v -0.352472 -0.114996 0.372378
v -0.207369 -0.091045 0.360404
v -0.346997 -0.091045 0.360404
v -0.423176 -0.114996 0.259177
v -0.415442 -0.091045 0.250892
v -0.458116 -0.091045 0.225281
v -0.471583 -0.114996 0.229750
v -0.471554 -0.114996 0.116410
v -0.458116 -0.091045 0.114176
v -0.403925 -0.114996 0.003071
v -0.390516 -0.091045 0.003071
v -0.689265 0.108749 0.498815
v -0.493776 0.108749 0.286220
v -0.515901 0.088436 0.276190
v -0.706684 0.088436 0.483450
v -0.689265 -0.108749 0.498815
v -0.515901 -0.088436 0.276190
v -0.493776 -0.108749 0.286220
v -0.706684 -0.088436 0.483450
v -0.346997 -0.091045 -0.354263
v -0.207369 -0.091045 -0.354263
v -0.346997 0.091045 -0.354263
v -0.207369 0.091045 -0.354263
v -0.415442 0.091045 -0.244751
v -0.415442 -0.091045 -0.244751
v -0.458116 0.091045 -0.219141
v -0.458116 -0.091045 -0.219141
v -0.458116 0.091045 -0.108035
v -0.458116 -0.091045 -0.108035
v -0.390516 0.091045 0.003071
v -0.390516 -0.091045 0.003071
v -0.689265 0.108749 -0.498816
v -0.515901 0.088436 -0.276192
v -0.493776 0.108749 -0.286221
v -0.706684 0.088436 -0.483453
v -0.689265 -0.108749 -0.498816
v -0.515901 -0.088436 -0.276192
v -0.706684 -0.088436 -0.483453
v -0.493776 -0.108749 -0.286221
v -0.346997 0.091045 0.360404
v -0.207369 -0.091045 0.360404
v -0.346997 -0.091045 0.360404
v -0.207369 0.091045 0.360404
v -0.415442 0.091045 0.250892
v -0.415442 -0.091045 0.250892
v -0.458116 0.091045 0.225281
v -0.458116 -0.091045 0.225281
v -0.458116 0.091045 0.114176
v -0.458116 -0.091045 0.114176
v -0.390516 0.091045 0.003071
v -0.390516 -0.091045 0.003071
v -0.515901 -0.088436 0.276190
v -0.706684 -0.088436 0.483450
v -0.515901 0.088436 0.276190
v -0.706684 0.088436 0.483450
v -0.515901 -0.088436 -0.276192
v -0.515901 0.088436 -0.276192
v -0.706684 -0.088436 -0.483453
v -0.706684 0.088436 -0.483453
v -0.207369 0.091045 -0.172393
v -0.207369 0.091045 0.003071
v -0.195395 0.114996 0.003071
v -0.207369 0.091045 0.178534
v -0.195395 0.114996 -0.172393
v -0.207369 0.091045 -0.354263
v -0.195395 0.114996 -0.366237
v -0.195395 0.114996 0.178534
v -0.207369 0.091045 0.360404
v -0.195395 0.114996 0.372378
v -0.195395 -0.114996 -0.172393
v -0.207369 -0.091045 -0.354263
v -0.195395 -0.114996 -0.366237
v -0.207369 -0.091045 -0.172393
v -0.207369 -0.091045 0.003071
v -0.195395 -0.114996 0.003071
v -0.195395 -0.114996 0.178534
v -0.207369 -0.091045 0.178534
v -0.207369 -0.091045 0.360404
v -0.195395 -0.114996 0.372378
v -0.207369 -0.091045 -0.354263
v -0.207369 -0.091045 -0.172393
v -0.207369 0.091045 -0.172393
v -0.207369 0.091045 -0.354263
v -0.207369 0.091045 0.003071
v -0.207369 -0.091045 0.003071
v -0.207369 -0.091045 0.178534
v -0.207369 0.091045 0.178534
v -0.207369 -0.091045 0.360404
v -0.207369 0.091045 0.360404
v -1.158652 0.072499 0.725535
v -0.783982 0.072499 0.684648
v -0.799099 0.051062 0.662015
v -1.158652 0.051106 0.701286
v -0.659383 0.072499 0.556144
v -0.679505 0.050929 0.538396
v -1.158652 -0.072499 0.725535
v -0.799099 -0.051062 0.662015
v -0.783982 -0.072499 0.684648
v -1.158652 -0.051106 0.701286
v -0.659383 -0.072499 0.556144
v -0.679505 -0.050929 0.538396
v -1.158652 -0.072499 -0.725535
v -0.799099 -0.051062 -0.662016
v -1.158652 -0.051105 -0.701288
v -0.783982 -0.072499 -0.684648
v -0.659383 -0.072499 -0.556145
v -0.679505 -0.050929 -0.538398
v -0.783982 0.072499 -0.684648
v -1.158652 0.072499 -0.725535
v -0.799099 0.051062 -0.662016
v -1.158652 0.051106 -0.701288
v -0.659383 0.072499 -0.556145
v -0.679505 0.050929 -0.538398
v -0.799099 -0.051062 0.662015
v -1.158652 -0.051106 0.701286
v -1.158652 0.051106 0.701286
v -0.799099 0.051062 0.662015
v -0.679505 0.050929 0.538396
v -0.679505 -0.050929 0.538396
v -0.799099 -0.051062 -0.662016
v -1.158652 0.051106 -0.701288
v -1.158652 -0.051105 -0.701288
v -0.799099 0.051062 -0.662016
v -0.679505 0.050929 -0.538398
v -0.679505 -0.050929 -0.538398
vn 0.113700 0.000500 -0.993500
vn 0.113700 0.000400 -0.993500
vn 0.113700 0.000400 0.993500
vn 0.113900 0.000600 0.993500
vn 0.154100 -0.000000 -0.988100
vn 0.509200 -0.000000 -0.860600
vn 0.153900 0.000500 -0.988100
vn 0.791900 -0.000000 -0.610600
vn 0.792100 0.000400 -0.610400
vn 0.154000 0.000300 0.988100
vn 0.509700 0.000700 0.860400
vn 0.509200 -0.000000 0.860600
vn 0.154100 -0.000000 0.988100
vn 0.792000 0.000300 0.610500
vn 0.792100 0.000300 0.610500
vn -0.220700 -0.565500 -0.794700
vn -0.220600 -0.565500 -0.794700
vn -0.220700 0.565500 -0.794700
vn -0.220600 0.565500 -0.794700
vn -0.220700 -0.565500 0.794700
vn -0.220600 -0.565500 0.794700
vn -0.220700 0.565500 0.794700
vn -0.220600 0.565500 0.794700
vn -0.661800 0.000600 -0.749700
vn -0.661500 -0.000000 -0.750000
vn -0.661800 0.000500 -0.749700
vn -0.661700 0.000400 -0.749700
vn -0.661700 0.000400 -0.749800
vn -0.661700 0.000500 -0.749700
vn -0.661500 -0.000000 0.750000
vn -0.661800 0.000500 0.749700
vn -0.661500 0.000100 0.750000
vn -0.661800 0.000600 0.749700
vn -0.661500 -0.000100 0.750000
vn -0.661800 0.000600 0.749600
vn -0.661700 0.000500 0.749700
vn -0.661700 0.000300 0.749800
vn 0.306900 0.787700 -0.534100
vn 0.100700 0.757700 -0.644800
vn 0.100500 0.757900 -0.644600
vn 0.318100 0.787800 -0.527500
vn 0.503500 0.772100 -0.387800
vn 0.503500 0.772000 -0.387800
vn 0.307000 -0.787500 -0.534500
vn 0.100700 -0.757700 -0.644800
vn 0.318100 -0.787800 -0.527500
vn 0.100500 -0.757900 -0.644600
vn 0.503600 -0.771900 -0.387900
vn 0.503600 -0.772000 -0.387800
vn 0.307000 0.787500 0.534500
vn 0.100400 0.758000 0.644500
vn 0.317800 0.788000 0.527300
vn 0.100500 0.758000 0.644500
vn 0.503500 0.772100 0.387800
vn 0.503600 0.772000 0.387900
vn 0.307000 -0.787500 0.534500
vn 0.100400 -0.758000 0.644500
vn 0.100500 -0.758000 0.644500
vn 0.318100 -0.787800 0.527500
vn 0.503600 -0.772000 0.387900
vn 0.813300 0.000500 -0.581800
vn 0.813500 -0.000000 -0.581600
vn 0.813400 0.000300 0.581700
vn 0.813500 -0.000000 0.581600
vn -0.763700 -0.550100 -0.337800
vn -0.763800 -0.550000 -0.337800
vn -0.763800 -0.550000 -0.337700
vn -0.763800 -0.550100 -0.337700
vn -0.763800 0.550000 -0.337700
vn -0.763700 0.550100 -0.337800
vn -0.763800 0.550000 -0.337800
vn -0.763700 -0.550100 0.337800
vn -0.763800 -0.550100 0.337700
vn -0.763800 -0.550000 0.337800
vn -0.763800 -0.550000 0.337600
vn -0.763800 0.550000 0.337600
vn -0.763800 0.550100 0.337700
vn -0.355400 -0.843400 -0.402900
vn -0.355400 -0.843600 -0.402600
vn -0.355400 0.843600 -0.402600
vn -0.355400 0.843400 -0.402900
vn -0.355400 -0.843600 0.402500
vn -0.355400 -0.843400 0.402900
vn -0.355400 -0.843600 0.402600
vn -0.355400 0.843700 0.402400
vn -0.355400 0.843600 0.402500
vn -0.355400 0.843400 0.402900
vn -0.355400 0.843600 0.402600
vn 0.535600 -0.752600 -0.383100
vn 0.535500 -0.752800 -0.382900
vn 0.535700 -0.752500 -0.383200
vn 0.535600 0.752600 -0.383100
vn 0.535500 0.752800 -0.382900
vn 0.535700 0.752500 -0.383200
vn 0.535600 -0.752600 0.383100
vn 0.535500 -0.752800 0.382900
vn 0.535700 -0.752500 0.383200
vn 0.535600 0.752600 0.383100
vn 0.535700 0.752500 0.383200
vn 0.535500 0.752800 0.382900
vn 1.000000 0.000500 -0.000500
vn 0.999900 0.000300 -0.016400
vn 0.999900 0.000600 -0.016100
vn 0.905800 0.000500 -0.423800
vn 0.999900 0.000600 0.016100
vn 0.999900 0.000300 0.016400
vn 0.340500 0.000300 -0.940200
vn 0.905800 0.000500 0.423800
vn 0.340600 -0.000000 -0.940200
vn 0.905700 -0.000000 0.423900
vn 0.000500 0.000500 -1.000000
vn 0.340600 -0.000000 0.940200
vn 0.340700 -0.000000 0.940200
vn 0.000500 0.000500 1.000000
vn 0.809500 -0.587200 -0.000400
vn 0.809200 -0.587300 -0.013300
vn 0.809200 -0.587300 -0.013500
vn 0.728400 -0.633100 -0.262100
vn 0.680600 -0.637800 -0.360400
vn 0.809200 -0.587300 0.013500
vn 0.241300 -0.626900 -0.740800
vn 0.809300 -0.587200 0.013800
vn 0.309500 -0.631000 -0.711400
vn 0.728400 -0.633000 0.262100
vn 0.000400 -0.587200 -0.809500
vn 0.680600 -0.637800 0.360400
vn 0.000300 -0.587200 -0.809400
vn -0.000000 -0.587300 -0.809300
vn 0.241300 -0.626900 0.740800
vn 0.309500 -0.631000 0.711400
vn 0.000400 -0.587200 0.809500
vn 0.000300 -0.587300 0.809400
vn 0.000500 -0.587200 0.809500
vn 0.809500 0.587000 -0.014000
vn 0.680600 0.637800 -0.360400
vn 0.728400 0.633100 -0.262100
vn 0.241300 0.626900 -0.740800
vn 0.809200 0.587300 -0.013300
vn 0.309600 0.630900 -0.711400
vn 0.809500 0.587200 -0.000400
vn -0.000000 0.587300 -0.809300
vn 0.000300 0.587200 -0.809400
vn 0.809200 0.587300 0.013300
vn 0.809200 0.587300 0.013500
vn 0.728400 0.633000 0.262100
vn 0.680600 0.637800 0.360400
vn 0.241300 0.626900 0.740800
vn 0.309500 0.631000 0.711400
vn 0.000300 0.587300 0.809400
vn -0.000000 0.587400 0.809300
vn 0.000500 0.587200 0.809500
vn -0.998000 -0.000000 -0.062500
vn -0.998000 0.000400 -0.062900
vn -0.998000 0.000400 0.062900
vn -0.998000 0.000600 0.063100
vn -0.998000 -0.000000 0.062500
vn -0.796500 -0.604600 -0.000400
vn -0.772900 -0.587500 0.239500
vn -0.780500 -0.593400 0.196800
vn -0.796600 -0.604600 -0.000300
vn -0.538200 -0.546900 0.641300
vn -0.543900 -0.547900 0.635600
vn -0.321500 -0.507100 0.799700
vn -0.796500 0.604600 -0.000700
vn -0.772900 0.587500 0.239500
vn -0.796600 0.604600 -0.000300
vn -0.780500 0.593400 0.196800
vn -0.538200 0.546800 0.641300
vn -0.543900 0.547900 0.635600
vn -0.321500 0.507100 0.799700
vn -0.796500 -0.604600 0.000400
vn -0.780600 -0.593100 -0.197400
vn -0.772900 -0.587500 -0.239500
vn -0.796500 -0.604600 0.000700
vn -0.538200 -0.546800 -0.641300
vn -0.543900 -0.547800 -0.635600
vn -0.321500 -0.507200 -0.799600
vn -0.772900 0.587500 -0.239500
vn -0.796500 0.604600 0.000400
vn -0.796500 0.604600 0.000700
vn -0.780600 0.593100 -0.197400
vn -0.538200 0.546800 -0.641300
vn -0.543900 0.547800 -0.635600
vn -0.321500 0.507100 -0.799700
vn -0.321500 0.507200 -0.799600
vn -0.963700 0.000500 0.267100
vn -0.963600 0.000700 0.267300
vn -0.652600 -0.000000 0.757700
vn -1.000000 0.000500 -0.000500
vn -0.381700 0.000300 0.924300
vn -0.652400 0.000500 -0.757900
vn -0.963600 0.000700 -0.267300
vn -0.963700 0.000500 -0.267100
vn -0.652300 0.000600 -0.757900
vn -0.381800 -0.000000 -0.924300
vn -0.754000 -0.617400 -0.224400
vn -0.764500 -0.644600 -0.000500
vn -0.764600 -0.644600 -0.000500
vn -0.754000 -0.617300 0.224500
vn -0.748500 -0.614500 -0.249200
vn -0.781100 -0.624400 -0.000300
vn -0.781100 -0.624500 -0.000300
vn -0.748500 -0.614500 0.249200
vn -0.781200 -0.624300 0.000500
vn -0.781100 -0.624500 0.000300
vn -0.748500 0.614500 -0.249200
vn -0.781100 0.624400 -0.000300
vn -0.781100 0.624400 -0.000400
vn -0.754000 0.617400 -0.224400
vn -0.764600 0.644600 -0.000500
vn -0.764500 0.644600 -0.000500
vn -0.754000 0.617300 0.224500
vn -0.748500 0.614500 0.249200
vn -0.781200 0.624300 0.000500
vn -0.781100 0.624500 0.000300
vn -1.000000 0.000600 -0.000500
vn -0.955900 0.000300 -0.293600
vn -0.955900 0.000500 -0.293600
vn -0.955900 0.000300 0.293700
vn -0.955900 0.000500 0.293600
vn 0.000400 -1.000000 -0.000400
vn 0.000200 -1.000000 -0.000200
vn 0.000400 1.000000 -0.000400
vn 0.000200 1.000000 -0.000200
vn 0.000500 1.000000 -0.000500
vn 0.000500 -1.000000 -0.000500
vn 0.000200 0.447000 0.894500
vn 0.418300 0.480600 0.770800
vn 0.435700 0.480100 0.761300
vn 0.000400 0.446900 0.894600
vn 0.635900 0.425800 0.643700
vn 0.634100 0.425700 0.645600
vn 0.737600 0.501800 0.451900
vn 0.761200 0.506000 0.405700
vn 0.856700 0.471100 -0.210000
vn 0.845300 0.461800 -0.268600
vn 0.779500 0.415200 -0.469000
vn 0.418300 -0.480900 0.770600
vn 0.000400 -0.446900 0.894600
vn 0.435700 -0.480100 0.761300
vn 0.636000 -0.425700 0.643700
vn 0.634000 -0.425700 0.645600
vn 0.737500 -0.501900 0.451900
vn 0.761200 -0.506000 0.405700
vn 0.856700 -0.471100 -0.210000
vn 0.845300 -0.461800 -0.268700
vn 0.779500 -0.415200 -0.469000
vn 0.418300 0.480900 -0.770600
vn 0.000400 0.446900 -0.894600
vn 0.435700 0.480100 -0.761300
vn 0.636100 0.425500 -0.643700
vn 0.634000 0.425700 -0.645600
vn 0.737500 0.501900 -0.451800
vn 0.761200 0.506000 -0.405700
vn 0.856800 0.471000 0.210000
vn 0.845400 0.461700 0.268700
vn 0.779500 0.415200 0.469000
vn 0.000400 -0.446900 -0.894600
vn 0.418300 -0.480400 -0.770800
vn -0.000000 -0.447200 -0.894400
vn 0.435700 -0.480100 -0.761300
vn 0.635800 -0.425800 -0.643700
vn 0.634000 -0.425800 -0.645600
vn 0.737500 -0.502000 -0.451800
vn 0.761200 -0.506000 -0.405700
vn 0.856700 -0.471100 0.210000
vn 0.845400 -0.461700 0.268700
vn 0.779500 -0.415200 0.469000
vn -0.485200 0.751700 -0.446800
vn -0.485100 0.751700 -0.446800
vn -0.485200 -0.751700 -0.446800
vn -0.485100 -0.751700 -0.446800
vn 0.484800 -0.000000 0.874600
vn 0.484900 0.000800 0.874500
vn 0.700700 0.000500 0.713400
vn 0.870200 -0.000000 0.492600
vn 0.870200 -0.000000 0.492700
vn 0.962900 -0.000000 -0.269900
vn 0.854200 0.000300 -0.519900
vn 0.854100 0.000600 -0.520100
vn -0.485200 0.751600 0.446800
vn -0.485200 0.751700 0.446800
vn -0.485100 0.751700 0.446800
vn -0.485100 0.751700 0.446700
vn -0.485200 -0.751600 0.446800
vn -0.485200 -0.751700 0.446800
vn -0.485100 -0.751700 0.446700
vn -0.485100 -0.751700 0.446800
vn 0.484900 0.000800 -0.874500
vn 0.484800 -0.000000 -0.874600
vn 0.700700 -0.000000 -0.713500
vn 0.700700 0.000500 -0.713400
vn 0.870200 -0.000000 -0.492600
vn 0.962900 -0.000000 0.269900
vn 0.854300 -0.000000 0.519800
vn 0.854200 0.000400 0.520000
vn -0.735400 0.000400 -0.677600
vn -0.735500 0.000300 0.677500
vn -0.735400 0.000500 0.677600
vn -0.894400 0.447200 0.000000
vn -0.894600 0.446900 -0.000400
vn -0.894500 0.447000 -0.000200
vn -0.894500 0.447000 -0.000300
vn -0.894700 -0.446700 -0.000500
vn -0.894600 -0.446900 -0.000400
vn -0.894500 -0.447000 -0.000200
vn -0.071700 0.747700 -0.660200
vn -0.282800 0.783500 -0.553200
vn -0.257700 0.781600 -0.568100
vn -0.071700 0.747700 -0.660100
vn -0.450200 0.779000 -0.436400
vn -0.071700 -0.747700 -0.660200
vn -0.257700 -0.781600 -0.568100
vn -0.282800 -0.783800 -0.552900
vn -0.071600 -0.747700 -0.660200
vn -0.450600 -0.778700 -0.436500
vn -0.450400 -0.778800 -0.436500
vn -0.071700 -0.747700 0.660200
vn -0.257700 -0.781600 0.568100
vn -0.072000 -0.747900 0.659900
vn -0.282800 -0.783500 0.553300
vn -0.450600 -0.778700 0.436500
vn -0.450400 -0.778800 0.436500
vn -0.282800 0.783500 0.553300
vn -0.071600 0.747700 0.660200
vn -0.257700 0.781600 0.568100
vn -0.071700 0.747700 0.660200
vn -0.450200 0.779000 0.436400
vn -0.450500 0.778700 0.436600
vn -0.440000 0.000500 -0.898000
vn -0.108800 0.000400 -0.994100
vn -0.439900 0.000400 -0.898000
vn -0.718700 -0.000000 -0.695300
vn -0.718700 0.000500 -0.695300
vn -0.440000 0.000500 0.898000
vn -0.108800 0.000400 0.994100
vn -0.439900 0.000400 0.898000
vn -0.718700 -0.000000 0.695300
vt 0.000000 0.000000
s 1
f 1/1/1 2/1/2 3/1/1
f 2/1/2 1/1/1 4/1/2
f 5/1/3 6/1/4 7/1/4
f 6/1/4 5/1/3 8/1/3
f 9/1/5 10/1/6 11/1/6
f 10/1/6 9/1/5 12/1/7
f 13/1/8 11/1/6 10/1/6
f 11/1/6 13/1/8 14/1/9
f 15/1/10 16/1/11 17/1/12
f 15/1/10 17/1/12 18/1/13
f 16/1/11 19/1/14 17/1/12
f 19/1/14 16/1/11 20/1/15
f 21/1/16 22/1/16 23/1/16
f 22/1/16 21/1/16 24/1/17
f 25/1/18 26/1/18 27/1/19
f 26/1/18 25/1/18 28/1/18
f 29/1/20 30/1/20 31/1/20
f 30/1/20 29/1/20 32/1/21
f 33/1/22 34/1/23 35/1/23
f 34/1/23 33/1/22 36/1/22
f 37/1/24 38/1/25 39/1/26
f 40/1/25 37/1/24 39/1/26
f 38/1/25 37/1/24 41/1/27
f 37/1/24 40/1/25 42/1/25
f 41/1/27 43/1/25 38/1/25
f 44/1/26 42/1/25 40/1/25
f 43/1/25 41/1/27 45/1/25
f 46/1/26 42/1/25 44/1/26
f 45/1/25 47/1/24 43/1/25
f 46/1/26 44/1/26 48/1/28
f 47/1/24 45/1/25 49/1/29
f 44/1/26 50/1/28 48/1/28
f 51/1/25 47/1/24 49/1/29
f 52/1/25 48/1/28 50/1/28
f 47/1/24 51/1/25 52/1/25
f 51/1/25 48/1/28 52/1/25
f 53/1/30 54/1/31 55/1/31
f 54/1/31 56/1/32 55/1/31
f 54/1/31 53/1/30 57/1/33
f 56/1/32 54/1/31 58/1/32
f 57/1/33 53/1/30 59/1/34
f 60/1/33 56/1/32 58/1/32
f 57/1/33 59/1/34 61/1/34
f 60/1/33 58/1/32 62/1/31
f 63/1/35 61/1/34 59/1/34
f 64/1/36 60/1/33 62/1/31
f 61/1/34 63/1/35 65/1/35
f 60/1/33 64/1/36 66/1/31
f 63/1/35 67/1/31 65/1/35
f 64/1/36 68/1/37 66/1/31
f 67/1/31 63/1/35 68/1/37
f 64/1/36 67/1/31 68/1/37
f 69/1/38 70/1/39 71/1/40
f 70/1/39 69/1/38 72/1/41
f 69/1/38 73/1/42 72/1/41
f 73/1/42 69/1/38 74/1/43
f 75/1/44 76/1/45 77/1/46
f 76/1/45 75/1/44 78/1/47
f 77/1/46 79/1/48 75/1/44
f 80/1/49 75/1/44 79/1/48
f 81/1/50 82/1/51 83/1/52
f 82/1/51 81/1/50 84/1/53
f 85/1/54 81/1/50 83/1/52
f 81/1/50 85/1/54 86/1/55
f 87/1/56 88/1/57 89/1/58
f 88/1/57 87/1/56 90/1/59
f 91/1/60 90/1/59 87/1/56
f 91/1/60 87/1/56 92/1/60
f 93/1/61 94/1/62 95/1/62
f 93/1/61 95/1/62 96/1/62
f 97/1/63 98/1/63 99/1/64
f 98/1/63 97/1/63 100/1/64
f 101/1/65 102/1/66 103/1/67
f 103/1/67 104/1/68 101/1/65
f 105/1/69 106/1/70 107/1/69
f 106/1/70 105/1/69 108/1/71
f 109/1/72 110/1/73 111/1/74
f 110/1/73 109/1/72 112/1/75
f 113/1/76 114/1/77 115/1/76
f 114/1/77 113/1/76 116/1/77
f 117/1/78 118/1/78 119/1/78
f 118/1/78 117/1/78 120/1/79
f 121/1/80 122/1/81 123/1/81
f 123/1/81 122/1/81 124/1/81
f 125/1/82 126/1/83 127/1/82
f 126/1/83 125/1/82 128/1/84
f 129/1/85 130/1/86 131/1/87
f 129/1/85 131/1/87 132/1/88
f 133/1/89 134/1/90 135/1/90
f 134/1/90 133/1/89 136/1/91
f 137/1/92 138/1/93 139/1/94
f 140/1/93 138/1/93 137/1/92
f 141/1/95 142/1/96 143/1/97
f 142/1/96 141/1/95 144/1/96
f 145/1/98 146/1/99 147/1/100
f 147/1/100 148/1/100 145/1/98
f 149/1/101 150/1/102 151/1/103
f 149/1/101 151/1/103 152/1/101
f 150/1/102 153/1/104 151/1/103
f 154/1/105 149/1/101 152/1/101
f 150/1/102 155/1/104 153/1/104
f 149/1/101 154/1/105 156/1/106
f 157/1/107 153/1/104 155/1/104
f 158/1/108 156/1/106 154/1/105
f 153/1/104 157/1/107 159/1/109
f 156/1/106 158/1/108 160/1/110
f 161/1/111 159/1/109 157/1/107
f 162/1/112 160/1/110 158/1/108
f 159/1/109 161/1/111 163/1/111
f 164/1/111 163/1/111 161/1/111
f 163/1/111 164/1/111 165/1/111
f 160/1/110 162/1/112 166/1/113
f 167/1/114 166/1/113 162/1/112
f 167/1/114 162/1/112 168/1/114
f 167/1/114 168/1/114 169/1/114
f 169/1/114 168/1/114 170/1/114
f 171/1/115 172/1/116 173/1/117
f 174/1/118 173/1/117 172/1/116
f 171/1/115 173/1/117 175/1/115
f 173/1/117 174/1/118 176/1/119
f 177/1/120 171/1/115 175/1/115
f 174/1/118 178/1/121 176/1/119
f 171/1/115 177/1/120 179/1/122
f 178/1/121 174/1/118 180/1/123
f 177/1/120 181/1/124 179/1/122
f 180/1/123 182/1/125 178/1/121
f 181/1/124 177/1/120 183/1/126
f 180/1/123 184/1/127 182/1/125
f 185/1/127 182/1/125 184/1/127
f 182/1/125 185/1/127 186/1/128
f 187/1/129 181/1/124 183/1/126
f 181/1/124 187/1/129 188/1/130
f 187/1/129 189/1/131 188/1/130
f 190/1/132 188/1/130 189/1/131
f 189/1/131 191/1/131 190/1/132
f 191/1/131 189/1/131 192/1/133
f 193/1/134 194/1/135 195/1/136
f 194/1/135 196/1/137 195/1/136
f 193/1/134 195/1/136 197/1/138
f 198/1/139 195/1/136 196/1/137
f 197/1/138 199/1/140 193/1/134
f 196/1/137 200/1/141 198/1/139
f 199/1/140 197/1/138 201/1/140
f 196/1/137 202/1/142 200/1/141
f 202/1/142 203/1/142 200/1/141
f 202/1/142 204/1/141 203/1/142
f 201/1/140 205/1/143 199/1/140
f 206/1/144 199/1/140 205/1/143
f 205/1/143 207/1/145 206/1/144
f 208/1/146 206/1/144 207/1/145
f 207/1/145 209/1/147 208/1/146
f 209/1/147 207/1/145 210/1/148
f 211/1/149 209/1/147 210/1/148
f 209/1/147 211/1/149 212/1/150
f 213/1/150 212/1/150 211/1/149
f 214/1/151 212/1/150 213/1/150
f 215/1/152 216/1/153 217/1/152
f 216/1/153 215/1/152 218/1/152
f 219/1/154 220/1/155 221/1/156
f 220/1/155 219/1/154 222/1/156
f 223/1/157 224/1/158 225/1/159
f 224/1/158 223/1/157 226/1/160
f 227/1/161 225/1/159 224/1/158
f 228/1/162 225/1/159 227/1/161
f 227/1/161 229/1/163 228/1/162
f 229/1/163 227/1/161 230/1/163
f 231/1/164 232/1/165 233/1/166
f 232/1/165 231/1/164 234/1/167
f 234/1/167 235/1/168 232/1/165
f 235/1/168 234/1/167 236/1/169
f 236/1/169 237/1/170 235/1/168
f 238/1/170 235/1/168 237/1/170
f 239/1/171 240/1/172 241/1/173
f 241/1/173 242/1/174 239/1/171
f 240/1/172 243/1/175 241/1/173
f 240/1/172 244/1/176 243/1/175
f 245/1/177 243/1/175 244/1/176
f 243/1/175 245/1/177 246/1/177
f 247/1/178 248/1/179 249/1/180
f 248/1/179 247/1/178 250/1/181
f 251/1/182 250/1/181 247/1/178
f 250/1/181 251/1/182 252/1/183
f 251/1/182 253/1/184 252/1/183
f 251/1/182 254/1/185 253/1/184
f 255/1/186 256/1/187 257/1/188
f 258/1/189 256/1/187 255/1/186
f 256/1/187 258/1/189 259/1/189
f 257/1/188 256/1/187 260/1/188
f 257/1/188 260/1/188 261/1/190
f 261/1/190 260/1/188 262/1/190
f 263/1/191 264/1/192 265/1/193
f 265/1/193 264/1/192 266/1/189
f 266/1/189 264/1/192 267/1/189
f 264/1/192 263/1/191 268/1/194
f 269/1/195 268/1/194 263/1/191
f 268/1/194 269/1/195 270/1/195
f 271/1/196 272/1/197 273/1/198
f 272/1/197 274/1/199 273/1/198
f 271/1/196 273/1/198 275/1/200
f 276/1/201 271/1/196 275/1/200
f 276/1/201 275/1/200 277/1/202
f 278/1/203 273/1/198 274/1/199
f 274/1/199 279/1/204 278/1/203
f 280/1/205 278/1/203 279/1/204
f 281/1/206 282/1/207 283/1/208
f 282/1/207 281/1/206 284/1/209
f 285/1/210 284/1/209 281/1/206
f 284/1/209 285/1/210 286/1/211
f 285/1/210 287/1/212 286/1/211
f 287/1/212 285/1/210 288/1/213
f 288/1/213 289/1/214 287/1/212
f 289/1/214 288/1/213 290/1/215
f 291/1/216 292/1/217 293/1/218
f 294/1/189 293/1/218 292/1/217
f 293/1/218 294/1/189 295/1/189
f 292/1/217 291/1/216 296/1/189
f 291/1/216 297/1/219 296/1/189
f 291/1/216 298/1/220 297/1/219
f 298/1/220 299/1/189 297/1/219
f 298/1/220 300/1/189 299/1/189
f 301/1/221 302/1/221 303/1/221
f 302/1/221 301/1/221 304/1/221
f 305/1/221 302/1/221 304/1/221
f 306/1/222 301/1/221 303/1/221
f 302/1/221 305/1/221 307/1/221
f 308/1/221 301/1/221 306/1/222
f 309/1/221 308/1/221 306/1/222
f 306/1/222 310/1/221 309/1/221
f 305/1/221 311/1/222 307/1/221
f 305/1/221 312/1/221 311/1/222
f 313/1/221 311/1/222 312/1/221
f 314/1/221 311/1/222 313/1/221
f 310/1/221 306/1/222 315/1/221
f 311/1/222 314/1/221 316/1/221
f 310/1/221 315/1/221 317/1/221
f 318/1/221 310/1/221 317/1/221
f 315/1/221 319/1/221 317/1/221
f 319/1/221 315/1/221 320/1/221
f 321/1/221 319/1/221 320/1/221
f 321/1/221 322/1/221 319/1/221
f 321/1/221 323/1/221 322/1/221
f 323/1/221 321/1/221 324/1/221
f 324/1/221 325/1/221 323/1/221
f 325/1/221 324/1/221 326/1/221
f 327/1/221 325/1/221 326/1/221
f 325/1/221 327/1/221 328/1/221
f 329/1/221 328/1/221 327/1/221
f 328/1/221 329/1/221 330/1/221
f 330/1/221 329/1/221 331/1/221
f 332/1/221 331/1/221 329/1/221
f 316/1/221 331/1/221 332/1/221
f 331/1/221 316/1/221 333/1/221
f 333/1/221 316/1/221 314/1/221
f 333/1/221 314/1/221 334/1/221
f 335/1/223 336/1/224 337/1/223
f 336/1/224 338/1/223 337/1/223
f 336/1/224 339/1/223 338/1/223
f 336/1/224 340/1/223 339/1/223
f 340/1/223 336/1/224 341/1/223
f 342/1/223 340/1/223 341/1/223
f 343/1/223 340/1/223 342/1/223
f 342/1/223 344/1/223 343/1/223
f 344/1/223 342/1/223 345/1/223
f 346/1/224 344/1/223 345/1/223
f 344/1/223 346/1/224 347/1/223
f 346/1/224 348/1/223 347/1/223
f 349/1/223 348/1/223 346/1/224
f 349/1/223 346/1/224 350/1/223
f 351/1/223 349/1/223 350/1/223
f 349/1/223 351/1/223 352/1/225
f 350/1/223 353/1/223 351/1/223
f 354/1/223 353/1/223 350/1/223
f 355/1/223 353/1/223 354/1/223
f 353/1/223 355/1/223 356/1/223
f 356/1/223 355/1/223 357/1/223
f 355/1/223 358/1/223 357/1/223
f 358/1/223 359/1/223 357/1/223
f 358/1/223 360/1/223 359/1/223
f 359/1/223 360/1/223 361/1/223
f 359/1/223 361/1/223 362/1/223
f 362/1/223 361/1/223 363/1/223
f 362/1/223 363/1/223 364/1/223
f 363/1/223 365/1/223 364/1/223
f 365/1/223 363/1/223 366/1/223
f 335/1/223 365/1/223 366/1/223
f 365/1/223 335/1/223 367/1/223
f 337/1/223 367/1/223 335/1/223
f 367/1/223 337/1/223 368/1/223
f 369/1/221 370/1/221 371/1/221
f 370/1/221 369/1/221 372/1/221
f 373/1/221 374/1/221 375/1/221
f 374/1/221 373/1/221 376/1/221
f 377/1/223 378/1/223 379/1/223
f 378/1/223 380/1/223 379/1/223
f 381/1/223 382/1/223 383/1/223
f 383/1/223 384/1/223 381/1/223
f 385/1/221 386/1/221 387/1/221
f 386/1/221 385/1/221 388/1/221
f 389/1/221 385/1/221 387/1/221
f 385/1/221 389/1/221 390/1/221
f 391/1/221 392/1/221 393/1/221
f 392/1/221 391/1/221 394/1/221
f 391/1/221 395/1/221 394/1/221
f 395/1/221 391/1/221 396/1/226
f 397/1/223 398/1/223 399/1/223
f 398/1/223 400/1/223 399/1/223
f 398/1/223 401/1/223 400/1/223
f 401/1/223 398/1/223 402/1/223
f 403/1/223 404/1/223 405/1/223
f 405/1/223 406/1/223 403/1/223
f 407/1/223 405/1/223 404/1/223
f 405/1/223 407/1/223 408/1/225
f 409/1/227 410/1/228 411/1/229
f 410/1/228 409/1/227 412/1/230
f 413/1/231 411/1/229 410/1/228
f 411/1/229 413/1/231 414/1/232
f 414/1/232 413/1/231 415/1/233
f 415/1/233 413/1/231 416/1/234
f 417/1/235 415/1/233 416/1/234
f 415/1/233 417/1/235 418/1/236
f 419/1/237 418/1/236 417/1/235
f 418/1/236 419/1/237 420/1/237
f 421/1/238 422/1/239 423/1/239
f 421/1/238 423/1/239 424/1/240
f 425/1/241 421/1/238 424/1/240
f 424/1/240 426/1/242 425/1/241
f 427/1/243 425/1/241 426/1/242
f 425/1/241 427/1/243 428/1/244
f 429/1/245 428/1/244 427/1/243
f 429/1/245 427/1/243 430/1/246
f 431/1/247 429/1/245 430/1/246
f 431/1/247 430/1/246 432/1/247
f 433/1/248 434/1/249 435/1/250
f 434/1/249 433/1/248 436/1/249
f 435/1/250 437/1/251 433/1/248
f 437/1/251 435/1/250 438/1/252
f 438/1/252 439/1/253 437/1/251
f 439/1/253 440/1/254 437/1/251
f 439/1/253 441/1/255 440/1/254
f 441/1/255 439/1/253 442/1/256
f 442/1/256 443/1/257 441/1/255
f 443/1/257 442/1/256 444/1/257
f 445/1/258 446/1/259 447/1/260
f 447/1/260 446/1/259 448/1/261
f 446/1/259 449/1/262 448/1/261
f 448/1/261 449/1/262 450/1/263
f 449/1/262 451/1/264 450/1/263
f 451/1/264 449/1/262 452/1/265
f 452/1/265 453/1/266 451/1/264
f 454/1/267 451/1/264 453/1/266
f 453/1/266 455/1/268 454/1/267
f 456/1/268 454/1/267 455/1/268
f 457/1/269 458/1/269 459/1/270
f 459/1/270 460/1/269 457/1/269
f 461/1/271 462/1/272 463/1/271
f 462/1/272 461/1/271 464/1/271
f 465/1/273 466/1/114 467/1/274
f 466/1/114 468/1/114 467/1/274
f 465/1/273 467/1/274 469/1/275
f 469/1/275 470/1/275 465/1/273
f 470/1/275 469/1/275 471/1/276
f 471/1/276 472/1/277 470/1/275
f 472/1/277 471/1/276 473/1/278
f 473/1/278 474/1/278 472/1/277
f 474/1/278 473/1/278 475/1/279
f 475/1/279 476/1/280 474/1/278
f 477/1/281 478/1/282 479/1/283
f 480/1/284 478/1/282 477/1/281
f 481/1/285 482/1/286 483/1/287
f 482/1/286 481/1/285 484/1/288
f 485/1/289 486/1/111 487/1/290
f 486/1/111 485/1/289 488/1/111
f 487/1/290 489/1/291 485/1/289
f 490/1/292 489/1/291 487/1/290
f 490/1/292 491/1/293 489/1/291
f 492/1/293 491/1/293 490/1/292
f 492/1/293 493/1/294 491/1/293
f 494/1/294 493/1/294 492/1/293
f 494/1/294 495/1/295 493/1/294
f 495/1/295 494/1/294 496/1/296
f 497/1/297 498/1/297 499/1/297
f 498/1/297 500/1/297 499/1/297
f 501/1/298 502/1/299 503/1/299
f 503/1/299 502/1/299 504/1/298
f 505/1/300 506/1/301 507/1/302
f 506/1/301 508/1/300 507/1/302
f 505/1/300 507/1/302 509/1/300
f 510/1/301 505/1/300 509/1/300
f 510/1/301 509/1/300 511/1/301
f 512/1/303 507/1/302 508/1/300
f 508/1/300 513/1/302 512/1/303
f 514/1/302 512/1/303 513/1/302
f 515/1/304 516/1/305 517/1/305
f 516/1/305 515/1/304 518/1/305
f 515/1/304 519/1/306 518/1/305
f 515/1/304 520/1/305 519/1/306
f 521/1/305 519/1/306 520/1/305
f 519/1/306 521/1/305 522/1/305
f 521/1/305 523/1/306 522/1/305
f 523/1/306 521/1/305 524/1/306
f 525/1/189 526/1/189 527/1/189
f 525/1/189 527/1/189 528/1/189
f 526/1/189 529/1/189 527/1/189
f 526/1/189 530/1/189 529/1/189
f 531/1/189 529/1/189 530/1/189
f 529/1/189 531/1/189 532/1/189
f 533/1/189 532/1/189 531/1/189
f 532/1/189 533/1/189 534/1/189
f 535/1/307 536/1/308 537/1/309
f 535/1/307 537/1/309 538/1/310
f 539/1/311 537/1/309 536/1/308
f 537/1/309 539/1/311 540/1/311
f 541/1/312 542/1/313 543/1/314
f 542/1/313 541/1/312 544/1/315
f 542/1/313 545/1/316 543/1/314
f 545/1/316 542/1/313 546/1/317
f 547/1/318 548/1/319 549/1/320
f 548/1/319 547/1/318 550/1/321
f 551/1/322 548/1/319 550/1/321
f 548/1/319 551/1/322 552/1/323
f 553/1/324 554/1/325 555/1/326
f 556/1/327 555/1/326 554/1/325
f 555/1/326 557/1/328 553/1/324
f 557/1/328 555/1/326 558/1/329
f 559/1/330 560/1/331 561/1/331
f 559/1/330 561/1/331 562/1/332
f 559/1/330 562/1/332 563/1/333
f 564/1/334 559/1/330 563/1/333
f 565/1/335 566/1/336 567/1/336
f 566/1/336 565/1/335 568/1/337
f 565/1/335 569/1/338 568/1/337
f 569/1/338 565/1/335 570/1/338
