# Blender 5.1.1
# www.blender.org
mtllib body13.mtl
o 104528334607148
v 1.461569 1.767510 3.191991
v 1.598165 1.763980 3.094169
v 1.437864 1.763980 3.168918
v 1.600602 1.767510 3.127158
v 1.461569 0.346194 3.191991
v 1.598165 0.349725 3.094169
v 1.600602 0.346194 3.127158
v 1.437864 0.349725 3.168918
v 1.769805 2.012967 3.792434
v 1.649590 1.934422 3.292885
v 1.557034 1.934422 3.336044
v 1.862439 2.012967 3.749237
v 1.587862 1.745349 3.160823
v 1.495547 1.745349 3.203870
v 1.769804 0.100737 3.792434
v 1.557034 0.179283 3.336044
v 1.649590 0.179283 3.292885
v 1.862439 0.100737 3.749237
v 1.587862 0.368355 3.160823
v 1.495547 0.368355 3.203870
v 1.461569 1.767510 3.191991
v 1.426825 1.748438 3.193310
v 1.457144 1.744117 3.223319
v 1.437864 1.763980 3.168918
v 1.600602 1.767510 3.127158
v 1.623946 1.748438 3.101391
v 1.598165 1.763980 3.094169
v 1.627446 1.744117 3.143906
v 1.426825 0.365269 3.193310
v 1.461569 0.346194 3.191991
v 1.457144 0.369589 3.223319
v 1.437864 0.349725 3.168918
v 1.623946 0.365269 3.101391
v 1.600602 0.346194 3.127158
v 1.598165 0.349725 3.094169
v 1.627446 0.369589 3.143906
v 1.600602 1.767510 3.127158
v 1.495547 1.745349 3.203870
v 1.587862 1.745349 3.160823
v 1.615747 1.727951 3.169585
v 1.461569 1.767510 3.191991
v 1.627446 1.744117 3.143906
v 1.484335 1.727951 3.230864
v 1.670828 1.612997 3.287705
v 1.457144 1.744117 3.223319
v 1.698025 1.596817 3.295262
v 1.539415 1.612997 3.348984
v 1.693760 1.573088 3.326936
v 1.527722 1.596817 3.374675
v 1.659783 1.595250 3.315057
v 1.554727 1.573088 3.391768
v 1.567468 1.595250 3.358104
v 1.495547 0.368355 3.203870
v 1.600602 0.346194 3.127158
v 1.587862 0.368355 3.160823
v 1.615747 0.385753 3.169585
v 1.461569 0.346194 3.191991
v 1.627446 0.369589 3.143906
v 1.484335 0.385753 3.230864
v 1.670828 0.500708 3.287705
v 1.457144 0.369589 3.223319
v 1.698025 0.516887 3.295262
v 1.539415 0.500708 3.348984
v 1.693760 0.540616 3.326936
v 1.527722 0.516887 3.374675
v 1.659783 0.518456 3.315057
v 1.554727 0.540616 3.391768
v 1.567468 0.518456 3.358104
v 1.675462 1.911601 3.297643
v 1.862439 2.012967 3.749237
v 1.881828 1.987831 3.740196
v 1.649590 1.934422 3.292885
v 1.587862 1.745349 3.160823
v 1.615747 1.727951 3.169585
v 1.544049 1.911601 3.358922
v 1.769805 2.012967 3.792434
v 1.557034 1.934422 3.336044
v 1.750415 1.987831 3.801475
v 1.495547 1.745349 3.203870
v 1.484335 1.727951 3.230864
v 1.675462 0.202105 3.297643
v 1.862439 0.100737 3.749237
v 1.649590 0.179283 3.292885
v 1.881828 0.125874 3.740196
v 1.587862 0.368355 3.160823
v 1.615747 0.385753 3.169585
v 1.544049 0.202105 3.358922
v 1.769804 0.100737 3.792434
v 1.750415 0.125874 3.801475
v 1.557034 0.179283 3.336044
v 1.495547 0.368355 3.203870
v 1.484335 0.385753 3.230864
v 1.368424 1.534160 3.020002
v 1.437864 1.763980 3.168918
v 1.598165 1.763980 3.094169
v 1.528724 1.534160 2.945252
v 1.368424 0.579544 3.020002
v 1.598165 0.349725 3.094169
v 1.437864 0.349725 3.168918
v 1.528724 0.579544 2.945252
v 1.554727 1.573088 3.391768
v 1.527722 1.596817 3.374675
v 1.519190 1.555668 3.391386
v 1.544961 1.540305 3.398588
v 1.716310 1.555668 3.299467
v 1.693760 1.573088 3.326936
v 1.705262 1.540305 3.323839
v 1.698025 1.596817 3.295262
v 1.554727 0.540616 3.391768
v 1.519190 0.558037 3.391386
v 1.527722 0.516887 3.374675
v 1.544961 0.573402 3.398588
v 1.693760 0.540616 3.326936
v 1.716310 0.558037 3.299467
v 1.705262 0.573402 3.323839
v 1.698025 0.516887 3.295262
v 1.426825 1.748438 3.193310
v 1.527722 1.596817 3.374675
v 1.457144 1.744117 3.223319
v 1.519190 1.555668 3.391386
v 1.716310 1.555668 3.299467
v 1.623946 1.748438 3.101391
v 1.698025 1.596817 3.295262
v 1.627446 1.744117 3.143906
v 1.426825 0.365269 3.193310
v 1.527722 0.516887 3.374675
v 1.519190 0.558037 3.391386
v 1.457144 0.369589 3.223319
v 1.623946 0.365269 3.101391
v 1.716310 0.558037 3.299467
v 1.698025 0.516887 3.295262
v 1.627446 0.369589 3.143906
v 1.437864 1.763980 3.168918
v 1.359127 1.524385 3.048130
v 1.426825 1.748438 3.193310
v 1.368424 1.534160 3.020002
v 1.598165 1.763980 3.094169
v 1.556247 1.524385 2.956211
v 1.528724 1.534160 2.945252
v 1.623946 1.748438 3.101391
v 1.437864 0.349725 3.168918
v 1.359127 0.589320 3.048130
v 1.368424 0.579544 3.020002
v 1.426825 0.365269 3.193310
v 1.598165 0.349725 3.094169
v 1.528724 0.579544 2.945252
v 1.556247 0.589320 2.956211
v 1.623946 0.365269 3.101391
v 1.277658 1.053781 2.840001
v 1.280118 1.229245 2.845276
v 1.451638 1.229245 2.765295
v 1.449179 1.053781 2.760020
v 1.451638 1.507195 2.765295
v 1.451638 0.878318 2.765295
v 1.280118 1.507195 2.845276
v 1.280118 0.878318 2.845276
v 1.315829 1.577681 2.921859
v 1.451638 0.600369 2.765295
v 1.487349 1.577681 2.841878
v 1.280118 0.600369 2.845276
v 1.388680 1.577681 3.078088
v 1.487349 0.529881 2.841878
v 1.560200 1.577681 2.998107
v 1.422963 1.577681 3.151608
v 1.594483 1.577681 3.071627
v 1.315829 0.529881 2.921859
v 1.388680 0.529881 3.078088
v 1.560200 0.529881 2.998107
v 1.422963 0.529881 3.151608
v 1.594483 0.529881 3.071627
v 1.265445 1.053781 2.862009
v 1.267904 1.229245 2.867283
v 1.280118 1.229245 2.845276
v 1.267904 1.492178 2.867283
v 1.277658 1.053781 2.840001
v 1.280118 1.507195 2.845276
v 1.280118 0.878318 2.845276
v 1.315829 1.577681 2.921859
v 1.267904 0.878318 2.867283
v 1.297367 1.562899 2.930468
v 1.267904 0.615385 2.867283
v 1.388680 1.577681 3.078088
v 1.280118 0.600369 2.845276
v 1.370218 1.562899 3.086697
v 1.397968 1.562899 3.146206
v 1.422963 1.577681 3.151608
v 1.315829 0.529881 2.921859
v 1.297367 0.544665 2.930468
v 1.388680 0.529881 3.078088
v 1.370218 0.544665 3.086697
v 1.397968 0.544665 3.146206
v 1.422963 0.529881 3.151608
v 1.451638 1.229245 2.765295
v 1.451638 1.507195 2.765295
v 1.476348 1.492178 2.770085
v 1.487349 1.577681 2.841878
v 1.476348 1.229245 2.770085
v 1.505811 1.562899 2.833269
v 1.449179 1.053781 2.760020
v 1.578662 1.562899 2.989498
v 1.473888 1.053781 2.764810
v 1.560200 1.577681 2.998107
v 1.606411 1.562899 3.049007
v 1.594483 1.577681 3.071627
v 1.476348 0.878318 2.770085
v 1.451638 0.878318 2.765295
v 1.476348 0.615385 2.770085
v 1.451638 0.600369 2.765295
v 1.487349 0.529881 2.841878
v 1.505811 0.544665 2.833269
v 1.578662 0.544665 2.989498
v 1.560200 0.529881 2.998107
v 1.606411 0.544665 3.049007
v 1.594483 0.529881 3.071627
v 1.544961 1.540305 3.398588
v 1.693760 1.573088 3.326936
v 1.554727 1.573088 3.391768
v 1.705262 1.540305 3.323839
v 1.544961 0.573402 3.398588
v 1.693760 0.540616 3.326936
v 1.705262 0.573402 3.323839
v 1.554727 0.540616 3.391768
v 1.397968 0.544665 3.146206
v 1.422963 0.624521 3.151608
v 1.397956 0.624521 3.146181
v 1.422963 0.529881 3.151608
v 1.444389 0.709021 3.197558
v 1.421943 0.719125 3.197620
v 1.455590 0.750153 3.269777
v 1.480939 0.744745 3.275939
v 1.606411 0.544665 3.049007
v 1.594483 0.624521 3.071627
v 1.594483 0.529881 3.071627
v 1.606400 0.624521 3.048982
v 1.615910 0.709021 3.117576
v 1.630386 0.719125 3.100421
v 1.664034 0.750153 3.172579
v 1.652460 0.744745 3.195957
v 1.397968 1.562899 3.146206
v 1.397956 1.483040 3.146181
v 1.422963 1.483040 3.151608
v 1.422963 1.577681 3.151608
v 1.444389 1.398540 3.197558
v 1.421943 1.388438 3.197620
v 1.455590 1.357409 3.269777
v 1.480939 1.362817 3.275939
v 1.594483 1.483040 3.071627
v 1.606411 1.562899 3.049007
v 1.594483 1.577681 3.071627
v 1.606400 1.483040 3.048982
v 1.615910 1.398540 3.117576
v 1.630386 1.388438 3.100421
v 1.664034 1.357409 3.172579
v 1.652460 1.362817 3.195957
v 1.422963 0.624521 3.151608
v 1.594483 0.624521 3.071627
v 1.444389 0.709021 3.197558
v 1.422963 0.529881 3.151608
v 1.594483 0.529881 3.071627
v 1.615910 0.709021 3.117576
v 1.480939 0.744745 3.275939
v 1.652460 0.744745 3.195957
v 1.444389 1.398540 3.197558
v 1.594483 1.483040 3.071627
v 1.422963 1.483040 3.151608
v 1.422963 1.577681 3.151608
v 1.594483 1.577681 3.071627
v 1.615910 1.398540 3.117576
v 1.480939 1.362817 3.275939
v 1.652460 1.362817 3.195957
v 1.455602 1.205595 3.269804
v 1.499934 1.053781 3.364873
v 1.525258 1.053781 3.370981
v 1.455602 0.901967 3.269804
v 1.480939 1.208299 3.275939
v 1.455590 1.357409 3.269777
v 1.480939 1.362817 3.275939
v 1.480939 0.899263 3.275939
v 1.455590 0.750153 3.269777
v 1.480939 0.744745 3.275939
v 1.652460 1.208299 3.195957
v 1.664034 1.357409 3.172579
v 1.652460 1.362817 3.195957
v 1.664046 1.205595 3.172605
v 1.696778 1.053781 3.290999
v 1.708377 1.053781 3.267674
v 1.664046 0.901967 3.172605
v 1.652460 0.899263 3.195957
v 1.664034 0.750153 3.172579
v 1.652460 0.744745 3.195957
v 1.525258 1.053781 3.370981
v 1.652460 1.208299 3.195957
v 1.480939 1.208299 3.275939
v 1.652460 1.362817 3.195957
v 1.480939 1.362817 3.275939
v 1.696778 1.053781 3.290999
v 1.652460 0.899263 3.195957
v 1.480939 0.899263 3.275939
v 1.652460 0.744745 3.195957
v 1.480939 0.744745 3.275939
v 1.267904 1.229245 2.867283
v 1.304810 1.053781 2.946428
v 1.304810 1.229245 2.946428
v 1.265445 1.053781 2.862009
v 1.267904 0.878318 2.867283
v 1.304810 1.423089 2.946428
v 1.304810 0.878318 2.946428
v 1.267904 1.492178 2.867283
v 1.297367 1.562899 2.930468
v 1.370218 1.562899 3.086697
v 1.304810 0.684474 2.946428
v 1.267904 0.615385 2.867283
v 1.297367 0.544665 2.930468
v 1.370218 0.544665 3.086697
v 1.371193 1.423089 3.088788
v 1.371193 0.684474 3.088788
v 1.397956 1.483040 3.146181
v 1.397968 1.562899 3.146206
v 1.421943 1.388438 3.197620
v 1.401074 1.309889 3.152867
v 1.421532 1.280461 3.196739
v 1.455590 1.357409 3.269777
v 1.455602 1.205595 3.269804
v 1.421520 1.167122 3.196713
v 1.499934 1.053781 3.364873
v 1.392938 1.053781 3.135420
v 1.421520 0.940442 3.196713
v 1.455602 0.901967 3.269804
v 1.421532 0.827102 3.196739
v 1.455590 0.750153 3.269777
v 1.421943 0.719125 3.197620
v 1.401074 0.797675 3.152867
v 1.397956 0.624521 3.146181
v 1.397968 0.544665 3.146206
v 1.579637 1.423089 2.991589
v 1.513253 1.423089 2.849229
v 1.578662 1.562899 2.989498
v 1.505811 1.562899 2.833269
v 1.476348 1.492178 2.770085
v 1.476348 1.229245 2.770085
v 1.513253 1.229245 2.849229
v 1.513253 1.053781 2.849229
v 1.473888 1.053781 2.764810
v 1.476348 0.878318 2.770085
v 1.513253 0.878318 2.849229
v 1.513253 0.684474 2.849229
v 1.476348 0.615385 2.770085
v 1.505811 0.544665 2.833269
v 1.578662 0.544665 2.989498
v 1.579637 0.684474 2.991589
v 1.606400 0.624521 3.048982
v 1.606411 0.544665 3.049007
v 1.630386 0.719125 3.100421
v 1.609518 0.797675 3.055669
v 1.629975 0.827102 3.099540
v 1.664034 0.750153 3.172579
v 1.664046 0.901967 3.172605
v 1.629963 0.940442 3.099514
v 1.708377 1.053781 3.267674
v 1.601382 1.053781 3.038221
v 1.629963 1.167122 3.099514
v 1.664046 1.205595 3.172605
v 1.629975 1.280461 3.099540
v 1.664034 1.357409 3.172579
v 1.630386 1.388438 3.100421
v 1.609518 1.309889 3.055669
v 1.606400 1.483040 3.048982
v 1.606411 1.562899 3.049007
v 1.519190 0.558037 3.391386
v 1.359127 0.589320 3.048130
v 1.426825 0.365269 3.193310
v 1.436573 0.770632 3.214213
v 1.519190 1.555668 3.391386
v 1.359127 1.524385 3.048130
v 1.436573 1.343073 3.214213
v 1.426825 1.748438 3.193310
v 1.633693 0.770632 3.122294
v 1.716310 0.558037 3.299467
v 1.556247 0.589320 2.956211
v 1.623946 0.365269 3.101391
v 1.556247 1.524385 2.956211
v 1.623946 1.748438 3.101391
v 1.716310 1.555668 3.299467
v 1.633693 1.343073 3.122294
v 1.592073 0.372204 3.461909
v 1.484335 0.385753 3.230864
v 1.544049 0.202105 3.358922
v 1.539415 0.500708 3.348984
v 1.750415 0.125874 3.801475
v 1.750415 0.331317 3.801475
v 1.592073 1.741500 3.461909
v 1.484335 1.727951 3.230864
v 1.539415 1.612997 3.348984
v 1.544049 1.911601 3.358922
v 1.750415 1.987831 3.801475
v 1.750415 1.782387 3.801475
v 1.670828 0.500708 3.287705
v 1.723485 0.372204 3.400630
v 1.615747 0.385753 3.169585
v 1.675462 0.202105 3.297643
v 1.881828 0.125874 3.740196
v 1.881828 0.331317 3.740196
v 1.615747 1.727951 3.169585
v 1.675462 1.911601 3.297643
v 1.723485 1.741500 3.400630
v 1.670828 1.612997 3.287705
v 1.881828 1.987831 3.740196
v 1.881828 1.782387 3.740196
v 1.496607 1.411115 2.870203
v 1.579637 1.423089 2.991589
v 1.555616 1.411115 2.996749
v 1.513253 1.423089 2.849229
v 1.609518 1.309889 3.055669
v 1.584542 1.301603 3.058781
v 1.602577 1.275993 3.097457
v 1.629975 1.280461 3.099540
v 1.629963 1.167122 3.099514
v 1.602577 1.164887 3.097457
v 1.601382 1.053781 3.038221
v 1.574008 1.053781 3.036191
v 1.371193 1.423089 3.088788
v 1.304810 1.423089 2.946428
v 1.331577 1.411115 2.947158
v 1.390586 1.411115 3.073704
v 1.401074 1.309889 3.152867
v 1.419513 1.301603 3.135736
v 1.437547 1.275993 3.174412
v 1.421532 1.280461 3.196739
v 1.421520 1.167122 3.196713
v 1.437547 1.164887 3.174412
v 1.392938 1.053781 3.135420
v 1.408978 1.053781 3.113145
v 1.579637 0.684474 2.991589
v 1.496607 0.696448 2.870203
v 1.555616 0.696448 2.996749
v 1.513253 0.684474 2.849229
v 1.609518 0.797675 3.055669
v 1.584542 0.805960 3.058781
v 1.602577 0.831571 3.097457
v 1.629975 0.827102 3.099540
v 1.629963 0.940442 3.099514
v 1.602577 0.942676 3.097457
v 1.601382 1.053781 3.038221
v 1.574008 1.053781 3.036191
v 1.304810 0.684474 2.946428
v 1.371193 0.684474 3.088788
v 1.331577 0.696448 2.947158
v 1.390586 0.696448 3.073704
v 1.401074 0.797675 3.152867
v 1.419513 0.805960 3.135736
v 1.437547 0.831571 3.174412
v 1.421532 0.827102 3.196739
v 1.421520 0.940442 3.196713
v 1.437547 0.942676 3.174412
v 1.392938 1.053781 3.135420
v 1.408978 1.053781 3.113145
v 1.716310 0.558037 3.299467
v 1.633693 0.770632 3.122294
v 1.624633 0.780662 3.150931
v 1.705262 0.573402 3.323839
v 1.519190 0.558037 3.391386
v 1.464333 0.780662 3.225680
v 1.436573 0.770632 3.214213
v 1.544961 0.573402 3.398588
v 1.390586 1.411115 3.073704
v 1.331577 1.411115 2.947158
v 1.555616 1.411115 2.996749
v 1.496607 1.411115 2.870203
v 1.584542 1.301603 3.058781
v 1.419513 1.301603 3.135736
v 1.602577 1.275993 3.097457
v 1.437547 1.275993 3.174412
v 1.602577 1.164887 3.097457
v 1.437547 1.164887 3.174412
v 1.574008 1.053781 3.036191
v 1.408978 1.053781 3.113145
v 1.716310 1.555668 3.299467
v 1.624633 1.333044 3.150931
v 1.633693 1.343073 3.122294
v 1.705262 1.540305 3.323839
v 1.519190 1.555668 3.391386
v 1.464333 1.333044 3.225680
v 1.544961 1.540305 3.398588
v 1.436573 1.343073 3.214213
v 1.555616 0.696448 2.996749
v 1.331577 0.696448 2.947158
v 1.390586 0.696448 3.073704
v 1.496607 0.696448 2.870203
v 1.584542 0.805960 3.058781
v 1.419513 0.805960 3.135736
v 1.602577 0.831571 3.097457
v 1.437547 0.831571 3.174412
v 1.602577 0.942676 3.097457
v 1.437547 0.942676 3.174412
v 1.574008 1.053781 3.036191
v 1.408978 1.053781 3.113145
v 1.464333 0.780662 3.225680
v 1.544961 0.573402 3.398588
v 1.624633 0.780662 3.150931
v 1.705262 0.573402 3.323839
v 1.464333 1.333044 3.225680
v 1.624633 1.333044 3.150931
v 1.544961 1.540305 3.398588
v 1.705262 1.540305 3.323839
v 1.496607 1.229245 2.870203
v 1.496607 1.053781 2.870203
v 1.513253 1.053781 2.849229
v 1.496607 0.878318 2.870203
v 1.513253 1.229245 2.849229
v 1.496607 1.411115 2.870203
v 1.513253 1.423089 2.849229
v 1.513253 0.878318 2.849229
v 1.496607 0.696448 2.870203
v 1.513253 0.684474 2.849229
v 1.304810 1.229245 2.946428
v 1.331577 1.411115 2.947158
v 1.304810 1.423089 2.946428
v 1.331577 1.229245 2.947158
v 1.331577 1.053781 2.947158
v 1.304810 1.053781 2.946428
v 1.304810 0.878318 2.946428
v 1.331577 0.878318 2.947158
v 1.331577 0.696448 2.947158
v 1.304810 0.684474 2.946428
v 1.331577 1.411115 2.947158
v 1.331577 1.229245 2.947158
v 1.496607 1.229245 2.870203
v 1.496607 1.411115 2.870203
v 1.496607 1.053781 2.870203
v 1.331577 1.053781 2.947158
v 1.331577 0.878318 2.947158
v 1.496607 0.878318 2.870203
v 1.331577 0.696448 2.947158
v 1.496607 0.696448 2.870203
v 1.881828 0.331317 3.740196
v 1.723485 0.372204 3.400630
v 1.710446 0.394837 3.423390
v 1.862439 0.355566 3.749237
v 1.670828 0.500708 3.287705
v 1.659783 0.518456 3.315057
v 1.750415 0.331317 3.801475
v 1.617890 0.394837 3.466550
v 1.592073 0.372204 3.461909
v 1.769804 0.355566 3.792434
v 1.539415 0.500708 3.348984
v 1.567468 0.518456 3.358104
v 1.750415 1.782387 3.801475
v 1.617890 1.718868 3.466550
v 1.769805 1.758140 3.792434
v 1.592073 1.741500 3.461909
v 1.539415 1.612997 3.348984
v 1.567468 1.595250 3.358104
v 1.723485 1.741500 3.400630
v 1.881828 1.782387 3.740196
v 1.710446 1.718868 3.423390
v 1.862439 1.758140 3.749237
v 1.670828 1.612997 3.287705
v 1.659783 1.595250 3.315057
v 1.617890 0.394837 3.466550
v 1.769804 0.355566 3.792434
v 1.862439 0.355566 3.749237
v 1.710446 0.394837 3.423390
v 1.659783 0.518456 3.315057
v 1.567468 0.518456 3.358104
v 1.617890 1.718868 3.466550
v 1.862439 1.758140 3.749237
v 1.769805 1.758140 3.792434
v 1.710446 1.718868 3.423390
v 1.659783 1.595250 3.315057
v 1.567468 1.595250 3.358104
vn -0.047599 0.993500 -0.103259
vn -0.047689 0.993500 -0.103216
vn -0.047689 -0.993500 -0.103216
vn -0.047592 -0.993500 -0.103482
vn -0.065125 0.988100 -0.139662
vn -0.215197 0.860600 -0.461492
vn -0.064588 0.988100 -0.139692
vn -0.334671 0.610600 -0.717705
vn -0.334393 0.610400 -0.718055
vn -0.064811 -0.988100 -0.139698
vn -0.214774 -0.860400 -0.462241
vn -0.215197 -0.860600 -0.461492
vn -0.065125 -0.988100 -0.139662
vn -0.334442 -0.610500 -0.717923
vn -0.334484 -0.610500 -0.718013
vn -0.419245 0.794700 0.439013
vn -0.419287 0.794700 0.438922
vn 0.605789 0.794700 -0.038968
vn 0.605747 0.794700 -0.039059
vn -0.419245 -0.794700 0.439013
vn -0.419287 -0.794700 0.438922
vn 0.605789 -0.794700 -0.038968
vn 0.605747 -0.794700 -0.039059
vn 0.280233 0.749700 0.599541
vn 0.279562 0.750000 0.599523
vn 0.280142 0.749700 0.599583
vn 0.280009 0.749700 0.599535
vn 0.280009 0.749800 0.599535
vn 0.280100 0.749700 0.599493
vn 0.279562 -0.750000 0.599523
vn 0.280142 -0.749700 0.599583
vn 0.279653 -0.750000 0.599480
vn 0.280233 -0.749700 0.599541
vn 0.279471 -0.750000 0.599565
vn 0.280233 -0.749600 0.599541
vn 0.280100 -0.749700 0.599493
vn 0.279918 -0.749800 0.599577
vn 0.584197 0.534100 -0.611042
vn 0.644152 0.644800 -0.411483
vn 0.644418 0.644600 -0.411386
vn 0.579554 0.527500 -0.621235
vn 0.486972 0.387800 -0.782630
vn 0.486881 0.387800 -0.782587
vn -0.843461 0.534500 0.054575
vn -0.729267 0.644800 0.228953
vn -0.848424 0.527500 0.044642
vn -0.729364 0.644600 0.229218
vn -0.912410 0.387900 -0.130198
vn -0.912500 0.387800 -0.130155
vn 0.583974 -0.534500 -0.611048
vn 0.644550 -0.644500 -0.411338
vn 0.579862 -0.527300 -0.621048
vn 0.644508 -0.644500 -0.411429
vn 0.486972 -0.387800 -0.782630
vn 0.486839 -0.387900 -0.782678
vn -0.843461 -0.534500 0.054575
vn -0.729412 -0.644500 0.229351
vn -0.729454 -0.644500 0.229261
vn -0.848424 -0.527500 0.044642
vn -0.912500 -0.387900 -0.130155
vn -0.343262 0.581800 -0.737311
vn -0.343800 0.581600 -0.737281
vn -0.343486 -0.581700 -0.737318
vn -0.343800 -0.581600 -0.737281
vn -0.175806 0.337800 0.924630
vn -0.175673 0.337800 0.924678
vn -0.175673 0.337700 0.924678
vn -0.175764 0.337700 0.924720
vn 0.821265 0.337700 0.459798
vn 0.821313 0.337800 0.459665
vn 0.821265 0.337800 0.459798
vn -0.175806 -0.337800 0.924630
vn -0.175764 -0.337700 0.924720
vn -0.175673 -0.337800 0.924678
vn -0.175673 -0.337600 0.924678
vn 0.821265 -0.337600 0.459798
vn 0.821356 -0.337700 0.459756
vn -0.614181 0.402900 0.678538
vn -0.614363 0.402600 0.678623
vn 0.914760 0.402600 -0.034419
vn 0.914579 0.402900 -0.034334
vn -0.614363 -0.402500 0.678623
vn -0.614181 -0.402900 0.678538
vn -0.614363 -0.402600 0.678623
vn 0.914850 -0.402400 -0.034461
vn 0.914760 -0.402500 -0.034419
vn 0.914579 -0.402900 -0.034334
vn 0.914760 -0.402600 -0.034419
vn -0.908442 0.383100 -0.167356
vn -0.908581 0.382900 -0.167181
vn -0.908393 0.383200 -0.167489
vn 0.455733 0.383100 -0.803481
vn 0.455956 0.382900 -0.803475
vn 0.455600 0.383200 -0.803529
vn -0.908442 -0.383100 -0.167356
vn -0.908581 -0.382900 -0.167181
vn -0.908393 -0.383200 -0.167489
vn 0.455733 -0.383100 -0.803481
vn 0.455600 -0.383200 -0.803529
vn 0.455956 -0.382900 -0.803475
vn -0.422165 0.000500 -0.906519
vn -0.422304 0.016400 -0.906344
vn -0.422032 0.016100 -0.906471
vn -0.382354 0.423800 -0.821145
vn -0.422032 -0.016100 -0.906471
vn -0.422304 -0.016400 -0.906344
vn -0.143630 0.940200 -0.308725
vn -0.382354 -0.423800 -0.821145
vn -0.143944 0.940200 -0.308688
vn -0.382765 -0.423900 -0.820843
vn 0.000242 1.000000 -0.000664
vn -0.143944 -0.940200 -0.308688
vn -0.143986 -0.940200 -0.308779
vn 0.000242 -1.000000 -0.000664
vn -0.874293 0.000400 -0.485495
vn -0.874257 0.013300 -0.485181
vn -0.874257 0.013500 -0.485181
vn -0.881619 0.262100 -0.392595
vn -0.865677 0.360400 -0.347287
vn -0.874257 -0.013500 -0.485181
vn -0.670142 0.740800 0.046247
vn -0.874209 -0.013800 -0.485313
vn -0.702681 0.711400 -0.013830
vn -0.881528 -0.262100 -0.392637
vn -0.532353 0.809500 0.247799
vn -0.865677 -0.360400 -0.347287
vn -0.532311 0.809400 0.247890
vn -0.532275 0.809300 0.248204
vn -0.670142 -0.740800 0.046247
vn -0.702681 -0.711400 -0.013830
vn -0.532353 -0.809500 0.247799
vn -0.532401 -0.809400 0.247932
vn -0.532395 -0.809500 0.247708
vn 0.189893 0.014000 -0.981733
vn 0.290409 0.360400 -0.886379
vn 0.265948 0.262100 -0.927714
vn 0.466187 0.740800 -0.483631
vn 0.190292 0.013300 -0.981588
vn 0.440947 0.711400 -0.547223
vn 0.190074 0.000400 -0.981818
vn 0.532275 0.809300 -0.248204
vn 0.532057 0.809400 -0.248433
vn 0.190292 -0.013300 -0.981588
vn 0.190292 -0.013500 -0.981588
vn 0.265858 -0.262100 -0.927672
vn 0.290409 -0.360400 -0.886379
vn 0.466187 -0.740800 -0.483631
vn 0.441080 -0.711400 -0.547174
vn 0.532148 -0.809400 -0.248476
vn 0.532365 -0.809300 -0.248246
vn 0.531973 -0.809500 -0.248615
vn 0.421773 0.062500 0.904495
vn 0.422136 0.062900 0.904326
vn 0.422136 -0.062900 0.904326
vn 0.422317 -0.063100 0.904242
vn 0.421773 -0.062500 0.904495
vn -0.211338 0.000400 0.977389
vn -0.205814 -0.239500 0.948774
vn -0.207949 -0.196800 0.958155
vn -0.211296 0.000300 0.977480
vn -0.268207 -0.641300 0.718905
vn -0.266704 -0.635600 0.724493
vn -0.323717 -0.799700 0.505688
vn 0.884569 0.000700 0.466359
vn 0.859097 -0.239500 0.452197
vn 0.884611 0.000300 0.466450
vn 0.867657 -0.196800 0.456592
vn 0.723022 -0.641300 0.256687
vn 0.726428 -0.635600 0.261388
vn 0.595460 -0.799700 0.077068
vn -0.211338 -0.000400 0.977389
vn -0.207635 0.197400 0.958119
vn -0.205814 0.239500 0.948774
vn -0.211338 -0.000700 0.977389
vn -0.268116 0.641300 0.718863
vn -0.266613 0.635600 0.724451
vn -0.323808 0.799600 0.505730
vn 0.859097 0.239500 0.452197
vn 0.884569 -0.000400 0.466359
vn 0.884569 -0.000700 0.466359
vn 0.867427 0.197400 0.456809
vn 0.723022 0.641300 0.256687
vn 0.726337 0.635600 0.261431
vn 0.595460 0.799700 0.077068
vn 0.595551 0.799600 0.077026
vn 0.407730 -0.267100 0.873198
vn 0.407869 -0.267300 0.873022
vn 0.275801 -0.757700 0.591456
vn 0.423071 0.000500 0.906096
vn 0.161585 -0.924300 0.345811
vn 0.276169 0.757900 0.591064
vn 0.407869 0.267300 0.873022
vn 0.407730 0.267100 0.873198
vn 0.276218 0.757900 0.590931
vn 0.161356 0.924300 0.346028
vn -0.240900 0.224400 0.944281
vn -0.261114 0.000500 0.965292
vn -0.261072 0.000500 0.965383
vn -0.240810 -0.224500 0.944238
vn -0.240596 0.249200 0.938070
vn -0.235791 0.000300 0.971800
vn -0.235882 0.000300 0.971842
vn -0.240596 -0.249200 0.938070
vn -0.235659 -0.000500 0.971848
vn -0.235882 -0.000300 0.971842
vn 0.873256 0.249200 0.418672
vn 0.896006 0.000300 0.444034
vn 0.896006 0.000400 0.444034
vn 0.878209 0.224400 0.422432
vn 0.907340 0.000500 0.420543
vn 0.907298 0.000500 0.420453
vn 0.878118 -0.224500 0.422474
vn 0.873256 -0.249200 0.418672
vn 0.895957 -0.000500 0.444167
vn 0.896096 -0.000300 0.443992
vn 0.423162 0.000500 0.906054
vn 0.404253 0.293600 0.866213
vn 0.404434 0.293600 0.866128
vn 0.404253 -0.293700 0.866213
vn 0.404434 -0.293600 0.866128
vn -0.906477 0.000400 0.422256
vn -0.906392 0.000200 0.422437
vn 0.906139 0.000400 -0.422981
vn 0.906223 0.000200 -0.422800
vn 0.906096 0.000500 -0.423071
vn -0.906519 0.000500 0.422165
vn 0.405035 -0.894500 -0.189092
vn 0.258790 -0.770800 -0.582219
vn 0.250984 -0.761300 -0.597777
vn 0.404860 -0.894600 -0.189231
vn 0.117163 -0.643700 -0.756272
vn 0.117833 -0.645600 -0.754598
vn 0.143062 -0.451900 -0.880562
vn 0.136895 -0.405700 -0.903726
vn 0.064905 0.210000 -0.975529
vn 0.061294 0.268600 -0.961267
vn 0.046868 0.469000 -0.881938
vn -0.612625 -0.770600 -0.175871
vn -0.405198 -0.894600 0.188506
vn -0.619253 -0.761300 -0.191979
vn -0.654600 -0.643700 -0.396503
vn -0.653755 -0.645600 -0.394691
vn -0.766557 -0.451900 -0.456290
vn -0.780289 -0.405700 -0.476037
vn -0.789019 0.210000 -0.577338
vn -0.775772 0.268700 -0.570937
vn -0.705730 0.469000 -0.530996
vn 0.259062 0.770600 -0.582346
vn 0.404860 0.894600 -0.189231
vn 0.250984 0.761300 -0.597777
vn 0.116806 0.643700 -0.756326
vn 0.117875 0.645600 -0.754508
vn 0.143195 0.451800 -0.880514
vn 0.136895 0.405700 -0.903726
vn 0.064772 -0.210000 -0.975578
vn 0.061161 -0.268700 -0.961315
vn 0.046868 -0.469000 -0.881938
vn -0.405198 0.894600 0.188506
vn -0.612171 0.770800 -0.176083
vn -0.405301 0.894400 0.188995
vn -0.619253 0.761300 -0.191979
vn -0.654607 0.643700 -0.396280
vn -0.653846 0.645600 -0.394648
vn -0.766647 0.451800 -0.456248
vn -0.780289 0.405700 -0.476037
vn -0.789019 -0.210000 -0.577338
vn -0.775724 -0.268700 -0.571070
vn -0.705730 -0.469000 -0.530996
vn 0.886326 0.446800 0.122058
vn 0.886284 0.446800 0.121968
vn -0.476217 0.446800 0.757423
vn -0.476259 0.446800 0.757332
vn -0.204885 -0.874600 -0.439378
vn -0.204203 -0.874500 -0.439807
vn -0.295675 -0.713400 -0.635261
vn -0.367762 -0.492600 -0.788669
vn -0.367762 -0.492700 -0.788669
vn -0.406939 0.269900 -0.872684
vn -0.360729 0.519900 -0.774295
vn -0.360414 0.520100 -0.774331
vn 0.886235 -0.446800 0.122101
vn 0.886326 -0.446800 0.122058
vn 0.886284 -0.446800 0.121968
vn 0.886284 -0.446700 0.121968
vn -0.476127 -0.446800 0.757380
vn -0.476217 -0.446800 0.757423
vn -0.476259 -0.446700 0.757332
vn -0.476259 -0.446800 0.757332
vn -0.204203 0.874500 -0.439807
vn -0.204885 0.874600 -0.439378
vn -0.296129 0.713500 -0.635050
vn -0.295675 0.713400 -0.635261
vn -0.367762 0.492600 -0.788669
vn -0.406939 -0.269900 -0.872684
vn -0.361043 -0.519800 -0.774259
vn -0.360638 -0.520000 -0.774337
vn 0.311156 0.677600 0.666330
vn 0.311108 -0.677500 0.666463
vn 0.311247 -0.677600 0.666287
vn 0.783291 -0.000000 0.621607
vn 0.783103 0.000400 0.621915
vn 0.783152 0.000200 0.621782
vn 0.783152 0.000300 0.621782
vn -0.026731 0.000500 0.999657
vn -0.026955 0.000400 0.999651
vn -0.027088 0.000200 0.999603
vn 0.707948 0.660200 -0.251009
vn 0.829609 0.553200 -0.074818
vn 0.817279 0.568100 -0.096763
vn 0.707948 0.660100 -0.251009
vn 0.896277 0.436400 0.078800
vn -0.647345 0.660200 0.380974
vn -0.599461 0.568100 0.563874
vn -0.590848 0.552900 0.587552
vn -0.647387 0.660200 0.380883
vn -0.515310 0.436500 0.737475
vn -0.515485 0.436500 0.737336
vn -0.647345 -0.660200 0.380974
vn -0.599461 -0.568100 0.563874
vn -0.647399 -0.659900 0.381330
vn -0.590576 -0.553300 0.587425
vn -0.515310 -0.436500 0.737475
vn -0.515485 -0.436500 0.737336
vn 0.829609 -0.553300 -0.074818
vn 0.707906 -0.660200 -0.251100
vn 0.817279 -0.568100 -0.096763
vn 0.707948 -0.660200 -0.251009
vn 0.896277 -0.436400 0.078800
vn 0.896131 -0.436600 0.079199
vn 0.186405 0.898000 0.398564
vn 0.046343 0.994100 0.098437
vn 0.186272 0.898000 0.398516
vn 0.303736 0.695300 0.651363
vn 0.304189 0.695300 0.651152
vn 0.186405 -0.898000 0.398564
vn 0.046343 -0.994100 0.098437
vn 0.186272 -0.898000 0.398516
vn 0.303736 -0.695300 0.651363
vt 0.000000 0.000000
s 1
f 1/1/1 2/1/2 3/1/1
f 2/1/2 1/1/1 4/1/2
f 5/1/3 6/1/4 7/1/4
f 6/1/4 5/1/3 8/1/3
f 9/1/5 10/1/6 11/1/6
f 10/1/6 9/1/5 12/1/7
f 13/1/8 11/1/6 10/1/6
f 11/1/6 13/1/8 14/1/9
f 15/1/10 16/1/11 17/1/12
f 15/1/10 17/1/12 18/1/13
f 16/1/11 19/1/14 17/1/12
f 19/1/14 16/1/11 20/1/15
f 21/1/16 22/1/16 23/1/16
f 22/1/16 21/1/16 24/1/17
f 25/1/18 26/1/18 27/1/19
f 26/1/18 25/1/18 28/1/18
f 29/1/20 30/1/20 31/1/20
f 30/1/20 29/1/20 32/1/21
f 33/1/22 34/1/23 35/1/23
f 34/1/23 33/1/22 36/1/22
f 37/1/24 38/1/25 39/1/26
f 40/1/25 37/1/24 39/1/26
f 38/1/25 37/1/24 41/1/27
f 37/1/24 40/1/25 42/1/25
f 41/1/27 43/1/25 38/1/25
f 44/1/26 42/1/25 40/1/25
f 43/1/25 41/1/27 45/1/25
f 46/1/26 42/1/25 44/1/26
f 45/1/25 47/1/24 43/1/25
f 46/1/26 44/1/26 48/1/28
f 47/1/24 45/1/25 49/1/29
f 44/1/26 50/1/28 48/1/28
f 51/1/25 47/1/24 49/1/29
f 52/1/25 48/1/28 50/1/28
f 47/1/24 51/1/25 52/1/25
f 51/1/25 48/1/28 52/1/25
f 53/1/30 54/1/31 55/1/31
f 54/1/31 56/1/32 55/1/31
f 54/1/31 53/1/30 57/1/33
f 56/1/32 54/1/31 58/1/32
f 57/1/33 53/1/30 59/1/34
f 60/1/33 56/1/32 58/1/32
f 57/1/33 59/1/34 61/1/34
f 60/1/33 58/1/32 62/1/31
f 63/1/35 61/1/34 59/1/34
f 64/1/36 60/1/33 62/1/31
f 61/1/34 63/1/35 65/1/35
f 60/1/33 64/1/36 66/1/31
f 63/1/35 67/1/31 65/1/35
f 64/1/36 68/1/37 66/1/31
f 67/1/31 63/1/35 68/1/37
f 64/1/36 67/1/31 68/1/37
f 69/1/38 70/1/39 71/1/40
f 70/1/39 69/1/38 72/1/41
f 69/1/38 73/1/42 72/1/41
f 73/1/42 69/1/38 74/1/43
f 75/1/44 76/1/45 77/1/46
f 76/1/45 75/1/44 78/1/47
f 77/1/46 79/1/48 75/1/44
f 80/1/49 75/1/44 79/1/48
f 81/1/50 82/1/51 83/1/52
f 82/1/51 81/1/50 84/1/53
f 85/1/54 81/1/50 83/1/52
f 81/1/50 85/1/54 86/1/55
f 87/1/56 88/1/57 89/1/58
f 88/1/57 87/1/56 90/1/59
f 91/1/60 90/1/59 87/1/56
f 91/1/60 87/1/56 92/1/60
f 93/1/61 94/1/62 95/1/62
f 93/1/61 95/1/62 96/1/62
f 97/1/63 98/1/63 99/1/64
f 98/1/63 97/1/63 100/1/64
f 101/1/65 102/1/66 103/1/67
f 103/1/67 104/1/68 101/1/65
f 105/1/69 106/1/70 107/1/69
f 106/1/70 105/1/69 108/1/71
f 109/1/72 110/1/73 111/1/74
f 110/1/73 109/1/72 112/1/75
f 113/1/76 114/1/77 115/1/76
f 114/1/77 113/1/76 116/1/77
f 117/1/78 118/1/78 119/1/78
f 118/1/78 117/1/78 120/1/79
f 121/1/80 122/1/81 123/1/81
f 123/1/81 122/1/81 124/1/81
f 125/1/82 126/1/83 127/1/82
f 126/1/83 125/1/82 128/1/84
f 129/1/85 130/1/86 131/1/87
f 129/1/85 131/1/87 132/1/88
f 133/1/89 134/1/90 135/1/90
f 134/1/90 133/1/89 136/1/91
f 137/1/92 138/1/93 139/1/94
f 140/1/93 138/1/93 137/1/92
f 141/1/95 142/1/96 143/1/97
f 142/1/96 141/1/95 144/1/96
f 145/1/98 146/1/99 147/1/100
f 147/1/100 148/1/100 145/1/98
f 149/1/101 150/1/102 151/1/103
f 149/1/101 151/1/103 152/1/101
f 150/1/102 153/1/104 151/1/103
f 154/1/105 149/1/101 152/1/101
f 150/1/102 155/1/104 153/1/104
f 149/1/101 154/1/105 156/1/106
f 157/1/107 153/1/104 155/1/104
f 158/1/108 156/1/106 154/1/105
f 153/1/104 157/1/107 159/1/109
f 156/1/106 158/1/108 160/1/110
f 161/1/111 159/1/109 157/1/107
f 162/1/112 160/1/110 158/1/108
f 159/1/109 161/1/111 163/1/111
f 164/1/111 163/1/111 161/1/111
f 163/1/111 164/1/111 165/1/111
f 160/1/110 162/1/112 166/1/113
f 167/1/114 166/1/113 162/1/112
f 167/1/114 162/1/112 168/1/114
f 167/1/114 168/1/114 169/1/114
f 169/1/114 168/1/114 170/1/114
f 171/1/115 172/1/116 173/1/117
f 174/1/118 173/1/117 172/1/116
f 171/1/115 173/1/117 175/1/115
f 173/1/117 174/1/118 176/1/119
f 177/1/120 171/1/115 175/1/115
f 174/1/118 178/1/121 176/1/119
f 171/1/115 177/1/120 179/1/122
f 178/1/121 174/1/118 180/1/123
f 177/1/120 181/1/124 179/1/122
f 180/1/123 182/1/125 178/1/121
f 181/1/124 177/1/120 183/1/126
f 180/1/123 184/1/127 182/1/125
f 185/1/127 182/1/125 184/1/127
f 182/1/125 185/1/127 186/1/128
f 187/1/129 181/1/124 183/1/126
f 181/1/124 187/1/129 188/1/130
f 187/1/129 189/1/131 188/1/130
f 190/1/132 188/1/130 189/1/131
f 189/1/131 191/1/131 190/1/132
f 191/1/131 189/1/131 192/1/133
f 193/1/134 194/1/135 195/1/136
f 194/1/135 196/1/137 195/1/136
f 193/1/134 195/1/136 197/1/138
f 198/1/139 195/1/136 196/1/137
f 197/1/138 199/1/140 193/1/134
f 196/1/137 200/1/141 198/1/139
f 199/1/140 197/1/138 201/1/140
f 196/1/137 202/1/142 200/1/141
f 202/1/142 203/1/142 200/1/141
f 202/1/142 204/1/141 203/1/142
f 201/1/140 205/1/143 199/1/140
f 206/1/144 199/1/140 205/1/143
f 205/1/143 207/1/145 206/1/144
f 208/1/146 206/1/144 207/1/145
f 207/1/145 209/1/147 208/1/146
f 209/1/147 207/1/145 210/1/148
f 211/1/149 209/1/147 210/1/148
f 209/1/147 211/1/149 212/1/150
f 213/1/150 212/1/150 211/1/149
f 214/1/151 212/1/150 213/1/150
f 215/1/152 216/1/153 217/1/152
f 216/1/153 215/1/152 218/1/152
f 219/1/154 220/1/155 221/1/156
f 220/1/155 219/1/154 222/1/156
f 223/1/157 224/1/158 225/1/159
f 224/1/158 223/1/157 226/1/160
f 227/1/161 225/1/159 224/1/158
f 228/1/162 225/1/159 227/1/161
f 227/1/161 229/1/163 228/1/162
f 229/1/163 227/1/161 230/1/163
f 231/1/164 232/1/165 233/1/166
f 232/1/165 231/1/164 234/1/167
f 234/1/167 235/1/168 232/1/165
f 235/1/168 234/1/167 236/1/169
f 236/1/169 237/1/170 235/1/168
f 238/1/170 235/1/168 237/1/170
f 239/1/171 240/1/172 241/1/173
f 241/1/173 242/1/174 239/1/171
f 240/1/172 243/1/175 241/1/173
f 240/1/172 244/1/176 243/1/175
f 245/1/177 243/1/175 244/1/176
f 243/1/175 245/1/177 246/1/177
f 247/1/178 248/1/179 249/1/180
f 248/1/179 247/1/178 250/1/181
f 251/1/182 250/1/181 247/1/178
f 250/1/181 251/1/182 252/1/183
f 251/1/182 253/1/184 252/1/183
f 251/1/182 254/1/185 253/1/184
f 255/1/186 256/1/187 257/1/188
f 258/1/189 256/1/187 255/1/186
f 256/1/187 258/1/189 259/1/189
f 257/1/188 256/1/187 260/1/188
f 257/1/188 260/1/188 261/1/190
f 261/1/190 260/1/188 262/1/190
f 263/1/191 264/1/192 265/1/193
f 265/1/193 264/1/192 266/1/189
f 266/1/189 264/1/192 267/1/189
f 264/1/192 263/1/191 268/1/194
f 269/1/195 268/1/194 263/1/191
f 268/1/194 269/1/195 270/1/195
f 271/1/196 272/1/197 273/1/198
f 272/1/197 274/1/199 273/1/198
f 271/1/196 273/1/198 275/1/200
f 276/1/201 271/1/196 275/1/200
f 276/1/201 275/1/200 277/1/202
f 278/1/203 273/1/198 274/1/199
f 274/1/199 279/1/204 278/1/203
f 280/1/205 278/1/203 279/1/204
f 281/1/206 282/1/207 283/1/208
f 282/1/207 281/1/206 284/1/209
f 285/1/210 284/1/209 281/1/206
f 284/1/209 285/1/210 286/1/211
f 285/1/210 287/1/212 286/1/211
f 287/1/212 285/1/210 288/1/213
f 288/1/213 289/1/214 287/1/212
f 289/1/214 288/1/213 290/1/215
f 291/1/216 292/1/217 293/1/218
f 294/1/189 293/1/218 292/1/217
f 293/1/218 294/1/189 295/1/189
f 292/1/217 291/1/216 296/1/189
f 291/1/216 297/1/219 296/1/189
f 291/1/216 298/1/220 297/1/219
f 298/1/220 299/1/189 297/1/219
f 298/1/220 300/1/189 299/1/189
f 301/1/221 302/1/221 303/1/221
f 302/1/221 301/1/221 304/1/221
f 305/1/221 302/1/221 304/1/221
f 306/1/222 301/1/221 303/1/221
f 302/1/221 305/1/221 307/1/221
f 308/1/221 301/1/221 306/1/222
f 309/1/221 308/1/221 306/1/222
f 306/1/222 310/1/221 309/1/221
f 305/1/221 311/1/222 307/1/221
f 305/1/221 312/1/221 311/1/222
f 313/1/221 311/1/222 312/1/221
f 314/1/221 311/1/222 313/1/221
f 310/1/221 306/1/222 315/1/221
f 311/1/222 314/1/221 316/1/221
f 310/1/221 315/1/221 317/1/221
f 318/1/221 310/1/221 317/1/221
f 315/1/221 319/1/221 317/1/221
f 319/1/221 315/1/221 320/1/221
f 321/1/221 319/1/221 320/1/221
f 321/1/221 322/1/221 319/1/221
f 321/1/221 323/1/221 322/1/221
f 323/1/221 321/1/221 324/1/221
f 324/1/221 325/1/221 323/1/221
f 325/1/221 324/1/221 326/1/221
f 327/1/221 325/1/221 326/1/221
f 325/1/221 327/1/221 328/1/221
f 329/1/221 328/1/221 327/1/221
f 328/1/221 329/1/221 330/1/221
f 330/1/221 329/1/221 331/1/221
f 332/1/221 331/1/221 329/1/221
f 316/1/221 331/1/221 332/1/221
f 331/1/221 316/1/221 333/1/221
f 333/1/221 316/1/221 314/1/221
f 333/1/221 314/1/221 334/1/221
f 335/1/223 336/1/224 337/1/223
f 336/1/224 338/1/223 337/1/223
f 336/1/224 339/1/223 338/1/223
f 336/1/224 340/1/223 339/1/223
f 340/1/223 336/1/224 341/1/223
f 342/1/223 340/1/223 341/1/223
f 343/1/223 340/1/223 342/1/223
f 342/1/223 344/1/223 343/1/223
f 344/1/223 342/1/223 345/1/223
f 346/1/224 344/1/223 345/1/223
f 344/1/223 346/1/224 347/1/223
f 346/1/224 348/1/223 347/1/223
f 349/1/223 348/1/223 346/1/224
f 349/1/223 346/1/224 350/1/223
f 351/1/223 349/1/223 350/1/223
f 349/1/223 351/1/223 352/1/225
f 350/1/223 353/1/223 351/1/223
f 354/1/223 353/1/223 350/1/223
f 355/1/223 353/1/223 354/1/223
f 353/1/223 355/1/223 356/1/223
f 356/1/223 355/1/223 357/1/223
f 355/1/223 358/1/223 357/1/223
f 358/1/223 359/1/223 357/1/223
f 358/1/223 360/1/223 359/1/223
f 359/1/223 360/1/223 361/1/223
f 359/1/223 361/1/223 362/1/223
f 362/1/223 361/1/223 363/1/223
f 362/1/223 363/1/223 364/1/223
f 363/1/223 365/1/223 364/1/223
f 365/1/223 363/1/223 366/1/223
f 335/1/223 365/1/223 366/1/223
f 365/1/223 335/1/223 367/1/223
f 337/1/223 367/1/223 335/1/223
f 367/1/223 337/1/223 368/1/223
f 369/1/221 370/1/221 371/1/221
f 370/1/221 369/1/221 372/1/221
f 373/1/221 374/1/221 375/1/221
f 374/1/221 373/1/221 376/1/221
f 377/1/223 378/1/223 379/1/223
f 378/1/223 380/1/223 379/1/223
f 381/1/223 382/1/223 383/1/223
f 383/1/223 384/1/223 381/1/223
f 385/1/221 386/1/221 387/1/221
f 386/1/221 385/1/221 388/1/221
f 389/1/221 385/1/221 387/1/221
f 385/1/221 389/1/221 390/1/221
f 391/1/221 392/1/221 393/1/221
f 392/1/221 391/1/221 394/1/221
f 391/1/221 395/1/221 394/1/221
f 395/1/221 391/1/221 396/1/226
f 397/1/223 398/1/223 399/1/223
f 398/1/223 400/1/223 399/1/223
f 398/1/223 401/1/223 400/1/223
f 401/1/223 398/1/223 402/1/223
f 403/1/223 404/1/223 405/1/223
f 405/1/223 406/1/223 403/1/223
f 407/1/223 405/1/223 404/1/223
f 405/1/223 407/1/223 408/1/225
f 409/1/227 410/1/228 411/1/229
f 410/1/228 409/1/227 412/1/230
f 413/1/231 411/1/229 410/1/228
f 411/1/229 413/1/231 414/1/232
f 414/1/232 413/1/231 415/1/233
f 415/1/233 413/1/231 416/1/234
f 417/1/235 415/1/233 416/1/234
f 415/1/233 417/1/235 418/1/236
f 419/1/237 418/1/236 417/1/235
f 418/1/236 419/1/237 420/1/237
f 421/1/238 422/1/239 423/1/239
f 421/1/238 423/1/239 424/1/240
f 425/1/241 421/1/238 424/1/240
f 424/1/240 426/1/242 425/1/241
f 427/1/243 425/1/241 426/1/242
f 425/1/241 427/1/243 428/1/244
f 429/1/245 428/1/244 427/1/243
f 429/1/245 427/1/243 430/1/246
f 431/1/247 429/1/245 430/1/246
f 431/1/247 430/1/246 432/1/247
f 433/1/248 434/1/249 435/1/250
f 434/1/249 433/1/248 436/1/249
f 435/1/250 437/1/251 433/1/248
f 437/1/251 435/1/250 438/1/252
f 438/1/252 439/1/253 437/1/251
f 439/1/253 440/1/254 437/1/251
f 439/1/253 441/1/255 440/1/254
f 441/1/255 439/1/253 442/1/256
f 442/1/256 443/1/257 441/1/255
f 443/1/257 442/1/256 444/1/257
f 445/1/258 446/1/259 447/1/260
f 447/1/260 446/1/259 448/1/261
f 446/1/259 449/1/262 448/1/261
f 448/1/261 449/1/262 450/1/263
f 449/1/262 451/1/264 450/1/263
f 451/1/264 449/1/262 452/1/265
f 452/1/265 453/1/266 451/1/264
f 454/1/267 451/1/264 453/1/266
f 453/1/266 455/1/268 454/1/267
f 456/1/268 454/1/267 455/1/268
f 457/1/269 458/1/269 459/1/270
f 459/1/270 460/1/269 457/1/269
f 461/1/271 462/1/272 463/1/271
f 462/1/272 461/1/271 464/1/271
f 465/1/273 466/1/114 467/1/274
f 466/1/114 468/1/114 467/1/274
f 465/1/273 467/1/274 469/1/275
f 469/1/275 470/1/275 465/1/273
f 470/1/275 469/1/275 471/1/276
f 471/1/276 472/1/277 470/1/275
f 472/1/277 471/1/276 473/1/278
f 473/1/278 474/1/278 472/1/277
f 474/1/278 473/1/278 475/1/279
f 475/1/279 476/1/280 474/1/278
f 477/1/281 478/1/282 479/1/283
f 480/1/284 478/1/282 477/1/281
f 481/1/285 482/1/286 483/1/287
f 482/1/286 481/1/285 484/1/288
f 485/1/289 486/1/111 487/1/290
f 486/1/111 485/1/289 488/1/111
f 487/1/290 489/1/291 485/1/289
f 490/1/292 489/1/291 487/1/290
f 490/1/292 491/1/293 489/1/291
f 492/1/293 491/1/293 490/1/292
f 492/1/293 493/1/294 491/1/293
f 494/1/294 493/1/294 492/1/293
f 494/1/294 495/1/295 493/1/294
f 495/1/295 494/1/294 496/1/296
f 497/1/297 498/1/297 499/1/297
f 498/1/297 500/1/297 499/1/297
f 501/1/298 502/1/299 503/1/299
f 503/1/299 502/1/299 504/1/298
f 505/1/300 506/1/301 507/1/302
f 506/1/301 508/1/300 507/1/302
f 505/1/300 507/1/302 509/1/300
f 510/1/301 505/1/300 509/1/300
f 510/1/301 509/1/300 511/1/301
f 512/1/303 507/1/302 508/1/300
f 508/1/300 513/1/302 512/1/303
f 514/1/302 512/1/303 513/1/302
f 515/1/304 516/1/305 517/1/305
f 516/1/305 515/1/304 518/1/305
f 515/1/304 519/1/306 518/1/305
f 515/1/304 520/1/305 519/1/306
f 521/1/305 519/1/306 520/1/305
f 519/1/306 521/1/305 522/1/305
f 521/1/305 523/1/306 522/1/305
f 523/1/306 521/1/305 524/1/306
f 525/1/189 526/1/189 527/1/189
f 525/1/189 527/1/189 528/1/189
f 526/1/189 529/1/189 527/1/189
f 526/1/189 530/1/189 529/1/189
f 531/1/189 529/1/189 530/1/189
f 529/1/189 531/1/189 532/1/189
f 533/1/189 532/1/189 531/1/189
f 532/1/189 533/1/189 534/1/189
f 535/1/307 536/1/308 537/1/309
f 535/1/307 537/1/309 538/1/310
f 539/1/311 537/1/309 536/1/308
f 537/1/309 539/1/311 540/1/311
f 541/1/312 542/1/313 543/1/314
f 542/1/313 541/1/312 544/1/315
f 542/1/313 545/1/316 543/1/314
f 545/1/316 542/1/313 546/1/317
f 547/1/318 548/1/319 549/1/320
f 548/1/319 547/1/318 550/1/321
f 551/1/322 548/1/319 550/1/321
f 548/1/319 551/1/322 552/1/323
f 553/1/324 554/1/325 555/1/326
f 556/1/327 555/1/326 554/1/325
f 555/1/326 557/1/328 553/1/324
f 557/1/328 555/1/326 558/1/329
f 559/1/330 560/1/331 561/1/331
f 559/1/330 561/1/331 562/1/332
f 559/1/330 562/1/332 563/1/333
f 564/1/334 559/1/330 563/1/333
f 565/1/335 566/1/336 567/1/336
f 566/1/336 565/1/335 568/1/337
f 565/1/335 569/1/338 568/1/337
f 569/1/338 565/1/335 570/1/338
