# Blender 5.1.1
# www.blender.org
mtllib keybowbottom3.mtl
o 124911318777461
v 0.306527 -2.262837 0.419564
v 0.288033 -2.109823 0.305397
v 0.346952 -2.109823 0.332872
v 0.247608 -2.262837 0.392089
v 0.329109 -2.238407 0.448861
v 0.346952 -2.109823 0.332872
v 0.364332 -2.105084 0.373325
v 0.306527 -2.262837 0.419564
v 0.288033 -2.109823 0.305397
v 0.247608 -2.262837 0.392089
v 0.210650 -2.238407 0.393623
v 0.245873 -2.105084 0.318087
v 0.157872 -2.306823 0.584530
v 0.247608 -2.262837 0.392089
v 0.216791 -2.306823 0.612004
v 0.306527 -2.262837 0.419564
v 0.288033 -2.109823 0.305397
v 0.266025 -1.895283 0.352594
v 0.346952 -2.109823 0.332872
v 0.324944 -1.895283 0.380069
v 0.329109 -2.238407 0.448861
v 0.248188 -2.278070 0.622398
v 0.216791 -2.306823 0.612004
v 0.306527 -2.262837 0.419564
v 0.157872 -2.306823 0.584530
v 0.210650 -2.238407 0.393623
v 0.247608 -2.262837 0.392089
v 0.129729 -2.278070 0.567160
v 0.288033 -2.109823 0.305397
v 0.226191 -1.913209 0.360296
v 0.266025 -1.895283 0.352594
v 0.245873 -2.105084 0.318087
v 0.344650 -1.913209 0.415534
v 0.364332 -2.105084 0.373325
v 0.346952 -2.109823 0.332872
v 0.324944 -1.895283 0.380069
v -0.371311 -1.354741 1.887955
v -0.379540 -1.815107 1.722251
v -0.309312 -1.815107 1.754998
v -0.441539 -1.354741 1.855207
v 0.178144 -1.975246 0.694882
v 0.213027 -1.925722 0.466250
v 0.271946 -1.925722 0.493724
v 0.119225 -1.975246 0.667407
v -0.019734 -2.028010 0.888426
v 0.098156 -2.028010 0.943399
v 0.069551 -2.044440 1.004742
v -0.048338 -2.044440 0.949769
v 0.098156 -2.028010 0.943399
v 0.049131 -1.760604 0.740745
v 0.167021 -1.760604 0.795718
v -0.019734 -2.028010 0.888426
v -0.216885 -1.078423 1.556788
v -0.441539 -1.354741 1.855207
v -0.371311 -1.354741 1.887955
v -0.287113 -1.078423 1.524040
v 0.194211 -2.189993 0.660427
v 0.101141 -1.857087 0.706189
v 0.160060 -1.857087 0.733664
v 0.135292 -2.189993 0.632952
v 0.213027 -1.925722 0.466250
v 0.119225 -1.975246 0.667407
v 0.097969 -1.942190 0.635269
v 0.191769 -1.892666 0.434113
v 0.216428 -1.942190 0.690507
v 0.271946 -1.925722 0.493724
v 0.310228 -1.892666 0.489351
v 0.178144 -1.975246 0.694882
v 0.167021 -1.760604 0.795718
v 0.042187 -1.692918 0.755636
v 0.160077 -1.692918 0.810609
v 0.049131 -1.760604 0.740745
v -0.475687 -0.927019 1.933283
v -0.329872 -1.314260 1.794246
v -0.409170 -0.927019 1.964301
v -0.396389 -1.314260 1.763228
v -0.441539 -1.354741 1.855207
v -0.393253 -1.785470 1.692918
v -0.379540 -1.815107 1.722251
v -0.448855 -1.364000 1.812158
v -0.371311 -1.354741 1.887955
v -0.309312 -1.815107 1.754998
v -0.278028 -1.785470 1.746648
v -0.333630 -1.364000 1.865888
v 0.135292 -2.189993 0.632952
v 0.061236 -1.874322 0.714043
v 0.101141 -1.857087 0.706189
v 0.096927 -2.222252 0.637503
v 0.179695 -1.874322 0.769282
v 0.215386 -2.222252 0.692741
v 0.194211 -2.189993 0.660427
v 0.160060 -1.857087 0.733664
v 0.136496 -2.210228 0.784196
v 0.157872 -2.306823 0.584530
v 0.216791 -2.306823 0.612004
v 0.077577 -2.210228 0.756721
v -0.371311 -1.354741 1.887955
v -0.199214 -1.127170 1.577630
v -0.216885 -1.078423 1.556788
v -0.333630 -1.364000 1.865888
v -0.441539 -1.354741 1.855207
v -0.314438 -1.127170 1.523900
v -0.448855 -1.364000 1.812158
v -0.287113 -1.078423 1.524040
v -0.299582 -1.300335 1.788904
v -0.376840 -0.927601 1.954585
v -0.409170 -0.927019 1.964301
v -0.329872 -1.314260 1.794246
v -0.475687 -0.927019 1.933283
v -0.411770 -1.300335 1.736590
v -0.396389 -1.314260 1.763228
v -0.489028 -0.927601 1.902271
v -0.309312 -1.815107 1.754998
v -0.277688 -1.820814 1.503829
v -0.207460 -1.820814 1.536576
v -0.379540 -1.815107 1.722251
v 0.176253 -2.191534 0.776664
v 0.216791 -2.306823 0.612004
v 0.248188 -2.278070 0.622398
v 0.136496 -2.210228 0.784196
v 0.157872 -2.306823 0.584530
v 0.077577 -2.210228 0.756721
v 0.057794 -2.191534 0.721425
v 0.129729 -2.278070 0.567160
v 0.006060 -1.952895 1.140900
v -0.111830 -1.952895 1.085927
v 0.069551 -2.044440 1.004742
v -0.048338 -2.044440 0.949769
v -0.198424 -1.523823 1.516195
v -0.313541 -0.852874 1.763064
v -0.383001 -0.852874 1.730674
v -0.267884 -1.523823 1.483805
v -0.277688 -1.820814 1.503829
v -0.379540 -1.815107 1.722251
v -0.393253 -1.785470 1.692918
v -0.306801 -1.790314 1.507521
v -0.207460 -1.820814 1.536576
v -0.278028 -1.785470 1.746648
v -0.309312 -1.815107 1.754998
v -0.191576 -1.790314 1.561251
v -0.247067 -1.427886 1.438160
v -0.228567 -1.644665 1.581840
v -0.176839 -1.427886 1.470908
v -0.298795 -1.644665 1.549092
v -0.228567 -1.644665 1.581840
v -0.149973 -1.466619 1.472033
v -0.176839 -1.427886 1.470908
v -0.199376 -1.675168 1.577979
v -0.265197 -1.466619 1.418303
v -0.314601 -1.675168 1.524249
v -0.298795 -1.644665 1.549092
v -0.247067 -1.427886 1.438160
v -0.267884 -1.523823 1.483805
v -0.059611 -1.873671 1.037162
v -0.198424 -1.523823 1.516195
v 0.009849 -1.873671 1.069552
v 0.115326 -2.003852 0.829596
v 0.041248 -1.893647 0.988457
v -0.017671 -1.893647 0.960982
v 0.056407 -2.003852 0.802122
v 0.266025 -1.895283 0.352594
v 0.200884 -1.807356 0.492290
v 0.324944 -1.895283 0.380069
v 0.259803 -1.807356 0.519764
v 0.056407 -2.003852 0.802122
v -0.017671 -1.893647 0.960982
v -0.032649 -1.884659 0.915380
v 0.036844 -1.987312 0.766352
v 0.085810 -1.884659 0.970618
v 0.115326 -2.003852 0.829596
v 0.155303 -1.987312 0.821590
v 0.041248 -1.893647 0.988457
v 0.344650 -1.913209 0.415534
v 0.259803 -1.807356 0.519764
v 0.287835 -1.836521 0.537375
v 0.324944 -1.895283 0.380069
v 0.200884 -1.807356 0.492290
v 0.266025 -1.895283 0.352594
v 0.226191 -1.913209 0.360296
v 0.169376 -1.836521 0.482137
v -0.313541 -0.852874 1.763064
v -0.158500 -1.500565 1.506671
v -0.267151 -0.842683 1.739674
v -0.198424 -1.523823 1.516195
v 0.009849 -1.873671 1.069552
v 0.045179 -1.839735 1.069882
v -0.383001 -0.852874 1.730674
v -0.286251 -1.500565 1.447100
v -0.267884 -1.523823 1.483805
v -0.394902 -0.842683 1.680103
v -0.059611 -1.873671 1.037162
v -0.082573 -1.839735 1.010310
v 0.096586 -1.601373 0.946766
v 0.160077 -1.692918 0.810609
v 0.042187 -1.692918 0.755636
v -0.021304 -1.601373 0.891793
v -0.445526 -0.953703 1.727045
v -0.533682 -0.953703 1.916096
v -0.511643 -0.863379 1.868833
v -0.467565 -0.863379 1.774309
v -0.533682 -0.773055 1.916096
v -0.445526 -0.773055 1.727045
v -0.577760 -0.773055 2.010622
v -0.401448 -0.773055 1.632520
v -0.533682 -0.592406 1.916096
v -0.445526 -0.592406 1.727045
v -0.511643 -0.682730 1.868833
v -0.467565 -0.682730 1.774309
v -0.270569 -0.953703 1.808629
v -0.226492 -0.773055 1.714103
v -0.270569 -0.773055 1.808629
v -0.270569 -0.592406 1.808629
v -0.292609 -0.863379 1.855893
v -0.292609 -0.682730 1.855893
v -0.358726 -0.953703 1.997680
v -0.336686 -0.682730 1.950417
v -0.336686 -0.863379 1.950417
v -0.358726 -0.592406 1.997680
v -0.358726 -0.773055 1.997680
v -0.402803 -0.773055 2.092205
v -0.358726 -0.773055 1.997680
v -0.336686 -0.863379 1.950417
v -0.346824 -0.842246 1.932227
v -0.363707 -0.773055 1.968432
v -0.313059 -0.842246 1.859818
v -0.346824 -0.703863 1.932227
v -0.292609 -0.863379 1.855893
v -0.336686 -0.682730 1.950417
v -0.270569 -0.773055 1.808629
v -0.292609 -0.682730 1.855893
v -0.296176 -0.773055 1.823613
v -0.313059 -0.703863 1.859818
v -0.445526 -0.773055 1.727045
v -0.457428 -0.703863 1.792497
v -0.467565 -0.682730 1.774309
v -0.511643 -0.682730 1.868833
v -0.440546 -0.773055 1.756292
v -0.491193 -0.703863 1.864907
v -0.457428 -0.842246 1.792497
v -0.533682 -0.773055 1.916096
v -0.467565 -0.863379 1.774309
v -0.508076 -0.773055 1.901112
v -0.491193 -0.842246 1.864907
v -0.511643 -0.863379 1.868833
v -0.332380 -0.811136 1.546023
v -0.191019 -1.350183 1.318969
v -0.230673 -1.373055 1.327911
v -0.288201 -0.806765 1.527376
v -0.064478 -1.718692 0.971506
v -0.022672 -1.695505 0.957946
v -0.204629 -0.811136 1.605595
v -0.121560 -1.350183 1.351358
v -0.218742 -0.806765 1.559766
v -0.102921 -1.373055 1.387483
v 0.063273 -1.718692 1.031077
v 0.046788 -1.695505 0.990336
v -0.218742 -0.806765 1.559766
v -0.121560 -1.350183 1.351358
v -0.191019 -1.350183 1.318969
v -0.288201 -0.806765 1.527376
v 0.046788 -1.695505 0.990336
v -0.022672 -1.695505 0.957946
v -0.117462 -1.876193 1.060991
v 0.019466 -1.769618 0.767348
v -0.037626 -1.991309 0.889781
v -0.066326 -2.007792 0.951328
v -0.110496 -1.944106 1.046052
v -0.060371 -1.654505 0.938559
v 0.012499 -1.701708 0.782288
v -0.031671 -1.638020 0.877012
v 0.085873 -1.654505 1.006754
v 0.158743 -1.701708 0.850483
v 0.114573 -1.638020 0.945207
v 0.165710 -1.769618 0.835543
v 0.028782 -1.876193 1.129186
v 0.108619 -1.991309 0.957976
v 0.079919 -2.007792 1.019523
v 0.035748 -1.944106 1.114247
v -0.457428 -0.703863 1.792497
v -0.457428 -0.842246 1.792497
v -0.491193 -0.842246 1.864907
v -0.440546 -0.773055 1.756292
v -0.491193 -0.703863 1.864907
v -0.508076 -0.773055 1.901112
v -0.313059 -0.842246 1.859818
v -0.313059 -0.703863 1.859818
v -0.346824 -0.842246 1.932227
v -0.296176 -0.773055 1.823613
v -0.346824 -0.703863 1.932227
v -0.363707 -0.773055 1.968432
v -0.358726 -0.592406 1.997680
v -0.453346 -0.773055 2.106807
v -0.402803 -0.773055 2.092205
v -0.358726 -0.953703 1.997680
v -0.401958 -0.562448 1.996605
v -0.401958 -0.983662 1.996605
v -0.299183 -0.562448 1.776203
v -0.270569 -0.953703 1.808629
v -0.270569 -0.592406 1.808629
v -0.299182 -0.983662 1.776201
v -0.247794 -0.773055 1.666000
v -0.226492 -0.773055 1.714103
v -0.556458 -0.773055 2.058725
v -0.505070 -0.562448 1.948523
v -0.533682 -0.592406 1.916096
v -0.402295 -0.562448 1.728121
v -0.577760 -0.773055 2.010622
v -0.445526 -0.592406 1.727045
v -0.533682 -0.953703 1.916096
v -0.350906 -0.773055 1.617918
v -0.505070 -0.983662 1.948523
v -0.401448 -0.773055 1.632520
v -0.445526 -0.953703 1.727045
v -0.402294 -0.983662 1.728119
v 0.067981 -1.617802 1.008110
v -0.000883 -1.885209 1.155789
v 0.028782 -1.876193 1.129186
v 0.035748 -1.944106 1.114247
v 0.085873 -1.654505 1.006754
v 0.006060 -1.952895 1.140900
v 0.096586 -1.601373 0.946766
v 0.079919 -2.007792 1.019523
v 0.114573 -1.638020 0.945207
v 0.069551 -2.044440 1.004742
v 0.160077 -1.692918 0.810609
v 0.108619 -1.991309 0.957976
v 0.158743 -1.701708 0.850483
v 0.098156 -2.028010 0.943399
v 0.165710 -1.769618 0.835543
v 0.167021 -1.760604 0.795718
v 0.042187 -1.692918 0.755636
v -0.031671 -1.638020 0.877012
v -0.021304 -1.601373 0.891793
v -0.060371 -1.654505 0.938559
v 0.012499 -1.701708 0.782288
v -0.049909 -1.617802 0.953137
v 0.019466 -1.769618 0.767348
v -0.117462 -1.876193 1.060991
v 0.049131 -1.760604 0.740745
v -0.118773 -1.885209 1.100816
v -0.019734 -2.028010 0.888426
v -0.110496 -1.944106 1.046052
v -0.037626 -1.991309 0.889781
v -0.111830 -1.952895 1.085927
v -0.048338 -2.044440 0.949769
v -0.066326 -2.007792 0.951328
v -0.394902 -0.842683 1.680103
v -0.230673 -1.373055 1.327911
v -0.286251 -1.500565 1.447100
v -0.332380 -0.811136 1.546023
v -0.064478 -1.718692 0.971506
v -0.082573 -1.839735 1.010310
v 0.063273 -1.718692 1.031077
v -0.158500 -1.500565 1.506671
v 0.045179 -1.839735 1.069882
v -0.102921 -1.373055 1.387483
v -0.267151 -0.842683 1.739674
v -0.204629 -0.811136 1.605595
v 0.337778 -2.161229 0.430271
v 0.215386 -2.222252 0.692741
v 0.248188 -2.278070 0.622398
v 0.176253 -2.191534 0.776664
v 0.329109 -2.238407 0.448861
v 0.155303 -1.987312 0.821590
v 0.364332 -2.105084 0.373325
v 0.179695 -1.874322 0.769282
v 0.085810 -1.884659 0.970618
v 0.106586 -1.785441 0.926065
v 0.310228 -1.892666 0.489351
v 0.344650 -1.913209 0.415534
v 0.287835 -1.836521 0.537375
v 0.216428 -1.942190 0.690507
v 0.209742 -1.877023 0.704844
v 0.191769 -1.892666 0.434113
v 0.245873 -2.105084 0.318087
v 0.219319 -2.161229 0.375033
v 0.210650 -2.238407 0.393623
v 0.226191 -1.913209 0.360296
v 0.129729 -2.278070 0.567160
v 0.169376 -1.836521 0.482137
v 0.097969 -1.942190 0.635269
v 0.091284 -1.877023 0.649606
v 0.096927 -2.222252 0.637503
v 0.057794 -2.191534 0.721425
v 0.036844 -1.987312 0.766352
v 0.061236 -1.874322 0.714043
v -0.032649 -1.884659 0.915380
v -0.011873 -1.785441 0.870827
v -0.296078 -1.225670 1.484526
v -0.406804 -1.403284 1.721980
v -0.314438 -1.127170 1.523900
v -0.448855 -1.364000 1.812158
v -0.366984 -1.672233 1.636586
v -0.393253 -1.785470 1.692918
v -0.306801 -1.790314 1.507521
v -0.314601 -1.675168 1.524249
v -0.233914 -1.503296 1.351215
v -0.265197 -1.466619 1.418303
v -0.278028 -1.785470 1.746648
v -0.191576 -1.790314 1.561251
v -0.251760 -1.672233 1.690316
v -0.333630 -1.364000 1.865888
v -0.199376 -1.675168 1.577979
v -0.118689 -1.503296 1.404945
v -0.149973 -1.466619 1.472033
v -0.291580 -1.403284 1.775710
v -0.199214 -1.127170 1.577630
v -0.180854 -1.225670 1.538256
v -0.445310 -0.930273 1.808517
v -0.411770 -1.300335 1.736590
v -0.489028 -0.927601 1.902271
v -0.377443 -1.236220 1.662975
v -0.333122 -0.930273 1.860832
v -0.299582 -1.300335 1.788904
v -0.265255 -1.236220 1.715290
v -0.376840 -0.927601 1.954585
v 0.013222 -1.746106 0.894732
v 0.101141 -1.857087 0.706189
v 0.061236 -1.874322 0.714043
v -0.011873 -1.785441 0.870827
v 0.179695 -1.874322 0.769282
v 0.072141 -1.746106 0.922206
v 0.106586 -1.785441 0.926065
v 0.160060 -1.857087 0.733664
v -0.277688 -1.820814 1.503829
v -0.233914 -1.503296 1.351215
v -0.192653 -1.491677 1.321470
v -0.306801 -1.790314 1.507521
v -0.118689 -1.503296 1.404945
v -0.191576 -1.790314 1.561251
v -0.207460 -1.820814 1.536576
v -0.122425 -1.491677 1.354218
v 0.072141 -1.746106 0.922206
v 0.160060 -1.857087 0.733664
v 0.101141 -1.857087 0.706189
v 0.013222 -1.746106 0.894732
v -0.111830 -1.952895 1.085927
v 0.006060 -1.952895 1.140900
v -0.000883 -1.885209 1.155789
v -0.118773 -1.885209 1.100816
v -0.314601 -1.675168 1.524249
v -0.336320 -1.642562 1.629564
v -0.298795 -1.644665 1.549092
v -0.366984 -1.672233 1.636586
v -0.199376 -1.675168 1.577979
v -0.266092 -1.642562 1.662312
v -0.251760 -1.672233 1.690316
v -0.228567 -1.644665 1.581840
v -0.122425 -1.491677 1.354218
v -0.207460 -1.820814 1.536576
v -0.277688 -1.820814 1.503829
v -0.192653 -1.491677 1.321470
v -0.266092 -1.642562 1.662312
v -0.228567 -1.644665 1.581840
v -0.336320 -1.642562 1.629564
v -0.298795 -1.644665 1.549092
v -0.049909 -1.617802 0.953137
v 0.067981 -1.617802 1.008110
v 0.096586 -1.601373 0.946766
v -0.021304 -1.601373 0.891793
v -0.347150 -1.222293 1.657634
v -0.445310 -0.930273 1.808517
v -0.412977 -0.930853 1.798803
v -0.377443 -1.236220 1.662975
v -0.280633 -1.222293 1.688652
v -0.333122 -0.930273 1.860832
v -0.265255 -1.236220 1.715290
v -0.346461 -0.930853 1.829820
v -0.180854 -1.225670 1.538256
v -0.291580 -1.403284 1.775710
v -0.298211 -1.412316 1.731192
v -0.187687 -1.235070 1.494172
v -0.368439 -1.412316 1.698445
v -0.296078 -1.225670 1.484526
v -0.257915 -1.235070 1.461424
v -0.406804 -1.403284 1.721980
v 0.176253 -2.191534 0.776664
v 0.155303 -1.987312 0.821590
v 0.115326 -2.003852 0.829596
v 0.136496 -2.210228 0.784196
v 0.056407 -2.003852 0.802122
v 0.057794 -2.191534 0.721425
v 0.077577 -2.210228 0.756721
v 0.036844 -1.987312 0.766352
v -0.406804 -1.403284 1.721980
v -0.336320 -1.642562 1.629564
v -0.366984 -1.672233 1.636586
v -0.368439 -1.412316 1.698445
v -0.291580 -1.403284 1.775710
v -0.251760 -1.672233 1.690316
v -0.266092 -1.642562 1.662312
v -0.298211 -1.412316 1.731192
v -0.346461 -0.930853 1.829820
v -0.280633 -1.222293 1.688652
v -0.347150 -1.222293 1.657634
v -0.412977 -0.930853 1.798803
v -0.049909 -1.617802 0.953137
v -0.118773 -1.885209 1.100816
v 0.067981 -1.617802 1.008110
v -0.000883 -1.885209 1.155789
v 0.200884 -1.807356 0.492290
v 0.091284 -1.877023 0.649606
v 0.107083 -1.856879 0.693447
v 0.169376 -1.836521 0.482137
v 0.209742 -1.877023 0.704844
v 0.287835 -1.836521 0.537375
v 0.259803 -1.807356 0.519764
v 0.166002 -1.856879 0.720922
v 0.056407 -2.003852 0.802122
v 0.077577 -2.210228 0.756721
v 0.115326 -2.003852 0.829596
v 0.136496 -2.210228 0.784196
v -0.368439 -1.412316 1.698445
v -0.257915 -1.235070 1.461424
v -0.298211 -1.412316 1.731192
v -0.187687 -1.235070 1.494172
v 0.107083 -1.856879 0.693447
v 0.097969 -1.942190 0.635269
v 0.119225 -1.975246 0.667407
v 0.091284 -1.877023 0.649606
v 0.166002 -1.856879 0.720922
v 0.178144 -1.975246 0.694882
v 0.216428 -1.942190 0.690507
v 0.209742 -1.877023 0.704844
v -0.336320 -1.642562 1.629564
v -0.368439 -1.412316 1.698445
v -0.266092 -1.642562 1.662312
v -0.298211 -1.412316 1.731192
v 0.200884 -1.807356 0.492290
v 0.107083 -1.856879 0.693447
v 0.259803 -1.807356 0.519764
v 0.166002 -1.856879 0.720922
v 0.166002 -1.856879 0.720922
v 0.119225 -1.975246 0.667407
v 0.178144 -1.975246 0.694882
v 0.107083 -1.856879 0.693447
v 0.337778 -2.161229 0.430271
v 0.310228 -1.892666 0.489351
v 0.271946 -1.925722 0.493724
v 0.293953 -2.140262 0.446528
v 0.213027 -1.925722 0.466250
v 0.219319 -2.161229 0.375033
v 0.235034 -2.140262 0.419054
v 0.191769 -1.892666 0.434113
v 0.096927 -2.222252 0.637503
v 0.235034 -2.140262 0.419054
v 0.219319 -2.161229 0.375033
v 0.135292 -2.189993 0.632952
v 0.215386 -2.222252 0.692741
v 0.337778 -2.161229 0.430271
v 0.293953 -2.140262 0.446528
v 0.194211 -2.189993 0.660427
v -0.402295 -0.562448 1.728121
v -0.505070 -0.562448 1.948523
v -0.299183 -0.562448 1.776203
v -0.401958 -0.562448 1.996605
v -0.247794 -0.773055 1.666000
v -0.556458 -0.773055 2.058725
v -0.350906 -0.773055 1.617918
v -0.453346 -0.773055 2.106807
v -0.299182 -0.983662 1.776201
v -0.505070 -0.983662 1.948523
v -0.402294 -0.983662 1.728119
v -0.401958 -0.983662 1.996605
v 0.271946 -1.925722 0.493724
v 0.235034 -2.140262 0.419054
v 0.293953 -2.140262 0.446528
v 0.213027 -1.925722 0.466250
v 0.293953 -2.140262 0.446528
v 0.135292 -2.189993 0.632952
v 0.194211 -2.189993 0.660427
v 0.235034 -2.140262 0.419054
vn 0.358024 -0.530200 -0.768495
vn 0.357933 -0.530300 -0.768537
vn 0.358338 -0.530100 -0.768458
vn 0.855512 -0.407200 -0.319809
vn -0.304925 -0.407200 -0.860929
vn 0.085707 -0.979200 -0.183799
vn 0.085254 -0.979200 -0.184011
vn 0.085435 -0.979200 -0.183926
vn 0.410700 0.235900 -0.880750
vn 0.410429 0.235800 -0.880877
vn 0.646062 -0.752300 0.129357
vn 0.646062 -0.752200 0.129357
vn -0.514374 -0.752200 -0.411763
vn -0.514374 -0.752300 -0.411763
vn -0.264734 0.181200 -0.947119
vn -0.264691 0.181200 -0.947210
vn 0.895745 0.181200 -0.406089
vn 0.895703 0.181200 -0.405999
vn 0.895745 0.180900 -0.406089
vn -0.402671 -0.303600 0.863530
vn -0.402943 -0.303600 0.863403
vn 0.091690 -0.976000 -0.197339
vn 0.091557 -0.976100 -0.197291
vn 0.099696 -0.971800 -0.213798
vn 0.360874 -0.520400 -0.773896
vn 0.360560 -0.520700 -0.773932
vn -0.254923 0.797600 0.546685
vn -0.255237 0.797500 0.546649
vn 0.410429 0.235700 -0.880877
vn -0.516317 -0.744100 -0.423923
vn -0.516577 -0.744200 -0.423603
vn 0.656626 -0.744100 0.123029
vn 0.656548 -0.744200 0.123434
vn 0.410247 0.235700 -0.880961
vn 0.410066 0.235700 -0.881046
vn -0.380586 -0.436200 0.815460
vn -0.380634 -0.436300 0.815327
vn -0.955716 -0.191400 0.223541
vn 0.443080 -0.191400 0.875810
vn -0.264649 0.180700 -0.947300
vn 0.895787 0.180700 -0.406180
vn -0.191815 -0.891600 0.410165
vn -0.191766 -0.891600 0.410298
vn -0.191676 -0.891600 0.410340
vn -0.191724 -0.891600 0.410207
vn 0.543382 0.504300 0.671122
vn 0.543515 0.504300 0.671074
vn 0.543424 0.504300 0.671032
vn -0.863437 0.504300 0.015001
vn -0.863389 0.504300 0.015134
vn -0.863346 0.504300 0.015043
vn 0.287379 -0.336800 0.896662
vn -0.871607 -0.336800 0.356218
vn -0.010687 -0.999700 0.021498
vn -0.010016 -0.999700 0.021479
vn -0.010330 -0.999700 0.021443
vn 0.433063 -0.684800 0.586137
vn 0.433105 -0.684800 0.586046
vn -0.727332 -0.684800 0.044926
vn -0.727374 -0.684800 0.045016
vn -0.219931 -0.854000 0.471643
vn -0.391598 -0.376200 0.839785
vn -0.705779 -0.635800 -0.312449
vn 0.693016 -0.635800 0.339820
vn -0.368421 0.491500 0.789134
vn -0.368560 0.491600 0.788959
vn -0.368016 0.491700 0.789213
vn 0.439637 0.322600 0.838235
vn -0.924718 0.322600 0.202025
vn -0.244654 -0.815400 0.524662
vn -0.245022 -0.815500 0.524269
vn -0.224960 -0.846600 0.482428
vn -0.225153 -0.846800 0.481896
vn 0.209039 0.868500 -0.449468
vn 0.209407 0.868600 -0.449076
vn -0.743703 -0.659600 0.108901
vn 0.394620 -0.659600 0.639709
vn 0.740994 0.667400 -0.073752
vn 0.741109 0.667300 -0.074471
vn 0.741079 0.667400 -0.073933
vn -0.419327 0.667300 -0.615592
vn 0.426622 -0.243100 0.871115
vn 0.471840 -0.400400 0.785504
vn 0.473849 -0.411100 0.778827
vn 0.501177 -0.553000 0.665565
vn -0.941540 -0.243100 0.233130
vn -0.905023 -0.400400 0.143462
vn -0.901110 -0.411100 0.137673
vn -0.832002 -0.553000 0.043893
vn -0.832044 -0.553000 0.043984
vn 0.219393 0.854000 -0.471673
vn 0.219931 0.853900 -0.471643
vn -0.906308 -0.000000 -0.422618
vn 0.906308 -0.000000 0.422618
vn 0.985678 0.000200 -0.168303
vn 0.865667 0.492600 0.089535
vn 0.865619 0.492700 0.089403
vn 0.985721 0.000200 -0.168394
vn 0.625246 0.492600 0.605357
vn 0.865631 -0.492600 0.089850
vn 0.624937 0.492700 0.605545
vn 0.505053 -0.000000 0.863111
vn 0.624901 -0.492300 0.605859
vn 0.504612 0.000200 0.863347
vn 0.625119 -0.492500 0.605629
vn -0.985678 0.000200 0.168303
vn -0.865631 -0.492600 -0.089850
vn -0.865667 -0.492500 -0.089535
vn -0.625246 -0.492600 -0.605357
vn -0.985721 0.000200 0.168394
vn -0.625028 -0.492500 -0.605587
vn -0.865631 0.492600 -0.089850
vn -0.505053 -0.000000 -0.863111
vn -0.504612 0.000200 -0.863347
vn -0.624895 0.492700 -0.605635
vn -0.625246 0.492600 -0.605357
vn -0.379818 0.272900 -0.883936
vn -0.434543 0.389100 -0.812247
vn -0.440062 0.401800 -0.803014
vn -0.484058 0.506400 -0.713634
vn 0.921277 0.272900 -0.277225
vn 0.901536 0.389100 -0.189223
vn 0.898011 0.401800 -0.179061
vn 0.857821 0.506400 -0.087905
vn 0.388784 0.389900 -0.834697
vn 0.341191 0.588600 -0.732871
vn 0.341856 0.587900 -0.733112
vn 0.388917 0.389900 -0.834746
vn 0.276537 0.755500 -0.593982
vn 0.276815 0.755600 -0.593632
vn -0.906139 0.000200 -0.422981
vn 0.906477 0.000200 0.422256
vn 0.436788 0.652500 0.619320
vn 0.277587 -0.000000 0.960726
vn 0.436788 -0.652500 0.619320
vn 0.755188 0.652500 -0.063492
vn 0.755376 -0.652200 -0.063184
vn 0.755327 -0.652300 -0.063317
vn 0.914389 -0.000000 -0.404899
vn -0.914437 0.000500 0.404766
vn -0.755188 0.652500 0.063492
vn -0.436788 0.652500 -0.619320
vn -0.914389 -0.000000 0.404899
vn -0.755188 -0.652500 0.063492
vn -0.277720 0.000600 -0.960678
vn -0.277587 -0.000000 -0.960726
vn -0.437144 -0.652200 -0.619265
vn -0.436788 -0.652500 -0.619320
vn 0.739611 0.339100 0.581340
vn 0.661300 0.035000 0.749279
vn 0.641916 0.121600 0.757011
vn 0.684672 -0.298800 0.664846
vn 0.691151 0.312900 0.651426
vn 0.686560 -0.214600 0.694635
vn 0.844970 0.399600 0.355398
vn 0.765827 -0.414800 0.491282
vn 0.868608 0.414800 0.270868
vn 0.815386 -0.399600 0.418839
vn 0.973488 0.214300 0.079789
vn 0.943285 -0.312900 0.110723
vn 0.949576 0.298300 0.096996
vn 0.920745 -0.339100 0.192897
vn 0.992520 -0.121600 0.005138
vn 0.999026 -0.035000 0.025495
vn -0.686868 0.214300 -0.694447
vn -0.765827 0.414800 -0.491282
vn -0.815386 0.399600 -0.418839
vn -0.943285 0.312900 -0.110723
vn -0.684763 0.298300 -0.664888
vn -0.920745 0.339100 -0.192897
vn -0.641916 -0.121600 -0.757011
vn -0.992520 0.121600 -0.005138
vn -0.661608 -0.035000 -0.749092
vn -0.999056 0.035000 -0.024958
vn -0.739611 -0.339100 -0.581340
vn -0.949358 -0.298600 -0.097225
vn -0.691151 -0.312900 -0.651426
vn -0.973433 -0.214600 -0.079433
vn -0.844970 -0.399600 -0.355398
vn -0.868608 -0.414800 -0.270868
vn 0.906435 0.000200 0.422346
vn -0.439197 0.673500 -0.594514
vn -0.439155 0.673500 -0.594605
vn 0.737777 0.673500 -0.045793
vn 0.737734 0.673500 -0.045702
vn -0.475818 -0.327100 -0.816488
vn -0.475860 -0.327100 -0.816397
vn 0.931273 -0.327100 -0.160240
vn 0.931316 -0.327100 -0.160331
vn 0.198570 0.882400 -0.426545
vn 0.198926 0.882300 -0.426599
vn -0.411202 -0.236200 0.880406
vn -0.410930 -0.236100 0.880532
vn -0.411202 -0.236300 0.880406
vn -0.693016 0.635800 -0.339820
vn -0.692835 0.636100 -0.339735
vn 0.705779 0.635800 0.312449
vn 0.360578 -0.521600 -0.773262
vn 0.360258 -0.521400 -0.773521
vn 0.360167 -0.521400 -0.773564
vn 0.010016 0.999700 -0.021479
vn 0.009738 0.999700 -0.021830
vn -0.099696 0.971800 0.213798
vn -0.290228 0.360800 -0.886294
vn 0.865496 0.360800 -0.347372
vn 0.865502 0.361100 -0.347148
vn 0.839653 -0.542900 -0.014396
vn 0.839605 -0.543100 -0.014529
vn 0.839653 -0.543000 -0.014396
vn 0.839520 -0.543100 -0.014348
vn -0.528690 -0.543000 -0.652465
vn -0.528690 -0.542900 -0.652465
vn -0.528642 -0.543100 -0.652332
vn -0.528558 -0.543100 -0.652514
vn 0.264691 -0.181200 0.947210
vn -0.895745 -0.181200 0.406089
vn -0.447059 0.204400 -0.870825
vn 0.954455 0.204400 -0.217288
vn 0.372296 0.471300 -0.799575
vn 0.372707 0.471400 -0.799273
vn -0.360874 0.520400 0.773896
vn -0.361369 0.520300 0.773776
vn -0.361550 0.520300 0.773691
vn -0.648494 0.751900 -0.118464
vn 0.507593 0.751900 0.420627
vn -0.410700 -0.235900 0.880750
vn 0.236756 -0.827500 -0.509145
vn 0.236805 -0.827500 -0.509013
vn 0.236944 -0.827600 -0.508837
vn 0.236895 -0.827600 -0.508970
vn -0.895703 -0.181200 0.405999
vn -0.895564 -0.181700 0.406174
vn 0.264734 -0.181200 0.947119
vn 0.264510 -0.181700 0.947125
vn 0.401318 0.313500 -0.860630
vn 0.400732 0.313900 -0.860793
vn 0.400823 0.313900 -0.860751
vn -0.092046 0.976000 0.197394
vn -0.092101 0.976100 0.197037
vn -0.092330 0.976100 0.196820
vn -0.092240 0.976100 0.196862
vn -0.411021 -0.236200 0.880490
vn -0.647161 0.751700 -0.127001
vn -0.647511 0.751500 -0.126723
vn -0.647378 0.751600 -0.126771
vn 0.513288 0.751500 0.414566
vn 0.513276 0.751700 0.414119
vn 0.210814 0.866100 -0.453275
vn -0.211859 0.866100 0.452677
vn -0.211811 0.866100 0.452810
vn 0.422618 -0.000000 -0.906308
vn -0.422618 -0.000000 0.906308
vn 0.211309 -0.866000 -0.453154
vn -0.211545 -0.866200 0.452713
vn 0.210820 -0.866200 -0.453051
vn -0.411111 -0.236100 0.880448
vn -0.087808 0.978400 0.187123
vn -0.087144 0.978500 0.186881
vt 0.000000 0.000000
s 1
f 1/1/1 2/1/2 3/1/2
f 2/1/2 1/1/1 4/1/3
f 5/1/4 6/1/4 7/1/4
f 6/1/4 5/1/4 8/1/4
f 9/1/5 10/1/5 11/1/5
f 9/1/5 11/1/5 12/1/5
f 13/1/6 14/1/7 15/1/7
f 16/1/8 15/1/7 14/1/7
f 17/1/9 18/1/10 19/1/9
f 20/1/9 19/1/9 18/1/10
f 21/1/11 22/1/12 23/1/12
f 21/1/11 23/1/12 24/1/11
f 25/1/13 26/1/14 27/1/14
f 26/1/14 25/1/13 28/1/13
f 29/1/15 30/1/16 31/1/16
f 30/1/16 29/1/15 32/1/15
f 33/1/17 34/1/18 35/1/18
f 33/1/17 35/1/18 36/1/19
f 37/1/20 38/1/20 39/1/21
f 38/1/20 37/1/20 40/1/20
f 41/1/22 42/1/23 43/1/22
f 42/1/23 41/1/22 44/1/22
f 45/1/24 46/1/24 47/1/24
f 47/1/24 48/1/24 45/1/24
f 49/1/25 50/1/26 51/1/25
f 50/1/26 49/1/25 52/1/25
f 53/1/27 54/1/28 55/1/27
f 54/1/28 53/1/27 56/1/27
f 57/1/10 58/1/9 59/1/9
f 58/1/9 57/1/10 60/1/29
f 61/1/30 62/1/31 63/1/30
f 61/1/30 63/1/30 64/1/30
f 65/1/32 66/1/32 67/1/32
f 66/1/32 65/1/32 68/1/33
f 69/1/9 70/1/34 71/1/35
f 70/1/34 69/1/9 72/1/34
f 73/1/36 74/1/36 75/1/36
f 74/1/36 73/1/36 76/1/37
f 77/1/38 78/1/38 79/1/38
f 78/1/38 77/1/38 80/1/38
f 81/1/39 82/1/39 83/1/39
f 81/1/39 83/1/39 84/1/39
f 85/1/15 86/1/16 87/1/16
f 86/1/16 85/1/15 88/1/40
f 89/1/17 90/1/41 91/1/18
f 91/1/18 92/1/17 89/1/17
f 93/1/42 94/1/43 95/1/44
f 94/1/43 93/1/42 96/1/45
f 97/1/46 98/1/46 99/1/47
f 98/1/46 97/1/46 100/1/48
f 101/1/49 102/1/50 103/1/51
f 101/1/49 104/1/49 102/1/50
f 105/1/52 106/1/52 107/1/52
f 107/1/52 108/1/52 105/1/52
f 109/1/53 110/1/53 111/1/53
f 110/1/53 109/1/53 112/1/53
f 113/1/54 114/1/54 115/1/55
f 114/1/54 113/1/54 116/1/56
f 117/1/57 118/1/58 119/1/58
f 118/1/58 117/1/57 120/1/57
f 121/1/59 122/1/60 123/1/60
f 121/1/59 123/1/60 124/1/59
f 125/1/61 126/1/61 127/1/61
f 127/1/61 126/1/61 128/1/61
f 129/1/62 130/1/62 131/1/62
f 129/1/62 131/1/62 132/1/62
f 133/1/63 134/1/63 135/1/63
f 133/1/63 135/1/63 136/1/63
f 137/1/64 138/1/64 139/1/64
f 138/1/64 137/1/64 140/1/64
f 141/1/65 142/1/66 143/1/67
f 142/1/66 141/1/65 144/1/66
f 145/1/68 146/1/68 147/1/68
f 146/1/68 145/1/68 148/1/68
f 149/1/69 150/1/69 151/1/69
f 149/1/69 151/1/69 152/1/69
f 153/1/70 154/1/71 155/1/71
f 156/1/70 155/1/71 154/1/71
f 157/1/72 158/1/72 159/1/73
f 157/1/72 159/1/73 160/1/72
f 161/1/74 162/1/75 163/1/74
f 164/1/74 163/1/74 162/1/75
f 165/1/76 166/1/76 167/1/76
f 167/1/76 168/1/76 165/1/76
f 169/1/77 170/1/77 171/1/77
f 170/1/77 169/1/77 172/1/77
f 173/1/78 174/1/79 175/1/80
f 174/1/79 173/1/78 176/1/79
f 177/1/81 178/1/81 179/1/81
f 177/1/81 179/1/81 180/1/81
f 181/1/82 182/1/83 183/1/82
f 182/1/83 181/1/82 184/1/84
f 185/1/85 182/1/83 184/1/84
f 182/1/83 185/1/85 186/1/85
f 187/1/86 188/1/87 189/1/88
f 188/1/87 187/1/86 190/1/86
f 191/1/89 189/1/88 188/1/87
f 191/1/89 188/1/87 192/1/90
f 193/1/91 194/1/92 195/1/91
f 193/1/91 195/1/91 196/1/92
f 197/1/93 198/1/93 199/1/93
f 197/1/93 199/1/93 200/1/93
f 198/1/93 201/1/93 199/1/93
f 202/1/93 197/1/93 200/1/93
f 203/1/93 201/1/93 198/1/93
f 197/1/93 202/1/93 204/1/93
f 205/1/93 201/1/93 203/1/93
f 206/1/93 204/1/93 202/1/93
f 201/1/93 205/1/93 207/1/93
f 206/1/93 202/1/93 208/1/93
f 205/1/93 208/1/93 207/1/93
f 208/1/93 205/1/93 206/1/93
f 209/1/94 210/1/94 211/1/94
f 212/1/94 211/1/94 210/1/94
f 209/1/94 211/1/94 213/1/94
f 211/1/94 212/1/94 214/1/94
f 209/1/94 213/1/94 215/1/94
f 212/1/94 216/1/94 214/1/94
f 215/1/94 213/1/94 217/1/94
f 212/1/94 218/1/94 216/1/94
f 219/1/94 215/1/94 217/1/94
f 218/1/94 219/1/94 216/1/94
f 215/1/94 219/1/94 220/1/94
f 220/1/94 219/1/94 218/1/94
f 221/1/95 222/1/96 223/1/97
f 221/1/95 223/1/97 224/1/98
f 222/1/96 225/1/99 223/1/97
f 226/1/100 221/1/95 224/1/98
f 225/1/99 222/1/96 227/1/101
f 221/1/95 226/1/100 228/1/100
f 229/1/102 225/1/99 227/1/101
f 230/1/103 228/1/100 226/1/100
f 225/1/99 229/1/102 231/1/104
f 230/1/103 226/1/100 232/1/105
f 229/1/102 232/1/105 231/1/104
f 232/1/105 229/1/102 230/1/103
f 233/1/106 234/1/107 235/1/108
f 234/1/107 236/1/109 235/1/108
f 234/1/107 233/1/106 237/1/110
f 236/1/109 234/1/107 238/1/111
f 233/1/106 239/1/112 237/1/110
f 240/1/113 236/1/109 238/1/111
f 239/1/112 233/1/106 241/1/112
f 240/1/113 238/1/111 242/1/114
f 241/1/112 243/1/115 239/1/112
f 243/1/115 240/1/113 242/1/114
f 241/1/112 244/1/116 243/1/115
f 240/1/113 243/1/115 244/1/116
f 245/1/117 246/1/118 247/1/119
f 246/1/118 245/1/117 248/1/117
f 249/1/120 247/1/119 246/1/118
f 246/1/118 250/1/120 249/1/120
f 251/1/121 252/1/122 253/1/121
f 252/1/122 251/1/121 254/1/123
f 255/1/124 252/1/122 254/1/123
f 252/1/122 255/1/124 256/1/124
f 257/1/125 258/1/126 259/1/127
f 257/1/125 259/1/127 260/1/128
f 261/1/129 259/1/127 258/1/126
f 259/1/127 261/1/129 262/1/130
f 263/1/93 264/1/93 265/1/93
f 266/1/93 263/1/93 265/1/93
f 263/1/93 266/1/93 267/1/131
f 264/1/93 263/1/93 268/1/93
f 264/1/93 268/1/93 269/1/93
f 269/1/93 268/1/93 270/1/131
f 271/1/94 272/1/94 273/1/132
f 272/1/94 271/1/94 274/1/94
f 275/1/94 274/1/94 271/1/94
f 275/1/94 276/1/94 274/1/94
f 276/1/94 275/1/94 277/1/94
f 277/1/94 275/1/94 278/1/94
f 279/1/93 280/1/93 281/1/93
f 280/1/93 279/1/93 282/1/93
f 279/1/93 281/1/93 283/1/93
f 281/1/93 284/1/93 283/1/93
f 285/1/94 286/1/94 287/1/94
f 286/1/94 285/1/94 288/1/94
f 289/1/94 287/1/94 286/1/94
f 287/1/94 289/1/94 290/1/94
f 291/1/133 292/1/134 293/1/134
f 294/1/135 293/1/134 292/1/134
f 292/1/134 291/1/133 295/1/133
f 292/1/134 296/1/135 294/1/135
f 297/1/136 295/1/133 291/1/133
f 296/1/135 298/1/137 294/1/135
f 297/1/136 291/1/133 299/1/136
f 296/1/135 300/1/138 298/1/137
f 301/1/139 297/1/136 299/1/136
f 301/1/139 298/1/137 300/1/138
f 299/1/136 302/1/139 301/1/139
f 298/1/137 301/1/139 302/1/139
f 303/1/140 304/1/141 305/1/141
f 306/1/142 305/1/141 304/1/141
f 303/1/140 305/1/141 307/1/143
f 305/1/141 306/1/142 308/1/142
f 309/1/144 303/1/140 307/1/143
f 310/1/145 308/1/142 306/1/142
f 303/1/140 309/1/144 311/1/144
f 308/1/142 310/1/145 312/1/146
f 313/1/147 311/1/144 309/1/144
f 310/1/145 313/1/147 312/1/146
f 311/1/144 313/1/147 314/1/148
f 313/1/147 310/1/145 314/1/148
f 315/1/149 316/1/150 317/1/151
f 316/1/150 318/1/152 317/1/151
f 315/1/149 317/1/151 319/1/153
f 318/1/152 316/1/150 320/1/154
f 319/1/153 321/1/155 315/1/149
f 320/1/154 322/1/156 318/1/152
f 321/1/155 319/1/153 323/1/157
f 320/1/154 324/1/158 322/1/156
f 325/1/159 321/1/155 323/1/157
f 324/1/158 326/1/160 322/1/156
f 325/1/159 323/1/157 327/1/161
f 326/1/160 324/1/158 328/1/162
f 329/1/163 325/1/159 327/1/161
f 328/1/162 329/1/163 326/1/160
f 325/1/159 329/1/163 330/1/164
f 328/1/162 330/1/164 329/1/163
f 331/1/165 332/1/166 333/1/167
f 333/1/167 332/1/166 334/1/168
f 332/1/166 331/1/165 335/1/169
f 336/1/170 333/1/167 334/1/168
f 331/1/165 337/1/171 335/1/169
f 338/1/172 336/1/170 334/1/168
f 337/1/171 331/1/165 339/1/173
f 336/1/170 338/1/172 340/1/174
f 341/1/175 337/1/171 339/1/173
f 338/1/172 342/1/176 340/1/174
f 337/1/171 341/1/175 343/1/177
f 340/1/174 342/1/176 344/1/178
f 345/1/179 343/1/177 341/1/175
f 346/1/180 344/1/178 342/1/176
f 343/1/177 345/1/179 346/1/180
f 344/1/178 346/1/180 345/1/179
f 347/1/93 348/1/93 349/1/93
f 348/1/93 347/1/93 350/1/93
f 351/1/93 349/1/93 348/1/93
f 349/1/93 351/1/93 352/1/93
f 353/1/94 354/1/94 355/1/94
f 354/1/94 353/1/94 356/1/94
f 357/1/94 354/1/94 356/1/94
f 357/1/94 356/1/94 358/1/94
f 359/1/94 360/1/94 361/1/94
f 362/1/94 361/1/94 360/1/94
f 359/1/94 361/1/94 363/1/94
f 360/1/94 364/1/94 362/1/94
f 363/1/94 365/1/94 359/1/94
f 364/1/94 360/1/94 366/1/94
f 366/1/94 367/1/94 364/1/94
f 367/1/94 366/1/94 368/1/94
f 369/1/94 359/1/94 365/1/94
f 369/1/94 365/1/94 370/1/94
f 370/1/94 371/1/94 369/1/94
f 372/1/94 369/1/94 371/1/94
f 371/1/94 373/1/94 372/1/94
f 374/1/93 375/1/93 376/1/93
f 375/1/93 377/1/93 376/1/93
f 375/1/93 374/1/93 378/1/93
f 379/1/93 376/1/93 377/1/93
f 380/1/93 378/1/93 374/1/93
f 381/1/93 380/1/93 374/1/93
f 380/1/93 381/1/93 382/1/93
f 383/1/93 376/1/93 379/1/93
f 379/1/93 384/1/93 383/1/93
f 385/1/93 383/1/93 384/1/93
f 383/1/93 385/1/93 386/1/93
f 387/1/93 386/1/93 385/1/93
f 386/1/93 387/1/93 388/1/93
f 389/1/93 390/1/93 391/1/93
f 392/1/93 391/1/93 390/1/93
f 393/1/93 392/1/93 390/1/93
f 392/1/93 393/1/93 394/1/93
f 395/1/93 394/1/93 393/1/93
f 395/1/93 393/1/93 396/1/93
f 396/1/93 397/1/93 395/1/93
f 397/1/93 396/1/93 398/1/131
f 399/1/94 400/1/94 401/1/94
f 401/1/94 402/1/94 399/1/94
f 401/1/94 400/1/94 403/1/94
f 404/1/94 403/1/94 400/1/94
f 403/1/94 404/1/94 405/1/181
f 402/1/94 401/1/94 406/1/94
f 407/1/94 402/1/94 406/1/94
f 407/1/94 406/1/94 408/1/94
f 409/1/93 410/1/93 411/1/93
f 410/1/93 409/1/93 412/1/93
f 413/1/94 414/1/94 415/1/94
f 414/1/94 413/1/94 416/1/181
f 417/1/182 418/1/183 419/1/183
f 417/1/182 419/1/183 420/1/182
f 421/1/184 422/1/185 423/1/185
f 422/1/185 421/1/184 424/1/184
f 425/1/186 426/1/186 427/1/187
f 426/1/186 425/1/186 428/1/186
f 429/1/188 430/1/189 431/1/189
f 429/1/188 431/1/189 432/1/188
f 433/1/190 434/1/190 435/1/191
f 433/1/190 435/1/191 436/1/191
f 437/1/192 438/1/192 439/1/193
f 439/1/193 440/1/194 437/1/192
f 441/1/195 442/1/195 443/1/196
f 442/1/195 441/1/195 444/1/195
f 445/1/197 446/1/197 447/1/197
f 446/1/197 445/1/197 448/1/197
f 449/1/198 450/1/199 451/1/199
f 449/1/198 451/1/199 452/1/200
f 453/1/201 454/1/202 455/1/202
f 454/1/202 456/1/201 455/1/202
f 457/1/203 458/1/203 459/1/203
f 459/1/203 460/1/203 457/1/203
f 461/1/204 462/1/204 463/1/204
f 462/1/204 461/1/204 464/1/204
f 465/1/205 466/1/205 467/1/206
f 466/1/205 465/1/205 468/1/205
f 469/1/207 470/1/208 471/1/209
f 471/1/209 472/1/210 469/1/207
f 473/1/211 474/1/212 475/1/213
f 474/1/212 473/1/211 476/1/214
f 477/1/215 478/1/215 479/1/215
f 477/1/215 479/1/215 480/1/215
f 481/1/216 482/1/216 483/1/216
f 482/1/216 481/1/216 484/1/216
f 485/1/217 486/1/217 487/1/217
f 486/1/217 485/1/217 488/1/217
f 489/1/218 490/1/218 491/1/218
f 491/1/218 492/1/218 489/1/218
f 493/1/219 494/1/220 495/1/219
f 493/1/219 495/1/219 496/1/220
f 497/1/221 498/1/222 499/1/223
f 500/1/221 499/1/223 498/1/222
f 501/1/224 502/1/224 503/1/224
f 502/1/224 501/1/224 504/1/224
f 505/1/225 506/1/225 507/1/225
f 505/1/225 507/1/225 508/1/225
f 509/1/226 510/1/226 511/1/193
f 512/1/226 511/1/193 510/1/226
f 513/1/227 514/1/228 515/1/229
f 516/1/230 515/1/229 514/1/228
f 517/1/231 518/1/232 519/1/231
f 518/1/232 517/1/231 520/1/231
f 521/1/233 522/1/233 523/1/234
f 521/1/233 523/1/234 524/1/233
f 525/1/235 526/1/236 527/1/237
f 528/1/235 527/1/237 526/1/236
f 529/1/238 530/1/239 531/1/240
f 532/1/241 531/1/240 530/1/239
f 533/1/194 534/1/194 535/1/242
f 534/1/194 533/1/194 536/1/226
f 537/1/215 538/1/215 539/1/215
f 537/1/215 539/1/215 540/1/215
f 541/1/216 542/1/216 543/1/216
f 542/1/216 541/1/216 544/1/216
f 545/1/243 546/1/244 547/1/243
f 546/1/244 545/1/243 548/1/245
f 549/1/246 550/1/247 551/1/246
f 549/1/246 551/1/246 552/1/246
f 553/1/248 554/1/249 555/1/248
f 556/1/250 555/1/248 554/1/249
f 555/1/248 557/1/251 553/1/248
f 554/1/249 558/1/252 556/1/250
f 559/1/251 553/1/248 557/1/251
f 560/1/252 556/1/250 558/1/252
f 557/1/251 561/1/253 559/1/251
f 558/1/252 562/1/254 560/1/252
f 563/1/255 559/1/251 561/1/253
f 564/1/254 560/1/252 562/1/254
f 562/1/254 563/1/255 564/1/254
f 561/1/253 564/1/254 563/1/255
f 565/1/193 566/1/256 567/1/226
f 566/1/256 565/1/193 568/1/226
f 569/1/257 570/1/258 571/1/257
f 570/1/258 569/1/257 572/1/257
