# Blender 5.1.1
# www.blender.org
mtllib keybowbottom3.mtl
o 124911318777461
v 0.655598 -0.032505 -2.262837
v 0.751252 0.032505 -2.109823
v 0.751252 -0.032505 -2.109823
v 0.655598 0.032505 -2.262837
v 0.638589 -0.065353 -2.238407
v 0.751252 -0.032505 -2.109823
v 0.721934 -0.065353 -2.105084
v 0.655598 -0.032505 -2.262837
v 0.751252 0.032505 -2.109823
v 0.655598 0.032505 -2.262837
v 0.638589 0.065352 -2.238407
v 0.721934 0.065352 -2.105084
v 0.443263 0.032505 -2.306823
v 0.655598 0.032505 -2.262837
v 0.443263 -0.032505 -2.306823
v 0.655598 -0.032505 -2.262837
v 0.751252 0.032505 -2.109823
v 0.699176 0.032505 -1.895283
v 0.751252 -0.032505 -2.109823
v 0.699176 -0.032505 -1.895283
v 0.638589 -0.065353 -2.238407
v 0.447112 -0.065353 -2.278070
v 0.443263 -0.032505 -2.306823
v 0.655598 -0.032505 -2.262837
v 0.443263 0.032505 -2.306823
v 0.638589 0.065352 -2.238407
v 0.655598 0.032505 -2.262837
v 0.447112 0.065352 -2.278070
v 0.751252 0.032505 -2.109823
v 0.675361 0.065352 -1.913209
v 0.699176 0.032505 -1.895283
v 0.721934 0.065352 -2.105084
v 0.675361 -0.065353 -1.913209
v 0.721934 -0.065353 -2.105084
v 0.751252 -0.032505 -2.109823
v 0.699176 -0.032505 -1.895283
v -0.961683 -0.038744 -1.354741
v -0.814982 0.038744 -1.815107
v -0.814982 -0.038744 -1.815107
v -0.961683 0.038744 -1.354741
v 0.351818 -0.032505 -1.975246
v 0.573771 0.032505 -1.925722
v 0.573771 -0.032505 -1.925722
v 0.351818 0.032505 -1.975246
v 0.092781 0.065038 -2.028010
v 0.092781 -0.065039 -2.028010
v 0.025096 -0.065039 -2.044440
v 0.025096 0.065038 -2.044440
v 0.092781 -0.065039 -2.028010
v 0.255728 0.065038 -1.760604
v 0.255728 -0.065039 -1.760604
v 0.092781 0.065038 -2.028010
v -0.596281 -0.038744 -1.078423
v -0.961683 0.038744 -1.354741
v -0.961683 -0.038744 -1.354741
v -0.596281 0.038744 -1.078423
v 0.389835 -0.032505 -2.189993
v 0.309027 0.032505 -1.857087
v 0.309027 -0.032505 -1.857087
v 0.389835 0.032505 -2.189993
v 0.573771 0.032505 -1.925722
v 0.351818 0.032505 -1.975246
v 0.371962 0.065352 -1.942190
v 0.593913 0.065352 -1.892666
v 0.371962 -0.065353 -1.942190
v 0.573771 -0.032505 -1.925722
v 0.593913 -0.065353 -1.892666
v 0.351818 -0.032505 -1.975246
v 0.255728 -0.065039 -1.760604
v 0.239298 0.065038 -1.692918
v 0.239298 -0.065039 -1.692918
v 0.255728 0.065038 -1.760604
v -1.046876 0.036696 -0.927019
v -0.859241 -0.036697 -1.314260
v -1.046876 -0.036697 -0.927019
v -0.859241 0.036696 -1.314260
v -0.961683 0.038744 -1.354741
v -0.794193 0.063568 -1.785470
v -0.814982 0.038744 -1.815107
v -0.925759 0.063568 -1.364000
v -0.961683 -0.038744 -1.354741
v -0.814982 -0.038744 -1.815107
v -0.794193 -0.063568 -1.785470
v -0.925759 -0.063568 -1.364000
v 0.389835 0.032505 -2.189993
v 0.285044 0.065352 -1.874322
v 0.309027 0.032505 -1.857087
v 0.369497 0.065352 -2.222252
v 0.285044 -0.065353 -1.874322
v 0.369497 -0.065353 -2.222252
v 0.389835 -0.032505 -2.189993
v 0.309027 -0.032505 -1.857087
v 0.253271 -0.032505 -2.210228
v 0.443263 0.032505 -2.306823
v 0.443263 -0.032505 -2.306823
v 0.253271 0.032505 -2.210228
v -0.961683 -0.038744 -1.354741
v -0.607702 -0.063568 -1.127170
v -0.596281 -0.038744 -1.078423
v -0.925759 -0.063568 -1.364000
v -0.961683 0.038744 -1.354741
v -0.607702 0.063568 -1.127170
v -0.925759 0.063568 -1.364000
v -0.596281 0.038744 -1.078423
v -0.841599 -0.061892 -1.300335
v -1.024407 -0.061892 -0.927601
v -1.046876 -0.036697 -0.927019
v -0.859241 -0.036697 -1.314260
v -1.046876 0.036696 -0.927019
v -0.841599 0.061894 -1.300335
v -0.859241 0.036696 -1.314260
v -1.024407 0.061894 -0.927601
v -0.814982 -0.038744 -1.815107
v -0.573980 0.038744 -1.820814
v -0.573980 -0.038744 -1.820814
v -0.814982 0.038744 -1.815107
v 0.276899 -0.065353 -2.191534
v 0.443263 -0.032505 -2.306823
v 0.447112 -0.065353 -2.278070
v 0.253271 -0.032505 -2.210228
v 0.443263 0.032505 -2.306823
v 0.253271 0.032505 -2.210228
v 0.276899 0.065352 -2.191534
v 0.447112 0.065352 -2.278070
v -0.125138 -0.065039 -1.952895
v -0.125138 0.065038 -1.952895
v 0.025096 -0.065039 -2.044440
v 0.025096 0.065038 -2.044440
v -0.551689 -0.038320 -1.523823
v -0.824079 -0.038320 -0.852874
v -0.824079 0.038320 -0.852874
v -0.551689 0.038320 -1.523823
v -0.573980 0.038744 -1.820814
v -0.814982 0.038744 -1.815107
v -0.794193 0.063568 -1.785470
v -0.589630 0.063568 -1.790314
v -0.573980 -0.038744 -1.820814
v -0.794193 -0.063568 -1.785470
v -0.814982 -0.038744 -1.815107
v -0.589630 -0.063568 -1.790314
v -0.501523 0.038744 -1.427886
v -0.623923 -0.038744 -1.644665
v -0.501523 -0.038744 -1.427886
v -0.623923 0.038744 -1.644665
v -0.623923 -0.038744 -1.644665
v -0.491188 -0.063568 -1.466619
v -0.501523 -0.038744 -1.427886
v -0.608087 -0.063568 -1.675168
v -0.491188 0.063568 -1.466619
v -0.608087 0.063568 -1.675168
v -0.623923 0.038744 -1.644665
v -0.501523 0.038744 -1.427886
v -0.551689 0.038320 -1.523823
v -0.058873 0.038320 -1.873671
v -0.551689 -0.038320 -1.523823
v -0.058873 -0.038320 -1.873671
v 0.203177 -0.032505 -2.003852
v 0.027894 -0.032505 -1.893647
v 0.027894 0.032505 -1.893647
v 0.203177 0.032505 -2.003852
v 0.699176 0.032505 -1.895283
v 0.545039 0.032505 -1.807356
v 0.699176 -0.032505 -1.895283
v 0.545039 -0.032505 -1.807356
v 0.203177 0.032505 -2.003852
v 0.027894 0.032505 -1.893647
v 0.062894 0.065352 -1.884659
v 0.227328 0.065352 -1.987312
v 0.062894 -0.065353 -1.884659
v 0.203177 -0.032505 -2.003852
v 0.227328 -0.065353 -1.987312
v 0.027894 -0.032505 -1.893647
v 0.675361 -0.065353 -1.913209
v 0.545039 -0.032505 -1.807356
v 0.540925 -0.065353 -1.836521
v 0.699176 -0.032505 -1.895283
v 0.545039 0.032505 -1.807356
v 0.699176 0.032505 -1.895283
v 0.675361 0.065352 -1.913209
v 0.540925 0.065352 -1.836521
v -0.824079 -0.038320 -0.852874
v -0.526185 -0.070479 -1.500565
v -0.783275 -0.070479 -0.842683
v -0.551689 -0.038320 -1.523823
v -0.058873 -0.038320 -1.873671
v -0.044241 -0.070479 -1.839735
v -0.824079 0.038320 -0.852874
v -0.526185 0.070479 -1.500565
v -0.551689 0.038320 -1.523823
v -0.783275 0.070479 -0.842683
v -0.058873 0.038320 -1.873671
v -0.044241 0.070479 -1.839735
v 0.089065 -0.065039 -1.601373
v 0.239298 -0.065039 -1.692918
v 0.239298 0.065038 -1.692918
v 0.089065 0.065038 -1.601373
v -0.847214 0.096521 -0.953703
v -1.055809 0.096521 -0.953703
v -1.003660 0.096521 -0.863379
v -0.899364 0.096521 -0.863379
v -1.055809 0.096521 -0.773055
v -0.847214 0.096521 -0.773055
v -1.160106 0.096521 -0.773055
v -0.742917 0.096521 -0.773055
v -1.055809 0.096521 -0.592406
v -0.847214 0.096521 -0.592406
v -1.003660 0.096521 -0.682730
v -0.899364 0.096521 -0.682730
v -0.847214 -0.096522 -0.953703
v -0.742917 -0.096522 -0.773055
v -0.847214 -0.096522 -0.773055
v -0.847214 -0.096522 -0.592406
v -0.899364 -0.096522 -0.863379
v -0.899364 -0.096522 -0.682730
v -1.055809 -0.096522 -0.953703
v -1.003660 -0.096522 -0.682730
v -1.003660 -0.096522 -0.863379
v -1.055809 -0.096522 -0.592406
v -1.055809 -0.096522 -0.773055
v -1.160106 -0.096522 -0.773055
v -1.055809 -0.096522 -0.773055
v -1.003660 -0.096522 -0.863379
v -0.991459 -0.079647 -0.842246
v -1.031407 -0.079647 -0.773055
v -0.911564 -0.079647 -0.842246
v -0.991459 -0.079647 -0.703863
v -0.899364 -0.096522 -0.863379
v -1.003660 -0.096522 -0.682730
v -0.847214 -0.096522 -0.773055
v -0.899364 -0.096522 -0.682730
v -0.871616 -0.079647 -0.773055
v -0.911564 -0.079647 -0.703863
v -0.847214 0.096521 -0.773055
v -0.911564 0.079647 -0.703863
v -0.899364 0.096521 -0.682730
v -1.003660 0.096521 -0.682730
v -0.871616 0.079647 -0.773055
v -0.991459 0.079647 -0.703863
v -0.911564 0.079647 -0.842246
v -1.055809 0.096521 -0.773055
v -0.899364 0.096521 -0.863379
v -1.031407 0.079647 -0.773055
v -0.991459 0.079647 -0.842246
v -1.003660 0.096521 -0.863379
v -0.635335 0.070479 -0.811136
v -0.369812 0.038320 -1.350183
v -0.394675 0.070479 -1.373055
v -0.599764 0.038320 -0.806765
v -0.001425 0.070479 -1.718692
v 0.028532 0.038320 -1.695505
v -0.635335 -0.070479 -0.811136
v -0.369812 -0.038320 -1.350183
v -0.599764 -0.038320 -0.806765
v -0.394675 -0.070479 -1.373055
v -0.001425 -0.070479 -1.718692
v 0.028532 -0.038320 -1.695505
v -0.599764 -0.038320 -0.806765
v -0.369812 -0.038320 -1.350183
v -0.369812 0.038320 -1.350183
v -0.599764 0.038320 -0.806765
v 0.028532 -0.038320 -1.695505
v 0.028532 0.038320 -1.695505
v -0.104918 0.080681 -1.876193
v 0.219081 0.080681 -1.769618
v 0.083991 0.080681 -1.991309
v 0.016081 0.080681 -2.007792
v -0.088435 0.080681 -1.944106
v 0.030170 0.080681 -1.654505
v 0.202596 0.080681 -1.701708
v 0.098080 0.080681 -1.638020
v 0.030170 -0.080682 -1.654505
v 0.202596 -0.080682 -1.701708
v 0.098080 -0.080682 -1.638020
v 0.219081 -0.080682 -1.769618
v -0.104918 -0.080682 -1.876193
v 0.083991 -0.080682 -1.991309
v 0.016081 -0.080682 -2.007792
v -0.088435 -0.080682 -1.944106
v -0.911564 0.079647 -0.703863
v -0.911564 0.079647 -0.842246
v -0.991459 0.079647 -0.842246
v -0.871616 0.079647 -0.773055
v -0.991459 0.079647 -0.703863
v -1.031407 0.079647 -0.773055
v -0.911564 -0.079647 -0.842246
v -0.911564 -0.079647 -0.703863
v -0.991459 -0.079647 -0.842246
v -0.871616 -0.079647 -0.773055
v -0.991459 -0.079647 -0.703863
v -1.031407 -0.079647 -0.773055
v -1.055809 -0.096522 -0.592406
v -1.194700 -0.056886 -0.773055
v -1.160106 -0.096522 -0.773055
v -1.055809 -0.096522 -0.953703
v -1.073106 -0.056886 -0.562448
v -1.073106 -0.056886 -0.983662
v -0.829919 -0.056886 -0.562448
v -0.847214 -0.096522 -0.953703
v -0.847214 -0.096522 -0.592406
v -0.829917 -0.056886 -0.983662
v -0.708323 -0.056886 -0.773055
v -0.742917 -0.096522 -0.773055
v -1.194700 0.056886 -0.773055
v -1.073106 0.056886 -0.562448
v -1.055809 0.096521 -0.592406
v -0.829919 0.056886 -0.562448
v -1.160106 0.096521 -0.773055
v -0.847214 0.096521 -0.592406
v -1.055809 0.096521 -0.953703
v -0.708323 0.056886 -0.773055
v -1.073106 0.056886 -0.983662
v -0.742917 0.096521 -0.773055
v -0.847214 0.096521 -0.953703
v -0.829917 0.056886 -0.983662
v 0.021380 -0.065039 -1.617802
v -0.141566 -0.065039 -1.885209
v -0.104918 -0.080682 -1.876193
v -0.088435 -0.080682 -1.944106
v 0.030170 -0.080682 -1.654505
v -0.125138 -0.065039 -1.952895
v 0.089065 -0.065039 -1.601373
v 0.016081 -0.080682 -2.007792
v 0.098080 -0.080682 -1.638020
v 0.025096 -0.065039 -2.044440
v 0.239298 -0.065039 -1.692918
v 0.083991 -0.080682 -1.991309
v 0.202596 -0.080682 -1.701708
v 0.092781 -0.065039 -2.028010
v 0.219081 -0.080682 -1.769618
v 0.255728 -0.065039 -1.760604
v 0.239298 0.065038 -1.692918
v 0.098080 0.080681 -1.638020
v 0.089065 0.065038 -1.601373
v 0.030170 0.080681 -1.654505
v 0.202596 0.080681 -1.701708
v 0.021380 0.065038 -1.617802
v 0.219081 0.080681 -1.769618
v -0.104918 0.080681 -1.876193
v 0.255728 0.065038 -1.760604
v -0.141566 0.065038 -1.885209
v 0.092781 0.065038 -2.028010
v -0.088435 0.080681 -1.944106
v 0.083991 0.080681 -1.991309
v -0.125138 0.065038 -1.952895
v 0.025096 0.065038 -2.044440
v 0.016081 0.080681 -2.007792
v -0.783275 0.070479 -0.842683
v -0.394675 0.070479 -1.373055
v -0.526185 0.070479 -1.500565
v -0.635335 0.070479 -0.811136
v -0.001425 0.070479 -1.718692
v -0.044241 0.070479 -1.839735
v -0.001425 -0.070479 -1.718692
v -0.526185 -0.070479 -1.500565
v -0.044241 -0.070479 -1.839735
v -0.394675 -0.070479 -1.373055
v -0.783275 -0.070479 -0.842683
v -0.635335 -0.070479 -0.811136
v 0.659101 -0.065353 -2.161229
v 0.369497 -0.065353 -2.222252
v 0.447112 -0.065353 -2.278070
v 0.276899 -0.065353 -2.191534
v 0.638589 -0.065353 -2.238407
v 0.227328 -0.065353 -1.987312
v 0.721934 -0.065353 -2.105084
v 0.285044 -0.065353 -1.874322
v 0.062894 -0.065353 -1.884659
v 0.112053 -0.065353 -1.785441
v 0.593913 -0.065353 -1.892666
v 0.675361 -0.065353 -1.913209
v 0.540925 -0.065353 -1.836521
v 0.371962 -0.065353 -1.942190
v 0.356143 -0.065353 -1.877023
v 0.593913 0.065352 -1.892666
v 0.721934 0.065352 -2.105084
v 0.659101 0.065352 -2.161229
v 0.638589 0.065352 -2.238407
v 0.675361 0.065352 -1.913209
v 0.447112 0.065352 -2.278070
v 0.540925 0.065352 -1.836521
v 0.371962 0.065352 -1.942190
v 0.356143 0.065352 -1.877023
v 0.369497 0.065352 -2.222252
v 0.276899 0.065352 -2.191534
v 0.227328 0.065352 -1.987312
v 0.285044 0.065352 -1.874322
v 0.062894 0.065352 -1.884659
v 0.112053 0.065352 -1.785441
v -0.564258 0.063568 -1.225670
v -0.826259 0.063568 -1.403284
v -0.607702 0.063568 -1.127170
v -0.925759 0.063568 -1.364000
v -0.732037 0.063568 -1.672233
v -0.794193 0.063568 -1.785470
v -0.589630 0.063568 -1.790314
v -0.608087 0.063568 -1.675168
v -0.417165 0.063568 -1.503296
v -0.491188 0.063568 -1.466619
v -0.794193 -0.063568 -1.785470
v -0.589630 -0.063568 -1.790314
v -0.732037 -0.063568 -1.672233
v -0.925759 -0.063568 -1.364000
v -0.608087 -0.063568 -1.675168
v -0.417165 -0.063568 -1.503296
v -0.491188 -0.063568 -1.466619
v -0.826259 -0.063568 -1.403284
v -0.607702 -0.063568 -1.127170
v -0.564258 -0.063568 -1.225670
v -0.920962 0.061894 -0.930273
v -0.841599 0.061894 -1.300335
v -1.024407 0.061894 -0.927601
v -0.760374 0.061894 -1.236220
v -0.920962 -0.061892 -0.930273
v -0.841599 -0.061892 -1.300335
v -0.760374 -0.061892 -1.236220
v -1.024407 -0.061892 -0.927601
v 0.100993 0.032505 -1.746106
v 0.309027 0.032505 -1.857087
v 0.285044 0.065352 -1.874322
v 0.112053 0.065352 -1.785441
v 0.285044 -0.065353 -1.874322
v 0.100993 -0.032505 -1.746106
v 0.112053 -0.065353 -1.785441
v 0.309027 -0.032505 -1.857087
v -0.573980 0.038744 -1.820814
v -0.417165 0.063568 -1.503296
v -0.372770 0.038744 -1.491677
v -0.589630 0.063568 -1.790314
v -0.417165 -0.063568 -1.503296
v -0.589630 -0.063568 -1.790314
v -0.573980 -0.038744 -1.820814
v -0.372770 -0.038744 -1.491677
v 0.100993 -0.032505 -1.746106
v 0.309027 -0.032505 -1.857087
v 0.309027 0.032505 -1.857087
v 0.100993 0.032505 -1.746106
v -0.125138 0.065038 -1.952895
v -0.125138 -0.065039 -1.952895
v -0.141566 -0.065039 -1.885209
v -0.141566 0.065038 -1.885209
v -0.608087 0.063568 -1.675168
v -0.712714 0.038744 -1.642562
v -0.623923 0.038744 -1.644665
v -0.732037 0.063568 -1.672233
v -0.608087 -0.063568 -1.675168
v -0.712714 -0.038744 -1.642562
v -0.732037 -0.063568 -1.672233
v -0.623923 -0.038744 -1.644665
v -0.372770 -0.038744 -1.491677
v -0.573980 -0.038744 -1.820814
v -0.573980 0.038744 -1.820814
v -0.372770 0.038744 -1.491677
v -0.712714 -0.038744 -1.642562
v -0.623923 -0.038744 -1.644665
v -0.712714 0.038744 -1.642562
v -0.623923 0.038744 -1.644665
v 0.021380 0.065038 -1.617802
v 0.021380 -0.065039 -1.617802
v 0.089065 -0.065039 -1.601373
v 0.089065 0.065038 -1.601373
v -0.742731 0.036696 -1.222293
v -0.920962 0.061894 -0.930273
v -0.898493 0.036696 -0.930853
v -0.760374 0.061894 -1.236220
v -0.742731 -0.036697 -1.222293
v -0.920962 -0.061892 -0.930273
v -0.760374 -0.061892 -1.236220
v -0.898493 -0.036697 -0.930853
v -0.564258 -0.063568 -1.225670
v -0.826259 -0.063568 -1.403284
v -0.788715 -0.038744 -1.412316
v -0.527192 -0.038744 -1.235070
v -0.788715 0.038744 -1.412316
v -0.564258 0.063568 -1.225670
v -0.527192 0.038744 -1.235070
v -0.826259 0.063568 -1.403284
v 0.276899 -0.065353 -2.191534
v 0.227328 -0.065353 -1.987312
v 0.203177 -0.032505 -2.003852
v 0.253271 -0.032505 -2.210228
v 0.203177 0.032505 -2.003852
v 0.276899 0.065352 -2.191534
v 0.253271 0.032505 -2.210228
v 0.227328 0.065352 -1.987312
v -0.826259 0.063568 -1.403284
v -0.712714 0.038744 -1.642562
v -0.732037 0.063568 -1.672233
v -0.788715 0.038744 -1.412316
v -0.826259 -0.063568 -1.403284
v -0.732037 -0.063568 -1.672233
v -0.712714 -0.038744 -1.642562
v -0.788715 -0.038744 -1.412316
v -0.898493 -0.036697 -0.930853
v -0.742731 -0.036697 -1.222293
v -0.742731 0.036696 -1.222293
v -0.898493 0.036696 -0.930853
v 0.021380 0.065038 -1.617802
v -0.141566 0.065038 -1.885209
v 0.021380 -0.065039 -1.617802
v -0.141566 -0.065039 -1.885209
v 0.545039 0.032505 -1.807356
v 0.356143 0.065352 -1.877023
v 0.323086 0.032505 -1.856879
v 0.540925 0.065352 -1.836521
v 0.356143 -0.065353 -1.877023
v 0.540925 -0.065353 -1.836521
v 0.545039 -0.032505 -1.807356
v 0.323086 -0.032505 -1.856879
v 0.203177 0.032505 -2.003852
v 0.253271 0.032505 -2.210228
v 0.203177 -0.032505 -2.003852
v 0.253271 -0.032505 -2.210228
v -0.788715 0.038744 -1.412316
v -0.527192 0.038744 -1.235070
v -0.788715 -0.038744 -1.412316
v -0.527192 -0.038744 -1.235070
v 0.323086 0.032505 -1.856879
v 0.371962 0.065352 -1.942190
v 0.351818 0.032505 -1.975246
v 0.356143 0.065352 -1.877023
v 0.323086 -0.032505 -1.856879
v 0.351818 -0.032505 -1.975246
v 0.371962 -0.065353 -1.942190
v 0.356143 -0.065353 -1.877023
v -0.712714 0.038744 -1.642562
v -0.788715 0.038744 -1.412316
v -0.712714 -0.038744 -1.642562
v -0.788715 -0.038744 -1.412316
v 0.545039 0.032505 -1.807356
v 0.323086 0.032505 -1.856879
v 0.545039 -0.032505 -1.807356
v 0.323086 -0.032505 -1.856879
v 0.323086 -0.032505 -1.856879
v 0.351818 0.032505 -1.975246
v 0.351818 -0.032505 -1.975246
v 0.323086 0.032505 -1.856879
v 0.659101 -0.065353 -2.161229
v 0.593913 -0.065353 -1.892666
v 0.573771 -0.032505 -1.925722
v 0.625846 -0.032505 -2.140262
v 0.573771 0.032505 -1.925722
v 0.659101 0.065352 -2.161229
v 0.625846 0.032505 -2.140262
v 0.593913 0.065352 -1.892666
v 0.369497 0.065352 -2.222252
v 0.625846 0.032505 -2.140262
v 0.659101 0.065352 -2.161229
v 0.389835 0.032505 -2.189993
v 0.369497 -0.065353 -2.222252
v 0.659101 -0.065353 -2.161229
v 0.625846 -0.032505 -2.140262
v 0.389835 -0.032505 -2.189993
v -0.829919 0.056886 -0.562448
v -1.073106 0.056886 -0.562448
v -0.829919 -0.056886 -0.562448
v -1.073106 -0.056886 -0.562448
v -0.708323 -0.056886 -0.773055
v -1.194700 0.056886 -0.773055
v -0.708323 0.056886 -0.773055
v -1.194700 -0.056886 -0.773055
v -0.829917 -0.056886 -0.983662
v -1.073106 0.056886 -0.983662
v -0.829917 0.056886 -0.983662
v -1.073106 -0.056886 -0.983662
v 0.573771 -0.032505 -1.925722
v 0.625846 0.032505 -2.140262
v 0.625846 -0.032505 -2.140262
v 0.573771 0.032505 -1.925722
v 0.625846 -0.032505 -2.140262
v 0.389835 0.032505 -2.189993
v 0.389835 -0.032505 -2.189993
v 0.625846 0.032505 -2.140262
vn 0.847800 0.000300 -0.530200
vn 0.847800 0.000400 -0.530300
vn 0.847900 0.000000 -0.530100
vn 0.651400 -0.640200 -0.407200
vn 0.651400 0.640200 -0.407200
vn 0.202800 0.000000 -0.979200
vn 0.202800 0.000500 -0.979200
vn 0.202800 0.000300 -0.979200
vn 0.971800 0.000000 0.235900
vn 0.971800 0.000300 0.235800
vn 0.155800 -0.640200 -0.752300
vn 0.155800 -0.640200 -0.752200
vn 0.155800 0.640200 -0.752200
vn 0.155800 0.640200 -0.752300
vn 0.746500 0.640200 0.181200
vn 0.746600 0.640200 0.181200
vn 0.746600 -0.640200 0.181200
vn 0.746500 -0.640200 0.181200
vn 0.746600 -0.640200 0.180900
vn -0.952800 0.000000 -0.303600
vn -0.952800 0.000300 -0.303600
vn 0.217600 0.000300 -0.976000
vn 0.217500 0.000400 -0.976100
vn 0.235900 0.000000 -0.971800
vn 0.853900 0.000000 -0.520400
vn 0.853800 0.000300 -0.520700
vn -0.603200 0.000000 0.797600
vn -0.603300 0.000300 0.797500
vn 0.971800 0.000300 0.235700
vn 0.166000 0.647100 -0.744100
vn 0.165600 0.647200 -0.744200
vn 0.166000 -0.647100 -0.744100
vn 0.165600 -0.647200 -0.744200
vn 0.971800 0.000500 0.235700
vn 0.971800 0.000700 0.235700
vn -0.899900 0.000300 -0.436200
vn -0.899800 0.000400 -0.436300
vn -0.606500 0.771700 -0.191400
vn -0.606500 -0.771700 -0.191400
vn 0.746700 0.640200 0.180700
vn 0.746700 -0.640200 0.180700
vn -0.452800 0.000500 -0.891600
vn -0.452900 0.000400 -0.891600
vn -0.452900 0.000300 -0.891600
vn -0.452800 0.000400 -0.891600
vn -0.378600 -0.776100 0.504300
vn -0.378500 -0.776200 0.504300
vn -0.378500 -0.776100 0.504300
vn -0.378500 0.776200 0.504300
vn -0.378600 0.776100 0.504300
vn -0.378500 0.776100 0.504300
vn -0.691200 -0.639400 -0.336800
vn -0.691200 0.639400 -0.336800
vn -0.024000 0.000600 -0.999700
vn -0.023700 0.000000 -0.999700
vn -0.023800 0.000300 -0.999700
vn -0.348200 -0.640200 -0.684800
vn -0.348100 -0.640200 -0.684800
vn -0.348100 0.640200 -0.684800
vn -0.348200 0.640200 -0.684800
vn -0.520400 0.000000 -0.854000
vn -0.926600 0.000000 -0.376200
vn -0.015100 0.771700 -0.635800
vn -0.015100 -0.771700 -0.635800
vn -0.870900 0.000400 0.491500
vn -0.870800 0.000600 0.491600
vn -0.870800 0.000000 0.491700
vn -0.573900 -0.752700 0.322600
vn -0.573900 0.752700 0.322600
vn -0.578900 0.000000 -0.815400
vn -0.578700 0.000500 -0.815500
vn -0.532300 0.000000 -0.846600
vn -0.531900 0.000400 -0.846800
vn 0.495700 0.000500 0.868500
vn 0.495500 0.000000 0.868600
vn -0.413000 0.628000 -0.659600
vn -0.413000 -0.628000 -0.659600
vn 0.380000 -0.640400 0.667400
vn 0.380700 -0.640200 0.667300
vn 0.380200 -0.640400 0.667400
vn 0.380700 0.640200 0.667300
vn -0.609200 -0.754800 -0.243100
vn -0.512500 -0.759600 -0.400400
vn -0.505600 -0.758600 -0.411100
vn -0.391400 -0.735500 -0.553000
vn -0.609200 0.754800 -0.243100
vn -0.512500 0.759600 -0.400400
vn -0.505600 0.758500 -0.411100
vn -0.391400 0.735500 -0.553000
vn -0.391500 0.735500 -0.553000
vn 0.520200 0.000500 0.854000
vn 0.520400 0.000000 0.853900
vn -0.000000 1.000000 -0.000000
vn -0.000000 -1.000000 -0.000000
vn 0.569100 -0.822200 0.000200
vn 0.284700 -0.822400 0.492600
vn 0.284800 -0.822300 0.492700
vn 0.569200 -0.822200 0.000200
vn -0.284400 -0.822500 0.492600
vn 0.284400 -0.822500 -0.492600
vn -0.284700 -0.822300 0.492700
vn -0.568800 -0.822500 -0.000000
vn -0.285000 -0.822400 -0.492300
vn -0.569200 -0.822200 0.000200
vn -0.284700 -0.822500 -0.492500
vn -0.569100 0.822200 0.000200
vn -0.284400 0.822500 -0.492600
vn -0.284700 0.822400 -0.492500
vn 0.284400 0.822500 -0.492600
vn -0.569200 0.822200 0.000200
vn 0.284700 0.822400 -0.492500
vn -0.284400 0.822500 0.492600
vn 0.568800 0.822500 -0.000000
vn 0.569200 0.822200 0.000200
vn 0.284800 0.822300 0.492700
vn 0.284400 0.822500 0.492600
vn 0.640600 0.717800 0.272900
vn 0.552500 0.737100 0.389100
vn 0.541800 0.738200 0.401800
vn 0.442200 0.740300 0.506400
vn 0.640600 -0.717800 0.272900
vn 0.552500 -0.737100 0.389100
vn 0.541800 -0.738200 0.401800
vn 0.442200 -0.740300 0.506400
vn 0.920800 0.000400 0.389900
vn 0.808400 0.000500 0.588600
vn 0.808900 0.000000 0.587900
vn 0.920900 0.000300 0.389900
vn 0.655200 0.000400 0.755500
vn 0.655000 0.000000 0.755600
vn 0.000400 1.000000 0.000200
vn 0.000400 -1.000000 0.000200
vn -0.376700 -0.657600 0.652500
vn -0.753400 -0.657600 -0.000000
vn -0.376700 -0.657600 -0.652500
vn 0.376700 -0.657600 0.652500
vn 0.376500 -0.657900 -0.652200
vn 0.376600 -0.657800 -0.652300
vn 0.753400 -0.657600 -0.000000
vn -0.753300 0.657700 0.000500
vn -0.376700 0.657600 0.652500
vn 0.376700 0.657600 0.652500
vn -0.753400 0.657600 -0.000000
vn -0.376700 0.657600 -0.652500
vn 0.753300 0.657700 0.000600
vn 0.753400 0.657600 -0.000000
vn 0.376500 0.657900 -0.652200
vn 0.376700 0.657600 -0.652500
vn -0.214300 -0.916000 0.339100
vn -0.399600 -0.916000 0.035000
vn -0.414800 -0.901700 0.121600
vn -0.313200 -0.901500 -0.298800
vn -0.298300 -0.901700 0.312900
vn -0.339400 -0.915800 -0.214600
vn 0.035000 -0.916000 0.399600
vn -0.121600 -0.901700 -0.414800
vn 0.121600 -0.901700 0.414800
vn -0.035000 -0.916000 -0.399600
vn 0.339100 -0.916000 0.214300
vn 0.298300 -0.901700 -0.312900
vn 0.313400 -0.901600 0.298300
vn 0.214300 -0.916000 -0.339100
vn 0.414800 -0.901700 -0.121600
vn 0.399100 -0.916200 -0.035000
vn 0.339100 0.916000 0.214300
vn 0.121600 0.901700 0.414800
vn 0.035000 0.916000 0.399600
vn -0.298300 0.901700 0.312900
vn 0.313200 0.901600 0.298300
vn -0.214300 0.916000 0.339100
vn 0.414800 0.901700 -0.121600
vn -0.414800 0.901700 0.121600
vn 0.399300 0.916200 -0.035000
vn -0.399600 0.916000 0.035000
vn 0.214300 0.916000 -0.339100
vn -0.313100 0.901500 -0.298600
vn 0.298300 0.901700 -0.312900
vn -0.339400 0.915800 -0.214600
vn -0.035000 0.916000 -0.399600
vn -0.121600 0.901700 -0.414800
vn 0.000300 -1.000000 0.000200
vn 0.353200 0.649300 0.673500
vn 0.353300 0.649300 0.673500
vn 0.353300 -0.649300 0.673500
vn 0.353200 -0.649300 0.673500
vn 0.538900 0.776300 -0.327100
vn 0.538800 0.776300 -0.327100
vn 0.538800 -0.776300 -0.327100
vn 0.538900 -0.776300 -0.327100
vn 0.470500 0.000300 0.882400
vn 0.470700 0.000000 0.882300
vn -0.971700 0.000600 -0.236200
vn -0.971700 0.000300 -0.236100
vn -0.971700 0.000600 -0.236300
vn 0.015100 0.771700 0.635800
vn 0.015100 0.771500 0.636100
vn 0.015100 -0.771700 0.635800
vn 0.853200 0.000000 -0.521600
vn 0.853300 0.000400 -0.521400
vn 0.853300 0.000500 -0.521400
vn 0.023700 0.000000 0.999700
vn 0.023900 0.000400 0.999700
vn -0.235900 0.000000 0.971800
vn 0.680600 0.637600 0.360800
vn 0.680600 -0.637600 0.360800
vn 0.680400 -0.637700 0.361100
vn 0.367900 -0.754900 -0.542900
vn 0.368000 -0.754800 -0.543100
vn 0.367900 -0.754900 -0.543000
vn 0.367800 -0.754800 -0.543100
vn 0.367900 0.754900 -0.543000
vn 0.367900 0.754900 -0.542900
vn 0.367800 0.754800 -0.543100
vn 0.368000 0.754800 -0.543100
vn -0.746600 -0.640200 -0.181200
vn -0.746600 0.640200 -0.181200
vn 0.600300 0.773200 0.204400
vn 0.600300 -0.773200 0.204400
vn 0.882000 0.000500 0.471300
vn 0.881900 0.000000 0.471400
vn -0.853900 0.000000 0.520400
vn -0.854000 0.000500 0.520300
vn -0.854000 0.000700 0.520300
vn -0.166700 0.637800 0.751900
vn -0.166700 -0.637800 0.751900
vn -0.971800 0.000000 -0.235900
vn 0.561500 0.000600 -0.827500
vn 0.561400 0.000500 -0.827500
vn 0.561300 0.000300 -0.827600
vn 0.561400 0.000400 -0.827600
vn -0.746500 0.640200 -0.181200
vn -0.746600 0.640000 -0.181700
vn -0.746500 -0.640200 -0.181200
vn -0.746600 -0.640000 -0.181700
vn 0.949600 0.000000 0.313500
vn 0.949500 0.000600 0.313900
vn 0.949500 0.000500 0.313900
vn -0.217800 0.000000 0.976000
vn -0.217500 0.000200 0.976100
vn -0.217400 0.000500 0.976100
vn -0.217400 0.000400 0.976100
vn -0.971700 0.000400 -0.236200
vn -0.158400 0.640200 0.751700
vn -0.158800 0.640400 0.751500
vn -0.158700 0.640300 0.751600
vn -0.158800 -0.640400 0.751500
vn -0.158400 -0.640200 0.751700
vn 0.499900 0.000500 0.866100
vn -0.499800 0.000700 0.866100
vn -0.499900 0.000600 0.866100
vn 1.000000 0.000000 -0.000000
vn -1.000000 0.000000 -0.000000
vn 0.500000 0.000000 -0.866000
vn -0.499700 0.000400 -0.866200
vn 0.499700 0.000400 -0.866200
vn -0.971700 0.000500 -0.236100
vn -0.206700 0.000500 0.978400
vn -0.206200 0.000000 0.978500
vt 0.000000 0.000000
s 1
f 1/1/1 2/1/2 3/1/2
f 2/1/2 1/1/1 4/1/3
f 5/1/4 6/1/4 7/1/4
f 6/1/4 5/1/4 8/1/4
f 9/1/5 10/1/5 11/1/5
f 9/1/5 11/1/5 12/1/5
f 13/1/6 14/1/7 15/1/7
f 16/1/8 15/1/7 14/1/7
f 17/1/9 18/1/10 19/1/9
f 20/1/9 19/1/9 18/1/10
f 21/1/11 22/1/12 23/1/12
f 21/1/11 23/1/12 24/1/11
f 25/1/13 26/1/14 27/1/14
f 26/1/14 25/1/13 28/1/13
f 29/1/15 30/1/16 31/1/16
f 30/1/16 29/1/15 32/1/15
f 33/1/17 34/1/18 35/1/18
f 33/1/17 35/1/18 36/1/19
f 37/1/20 38/1/20 39/1/21
f 38/1/20 37/1/20 40/1/20
f 41/1/22 42/1/23 43/1/22
f 42/1/23 41/1/22 44/1/22
f 45/1/24 46/1/24 47/1/24
f 47/1/24 48/1/24 45/1/24
f 49/1/25 50/1/26 51/1/25
f 50/1/26 49/1/25 52/1/25
f 53/1/27 54/1/28 55/1/27
f 54/1/28 53/1/27 56/1/27
f 57/1/10 58/1/9 59/1/9
f 58/1/9 57/1/10 60/1/29
f 61/1/30 62/1/31 63/1/30
f 61/1/30 63/1/30 64/1/30
f 65/1/32 66/1/32 67/1/32
f 66/1/32 65/1/32 68/1/33
f 69/1/9 70/1/34 71/1/35
f 70/1/34 69/1/9 72/1/34
f 73/1/36 74/1/36 75/1/36
f 74/1/36 73/1/36 76/1/37
f 77/1/38 78/1/38 79/1/38
f 78/1/38 77/1/38 80/1/38
f 81/1/39 82/1/39 83/1/39
f 81/1/39 83/1/39 84/1/39
f 85/1/15 86/1/16 87/1/16
f 86/1/16 85/1/15 88/1/40
f 89/1/17 90/1/41 91/1/18
f 91/1/18 92/1/17 89/1/17
f 93/1/42 94/1/43 95/1/44
f 94/1/43 93/1/42 96/1/45
f 97/1/46 98/1/46 99/1/47
f 98/1/46 97/1/46 100/1/48
f 101/1/49 102/1/50 103/1/51
f 101/1/49 104/1/49 102/1/50
f 105/1/52 106/1/52 107/1/52
f 107/1/52 108/1/52 105/1/52
f 109/1/53 110/1/53 111/1/53
f 110/1/53 109/1/53 112/1/53
f 113/1/54 114/1/54 115/1/55
f 114/1/54 113/1/54 116/1/56
f 117/1/57 118/1/58 119/1/58
f 118/1/58 117/1/57 120/1/57
f 121/1/59 122/1/60 123/1/60
f 121/1/59 123/1/60 124/1/59
f 125/1/61 126/1/61 127/1/61
f 127/1/61 126/1/61 128/1/61
f 129/1/62 130/1/62 131/1/62
f 129/1/62 131/1/62 132/1/62
f 133/1/63 134/1/63 135/1/63
f 133/1/63 135/1/63 136/1/63
f 137/1/64 138/1/64 139/1/64
f 138/1/64 137/1/64 140/1/64
f 141/1/65 142/1/66 143/1/67
f 142/1/66 141/1/65 144/1/66
f 145/1/68 146/1/68 147/1/68
f 146/1/68 145/1/68 148/1/68
f 149/1/69 150/1/69 151/1/69
f 149/1/69 151/1/69 152/1/69
f 153/1/70 154/1/71 155/1/71
f 156/1/70 155/1/71 154/1/71
f 157/1/72 158/1/72 159/1/73
f 157/1/72 159/1/73 160/1/72
f 161/1/74 162/1/75 163/1/74
f 164/1/74 163/1/74 162/1/75
f 165/1/76 166/1/76 167/1/76
f 167/1/76 168/1/76 165/1/76
f 169/1/77 170/1/77 171/1/77
f 170/1/77 169/1/77 172/1/77
f 173/1/78 174/1/79 175/1/80
f 174/1/79 173/1/78 176/1/79
f 177/1/81 178/1/81 179/1/81
f 177/1/81 179/1/81 180/1/81
f 181/1/82 182/1/83 183/1/82
f 182/1/83 181/1/82 184/1/84
f 185/1/85 182/1/83 184/1/84
f 182/1/83 185/1/85 186/1/85
f 187/1/86 188/1/87 189/1/88
f 188/1/87 187/1/86 190/1/86
f 191/1/89 189/1/88 188/1/87
f 191/1/89 188/1/87 192/1/90
f 193/1/91 194/1/92 195/1/91
f 193/1/91 195/1/91 196/1/92
f 197/1/93 198/1/93 199/1/93
f 197/1/93 199/1/93 200/1/93
f 198/1/93 201/1/93 199/1/93
f 202/1/93 197/1/93 200/1/93
f 203/1/93 201/1/93 198/1/93
f 197/1/93 202/1/93 204/1/93
f 205/1/93 201/1/93 203/1/93
f 206/1/93 204/1/93 202/1/93
f 201/1/93 205/1/93 207/1/93
f 206/1/93 202/1/93 208/1/93
f 205/1/93 208/1/93 207/1/93
f 208/1/93 205/1/93 206/1/93
f 209/1/94 210/1/94 211/1/94
f 212/1/94 211/1/94 210/1/94
f 209/1/94 211/1/94 213/1/94
f 211/1/94 212/1/94 214/1/94
f 209/1/94 213/1/94 215/1/94
f 212/1/94 216/1/94 214/1/94
f 215/1/94 213/1/94 217/1/94
f 212/1/94 218/1/94 216/1/94
f 219/1/94 215/1/94 217/1/94
f 218/1/94 219/1/94 216/1/94
f 215/1/94 219/1/94 220/1/94
f 220/1/94 219/1/94 218/1/94
f 221/1/95 222/1/96 223/1/97
f 221/1/95 223/1/97 224/1/98
f 222/1/96 225/1/99 223/1/97
f 226/1/100 221/1/95 224/1/98
f 225/1/99 222/1/96 227/1/101
f 221/1/95 226/1/100 228/1/100
f 229/1/102 225/1/99 227/1/101
f 230/1/103 228/1/100 226/1/100
f 225/1/99 229/1/102 231/1/104
f 230/1/103 226/1/100 232/1/105
f 229/1/102 232/1/105 231/1/104
f 232/1/105 229/1/102 230/1/103
f 233/1/106 234/1/107 235/1/108
f 234/1/107 236/1/109 235/1/108
f 234/1/107 233/1/106 237/1/110
f 236/1/109 234/1/107 238/1/111
f 233/1/106 239/1/112 237/1/110
f 240/1/113 236/1/109 238/1/111
f 239/1/112 233/1/106 241/1/112
f 240/1/113 238/1/111 242/1/114
f 241/1/112 243/1/115 239/1/112
f 243/1/115 240/1/113 242/1/114
f 241/1/112 244/1/116 243/1/115
f 240/1/113 243/1/115 244/1/116
f 245/1/117 246/1/118 247/1/119
f 246/1/118 245/1/117 248/1/117
f 249/1/120 247/1/119 246/1/118
f 246/1/118 250/1/120 249/1/120
f 251/1/121 252/1/122 253/1/121
f 252/1/122 251/1/121 254/1/123
f 255/1/124 252/1/122 254/1/123
f 252/1/122 255/1/124 256/1/124
f 257/1/125 258/1/126 259/1/127
f 257/1/125 259/1/127 260/1/128
f 261/1/129 259/1/127 258/1/126
f 259/1/127 261/1/129 262/1/130
f 263/1/93 264/1/93 265/1/93
f 266/1/93 263/1/93 265/1/93
f 263/1/93 266/1/93 267/1/131
f 264/1/93 263/1/93 268/1/93
f 264/1/93 268/1/93 269/1/93
f 269/1/93 268/1/93 270/1/131
f 271/1/94 272/1/94 273/1/132
f 272/1/94 271/1/94 274/1/94
f 275/1/94 274/1/94 271/1/94
f 275/1/94 276/1/94 274/1/94
f 276/1/94 275/1/94 277/1/94
f 277/1/94 275/1/94 278/1/94
f 279/1/93 280/1/93 281/1/93
f 280/1/93 279/1/93 282/1/93
f 279/1/93 281/1/93 283/1/93
f 281/1/93 284/1/93 283/1/93
f 285/1/94 286/1/94 287/1/94
f 286/1/94 285/1/94 288/1/94
f 289/1/94 287/1/94 286/1/94
f 287/1/94 289/1/94 290/1/94
f 291/1/133 292/1/134 293/1/134
f 294/1/135 293/1/134 292/1/134
f 292/1/134 291/1/133 295/1/133
f 292/1/134 296/1/135 294/1/135
f 297/1/136 295/1/133 291/1/133
f 296/1/135 298/1/137 294/1/135
f 297/1/136 291/1/133 299/1/136
f 296/1/135 300/1/138 298/1/137
f 301/1/139 297/1/136 299/1/136
f 301/1/139 298/1/137 300/1/138
f 299/1/136 302/1/139 301/1/139
f 298/1/137 301/1/139 302/1/139
f 303/1/140 304/1/141 305/1/141
f 306/1/142 305/1/141 304/1/141
f 303/1/140 305/1/141 307/1/143
f 305/1/141 306/1/142 308/1/142
f 309/1/144 303/1/140 307/1/143
f 310/1/145 308/1/142 306/1/142
f 303/1/140 309/1/144 311/1/144
f 308/1/142 310/1/145 312/1/146
f 313/1/147 311/1/144 309/1/144
f 310/1/145 313/1/147 312/1/146
f 311/1/144 313/1/147 314/1/148
f 313/1/147 310/1/145 314/1/148
f 315/1/149 316/1/150 317/1/151
f 316/1/150 318/1/152 317/1/151
f 315/1/149 317/1/151 319/1/153
f 318/1/152 316/1/150 320/1/154
f 319/1/153 321/1/155 315/1/149
f 320/1/154 322/1/156 318/1/152
f 321/1/155 319/1/153 323/1/157
f 320/1/154 324/1/158 322/1/156
f 325/1/159 321/1/155 323/1/157
f 324/1/158 326/1/160 322/1/156
f 325/1/159 323/1/157 327/1/161
f 326/1/160 324/1/158 328/1/162
f 329/1/163 325/1/159 327/1/161
f 328/1/162 329/1/163 326/1/160
f 325/1/159 329/1/163 330/1/164
f 328/1/162 330/1/164 329/1/163
f 331/1/165 332/1/166 333/1/167
f 333/1/167 332/1/166 334/1/168
f 332/1/166 331/1/165 335/1/169
f 336/1/170 333/1/167 334/1/168
f 331/1/165 337/1/171 335/1/169
f 338/1/172 336/1/170 334/1/168
f 337/1/171 331/1/165 339/1/173
f 336/1/170 338/1/172 340/1/174
f 341/1/175 337/1/171 339/1/173
f 338/1/172 342/1/176 340/1/174
f 337/1/171 341/1/175 343/1/177
f 340/1/174 342/1/176 344/1/178
f 345/1/179 343/1/177 341/1/175
f 346/1/180 344/1/178 342/1/176
f 343/1/177 345/1/179 346/1/180
f 344/1/178 346/1/180 345/1/179
f 347/1/93 348/1/93 349/1/93
f 348/1/93 347/1/93 350/1/93
f 351/1/93 349/1/93 348/1/93
f 349/1/93 351/1/93 352/1/93
f 353/1/94 354/1/94 355/1/94
f 354/1/94 353/1/94 356/1/94
f 357/1/94 354/1/94 356/1/94
f 357/1/94 356/1/94 358/1/94
f 359/1/94 360/1/94 361/1/94
f 362/1/94 361/1/94 360/1/94
f 359/1/94 361/1/94 363/1/94
f 360/1/94 364/1/94 362/1/94
f 363/1/94 365/1/94 359/1/94
f 364/1/94 360/1/94 366/1/94
f 366/1/94 367/1/94 364/1/94
f 367/1/94 366/1/94 368/1/94
f 369/1/94 359/1/94 365/1/94
f 369/1/94 365/1/94 370/1/94
f 370/1/94 371/1/94 369/1/94
f 372/1/94 369/1/94 371/1/94
f 371/1/94 373/1/94 372/1/94
f 374/1/93 375/1/93 376/1/93
f 375/1/93 377/1/93 376/1/93
f 375/1/93 374/1/93 378/1/93
f 379/1/93 376/1/93 377/1/93
f 380/1/93 378/1/93 374/1/93
f 381/1/93 380/1/93 374/1/93
f 380/1/93 381/1/93 382/1/93
f 383/1/93 376/1/93 379/1/93
f 379/1/93 384/1/93 383/1/93
f 385/1/93 383/1/93 384/1/93
f 383/1/93 385/1/93 386/1/93
f 387/1/93 386/1/93 385/1/93
f 386/1/93 387/1/93 388/1/93
f 389/1/93 390/1/93 391/1/93
f 392/1/93 391/1/93 390/1/93
f 393/1/93 392/1/93 390/1/93
f 392/1/93 393/1/93 394/1/93
f 395/1/93 394/1/93 393/1/93
f 395/1/93 393/1/93 396/1/93
f 396/1/93 397/1/93 395/1/93
f 397/1/93 396/1/93 398/1/131
f 399/1/94 400/1/94 401/1/94
f 401/1/94 402/1/94 399/1/94
f 401/1/94 400/1/94 403/1/94
f 404/1/94 403/1/94 400/1/94
f 403/1/94 404/1/94 405/1/181
f 402/1/94 401/1/94 406/1/94
f 407/1/94 402/1/94 406/1/94
f 407/1/94 406/1/94 408/1/94
f 409/1/93 410/1/93 411/1/93
f 410/1/93 409/1/93 412/1/93
f 413/1/94 414/1/94 415/1/94
f 414/1/94 413/1/94 416/1/181
f 417/1/182 418/1/183 419/1/183
f 417/1/182 419/1/183 420/1/182
f 421/1/184 422/1/185 423/1/185
f 422/1/185 421/1/184 424/1/184
f 425/1/186 426/1/186 427/1/187
f 426/1/186 425/1/186 428/1/186
f 429/1/188 430/1/189 431/1/189
f 429/1/188 431/1/189 432/1/188
f 433/1/190 434/1/190 435/1/191
f 433/1/190 435/1/191 436/1/191
f 437/1/192 438/1/192 439/1/193
f 439/1/193 440/1/194 437/1/192
f 441/1/195 442/1/195 443/1/196
f 442/1/195 441/1/195 444/1/195
f 445/1/197 446/1/197 447/1/197
f 446/1/197 445/1/197 448/1/197
f 449/1/198 450/1/199 451/1/199
f 449/1/198 451/1/199 452/1/200
f 453/1/201 454/1/202 455/1/202
f 454/1/202 456/1/201 455/1/202
f 457/1/203 458/1/203 459/1/203
f 459/1/203 460/1/203 457/1/203
f 461/1/204 462/1/204 463/1/204
f 462/1/204 461/1/204 464/1/204
f 465/1/205 466/1/205 467/1/206
f 466/1/205 465/1/205 468/1/205
f 469/1/207 470/1/208 471/1/209
f 471/1/209 472/1/210 469/1/207
f 473/1/211 474/1/212 475/1/213
f 474/1/212 473/1/211 476/1/214
f 477/1/215 478/1/215 479/1/215
f 477/1/215 479/1/215 480/1/215
f 481/1/216 482/1/216 483/1/216
f 482/1/216 481/1/216 484/1/216
f 485/1/217 486/1/217 487/1/217
f 486/1/217 485/1/217 488/1/217
f 489/1/218 490/1/218 491/1/218
f 491/1/218 492/1/218 489/1/218
f 493/1/219 494/1/220 495/1/219
f 493/1/219 495/1/219 496/1/220
f 497/1/221 498/1/222 499/1/223
f 500/1/221 499/1/223 498/1/222
f 501/1/224 502/1/224 503/1/224
f 502/1/224 501/1/224 504/1/224
f 505/1/225 506/1/225 507/1/225
f 505/1/225 507/1/225 508/1/225
f 509/1/226 510/1/226 511/1/193
f 512/1/226 511/1/193 510/1/226
f 513/1/227 514/1/228 515/1/229
f 516/1/230 515/1/229 514/1/228
f 517/1/231 518/1/232 519/1/231
f 518/1/232 517/1/231 520/1/231
f 521/1/233 522/1/233 523/1/234
f 521/1/233 523/1/234 524/1/233
f 525/1/235 526/1/236 527/1/237
f 528/1/235 527/1/237 526/1/236
f 529/1/238 530/1/239 531/1/240
f 532/1/241 531/1/240 530/1/239
f 533/1/194 534/1/194 535/1/242
f 534/1/194 533/1/194 536/1/226
f 537/1/215 538/1/215 539/1/215
f 537/1/215 539/1/215 540/1/215
f 541/1/216 542/1/216 543/1/216
f 542/1/216 541/1/216 544/1/216
f 545/1/243 546/1/244 547/1/243
f 546/1/244 545/1/243 548/1/245
f 549/1/246 550/1/247 551/1/246
f 549/1/246 551/1/246 552/1/246
f 553/1/248 554/1/249 555/1/248
f 556/1/250 555/1/248 554/1/249
f 555/1/248 557/1/251 553/1/248
f 554/1/249 558/1/252 556/1/250
f 559/1/251 553/1/248 557/1/251
f 560/1/252 556/1/250 558/1/252
f 557/1/251 561/1/253 559/1/251
f 558/1/252 562/1/254 560/1/252
f 563/1/255 559/1/251 561/1/253
f 564/1/254 560/1/252 562/1/254
f 562/1/254 563/1/255 564/1/254
f 561/1/253 564/1/254 563/1/255
f 565/1/193 566/1/256 567/1/226
f 566/1/256 565/1/193 568/1/226
f 569/1/257 570/1/258 571/1/257
f 570/1/258 569/1/257 572/1/257
