# Blender 5.1.1
# www.blender.org
mtllib keybowtop9.mtl
o 124911318777461
v -0.394340 3.377261 -0.750345
v -0.375845 3.224247 -0.864512
v -0.434765 3.224247 -0.837037
v -0.335420 3.377261 -0.777820
v -0.416921 3.352831 -0.721048
v -0.434765 3.224247 -0.837037
v -0.452145 3.219508 -0.796585
v -0.394340 3.377261 -0.750345
v -0.375845 3.224247 -0.864512
v -0.335420 3.377261 -0.777820
v -0.298462 3.352831 -0.776286
v -0.333686 3.219508 -0.851823
v -0.245684 3.421247 -0.585380
v -0.335420 3.377261 -0.777820
v -0.304604 3.421247 -0.557905
v -0.394340 3.377261 -0.750345
v -0.375845 3.224247 -0.864512
v -0.353837 3.009707 -0.817315
v -0.434765 3.224247 -0.837037
v -0.412757 3.009707 -0.789840
v -0.416921 3.352831 -0.721048
v -0.336000 3.392494 -0.547511
v -0.304604 3.421247 -0.557905
v -0.394340 3.377261 -0.750345
v -0.245684 3.421247 -0.585380
v -0.298462 3.352831 -0.776286
v -0.335420 3.377261 -0.777820
v -0.217541 3.392494 -0.602749
v -0.375845 3.224247 -0.864512
v -0.314003 3.027633 -0.809614
v -0.353837 3.009707 -0.817315
v -0.333686 3.219508 -0.851823
v -0.432462 3.027633 -0.754376
v -0.452145 3.219508 -0.796585
v -0.434765 3.224247 -0.837037
v -0.412757 3.009707 -0.789840
v 0.283498 2.469165 0.718046
v 0.291727 2.929531 0.552341
v 0.221499 2.929531 0.585089
v 0.353726 2.469165 0.685298
v -0.265957 3.089670 -0.475028
v -0.300838 3.040146 -0.703660
v -0.359758 3.040146 -0.676185
v -0.207037 3.089670 -0.502503
v -0.068079 3.142434 -0.281485
v -0.185969 3.142434 -0.226512
v -0.157364 3.158863 -0.165168
v -0.039474 3.158863 -0.220141
v -0.185969 3.142434 -0.226512
v -0.136943 2.875028 -0.429164
v -0.254833 2.875028 -0.374191
v -0.068079 3.142434 -0.281485
v 0.129072 2.192847 0.386879
v 0.353726 2.469165 0.685298
v 0.283498 2.469165 0.718046
v 0.199300 2.192847 0.354131
v -0.282024 3.304417 -0.509483
v -0.188953 2.971511 -0.463720
v -0.247873 2.971511 -0.436245
v -0.223104 3.304417 -0.536958
v -0.300838 3.040146 -0.703660
v -0.207037 3.089670 -0.502503
v -0.185781 3.056614 -0.534641
v -0.279581 3.007090 -0.735796
v -0.304240 3.056614 -0.479403
v -0.359758 3.040146 -0.676185
v -0.398040 3.007090 -0.680558
v -0.265957 3.089670 -0.475028
v -0.254833 2.875028 -0.374191
v -0.130000 2.807342 -0.414274
v -0.247889 2.807342 -0.359301
v -0.136943 2.875028 -0.429164
v 0.387875 2.041443 0.763374
v 0.242060 2.428684 0.624335
v 0.321358 2.041443 0.794391
v 0.308576 2.428684 0.593318
v 0.353726 2.469165 0.685298
v 0.305440 2.899894 0.523009
v 0.291727 2.929531 0.552341
v 0.361042 2.478424 0.642248
v 0.283498 2.469165 0.718046
v 0.221499 2.929531 0.585089
v 0.190215 2.899894 0.576739
v 0.245817 2.478424 0.695978
v -0.223104 3.304417 -0.536958
v -0.149048 2.988746 -0.455867
v -0.188953 2.971511 -0.463720
v -0.184739 3.336676 -0.532406
v -0.267507 2.988746 -0.400628
v -0.303198 3.336676 -0.477168
v -0.282024 3.304417 -0.509483
v -0.247873 2.971511 -0.436245
v -0.224309 3.324652 -0.385713
v -0.245684 3.421247 -0.585380
v -0.304604 3.421247 -0.557905
v -0.165389 3.324652 -0.413188
v 0.283498 2.469165 0.718046
v 0.111401 2.241594 0.407721
v 0.129072 2.192847 0.386879
v 0.245817 2.478424 0.695978
v 0.353726 2.469165 0.685298
v 0.226625 2.241594 0.353991
v 0.361042 2.478424 0.642248
v 0.199300 2.192847 0.354131
v 0.211769 2.414759 0.618995
v 0.289027 2.042025 0.784675
v 0.321358 2.041443 0.794391
v 0.242060 2.428684 0.624335
v 0.387875 2.041443 0.763374
v 0.323957 2.414759 0.566680
v 0.308576 2.428684 0.593318
v 0.401215 2.042025 0.732361
v 0.221499 2.929531 0.585089
v 0.189875 2.935238 0.333919
v 0.119647 2.935238 0.366667
v 0.291727 2.929531 0.552341
v -0.264065 3.305957 -0.393246
v -0.304604 3.421247 -0.557905
v -0.336000 3.392494 -0.547511
v -0.224309 3.324652 -0.385713
v -0.245684 3.421247 -0.585380
v -0.165389 3.324652 -0.413188
v -0.145606 3.305957 -0.448485
v -0.217541 3.392494 -0.602749
v -0.093872 3.067319 -0.029010
v 0.024018 3.067319 -0.083983
v -0.157364 3.158863 -0.165168
v -0.039474 3.158863 -0.220141
v 0.110611 2.638247 0.346286
v 0.225728 1.967298 0.593154
v 0.295188 1.967298 0.560764
v 0.180072 2.638247 0.313896
v 0.189875 2.935238 0.333919
v 0.291727 2.929531 0.552341
v 0.305440 2.899894 0.523009
v 0.218988 2.904738 0.337612
v 0.119647 2.935238 0.366667
v 0.190215 2.899894 0.576739
v 0.221499 2.929531 0.585089
v 0.103763 2.904738 0.391342
v 0.159254 2.542310 0.268251
v 0.140754 2.759089 0.411931
v 0.089026 2.542310 0.300999
v 0.210982 2.759089 0.379184
v 0.140754 2.759089 0.411931
v 0.062160 2.581043 0.302124
v 0.089026 2.542310 0.300999
v 0.111563 2.789592 0.408069
v 0.177384 2.581043 0.248394
v 0.226788 2.789592 0.354339
v 0.210982 2.759089 0.379184
v 0.159254 2.542310 0.268251
v 0.180072 2.638247 0.313896
v -0.028202 2.988095 -0.132748
v 0.110611 2.638247 0.346286
v -0.097662 2.988095 -0.100358
v -0.203139 3.118276 -0.340312
v -0.129061 3.008071 -0.181452
v -0.070141 3.008071 -0.208927
v -0.144219 3.118276 -0.367787
v -0.353837 3.009707 -0.817315
v -0.288696 2.921780 -0.677620
v -0.412757 3.009707 -0.789840
v -0.347616 2.921780 -0.650146
v -0.144219 3.118276 -0.367787
v -0.070141 3.008071 -0.208927
v -0.055163 2.999083 -0.254530
v -0.124656 3.101736 -0.403558
v -0.173622 2.999083 -0.199291
v -0.203139 3.118276 -0.340312
v -0.243115 3.101736 -0.348320
v -0.129061 3.008071 -0.181452
v -0.432462 3.027633 -0.754376
v -0.347616 2.921780 -0.650146
v -0.375647 2.950945 -0.632535
v -0.412757 3.009707 -0.789840
v -0.288696 2.921780 -0.677620
v -0.353837 3.009707 -0.817315
v -0.314003 3.027633 -0.809614
v -0.257188 2.950945 -0.687774
v 0.225728 1.967298 0.593154
v 0.070687 2.614989 0.336762
v 0.179338 1.957107 0.569765
v 0.110611 2.638247 0.346286
v -0.097662 2.988095 -0.100358
v -0.132991 2.954159 -0.100027
v 0.295188 1.967298 0.560764
v 0.198438 2.614989 0.277190
v 0.180072 2.638247 0.313896
v 0.307089 1.957107 0.510194
v -0.028202 2.988095 -0.132748
v -0.005240 2.954159 -0.159599
v -0.184398 2.715797 -0.223144
v -0.247889 2.807342 -0.359301
v -0.130000 2.807342 -0.414274
v -0.066508 2.715797 -0.278117
v 0.357714 2.068127 0.557135
v 0.445870 2.068127 0.746186
v 0.423831 1.977803 0.698924
v 0.379753 1.977803 0.604399
v 0.445870 1.887479 0.746186
v 0.357714 1.887479 0.557135
v 0.489948 1.887479 0.840712
v 0.313636 1.887479 0.462610
v 0.445870 1.706830 0.746186
v 0.357714 1.706830 0.557135
v 0.423831 1.797154 0.698924
v 0.379753 1.797154 0.604399
v 0.182757 2.068127 0.638718
v 0.138679 1.887479 0.544193
v 0.182757 1.887479 0.638718
v 0.182757 1.706830 0.638718
v 0.204797 1.977803 0.685982
v 0.204797 1.797154 0.685982
v 0.270913 2.068127 0.827770
v 0.248875 1.797154 0.780508
v 0.248875 1.977803 0.780508
v 0.270913 1.706830 0.827770
v 0.270913 1.887479 0.827770
v 0.314991 1.887479 0.922296
v 0.270913 1.887479 0.827770
v 0.248875 1.977803 0.780508
v 0.259011 1.956670 0.762318
v 0.275894 1.887479 0.798523
v 0.225246 1.956670 0.689908
v 0.259011 1.818287 0.762318
v 0.204797 1.977803 0.685982
v 0.248875 1.797154 0.780508
v 0.182757 1.887479 0.638718
v 0.204797 1.797154 0.685982
v 0.208363 1.887479 0.653703
v 0.225246 1.818287 0.689908
v 0.357714 1.887479 0.557135
v 0.369616 1.818287 0.622587
v 0.379753 1.797154 0.604399
v 0.423831 1.797154 0.698924
v 0.352733 1.887479 0.586382
v 0.403381 1.818287 0.694997
v 0.369616 1.956670 0.622587
v 0.445870 1.887479 0.746186
v 0.379753 1.977803 0.604399
v 0.420264 1.887479 0.731202
v 0.403381 1.956670 0.694997
v 0.423831 1.977803 0.698924
v 0.244567 1.925560 0.376115
v 0.103207 2.464607 0.149059
v 0.142860 2.487479 0.158003
v 0.200389 1.921189 0.357467
v -0.023335 2.833115 -0.198404
v -0.065140 2.809929 -0.211963
v 0.116816 1.925560 0.435686
v 0.033746 2.464607 0.181449
v 0.130929 1.921189 0.389857
v 0.015108 2.487479 0.217574
v -0.151087 2.833115 -0.138833
v -0.134601 2.809929 -0.179573
v 0.130929 1.921189 0.389857
v 0.033746 2.464607 0.181449
v 0.103207 2.464607 0.149059
v 0.200389 1.921189 0.357467
v -0.134601 2.809929 -0.179573
v -0.065140 2.809929 -0.211963
v 0.029650 2.990617 -0.108918
v -0.107278 2.884042 -0.402561
v -0.050186 3.105733 -0.280128
v -0.021487 3.122216 -0.218582
v 0.022684 3.058530 -0.123858
v -0.027440 2.768929 -0.231350
v -0.100311 2.816132 -0.387622
v -0.056141 2.752444 -0.292898
v -0.173685 2.768929 -0.163155
v -0.246556 2.816132 -0.319427
v -0.202385 2.752444 -0.224703
v -0.253522 2.884042 -0.334366
v -0.116594 2.990617 -0.040724
v -0.196431 3.105733 -0.211933
v -0.167731 3.122216 -0.150387
v -0.123561 3.058530 -0.055663
v 0.369616 1.818287 0.622587
v 0.369616 1.956670 0.622587
v 0.403381 1.956670 0.694997
v 0.352733 1.887479 0.586382
v 0.403381 1.818287 0.694997
v 0.420264 1.887479 0.731202
v 0.225246 1.956670 0.689908
v 0.225246 1.818287 0.689908
v 0.259011 1.956670 0.762318
v 0.208363 1.887479 0.653703
v 0.259011 1.818287 0.762318
v 0.275894 1.887479 0.798523
v 0.270913 1.706830 0.827770
v 0.365533 1.887479 0.936897
v 0.314991 1.887479 0.922296
v 0.270913 2.068127 0.827770
v 0.314145 1.676872 0.826696
v 0.314145 2.098086 0.826696
v 0.211369 1.676872 0.606293
v 0.182757 2.068127 0.638718
v 0.182757 1.706830 0.638718
v 0.211369 2.098086 0.606292
v 0.159981 1.887479 0.496091
v 0.138679 1.887479 0.544193
v 0.468646 1.887479 0.888815
v 0.417258 1.676872 0.778613
v 0.445870 1.706830 0.746186
v 0.314483 1.676872 0.558211
v 0.489948 1.887479 0.840712
v 0.357714 1.706830 0.557135
v 0.445870 2.068127 0.746186
v 0.263095 1.887479 0.448008
v 0.417258 2.098086 0.778613
v 0.313636 1.887479 0.462610
v 0.357714 2.068127 0.557135
v 0.314482 2.098086 0.558209
v -0.155793 2.732225 -0.161800
v -0.086929 2.999633 -0.014120
v -0.116594 2.990617 -0.040724
v -0.123561 3.058530 -0.055663
v -0.173685 2.768929 -0.163155
v -0.093872 3.067319 -0.029010
v -0.184398 2.715797 -0.223144
v -0.167731 3.122216 -0.150387
v -0.202385 2.752444 -0.224703
v -0.157364 3.158863 -0.165168
v -0.247889 2.807342 -0.359301
v -0.196431 3.105733 -0.211933
v -0.246556 2.816132 -0.319427
v -0.185969 3.142434 -0.226512
v -0.253522 2.884042 -0.334366
v -0.254833 2.875028 -0.374191
v -0.130000 2.807342 -0.414274
v -0.056141 2.752444 -0.292898
v -0.066508 2.715797 -0.278117
v -0.027440 2.768929 -0.231350
v -0.100311 2.816132 -0.387622
v -0.037903 2.732225 -0.216773
v -0.107278 2.884042 -0.402561
v 0.029650 2.990617 -0.108918
v -0.136943 2.875028 -0.429164
v 0.030961 2.999633 -0.069093
v -0.068079 3.142434 -0.281485
v 0.022684 3.058530 -0.123858
v -0.050186 3.105733 -0.280128
v 0.024018 3.067319 -0.083983
v -0.039474 3.158863 -0.220141
v -0.021487 3.122216 -0.218582
v 0.307089 1.957107 0.510194
v 0.142860 2.487479 0.158003
v 0.198438 2.614989 0.277190
v 0.244567 1.925560 0.376115
v -0.023335 2.833115 -0.198404
v -0.005240 2.954159 -0.159599
v -0.151087 2.833115 -0.138833
v 0.070687 2.614989 0.336762
v -0.132991 2.954159 -0.100027
v 0.015108 2.487479 0.217574
v 0.179338 1.957107 0.569765
v 0.116816 1.925560 0.435686
v -0.425590 3.275653 -0.739639
v -0.303198 3.336676 -0.477168
v -0.336000 3.392494 -0.547511
v -0.264065 3.305957 -0.393246
v -0.416921 3.352831 -0.721048
v -0.243115 3.101736 -0.348320
v -0.452145 3.219508 -0.796585
v -0.267507 2.988746 -0.400628
v -0.173622 2.999083 -0.199291
v -0.194397 2.899865 -0.243844
v -0.398040 3.007090 -0.680558
v -0.432462 3.027633 -0.754376
v -0.375647 2.950945 -0.632535
v -0.304240 3.056614 -0.479403
v -0.297555 2.991447 -0.465066
v -0.279581 3.007090 -0.735796
v -0.333686 3.219508 -0.851823
v -0.307131 3.275653 -0.794877
v -0.298462 3.352831 -0.776286
v -0.314003 3.027633 -0.809614
v -0.217541 3.392494 -0.602749
v -0.257188 2.950945 -0.687774
v -0.185781 3.056614 -0.534641
v -0.179096 2.991447 -0.520304
v -0.184739 3.336676 -0.532406
v -0.145606 3.305957 -0.448485
v -0.124656 3.101736 -0.403558
v -0.149048 2.988746 -0.455867
v -0.055163 2.999083 -0.254530
v -0.075939 2.899865 -0.299083
v 0.208265 2.340094 0.314617
v 0.318991 2.517708 0.552070
v 0.226625 2.241594 0.353991
v 0.361042 2.478424 0.642248
v 0.279171 2.786657 0.466676
v 0.305440 2.899894 0.523009
v 0.218988 2.904738 0.337612
v 0.226788 2.789592 0.354339
v 0.146101 2.617719 0.181306
v 0.177384 2.581043 0.248394
v 0.190215 2.899894 0.576739
v 0.103763 2.904738 0.391342
v 0.163947 2.786657 0.520406
v 0.245817 2.478424 0.695978
v 0.111563 2.789592 0.408069
v 0.030877 2.617719 0.235036
v 0.062160 2.581043 0.302124
v 0.203767 2.517708 0.605800
v 0.111401 2.241594 0.407721
v 0.093040 2.340094 0.368347
v 0.357497 2.044697 0.638608
v 0.323957 2.414759 0.566680
v 0.401215 2.042025 0.732361
v 0.289630 2.350644 0.493066
v 0.245309 2.044697 0.690922
v 0.211769 2.414759 0.618995
v 0.177442 2.350644 0.545380
v 0.289027 2.042025 0.784675
v -0.101034 2.860529 -0.275178
v -0.188953 2.971511 -0.463720
v -0.149048 2.988746 -0.455867
v -0.075939 2.899865 -0.299083
v -0.267507 2.988746 -0.400628
v -0.159954 2.860529 -0.247703
v -0.194397 2.899865 -0.243844
v -0.247873 2.971511 -0.436245
v 0.189875 2.935238 0.333919
v 0.146101 2.617719 0.181306
v 0.104840 2.606101 0.151561
v 0.218988 2.904738 0.337612
v 0.030877 2.617719 0.235036
v 0.103763 2.904738 0.391342
v 0.119647 2.935238 0.366667
v 0.034612 2.606101 0.184309
v -0.159954 2.860529 -0.247703
v -0.247873 2.971511 -0.436245
v -0.188953 2.971511 -0.463720
v -0.101034 2.860529 -0.275178
v 0.024018 3.067319 -0.083983
v -0.093872 3.067319 -0.029010
v -0.086929 2.999633 -0.014120
v 0.030961 2.999633 -0.069093
v 0.226788 2.789592 0.354339
v 0.248507 2.756986 0.459655
v 0.210982 2.759089 0.379184
v 0.279171 2.786657 0.466676
v 0.111563 2.789592 0.408069
v 0.178279 2.756986 0.492402
v 0.163947 2.786657 0.520406
v 0.140754 2.759089 0.411931
v 0.034612 2.606101 0.184309
v 0.119647 2.935238 0.366667
v 0.189875 2.935238 0.333919
v 0.104840 2.606101 0.151561
v 0.178279 2.756986 0.492402
v 0.140754 2.759089 0.411931
v 0.248507 2.756986 0.459655
v 0.210982 2.759089 0.379184
v -0.037903 2.732225 -0.216773
v -0.155793 2.732225 -0.161800
v -0.184398 2.715797 -0.223144
v -0.066508 2.715797 -0.278117
v 0.259338 2.336717 0.487725
v 0.357497 2.044697 0.638608
v 0.325165 2.045277 0.628893
v 0.289630 2.350644 0.493066
v 0.192821 2.336717 0.518742
v 0.245309 2.044697 0.690922
v 0.177442 2.350644 0.545380
v 0.258648 2.045277 0.659910
v 0.093040 2.340094 0.368347
v 0.203767 2.517708 0.605800
v 0.210398 2.526740 0.561283
v 0.099874 2.349494 0.324262
v 0.280626 2.526740 0.528535
v 0.208265 2.340094 0.314617
v 0.170102 2.349494 0.291515
v 0.318991 2.517708 0.552070
v -0.264065 3.305957 -0.393246
v -0.243115 3.101736 -0.348320
v -0.203139 3.118276 -0.340312
v -0.224309 3.324652 -0.385713
v -0.144219 3.118276 -0.367787
v -0.145606 3.305957 -0.448485
v -0.165389 3.324652 -0.413188
v -0.124656 3.101736 -0.403558
v 0.318991 2.517708 0.552070
v 0.248507 2.756986 0.459655
v 0.279171 2.786657 0.466676
v 0.280626 2.526740 0.528535
v 0.203767 2.517708 0.605800
v 0.163947 2.786657 0.520406
v 0.178279 2.756986 0.492402
v 0.210398 2.526740 0.561283
v 0.258648 2.045277 0.659910
v 0.192821 2.336717 0.518742
v 0.259338 2.336717 0.487725
v 0.325165 2.045277 0.628893
v -0.037903 2.732225 -0.216773
v 0.030961 2.999633 -0.069093
v -0.155793 2.732225 -0.161800
v -0.086929 2.999633 -0.014120
v -0.288696 2.921780 -0.677620
v -0.179096 2.991447 -0.520304
v -0.194895 2.971303 -0.476463
v -0.257188 2.950945 -0.687774
v -0.297555 2.991447 -0.465066
v -0.375647 2.950945 -0.632535
v -0.347616 2.921780 -0.650146
v -0.253815 2.971303 -0.448988
v -0.144219 3.118276 -0.367787
v -0.165389 3.324652 -0.413188
v -0.203139 3.118276 -0.340312
v -0.224309 3.324652 -0.385713
v 0.280626 2.526740 0.528535
v 0.170102 2.349494 0.291515
v 0.210398 2.526740 0.561283
v 0.099874 2.349494 0.324262
v -0.194895 2.971303 -0.476463
v -0.185781 3.056614 -0.534641
v -0.207037 3.089670 -0.502503
v -0.179096 2.991447 -0.520304
v -0.253815 2.971303 -0.448988
v -0.265957 3.089670 -0.475028
v -0.304240 3.056614 -0.479403
v -0.297555 2.991447 -0.465066
v 0.248507 2.756986 0.459655
v 0.280626 2.526740 0.528535
v 0.178279 2.756986 0.492402
v 0.210398 2.526740 0.561283
v -0.288696 2.921780 -0.677620
v -0.194895 2.971303 -0.476463
v -0.347616 2.921780 -0.650146
v -0.253815 2.971303 -0.448988
v -0.253815 2.971303 -0.448988
v -0.207037 3.089670 -0.502503
v -0.265957 3.089670 -0.475028
v -0.194895 2.971303 -0.476463
v -0.425590 3.275653 -0.739639
v -0.398040 3.007090 -0.680558
v -0.359758 3.040146 -0.676185
v -0.381766 3.254686 -0.723381
v -0.300838 3.040146 -0.703660
v -0.307131 3.275653 -0.794877
v -0.322846 3.254686 -0.750856
v -0.279581 3.007090 -0.735796
v -0.184739 3.336676 -0.532406
v -0.322846 3.254686 -0.750856
v -0.307131 3.275653 -0.794877
v -0.223104 3.304417 -0.536958
v -0.303198 3.336676 -0.477168
v -0.425590 3.275653 -0.739639
v -0.381766 3.254686 -0.723381
v -0.282024 3.304417 -0.509483
v 0.314483 1.676872 0.558211
v 0.417258 1.676872 0.778613
v 0.211369 1.676872 0.606293
v 0.314145 1.676872 0.826696
v 0.159981 1.887479 0.496091
v 0.468646 1.887479 0.888815
v 0.263095 1.887479 0.448008
v 0.365533 1.887479 0.936897
v 0.211369 2.098086 0.606292
v 0.417258 2.098086 0.778613
v 0.314482 2.098086 0.558209
v 0.314145 2.098086 0.826696
v -0.359758 3.040146 -0.676185
v -0.322846 3.254686 -0.750856
v -0.381766 3.254686 -0.723381
v -0.300838 3.040146 -0.703660
v -0.381766 3.254686 -0.723381
v -0.223104 3.304417 -0.536958
v -0.282024 3.304417 -0.509483
v -0.322846 3.254686 -0.750856
vn -0.358024 0.530200 -0.768495
vn -0.357933 0.530300 -0.768537
vn -0.358338 0.530100 -0.768458
vn -0.855512 0.407200 -0.319809
vn 0.304925 0.407200 -0.860929
vn -0.085707 0.979200 -0.183799
vn -0.085254 0.979200 -0.184011
vn -0.085435 0.979200 -0.183926
vn -0.410700 -0.235900 -0.880750
vn -0.410429 -0.235800 -0.880877
vn -0.646062 0.752300 0.129357
vn -0.646062 0.752200 0.129357
vn 0.514374 0.752200 -0.411763
vn 0.514374 0.752300 -0.411763
vn 0.264734 -0.181200 -0.947119
vn 0.264691 -0.181200 -0.947210
vn -0.895745 -0.181200 -0.406089
vn -0.895703 -0.181200 -0.405999
vn -0.895745 -0.180900 -0.406089
vn 0.402671 0.303600 0.863530
vn 0.402943 0.303600 0.863403
vn -0.091690 0.976000 -0.197339
vn -0.091557 0.976100 -0.197291
vn -0.099696 0.971800 -0.213798
vn -0.360874 0.520400 -0.773896
vn -0.360560 0.520700 -0.773932
vn 0.254923 -0.797600 0.546685
vn 0.255237 -0.797500 0.546649
vn -0.410429 -0.235700 -0.880877
vn 0.516317 0.744100 -0.423923
vn 0.516577 0.744200 -0.423603
vn -0.656626 0.744100 0.123029
vn -0.656548 0.744200 0.123434
vn -0.410247 -0.235700 -0.880961
vn -0.410066 -0.235700 -0.881046
vn 0.380586 0.436200 0.815460
vn 0.380634 0.436300 0.815327
vn 0.955716 0.191400 0.223541
vn -0.443080 0.191400 0.875810
vn 0.264649 -0.180700 -0.947300
vn -0.895787 -0.180700 -0.406180
vn 0.191815 0.891600 0.410165
vn 0.191766 0.891600 0.410298
vn 0.191676 0.891600 0.410340
vn 0.191724 0.891600 0.410207
vn -0.543382 -0.504300 0.671122
vn -0.543515 -0.504300 0.671074
vn -0.543424 -0.504300 0.671032
vn 0.863437 -0.504300 0.015001
vn 0.863389 -0.504300 0.015134
vn 0.863346 -0.504300 0.015043
vn -0.287379 0.336800 0.896662
vn 0.871607 0.336800 0.356218
vn 0.010687 0.999700 0.021498
vn 0.010016 0.999700 0.021479
vn 0.010330 0.999700 0.021443
vn -0.433063 0.684800 0.586137
vn -0.433105 0.684800 0.586046
vn 0.727332 0.684800 0.044926
vn 0.727374 0.684800 0.045016
vn 0.219931 0.854000 0.471643
vn 0.391598 0.376200 0.839785
vn 0.705779 0.635800 -0.312449
vn -0.693016 0.635800 0.339820
vn 0.368421 -0.491500 0.789134
vn 0.368560 -0.491600 0.788959
vn 0.368016 -0.491700 0.789213
vn -0.439637 -0.322600 0.838235
vn 0.924718 -0.322600 0.202025
vn 0.244654 0.815400 0.524662
vn 0.245022 0.815500 0.524269
vn 0.224960 0.846600 0.482428
vn 0.225153 0.846800 0.481896
vn -0.209039 -0.868500 -0.449468
vn -0.209407 -0.868600 -0.449076
vn 0.743703 0.659600 0.108901
vn -0.394620 0.659600 0.639709
vn -0.740994 -0.667400 -0.073752
vn -0.741109 -0.667300 -0.074471
vn -0.741079 -0.667400 -0.073933
vn 0.419327 -0.667300 -0.615592
vn -0.426622 0.243100 0.871115
vn -0.471840 0.400400 0.785504
vn -0.473849 0.411100 0.778827
vn -0.501177 0.553000 0.665565
vn 0.941540 0.243100 0.233130
vn 0.905023 0.400400 0.143462
vn 0.901110 0.411100 0.137673
vn 0.832002 0.553000 0.043893
vn 0.832044 0.553000 0.043984
vn -0.219393 -0.854000 -0.471673
vn -0.219931 -0.853900 -0.471643
vn 0.906308 -0.000000 -0.422618
vn -0.906308 -0.000000 0.422618
vn -0.985678 -0.000200 -0.168303
vn -0.865667 -0.492600 0.089535
vn -0.865619 -0.492700 0.089403
vn -0.985721 -0.000200 -0.168394
vn -0.625246 -0.492600 0.605357
vn -0.865631 0.492600 0.089850
vn -0.624937 -0.492700 0.605545
vn -0.505053 -0.000000 0.863111
vn -0.624901 0.492300 0.605859
vn -0.504612 -0.000200 0.863347
vn -0.625119 0.492500 0.605629
vn 0.985678 -0.000200 0.168303
vn 0.865631 0.492600 -0.089850
vn 0.865667 0.492500 -0.089535
vn 0.625246 0.492600 -0.605357
vn 0.985721 -0.000200 0.168394
vn 0.625028 0.492500 -0.605587
vn 0.865631 -0.492600 -0.089850
vn 0.505053 -0.000000 -0.863111
vn 0.504612 -0.000200 -0.863347
vn 0.624895 -0.492700 -0.605635
vn 0.625246 -0.492600 -0.605357
vn 0.379818 -0.272900 -0.883936
vn 0.434543 -0.389100 -0.812247
vn 0.440062 -0.401800 -0.803014
vn 0.484058 -0.506400 -0.713634
vn -0.921277 -0.272900 -0.277225
vn -0.901536 -0.389100 -0.189223
vn -0.898011 -0.401800 -0.179061
vn -0.857821 -0.506400 -0.087905
vn -0.388784 -0.389900 -0.834697
vn -0.341191 -0.588600 -0.732871
vn -0.341856 -0.587900 -0.733112
vn -0.388917 -0.389900 -0.834746
vn -0.276537 -0.755500 -0.593982
vn -0.276815 -0.755600 -0.593632
vn 0.906139 -0.000200 -0.422981
vn -0.906477 -0.000200 0.422256
vn -0.436788 -0.652500 0.619320
vn -0.277587 -0.000000 0.960726
vn -0.436788 0.652500 0.619320
vn -0.755188 -0.652500 -0.063492
vn -0.755376 0.652200 -0.063184
vn -0.755327 0.652300 -0.063317
vn -0.914389 -0.000000 -0.404899
vn 0.914437 -0.000500 0.404766
vn 0.755188 -0.652500 0.063492
vn 0.436788 -0.652500 -0.619320
vn 0.914389 -0.000000 0.404899
vn 0.755188 0.652500 0.063492
vn 0.277720 -0.000600 -0.960678
vn 0.277587 -0.000000 -0.960726
vn 0.437144 0.652200 -0.619265
vn 0.436788 0.652500 -0.619320
vn -0.739611 -0.339100 0.581340
vn -0.661300 -0.035000 0.749279
vn -0.641916 -0.121600 0.757011
vn -0.684672 0.298800 0.664846
vn -0.691151 -0.312900 0.651426
vn -0.686560 0.214600 0.694635
vn -0.844970 -0.399600 0.355398
vn -0.765827 0.414800 0.491282
vn -0.868608 -0.414800 0.270868
vn -0.815386 0.399600 0.418839
vn -0.973488 -0.214300 0.079789
vn -0.943285 0.312900 0.110723
vn -0.949576 -0.298300 0.096996
vn -0.920745 0.339100 0.192897
vn -0.992520 0.121600 0.005138
vn -0.999026 0.035000 0.025495
vn 0.686868 -0.214300 -0.694447
vn 0.765827 -0.414800 -0.491282
vn 0.815386 -0.399600 -0.418839
vn 0.943285 -0.312900 -0.110723
vn 0.684763 -0.298300 -0.664888
vn 0.920745 -0.339100 -0.192897
vn 0.641916 0.121600 -0.757011
vn 0.992520 -0.121600 -0.005138
vn 0.661608 0.035000 -0.749092
vn 0.999056 -0.035000 -0.024958
vn 0.739611 0.339100 -0.581340
vn 0.949358 0.298600 -0.097225
vn 0.691151 0.312900 -0.651426
vn 0.973433 0.214600 -0.079433
vn 0.844970 0.399600 -0.355398
vn 0.868608 0.414800 -0.270868
vn -0.906435 -0.000200 0.422346
vn 0.439197 -0.673500 -0.594514
vn 0.439155 -0.673500 -0.594605
vn -0.737777 -0.673500 -0.045793
vn -0.737734 -0.673500 -0.045702
vn 0.475818 0.327100 -0.816488
vn 0.475860 0.327100 -0.816397
vn -0.931273 0.327100 -0.160240
vn -0.931316 0.327100 -0.160331
vn -0.198570 -0.882400 -0.426545
vn -0.198926 -0.882300 -0.426599
vn 0.411202 0.236200 0.880406
vn 0.410930 0.236100 0.880532
vn 0.411202 0.236300 0.880406
vn 0.693016 -0.635800 -0.339820
vn 0.692835 -0.636100 -0.339735
vn -0.705779 -0.635800 0.312449
vn -0.360578 0.521600 -0.773262
vn -0.360258 0.521400 -0.773521
vn -0.360167 0.521400 -0.773564
vn -0.010016 -0.999700 -0.021479
vn -0.009738 -0.999700 -0.021830
vn 0.099696 -0.971800 0.213798
vn 0.290228 -0.360800 -0.886294
vn -0.865496 -0.360800 -0.347372
vn -0.865502 -0.361100 -0.347148
vn -0.839653 0.542900 -0.014396
vn -0.839605 0.543100 -0.014529
vn -0.839653 0.543000 -0.014396
vn -0.839520 0.543100 -0.014348
vn 0.528690 0.543000 -0.652465
vn 0.528690 0.542900 -0.652465
vn 0.528642 0.543100 -0.652332
vn 0.528558 0.543100 -0.652514
vn -0.264691 0.181200 0.947210
vn 0.895745 0.181200 0.406089
vn 0.447059 -0.204400 -0.870825
vn -0.954455 -0.204400 -0.217288
vn -0.372296 -0.471300 -0.799575
vn -0.372707 -0.471400 -0.799273
vn 0.360874 -0.520400 0.773896
vn 0.361369 -0.520300 0.773776
vn 0.361550 -0.520300 0.773691
vn 0.648494 -0.751900 -0.118464
vn -0.507593 -0.751900 0.420627
vn 0.410700 0.235900 0.880750
vn -0.236756 0.827500 -0.509145
vn -0.236805 0.827500 -0.509013
vn -0.236944 0.827600 -0.508837
vn -0.236895 0.827600 -0.508970
vn 0.895703 0.181200 0.405999
vn 0.895564 0.181700 0.406174
vn -0.264734 0.181200 0.947119
vn -0.264510 0.181700 0.947125
vn -0.401318 -0.313500 -0.860630
vn -0.400732 -0.313900 -0.860793
vn -0.400823 -0.313900 -0.860751
vn 0.092046 -0.976000 0.197394
vn 0.092101 -0.976100 0.197037
vn 0.092330 -0.976100 0.196820
vn 0.092240 -0.976100 0.196862
vn 0.411021 0.236200 0.880490
vn 0.647161 -0.751700 -0.127001
vn 0.647511 -0.751500 -0.126723
vn 0.647378 -0.751600 -0.126771
vn -0.513288 -0.751500 0.414566
vn -0.513276 -0.751700 0.414119
vn -0.210814 -0.866100 -0.453275
vn 0.211859 -0.866100 0.452677
vn 0.211811 -0.866100 0.452810
vn -0.422618 -0.000000 -0.906308
vn 0.422618 -0.000000 0.906308
vn -0.211309 0.866000 -0.453154
vn 0.211545 0.866200 0.452713
vn -0.210820 0.866200 -0.453051
vn 0.411111 0.236100 0.880448
vn 0.087808 -0.978400 0.187123
vn 0.087144 -0.978500 0.186881
vt 0.000000 0.000000
s 1
f 1/1/1 2/1/2 3/1/2
f 2/1/2 1/1/1 4/1/3
f 5/1/4 6/1/4 7/1/4
f 6/1/4 5/1/4 8/1/4
f 9/1/5 10/1/5 11/1/5
f 9/1/5 11/1/5 12/1/5
f 13/1/6 14/1/7 15/1/7
f 16/1/8 15/1/7 14/1/7
f 17/1/9 18/1/10 19/1/9
f 20/1/9 19/1/9 18/1/10
f 21/1/11 22/1/12 23/1/12
f 21/1/11 23/1/12 24/1/11
f 25/1/13 26/1/14 27/1/14
f 26/1/14 25/1/13 28/1/13
f 29/1/15 30/1/16 31/1/16
f 30/1/16 29/1/15 32/1/15
f 33/1/17 34/1/18 35/1/18
f 33/1/17 35/1/18 36/1/19
f 37/1/20 38/1/20 39/1/21
f 38/1/20 37/1/20 40/1/20
f 41/1/22 42/1/23 43/1/22
f 42/1/23 41/1/22 44/1/22
f 45/1/24 46/1/24 47/1/24
f 47/1/24 48/1/24 45/1/24
f 49/1/25 50/1/26 51/1/25
f 50/1/26 49/1/25 52/1/25
f 53/1/27 54/1/28 55/1/27
f 54/1/28 53/1/27 56/1/27
f 57/1/10 58/1/9 59/1/9
f 58/1/9 57/1/10 60/1/29
f 61/1/30 62/1/31 63/1/30
f 61/1/30 63/1/30 64/1/30
f 65/1/32 66/1/32 67/1/32
f 66/1/32 65/1/32 68/1/33
f 69/1/9 70/1/34 71/1/35
f 70/1/34 69/1/9 72/1/34
f 73/1/36 74/1/36 75/1/36
f 74/1/36 73/1/36 76/1/37
f 77/1/38 78/1/38 79/1/38
f 78/1/38 77/1/38 80/1/38
f 81/1/39 82/1/39 83/1/39
f 81/1/39 83/1/39 84/1/39
f 85/1/15 86/1/16 87/1/16
f 86/1/16 85/1/15 88/1/40
f 89/1/17 90/1/41 91/1/18
f 91/1/18 92/1/17 89/1/17
f 93/1/42 94/1/43 95/1/44
f 94/1/43 93/1/42 96/1/45
f 97/1/46 98/1/46 99/1/47
f 98/1/46 97/1/46 100/1/48
f 101/1/49 102/1/50 103/1/51
f 101/1/49 104/1/49 102/1/50
f 105/1/52 106/1/52 107/1/52
f 107/1/52 108/1/52 105/1/52
f 109/1/53 110/1/53 111/1/53
f 110/1/53 109/1/53 112/1/53
f 113/1/54 114/1/54 115/1/55
f 114/1/54 113/1/54 116/1/56
f 117/1/57 118/1/58 119/1/58
f 118/1/58 117/1/57 120/1/57
f 121/1/59 122/1/60 123/1/60
f 121/1/59 123/1/60 124/1/59
f 125/1/61 126/1/61 127/1/61
f 127/1/61 126/1/61 128/1/61
f 129/1/62 130/1/62 131/1/62
f 129/1/62 131/1/62 132/1/62
f 133/1/63 134/1/63 135/1/63
f 133/1/63 135/1/63 136/1/63
f 137/1/64 138/1/64 139/1/64
f 138/1/64 137/1/64 140/1/64
f 141/1/65 142/1/66 143/1/67
f 142/1/66 141/1/65 144/1/66
f 145/1/68 146/1/68 147/1/68
f 146/1/68 145/1/68 148/1/68
f 149/1/69 150/1/69 151/1/69
f 149/1/69 151/1/69 152/1/69
f 153/1/70 154/1/71 155/1/71
f 156/1/70 155/1/71 154/1/71
f 157/1/72 158/1/72 159/1/73
f 157/1/72 159/1/73 160/1/72
f 161/1/74 162/1/75 163/1/74
f 164/1/74 163/1/74 162/1/75
f 165/1/76 166/1/76 167/1/76
f 167/1/76 168/1/76 165/1/76
f 169/1/77 170/1/77 171/1/77
f 170/1/77 169/1/77 172/1/77
f 173/1/78 174/1/79 175/1/80
f 174/1/79 173/1/78 176/1/79
f 177/1/81 178/1/81 179/1/81
f 177/1/81 179/1/81 180/1/81
f 181/1/82 182/1/83 183/1/82
f 182/1/83 181/1/82 184/1/84
f 185/1/85 182/1/83 184/1/84
f 182/1/83 185/1/85 186/1/85
f 187/1/86 188/1/87 189/1/88
f 188/1/87 187/1/86 190/1/86
f 191/1/89 189/1/88 188/1/87
f 191/1/89 188/1/87 192/1/90
f 193/1/91 194/1/92 195/1/91
f 193/1/91 195/1/91 196/1/92
f 197/1/93 198/1/93 199/1/93
f 197/1/93 199/1/93 200/1/93
f 198/1/93 201/1/93 199/1/93
f 202/1/93 197/1/93 200/1/93
f 203/1/93 201/1/93 198/1/93
f 197/1/93 202/1/93 204/1/93
f 205/1/93 201/1/93 203/1/93
f 206/1/93 204/1/93 202/1/93
f 201/1/93 205/1/93 207/1/93
f 206/1/93 202/1/93 208/1/93
f 205/1/93 208/1/93 207/1/93
f 208/1/93 205/1/93 206/1/93
f 209/1/94 210/1/94 211/1/94
f 212/1/94 211/1/94 210/1/94
f 209/1/94 211/1/94 213/1/94
f 211/1/94 212/1/94 214/1/94
f 209/1/94 213/1/94 215/1/94
f 212/1/94 216/1/94 214/1/94
f 215/1/94 213/1/94 217/1/94
f 212/1/94 218/1/94 216/1/94
f 219/1/94 215/1/94 217/1/94
f 218/1/94 219/1/94 216/1/94
f 215/1/94 219/1/94 220/1/94
f 220/1/94 219/1/94 218/1/94
f 221/1/95 222/1/96 223/1/97
f 221/1/95 223/1/97 224/1/98
f 222/1/96 225/1/99 223/1/97
f 226/1/100 221/1/95 224/1/98
f 225/1/99 222/1/96 227/1/101
f 221/1/95 226/1/100 228/1/100
f 229/1/102 225/1/99 227/1/101
f 230/1/103 228/1/100 226/1/100
f 225/1/99 229/1/102 231/1/104
f 230/1/103 226/1/100 232/1/105
f 229/1/102 232/1/105 231/1/104
f 232/1/105 229/1/102 230/1/103
f 233/1/106 234/1/107 235/1/108
f 234/1/107 236/1/109 235/1/108
f 234/1/107 233/1/106 237/1/110
f 236/1/109 234/1/107 238/1/111
f 233/1/106 239/1/112 237/1/110
f 240/1/113 236/1/109 238/1/111
f 239/1/112 233/1/106 241/1/112
f 240/1/113 238/1/111 242/1/114
f 241/1/112 243/1/115 239/1/112
f 243/1/115 240/1/113 242/1/114
f 241/1/112 244/1/116 243/1/115
f 240/1/113 243/1/115 244/1/116
f 245/1/117 246/1/118 247/1/119
f 246/1/118 245/1/117 248/1/117
f 249/1/120 247/1/119 246/1/118
f 246/1/118 250/1/120 249/1/120
f 251/1/121 252/1/122 253/1/121
f 252/1/122 251/1/121 254/1/123
f 255/1/124 252/1/122 254/1/123
f 252/1/122 255/1/124 256/1/124
f 257/1/125 258/1/126 259/1/127
f 257/1/125 259/1/127 260/1/128
f 261/1/129 259/1/127 258/1/126
f 259/1/127 261/1/129 262/1/130
f 263/1/93 264/1/93 265/1/93
f 266/1/93 263/1/93 265/1/93
f 263/1/93 266/1/93 267/1/131
f 264/1/93 263/1/93 268/1/93
f 264/1/93 268/1/93 269/1/93
f 269/1/93 268/1/93 270/1/131
f 271/1/94 272/1/94 273/1/132
f 272/1/94 271/1/94 274/1/94
f 275/1/94 274/1/94 271/1/94
f 275/1/94 276/1/94 274/1/94
f 276/1/94 275/1/94 277/1/94
f 277/1/94 275/1/94 278/1/94
f 279/1/93 280/1/93 281/1/93
f 280/1/93 279/1/93 282/1/93
f 279/1/93 281/1/93 283/1/93
f 281/1/93 284/1/93 283/1/93
f 285/1/94 286/1/94 287/1/94
f 286/1/94 285/1/94 288/1/94
f 289/1/94 287/1/94 286/1/94
f 287/1/94 289/1/94 290/1/94
f 291/1/133 292/1/134 293/1/134
f 294/1/135 293/1/134 292/1/134
f 292/1/134 291/1/133 295/1/133
f 292/1/134 296/1/135 294/1/135
f 297/1/136 295/1/133 291/1/133
f 296/1/135 298/1/137 294/1/135
f 297/1/136 291/1/133 299/1/136
f 296/1/135 300/1/138 298/1/137
f 301/1/139 297/1/136 299/1/136
f 301/1/139 298/1/137 300/1/138
f 299/1/136 302/1/139 301/1/139
f 298/1/137 301/1/139 302/1/139
f 303/1/140 304/1/141 305/1/141
f 306/1/142 305/1/141 304/1/141
f 303/1/140 305/1/141 307/1/143
f 305/1/141 306/1/142 308/1/142
f 309/1/144 303/1/140 307/1/143
f 310/1/145 308/1/142 306/1/142
f 303/1/140 309/1/144 311/1/144
f 308/1/142 310/1/145 312/1/146
f 313/1/147 311/1/144 309/1/144
f 310/1/145 313/1/147 312/1/146
f 311/1/144 313/1/147 314/1/148
f 313/1/147 310/1/145 314/1/148
f 315/1/149 316/1/150 317/1/151
f 316/1/150 318/1/152 317/1/151
f 315/1/149 317/1/151 319/1/153
f 318/1/152 316/1/150 320/1/154
f 319/1/153 321/1/155 315/1/149
f 320/1/154 322/1/156 318/1/152
f 321/1/155 319/1/153 323/1/157
f 320/1/154 324/1/158 322/1/156
f 325/1/159 321/1/155 323/1/157
f 324/1/158 326/1/160 322/1/156
f 325/1/159 323/1/157 327/1/161
f 326/1/160 324/1/158 328/1/162
f 329/1/163 325/1/159 327/1/161
f 328/1/162 329/1/163 326/1/160
f 325/1/159 329/1/163 330/1/164
f 328/1/162 330/1/164 329/1/163
f 331/1/165 332/1/166 333/1/167
f 333/1/167 332/1/166 334/1/168
f 332/1/166 331/1/165 335/1/169
f 336/1/170 333/1/167 334/1/168
f 331/1/165 337/1/171 335/1/169
f 338/1/172 336/1/170 334/1/168
f 337/1/171 331/1/165 339/1/173
f 336/1/170 338/1/172 340/1/174
f 341/1/175 337/1/171 339/1/173
f 338/1/172 342/1/176 340/1/174
f 337/1/171 341/1/175 343/1/177
f 340/1/174 342/1/176 344/1/178
f 345/1/179 343/1/177 341/1/175
f 346/1/180 344/1/178 342/1/176
f 343/1/177 345/1/179 346/1/180
f 344/1/178 346/1/180 345/1/179
f 347/1/93 348/1/93 349/1/93
f 348/1/93 347/1/93 350/1/93
f 351/1/93 349/1/93 348/1/93
f 349/1/93 351/1/93 352/1/93
f 353/1/94 354/1/94 355/1/94
f 354/1/94 353/1/94 356/1/94
f 357/1/94 354/1/94 356/1/94
f 357/1/94 356/1/94 358/1/94
f 359/1/94 360/1/94 361/1/94
f 362/1/94 361/1/94 360/1/94
f 359/1/94 361/1/94 363/1/94
f 360/1/94 364/1/94 362/1/94
f 363/1/94 365/1/94 359/1/94
f 364/1/94 360/1/94 366/1/94
f 366/1/94 367/1/94 364/1/94
f 367/1/94 366/1/94 368/1/94
f 369/1/94 359/1/94 365/1/94
f 369/1/94 365/1/94 370/1/94
f 370/1/94 371/1/94 369/1/94
f 372/1/94 369/1/94 371/1/94
f 371/1/94 373/1/94 372/1/94
f 374/1/93 375/1/93 376/1/93
f 375/1/93 377/1/93 376/1/93
f 375/1/93 374/1/93 378/1/93
f 379/1/93 376/1/93 377/1/93
f 380/1/93 378/1/93 374/1/93
f 381/1/93 380/1/93 374/1/93
f 380/1/93 381/1/93 382/1/93
f 383/1/93 376/1/93 379/1/93
f 379/1/93 384/1/93 383/1/93
f 385/1/93 383/1/93 384/1/93
f 383/1/93 385/1/93 386/1/93
f 387/1/93 386/1/93 385/1/93
f 386/1/93 387/1/93 388/1/93
f 389/1/93 390/1/93 391/1/93
f 392/1/93 391/1/93 390/1/93
f 393/1/93 392/1/93 390/1/93
f 392/1/93 393/1/93 394/1/93
f 395/1/93 394/1/93 393/1/93
f 395/1/93 393/1/93 396/1/93
f 396/1/93 397/1/93 395/1/93
f 397/1/93 396/1/93 398/1/131
f 399/1/94 400/1/94 401/1/94
f 401/1/94 402/1/94 399/1/94
f 401/1/94 400/1/94 403/1/94
f 404/1/94 403/1/94 400/1/94
f 403/1/94 404/1/94 405/1/181
f 402/1/94 401/1/94 406/1/94
f 407/1/94 402/1/94 406/1/94
f 407/1/94 406/1/94 408/1/94
f 409/1/93 410/1/93 411/1/93
f 410/1/93 409/1/93 412/1/93
f 413/1/94 414/1/94 415/1/94
f 414/1/94 413/1/94 416/1/181
f 417/1/182 418/1/183 419/1/183
f 417/1/182 419/1/183 420/1/182
f 421/1/184 422/1/185 423/1/185
f 422/1/185 421/1/184 424/1/184
f 425/1/186 426/1/186 427/1/187
f 426/1/186 425/1/186 428/1/186
f 429/1/188 430/1/189 431/1/189
f 429/1/188 431/1/189 432/1/188
f 433/1/190 434/1/190 435/1/191
f 433/1/190 435/1/191 436/1/191
f 437/1/192 438/1/192 439/1/193
f 439/1/193 440/1/194 437/1/192
f 441/1/195 442/1/195 443/1/196
f 442/1/195 441/1/195 444/1/195
f 445/1/197 446/1/197 447/1/197
f 446/1/197 445/1/197 448/1/197
f 449/1/198 450/1/199 451/1/199
f 449/1/198 451/1/199 452/1/200
f 453/1/201 454/1/202 455/1/202
f 454/1/202 456/1/201 455/1/202
f 457/1/203 458/1/203 459/1/203
f 459/1/203 460/1/203 457/1/203
f 461/1/204 462/1/204 463/1/204
f 462/1/204 461/1/204 464/1/204
f 465/1/205 466/1/205 467/1/206
f 466/1/205 465/1/205 468/1/205
f 469/1/207 470/1/208 471/1/209
f 471/1/209 472/1/210 469/1/207
f 473/1/211 474/1/212 475/1/213
f 474/1/212 473/1/211 476/1/214
f 477/1/215 478/1/215 479/1/215
f 477/1/215 479/1/215 480/1/215
f 481/1/216 482/1/216 483/1/216
f 482/1/216 481/1/216 484/1/216
f 485/1/217 486/1/217 487/1/217
f 486/1/217 485/1/217 488/1/217
f 489/1/218 490/1/218 491/1/218
f 491/1/218 492/1/218 489/1/218
f 493/1/219 494/1/220 495/1/219
f 493/1/219 495/1/219 496/1/220
f 497/1/221 498/1/222 499/1/223
f 500/1/221 499/1/223 498/1/222
f 501/1/224 502/1/224 503/1/224
f 502/1/224 501/1/224 504/1/224
f 505/1/225 506/1/225 507/1/225
f 505/1/225 507/1/225 508/1/225
f 509/1/226 510/1/226 511/1/193
f 512/1/226 511/1/193 510/1/226
f 513/1/227 514/1/228 515/1/229
f 516/1/230 515/1/229 514/1/228
f 517/1/231 518/1/232 519/1/231
f 518/1/232 517/1/231 520/1/231
f 521/1/233 522/1/233 523/1/234
f 521/1/233 523/1/234 524/1/233
f 525/1/235 526/1/236 527/1/237
f 528/1/235 527/1/237 526/1/236
f 529/1/238 530/1/239 531/1/240
f 532/1/241 531/1/240 530/1/239
f 533/1/194 534/1/194 535/1/242
f 534/1/194 533/1/194 536/1/226
f 537/1/215 538/1/215 539/1/215
f 537/1/215 539/1/215 540/1/215
f 541/1/216 542/1/216 543/1/216
f 542/1/216 541/1/216 544/1/216
f 545/1/243 546/1/244 547/1/243
f 546/1/244 545/1/243 548/1/245
f 549/1/246 550/1/247 551/1/246
f 549/1/246 551/1/246 552/1/246
f 553/1/248 554/1/249 555/1/248
f 556/1/250 555/1/248 554/1/249
f 555/1/248 557/1/251 553/1/248
f 554/1/249 558/1/252 556/1/250
f 559/1/251 553/1/248 557/1/251
f 560/1/252 556/1/250 558/1/252
f 557/1/251 561/1/253 559/1/251
f 558/1/252 562/1/254 560/1/252
f 563/1/255 559/1/251 561/1/253
f 564/1/254 560/1/252 562/1/254
f 562/1/254 563/1/255 564/1/254
f 561/1/253 564/1/254 563/1/255
f 565/1/193 566/1/256 567/1/226
f 566/1/256 565/1/193 568/1/226
f 569/1/257 570/1/258 571/1/257
f 570/1/258 569/1/257 572/1/257
