# Blender 5.1.1
# www.blender.org
mtllib keybowtop9.mtl
o 124911318777461
v -0.220794 2.620409 1.128915
v -0.202299 2.467395 1.014748
v -0.261219 2.467395 1.042223
v -0.161874 2.620409 1.101440
v -0.243375 2.595979 1.158212
v -0.261219 2.467395 1.042223
v -0.278599 2.462656 1.082675
v -0.220794 2.620409 1.128915
v -0.202299 2.467395 1.014748
v -0.161874 2.620409 1.101440
v -0.124916 2.595979 1.102973
v -0.160140 2.462656 1.027436
v -0.072138 2.664395 1.293880
v -0.161874 2.620409 1.101440
v -0.131058 2.664395 1.321354
v -0.220794 2.620409 1.128915
v -0.202299 2.467395 1.014748
v -0.180291 2.252855 1.061945
v -0.261219 2.467395 1.042223
v -0.239211 2.252855 1.089419
v -0.243375 2.595979 1.158212
v -0.162453 2.635642 1.331749
v -0.131058 2.664395 1.321354
v -0.220794 2.620409 1.128915
v -0.072138 2.664395 1.293880
v -0.124916 2.595979 1.102973
v -0.161874 2.620409 1.101440
v -0.043995 2.635642 1.276510
v -0.202299 2.467395 1.014748
v -0.140457 2.270781 1.069646
v -0.180291 2.252855 1.061945
v -0.160140 2.462656 1.027436
v -0.258916 2.270781 1.124884
v -0.278599 2.462656 1.082675
v -0.261219 2.467395 1.042223
v -0.239211 2.252855 1.089419
v 0.457044 1.712313 2.597306
v 0.465273 2.172679 2.431601
v 0.395045 2.172679 2.464348
v 0.527272 1.712313 2.564558
v -0.092411 2.332818 1.404232
v -0.127292 2.283294 1.175600
v -0.186212 2.283294 1.203075
v -0.033491 2.332818 1.376757
v 0.105467 2.385582 1.597775
v -0.012423 2.385582 1.652748
v 0.016182 2.402011 1.714092
v 0.134072 2.402011 1.659119
v -0.012423 2.385582 1.652748
v 0.036603 2.118176 1.450096
v -0.081287 2.118176 1.505069
v 0.105467 2.385582 1.597775
v 0.302618 1.435995 2.266139
v 0.527272 1.712313 2.564558
v 0.457044 1.712313 2.597306
v 0.372846 1.435995 2.233391
v -0.108478 2.547565 1.369777
v -0.015407 2.214659 1.415540
v -0.074327 2.214659 1.443015
v -0.049558 2.547565 1.342302
v -0.127292 2.283294 1.175600
v -0.033491 2.332818 1.376757
v -0.012235 2.299762 1.344619
v -0.106035 2.250238 1.143464
v -0.130694 2.299762 1.399857
v -0.186212 2.283294 1.203075
v -0.224494 2.250238 1.198702
v -0.092411 2.332818 1.404232
v -0.081287 2.118176 1.505069
v 0.043546 2.050490 1.464986
v -0.074343 2.050490 1.519959
v 0.036603 2.118176 1.450096
v 0.561421 1.284591 2.642634
v 0.415606 1.671832 2.503595
v 0.494904 1.284591 2.673651
v 0.482123 1.671832 2.472578
v 0.527272 1.712313 2.564558
v 0.478986 2.143042 2.402269
v 0.465273 2.172679 2.431601
v 0.534588 1.721572 2.521508
v 0.457044 1.712313 2.597306
v 0.395045 2.172679 2.464348
v 0.363762 2.143042 2.455999
v 0.419363 1.721572 2.575238
v -0.049558 2.547565 1.342302
v 0.024498 2.231894 1.423393
v -0.015407 2.214659 1.415540
v -0.011193 2.579824 1.346854
v -0.093961 2.231894 1.478631
v -0.129652 2.579824 1.402092
v -0.108478 2.547565 1.369777
v -0.074327 2.214659 1.443015
v -0.050763 2.567800 1.493547
v -0.072138 2.664395 1.293880
v -0.131058 2.664395 1.321354
v 0.008157 2.567800 1.466072
v 0.457044 1.712313 2.597306
v 0.284947 1.484742 2.286981
v 0.302618 1.435995 2.266139
v 0.419363 1.721572 2.575238
v 0.527272 1.712313 2.564558
v 0.400171 1.484742 2.233251
v 0.534588 1.721572 2.521508
v 0.372846 1.435995 2.233391
v 0.385315 1.657907 2.498254
v 0.462573 1.285173 2.663935
v 0.494904 1.284591 2.673651
v 0.415606 1.671832 2.503595
v 0.561421 1.284591 2.642634
v 0.497503 1.657907 2.445940
v 0.482123 1.671832 2.472578
v 0.574761 1.285173 2.611621
v 0.395045 2.172679 2.464348
v 0.363421 2.178386 2.213179
v 0.293193 2.178386 2.245926
v 0.465273 2.172679 2.431601
v -0.090519 2.549105 1.486013
v -0.131058 2.664395 1.321354
v -0.162453 2.635642 1.331749
v -0.050763 2.567800 1.493547
v -0.072138 2.664395 1.293880
v 0.008157 2.567800 1.466072
v 0.027940 2.549105 1.430775
v -0.043995 2.635642 1.276510
v 0.079674 2.310467 1.850250
v 0.197564 2.310467 1.795277
v 0.016182 2.402011 1.714092
v 0.134072 2.402011 1.659119
v 0.284157 1.881395 2.225546
v 0.399274 1.210446 2.472414
v 0.468734 1.210446 2.440024
v 0.353618 1.881395 2.193156
v 0.363421 2.178386 2.213179
v 0.465273 2.172679 2.431601
v 0.478986 2.143042 2.402269
v 0.392534 2.147886 2.216872
v 0.293193 2.178386 2.245926
v 0.363762 2.143042 2.455999
v 0.395045 2.172679 2.464348
v 0.277309 2.147886 2.270602
v 0.332800 1.785458 2.147511
v 0.314300 2.002237 2.291191
v 0.262572 1.785458 2.180259
v 0.384528 2.002237 2.258443
v 0.314300 2.002237 2.291191
v 0.235706 1.824191 2.181383
v 0.262572 1.785458 2.180259
v 0.285109 2.032740 2.287329
v 0.350930 1.824191 2.127653
v 0.400334 2.032740 2.233599
v 0.384528 2.002237 2.258443
v 0.332800 1.785458 2.147511
v 0.353618 1.881395 2.193156
v 0.145344 2.231243 1.746512
v 0.284157 1.881395 2.225546
v 0.075884 2.231243 1.778902
v -0.029593 2.361424 1.538947
v 0.044485 2.251219 1.697808
v 0.103405 2.251219 1.670333
v 0.029327 2.361424 1.511472
v -0.180291 2.252855 1.061945
v -0.115150 2.164928 1.201639
v -0.239211 2.252855 1.089419
v -0.174070 2.164928 1.229114
v 0.029327 2.361424 1.511472
v 0.103405 2.251219 1.670333
v 0.118383 2.242231 1.624730
v 0.048890 2.344884 1.475701
v -0.000076 2.242231 1.679969
v -0.029593 2.361424 1.538947
v -0.069569 2.344884 1.530940
v 0.044485 2.251219 1.697808
v -0.258916 2.270781 1.124884
v -0.174070 2.164928 1.229114
v -0.202101 2.194093 1.246724
v -0.239211 2.252855 1.089419
v -0.115150 2.164928 1.201639
v -0.180291 2.252855 1.061945
v -0.140457 2.270781 1.069646
v -0.083642 2.194093 1.191486
v 0.399274 1.210446 2.472414
v 0.244233 1.858137 2.216021
v 0.352884 1.200255 2.449025
v 0.284157 1.881395 2.225546
v 0.075884 2.231243 1.778902
v 0.040555 2.197307 1.779233
v 0.468734 1.210446 2.440024
v 0.371984 1.858137 2.156450
v 0.353618 1.881395 2.193156
v 0.480635 1.200255 2.389453
v 0.145344 2.231243 1.746512
v 0.168306 2.197307 1.719661
v -0.010852 1.958945 1.656116
v -0.074343 2.050490 1.519959
v 0.043546 2.050490 1.464986
v 0.107038 1.958945 1.601143
v 0.531260 1.311275 2.436395
v 0.619416 1.311275 2.625446
v 0.597377 1.220951 2.578184
v 0.553299 1.220951 2.483659
v 0.619416 1.130627 2.625446
v 0.531260 1.130627 2.436395
v 0.663494 1.130627 2.719972
v 0.487182 1.130627 2.341869
v 0.619416 0.949978 2.625446
v 0.531260 0.949978 2.436395
v 0.597377 1.040302 2.578184
v 0.553299 1.040302 2.483659
v 0.356303 1.311275 2.517978
v 0.312225 1.130627 2.423453
v 0.356303 1.130627 2.517978
v 0.356303 0.949978 2.517978
v 0.378343 1.220951 2.565242
v 0.378343 1.040302 2.565242
v 0.444459 1.311275 2.707029
v 0.422421 1.040302 2.659767
v 0.422421 1.220951 2.659767
v 0.444459 0.949978 2.707029
v 0.444459 1.130627 2.707029
v 0.488537 1.130627 2.801556
v 0.444459 1.130627 2.707029
v 0.422421 1.220951 2.659767
v 0.432557 1.199818 2.641577
v 0.449440 1.130627 2.677782
v 0.398792 1.199818 2.569168
v 0.432557 1.061435 2.641577
v 0.378343 1.220951 2.565242
v 0.422421 1.040302 2.659767
v 0.356303 1.130627 2.517978
v 0.378343 1.040302 2.565242
v 0.381909 1.130627 2.532963
v 0.398792 1.061435 2.569168
v 0.531260 1.130627 2.436395
v 0.543162 1.061435 2.501847
v 0.553299 1.040302 2.483659
v 0.597377 1.040302 2.578184
v 0.526279 1.130627 2.465642
v 0.576927 1.061435 2.574256
v 0.543162 1.199818 2.501847
v 0.619416 1.130627 2.625446
v 0.553299 1.220951 2.483659
v 0.593810 1.130627 2.610461
v 0.576927 1.199818 2.574256
v 0.597377 1.220951 2.578184
v 0.418113 1.168708 2.255374
v 0.276753 1.707755 2.028318
v 0.316406 1.730627 2.037262
v 0.373935 1.164337 2.236727
v 0.150211 2.076263 1.680856
v 0.108406 2.053077 1.667297
v 0.290362 1.168708 2.314946
v 0.207292 1.707755 2.060708
v 0.304475 1.164337 2.269116
v 0.188654 1.730627 2.096834
v 0.022459 2.076263 1.740427
v 0.038945 2.053077 1.699687
v 0.304475 1.164337 2.269116
v 0.207292 1.707755 2.060708
v 0.276753 1.707755 2.028318
v 0.373935 1.164337 2.236727
v 0.038945 2.053077 1.699687
v 0.108406 2.053077 1.667297
v 0.203196 2.233765 1.770341
v 0.066268 2.127190 1.476698
v 0.123360 2.348881 1.599132
v 0.152059 2.365364 1.660678
v 0.196230 2.301678 1.755402
v 0.146106 2.012077 1.647910
v 0.073235 2.059280 1.491638
v 0.117405 1.995592 1.586362
v -0.000139 2.012077 1.716105
v -0.073010 2.059280 1.559833
v -0.028839 1.995592 1.654557
v -0.079976 2.127190 1.544893
v 0.056952 2.233765 1.838536
v -0.022885 2.348881 1.667326
v 0.005815 2.365364 1.728873
v 0.049985 2.301678 1.823597
v 0.543162 1.061435 2.501847
v 0.543162 1.199818 2.501847
v 0.576927 1.199818 2.574256
v 0.526279 1.130627 2.465642
v 0.576927 1.061435 2.574256
v 0.593810 1.130627 2.610461
v 0.398792 1.199818 2.569168
v 0.398792 1.061435 2.569168
v 0.432557 1.199818 2.641577
v 0.381909 1.130627 2.532963
v 0.432557 1.061435 2.641577
v 0.449440 1.130627 2.677782
v 0.444459 0.949978 2.707029
v 0.539079 1.130627 2.816157
v 0.488537 1.130627 2.801556
v 0.444459 1.311275 2.707029
v 0.487691 0.920020 2.705955
v 0.487691 1.341234 2.705955
v 0.384916 0.920020 2.485553
v 0.356303 1.311275 2.517978
v 0.356303 0.949978 2.517978
v 0.384915 1.341234 2.485551
v 0.333527 1.130627 2.375351
v 0.312225 1.130627 2.423453
v 0.642192 1.130627 2.768074
v 0.590804 0.920020 2.657873
v 0.619416 0.949978 2.625446
v 0.488029 0.920020 2.437471
v 0.663494 1.130627 2.719972
v 0.531260 0.949978 2.436395
v 0.619416 1.311275 2.625446
v 0.436641 1.130627 2.327268
v 0.590804 1.341234 2.657873
v 0.487182 1.130627 2.341869
v 0.531260 1.311275 2.436395
v 0.488028 1.341234 2.437469
v 0.017753 1.975373 1.717459
v 0.086617 2.242781 1.865140
v 0.056952 2.233765 1.838536
v 0.049985 2.301678 1.823597
v -0.000139 2.012077 1.716105
v 0.079674 2.310467 1.850250
v -0.010852 1.958945 1.656116
v 0.005815 2.365364 1.728873
v -0.028839 1.995592 1.654557
v 0.016182 2.402011 1.714092
v -0.074343 2.050490 1.519959
v -0.022885 2.348881 1.667326
v -0.073010 2.059280 1.559833
v -0.012423 2.385582 1.652748
v -0.079976 2.127190 1.544893
v -0.081287 2.118176 1.505069
v 0.043546 2.050490 1.464986
v 0.117405 1.995592 1.586362
v 0.107038 1.958945 1.601143
v 0.146106 2.012077 1.647910
v 0.073235 2.059280 1.491638
v 0.135643 1.975373 1.662486
v 0.066268 2.127190 1.476698
v 0.203196 2.233765 1.770341
v 0.036603 2.118176 1.450096
v 0.204507 2.242781 1.810167
v 0.105467 2.385582 1.597775
v 0.196230 2.301678 1.755402
v 0.123360 2.348881 1.599132
v 0.197564 2.310467 1.795277
v 0.134072 2.402011 1.659119
v 0.152059 2.365364 1.660678
v 0.480635 1.200255 2.389453
v 0.316406 1.730627 2.037262
v 0.371984 1.858137 2.156450
v 0.418113 1.168708 2.255374
v 0.150211 2.076263 1.680856
v 0.168306 2.197307 1.719661
v 0.022459 2.076263 1.740427
v 0.244233 1.858137 2.216021
v 0.040555 2.197307 1.779233
v 0.188654 1.730627 2.096834
v 0.352884 1.200255 2.449025
v 0.290362 1.168708 2.314946
v -0.252044 2.518801 1.139621
v -0.129652 2.579824 1.402092
v -0.162453 2.635642 1.331749
v -0.090519 2.549105 1.486013
v -0.243375 2.595979 1.158212
v -0.069569 2.344884 1.530940
v -0.278599 2.462656 1.082675
v -0.093961 2.231894 1.478631
v -0.000076 2.242231 1.679969
v -0.020851 2.143013 1.635415
v -0.224494 2.250238 1.198702
v -0.258916 2.270781 1.124884
v -0.202101 2.194093 1.246724
v -0.130694 2.299762 1.399857
v -0.124009 2.234595 1.414194
v -0.106035 2.250238 1.143464
v -0.160140 2.462656 1.027436
v -0.133585 2.518801 1.084382
v -0.124916 2.595979 1.102973
v -0.140457 2.270781 1.069646
v -0.043995 2.635642 1.276510
v -0.083642 2.194093 1.191486
v -0.012235 2.299762 1.344619
v -0.005550 2.234595 1.358955
v -0.011193 2.579824 1.346854
v 0.027940 2.549105 1.430775
v 0.048890 2.344884 1.475701
v 0.024498 2.231894 1.423393
v 0.118383 2.242231 1.624730
v 0.097608 2.143013 1.580177
v 0.381811 1.583242 2.193876
v 0.492537 1.760856 2.431330
v 0.400171 1.484742 2.233251
v 0.534588 1.721572 2.521508
v 0.452717 2.029805 2.345936
v 0.478986 2.143042 2.402269
v 0.392534 2.147886 2.216872
v 0.400334 2.032740 2.233599
v 0.319647 1.860867 2.060566
v 0.350930 1.824191 2.127653
v 0.363762 2.143042 2.455999
v 0.277309 2.147886 2.270602
v 0.337493 2.029805 2.399666
v 0.419363 1.721572 2.575238
v 0.285109 2.032740 2.287329
v 0.204423 1.860867 2.114296
v 0.235706 1.824191 2.181383
v 0.377313 1.760856 2.485060
v 0.284947 1.484742 2.286981
v 0.266586 1.583242 2.247606
v 0.531043 1.287845 2.517867
v 0.497503 1.657907 2.445940
v 0.574761 1.285173 2.611621
v 0.463176 1.593792 2.372325
v 0.418855 1.287845 2.570182
v 0.385315 1.657907 2.498254
v 0.350988 1.593792 2.424640
v 0.462573 1.285173 2.663935
v 0.072512 2.103677 1.604082
v -0.015407 2.214659 1.415540
v 0.024498 2.231894 1.423393
v 0.097608 2.143013 1.580177
v -0.093961 2.231894 1.478631
v 0.013592 2.103677 1.631556
v -0.020851 2.143013 1.635415
v -0.074327 2.214659 1.443015
v 0.363421 2.178386 2.213179
v 0.319647 1.860867 2.060566
v 0.278386 1.849249 2.030820
v 0.392534 2.147886 2.216872
v 0.204423 1.860867 2.114296
v 0.277309 2.147886 2.270602
v 0.293193 2.178386 2.245926
v 0.208158 1.849249 2.063568
v 0.013592 2.103677 1.631556
v -0.074327 2.214659 1.443015
v -0.015407 2.214659 1.415540
v 0.072512 2.103677 1.604082
v 0.197564 2.310467 1.795277
v 0.079674 2.310467 1.850250
v 0.086617 2.242781 1.865140
v 0.204507 2.242781 1.810167
v 0.400334 2.032740 2.233599
v 0.422053 2.000134 2.338914
v 0.384528 2.002237 2.258443
v 0.452717 2.029805 2.345936
v 0.285109 2.032740 2.287329
v 0.351825 2.000134 2.371662
v 0.337493 2.029805 2.399666
v 0.314300 2.002237 2.291191
v 0.208158 1.849249 2.063568
v 0.293193 2.178386 2.245926
v 0.363421 2.178386 2.213179
v 0.278386 1.849249 2.030820
v 0.351825 2.000134 2.371662
v 0.314300 2.002237 2.291191
v 0.422053 2.000134 2.338914
v 0.384528 2.002237 2.258443
v 0.135643 1.975373 1.662486
v 0.017753 1.975373 1.717459
v -0.010852 1.958945 1.656116
v 0.107038 1.958945 1.601143
v 0.432884 1.579865 2.366985
v 0.531043 1.287845 2.517867
v 0.498711 1.288425 2.508152
v 0.463176 1.593792 2.372325
v 0.366367 1.579865 2.398002
v 0.418855 1.287845 2.570182
v 0.350988 1.593792 2.424640
v 0.432194 1.288425 2.539170
v 0.266586 1.583242 2.247606
v 0.377313 1.760856 2.485060
v 0.383944 1.769888 2.440542
v 0.273420 1.592642 2.203522
v 0.454172 1.769888 2.407795
v 0.381811 1.583242 2.193876
v 0.343648 1.592642 2.170774
v 0.492537 1.760856 2.431330
v -0.090519 2.549105 1.486013
v -0.069569 2.344884 1.530940
v -0.029593 2.361424 1.538947
v -0.050763 2.567800 1.493547
v 0.029327 2.361424 1.511472
v 0.027940 2.549105 1.430775
v 0.008157 2.567800 1.466072
v 0.048890 2.344884 1.475701
v 0.492537 1.760856 2.431330
v 0.422053 2.000134 2.338914
v 0.452717 2.029805 2.345936
v 0.454172 1.769888 2.407795
v 0.377313 1.760856 2.485060
v 0.337493 2.029805 2.399666
v 0.351825 2.000134 2.371662
v 0.383944 1.769888 2.440542
v 0.432194 1.288425 2.539170
v 0.366367 1.579865 2.398002
v 0.432884 1.579865 2.366985
v 0.498711 1.288425 2.508152
v 0.135643 1.975373 1.662486
v 0.204507 2.242781 1.810167
v 0.017753 1.975373 1.717459
v 0.086617 2.242781 1.865140
v -0.115150 2.164928 1.201639
v -0.005550 2.234595 1.358955
v -0.021349 2.214451 1.402797
v -0.083642 2.194093 1.191486
v -0.124009 2.234595 1.414194
v -0.202101 2.194093 1.246724
v -0.174070 2.164928 1.229114
v -0.080269 2.214451 1.430272
v 0.029327 2.361424 1.511472
v 0.008157 2.567800 1.466072
v -0.029593 2.361424 1.538947
v -0.050763 2.567800 1.493547
v 0.454172 1.769888 2.407795
v 0.343648 1.592642 2.170774
v 0.383944 1.769888 2.440542
v 0.273420 1.592642 2.203522
v -0.021349 2.214451 1.402797
v -0.012235 2.299762 1.344619
v -0.033491 2.332818 1.376757
v -0.005550 2.234595 1.358955
v -0.080269 2.214451 1.430272
v -0.092411 2.332818 1.404232
v -0.130694 2.299762 1.399857
v -0.124009 2.234595 1.414194
v 0.422053 2.000134 2.338914
v 0.454172 1.769888 2.407795
v 0.351825 2.000134 2.371662
v 0.383944 1.769888 2.440542
v -0.115150 2.164928 1.201639
v -0.021349 2.214451 1.402797
v -0.174070 2.164928 1.229114
v -0.080269 2.214451 1.430272
v -0.080269 2.214451 1.430272
v -0.033491 2.332818 1.376757
v -0.092411 2.332818 1.404232
v -0.021349 2.214451 1.402797
v -0.252044 2.518801 1.139621
v -0.224494 2.250238 1.198702
v -0.186212 2.283294 1.203075
v -0.208220 2.497834 1.155879
v -0.127292 2.283294 1.175600
v -0.133585 2.518801 1.084382
v -0.149300 2.497834 1.128404
v -0.106035 2.250238 1.143464
v -0.011193 2.579824 1.346854
v -0.149300 2.497834 1.128404
v -0.133585 2.518801 1.084382
v -0.049558 2.547565 1.342302
v -0.129652 2.579824 1.402092
v -0.252044 2.518801 1.139621
v -0.208220 2.497834 1.155879
v -0.108478 2.547565 1.369777
v 0.488029 0.920020 2.437471
v 0.590804 0.920020 2.657873
v 0.384916 0.920020 2.485553
v 0.487691 0.920020 2.705955
v 0.333527 1.130627 2.375351
v 0.642192 1.130627 2.768074
v 0.436641 1.130627 2.327268
v 0.539079 1.130627 2.816157
v 0.384915 1.341234 2.485551
v 0.590804 1.341234 2.657873
v 0.488028 1.341234 2.437469
v 0.487691 1.341234 2.705955
v -0.186212 2.283294 1.203075
v -0.149300 2.497834 1.128404
v -0.208220 2.497834 1.155879
v -0.127292 2.283294 1.175600
v -0.208220 2.497834 1.155879
v -0.049558 2.547565 1.342302
v -0.108478 2.547565 1.369777
v -0.149300 2.497834 1.128404
vn -0.358024 0.530200 -0.768495
vn -0.357933 0.530300 -0.768537
vn -0.358338 0.530100 -0.768458
vn -0.855512 0.407200 -0.319809
vn 0.304925 0.407200 -0.860929
vn -0.085707 0.979200 -0.183799
vn -0.085254 0.979200 -0.184011
vn -0.085435 0.979200 -0.183926
vn -0.410700 -0.235900 -0.880750
vn -0.410429 -0.235800 -0.880877
vn -0.646062 0.752300 0.129357
vn -0.646062 0.752200 0.129357
vn 0.514374 0.752200 -0.411763
vn 0.514374 0.752300 -0.411763
vn 0.264734 -0.181200 -0.947119
vn 0.264691 -0.181200 -0.947210
vn -0.895745 -0.181200 -0.406089
vn -0.895703 -0.181200 -0.405999
vn -0.895745 -0.180900 -0.406089
vn 0.402671 0.303600 0.863530
vn 0.402943 0.303600 0.863403
vn -0.091690 0.976000 -0.197339
vn -0.091557 0.976100 -0.197291
vn -0.099696 0.971800 -0.213798
vn -0.360874 0.520400 -0.773896
vn -0.360560 0.520700 -0.773932
vn 0.254923 -0.797600 0.546685
vn 0.255237 -0.797500 0.546649
vn -0.410429 -0.235700 -0.880877
vn 0.516317 0.744100 -0.423923
vn 0.516577 0.744200 -0.423603
vn -0.656626 0.744100 0.123029
vn -0.656548 0.744200 0.123434
vn -0.410247 -0.235700 -0.880961
vn -0.410066 -0.235700 -0.881046
vn 0.380586 0.436200 0.815460
vn 0.380634 0.436300 0.815327
vn 0.955716 0.191400 0.223541
vn -0.443080 0.191400 0.875810
vn 0.264649 -0.180700 -0.947300
vn -0.895787 -0.180700 -0.406180
vn 0.191815 0.891600 0.410165
vn 0.191766 0.891600 0.410298
vn 0.191676 0.891600 0.410340
vn 0.191724 0.891600 0.410207
vn -0.543382 -0.504300 0.671122
vn -0.543515 -0.504300 0.671074
vn -0.543424 -0.504300 0.671032
vn 0.863437 -0.504300 0.015001
vn 0.863389 -0.504300 0.015134
vn 0.863346 -0.504300 0.015043
vn -0.287379 0.336800 0.896662
vn 0.871607 0.336800 0.356218
vn 0.010687 0.999700 0.021498
vn 0.010016 0.999700 0.021479
vn 0.010330 0.999700 0.021443
vn -0.433063 0.684800 0.586137
vn -0.433105 0.684800 0.586046
vn 0.727332 0.684800 0.044926
vn 0.727374 0.684800 0.045016
vn 0.219931 0.854000 0.471643
vn 0.391598 0.376200 0.839785
vn 0.705779 0.635800 -0.312449
vn -0.693016 0.635800 0.339820
vn 0.368421 -0.491500 0.789134
vn 0.368560 -0.491600 0.788959
vn 0.368016 -0.491700 0.789213
vn -0.439637 -0.322600 0.838235
vn 0.924718 -0.322600 0.202025
vn 0.244654 0.815400 0.524662
vn 0.245022 0.815500 0.524269
vn 0.224960 0.846600 0.482428
vn 0.225153 0.846800 0.481896
vn -0.209039 -0.868500 -0.449468
vn -0.209407 -0.868600 -0.449076
vn 0.743703 0.659600 0.108901
vn -0.394620 0.659600 0.639709
vn -0.740994 -0.667400 -0.073752
vn -0.741109 -0.667300 -0.074471
vn -0.741079 -0.667400 -0.073933
vn 0.419327 -0.667300 -0.615592
vn -0.426622 0.243100 0.871115
vn -0.471840 0.400400 0.785504
vn -0.473849 0.411100 0.778827
vn -0.501177 0.553000 0.665565
vn 0.941540 0.243100 0.233130
vn 0.905023 0.400400 0.143462
vn 0.901110 0.411100 0.137673
vn 0.832002 0.553000 0.043893
vn 0.832044 0.553000 0.043984
vn -0.219393 -0.854000 -0.471673
vn -0.219931 -0.853900 -0.471643
vn 0.906308 -0.000000 -0.422618
vn -0.906308 -0.000000 0.422618
vn -0.985678 -0.000200 -0.168303
vn -0.865667 -0.492600 0.089535
vn -0.865619 -0.492700 0.089403
vn -0.985721 -0.000200 -0.168394
vn -0.625246 -0.492600 0.605357
vn -0.865631 0.492600 0.089850
vn -0.624937 -0.492700 0.605545
vn -0.505053 -0.000000 0.863111
vn -0.624901 0.492300 0.605859
vn -0.504612 -0.000200 0.863347
vn -0.625119 0.492500 0.605629
vn 0.985678 -0.000200 0.168303
vn 0.865631 0.492600 -0.089850
vn 0.865667 0.492500 -0.089535
vn 0.625246 0.492600 -0.605357
vn 0.985721 -0.000200 0.168394
vn 0.625028 0.492500 -0.605587
vn 0.865631 -0.492600 -0.089850
vn 0.505053 -0.000000 -0.863111
vn 0.504612 -0.000200 -0.863347
vn 0.624895 -0.492700 -0.605635
vn 0.625246 -0.492600 -0.605357
vn 0.379818 -0.272900 -0.883936
vn 0.434543 -0.389100 -0.812247
vn 0.440062 -0.401800 -0.803014
vn 0.484058 -0.506400 -0.713634
vn -0.921277 -0.272900 -0.277225
vn -0.901536 -0.389100 -0.189223
vn -0.898011 -0.401800 -0.179061
vn -0.857821 -0.506400 -0.087905
vn -0.388784 -0.389900 -0.834697
vn -0.341191 -0.588600 -0.732871
vn -0.341856 -0.587900 -0.733112
vn -0.388917 -0.389900 -0.834746
vn -0.276537 -0.755500 -0.593982
vn -0.276815 -0.755600 -0.593632
vn 0.906139 -0.000200 -0.422981
vn -0.906477 -0.000200 0.422256
vn -0.436788 -0.652500 0.619320
vn -0.277587 -0.000000 0.960726
vn -0.436788 0.652500 0.619320
vn -0.755188 -0.652500 -0.063492
vn -0.755376 0.652200 -0.063184
vn -0.755327 0.652300 -0.063317
vn -0.914389 -0.000000 -0.404899
vn 0.914437 -0.000500 0.404766
vn 0.755188 -0.652500 0.063492
vn 0.436788 -0.652500 -0.619320
vn 0.914389 -0.000000 0.404899
vn 0.755188 0.652500 0.063492
vn 0.277720 -0.000600 -0.960678
vn 0.277587 -0.000000 -0.960726
vn 0.437144 0.652200 -0.619265
vn 0.436788 0.652500 -0.619320
vn -0.739611 -0.339100 0.581340
vn -0.661300 -0.035000 0.749279
vn -0.641916 -0.121600 0.757011
vn -0.684672 0.298800 0.664846
vn -0.691151 -0.312900 0.651426
vn -0.686560 0.214600 0.694635
vn -0.844970 -0.399600 0.355398
vn -0.765827 0.414800 0.491282
vn -0.868608 -0.414800 0.270868
vn -0.815386 0.399600 0.418839
vn -0.973488 -0.214300 0.079789
vn -0.943285 0.312900 0.110723
vn -0.949576 -0.298300 0.096996
vn -0.920745 0.339100 0.192897
vn -0.992520 0.121600 0.005138
vn -0.999026 0.035000 0.025495
vn 0.686868 -0.214300 -0.694447
vn 0.765827 -0.414800 -0.491282
vn 0.815386 -0.399600 -0.418839
vn 0.943285 -0.312900 -0.110723
vn 0.684763 -0.298300 -0.664888
vn 0.920745 -0.339100 -0.192897
vn 0.641916 0.121600 -0.757011
vn 0.992520 -0.121600 -0.005138
vn 0.661608 0.035000 -0.749092
vn 0.999056 -0.035000 -0.024958
vn 0.739611 0.339100 -0.581340
vn 0.949358 0.298600 -0.097225
vn 0.691151 0.312900 -0.651426
vn 0.973433 0.214600 -0.079433
vn 0.844970 0.399600 -0.355398
vn 0.868608 0.414800 -0.270868
vn -0.906435 -0.000200 0.422346
vn 0.439197 -0.673500 -0.594514
vn 0.439155 -0.673500 -0.594605
vn -0.737777 -0.673500 -0.045793
vn -0.737734 -0.673500 -0.045702
vn 0.475818 0.327100 -0.816488
vn 0.475860 0.327100 -0.816397
vn -0.931273 0.327100 -0.160240
vn -0.931316 0.327100 -0.160331
vn -0.198570 -0.882400 -0.426545
vn -0.198926 -0.882300 -0.426599
vn 0.411202 0.236200 0.880406
vn 0.410930 0.236100 0.880532
vn 0.411202 0.236300 0.880406
vn 0.693016 -0.635800 -0.339820
vn 0.692835 -0.636100 -0.339735
vn -0.705779 -0.635800 0.312449
vn -0.360578 0.521600 -0.773262
vn -0.360258 0.521400 -0.773521
vn -0.360167 0.521400 -0.773564
vn -0.010016 -0.999700 -0.021479
vn -0.009738 -0.999700 -0.021830
vn 0.099696 -0.971800 0.213798
vn 0.290228 -0.360800 -0.886294
vn -0.865496 -0.360800 -0.347372
vn -0.865502 -0.361100 -0.347148
vn -0.839653 0.542900 -0.014396
vn -0.839605 0.543100 -0.014529
vn -0.839653 0.543000 -0.014396
vn -0.839520 0.543100 -0.014348
vn 0.528690 0.543000 -0.652465
vn 0.528690 0.542900 -0.652465
vn 0.528642 0.543100 -0.652332
vn 0.528558 0.543100 -0.652514
vn -0.264691 0.181200 0.947210
vn 0.895745 0.181200 0.406089
vn 0.447059 -0.204400 -0.870825
vn -0.954455 -0.204400 -0.217288
vn -0.372296 -0.471300 -0.799575
vn -0.372707 -0.471400 -0.799273
vn 0.360874 -0.520400 0.773896
vn 0.361369 -0.520300 0.773776
vn 0.361550 -0.520300 0.773691
vn 0.648494 -0.751900 -0.118464
vn -0.507593 -0.751900 0.420627
vn 0.410700 0.235900 0.880750
vn -0.236756 0.827500 -0.509145
vn -0.236805 0.827500 -0.509013
vn -0.236944 0.827600 -0.508837
vn -0.236895 0.827600 -0.508970
vn 0.895703 0.181200 0.405999
vn 0.895564 0.181700 0.406174
vn -0.264734 0.181200 0.947119
vn -0.264510 0.181700 0.947125
vn -0.401318 -0.313500 -0.860630
vn -0.400732 -0.313900 -0.860793
vn -0.400823 -0.313900 -0.860751
vn 0.092046 -0.976000 0.197394
vn 0.092101 -0.976100 0.197037
vn 0.092330 -0.976100 0.196820
vn 0.092240 -0.976100 0.196862
vn 0.411021 0.236200 0.880490
vn 0.647161 -0.751700 -0.127001
vn 0.647511 -0.751500 -0.126723
vn 0.647378 -0.751600 -0.126771
vn -0.513288 -0.751500 0.414566
vn -0.513276 -0.751700 0.414119
vn -0.210814 -0.866100 -0.453275
vn 0.211859 -0.866100 0.452677
vn 0.211811 -0.866100 0.452810
vn -0.422618 -0.000000 -0.906308
vn 0.422618 -0.000000 0.906308
vn -0.211309 0.866000 -0.453154
vn 0.211545 0.866200 0.452713
vn -0.210820 0.866200 -0.453051
vn 0.411111 0.236100 0.880448
vn 0.087808 -0.978400 0.187123
vn 0.087144 -0.978500 0.186881
vt 0.000000 0.000000
s 1
f 1/1/1 2/1/2 3/1/2
f 2/1/2 1/1/1 4/1/3
f 5/1/4 6/1/4 7/1/4
f 6/1/4 5/1/4 8/1/4
f 9/1/5 10/1/5 11/1/5
f 9/1/5 11/1/5 12/1/5
f 13/1/6 14/1/7 15/1/7
f 16/1/8 15/1/7 14/1/7
f 17/1/9 18/1/10 19/1/9
f 20/1/9 19/1/9 18/1/10
f 21/1/11 22/1/12 23/1/12
f 21/1/11 23/1/12 24/1/11
f 25/1/13 26/1/14 27/1/14
f 26/1/14 25/1/13 28/1/13
f 29/1/15 30/1/16 31/1/16
f 30/1/16 29/1/15 32/1/15
f 33/1/17 34/1/18 35/1/18
f 33/1/17 35/1/18 36/1/19
f 37/1/20 38/1/20 39/1/21
f 38/1/20 37/1/20 40/1/20
f 41/1/22 42/1/23 43/1/22
f 42/1/23 41/1/22 44/1/22
f 45/1/24 46/1/24 47/1/24
f 47/1/24 48/1/24 45/1/24
f 49/1/25 50/1/26 51/1/25
f 50/1/26 49/1/25 52/1/25
f 53/1/27 54/1/28 55/1/27
f 54/1/28 53/1/27 56/1/27
f 57/1/10 58/1/9 59/1/9
f 58/1/9 57/1/10 60/1/29
f 61/1/30 62/1/31 63/1/30
f 61/1/30 63/1/30 64/1/30
f 65/1/32 66/1/32 67/1/32
f 66/1/32 65/1/32 68/1/33
f 69/1/9 70/1/34 71/1/35
f 70/1/34 69/1/9 72/1/34
f 73/1/36 74/1/36 75/1/36
f 74/1/36 73/1/36 76/1/37
f 77/1/38 78/1/38 79/1/38
f 78/1/38 77/1/38 80/1/38
f 81/1/39 82/1/39 83/1/39
f 81/1/39 83/1/39 84/1/39
f 85/1/15 86/1/16 87/1/16
f 86/1/16 85/1/15 88/1/40
f 89/1/17 90/1/41 91/1/18
f 91/1/18 92/1/17 89/1/17
f 93/1/42 94/1/43 95/1/44
f 94/1/43 93/1/42 96/1/45
f 97/1/46 98/1/46 99/1/47
f 98/1/46 97/1/46 100/1/48
f 101/1/49 102/1/50 103/1/51
f 101/1/49 104/1/49 102/1/50
f 105/1/52 106/1/52 107/1/52
f 107/1/52 108/1/52 105/1/52
f 109/1/53 110/1/53 111/1/53
f 110/1/53 109/1/53 112/1/53
f 113/1/54 114/1/54 115/1/55
f 114/1/54 113/1/54 116/1/56
f 117/1/57 118/1/58 119/1/58
f 118/1/58 117/1/57 120/1/57
f 121/1/59 122/1/60 123/1/60
f 121/1/59 123/1/60 124/1/59
f 125/1/61 126/1/61 127/1/61
f 127/1/61 126/1/61 128/1/61
f 129/1/62 130/1/62 131/1/62
f 129/1/62 131/1/62 132/1/62
f 133/1/63 134/1/63 135/1/63
f 133/1/63 135/1/63 136/1/63
f 137/1/64 138/1/64 139/1/64
f 138/1/64 137/1/64 140/1/64
f 141/1/65 142/1/66 143/1/67
f 142/1/66 141/1/65 144/1/66
f 145/1/68 146/1/68 147/1/68
f 146/1/68 145/1/68 148/1/68
f 149/1/69 150/1/69 151/1/69
f 149/1/69 151/1/69 152/1/69
f 153/1/70 154/1/71 155/1/71
f 156/1/70 155/1/71 154/1/71
f 157/1/72 158/1/72 159/1/73
f 157/1/72 159/1/73 160/1/72
f 161/1/74 162/1/75 163/1/74
f 164/1/74 163/1/74 162/1/75
f 165/1/76 166/1/76 167/1/76
f 167/1/76 168/1/76 165/1/76
f 169/1/77 170/1/77 171/1/77
f 170/1/77 169/1/77 172/1/77
f 173/1/78 174/1/79 175/1/80
f 174/1/79 173/1/78 176/1/79
f 177/1/81 178/1/81 179/1/81
f 177/1/81 179/1/81 180/1/81
f 181/1/82 182/1/83 183/1/82
f 182/1/83 181/1/82 184/1/84
f 185/1/85 182/1/83 184/1/84
f 182/1/83 185/1/85 186/1/85
f 187/1/86 188/1/87 189/1/88
f 188/1/87 187/1/86 190/1/86
f 191/1/89 189/1/88 188/1/87
f 191/1/89 188/1/87 192/1/90
f 193/1/91 194/1/92 195/1/91
f 193/1/91 195/1/91 196/1/92
f 197/1/93 198/1/93 199/1/93
f 197/1/93 199/1/93 200/1/93
f 198/1/93 201/1/93 199/1/93
f 202/1/93 197/1/93 200/1/93
f 203/1/93 201/1/93 198/1/93
f 197/1/93 202/1/93 204/1/93
f 205/1/93 201/1/93 203/1/93
f 206/1/93 204/1/93 202/1/93
f 201/1/93 205/1/93 207/1/93
f 206/1/93 202/1/93 208/1/93
f 205/1/93 208/1/93 207/1/93
f 208/1/93 205/1/93 206/1/93
f 209/1/94 210/1/94 211/1/94
f 212/1/94 211/1/94 210/1/94
f 209/1/94 211/1/94 213/1/94
f 211/1/94 212/1/94 214/1/94
f 209/1/94 213/1/94 215/1/94
f 212/1/94 216/1/94 214/1/94
f 215/1/94 213/1/94 217/1/94
f 212/1/94 218/1/94 216/1/94
f 219/1/94 215/1/94 217/1/94
f 218/1/94 219/1/94 216/1/94
f 215/1/94 219/1/94 220/1/94
f 220/1/94 219/1/94 218/1/94
f 221/1/95 222/1/96 223/1/97
f 221/1/95 223/1/97 224/1/98
f 222/1/96 225/1/99 223/1/97
f 226/1/100 221/1/95 224/1/98
f 225/1/99 222/1/96 227/1/101
f 221/1/95 226/1/100 228/1/100
f 229/1/102 225/1/99 227/1/101
f 230/1/103 228/1/100 226/1/100
f 225/1/99 229/1/102 231/1/104
f 230/1/103 226/1/100 232/1/105
f 229/1/102 232/1/105 231/1/104
f 232/1/105 229/1/102 230/1/103
f 233/1/106 234/1/107 235/1/108
f 234/1/107 236/1/109 235/1/108
f 234/1/107 233/1/106 237/1/110
f 236/1/109 234/1/107 238/1/111
f 233/1/106 239/1/112 237/1/110
f 240/1/113 236/1/109 238/1/111
f 239/1/112 233/1/106 241/1/112
f 240/1/113 238/1/111 242/1/114
f 241/1/112 243/1/115 239/1/112
f 243/1/115 240/1/113 242/1/114
f 241/1/112 244/1/116 243/1/115
f 240/1/113 243/1/115 244/1/116
f 245/1/117 246/1/118 247/1/119
f 246/1/118 245/1/117 248/1/117
f 249/1/120 247/1/119 246/1/118
f 246/1/118 250/1/120 249/1/120
f 251/1/121 252/1/122 253/1/121
f 252/1/122 251/1/121 254/1/123
f 255/1/124 252/1/122 254/1/123
f 252/1/122 255/1/124 256/1/124
f 257/1/125 258/1/126 259/1/127
f 257/1/125 259/1/127 260/1/128
f 261/1/129 259/1/127 258/1/126
f 259/1/127 261/1/129 262/1/130
f 263/1/93 264/1/93 265/1/93
f 266/1/93 263/1/93 265/1/93
f 263/1/93 266/1/93 267/1/131
f 264/1/93 263/1/93 268/1/93
f 264/1/93 268/1/93 269/1/93
f 269/1/93 268/1/93 270/1/131
f 271/1/94 272/1/94 273/1/132
f 272/1/94 271/1/94 274/1/94
f 275/1/94 274/1/94 271/1/94
f 275/1/94 276/1/94 274/1/94
f 276/1/94 275/1/94 277/1/94
f 277/1/94 275/1/94 278/1/94
f 279/1/93 280/1/93 281/1/93
f 280/1/93 279/1/93 282/1/93
f 279/1/93 281/1/93 283/1/93
f 281/1/93 284/1/93 283/1/93
f 285/1/94 286/1/94 287/1/94
f 286/1/94 285/1/94 288/1/94
f 289/1/94 287/1/94 286/1/94
f 287/1/94 289/1/94 290/1/94
f 291/1/133 292/1/134 293/1/134
f 294/1/135 293/1/134 292/1/134
f 292/1/134 291/1/133 295/1/133
f 292/1/134 296/1/135 294/1/135
f 297/1/136 295/1/133 291/1/133
f 296/1/135 298/1/137 294/1/135
f 297/1/136 291/1/133 299/1/136
f 296/1/135 300/1/138 298/1/137
f 301/1/139 297/1/136 299/1/136
f 301/1/139 298/1/137 300/1/138
f 299/1/136 302/1/139 301/1/139
f 298/1/137 301/1/139 302/1/139
f 303/1/140 304/1/141 305/1/141
f 306/1/142 305/1/141 304/1/141
f 303/1/140 305/1/141 307/1/143
f 305/1/141 306/1/142 308/1/142
f 309/1/144 303/1/140 307/1/143
f 310/1/145 308/1/142 306/1/142
f 303/1/140 309/1/144 311/1/144
f 308/1/142 310/1/145 312/1/146
f 313/1/147 311/1/144 309/1/144
f 310/1/145 313/1/147 312/1/146
f 311/1/144 313/1/147 314/1/148
f 313/1/147 310/1/145 314/1/148
f 315/1/149 316/1/150 317/1/151
f 316/1/150 318/1/152 317/1/151
f 315/1/149 317/1/151 319/1/153
f 318/1/152 316/1/150 320/1/154
f 319/1/153 321/1/155 315/1/149
f 320/1/154 322/1/156 318/1/152
f 321/1/155 319/1/153 323/1/157
f 320/1/154 324/1/158 322/1/156
f 325/1/159 321/1/155 323/1/157
f 324/1/158 326/1/160 322/1/156
f 325/1/159 323/1/157 327/1/161
f 326/1/160 324/1/158 328/1/162
f 329/1/163 325/1/159 327/1/161
f 328/1/162 329/1/163 326/1/160
f 325/1/159 329/1/163 330/1/164
f 328/1/162 330/1/164 329/1/163
f 331/1/165 332/1/166 333/1/167
f 333/1/167 332/1/166 334/1/168
f 332/1/166 331/1/165 335/1/169
f 336/1/170 333/1/167 334/1/168
f 331/1/165 337/1/171 335/1/169
f 338/1/172 336/1/170 334/1/168
f 337/1/171 331/1/165 339/1/173
f 336/1/170 338/1/172 340/1/174
f 341/1/175 337/1/171 339/1/173
f 338/1/172 342/1/176 340/1/174
f 337/1/171 341/1/175 343/1/177
f 340/1/174 342/1/176 344/1/178
f 345/1/179 343/1/177 341/1/175
f 346/1/180 344/1/178 342/1/176
f 343/1/177 345/1/179 346/1/180
f 344/1/178 346/1/180 345/1/179
f 347/1/93 348/1/93 349/1/93
f 348/1/93 347/1/93 350/1/93
f 351/1/93 349/1/93 348/1/93
f 349/1/93 351/1/93 352/1/93
f 353/1/94 354/1/94 355/1/94
f 354/1/94 353/1/94 356/1/94
f 357/1/94 354/1/94 356/1/94
f 357/1/94 356/1/94 358/1/94
f 359/1/94 360/1/94 361/1/94
f 362/1/94 361/1/94 360/1/94
f 359/1/94 361/1/94 363/1/94
f 360/1/94 364/1/94 362/1/94
f 363/1/94 365/1/94 359/1/94
f 364/1/94 360/1/94 366/1/94
f 366/1/94 367/1/94 364/1/94
f 367/1/94 366/1/94 368/1/94
f 369/1/94 359/1/94 365/1/94
f 369/1/94 365/1/94 370/1/94
f 370/1/94 371/1/94 369/1/94
f 372/1/94 369/1/94 371/1/94
f 371/1/94 373/1/94 372/1/94
f 374/1/93 375/1/93 376/1/93
f 375/1/93 377/1/93 376/1/93
f 375/1/93 374/1/93 378/1/93
f 379/1/93 376/1/93 377/1/93
f 380/1/93 378/1/93 374/1/93
f 381/1/93 380/1/93 374/1/93
f 380/1/93 381/1/93 382/1/93
f 383/1/93 376/1/93 379/1/93
f 379/1/93 384/1/93 383/1/93
f 385/1/93 383/1/93 384/1/93
f 383/1/93 385/1/93 386/1/93
f 387/1/93 386/1/93 385/1/93
f 386/1/93 387/1/93 388/1/93
f 389/1/93 390/1/93 391/1/93
f 392/1/93 391/1/93 390/1/93
f 393/1/93 392/1/93 390/1/93
f 392/1/93 393/1/93 394/1/93
f 395/1/93 394/1/93 393/1/93
f 395/1/93 393/1/93 396/1/93
f 396/1/93 397/1/93 395/1/93
f 397/1/93 396/1/93 398/1/131
f 399/1/94 400/1/94 401/1/94
f 401/1/94 402/1/94 399/1/94
f 401/1/94 400/1/94 403/1/94
f 404/1/94 403/1/94 400/1/94
f 403/1/94 404/1/94 405/1/181
f 402/1/94 401/1/94 406/1/94
f 407/1/94 402/1/94 406/1/94
f 407/1/94 406/1/94 408/1/94
f 409/1/93 410/1/93 411/1/93
f 410/1/93 409/1/93 412/1/93
f 413/1/94 414/1/94 415/1/94
f 414/1/94 413/1/94 416/1/181
f 417/1/182 418/1/183 419/1/183
f 417/1/182 419/1/183 420/1/182
f 421/1/184 422/1/185 423/1/185
f 422/1/185 421/1/184 424/1/184
f 425/1/186 426/1/186 427/1/187
f 426/1/186 425/1/186 428/1/186
f 429/1/188 430/1/189 431/1/189
f 429/1/188 431/1/189 432/1/188
f 433/1/190 434/1/190 435/1/191
f 433/1/190 435/1/191 436/1/191
f 437/1/192 438/1/192 439/1/193
f 439/1/193 440/1/194 437/1/192
f 441/1/195 442/1/195 443/1/196
f 442/1/195 441/1/195 444/1/195
f 445/1/197 446/1/197 447/1/197
f 446/1/197 445/1/197 448/1/197
f 449/1/198 450/1/199 451/1/199
f 449/1/198 451/1/199 452/1/200
f 453/1/201 454/1/202 455/1/202
f 454/1/202 456/1/201 455/1/202
f 457/1/203 458/1/203 459/1/203
f 459/1/203 460/1/203 457/1/203
f 461/1/204 462/1/204 463/1/204
f 462/1/204 461/1/204 464/1/204
f 465/1/205 466/1/205 467/1/206
f 466/1/205 465/1/205 468/1/205
f 469/1/207 470/1/208 471/1/209
f 471/1/209 472/1/210 469/1/207
f 473/1/211 474/1/212 475/1/213
f 474/1/212 473/1/211 476/1/214
f 477/1/215 478/1/215 479/1/215
f 477/1/215 479/1/215 480/1/215
f 481/1/216 482/1/216 483/1/216
f 482/1/216 481/1/216 484/1/216
f 485/1/217 486/1/217 487/1/217
f 486/1/217 485/1/217 488/1/217
f 489/1/218 490/1/218 491/1/218
f 491/1/218 492/1/218 489/1/218
f 493/1/219 494/1/220 495/1/219
f 493/1/219 495/1/219 496/1/220
f 497/1/221 498/1/222 499/1/223
f 500/1/221 499/1/223 498/1/222
f 501/1/224 502/1/224 503/1/224
f 502/1/224 501/1/224 504/1/224
f 505/1/225 506/1/225 507/1/225
f 505/1/225 507/1/225 508/1/225
f 509/1/226 510/1/226 511/1/193
f 512/1/226 511/1/193 510/1/226
f 513/1/227 514/1/228 515/1/229
f 516/1/230 515/1/229 514/1/228
f 517/1/231 518/1/232 519/1/231
f 518/1/232 517/1/231 520/1/231
f 521/1/233 522/1/233 523/1/234
f 521/1/233 523/1/234 524/1/233
f 525/1/235 526/1/236 527/1/237
f 528/1/235 527/1/237 526/1/236
f 529/1/238 530/1/239 531/1/240
f 532/1/241 531/1/240 530/1/239
f 533/1/194 534/1/194 535/1/242
f 534/1/194 533/1/194 536/1/226
f 537/1/215 538/1/215 539/1/215
f 537/1/215 539/1/215 540/1/215
f 541/1/216 542/1/216 543/1/216
f 542/1/216 541/1/216 544/1/216
f 545/1/243 546/1/244 547/1/243
f 546/1/244 545/1/243 548/1/245
f 549/1/246 550/1/247 551/1/246
f 549/1/246 551/1/246 552/1/246
f 553/1/248 554/1/249 555/1/248
f 556/1/250 555/1/248 554/1/249
f 555/1/248 557/1/251 553/1/248
f 554/1/249 558/1/252 556/1/250
f 559/1/251 553/1/248 557/1/251
f 560/1/252 556/1/250 558/1/252
f 557/1/251 561/1/253 559/1/251
f 558/1/252 562/1/254 560/1/252
f 563/1/255 559/1/251 561/1/253
f 564/1/254 560/1/252 562/1/254
f 562/1/254 563/1/255 564/1/254
f 561/1/253 564/1/254 563/1/255
f 565/1/193 566/1/256 567/1/226
f 566/1/256 565/1/193 568/1/226
f 569/1/257 570/1/258 571/1/257
f 570/1/258 569/1/257 572/1/257
