# Blender 5.1.1
# www.blender.org
mtllib keybowbottom3.mtl
o 124911318777461
v 1.078846 -1.205985 2.112830
v 0.979502 -1.052971 2.053612
v 1.038421 -1.052971 2.026138
v 1.019927 -1.205985 2.140304
v 1.115805 -1.181555 2.114363
v 1.038421 -1.052971 2.026138
v 1.080581 -1.048232 2.038827
v 1.078846 -1.205985 2.112830
v 0.979502 -1.052971 2.053612
v 1.019927 -1.205985 2.140304
v 0.997346 -1.181555 2.169601
v 0.962122 -1.048232 2.094065
v 1.109663 -1.249971 2.332745
v 1.019927 -1.205985 2.140304
v 1.168582 -1.249971 2.305270
v 1.078846 -1.205985 2.112830
v 0.979502 -1.052971 2.053612
v 1.001510 -0.838431 2.100809
v 1.038421 -1.052971 2.026138
v 1.060429 -0.838431 2.073334
v 1.115805 -1.181555 2.114363
v 1.196726 -1.221218 2.287900
v 1.168582 -1.249971 2.305270
v 1.078846 -1.205985 2.112830
v 1.109663 -1.249971 2.332745
v 0.997346 -1.181555 2.169601
v 1.019927 -1.205985 2.140304
v 1.078267 -1.221218 2.343138
v 0.979502 -1.052971 2.053612
v 0.981805 -0.856357 2.136274
v 1.001510 -0.838431 2.100809
v 0.962122 -1.048232 2.094065
v 1.100264 -0.856357 2.081036
v 1.080581 -1.048232 2.038827
v 1.038421 -1.052971 2.026138
v 1.060429 -0.838431 2.073334
v 1.767993 -0.297889 3.575947
v 1.635766 -0.758255 3.475739
v 1.705994 -0.758255 3.442991
v 1.697765 -0.297889 3.608695
v 1.207229 -0.918394 2.388148
v 1.054508 -0.868870 2.214464
v 1.113427 -0.868870 2.186990
v 1.148310 -0.918394 2.415622
v 1.228299 -0.971158 2.664138
v 1.346188 -0.971158 2.609165
v 1.374793 -0.987588 2.670509
v 1.256904 -0.987588 2.725482
v 1.346188 -0.971158 2.609165
v 1.159434 -0.703752 2.516458
v 1.277324 -0.703752 2.461485
v 1.228299 -0.971158 2.664138
v 1.613567 -0.021571 3.244780
v 1.697765 -0.297889 3.608695
v 1.767993 -0.297889 3.575947
v 1.543339 -0.021571 3.277528
v 1.191162 -1.133141 2.353693
v 1.166394 -0.800235 2.454404
v 1.225313 -0.800235 2.426930
v 1.132243 -1.133141 2.381167
v 1.054508 -0.868870 2.214464
v 1.148310 -0.918394 2.415622
v 1.110027 -0.885338 2.411247
v 1.016226 -0.835814 2.210091
v 1.228486 -0.885338 2.356009
v 1.113427 -0.868870 2.186990
v 1.134685 -0.835814 2.154853
v 1.207229 -0.918394 2.388148
v 1.277324 -0.703752 2.461485
v 1.166378 -0.636066 2.531349
v 1.284268 -0.636066 2.476376
v 1.159434 -0.703752 2.516458
v 1.735625 0.129833 3.685041
v 1.722844 -0.257408 3.483968
v 1.802142 0.129833 3.654023
v 1.656327 -0.257408 3.514985
v 1.697765 -0.297889 3.608695
v 1.604482 -0.728618 3.467389
v 1.635766 -0.758255 3.475739
v 1.660084 -0.307148 3.586628
v 1.767993 -0.297889 3.575947
v 1.705994 -0.758255 3.442991
v 1.719707 -0.728618 3.413659
v 1.775309 -0.307148 3.532898
v 1.132243 -1.133141 2.381167
v 1.146760 -0.817470 2.490022
v 1.166394 -0.800235 2.454404
v 1.111069 -1.165400 2.413481
v 1.265219 -0.817470 2.434783
v 1.229528 -1.165400 2.358243
v 1.191162 -1.133141 2.353693
v 1.225313 -0.800235 2.426930
v 1.248877 -1.153376 2.477462
v 1.109663 -1.249971 2.332745
v 1.168582 -1.249971 2.305270
v 1.189957 -1.153376 2.504936
v 1.767993 -0.297889 3.575947
v 1.640892 -0.070318 3.244640
v 1.613567 -0.021571 3.244780
v 1.775309 -0.307148 3.532898
v 1.697765 -0.297889 3.608695
v 1.525668 -0.070318 3.298370
v 1.660084 -0.307148 3.586628
v 1.543339 -0.021571 3.277528
v 1.738222 -0.243483 3.457331
v 1.815480 0.129251 3.623012
v 1.802142 0.129833 3.654023
v 1.722844 -0.257408 3.483968
v 1.735625 0.129833 3.685041
v 1.626034 -0.243483 3.509646
v 1.656327 -0.257408 3.514985
v 1.703292 0.129251 3.675326
v 1.705994 -0.758255 3.442991
v 1.533914 -0.763962 3.257317
v 1.604142 -0.763962 3.224569
v 1.635766 -0.758255 3.475739
v 1.268661 -1.134682 2.442165
v 1.168582 -1.249971 2.305270
v 1.196726 -1.221218 2.287900
v 1.248877 -1.153376 2.477462
v 1.109663 -1.249971 2.332745
v 1.189957 -1.153376 2.504936
v 1.150202 -1.134682 2.497404
v 1.078267 -1.221218 2.343138
v 1.438285 -0.896043 2.806667
v 1.320395 -0.896043 2.861640
v 1.374793 -0.987588 2.670509
v 1.256904 -0.987588 2.725482
v 1.594338 -0.466971 3.204546
v 1.709455 0.203978 3.451415
v 1.639995 0.203978 3.483804
v 1.524878 -0.466971 3.236935
v 1.533914 -0.763962 3.257317
v 1.635766 -0.758255 3.475739
v 1.604482 -0.728618 3.467389
v 1.518030 -0.733462 3.281992
v 1.604142 -0.763962 3.224569
v 1.719707 -0.728618 3.413659
v 1.705994 -0.758255 3.442991
v 1.633255 -0.733462 3.228262
v 1.503293 -0.371034 3.191648
v 1.625249 -0.587813 3.269833
v 1.573521 -0.371034 3.158901
v 1.555021 -0.587813 3.302580
v 1.625249 -0.587813 3.269833
v 1.591651 -0.409767 3.139043
v 1.573521 -0.371034 3.158901
v 1.641055 -0.618316 3.244989
v 1.476427 -0.409767 3.192773
v 1.525830 -0.618316 3.298719
v 1.555021 -0.587813 3.302580
v 1.503293 -0.371034 3.191648
v 1.524878 -0.466971 3.236935
v 1.316605 -0.816819 2.790292
v 1.594338 -0.466971 3.204546
v 1.386064 -0.816819 2.757903
v 1.270047 -0.947000 2.522862
v 1.344125 -0.836795 2.681723
v 1.285206 -0.836795 2.709197
v 1.211128 -0.947000 2.550337
v 1.001510 -0.838431 2.100809
v 1.066651 -0.750504 2.240504
v 1.060429 -0.838431 2.073334
v 1.125570 -0.750504 2.213030
v 1.211128 -0.947000 2.550337
v 1.285206 -0.836795 2.709197
v 1.240645 -0.827807 2.691358
v 1.171152 -0.930460 2.542330
v 1.359104 -0.827807 2.636120
v 1.270047 -0.947000 2.522862
v 1.289611 -0.930460 2.487092
v 1.344125 -0.836795 2.681723
v 1.100264 -0.856357 2.081036
v 1.125570 -0.750504 2.213030
v 1.157079 -0.779669 2.202876
v 1.060429 -0.838431 2.073334
v 1.066651 -0.750504 2.240504
v 1.001510 -0.838431 2.100809
v 0.981805 -0.856357 2.136274
v 1.038620 -0.779669 2.258115
v 1.709455 0.203978 3.451415
v 1.612705 -0.443713 3.167840
v 1.721356 0.214169 3.400843
v 1.594338 -0.466971 3.204546
v 1.386064 -0.816819 2.757903
v 1.409027 -0.782883 2.731051
v 1.639995 0.203978 3.483804
v 1.484954 -0.443713 3.227412
v 1.524878 -0.466971 3.236935
v 1.593605 0.214169 3.460414
v 1.316605 -0.816819 2.790292
v 1.281275 -0.782883 2.790622
v 1.347759 -0.544521 2.612533
v 1.284268 -0.636066 2.476376
v 1.166378 -0.636066 2.531349
v 1.229869 -0.544521 2.667506
v 1.597024 0.103149 3.529368
v 1.685180 0.103149 3.718420
v 1.663141 0.193473 3.671157
v 1.619064 0.193473 3.576632
v 1.685180 0.283797 3.718420
v 1.597024 0.283797 3.529368
v 1.729258 0.283797 3.812945
v 1.552947 0.283797 3.434843
v 1.685180 0.464446 3.718420
v 1.597024 0.464446 3.529368
v 1.663141 0.374122 3.671157
v 1.619064 0.374122 3.576632
v 1.771981 0.103149 3.447785
v 1.727903 0.283797 3.353260
v 1.771981 0.283797 3.447785
v 1.771981 0.464446 3.447785
v 1.794020 0.193473 3.495049
v 1.794020 0.374122 3.495049
v 1.860137 0.103149 3.636836
v 1.838098 0.374122 3.589573
v 1.838098 0.193473 3.589573
v 1.860137 0.464446 3.636836
v 1.860137 0.283797 3.636836
v 1.904215 0.283797 3.731361
v 1.860137 0.283797 3.636836
v 1.838098 0.193473 3.589573
v 1.817647 0.214606 3.585647
v 1.834530 0.283797 3.621852
v 1.783882 0.214606 3.513238
v 1.817647 0.352989 3.585647
v 1.794020 0.193473 3.495049
v 1.838098 0.374122 3.589573
v 1.771981 0.283797 3.447785
v 1.794020 0.374122 3.495049
v 1.767000 0.283797 3.477032
v 1.783882 0.352989 3.513238
v 1.597024 0.283797 3.529368
v 1.639513 0.352989 3.580558
v 1.619064 0.374122 3.576632
v 1.663141 0.374122 3.671157
v 1.622630 0.283797 3.544353
v 1.673278 0.352989 3.652968
v 1.639513 0.214606 3.580558
v 1.685180 0.283797 3.718420
v 1.619064 0.193473 3.576632
v 1.690161 0.283797 3.689173
v 1.673278 0.214606 3.652968
v 1.663141 0.193473 3.671157
v 1.531082 0.245716 3.326335
v 1.448014 -0.293331 3.072099
v 1.429375 -0.316203 3.108223
v 1.545195 0.250087 3.280506
v 1.263181 -0.661840 2.751817
v 1.279666 -0.638653 2.711076
v 1.658834 0.245716 3.266764
v 1.517473 -0.293331 3.039709
v 1.614655 0.250087 3.248116
v 1.557127 -0.316203 3.048652
v 1.390932 -0.661840 2.692246
v 1.349126 -0.638653 2.678687
v 1.614655 0.250087 3.248116
v 1.517473 -0.293331 3.039709
v 1.448014 -0.293331 3.072099
v 1.545195 0.250087 3.280506
v 1.349126 -0.638653 2.678687
v 1.279666 -0.638653 2.711076
v 1.297672 -0.819341 2.849926
v 1.160745 -0.712766 2.556283
v 1.217836 -0.934457 2.678716
v 1.246536 -0.950940 2.740263
v 1.290706 -0.887254 2.834987
v 1.240582 -0.597653 2.727494
v 1.167711 -0.644856 2.571223
v 1.211882 -0.581168 2.665947
v 1.386826 -0.597653 2.659299
v 1.313956 -0.644856 2.503028
v 1.358126 -0.581168 2.597752
v 1.306989 -0.712766 2.488088
v 1.443917 -0.819341 2.781731
v 1.364081 -0.934457 2.610521
v 1.392781 -0.950940 2.672068
v 1.436951 -0.887254 2.766792
v 1.639513 0.352989 3.580558
v 1.639513 0.214606 3.580558
v 1.673278 0.214606 3.652968
v 1.622630 0.283797 3.544353
v 1.673278 0.352989 3.652968
v 1.690161 0.283797 3.689173
v 1.783882 0.214606 3.513238
v 1.783882 0.352989 3.513238
v 1.817647 0.214606 3.585647
v 1.767000 0.283797 3.477032
v 1.817647 0.352989 3.585647
v 1.834530 0.283797 3.621852
v 1.860137 0.464446 3.636836
v 1.882912 0.283797 3.779465
v 1.904215 0.283797 3.731361
v 1.860137 0.103149 3.636836
v 1.831524 0.494404 3.669264
v 1.831524 0.073190 3.669264
v 1.728749 0.494404 3.448861
v 1.771981 0.103149 3.447785
v 1.771981 0.464446 3.447785
v 1.728748 0.073190 3.448859
v 1.677360 0.283797 3.338658
v 1.727903 0.283797 3.353260
v 1.779800 0.283797 3.827547
v 1.728412 0.494404 3.717346
v 1.685180 0.464446 3.718420
v 1.625637 0.494404 3.496943
v 1.729258 0.283797 3.812945
v 1.597024 0.464446 3.529368
v 1.685180 0.103149 3.718420
v 1.574248 0.283797 3.386740
v 1.728412 0.073190 3.717346
v 1.552947 0.283797 3.434843
v 1.597024 0.103149 3.529368
v 1.625636 0.073190 3.496942
v 1.376364 -0.560950 2.673877
v 1.445228 -0.828357 2.821556
v 1.443917 -0.819341 2.781731
v 1.436951 -0.887254 2.766792
v 1.386826 -0.597653 2.659299
v 1.438285 -0.896043 2.806667
v 1.347759 -0.544521 2.612533
v 1.392781 -0.950940 2.672068
v 1.358126 -0.581168 2.597752
v 1.374793 -0.987588 2.670509
v 1.284268 -0.636066 2.476376
v 1.364081 -0.934457 2.610521
v 1.313956 -0.644856 2.503028
v 1.346188 -0.971158 2.609165
v 1.306989 -0.712766 2.488088
v 1.277324 -0.703752 2.461485
v 1.166378 -0.636066 2.531349
v 1.211882 -0.581168 2.665947
v 1.229869 -0.544521 2.667506
v 1.240582 -0.597653 2.727494
v 1.167711 -0.644856 2.571223
v 1.258474 -0.560950 2.728850
v 1.160745 -0.712766 2.556283
v 1.297672 -0.819341 2.849926
v 1.159434 -0.703752 2.516458
v 1.327338 -0.828357 2.876529
v 1.228299 -0.971158 2.664138
v 1.290706 -0.887254 2.834987
v 1.217836 -0.934457 2.678716
v 1.320395 -0.896043 2.861640
v 1.256904 -0.987588 2.725482
v 1.246536 -0.950940 2.740263
v 1.593605 0.214169 3.460414
v 1.429375 -0.316203 3.108223
v 1.484954 -0.443713 3.227412
v 1.531082 0.245716 3.326335
v 1.263181 -0.661840 2.751817
v 1.281275 -0.782883 2.790622
v 1.390932 -0.661840 2.692246
v 1.612705 -0.443713 3.167840
v 1.409027 -0.782883 2.731051
v 1.557127 -0.316203 3.048652
v 1.721356 0.214169 3.400843
v 1.658834 0.245716 3.266764
v 1.107136 -1.104377 2.095773
v 1.229528 -1.165400 2.358243
v 1.196726 -1.221218 2.287900
v 1.268661 -1.134682 2.442165
v 1.115805 -1.181555 2.114363
v 1.289611 -0.930460 2.487092
v 1.080581 -1.048232 2.038827
v 1.265219 -0.817470 2.434783
v 1.359104 -0.827807 2.636120
v 1.338328 -0.728589 2.591566
v 1.134685 -0.835814 2.154853
v 1.100264 -0.856357 2.081036
v 1.157079 -0.779669 2.202876
v 1.228486 -0.885338 2.356009
v 1.235171 -0.820171 2.370346
v 1.016226 -0.835814 2.210091
v 0.962122 -1.048232 2.094065
v 0.988677 -1.104377 2.151011
v 0.997346 -1.181555 2.169601
v 0.981805 -0.856357 2.136274
v 1.078267 -1.221218 2.343138
v 1.038620 -0.779669 2.258115
v 1.110027 -0.885338 2.411247
v 1.116712 -0.820171 2.425584
v 1.111069 -1.165400 2.413481
v 1.150202 -1.134682 2.497404
v 1.171152 -0.930460 2.542330
v 1.146760 -0.817470 2.490022
v 1.240645 -0.827807 2.691358
v 1.219869 -0.728589 2.646805
v 1.507308 -0.168818 3.258997
v 1.618034 -0.346432 3.496450
v 1.525668 -0.070318 3.298370
v 1.660084 -0.307148 3.586628
v 1.578214 -0.615381 3.411056
v 1.604482 -0.728618 3.467389
v 1.518030 -0.733462 3.281992
v 1.525830 -0.618316 3.298719
v 1.445143 -0.446444 3.125685
v 1.476427 -0.409767 3.192773
v 1.719707 -0.728618 3.413659
v 1.633255 -0.733462 3.228262
v 1.693438 -0.615381 3.357326
v 1.775309 -0.307148 3.532898
v 1.641055 -0.618316 3.244989
v 1.560368 -0.446444 3.071955
v 1.591651 -0.409767 3.139043
v 1.733258 -0.346432 3.442720
v 1.640892 -0.070318 3.244640
v 1.622532 -0.168818 3.205267
v 1.659574 0.126579 3.581573
v 1.626034 -0.243483 3.509646
v 1.703292 0.129251 3.675326
v 1.591707 -0.179368 3.436031
v 1.771763 0.126579 3.529259
v 1.738222 -0.243483 3.457331
v 1.703895 -0.179368 3.383716
v 1.815480 0.129251 3.623012
v 1.254313 -0.689254 2.642947
v 1.166394 -0.800235 2.454404
v 1.146760 -0.817470 2.490022
v 1.219869 -0.728589 2.646805
v 1.265219 -0.817470 2.434783
v 1.313232 -0.689254 2.615472
v 1.338328 -0.728589 2.591566
v 1.225313 -0.800235 2.426930
v 1.533914 -0.763962 3.257317
v 1.445143 -0.446444 3.125685
v 1.448879 -0.434825 3.074959
v 1.518030 -0.733462 3.281992
v 1.560368 -0.446444 3.071955
v 1.633255 -0.733462 3.228262
v 1.604142 -0.763962 3.224569
v 1.519107 -0.434825 3.042211
v 1.313232 -0.689254 2.615472
v 1.225313 -0.800235 2.426930
v 1.166394 -0.800235 2.454404
v 1.254313 -0.689254 2.642947
v 1.320395 -0.896043 2.861640
v 1.438285 -0.896043 2.806667
v 1.445228 -0.828357 2.821556
v 1.327338 -0.828357 2.876529
v 1.525830 -0.618316 3.298719
v 1.592546 -0.585710 3.383052
v 1.555021 -0.587813 3.302580
v 1.578214 -0.615381 3.411056
v 1.641055 -0.618316 3.244989
v 1.662774 -0.585710 3.350305
v 1.693438 -0.615381 3.357326
v 1.625249 -0.587813 3.269833
v 1.519107 -0.434825 3.042211
v 1.604142 -0.763962 3.224569
v 1.533914 -0.763962 3.257317
v 1.448879 -0.434825 3.074959
v 1.662774 -0.585710 3.350305
v 1.625249 -0.587813 3.269833
v 1.592546 -0.585710 3.383052
v 1.555021 -0.587813 3.302580
v 1.258474 -0.560950 2.728850
v 1.376364 -0.560950 2.673877
v 1.347759 -0.544521 2.612533
v 1.229869 -0.544521 2.667506
v 1.607088 -0.165441 3.409392
v 1.659574 0.126579 3.581573
v 1.672916 0.125999 3.550560
v 1.591707 -0.179368 3.436031
v 1.673604 -0.165441 3.378374
v 1.771763 0.126579 3.529259
v 1.703895 -0.179368 3.383716
v 1.739432 0.125999 3.519543
v 1.622532 -0.168818 3.205267
v 1.733258 -0.346432 3.442720
v 1.694893 -0.355464 3.419185
v 1.584369 -0.178218 3.182165
v 1.624665 -0.355464 3.451933
v 1.507308 -0.168818 3.258997
v 1.514141 -0.178218 3.214912
v 1.618034 -0.346432 3.496450
v 1.268661 -1.134682 2.442165
v 1.289611 -0.930460 2.487092
v 1.270047 -0.947000 2.522862
v 1.248877 -1.153376 2.477462
v 1.211128 -0.947000 2.550337
v 1.150202 -1.134682 2.497404
v 1.189957 -1.153376 2.504936
v 1.171152 -0.930460 2.542330
v 1.618034 -0.346432 3.496450
v 1.592546 -0.585710 3.383052
v 1.578214 -0.615381 3.411056
v 1.624665 -0.355464 3.451933
v 1.733258 -0.346432 3.442720
v 1.693438 -0.615381 3.357326
v 1.662774 -0.585710 3.350305
v 1.694893 -0.355464 3.419185
v 1.739432 0.125999 3.519543
v 1.673604 -0.165441 3.378374
v 1.607088 -0.165441 3.409392
v 1.672916 0.125999 3.550560
v 1.258474 -0.560950 2.728850
v 1.327338 -0.828357 2.876529
v 1.376364 -0.560950 2.673877
v 1.445228 -0.828357 2.821556
v 1.066651 -0.750504 2.240504
v 1.116712 -0.820171 2.425584
v 1.160452 -0.800027 2.441662
v 1.038620 -0.779669 2.258115
v 1.235171 -0.820171 2.370346
v 1.157079 -0.779669 2.202876
v 1.125570 -0.750504 2.213030
v 1.219371 -0.800027 2.414188
v 1.211128 -0.947000 2.550337
v 1.189957 -1.153376 2.504936
v 1.270047 -0.947000 2.522862
v 1.248877 -1.153376 2.477462
v 1.624665 -0.355464 3.451933
v 1.514141 -0.178218 3.214912
v 1.694893 -0.355464 3.419185
v 1.584369 -0.178218 3.182165
v 1.160452 -0.800027 2.441662
v 1.110027 -0.885338 2.411247
v 1.148310 -0.918394 2.415622
v 1.116712 -0.820171 2.425584
v 1.219371 -0.800027 2.414188
v 1.207229 -0.918394 2.388148
v 1.228486 -0.885338 2.356009
v 1.235171 -0.820171 2.370346
v 1.592546 -0.585710 3.383052
v 1.624665 -0.355464 3.451933
v 1.662774 -0.585710 3.350305
v 1.694893 -0.355464 3.419185
v 1.066651 -0.750504 2.240504
v 1.160452 -0.800027 2.441662
v 1.125570 -0.750504 2.213030
v 1.219371 -0.800027 2.414188
v 1.219371 -0.800027 2.414188
v 1.148310 -0.918394 2.415622
v 1.207229 -0.918394 2.388148
v 1.160452 -0.800027 2.441662
v 1.107136 -1.104377 2.095773
v 1.134685 -0.835814 2.154853
v 1.113427 -0.868870 2.186990
v 1.091420 -1.083410 2.139794
v 1.054508 -0.868870 2.214464
v 0.988677 -1.104377 2.151011
v 1.032500 -1.083410 2.167268
v 1.016226 -0.835814 2.210091
v 1.111069 -1.165400 2.413481
v 1.032500 -1.083410 2.167268
v 0.988677 -1.104377 2.151011
v 1.132243 -1.133141 2.381167
v 1.229528 -1.165400 2.358243
v 1.107136 -1.104377 2.095773
v 1.091420 -1.083410 2.139794
v 1.191162 -1.133141 2.353693
v 1.625637 0.494404 3.496943
v 1.728412 0.494404 3.717346
v 1.728749 0.494404 3.448861
v 1.831524 0.494404 3.669264
v 1.677360 0.283797 3.338658
v 1.779800 0.283797 3.827547
v 1.574248 0.283797 3.386740
v 1.882912 0.283797 3.779465
v 1.728748 0.073190 3.448859
v 1.728412 0.073190 3.717346
v 1.625636 0.073190 3.496942
v 1.831524 0.073190 3.669264
v 1.113427 -0.868870 2.186990
v 1.032500 -1.083410 2.167268
v 1.091420 -1.083410 2.139794
v 1.054508 -0.868870 2.214464
v 1.091420 -1.083410 2.139794
v 1.132243 -1.133141 2.381167
v 1.191162 -1.133141 2.353693
v 1.032500 -1.083410 2.167268
vn -0.358568 -0.530200 -0.768241
vn -0.358658 -0.530300 -0.768199
vn -0.358338 -0.530100 -0.768458
vn 0.304925 -0.407200 -0.860929
vn -0.855512 -0.407200 -0.319809
vn -0.085707 -0.979200 -0.183799
vn -0.086160 -0.979200 -0.183588
vn -0.085979 -0.979200 -0.183672
vn -0.410700 0.235900 -0.880750
vn -0.410972 0.235800 -0.880623
vn 0.514374 -0.752300 -0.411763
vn 0.514374 -0.752200 -0.411763
vn -0.646062 -0.752200 0.129357
vn -0.646062 -0.752300 0.129357
vn -0.895703 0.181200 -0.405999
vn -0.895745 0.181200 -0.406089
vn 0.264691 0.181200 -0.947210
vn 0.264734 0.181200 -0.947119
vn 0.264691 0.180900 -0.947210
vn 0.402671 -0.303600 0.863530
vn 0.402399 -0.303600 0.863657
vn -0.092234 -0.976000 -0.197086
vn -0.092282 -0.976100 -0.196953
vn -0.099696 -0.971800 -0.213798
vn -0.360874 -0.520400 -0.773896
vn -0.361103 -0.520700 -0.773679
vn 0.254923 0.797600 0.546685
vn 0.254694 0.797500 0.546902
vn -0.410972 0.235700 -0.880623
vn -0.656626 -0.744100 0.123029
vn -0.656548 -0.744200 0.123434
vn 0.516317 -0.744100 -0.423923
vn 0.516577 -0.744200 -0.423603
vn -0.411154 0.235700 -0.880539
vn -0.411335 0.235700 -0.880454
vn 0.380042 -0.436200 0.815713
vn 0.379909 -0.436300 0.815665
vn -0.443080 -0.191400 0.875810
vn 0.955716 -0.191400 0.223541
vn -0.895787 0.180700 -0.406180
vn 0.264649 0.180700 -0.947300
vn 0.190908 -0.891600 0.410587
vn 0.191041 -0.891600 0.410636
vn 0.191132 -0.891600 0.410594
vn 0.190999 -0.891600 0.410545
vn 0.863389 0.504300 0.015134
vn 0.863437 0.504300 0.015001
vn 0.863346 0.504300 0.015043
vn -0.543515 0.504300 0.671074
vn -0.543382 0.504300 0.671122
vn -0.543424 0.504300 0.671032
vn 0.871607 -0.336800 0.356218
vn -0.287379 -0.336800 0.896662
vn 0.009599 -0.999700 0.022005
vn 0.010016 -0.999700 0.021479
vn 0.009786 -0.999700 0.021697
vn 0.727374 -0.684800 0.045016
vn 0.727332 -0.684800 0.044926
vn -0.433105 -0.684800 0.586046
vn -0.433063 -0.684800 0.586137
vn 0.219931 -0.854000 0.471643
vn 0.391598 -0.376200 0.839785
vn -0.693016 -0.635800 0.339820
vn 0.705779 -0.635800 -0.312449
vn 0.367696 0.491500 0.789472
vn 0.367472 0.491600 0.789466
vn 0.368016 0.491700 0.789213
vn 0.924718 0.322600 0.202025
vn -0.439637 0.322600 0.838235
vn 0.244654 -0.815400 0.524662
vn 0.244116 -0.815500 0.524692
vn 0.224960 -0.846600 0.482428
vn 0.224428 -0.846800 0.482234
vn -0.209945 0.868500 -0.449045
vn -0.209407 0.868600 -0.449076
vn -0.394620 -0.659600 0.639709
vn 0.743703 -0.659600 0.108901
vn 0.419805 0.667400 -0.615042
vn 0.419327 0.667300 -0.615592
vn 0.419720 0.667400 -0.615223
vn -0.741109 0.667300 -0.074471
vn 0.941540 -0.243100 0.233130
vn 0.905023 -0.400400 0.143462
vn 0.901201 -0.411100 0.137631
vn 0.832002 -0.553000 0.043893
vn -0.426622 -0.243100 0.871115
vn -0.471840 -0.400400 0.785504
vn -0.473759 -0.411100 0.778785
vn -0.501177 -0.553000 0.665565
vn -0.501134 -0.553000 0.665655
vn -0.220299 0.854000 -0.471250
vn -0.219931 0.853900 -0.471643
vn -0.906308 -0.000000 0.422618
vn 0.906308 -0.000000 -0.422618
vn 0.504654 0.000200 -0.863256
vn 0.625028 0.492600 -0.605587
vn 0.624895 0.492700 -0.605635
vn 0.504612 0.000200 -0.863347
vn 0.865631 0.492600 -0.089850
vn 0.625246 -0.492600 -0.605357
vn 0.865576 0.492700 -0.089493
vn 0.985823 -0.000000 0.167904
vn 0.865794 -0.492300 -0.089264
vn 0.985721 0.000200 0.168394
vn 0.865758 -0.492500 -0.089578
vn -0.504654 0.000200 0.863256
vn -0.625246 -0.492600 0.605357
vn -0.625028 -0.492500 0.605587
vn -0.865631 -0.492600 0.089850
vn -0.504612 0.000200 0.863347
vn -0.865667 -0.492500 0.089535
vn -0.625246 0.492600 0.605357
vn -0.985823 -0.000000 -0.167904
vn -0.985721 0.000200 -0.168394
vn -0.865619 0.492700 0.089403
vn -0.865631 0.492600 0.089850
vn -0.921277 0.272900 -0.277225
vn -0.901536 0.389100 -0.189223
vn -0.898011 0.401800 -0.179061
vn -0.857821 0.506400 -0.087905
vn 0.379818 0.272900 -0.883936
vn 0.434543 0.389100 -0.812247
vn 0.440062 0.401800 -0.803014
vn 0.484058 0.506400 -0.713634
vn -0.389509 0.389900 -0.834359
vn -0.342098 0.588600 -0.732448
vn -0.341856 0.587900 -0.733112
vn -0.389461 0.389900 -0.834492
vn -0.277262 0.755500 -0.593644
vn -0.276815 0.755600 -0.593632
vn -0.906477 0.000200 0.422256
vn 0.906139 0.000200 -0.422981
vn 0.755188 0.652500 0.063492
vn 0.914389 -0.000000 0.404899
vn 0.755188 -0.652500 0.063492
vn 0.436788 0.652500 -0.619320
vn 0.437144 -0.652200 -0.619265
vn 0.437011 -0.652300 -0.619314
vn 0.277587 -0.000000 -0.960726
vn -0.277720 0.000500 0.960678
vn -0.436788 0.652500 0.619320
vn -0.755188 0.652500 -0.063492
vn -0.277587 -0.000000 0.960726
vn -0.436788 -0.652500 0.619320
vn -0.914437 0.000600 -0.404766
vn -0.914389 -0.000000 -0.404899
vn -0.755376 -0.652200 -0.063184
vn -0.755188 -0.652500 -0.063492
vn 0.920745 0.339100 -0.192897
vn 0.999056 0.035000 -0.024958
vn 0.992520 0.121600 -0.005138
vn 0.949401 -0.298800 -0.097135
vn 0.943285 0.312900 -0.110723
vn 0.973433 -0.214600 -0.079433
vn 0.815386 0.399600 -0.418839
vn 0.868608 -0.414800 -0.270868
vn 0.765827 0.414800 -0.491282
vn 0.844970 -0.399600 -0.355398
vn 0.686868 0.214300 -0.694447
vn 0.691151 -0.312900 -0.651426
vn 0.684679 0.298300 -0.665069
vn 0.739611 -0.339100 -0.581340
vn 0.641916 -0.121600 -0.757011
vn 0.661692 -0.035000 -0.748910
vn -0.973488 0.214300 0.079789
vn -0.868608 0.414800 0.270868
vn -0.844970 0.399600 0.355398
vn -0.691151 0.312900 0.651426
vn -0.949491 0.298300 0.097177
vn -0.739611 0.339100 0.581340
vn -0.992520 -0.121600 0.005138
vn -0.641916 0.121600 0.757011
vn -0.999111 -0.035000 0.025314
vn -0.661300 0.035000 0.749279
vn -0.920745 -0.339100 0.192897
vn -0.684715 -0.298600 0.664755
vn -0.943285 -0.312900 0.110723
vn -0.686560 -0.214600 0.694635
vn -0.815386 -0.399600 0.418839
vn -0.765827 -0.414800 0.491282
vn 0.906181 0.000200 -0.422890
vn -0.737734 0.673500 -0.045702
vn -0.737777 0.673500 -0.045793
vn 0.439155 0.673500 -0.594605
vn 0.439197 0.673500 -0.594514
vn -0.931316 -0.327100 -0.160331
vn -0.931273 -0.327100 -0.160240
vn 0.475860 -0.327100 -0.816397
vn 0.475818 -0.327100 -0.816488
vn -0.199114 0.882400 -0.426291
vn -0.198926 0.882300 -0.426599
vn 0.410114 -0.236200 0.880913
vn 0.410386 -0.236100 0.880786
vn 0.410114 -0.236300 0.880913
vn -0.705779 0.635800 0.312449
vn -0.705598 0.636100 0.312365
vn 0.693016 0.635800 -0.339820
vn -0.360578 -0.521600 -0.773262
vn -0.360983 -0.521400 -0.773183
vn -0.361073 -0.521400 -0.773141
vn -0.010016 0.999700 -0.021479
vn -0.010463 0.999700 -0.021492
vn 0.099696 0.971800 0.213798
vn -0.865496 0.360800 -0.347372
vn 0.290228 0.360800 -0.886294
vn 0.290403 0.361100 -0.886155
vn 0.528690 -0.542900 -0.652465
vn 0.528558 -0.543100 -0.652514
vn 0.528690 -0.543000 -0.652465
vn 0.528642 -0.543100 -0.652332
vn -0.839653 -0.543000 -0.014396
vn -0.839653 -0.542900 -0.014396
vn -0.839520 -0.543100 -0.014348
vn -0.839605 -0.543100 -0.014529
vn 0.895745 -0.181200 0.406089
vn -0.264691 -0.181200 0.947210
vn -0.954455 0.204400 -0.217288
vn 0.447059 0.204400 -0.870825
vn -0.373202 0.471300 -0.799152
vn -0.372707 0.471400 -0.799273
vn 0.360874 0.520400 0.773896
vn 0.360463 0.520300 0.774198
vn 0.360282 0.520300 0.774283
vn -0.507593 0.751900 0.420627
vn 0.648494 0.751900 -0.118464
vn 0.410700 -0.235900 0.880750
vn -0.237844 -0.827500 -0.508638
vn -0.237711 -0.827500 -0.508590
vn -0.237488 -0.827600 -0.508584
vn -0.237620 -0.827600 -0.508632
vn -0.264734 -0.181200 0.947119
vn -0.264510 -0.181700 0.947125
vn 0.895703 -0.181200 0.405999
vn 0.895564 -0.181700 0.406174
vn -0.401318 0.313500 -0.860630
vn -0.401820 0.313900 -0.860286
vn -0.401729 0.313900 -0.860328
vn 0.092046 0.976000 0.197394
vn 0.091738 0.976100 0.197206
vn 0.091424 0.976100 0.197243
vn 0.091515 0.976100 0.197200
vn 0.410296 -0.236200 0.880828
vn -0.513276 0.751700 0.414119
vn -0.513288 0.751500 0.414566
vn -0.513239 0.751600 0.414434
vn 0.647511 0.751500 -0.126723
vn 0.647161 0.751700 -0.127001
vn -0.211720 0.866100 -0.452852
vn 0.210590 0.866100 0.453268
vn 0.210723 0.866100 0.453317
vn -0.422618 -0.000000 -0.906308
vn 0.422618 -0.000000 0.906308
vn -0.211309 -0.866000 -0.453154
vn 0.210820 -0.866200 0.453051
vn -0.211545 -0.866200 -0.452713
vn 0.410205 -0.236100 0.880871
vn 0.086902 0.978400 0.187545
vn 0.087144 0.978500 0.186881
vt 0.000000 0.000000
s 1
f 1/1/1 2/1/2 3/1/2
f 2/1/2 1/1/1 4/1/3
f 5/1/4 6/1/4 7/1/4
f 6/1/4 5/1/4 8/1/4
f 9/1/5 10/1/5 11/1/5
f 9/1/5 11/1/5 12/1/5
f 13/1/6 14/1/7 15/1/7
f 16/1/8 15/1/7 14/1/7
f 17/1/9 18/1/10 19/1/9
f 20/1/9 19/1/9 18/1/10
f 21/1/11 22/1/12 23/1/12
f 21/1/11 23/1/12 24/1/11
f 25/1/13 26/1/14 27/1/14
f 26/1/14 25/1/13 28/1/13
f 29/1/15 30/1/16 31/1/16
f 30/1/16 29/1/15 32/1/15
f 33/1/17 34/1/18 35/1/18
f 33/1/17 35/1/18 36/1/19
f 37/1/20 38/1/20 39/1/21
f 38/1/20 37/1/20 40/1/20
f 41/1/22 42/1/23 43/1/22
f 42/1/23 41/1/22 44/1/22
f 45/1/24 46/1/24 47/1/24
f 47/1/24 48/1/24 45/1/24
f 49/1/25 50/1/26 51/1/25
f 50/1/26 49/1/25 52/1/25
f 53/1/27 54/1/28 55/1/27
f 54/1/28 53/1/27 56/1/27
f 57/1/10 58/1/9 59/1/9
f 58/1/9 57/1/10 60/1/29
f 61/1/30 62/1/31 63/1/30
f 61/1/30 63/1/30 64/1/30
f 65/1/32 66/1/32 67/1/32
f 66/1/32 65/1/32 68/1/33
f 69/1/9 70/1/34 71/1/35
f 70/1/34 69/1/9 72/1/34
f 73/1/36 74/1/36 75/1/36
f 74/1/36 73/1/36 76/1/37
f 77/1/38 78/1/38 79/1/38
f 78/1/38 77/1/38 80/1/38
f 81/1/39 82/1/39 83/1/39
f 81/1/39 83/1/39 84/1/39
f 85/1/15 86/1/16 87/1/16
f 86/1/16 85/1/15 88/1/40
f 89/1/17 90/1/41 91/1/18
f 91/1/18 92/1/17 89/1/17
f 93/1/42 94/1/43 95/1/44
f 94/1/43 93/1/42 96/1/45
f 97/1/46 98/1/46 99/1/47
f 98/1/46 97/1/46 100/1/48
f 101/1/49 102/1/50 103/1/51
f 101/1/49 104/1/49 102/1/50
f 105/1/52 106/1/52 107/1/52
f 107/1/52 108/1/52 105/1/52
f 109/1/53 110/1/53 111/1/53
f 110/1/53 109/1/53 112/1/53
f 113/1/54 114/1/54 115/1/55
f 114/1/54 113/1/54 116/1/56
f 117/1/57 118/1/58 119/1/58
f 118/1/58 117/1/57 120/1/57
f 121/1/59 122/1/60 123/1/60
f 121/1/59 123/1/60 124/1/59
f 125/1/61 126/1/61 127/1/61
f 127/1/61 126/1/61 128/1/61
f 129/1/62 130/1/62 131/1/62
f 129/1/62 131/1/62 132/1/62
f 133/1/63 134/1/63 135/1/63
f 133/1/63 135/1/63 136/1/63
f 137/1/64 138/1/64 139/1/64
f 138/1/64 137/1/64 140/1/64
f 141/1/65 142/1/66 143/1/67
f 142/1/66 141/1/65 144/1/66
f 145/1/68 146/1/68 147/1/68
f 146/1/68 145/1/68 148/1/68
f 149/1/69 150/1/69 151/1/69
f 149/1/69 151/1/69 152/1/69
f 153/1/70 154/1/71 155/1/71
f 156/1/70 155/1/71 154/1/71
f 157/1/72 158/1/72 159/1/73
f 157/1/72 159/1/73 160/1/72
f 161/1/74 162/1/75 163/1/74
f 164/1/74 163/1/74 162/1/75
f 165/1/76 166/1/76 167/1/76
f 167/1/76 168/1/76 165/1/76
f 169/1/77 170/1/77 171/1/77
f 170/1/77 169/1/77 172/1/77
f 173/1/78 174/1/79 175/1/80
f 174/1/79 173/1/78 176/1/79
f 177/1/81 178/1/81 179/1/81
f 177/1/81 179/1/81 180/1/81
f 181/1/82 182/1/83 183/1/82
f 182/1/83 181/1/82 184/1/84
f 185/1/85 182/1/83 184/1/84
f 182/1/83 185/1/85 186/1/85
f 187/1/86 188/1/87 189/1/88
f 188/1/87 187/1/86 190/1/86
f 191/1/89 189/1/88 188/1/87
f 191/1/89 188/1/87 192/1/90
f 193/1/91 194/1/92 195/1/91
f 193/1/91 195/1/91 196/1/92
f 197/1/93 198/1/93 199/1/93
f 197/1/93 199/1/93 200/1/93
f 198/1/93 201/1/93 199/1/93
f 202/1/93 197/1/93 200/1/93
f 203/1/93 201/1/93 198/1/93
f 197/1/93 202/1/93 204/1/93
f 205/1/93 201/1/93 203/1/93
f 206/1/93 204/1/93 202/1/93
f 201/1/93 205/1/93 207/1/93
f 206/1/93 202/1/93 208/1/93
f 205/1/93 208/1/93 207/1/93
f 208/1/93 205/1/93 206/1/93
f 209/1/94 210/1/94 211/1/94
f 212/1/94 211/1/94 210/1/94
f 209/1/94 211/1/94 213/1/94
f 211/1/94 212/1/94 214/1/94
f 209/1/94 213/1/94 215/1/94
f 212/1/94 216/1/94 214/1/94
f 215/1/94 213/1/94 217/1/94
f 212/1/94 218/1/94 216/1/94
f 219/1/94 215/1/94 217/1/94
f 218/1/94 219/1/94 216/1/94
f 215/1/94 219/1/94 220/1/94
f 220/1/94 219/1/94 218/1/94
f 221/1/95 222/1/96 223/1/97
f 221/1/95 223/1/97 224/1/98
f 222/1/96 225/1/99 223/1/97
f 226/1/100 221/1/95 224/1/98
f 225/1/99 222/1/96 227/1/101
f 221/1/95 226/1/100 228/1/100
f 229/1/102 225/1/99 227/1/101
f 230/1/103 228/1/100 226/1/100
f 225/1/99 229/1/102 231/1/104
f 230/1/103 226/1/100 232/1/105
f 229/1/102 232/1/105 231/1/104
f 232/1/105 229/1/102 230/1/103
f 233/1/106 234/1/107 235/1/108
f 234/1/107 236/1/109 235/1/108
f 234/1/107 233/1/106 237/1/110
f 236/1/109 234/1/107 238/1/111
f 233/1/106 239/1/112 237/1/110
f 240/1/113 236/1/109 238/1/111
f 239/1/112 233/1/106 241/1/112
f 240/1/113 238/1/111 242/1/114
f 241/1/112 243/1/115 239/1/112
f 243/1/115 240/1/113 242/1/114
f 241/1/112 244/1/116 243/1/115
f 240/1/113 243/1/115 244/1/116
f 245/1/117 246/1/118 247/1/119
f 246/1/118 245/1/117 248/1/117
f 249/1/120 247/1/119 246/1/118
f 246/1/118 250/1/120 249/1/120
f 251/1/121 252/1/122 253/1/121
f 252/1/122 251/1/121 254/1/123
f 255/1/124 252/1/122 254/1/123
f 252/1/122 255/1/124 256/1/124
f 257/1/125 258/1/126 259/1/127
f 257/1/125 259/1/127 260/1/128
f 261/1/129 259/1/127 258/1/126
f 259/1/127 261/1/129 262/1/130
f 263/1/93 264/1/93 265/1/93
f 266/1/93 263/1/93 265/1/93
f 263/1/93 266/1/93 267/1/131
f 264/1/93 263/1/93 268/1/93
f 264/1/93 268/1/93 269/1/93
f 269/1/93 268/1/93 270/1/131
f 271/1/94 272/1/94 273/1/132
f 272/1/94 271/1/94 274/1/94
f 275/1/94 274/1/94 271/1/94
f 275/1/94 276/1/94 274/1/94
f 276/1/94 275/1/94 277/1/94
f 277/1/94 275/1/94 278/1/94
f 279/1/93 280/1/93 281/1/93
f 280/1/93 279/1/93 282/1/93
f 279/1/93 281/1/93 283/1/93
f 281/1/93 284/1/93 283/1/93
f 285/1/94 286/1/94 287/1/94
f 286/1/94 285/1/94 288/1/94
f 289/1/94 287/1/94 286/1/94
f 287/1/94 289/1/94 290/1/94
f 291/1/133 292/1/134 293/1/134
f 294/1/135 293/1/134 292/1/134
f 292/1/134 291/1/133 295/1/133
f 292/1/134 296/1/135 294/1/135
f 297/1/136 295/1/133 291/1/133
f 296/1/135 298/1/137 294/1/135
f 297/1/136 291/1/133 299/1/136
f 296/1/135 300/1/138 298/1/137
f 301/1/139 297/1/136 299/1/136
f 301/1/139 298/1/137 300/1/138
f 299/1/136 302/1/139 301/1/139
f 298/1/137 301/1/139 302/1/139
f 303/1/140 304/1/141 305/1/141
f 306/1/142 305/1/141 304/1/141
f 303/1/140 305/1/141 307/1/143
f 305/1/141 306/1/142 308/1/142
f 309/1/144 303/1/140 307/1/143
f 310/1/145 308/1/142 306/1/142
f 303/1/140 309/1/144 311/1/144
f 308/1/142 310/1/145 312/1/146
f 313/1/147 311/1/144 309/1/144
f 310/1/145 313/1/147 312/1/146
f 311/1/144 313/1/147 314/1/148
f 313/1/147 310/1/145 314/1/148
f 315/1/149 316/1/150 317/1/151
f 316/1/150 318/1/152 317/1/151
f 315/1/149 317/1/151 319/1/153
f 318/1/152 316/1/150 320/1/154
f 319/1/153 321/1/155 315/1/149
f 320/1/154 322/1/156 318/1/152
f 321/1/155 319/1/153 323/1/157
f 320/1/154 324/1/158 322/1/156
f 325/1/159 321/1/155 323/1/157
f 324/1/158 326/1/160 322/1/156
f 325/1/159 323/1/157 327/1/161
f 326/1/160 324/1/158 328/1/162
f 329/1/163 325/1/159 327/1/161
f 328/1/162 329/1/163 326/1/160
f 325/1/159 329/1/163 330/1/164
f 328/1/162 330/1/164 329/1/163
f 331/1/165 332/1/166 333/1/167
f 333/1/167 332/1/166 334/1/168
f 332/1/166 331/1/165 335/1/169
f 336/1/170 333/1/167 334/1/168
f 331/1/165 337/1/171 335/1/169
f 338/1/172 336/1/170 334/1/168
f 337/1/171 331/1/165 339/1/173
f 336/1/170 338/1/172 340/1/174
f 341/1/175 337/1/171 339/1/173
f 338/1/172 342/1/176 340/1/174
f 337/1/171 341/1/175 343/1/177
f 340/1/174 342/1/176 344/1/178
f 345/1/179 343/1/177 341/1/175
f 346/1/180 344/1/178 342/1/176
f 343/1/177 345/1/179 346/1/180
f 344/1/178 346/1/180 345/1/179
f 347/1/93 348/1/93 349/1/93
f 348/1/93 347/1/93 350/1/93
f 351/1/93 349/1/93 348/1/93
f 349/1/93 351/1/93 352/1/93
f 353/1/94 354/1/94 355/1/94
f 354/1/94 353/1/94 356/1/94
f 357/1/94 354/1/94 356/1/94
f 357/1/94 356/1/94 358/1/94
f 359/1/94 360/1/94 361/1/94
f 362/1/94 361/1/94 360/1/94
f 359/1/94 361/1/94 363/1/94
f 360/1/94 364/1/94 362/1/94
f 363/1/94 365/1/94 359/1/94
f 364/1/94 360/1/94 366/1/94
f 366/1/94 367/1/94 364/1/94
f 367/1/94 366/1/94 368/1/94
f 369/1/94 359/1/94 365/1/94
f 369/1/94 365/1/94 370/1/94
f 370/1/94 371/1/94 369/1/94
f 372/1/94 369/1/94 371/1/94
f 371/1/94 373/1/94 372/1/94
f 374/1/93 375/1/93 376/1/93
f 375/1/93 377/1/93 376/1/93
f 375/1/93 374/1/93 378/1/93
f 379/1/93 376/1/93 377/1/93
f 380/1/93 378/1/93 374/1/93
f 381/1/93 380/1/93 374/1/93
f 380/1/93 381/1/93 382/1/93
f 383/1/93 376/1/93 379/1/93
f 379/1/93 384/1/93 383/1/93
f 385/1/93 383/1/93 384/1/93
f 383/1/93 385/1/93 386/1/93
f 387/1/93 386/1/93 385/1/93
f 386/1/93 387/1/93 388/1/93
f 389/1/93 390/1/93 391/1/93
f 392/1/93 391/1/93 390/1/93
f 393/1/93 392/1/93 390/1/93
f 392/1/93 393/1/93 394/1/93
f 395/1/93 394/1/93 393/1/93
f 395/1/93 393/1/93 396/1/93
f 396/1/93 397/1/93 395/1/93
f 397/1/93 396/1/93 398/1/131
f 399/1/94 400/1/94 401/1/94
f 401/1/94 402/1/94 399/1/94
f 401/1/94 400/1/94 403/1/94
f 404/1/94 403/1/94 400/1/94
f 403/1/94 404/1/94 405/1/181
f 402/1/94 401/1/94 406/1/94
f 407/1/94 402/1/94 406/1/94
f 407/1/94 406/1/94 408/1/94
f 409/1/93 410/1/93 411/1/93
f 410/1/93 409/1/93 412/1/93
f 413/1/94 414/1/94 415/1/94
f 414/1/94 413/1/94 416/1/181
f 417/1/182 418/1/183 419/1/183
f 417/1/182 419/1/183 420/1/182
f 421/1/184 422/1/185 423/1/185
f 422/1/185 421/1/184 424/1/184
f 425/1/186 426/1/186 427/1/187
f 426/1/186 425/1/186 428/1/186
f 429/1/188 430/1/189 431/1/189
f 429/1/188 431/1/189 432/1/188
f 433/1/190 434/1/190 435/1/191
f 433/1/190 435/1/191 436/1/191
f 437/1/192 438/1/192 439/1/193
f 439/1/193 440/1/194 437/1/192
f 441/1/195 442/1/195 443/1/196
f 442/1/195 441/1/195 444/1/195
f 445/1/197 446/1/197 447/1/197
f 446/1/197 445/1/197 448/1/197
f 449/1/198 450/1/199 451/1/199
f 449/1/198 451/1/199 452/1/200
f 453/1/201 454/1/202 455/1/202
f 454/1/202 456/1/201 455/1/202
f 457/1/203 458/1/203 459/1/203
f 459/1/203 460/1/203 457/1/203
f 461/1/204 462/1/204 463/1/204
f 462/1/204 461/1/204 464/1/204
f 465/1/205 466/1/205 467/1/206
f 466/1/205 465/1/205 468/1/205
f 469/1/207 470/1/208 471/1/209
f 471/1/209 472/1/210 469/1/207
f 473/1/211 474/1/212 475/1/213
f 474/1/212 473/1/211 476/1/214
f 477/1/215 478/1/215 479/1/215
f 477/1/215 479/1/215 480/1/215
f 481/1/216 482/1/216 483/1/216
f 482/1/216 481/1/216 484/1/216
f 485/1/217 486/1/217 487/1/217
f 486/1/217 485/1/217 488/1/217
f 489/1/218 490/1/218 491/1/218
f 491/1/218 492/1/218 489/1/218
f 493/1/219 494/1/220 495/1/219
f 493/1/219 495/1/219 496/1/220
f 497/1/221 498/1/222 499/1/223
f 500/1/221 499/1/223 498/1/222
f 501/1/224 502/1/224 503/1/224
f 502/1/224 501/1/224 504/1/224
f 505/1/225 506/1/225 507/1/225
f 505/1/225 507/1/225 508/1/225
f 509/1/226 510/1/226 511/1/193
f 512/1/226 511/1/193 510/1/226
f 513/1/227 514/1/228 515/1/229
f 516/1/230 515/1/229 514/1/228
f 517/1/231 518/1/232 519/1/231
f 518/1/232 517/1/231 520/1/231
f 521/1/233 522/1/233 523/1/234
f 521/1/233 523/1/234 524/1/233
f 525/1/235 526/1/236 527/1/237
f 528/1/235 527/1/237 526/1/236
f 529/1/238 530/1/239 531/1/240
f 532/1/241 531/1/240 530/1/239
f 533/1/194 534/1/194 535/1/242
f 534/1/194 533/1/194 536/1/226
f 537/1/215 538/1/215 539/1/215
f 537/1/215 539/1/215 540/1/215
f 541/1/216 542/1/216 543/1/216
f 542/1/216 541/1/216 544/1/216
f 545/1/243 546/1/244 547/1/243
f 546/1/244 545/1/243 548/1/245
f 549/1/246 550/1/247 551/1/246
f 549/1/246 551/1/246 552/1/246
f 553/1/248 554/1/249 555/1/248
f 556/1/250 555/1/248 554/1/249
f 555/1/248 557/1/251 553/1/248
f 554/1/249 558/1/252 556/1/250
f 559/1/251 553/1/248 557/1/251
f 560/1/252 556/1/250 558/1/252
f 557/1/251 561/1/253 559/1/251
f 558/1/252 562/1/254 560/1/252
f 563/1/255 559/1/251 561/1/253
f 564/1/254 560/1/252 562/1/254
f 562/1/254 563/1/255 564/1/254
f 561/1/253 564/1/254 563/1/255
f 565/1/193 566/1/256 567/1/226
f 566/1/256 565/1/193 568/1/226
f 569/1/257 570/1/258 571/1/257
f 570/1/258 569/1/257 572/1/257
