# Blender 5.1.1
# www.blender.org
mtllib keybowtop9.mtl
o 124911318777461
v 1.105660 3.377261 2.249655
v 1.124155 3.224247 2.135488
v 1.065235 3.224247 2.162963
v 1.164580 3.377261 2.222180
v 1.083079 3.352831 2.278952
v 1.065235 3.224247 2.162963
v 1.047855 3.219508 2.203415
v 1.105660 3.377261 2.249655
v 1.124155 3.224247 2.135488
v 1.164580 3.377261 2.222180
v 1.201538 3.352831 2.223714
v 1.166314 3.219508 2.148177
v 1.254316 3.421247 2.414620
v 1.164580 3.377261 2.222180
v 1.195396 3.421247 2.442095
v 1.105660 3.377261 2.249655
v 1.124155 3.224247 2.135488
v 1.146163 3.009707 2.182685
v 1.065235 3.224247 2.162963
v 1.087243 3.009707 2.210160
v 1.083079 3.352831 2.278952
v 1.164000 3.392494 2.452489
v 1.195396 3.421247 2.442095
v 1.105660 3.377261 2.249655
v 1.254316 3.421247 2.414620
v 1.201538 3.352831 2.223714
v 1.164580 3.377261 2.222180
v 1.282459 3.392494 2.397251
v 1.124155 3.224247 2.135488
v 1.185997 3.027633 2.190386
v 1.146163 3.009707 2.182685
v 1.166314 3.219508 2.148177
v 1.067538 3.027633 2.245624
v 1.047855 3.219508 2.203415
v 1.065235 3.224247 2.162963
v 1.087243 3.009707 2.210160
v 1.783498 2.469165 3.718046
v 1.791727 2.929531 3.552341
v 1.721499 2.929531 3.585089
v 1.853726 2.469165 3.685298
v 1.234043 3.089670 2.524972
v 1.199162 3.040146 2.296340
v 1.140242 3.040146 2.323815
v 1.292963 3.089670 2.497497
v 1.431921 3.142434 2.718515
v 1.314031 3.142434 2.773488
v 1.342636 3.158863 2.834832
v 1.460526 3.158863 2.779859
v 1.314031 3.142434 2.773488
v 1.363057 2.875028 2.570836
v 1.245167 2.875028 2.625809
v 1.431921 3.142434 2.718515
v 1.629072 2.192847 3.386879
v 1.853726 2.469165 3.685298
v 1.783498 2.469165 3.718046
v 1.699300 2.192847 3.354131
v 1.217976 3.304417 2.490517
v 1.311047 2.971511 2.536280
v 1.252127 2.971511 2.563755
v 1.276896 3.304417 2.463042
v 1.199162 3.040146 2.296340
v 1.292963 3.089670 2.497497
v 1.314219 3.056614 2.465359
v 1.220419 3.007090 2.264204
v 1.195760 3.056614 2.520597
v 1.140242 3.040146 2.323815
v 1.101960 3.007090 2.319442
v 1.234043 3.089670 2.524972
v 1.245167 2.875028 2.625809
v 1.370000 2.807342 2.585726
v 1.252111 2.807342 2.640699
v 1.363057 2.875028 2.570836
v 1.887875 2.041443 3.763374
v 1.742060 2.428684 3.624335
v 1.821358 2.041443 3.794391
v 1.808576 2.428684 3.593318
v 1.853726 2.469165 3.685298
v 1.805440 2.899894 3.523009
v 1.791727 2.929531 3.552341
v 1.861042 2.478424 3.642248
v 1.783498 2.469165 3.718046
v 1.721499 2.929531 3.585089
v 1.690215 2.899894 3.576739
v 1.745817 2.478424 3.695978
v 1.276896 3.304417 2.463042
v 1.350952 2.988746 2.544133
v 1.311047 2.971511 2.536280
v 1.315261 3.336676 2.467594
v 1.232493 2.988746 2.599372
v 1.196802 3.336676 2.522832
v 1.217976 3.304417 2.490517
v 1.252127 2.971511 2.563755
v 1.275691 3.324652 2.614287
v 1.254316 3.421247 2.414620
v 1.195396 3.421247 2.442095
v 1.334611 3.324652 2.586812
v 1.783498 2.469165 3.718046
v 1.611401 2.241594 3.407721
v 1.629072 2.192847 3.386879
v 1.745817 2.478424 3.695978
v 1.853726 2.469165 3.685298
v 1.726625 2.241594 3.353991
v 1.861042 2.478424 3.642248
v 1.699300 2.192847 3.354131
v 1.711769 2.414759 3.618995
v 1.789027 2.042025 3.784675
v 1.821358 2.041443 3.794391
v 1.742060 2.428684 3.624335
v 1.887875 2.041443 3.763374
v 1.823957 2.414759 3.566680
v 1.808576 2.428684 3.593318
v 1.901215 2.042025 3.732361
v 1.721499 2.929531 3.585089
v 1.689875 2.935238 3.333919
v 1.619647 2.935238 3.366667
v 1.791727 2.929531 3.552341
v 1.235935 3.305957 2.606754
v 1.195396 3.421247 2.442095
v 1.164000 3.392494 2.452489
v 1.275691 3.324652 2.614287
v 1.254316 3.421247 2.414620
v 1.334611 3.324652 2.586812
v 1.354394 3.305957 2.551515
v 1.282459 3.392494 2.397251
v 1.406128 3.067319 2.970990
v 1.524018 3.067319 2.916017
v 1.342636 3.158863 2.834832
v 1.460526 3.158863 2.779859
v 1.610611 2.638247 3.346286
v 1.725728 1.967298 3.593154
v 1.795188 1.967298 3.560764
v 1.680072 2.638247 3.313896
v 1.689875 2.935238 3.333919
v 1.791727 2.929531 3.552341
v 1.805440 2.899894 3.523009
v 1.718988 2.904738 3.337612
v 1.619647 2.935238 3.366667
v 1.690215 2.899894 3.576739
v 1.721499 2.929531 3.585089
v 1.603763 2.904738 3.391342
v 1.659254 2.542310 3.268251
v 1.640754 2.759089 3.411931
v 1.589026 2.542310 3.300999
v 1.710982 2.759089 3.379184
v 1.640754 2.759089 3.411931
v 1.562160 2.581043 3.302124
v 1.589026 2.542310 3.300999
v 1.611563 2.789592 3.408069
v 1.677384 2.581043 3.248394
v 1.726788 2.789592 3.354339
v 1.710982 2.759089 3.379184
v 1.659254 2.542310 3.268251
v 1.680072 2.638247 3.313896
v 1.471798 2.988095 2.867252
v 1.610611 2.638247 3.346286
v 1.402338 2.988095 2.899642
v 1.296861 3.118276 2.659688
v 1.370939 3.008071 2.818548
v 1.429859 3.008071 2.791073
v 1.355781 3.118276 2.632213
v 1.146163 3.009707 2.182685
v 1.211304 2.921780 2.322380
v 1.087243 3.009707 2.210160
v 1.152384 2.921780 2.349854
v 1.355781 3.118276 2.632213
v 1.429859 3.008071 2.791073
v 1.444837 2.999083 2.745470
v 1.375344 3.101736 2.596442
v 1.326378 2.999083 2.800709
v 1.296861 3.118276 2.659688
v 1.256885 3.101736 2.651680
v 1.370939 3.008071 2.818548
v 1.067538 3.027633 2.245624
v 1.152384 2.921780 2.349854
v 1.124353 2.950945 2.367465
v 1.087243 3.009707 2.210160
v 1.211304 2.921780 2.322380
v 1.146163 3.009707 2.182685
v 1.185997 3.027633 2.190386
v 1.242812 2.950945 2.312226
v 1.725728 1.967298 3.593154
v 1.570687 2.614989 3.336762
v 1.679338 1.957107 3.569765
v 1.610611 2.638247 3.346286
v 1.402338 2.988095 2.899642
v 1.367009 2.954159 2.899973
v 1.795188 1.967298 3.560764
v 1.698438 2.614989 3.277190
v 1.680072 2.638247 3.313896
v 1.807089 1.957107 3.510194
v 1.471798 2.988095 2.867252
v 1.494760 2.954159 2.840401
v 1.315602 2.715797 2.776856
v 1.252111 2.807342 2.640699
v 1.370000 2.807342 2.585726
v 1.433492 2.715797 2.721883
v 1.857714 2.068127 3.557135
v 1.945870 2.068127 3.746186
v 1.923831 1.977803 3.698924
v 1.879753 1.977803 3.604399
v 1.945870 1.887479 3.746186
v 1.857714 1.887479 3.557135
v 1.989948 1.887479 3.840712
v 1.813636 1.887479 3.462610
v 1.945870 1.706830 3.746186
v 1.857714 1.706830 3.557135
v 1.923831 1.797154 3.698924
v 1.879753 1.797154 3.604399
v 1.682757 2.068127 3.638718
v 1.638679 1.887479 3.544193
v 1.682757 1.887479 3.638718
v 1.682757 1.706830 3.638718
v 1.704797 1.977803 3.685982
v 1.704797 1.797154 3.685982
v 1.770913 2.068127 3.827770
v 1.748875 1.797154 3.780508
v 1.748875 1.977803 3.780508
v 1.770913 1.706830 3.827770
v 1.770913 1.887479 3.827770
v 1.814991 1.887479 3.922296
v 1.770913 1.887479 3.827770
v 1.748875 1.977803 3.780508
v 1.759011 1.956670 3.762318
v 1.775894 1.887479 3.798523
v 1.725246 1.956670 3.689908
v 1.759011 1.818287 3.762318
v 1.704797 1.977803 3.685982
v 1.748875 1.797154 3.780508
v 1.682757 1.887479 3.638718
v 1.704797 1.797154 3.685982
v 1.708363 1.887479 3.653703
v 1.725246 1.818287 3.689908
v 1.857714 1.887479 3.557135
v 1.869616 1.818287 3.622587
v 1.879753 1.797154 3.604399
v 1.923831 1.797154 3.698924
v 1.852733 1.887479 3.586382
v 1.903381 1.818287 3.694997
v 1.869616 1.956670 3.622587
v 1.945870 1.887479 3.746186
v 1.879753 1.977803 3.604399
v 1.920264 1.887479 3.731202
v 1.903381 1.956670 3.694997
v 1.923831 1.977803 3.698924
v 1.744567 1.925560 3.376115
v 1.603207 2.464607 3.149059
v 1.642860 2.487479 3.158003
v 1.700389 1.921189 3.357467
v 1.476665 2.833115 2.801596
v 1.434860 2.809929 2.788037
v 1.616816 1.925560 3.435686
v 1.533746 2.464607 3.181449
v 1.630929 1.921189 3.389857
v 1.515108 2.487479 3.217574
v 1.348913 2.833115 2.861167
v 1.365399 2.809929 2.820427
v 1.630929 1.921189 3.389857
v 1.533746 2.464607 3.181449
v 1.603207 2.464607 3.149059
v 1.700389 1.921189 3.357467
v 1.365399 2.809929 2.820427
v 1.434860 2.809929 2.788037
v 1.529650 2.990617 2.891082
v 1.392722 2.884042 2.597439
v 1.449814 3.105733 2.719872
v 1.478513 3.122216 2.781418
v 1.522684 3.058530 2.876142
v 1.472560 2.768929 2.768650
v 1.399689 2.816132 2.612378
v 1.443859 2.752444 2.707102
v 1.326315 2.768929 2.836845
v 1.253444 2.816132 2.680573
v 1.297615 2.752444 2.775297
v 1.246478 2.884042 2.665634
v 1.383406 2.990617 2.959276
v 1.303569 3.105733 2.788067
v 1.332269 3.122216 2.849613
v 1.376439 3.058530 2.944337
v 1.869616 1.818287 3.622587
v 1.869616 1.956670 3.622587
v 1.903381 1.956670 3.694997
v 1.852733 1.887479 3.586382
v 1.903381 1.818287 3.694997
v 1.920264 1.887479 3.731202
v 1.725246 1.956670 3.689908
v 1.725246 1.818287 3.689908
v 1.759011 1.956670 3.762318
v 1.708363 1.887479 3.653703
v 1.759011 1.818287 3.762318
v 1.775894 1.887479 3.798523
v 1.770913 1.706830 3.827770
v 1.865533 1.887479 3.936897
v 1.814991 1.887479 3.922296
v 1.770913 2.068127 3.827770
v 1.814145 1.676872 3.826696
v 1.814145 2.098086 3.826696
v 1.711369 1.676872 3.606293
v 1.682757 2.068127 3.638718
v 1.682757 1.706830 3.638718
v 1.711369 2.098086 3.606292
v 1.659981 1.887479 3.496091
v 1.638679 1.887479 3.544193
v 1.968646 1.887479 3.888815
v 1.917258 1.676872 3.778613
v 1.945870 1.706830 3.746186
v 1.814483 1.676872 3.558211
v 1.989948 1.887479 3.840712
v 1.857714 1.706830 3.557135
v 1.945870 2.068127 3.746186
v 1.763095 1.887479 3.448008
v 1.917258 2.098086 3.778613
v 1.813636 1.887479 3.462610
v 1.857714 2.068127 3.557135
v 1.814482 2.098086 3.558209
v 1.344207 2.732225 2.838200
v 1.413071 2.999633 2.985880
v 1.383406 2.990617 2.959276
v 1.376439 3.058530 2.944337
v 1.326315 2.768929 2.836845
v 1.406128 3.067319 2.970990
v 1.315602 2.715797 2.776856
v 1.332269 3.122216 2.849613
v 1.297615 2.752444 2.775297
v 1.342636 3.158863 2.834832
v 1.252111 2.807342 2.640699
v 1.303569 3.105733 2.788067
v 1.253444 2.816132 2.680573
v 1.314031 3.142434 2.773488
v 1.246478 2.884042 2.665634
v 1.245167 2.875028 2.625809
v 1.370000 2.807342 2.585726
v 1.443859 2.752444 2.707102
v 1.433492 2.715797 2.721883
v 1.472560 2.768929 2.768650
v 1.399689 2.816132 2.612378
v 1.462097 2.732225 2.783227
v 1.392722 2.884042 2.597439
v 1.529650 2.990617 2.891082
v 1.363057 2.875028 2.570836
v 1.530961 2.999633 2.930907
v 1.431921 3.142434 2.718515
v 1.522684 3.058530 2.876142
v 1.449814 3.105733 2.719872
v 1.524018 3.067319 2.916017
v 1.460526 3.158863 2.779859
v 1.478513 3.122216 2.781418
v 1.807089 1.957107 3.510194
v 1.642860 2.487479 3.158003
v 1.698438 2.614989 3.277190
v 1.744567 1.925560 3.376115
v 1.476665 2.833115 2.801596
v 1.494760 2.954159 2.840401
v 1.348913 2.833115 2.861167
v 1.570687 2.614989 3.336762
v 1.367009 2.954159 2.899973
v 1.515108 2.487479 3.217574
v 1.679338 1.957107 3.569765
v 1.616816 1.925560 3.435686
v 1.074410 3.275653 2.260361
v 1.196802 3.336676 2.522832
v 1.164000 3.392494 2.452489
v 1.235935 3.305957 2.606754
v 1.083079 3.352831 2.278952
v 1.256885 3.101736 2.651680
v 1.047855 3.219508 2.203415
v 1.232493 2.988746 2.599372
v 1.326378 2.999083 2.800709
v 1.305603 2.899865 2.756156
v 1.101960 3.007090 2.319442
v 1.067538 3.027633 2.245624
v 1.124353 2.950945 2.367465
v 1.195760 3.056614 2.520597
v 1.202445 2.991447 2.534934
v 1.220419 3.007090 2.264204
v 1.166314 3.219508 2.148177
v 1.192869 3.275653 2.205123
v 1.201538 3.352831 2.223714
v 1.185997 3.027633 2.190386
v 1.282459 3.392494 2.397251
v 1.242812 2.950945 2.312226
v 1.314219 3.056614 2.465359
v 1.320904 2.991447 2.479696
v 1.315261 3.336676 2.467594
v 1.354394 3.305957 2.551515
v 1.375344 3.101736 2.596442
v 1.350952 2.988746 2.544133
v 1.444837 2.999083 2.745470
v 1.424061 2.899865 2.700917
v 1.708265 2.340094 3.314617
v 1.818991 2.517708 3.552070
v 1.726625 2.241594 3.353991
v 1.861042 2.478424 3.642248
v 1.779171 2.786657 3.466676
v 1.805440 2.899894 3.523009
v 1.718988 2.904738 3.337612
v 1.726788 2.789592 3.354339
v 1.646101 2.617719 3.181306
v 1.677384 2.581043 3.248394
v 1.690215 2.899894 3.576739
v 1.603763 2.904738 3.391342
v 1.663947 2.786657 3.520406
v 1.745817 2.478424 3.695978
v 1.611563 2.789592 3.408069
v 1.530877 2.617719 3.235036
v 1.562160 2.581043 3.302124
v 1.703767 2.517708 3.605800
v 1.611401 2.241594 3.407721
v 1.593040 2.340094 3.368347
v 1.857497 2.044697 3.638608
v 1.823957 2.414759 3.566680
v 1.901215 2.042025 3.732361
v 1.789630 2.350644 3.493066
v 1.745309 2.044697 3.690922
v 1.711769 2.414759 3.618995
v 1.677442 2.350644 3.545380
v 1.789027 2.042025 3.784675
v 1.398966 2.860529 2.724822
v 1.311047 2.971511 2.536280
v 1.350952 2.988746 2.544133
v 1.424061 2.899865 2.700917
v 1.232493 2.988746 2.599372
v 1.340046 2.860529 2.752297
v 1.305603 2.899865 2.756156
v 1.252127 2.971511 2.563755
v 1.689875 2.935238 3.333919
v 1.646101 2.617719 3.181306
v 1.604840 2.606101 3.151561
v 1.718988 2.904738 3.337612
v 1.530877 2.617719 3.235036
v 1.603763 2.904738 3.391342
v 1.619647 2.935238 3.366667
v 1.534612 2.606101 3.184309
v 1.340046 2.860529 2.752297
v 1.252127 2.971511 2.563755
v 1.311047 2.971511 2.536280
v 1.398966 2.860529 2.724822
v 1.524018 3.067319 2.916017
v 1.406128 3.067319 2.970990
v 1.413071 2.999633 2.985880
v 1.530961 2.999633 2.930907
v 1.726788 2.789592 3.354339
v 1.748507 2.756986 3.459655
v 1.710982 2.759089 3.379184
v 1.779171 2.786657 3.466676
v 1.611563 2.789592 3.408069
v 1.678279 2.756986 3.492402
v 1.663947 2.786657 3.520406
v 1.640754 2.759089 3.411931
v 1.534612 2.606101 3.184309
v 1.619647 2.935238 3.366667
v 1.689875 2.935238 3.333919
v 1.604840 2.606101 3.151561
v 1.678279 2.756986 3.492402
v 1.640754 2.759089 3.411931
v 1.748507 2.756986 3.459655
v 1.710982 2.759089 3.379184
v 1.462097 2.732225 2.783227
v 1.344207 2.732225 2.838200
v 1.315602 2.715797 2.776856
v 1.433492 2.715797 2.721883
v 1.759338 2.336717 3.487725
v 1.857497 2.044697 3.638608
v 1.825165 2.045277 3.628893
v 1.789630 2.350644 3.493066
v 1.692821 2.336717 3.518742
v 1.745309 2.044697 3.690922
v 1.677442 2.350644 3.545380
v 1.758648 2.045277 3.659910
v 1.593040 2.340094 3.368347
v 1.703767 2.517708 3.605800
v 1.710398 2.526740 3.561283
v 1.599874 2.349494 3.324262
v 1.780626 2.526740 3.528535
v 1.708265 2.340094 3.314617
v 1.670102 2.349494 3.291515
v 1.818991 2.517708 3.552070
v 1.235935 3.305957 2.606754
v 1.256885 3.101736 2.651680
v 1.296861 3.118276 2.659688
v 1.275691 3.324652 2.614287
v 1.355781 3.118276 2.632213
v 1.354394 3.305957 2.551515
v 1.334611 3.324652 2.586812
v 1.375344 3.101736 2.596442
v 1.818991 2.517708 3.552070
v 1.748507 2.756986 3.459655
v 1.779171 2.786657 3.466676
v 1.780626 2.526740 3.528535
v 1.703767 2.517708 3.605800
v 1.663947 2.786657 3.520406
v 1.678279 2.756986 3.492402
v 1.710398 2.526740 3.561283
v 1.758648 2.045277 3.659910
v 1.692821 2.336717 3.518742
v 1.759338 2.336717 3.487725
v 1.825165 2.045277 3.628893
v 1.462097 2.732225 2.783227
v 1.530961 2.999633 2.930907
v 1.344207 2.732225 2.838200
v 1.413071 2.999633 2.985880
v 1.211304 2.921780 2.322380
v 1.320904 2.991447 2.479696
v 1.305105 2.971303 2.523537
v 1.242812 2.950945 2.312226
v 1.202445 2.991447 2.534934
v 1.124353 2.950945 2.367465
v 1.152384 2.921780 2.349854
v 1.246185 2.971303 2.551012
v 1.355781 3.118276 2.632213
v 1.334611 3.324652 2.586812
v 1.296861 3.118276 2.659688
v 1.275691 3.324652 2.614287
v 1.780626 2.526740 3.528535
v 1.670102 2.349494 3.291515
v 1.710398 2.526740 3.561283
v 1.599874 2.349494 3.324262
v 1.305105 2.971303 2.523537
v 1.314219 3.056614 2.465359
v 1.292963 3.089670 2.497497
v 1.320904 2.991447 2.479696
v 1.246185 2.971303 2.551012
v 1.234043 3.089670 2.524972
v 1.195760 3.056614 2.520597
v 1.202445 2.991447 2.534934
v 1.748507 2.756986 3.459655
v 1.780626 2.526740 3.528535
v 1.678279 2.756986 3.492402
v 1.710398 2.526740 3.561283
v 1.211304 2.921780 2.322380
v 1.305105 2.971303 2.523537
v 1.152384 2.921780 2.349854
v 1.246185 2.971303 2.551012
v 1.246185 2.971303 2.551012
v 1.292963 3.089670 2.497497
v 1.234043 3.089670 2.524972
v 1.305105 2.971303 2.523537
v 1.074410 3.275653 2.260361
v 1.101960 3.007090 2.319442
v 1.140242 3.040146 2.323815
v 1.118234 3.254686 2.276619
v 1.199162 3.040146 2.296340
v 1.192869 3.275653 2.205123
v 1.177154 3.254686 2.249144
v 1.220419 3.007090 2.264204
v 1.315261 3.336676 2.467594
v 1.177154 3.254686 2.249144
v 1.192869 3.275653 2.205123
v 1.276896 3.304417 2.463042
v 1.196802 3.336676 2.522832
v 1.074410 3.275653 2.260361
v 1.118234 3.254686 2.276619
v 1.217976 3.304417 2.490517
v 1.814483 1.676872 3.558211
v 1.917258 1.676872 3.778613
v 1.711369 1.676872 3.606293
v 1.814145 1.676872 3.826696
v 1.659981 1.887479 3.496091
v 1.968646 1.887479 3.888815
v 1.763095 1.887479 3.448008
v 1.865533 1.887479 3.936897
v 1.711369 2.098086 3.606292
v 1.917258 2.098086 3.778613
v 1.814482 2.098086 3.558209
v 1.814145 2.098086 3.826696
v 1.140242 3.040146 2.323815
v 1.177154 3.254686 2.249144
v 1.118234 3.254686 2.276619
v 1.199162 3.040146 2.296340
v 1.118234 3.254686 2.276619
v 1.276896 3.304417 2.463042
v 1.217976 3.304417 2.490517
v 1.177154 3.254686 2.249144
vn -0.358024 0.530200 -0.768495
vn -0.357933 0.530300 -0.768537
vn -0.358338 0.530100 -0.768458
vn -0.855512 0.407200 -0.319809
vn 0.304925 0.407200 -0.860929
vn -0.085707 0.979200 -0.183799
vn -0.085254 0.979200 -0.184011
vn -0.085435 0.979200 -0.183926
vn -0.410700 -0.235900 -0.880750
vn -0.410429 -0.235800 -0.880877
vn -0.646062 0.752300 0.129357
vn -0.646062 0.752200 0.129357
vn 0.514374 0.752200 -0.411763
vn 0.514374 0.752300 -0.411763
vn 0.264734 -0.181200 -0.947119
vn 0.264691 -0.181200 -0.947210
vn -0.895745 -0.181200 -0.406089
vn -0.895703 -0.181200 -0.405999
vn -0.895745 -0.180900 -0.406089
vn 0.402671 0.303600 0.863530
vn 0.402943 0.303600 0.863403
vn -0.091690 0.976000 -0.197339
vn -0.091557 0.976100 -0.197291
vn -0.099696 0.971800 -0.213798
vn -0.360874 0.520400 -0.773896
vn -0.360560 0.520700 -0.773932
vn 0.254923 -0.797600 0.546685
vn 0.255237 -0.797500 0.546649
vn -0.410429 -0.235700 -0.880877
vn 0.516317 0.744100 -0.423923
vn 0.516577 0.744200 -0.423603
vn -0.656626 0.744100 0.123029
vn -0.656548 0.744200 0.123434
vn -0.410247 -0.235700 -0.880961
vn -0.410066 -0.235700 -0.881046
vn 0.380586 0.436200 0.815460
vn 0.380634 0.436300 0.815327
vn 0.955716 0.191400 0.223541
vn -0.443080 0.191400 0.875810
vn 0.264649 -0.180700 -0.947300
vn -0.895787 -0.180700 -0.406180
vn 0.191815 0.891600 0.410165
vn 0.191766 0.891600 0.410298
vn 0.191676 0.891600 0.410340
vn 0.191724 0.891600 0.410207
vn -0.543382 -0.504300 0.671122
vn -0.543515 -0.504300 0.671074
vn -0.543424 -0.504300 0.671032
vn 0.863437 -0.504300 0.015001
vn 0.863389 -0.504300 0.015134
vn 0.863346 -0.504300 0.015043
vn -0.287379 0.336800 0.896662
vn 0.871607 0.336800 0.356218
vn 0.010687 0.999700 0.021498
vn 0.010016 0.999700 0.021479
vn 0.010330 0.999700 0.021443
vn -0.433063 0.684800 0.586137
vn -0.433105 0.684800 0.586046
vn 0.727332 0.684800 0.044926
vn 0.727374 0.684800 0.045016
vn 0.219931 0.854000 0.471643
vn 0.391598 0.376200 0.839785
vn 0.705779 0.635800 -0.312449
vn -0.693016 0.635800 0.339820
vn 0.368421 -0.491500 0.789134
vn 0.368560 -0.491600 0.788959
vn 0.368016 -0.491700 0.789213
vn -0.439637 -0.322600 0.838235
vn 0.924718 -0.322600 0.202025
vn 0.244654 0.815400 0.524662
vn 0.245022 0.815500 0.524269
vn 0.224960 0.846600 0.482428
vn 0.225153 0.846800 0.481896
vn -0.209039 -0.868500 -0.449468
vn -0.209407 -0.868600 -0.449076
vn 0.743703 0.659600 0.108901
vn -0.394620 0.659600 0.639709
vn -0.740994 -0.667400 -0.073752
vn -0.741109 -0.667300 -0.074471
vn -0.741079 -0.667400 -0.073933
vn 0.419327 -0.667300 -0.615592
vn -0.426622 0.243100 0.871115
vn -0.471840 0.400400 0.785504
vn -0.473849 0.411100 0.778827
vn -0.501177 0.553000 0.665565
vn 0.941540 0.243100 0.233130
vn 0.905023 0.400400 0.143462
vn 0.901110 0.411100 0.137673
vn 0.832002 0.553000 0.043893
vn 0.832044 0.553000 0.043984
vn -0.219393 -0.854000 -0.471673
vn -0.219931 -0.853900 -0.471643
vn 0.906308 -0.000000 -0.422618
vn -0.906308 -0.000000 0.422618
vn -0.985678 -0.000200 -0.168303
vn -0.865667 -0.492600 0.089535
vn -0.865619 -0.492700 0.089403
vn -0.985721 -0.000200 -0.168394
vn -0.625246 -0.492600 0.605357
vn -0.865631 0.492600 0.089850
vn -0.624937 -0.492700 0.605545
vn -0.505053 -0.000000 0.863111
vn -0.624901 0.492300 0.605859
vn -0.504612 -0.000200 0.863347
vn -0.625119 0.492500 0.605629
vn 0.985678 -0.000200 0.168303
vn 0.865631 0.492600 -0.089850
vn 0.865667 0.492500 -0.089535
vn 0.625246 0.492600 -0.605357
vn 0.985721 -0.000200 0.168394
vn 0.625028 0.492500 -0.605587
vn 0.865631 -0.492600 -0.089850
vn 0.505053 -0.000000 -0.863111
vn 0.504612 -0.000200 -0.863347
vn 0.624895 -0.492700 -0.605635
vn 0.625246 -0.492600 -0.605357
vn 0.379818 -0.272900 -0.883936
vn 0.434543 -0.389100 -0.812247
vn 0.440062 -0.401800 -0.803014
vn 0.484058 -0.506400 -0.713634
vn -0.921277 -0.272900 -0.277225
vn -0.901536 -0.389100 -0.189223
vn -0.898011 -0.401800 -0.179061
vn -0.857821 -0.506400 -0.087905
vn -0.388784 -0.389900 -0.834697
vn -0.341191 -0.588600 -0.732871
vn -0.341856 -0.587900 -0.733112
vn -0.388917 -0.389900 -0.834746
vn -0.276537 -0.755500 -0.593982
vn -0.276815 -0.755600 -0.593632
vn 0.906139 -0.000200 -0.422981
vn -0.906477 -0.000200 0.422256
vn -0.436788 -0.652500 0.619320
vn -0.277587 -0.000000 0.960726
vn -0.436788 0.652500 0.619320
vn -0.755188 -0.652500 -0.063492
vn -0.755376 0.652200 -0.063184
vn -0.755327 0.652300 -0.063317
vn -0.914389 -0.000000 -0.404899
vn 0.914437 -0.000500 0.404766
vn 0.755188 -0.652500 0.063492
vn 0.436788 -0.652500 -0.619320
vn 0.914389 -0.000000 0.404899
vn 0.755188 0.652500 0.063492
vn 0.277720 -0.000600 -0.960678
vn 0.277587 -0.000000 -0.960726
vn 0.437144 0.652200 -0.619265
vn 0.436788 0.652500 -0.619320
vn -0.739611 -0.339100 0.581340
vn -0.661300 -0.035000 0.749279
vn -0.641916 -0.121600 0.757011
vn -0.684672 0.298800 0.664846
vn -0.691151 -0.312900 0.651426
vn -0.686560 0.214600 0.694635
vn -0.844970 -0.399600 0.355398
vn -0.765827 0.414800 0.491282
vn -0.868608 -0.414800 0.270868
vn -0.815386 0.399600 0.418839
vn -0.973488 -0.214300 0.079789
vn -0.943285 0.312900 0.110723
vn -0.949576 -0.298300 0.096996
vn -0.920745 0.339100 0.192897
vn -0.992520 0.121600 0.005138
vn -0.999026 0.035000 0.025495
vn 0.686868 -0.214300 -0.694447
vn 0.765827 -0.414800 -0.491282
vn 0.815386 -0.399600 -0.418839
vn 0.943285 -0.312900 -0.110723
vn 0.684763 -0.298300 -0.664888
vn 0.920745 -0.339100 -0.192897
vn 0.641916 0.121600 -0.757011
vn 0.992520 -0.121600 -0.005138
vn 0.661608 0.035000 -0.749092
vn 0.999056 -0.035000 -0.024958
vn 0.739611 0.339100 -0.581340
vn 0.949358 0.298600 -0.097225
vn 0.691151 0.312900 -0.651426
vn 0.973433 0.214600 -0.079433
vn 0.844970 0.399600 -0.355398
vn 0.868608 0.414800 -0.270868
vn -0.906435 -0.000200 0.422346
vn 0.439197 -0.673500 -0.594514
vn 0.439155 -0.673500 -0.594605
vn -0.737777 -0.673500 -0.045793
vn -0.737734 -0.673500 -0.045702
vn 0.475818 0.327100 -0.816488
vn 0.475860 0.327100 -0.816397
vn -0.931273 0.327100 -0.160240
vn -0.931316 0.327100 -0.160331
vn -0.198570 -0.882400 -0.426545
vn -0.198926 -0.882300 -0.426599
vn 0.411202 0.236200 0.880406
vn 0.410930 0.236100 0.880532
vn 0.411202 0.236300 0.880406
vn 0.693016 -0.635800 -0.339820
vn 0.692835 -0.636100 -0.339735
vn -0.705779 -0.635800 0.312449
vn -0.360578 0.521600 -0.773262
vn -0.360258 0.521400 -0.773521
vn -0.360167 0.521400 -0.773564
vn -0.010016 -0.999700 -0.021479
vn -0.009738 -0.999700 -0.021830
vn 0.099696 -0.971800 0.213798
vn 0.290228 -0.360800 -0.886294
vn -0.865496 -0.360800 -0.347372
vn -0.865502 -0.361100 -0.347148
vn -0.839653 0.542900 -0.014396
vn -0.839605 0.543100 -0.014529
vn -0.839653 0.543000 -0.014396
vn -0.839520 0.543100 -0.014348
vn 0.528690 0.543000 -0.652465
vn 0.528690 0.542900 -0.652465
vn 0.528642 0.543100 -0.652332
vn 0.528558 0.543100 -0.652514
vn -0.264691 0.181200 0.947210
vn 0.895745 0.181200 0.406089
vn 0.447059 -0.204400 -0.870825
vn -0.954455 -0.204400 -0.217288
vn -0.372296 -0.471300 -0.799575
vn -0.372707 -0.471400 -0.799273
vn 0.360874 -0.520400 0.773896
vn 0.361369 -0.520300 0.773776
vn 0.361550 -0.520300 0.773691
vn 0.648494 -0.751900 -0.118464
vn -0.507593 -0.751900 0.420627
vn 0.410700 0.235900 0.880750
vn -0.236756 0.827500 -0.509145
vn -0.236805 0.827500 -0.509013
vn -0.236944 0.827600 -0.508837
vn -0.236895 0.827600 -0.508970
vn 0.895703 0.181200 0.405999
vn 0.895564 0.181700 0.406174
vn -0.264734 0.181200 0.947119
vn -0.264510 0.181700 0.947125
vn -0.401318 -0.313500 -0.860630
vn -0.400732 -0.313900 -0.860793
vn -0.400823 -0.313900 -0.860751
vn 0.092046 -0.976000 0.197394
vn 0.092101 -0.976100 0.197037
vn 0.092330 -0.976100 0.196820
vn 0.092240 -0.976100 0.196862
vn 0.411021 0.236200 0.880490
vn 0.647161 -0.751700 -0.127001
vn 0.647511 -0.751500 -0.126723
vn 0.647378 -0.751600 -0.126771
vn -0.513288 -0.751500 0.414566
vn -0.513276 -0.751700 0.414119
vn -0.210814 -0.866100 -0.453275
vn 0.211859 -0.866100 0.452677
vn 0.211811 -0.866100 0.452810
vn -0.422618 -0.000000 -0.906308
vn 0.422618 -0.000000 0.906308
vn -0.211309 0.866000 -0.453154
vn 0.211545 0.866200 0.452713
vn -0.210820 0.866200 -0.453051
vn 0.411111 0.236100 0.880448
vn 0.087808 -0.978400 0.187123
vn 0.087144 -0.978500 0.186881
vt 0.000000 0.000000
s 1
f 1/1/1 2/1/2 3/1/2
f 2/1/2 1/1/1 4/1/3
f 5/1/4 6/1/4 7/1/4
f 6/1/4 5/1/4 8/1/4
f 9/1/5 10/1/5 11/1/5
f 9/1/5 11/1/5 12/1/5
f 13/1/6 14/1/7 15/1/7
f 16/1/8 15/1/7 14/1/7
f 17/1/9 18/1/10 19/1/9
f 20/1/9 19/1/9 18/1/10
f 21/1/11 22/1/12 23/1/12
f 21/1/11 23/1/12 24/1/11
f 25/1/13 26/1/14 27/1/14
f 26/1/14 25/1/13 28/1/13
f 29/1/15 30/1/16 31/1/16
f 30/1/16 29/1/15 32/1/15
f 33/1/17 34/1/18 35/1/18
f 33/1/17 35/1/18 36/1/19
f 37/1/20 38/1/20 39/1/21
f 38/1/20 37/1/20 40/1/20
f 41/1/22 42/1/23 43/1/22
f 42/1/23 41/1/22 44/1/22
f 45/1/24 46/1/24 47/1/24
f 47/1/24 48/1/24 45/1/24
f 49/1/25 50/1/26 51/1/25
f 50/1/26 49/1/25 52/1/25
f 53/1/27 54/1/28 55/1/27
f 54/1/28 53/1/27 56/1/27
f 57/1/10 58/1/9 59/1/9
f 58/1/9 57/1/10 60/1/29
f 61/1/30 62/1/31 63/1/30
f 61/1/30 63/1/30 64/1/30
f 65/1/32 66/1/32 67/1/32
f 66/1/32 65/1/32 68/1/33
f 69/1/9 70/1/34 71/1/35
f 70/1/34 69/1/9 72/1/34
f 73/1/36 74/1/36 75/1/36
f 74/1/36 73/1/36 76/1/37
f 77/1/38 78/1/38 79/1/38
f 78/1/38 77/1/38 80/1/38
f 81/1/39 82/1/39 83/1/39
f 81/1/39 83/1/39 84/1/39
f 85/1/15 86/1/16 87/1/16
f 86/1/16 85/1/15 88/1/40
f 89/1/17 90/1/41 91/1/18
f 91/1/18 92/1/17 89/1/17
f 93/1/42 94/1/43 95/1/44
f 94/1/43 93/1/42 96/1/45
f 97/1/46 98/1/46 99/1/47
f 98/1/46 97/1/46 100/1/48
f 101/1/49 102/1/50 103/1/51
f 101/1/49 104/1/49 102/1/50
f 105/1/52 106/1/52 107/1/52
f 107/1/52 108/1/52 105/1/52
f 109/1/53 110/1/53 111/1/53
f 110/1/53 109/1/53 112/1/53
f 113/1/54 114/1/54 115/1/55
f 114/1/54 113/1/54 116/1/56
f 117/1/57 118/1/58 119/1/58
f 118/1/58 117/1/57 120/1/57
f 121/1/59 122/1/60 123/1/60
f 121/1/59 123/1/60 124/1/59
f 125/1/61 126/1/61 127/1/61
f 127/1/61 126/1/61 128/1/61
f 129/1/62 130/1/62 131/1/62
f 129/1/62 131/1/62 132/1/62
f 133/1/63 134/1/63 135/1/63
f 133/1/63 135/1/63 136/1/63
f 137/1/64 138/1/64 139/1/64
f 138/1/64 137/1/64 140/1/64
f 141/1/65 142/1/66 143/1/67
f 142/1/66 141/1/65 144/1/66
f 145/1/68 146/1/68 147/1/68
f 146/1/68 145/1/68 148/1/68
f 149/1/69 150/1/69 151/1/69
f 149/1/69 151/1/69 152/1/69
f 153/1/70 154/1/71 155/1/71
f 156/1/70 155/1/71 154/1/71
f 157/1/72 158/1/72 159/1/73
f 157/1/72 159/1/73 160/1/72
f 161/1/74 162/1/75 163/1/74
f 164/1/74 163/1/74 162/1/75
f 165/1/76 166/1/76 167/1/76
f 167/1/76 168/1/76 165/1/76
f 169/1/77 170/1/77 171/1/77
f 170/1/77 169/1/77 172/1/77
f 173/1/78 174/1/79 175/1/80
f 174/1/79 173/1/78 176/1/79
f 177/1/81 178/1/81 179/1/81
f 177/1/81 179/1/81 180/1/81
f 181/1/82 182/1/83 183/1/82
f 182/1/83 181/1/82 184/1/84
f 185/1/85 182/1/83 184/1/84
f 182/1/83 185/1/85 186/1/85
f 187/1/86 188/1/87 189/1/88
f 188/1/87 187/1/86 190/1/86
f 191/1/89 189/1/88 188/1/87
f 191/1/89 188/1/87 192/1/90
f 193/1/91 194/1/92 195/1/91
f 193/1/91 195/1/91 196/1/92
f 197/1/93 198/1/93 199/1/93
f 197/1/93 199/1/93 200/1/93
f 198/1/93 201/1/93 199/1/93
f 202/1/93 197/1/93 200/1/93
f 203/1/93 201/1/93 198/1/93
f 197/1/93 202/1/93 204/1/93
f 205/1/93 201/1/93 203/1/93
f 206/1/93 204/1/93 202/1/93
f 201/1/93 205/1/93 207/1/93
f 206/1/93 202/1/93 208/1/93
f 205/1/93 208/1/93 207/1/93
f 208/1/93 205/1/93 206/1/93
f 209/1/94 210/1/94 211/1/94
f 212/1/94 211/1/94 210/1/94
f 209/1/94 211/1/94 213/1/94
f 211/1/94 212/1/94 214/1/94
f 209/1/94 213/1/94 215/1/94
f 212/1/94 216/1/94 214/1/94
f 215/1/94 213/1/94 217/1/94
f 212/1/94 218/1/94 216/1/94
f 219/1/94 215/1/94 217/1/94
f 218/1/94 219/1/94 216/1/94
f 215/1/94 219/1/94 220/1/94
f 220/1/94 219/1/94 218/1/94
f 221/1/95 222/1/96 223/1/97
f 221/1/95 223/1/97 224/1/98
f 222/1/96 225/1/99 223/1/97
f 226/1/100 221/1/95 224/1/98
f 225/1/99 222/1/96 227/1/101
f 221/1/95 226/1/100 228/1/100
f 229/1/102 225/1/99 227/1/101
f 230/1/103 228/1/100 226/1/100
f 225/1/99 229/1/102 231/1/104
f 230/1/103 226/1/100 232/1/105
f 229/1/102 232/1/105 231/1/104
f 232/1/105 229/1/102 230/1/103
f 233/1/106 234/1/107 235/1/108
f 234/1/107 236/1/109 235/1/108
f 234/1/107 233/1/106 237/1/110
f 236/1/109 234/1/107 238/1/111
f 233/1/106 239/1/112 237/1/110
f 240/1/113 236/1/109 238/1/111
f 239/1/112 233/1/106 241/1/112
f 240/1/113 238/1/111 242/1/114
f 241/1/112 243/1/115 239/1/112
f 243/1/115 240/1/113 242/1/114
f 241/1/112 244/1/116 243/1/115
f 240/1/113 243/1/115 244/1/116
f 245/1/117 246/1/118 247/1/119
f 246/1/118 245/1/117 248/1/117
f 249/1/120 247/1/119 246/1/118
f 246/1/118 250/1/120 249/1/120
f 251/1/121 252/1/122 253/1/121
f 252/1/122 251/1/121 254/1/123
f 255/1/124 252/1/122 254/1/123
f 252/1/122 255/1/124 256/1/124
f 257/1/125 258/1/126 259/1/127
f 257/1/125 259/1/127 260/1/128
f 261/1/129 259/1/127 258/1/126
f 259/1/127 261/1/129 262/1/130
f 263/1/93 264/1/93 265/1/93
f 266/1/93 263/1/93 265/1/93
f 263/1/93 266/1/93 267/1/131
f 264/1/93 263/1/93 268/1/93
f 264/1/93 268/1/93 269/1/93
f 269/1/93 268/1/93 270/1/131
f 271/1/94 272/1/94 273/1/132
f 272/1/94 271/1/94 274/1/94
f 275/1/94 274/1/94 271/1/94
f 275/1/94 276/1/94 274/1/94
f 276/1/94 275/1/94 277/1/94
f 277/1/94 275/1/94 278/1/94
f 279/1/93 280/1/93 281/1/93
f 280/1/93 279/1/93 282/1/93
f 279/1/93 281/1/93 283/1/93
f 281/1/93 284/1/93 283/1/93
f 285/1/94 286/1/94 287/1/94
f 286/1/94 285/1/94 288/1/94
f 289/1/94 287/1/94 286/1/94
f 287/1/94 289/1/94 290/1/94
f 291/1/133 292/1/134 293/1/134
f 294/1/135 293/1/134 292/1/134
f 292/1/134 291/1/133 295/1/133
f 292/1/134 296/1/135 294/1/135
f 297/1/136 295/1/133 291/1/133
f 296/1/135 298/1/137 294/1/135
f 297/1/136 291/1/133 299/1/136
f 296/1/135 300/1/138 298/1/137
f 301/1/139 297/1/136 299/1/136
f 301/1/139 298/1/137 300/1/138
f 299/1/136 302/1/139 301/1/139
f 298/1/137 301/1/139 302/1/139
f 303/1/140 304/1/141 305/1/141
f 306/1/142 305/1/141 304/1/141
f 303/1/140 305/1/141 307/1/143
f 305/1/141 306/1/142 308/1/142
f 309/1/144 303/1/140 307/1/143
f 310/1/145 308/1/142 306/1/142
f 303/1/140 309/1/144 311/1/144
f 308/1/142 310/1/145 312/1/146
f 313/1/147 311/1/144 309/1/144
f 310/1/145 313/1/147 312/1/146
f 311/1/144 313/1/147 314/1/148
f 313/1/147 310/1/145 314/1/148
f 315/1/149 316/1/150 317/1/151
f 316/1/150 318/1/152 317/1/151
f 315/1/149 317/1/151 319/1/153
f 318/1/152 316/1/150 320/1/154
f 319/1/153 321/1/155 315/1/149
f 320/1/154 322/1/156 318/1/152
f 321/1/155 319/1/153 323/1/157
f 320/1/154 324/1/158 322/1/156
f 325/1/159 321/1/155 323/1/157
f 324/1/158 326/1/160 322/1/156
f 325/1/159 323/1/157 327/1/161
f 326/1/160 324/1/158 328/1/162
f 329/1/163 325/1/159 327/1/161
f 328/1/162 329/1/163 326/1/160
f 325/1/159 329/1/163 330/1/164
f 328/1/162 330/1/164 329/1/163
f 331/1/165 332/1/166 333/1/167
f 333/1/167 332/1/166 334/1/168
f 332/1/166 331/1/165 335/1/169
f 336/1/170 333/1/167 334/1/168
f 331/1/165 337/1/171 335/1/169
f 338/1/172 336/1/170 334/1/168
f 337/1/171 331/1/165 339/1/173
f 336/1/170 338/1/172 340/1/174
f 341/1/175 337/1/171 339/1/173
f 338/1/172 342/1/176 340/1/174
f 337/1/171 341/1/175 343/1/177
f 340/1/174 342/1/176 344/1/178
f 345/1/179 343/1/177 341/1/175
f 346/1/180 344/1/178 342/1/176
f 343/1/177 345/1/179 346/1/180
f 344/1/178 346/1/180 345/1/179
f 347/1/93 348/1/93 349/1/93
f 348/1/93 347/1/93 350/1/93
f 351/1/93 349/1/93 348/1/93
f 349/1/93 351/1/93 352/1/93
f 353/1/94 354/1/94 355/1/94
f 354/1/94 353/1/94 356/1/94
f 357/1/94 354/1/94 356/1/94
f 357/1/94 356/1/94 358/1/94
f 359/1/94 360/1/94 361/1/94
f 362/1/94 361/1/94 360/1/94
f 359/1/94 361/1/94 363/1/94
f 360/1/94 364/1/94 362/1/94
f 363/1/94 365/1/94 359/1/94
f 364/1/94 360/1/94 366/1/94
f 366/1/94 367/1/94 364/1/94
f 367/1/94 366/1/94 368/1/94
f 369/1/94 359/1/94 365/1/94
f 369/1/94 365/1/94 370/1/94
f 370/1/94 371/1/94 369/1/94
f 372/1/94 369/1/94 371/1/94
f 371/1/94 373/1/94 372/1/94
f 374/1/93 375/1/93 376/1/93
f 375/1/93 377/1/93 376/1/93
f 375/1/93 374/1/93 378/1/93
f 379/1/93 376/1/93 377/1/93
f 380/1/93 378/1/93 374/1/93
f 381/1/93 380/1/93 374/1/93
f 380/1/93 381/1/93 382/1/93
f 383/1/93 376/1/93 379/1/93
f 379/1/93 384/1/93 383/1/93
f 385/1/93 383/1/93 384/1/93
f 383/1/93 385/1/93 386/1/93
f 387/1/93 386/1/93 385/1/93
f 386/1/93 387/1/93 388/1/93
f 389/1/93 390/1/93 391/1/93
f 392/1/93 391/1/93 390/1/93
f 393/1/93 392/1/93 390/1/93
f 392/1/93 393/1/93 394/1/93
f 395/1/93 394/1/93 393/1/93
f 395/1/93 393/1/93 396/1/93
f 396/1/93 397/1/93 395/1/93
f 397/1/93 396/1/93 398/1/131
f 399/1/94 400/1/94 401/1/94
f 401/1/94 402/1/94 399/1/94
f 401/1/94 400/1/94 403/1/94
f 404/1/94 403/1/94 400/1/94
f 403/1/94 404/1/94 405/1/181
f 402/1/94 401/1/94 406/1/94
f 407/1/94 402/1/94 406/1/94
f 407/1/94 406/1/94 408/1/94
f 409/1/93 410/1/93 411/1/93
f 410/1/93 409/1/93 412/1/93
f 413/1/94 414/1/94 415/1/94
f 414/1/94 413/1/94 416/1/181
f 417/1/182 418/1/183 419/1/183
f 417/1/182 419/1/183 420/1/182
f 421/1/184 422/1/185 423/1/185
f 422/1/185 421/1/184 424/1/184
f 425/1/186 426/1/186 427/1/187
f 426/1/186 425/1/186 428/1/186
f 429/1/188 430/1/189 431/1/189
f 429/1/188 431/1/189 432/1/188
f 433/1/190 434/1/190 435/1/191
f 433/1/190 435/1/191 436/1/191
f 437/1/192 438/1/192 439/1/193
f 439/1/193 440/1/194 437/1/192
f 441/1/195 442/1/195 443/1/196
f 442/1/195 441/1/195 444/1/195
f 445/1/197 446/1/197 447/1/197
f 446/1/197 445/1/197 448/1/197
f 449/1/198 450/1/199 451/1/199
f 449/1/198 451/1/199 452/1/200
f 453/1/201 454/1/202 455/1/202
f 454/1/202 456/1/201 455/1/202
f 457/1/203 458/1/203 459/1/203
f 459/1/203 460/1/203 457/1/203
f 461/1/204 462/1/204 463/1/204
f 462/1/204 461/1/204 464/1/204
f 465/1/205 466/1/205 467/1/206
f 466/1/205 465/1/205 468/1/205
f 469/1/207 470/1/208 471/1/209
f 471/1/209 472/1/210 469/1/207
f 473/1/211 474/1/212 475/1/213
f 474/1/212 473/1/211 476/1/214
f 477/1/215 478/1/215 479/1/215
f 477/1/215 479/1/215 480/1/215
f 481/1/216 482/1/216 483/1/216
f 482/1/216 481/1/216 484/1/216
f 485/1/217 486/1/217 487/1/217
f 486/1/217 485/1/217 488/1/217
f 489/1/218 490/1/218 491/1/218
f 491/1/218 492/1/218 489/1/218
f 493/1/219 494/1/220 495/1/219
f 493/1/219 495/1/219 496/1/220
f 497/1/221 498/1/222 499/1/223
f 500/1/221 499/1/223 498/1/222
f 501/1/224 502/1/224 503/1/224
f 502/1/224 501/1/224 504/1/224
f 505/1/225 506/1/225 507/1/225
f 505/1/225 507/1/225 508/1/225
f 509/1/226 510/1/226 511/1/193
f 512/1/226 511/1/193 510/1/226
f 513/1/227 514/1/228 515/1/229
f 516/1/230 515/1/229 514/1/228
f 517/1/231 518/1/232 519/1/231
f 518/1/232 517/1/231 520/1/231
f 521/1/233 522/1/233 523/1/234
f 521/1/233 523/1/234 524/1/233
f 525/1/235 526/1/236 527/1/237
f 528/1/235 527/1/237 526/1/236
f 529/1/238 530/1/239 531/1/240
f 532/1/241 531/1/240 530/1/239
f 533/1/194 534/1/194 535/1/242
f 534/1/194 533/1/194 536/1/226
f 537/1/215 538/1/215 539/1/215
f 537/1/215 539/1/215 540/1/215
f 541/1/216 542/1/216 543/1/216
f 542/1/216 541/1/216 544/1/216
f 545/1/243 546/1/244 547/1/243
f 546/1/244 545/1/243 548/1/245
f 549/1/246 550/1/247 551/1/246
f 549/1/246 551/1/246 552/1/246
f 553/1/248 554/1/249 555/1/248
f 556/1/250 555/1/248 554/1/249
f 555/1/248 557/1/251 553/1/248
f 554/1/249 558/1/252 556/1/250
f 559/1/251 553/1/248 557/1/251
f 560/1/252 556/1/250 558/1/252
f 557/1/251 561/1/253 559/1/251
f 558/1/252 562/1/254 560/1/252
f 563/1/255 559/1/251 561/1/253
f 564/1/254 560/1/252 562/1/254
f 562/1/254 563/1/255 564/1/254
f 561/1/253 564/1/254 563/1/255
f 565/1/193 566/1/256 567/1/226
f 566/1/256 565/1/193 568/1/226
f 569/1/257 570/1/258 571/1/257
f 570/1/258 569/1/257 572/1/257
