# Object Export From Tinkercad Server 2015

mtllib obj.mtl

o obj_0
v -0.0787 		-1.1031 		0.3542
v -0.0657 		-1.0811 		0.3542
v -0.0728 		-1.081 		0.3542
v -0.0861 		-1.1029 		0.3542
v -0.3111 		-1.4026 		0.2252
v -0.3394 		-1.4211 		0.2132
v -0.2504 		-1.1916 		0.2142
v -0.217 		-1.3964 		0.1962
v -0.2255 		-1.3526 		0.2187
v -0.2047 		-1.3419 		0.2062
v -0.2118 		-1.3475 		0.1962
v -0.2162 		-1.3501 		0.1962
v -0.2367 		-1.3623 		0.1962
v -0.2132 		-1.3437 		0.1962
v -0.216 		-1.3436 		0.1962
v -0.3113 		-1.4136 		0.1462
v -0.2264 		-1.3661 		0.1392
v -0.3395 		-1.4281 		0.1622
v -0.2163 		-1.3582 		0.1381
v -0.2163 		-1.3586 		0.1381
v -0.2263 		-1.3561 		0.2192
v -0.2291 		-1.366 		0.1392
v -0.0339 		-1.2114 		0.2077
v 3.1988 		-1.2128 		0.0442
v 0.0329 		-1.2111 		0.2083
v -0.2162 		-1.3546 		0.1641
v 3.2553 		-1.3518 		0.1192
v -0.2162 		-1.355 		0.1645
v -0.2174 		-1.3554 		0.1663
v 3.4919 		-1.2649 		0.1562
v 3.2585 		-1.1688 		0.1942
v -0.0232 		-1.1511 		0.1608
v -0.2163 		-1.3559 		0.1652
v -0.0197 		-1.1514 		0.1594
v 3.1971 		-1.3058 		0.2692
v -0.0177 		-1.1509 		0.1631
v 0.2455 		-1.4313 		0.2132
v -0.2507 		-1.2066 		0.0982
v 0.2945 		-1.4323 		0.212
v -0.3005 		-1.1987 		0.1562
v -0.2515 		-1.2536 		0.1342
v 0.2157 		-1.3638 		0.2192
v -0.2052 		-1.3397 		0.2065
v -0.2513 		-1.2456 		0.1922
v -0.2497 		-1.1526 		0.1212
v -0.1289 		-1.1185 		0.3119
v -0.1193 		-1.1229 		0.3274
v 0.2155 		-1.3738 		0.1392
v 0.2955 		-1.3766 		0.1546
v 0.2944 		-1.4379 		0.1711
v 0.2454 		-1.4383 		0.1622
v -0.198 		-1.3415 		0.2022
v -0.2496 		-1.1446 		0.1792
v 0.2804 		-1.3691 		0.2072
v -0.0216 		-1.1564 		0.154
v -0.0246 		-1.2191 		0.2046
v 0.032 		-1.2201 		0.2046
v 0.2956 		-1.37 		0.2069
v 3.2333 		-1.2134 		0.1212
v 3.2579 		-1.2059 		0.179
v 3.2578 		-1.2058 		0.1792
v 3.232 		-1.2674 		0.0982
v 3.2327 		-1.2524 		0.2142
v 3.2559 		-1.3148 		0.1342
v 3.2317 		-1.3064 		0.1922
v 3.256 		-1.3148 		0.1344
# 66 vertices

g group_0_15506754

usemtl color_15506754
s 0

f 1 	2 	3
f 1 	3 	4
f 10 	11 	9
f 11 	12 	9
f 12 	13 	9
f 5 	9 	13
f 13 	26 	16
f 14 	15 	12
f 14 	12 	11
f 5 	21 	9
f 20 	22 	19
f 19 	22 	16
f 16 	22 	17
f 23 	25 	7
f 19 	16 	26
f 5 	13 	16
f 6 	5 	16
f 64 	66 	41
f 32 	34 	45
f 22 	20 	28
f 22 	28 	29
f 30 	27 	24
f 18 	6 	16
f 24 	31 	30
f 17 	22 	33
f 29 	33 	22
f 13 	8 	29
f 28 	26 	29
f 13 	29 	26
f 33 	29 	8
f 27 	30 	35
f 7 	40 	44
f 32 	53 	36
f 40 	38 	41
f 21 	37 	42
f 10 	43 	14
f 10 	14 	11
f 41 	44 	40
f 40 	45 	38
f 37 	21 	5
f 46 	47 	4
f 46 	4 	3
f 50 	51 	49
f 48 	49 	51
f 40 	53 	45
f 51 	16 	17
f 37 	54 	42
f 51 	18 	16
f 7 	53 	40
f 51 	17 	48
f 51 	37 	18
f 6 	37 	5
f 39 	37 	50
f 51 	50 	37
f 55 	34 	32
f 59 	62 	45
f 32 	36 	55
f 37 	6 	18
f 49 	48 	54
f 34 	55 	36
f 46 	23 	47
f 56 	47 	23
f 15 	14 	33
f 57 	65 	25
f 7 	25 	63
f 56 	57 	1
f 56 	1 	4
f 56 	4 	47
f 2 	1 	25
f 57 	25 	1
f 19 	26 	20
f 28 	20 	26
f 48 	17 	33
f 42 	48 	52
f 37 	39 	54
f 58 	54 	39
f 23 	44 	56
f 39 	50 	58
f 42 	52 	21
f 44 	57 	56
f 35 	30 	31
f 49 	58 	50
f 31 	24 	59
f 31 	59 	60
f 58 	49 	54
f 42 	54 	48
f 65 	57 	44
f 31 	60 	61
f 2 	23 	3
f 48 	33 	52
f 38 	45 	62
f 63 	25 	65
f 46 	3 	23
f 25 	23 	2
f 24 	62 	59
f 64 	41 	62
f 41 	38 	62
f 53 	61 	36
f 36 	59 	34
f 60 	36 	61
f 8 	12 	33
f 15 	33 	12
f 61 	63 	31
f 35 	31 	63
f 52 	43 	10
f 9 	21 	10
f 52 	10 	21
f 65 	41 	66
f 43 	52 	14
f 52 	33 	14
f 64 	62 	27
f 24 	27 	62
f 61 	53 	63
f 59 	36 	60
f 53 	32 	45
f 23 	7 	44
f 7 	63 	53
f 8 	13 	12
f 63 	65 	35
f 64 	27 	66
f 59 	45 	34
f 35 	65 	27
f 66 	27 	65
f 44 	41 	65
# 124 faces

 #end of obj_0

o obj_1
v 2.6667 		-1.896 		0.0445
v 2.3094 		-2.107 		0.1762
v 2.673 		-1.896 		0.157
v 2.3673 		-2.5402 		0.1688
v 2.346 		-2.107 		0.2136
v 2.4712 		-2.6204 		0.1311
v 2.4245 		-1.896 		0.0566
v 2.4721 		-2.6205 		0.1474
v 2.185 		-3.123 		0.0623
v 2.1748 		-3.154 		0.1649
v 2.192 		-3.123 		0.1891
v 2.4709 		-2.6196 		0.1493
v 1.6504 		-3.152 		0.2348
v 1.3787 		-3.1449 		0.2006
v 1.3835 		-3.152 		0.2095
v 2.4705 		-2.6193 		0.15
v 1.2113 		-3.523 		0.1445
v 1.3755 		-3.1451 		0.1361
v 1.3754 		-3.1451 		0.1362
v 1.378 		-3.1497 		0.1301
v 2.1704 		-3.154 		0.0877
v 1.3768 		-3.1451 		0.1621
v 1.3755 		-3.1451 		0.1381
v 2.3035 		-2.107 		0.0627
v 1.3427 		-3.094 		0.1049
v 2.2339 		-2.0608 		0.1575
v 2.2322 		-2.0653 		0.1617
v 2.3673 		-2.5407 		0.169
v 2.2198 		-2.1811 		0.1924
v 2.1827 		-2.256 		0.1898
v 2.1515 		-2.256 		0.1631
v 1.9951 		-2.768 		0.2013
v 1.9951 		-2.768 		0.2013
v 1.9916 		-2.7905 		0.1999
v 1.9916 		-2.7905 		0.1999
v 1.3217 		-3.524 		0.1061
v 2.2305 		-2.145 		0.0537
v 2.1763 		-2.256 		0.0631
v 1.9478 		-2.7687 		0.1822
v 2.1838 		-2.256 		0.056
v 1.9478 		-2.768 		0.1822
v 1.9628 		-2.9761 		0.1882
v 2.277 		-2.256 		0.0507
v 1.9359 		-2.768 		0.2116
v 1.9357 		-2.7629 		0.2121
v 1.9345 		-2.768 		0.2151
v 2.3021 		-2.256 		0.0492
v 2.2956 		-2.256 		0.0466
v 2.2791 		-2.256 		0.0455
v 1.9921 		-2.8182 		0.0726
v 1.992 		-2.8024 		0.0727
v 2.4275 		-2.737 		0.1775
v 1.992 		-2.7845 		0.0728
v 1.9921 		-2.7821 		0.0726
v 2.1901 		-2.256 		0.1961
v 2.2188 		-2.256 		0.1947
v 1.6095 		-3.152 		0.237
v 1.9913 		-2.805 		0.0745
v 1.5093 		-3.152 		0.2424
v 2.1479 		-2.256 		0.0899
v 1.9913 		-2.8055 		0.0746
v 1.9499 		-2.7852 		0.1769
v 1.9803 		-2.8404 		0.1018
v 2.6575 		-2.287 		0.1982
v 2.6479 		-2.287 		0.0056
v 2.4305 		-1.896 		0.1701
v 1.3589 		-3.026 		0.1049
v 1.9818 		-2.8432 		0.0981
v 1.9926 		-2.768 		0.0713
v 2.3331 		-3.005 		0.1815
v 2.6479 		-1.926 		0.0056
v 2.4432 		-2.6326 		0.1749
v 2.462 		-2.6239 		0.1575
v 1.9301 		-2.768 		0.2126
v 1.2488 		-3.308 		0.1424
v 2.4429 		-2.6324 		0.1749
v 1.9905 		-2.706 		0.0657
v 1.9672 		-2.684 		0.0994
v 2.6667 		-2.317 		0.0445
v 1.3786 		-3.103 		0.0881
v 1.3951 		-3.035 		0.0872
v 2.3271 		-3.005 		0.055
v 1.3963 		-3.337 		0.1351
v 1.7225 		-3.286 		0.0858
v 1.5093 		-3.1444 		0.2424
v 1.6851 		-3.277 		0.0717
v 1.5759 		-3.1467 		0.0775
v 1.5759 		-3.1376 		0.0775
v 1.5759 		-3.0796 		0.0775
v 2.3133 		-2.976 		0.1584
v 1.7016 		-3.209 		0.0708
v 1.5695 		-3.0744 		0.0934
v 1.5696 		-3.152 		0.0932
v 1.5757 		-3.152 		0.078
v 1.5156 		-3.152 		0.2267
v 1.5156 		-3.1177 		0.2267
v 2.7941 		-2.107 		0.1509
v 1.5254 		-3.0768 		0.2027
v 1.5278 		-3.0694 		0.1966
v 1.5269 		-3.0702 		0.1988
v 1.3713 		-3.32 		0.1035
v 1.5295 		-3.0642 		0.1925
v 2.673 		-2.317 		0.157
v 1.7381 		-3.218 		0.0845
v 2.3884 		-2.746 		0.1542
v 2.7611 		-2.107 		0.1926
v 1.3792 		-3.152 		0.1271
v 1.5157 		-3.1066 		0.2267
v 1.152 		-3.611 		0.1152
v 2.7516 		-2.107 		0
v 2.7882 		-2.107 		0.0375
v 2.6189 		-2.317 		0.1399
v 2.6149 		-2.317 		0.0671
v 2.5847 		-2.3877 		0.1417
v 2.309 		-2.976 		0.0811
v 1.2292 		-3.555 		0.1108
v 1.2774 		-3.19 		0.141
v 2.3879 		-2.558 		0.1179
v 1.3467 		-3.543 		0.1377
v 1.3505 		-3.543 		0.2029
v 2.3558 		-2.5321 		0.1536
v 1.2917 		-3.19 		0.1403
v 2.3518 		-2.5322 		0.0807
v 2.353 		-2.5332 		0.0788
v 1.9859 		-2.9581 		0.0878
v 2.3521 		-2.5322 		0.0867
v 2.3535 		-2.5322 		0.1125
v 2.5956 		-2.317 		0.048
v 2.5949 		-2.316 		0.0468
v 1.6719 		-2.9984 		0.0707
v 2.3517 		-2.5322 		0.0807
v 2.4147 		-3.148 		0.153
v 2.4104 		-3.148 		0.0757
v 2.3957 		-3.119 		0.1787
v 1.3137 		-3.207 		0.1072
v 2.3573 		-2.5336 		0.1558
v 2.3887 		-3.119 		0.0519
v 1.6786 		-3.024 		0.0734
v 2.5926 		-2.3134 		0.0434
v 1.2142 		-3.523 		0.2093
v 1.6545 		-3.024 		0.0636
v 1.6934 		-3.277 		0.2325
v 1.7099 		-3.209 		0.2317
v 1.3883 		-3.1688 		0.1032
v 1.4146 		-3.212 		0.1016
v 1.3883 		-3.1688 		0.1032
v 2.6479 		-2.107 		0.0056
v 2.5961 		-2.017 		0.0084
v 1.4197 		-3.2204 		0.1013
v 2.6017 		-2.317 		0.1609
v 2.6011 		-2.3161 		0.1621
v 2.5961 		-2.197 		0.0084
v 1.7449 		-3.218 		0.2145
v 1.5584 		-3.0395 		0.121
v 1.5558 		-3.0483 		0.1273
v 1.539 		-3.0585 		0.169
v 1.3819 		-3.157 		0.1206
v 2.3612 		-2.57 		0.1788
v 2.2244 		-2.978 		0.1623
v 2.3608 		-2.5707 		0.1788
v 1.7105 		-3.1696 		0.121
v 1.714 		-3.1695 		0.1888
v 1.5696 		-3.1958 		0.0931
v 2.3591 		-2.5575 		0.1702
v 2.2209 		-2.978 		0.0854
v 1.556 		-3.2367 		0.1269
v 1.5351 		-3.2512 		0.1786
v 1.5291 		-3.2554 		0.1935
v 1.5179 		-3.2382 		0.2211
v 1.5157 		-3.2344 		0.2266
v 1.5156 		-3.2167 		0.2267
v 1.3285 		-3.524 		0.2361
v 1.697 		-3.1792 		0.1196
v 1.668 		-3.2023 		0.1912
v 2.1228 		-2.804 		0.0908
v 2.1504 		-2.853 		0.0893
v 2.1256 		-2.8095 		0.0838
v 1.7101 		-3.1695 		0.1128
v 1.3841 		-3.1529 		0.2106
v 2.2272 		-2.6196 		0.1741
v 1.6995 		-3.1771 		0.1134
v 1.7037 		-3.1598 		0.1031
v 2.1179 		-2.7944 		0.1029
v 2.153 		-2.855 		0.1225
v 2.5849 		-2.176 		0.0254
v 1.2527 		-3.308 		0.2076
v 2.5849 		-2.038 		0.0254
v 1.4857 		-3.119 		0.0979
v 1.4285 		-3.2344 		0.1007
v 2.1491 		-2.8514 		0.089
v 1.4925 		-3.119 		0.2279
v 1.5019 		-3.079 		0.194
v 1.7002 		-3.1441 		0.2167
v 1.6947 		-3.1442 		0.2199
v 2.1075 		-2.768 		0.1817
v 1.7127 		-3.1671 		0.1915
v 2.1527 		-2.8499 		0.1665
v 2.1068 		-2.768 		0.1691
v 2.2319 		-2.6395 		0.1623
v 2.2488 		-2.6526 		0.1206
v 2.1555 		-2.8551 		0.1655
v 2.2638 		-2.6638 		0.0834
v 2.2652 		-2.6602 		0.08
v 2.6243 		-2.107 		0.0241
v 1.6545 		-3.1694 		0.2247
v 1.227 		-3.275 		0.111
v 1.1611 		-3.64 		0.2127
v 2.1228 		-2.8044 		0.0906
v 2.1511 		-2.8549 		0.0895
v 1.1572 		-3.64 		0.1475
v 1.2422 		-3.21 		0.1106
v 2.339 		-2.556 		0.0814
v 1.4505 		-3.2709 		0.0998
v 1.4567 		-3.28 		0.1125
v 2.1252 		-2.8221 		0.0849
v 2.6575 		-1.926 		0.1982
v 1.1587 		-3.611 		0.2452
v 2.5992 		-2.3133 		0.1659
v 2.2034 		-3.008 		0.0622
v 2.6575 		-2.107 		0.1982
v 1.2338 		-3.275 		0.241
v 2.6057 		-2.197 		0.201
v 1.249 		-3.21 		0.2407
v 1.4618 		-3.28 		0.2167
v 1.4572 		-3.2714 		0.229
v 1.2803 		-3.19 		0.2059
v 1.236 		-3.555 		0.2408
v 1.3868 		-3.1569 		0.2158
v 1.3946 		-3.1683 		0.2324
v 2.6057 		-2.017 		0.201
v 2.502 		-2.197 		0.2066
v 2.2787 		-2.2676 		0.0465
v 2.277 		-2.258 		0.0507
v 2.2094 		-3.008 		0.1886
v 2.502 		-2.017 		0.2066
v 2.2187 		-2.4039 		0.1949
v 2.2581 		-2.4606 		0.0974
v 2.2638 		-2.4655 		0.0835
v 2.5115 		-2.313 		0.171
v 2.2771 		-2.3141 		0.0505
v 1.2946 		-3.19 		0.2052
v 2.0937 		-2.8 		0.1947
v 2.2319 		-2.4387 		0.1623
v 1.6504 		-3.0215 		0.2348
v 1.7416 		-2.942 		0.2299
v 2.0883 		-2.768 		0.185
v 2.2707 		-2.4992 		0.0663
v 2.2219 		-2.469 		0.1871
v 1.3205 		-3.207 		0.2372
v 2.5569 		-2.688 		0.068
v 2.5613 		-2.688 		0.1453
v 2.2213 		-2.4705 		0.1885
v 2.0828 		-2.768 		0.1898
v 2.0805 		-2.7762 		0.1954
v 2.5136 		-2.176 		0.1886
v 2.6325 		-2.107 		0.1827
v 2.5136 		-2.038 		0.1886
v 2.2615 		-2.768 		0.0892
v 2.5267 		-2.697 		0.1723
v 2.2329 		-2.768 		0.1598
v 1.3495 		-3.094 		0.2349
v 2.5931 		-2.176 		0.184
v 1.366 		-3.026 		0.234
v 2.1529 		-2.857 		0.1658
v 1.4578 		-3.2704 		0.2295
v 1.6504 		-3.024 		0.2348
v 1.6504 		-3.0643 		0.2348
v 1.6504 		-3.1112 		0.2348
v 2.1481 		-2.857 		0.0895
v 1.6519 		-3.1022 		0.2312
v 1.6796 		-3.1294 		0.2239
v 2.5931 		-2.038 		0.184
v 2.4397 		-2.287 		0.0164
v 1.451 		-3.2701 		0.0993
v 1.6538 		-3.152 		0.2263
v 2.0844 		-2.768 		0.1857
v 2.4892 		-2.313 		0.0481
v 1.6994 		-3.152 		0.1135
v 2.5044 		-2.313 		0.0474
v 1.5344 		-3.218 		0.0949
v 1.6498 		-3.024 		0.2363
v 2.483 		-2.317 		0.0537
v 2.127 		-2.768 		0.0802
v 2.1049 		-2.768 		0.135
v 2.4915 		-2.017 		0.0136
v 2.4397 		-2.107 		0.0164
v 2.0805 		-2.768 		0.1954
v 2.4397 		-1.926 		0.0164
v 2.3361 		-2.107 		0.022
v 2.1026 		-2.768 		0.0943
v 2.4915 		-2.197 		0.0136
v 2.1025 		-2.768 		0.0919
v 2.4245 		-2.317 		0.0566
v 2.0809 		-2.768 		0.0772
v 1.0597 		-3.14 		0.2181
v 1.0558 		-3.14 		0.1529
v 2.0867 		-2.8 		0.0679
v 2.0685 		-2.768 		0.0688
v 1.4229 		-3.2121 		0.2317
v 2.2351 		-2.4819 		0.0624
v 2.2212 		-2.4749 		0.0608
v 1.3962 		-3.1683 		0.2331
v 2.4707 		-2.317 		0.07
v 2.4667 		-2.317 		0.0745
v 2.5045 		-2.038 		0.0296
v 1.0272 		-3.259 		0.1543
v 2.3019 		-2.2802 		0.0491
v 1.0311 		-3.259 		0.2195
v 0.9793 		-3.473 		0.2223
v 2.4493 		-2.287 		0.209
v 1.4035 		-3.035 		0.2481
v 1.387 		-3.103 		0.2489
v 2.0419 		-2.936 		0.1716
v 2.0411 		-2.936 		0.1545
v 1.0054 		-3.226 		0.1228
v 2.2213 		-2.476 		0.188
v 2.4647 		-2.107 		0.0319
v 1.5157 		-2.935 		0.2265
v 1.7284 		-3.286 		0.2154
v 2.2175 		-2.48 		0.061
v 1.5089 		-2.935 		0.0965
v 1.0585 		-3.17 		0.1195
v 2.4305 		-2.317 		0.1701
v 2.2949 		-2.2898 		0.0495
v 2.0379 		-2.9356 		0.0957
v 2.0379 		-2.9356 		0.0953
v 2.4962 		-2.3131 		0.1718
v 2.0394 		-2.9357 		0.121
v 2.4893 		-2.317 		0.1669
v 1.5796 		-3.377 		0.2232
v 2.5045 		-2.176 		0.0296
v 1.5728 		-3.377 		0.0932
v 1.5214 		-3.324 		0.2418
v 2.1665 		-2.559 		0.1907
v 1.5888 		-3.341 		0.2377
v 1.5755 		-2.988 		0.2388
v 2.1634 		-2.5569 		0.1909
v 1.5071 		-2.971 		0.2425
v 1.5805 		-3.341 		0.0769
v 2.4704 		-2.317 		0.1481
v 2.4493 		-1.926 		0.209
v 2.4748 		-2.317 		0.1522
v 0.8786 		-3.438 		0.1298
v 1.5831 		-2.951 		0.2225
v 2.1595 		-2.559 		0.0639
v 2.1583 		-2.5582 		0.0639
v 1.0122 		-3.226 		0.2528
v 2.4697 		-2.317 		0.1351
v 0.9406 		-3.494 		0.1258
v 1.6248 		-3.024 		0.2218
v 1.6257 		-3.0213 		0.2204
v 1.6101 		-2.9979 		0.1944
v 1.6476 		-3.024 		0.235
v 2.4493 		-2.107 		0.209
v 1.0649 		-3.17 		0.2504
v 0.9754 		-3.473 		0.1571
v 1.4001 		-3.337 		0.2003
v 1.5671 		-2.988 		0.078
v 2.2242 		-2.472 		0.1879
v 1.4988 		-2.971 		0.0816
v 1.6188 		-3.0218 		0.091
v 1.576 		-2.951 		0.0934
v 1.6189 		-3.0217 		0.0911
v 1.618 		-3.024 		0.0899
v 0.8537 		-3.443 		0.2287
v 0.8508 		-3.443 		0.1639
v 2.4729 		-2.107 		0.1905
v 1.5116 		-3.361 		0.226
v 1.5054 		-3.361 		0.0973
v 2.4681 		-2.6205 		0.0746
v 0.9055 		-3.228 		0.2259
v 0.9026 		-3.228 		0.1611
v 2.4667 		-2.6196 		0.0728
v 1.971 		-2.684 		0.1754
v 0.9318 		-3.246 		0.257
v 2.4667 		-2.6195 		0.0728
v 1.6072 		-3.0004 		0.1158
v 1.606 		-2.9981 		0.1185
v 1.64 		-3.024 		0.0741
v 0.925 		-3.246 		0.127
v 0.8853 		-3.438 		0.2598
v 2.0377 		-2.9353 		0.095
v 2.0402 		-2.9243 		0.0883
v 1.467 		-3.2933 		0.1573
v 1.4689 		-3.2935 		0.1954
v 2.0612 		-2.768 		0.1898
v 1.4657 		-3.2933 		0.1315
v 2.0552 		-2.768 		0.0755
v 2.0063 		-2.768 		0.0722
v 2.003 		-2.768 		0.072
v 1.4588 		-3.2831 		0.1169
v 1.9973 		-2.706 		0.2065
v 0.9479 		-3.494 		0.2571
v 2.0451 		-2.9245 		0.1785
v 2.0419 		-2.935 		0.1724
v 2.0417 		-2.9357 		0.172
v 1.6668 		-3.024 		0.0726
v 1.6931 		-3.1438 		0.087
v 0.9497 		-3.596 		0.2233
v 1.688 		-3.1438 		0.0847
v 2.02 		-2.837 		0.1984
v 1.6928 		-3.1438 		0.0868
v 1.6985 		-3.152 		0.0952
v 0.9455 		-3.596 		0.159
v 1.469 		-3.2935 		0.1966
v 1.4638 		-3.2836 		0.2115
v 2.0077 		-2.768 		0.1991
v 1.9917 		-2.7906 		0.1999
v 1.4689 		-3.2932 		0.197
v 0.9612 		-3.571 		0.1255
v 2.007 		-2.768 		0.1992
v 1.6749 		-3.152 		0.0845
v 1.5436 		-3.1146 		0.2406
v 0.968 		-3.571 		0.2555
v 1.6148 		-3.0526 		0.2367
v 1.6175 		-3.045 		0.2328
v 1.5131 		-3.324 		0.0809
v 2.013 		-2.837 		0.0715
v 1.6066 		-3.0529 		0.0759
v 1.6097 		-3.0452 		0.0796
v 2.5197 		-2.697 		0.0454
v 1.5807 		-3.1403 		0.0773
v 1.6241 		-3.0816 		0.0749
v 1.6698 		-3.1261 		0.0819
v 2.4205 		-2.737 		0.0507
v 1.3781 		-3.32 		0.2335
v 2.4369 		-2.6326 		0.0516
v 2.4572 		-2.6242 		0.0663
v 2.3549 		-2.57 		0.0554
v 2.4366 		-2.6323 		0.0516
v 2.3541 		-2.5715 		0.0555
v 2.3533 		-2.5576 		0.0644
v 2.3849 		-2.746 		0.0773
v 1.5743 		-3.227 		0.1909
# 434 vertices

g group_1_6970902

usemtl color_6970902
s 0

f 86 	85 	84
f 90 	359 	68
f 86 	85 	91
f 224 	408 	94
f 92 	93 	95
f 96 	95 	93
f 93 	92 	97
f 81 	245 	327
f 98 	99 	100
f 98 	100 	101
f 96 	97 	95
f 92 	95 	97
f 74 	317 	72
f 99 	100 	105
f 99 	105 	107
f 86 	84 	85
f 85 	89 	91
f 74 	78 	317
f 103 	104 	106
f 317 	78 	82
f 89 	88 	91
f 110 	140 	108
f 110 	108 	100
f 317 	82 	139
f 89 	451 	85
f 111 	112 	110
f 109 	113 	114
f 109 	114 	115
f 451 	86 	84
f 119 	120 	117
f 116 	117 	120
f 80 	327 	88
f 124 	117 	127
f 119 	117 	124
f 109 	106 	122
f 106 	104 	122
f 121 	122 	104
f 126 	97 	104
f 97 	96 	104
f 121 	104 	96
f 88 	451 	89
f 102 	167 	149
f 73 	132 	67
f 84 	85 	451
f 81 	451 	80
f 88 	80 	451
f 69 	67 	132
f 129 	127 	128
f 127 	124 	128
f 134 	127 	129
f 124 	119 	128
f 119 	120 	128
f 120 	135 	128
f 105 	128 	135
f 107 	105 	135
f 78 	217 	82
f 112 	111 	140
f 440 	140 	111
f 384 	387 	133
f 145 	339 	131
f 139 	138 	325
f 142 	325 	138
f 135 	196 	143
f 110 	112 	140
f 226 	425 	142
f 155 	158 	154
f 423 	186 	149
f 156 	118 	171
f 160 	153 	159
f 159 	154 	158
f 154 	159 	153
f 136 	118 	156
f 162 	151 	161
f 161 	151 	125
f 170 	152 	157
f 146 	91 	147
f 451 	423 	450
f 149 	450 	423
f 150 	152 	170
f 164 	165 	166
f 149 	453 	450
f 91 	133 	147
f 118 	400 	171
f 258 	81 	80
f 457 	453 	149
f 182 	201 	167
f 84 	254 	85
f 86 	254 	84
f 173 	254 	86
f 162 	174 	164
f 221 	222 	85
f 212 	254 	223
f 179 	145 	178
f 169 	178 	145
f 222 	258 	85
f 258 	80 	88
f 181 	491 	148
f 67 	177 	137
f 268 	171 	266
f 70 	184 	94
f 180 	179 	178
f 177 	145 	131
f 464 	170 	468
f 187 	414 	193
f 156 	171 	181
f 145 	194 	195
f 195 	205 	145
f 172 	130 	163
f 184 	70 	187
f 184 	187 	193
f 182 	102 	175
f 163 	130 	169
f 145 	179 	194
f 143 	196 	144
f 445 	429 	196
f 182 	167 	102
f 189 	304 	197
f 190 	304 	189
f 303 	193 	304
f 177 	67 	163
f 195 	194 	439
f 179 	436 	194
f 197 	304 	192
f 102 	149 	185
f 163 	145 	177
f 83 	188 	201
f 184 	202 	94
f 163 	67 	69
f 120 	196 	135
f 204 	196 	191
f 127 	191 	196
f 188 	223 	201
f 88 	89 	188
f 120 	119 	196
f 119 	124 	196
f 127 	196 	124
f 339 	145 	205
f 145 	163 	169
f 200 	76 	198
f 207 	196 	204
f 201 	182 	83
f 439 	442 	195
f 201 	210 	211
f 201 	212 	210
f 202 	184 	193
f 137 	176 	214
f 215 	167 	211
f 255 	167 	215
f 214 	176 	213
f 217 	216 	130
f 169 	130 	216
f 178 	169 	216
f 294 	245 	307
f 131 	218 	176
f 213 	176 	218
f 155 	220 	158
f 221 	158 	220
f 148 	203 	75
f 307 	80 	88
f 219 	209 	208
f 83 	422 	206
f 222 	221 	220
f 498 	313 	190
f 142 	224 	226
f 201 	223 	212
f 222 	165 	168
f 228 	219 	227
f 262 	219 	228
f 170 	227 	219
f 202 	230 	94
f 224 	94 	230
f 224 	230 	226
f 176 	177 	131
f 88 	188 	307
f 230 	425 	226
f 325 	142 	425
f 237 	161 	233
f 234 	235 	233
f 235 	237 	233
f 236 	237 	235
f 232 	233 	161
f 229 	232 	161
f 159 	229 	161
f 210 	91 	211
f 156 	181 	231
f 227 	239 	228
f 240 	228 	239
f 156 	231 	225
f 212 	211 	210
f 382 	400 	118
f 125 	151 	378
f 377 	378 	151
f 227 	170 	244
f 241 	250 	243
f 242 	250 	231
f 253 	214 	213
f 211 	223 	451
f 392 	391 	244
f 227 	244 	391
f 225 	231 	250
f 451 	450 	215
f 451 	215 	211
f 212 	223 	211
f 173 	451 	223
f 154 	146 	147
f 177 	176 	137
f 244 	247 	227
f 81 	307 	245
f 239 	227 	247
f 131 	357 	218
f 245 	294 	327
f 155 	154 	147
f 147 	424 	155
f 249 	250 	241
f 242 	243 	250
f 294 	451 	245
f 81 	245 	451
f 248 	191 	244
f 469 	191 	248
f 159 	158 	254
f 248 	247 	244
f 340 	167 	255
f 174 	162 	257
f 256 	243 	242
f 255 	215 	483
f 91 	483 	215
f 162 	161 	257
f 334 	79 	209
f 215 	279 	255
f 231 	181 	285
f 219 	337 	209
f 483 	91 	146
f 259 	260 	219
f 174 	257 	258
f 168 	165 	258
f 165 	164 	258
f 174 	258 	164
f 346 	254 	211
f 210 	211 	254
f 88 	89 	258
f 219 	262 	259
f 210 	254 	212
f 261 	263 	264
f 171 	246 	265
f 206 	293 	315
f 260 	259 	108
f 357 	251 	218
f 255 	346 	215
f 211 	215 	346
f 263 	225 	267
f 250 	267 	225
f 228 	108 	262
f 257 	245 	258
f 158 	221 	254
f 221 	85 	254
f 223 	254 	173
f 218 	251 	213
f 228 	240 	262
f 499 	268 	269
f 371 	253 	270
f 89 	85 	258
f 168 	258 	222
f 253 	213 	270
f 256 	250 	274
f 275 	250 	256
f 249 	274 	250
f 189 	197 	278
f 251 	270 	213
f 167 	279 	280
f 216 	217 	180
f 178 	216 	180
f 285 	181 	148
f 183 	141 	272
f 231 	363 	242
f 172 	282 	296
f 272 	277 	183
f 217 	130 	284
f 307 	315 	294
f 163 	69 	282
f 278 	197 	192
f 280 	279 	435
f 256 	363 	281
f 242 	363 	256
f 282 	69 	132
f 192 	189 	278
f 172 	163 	282
f 307 	83 	206
f 256 	274 	281
f 279 	215 	280
f 148 	75 	285
f 171 	265 	266
f 286 	288 	172
f 368 	315 	365
f 288 	297 	130
f 130 	172 	288
f 295 	294 	315
f 289 	287 	292
f 298 	299 	115
f 109 	115 	299
f 434 	291 	290
f 296 	286 	172
f 252 	292 	287
f 282 	301 	296
f 300 	156 	225
f 300 	136 	156
f 318 	314 	302
f 304 	306 	303
f 302 	309 	306
f 292 	252 	141
f 276 	185 	273
f 186 	273 	185
f 292 	141 	183
f 122 	302 	306
f 122 	306 	299
f 175 	102 	276
f 284 	130 	305
f 393 	305 	130
f 225 	308 	300
f 295 	291 	294
f 290 	294 	291
f 290 	472 	294
f 122 	299 	109
f 102 	185 	276
f 240 	271 	260
f 262 	240 	259
f 260 	259 	240
f 303 	306 	309
f 238 	283 	273
f 140 	440 	311
f 440 	418 	311
f 188 	83 	307
f 261 	312 	263
f 304 	313 	306
f 263 	308 	225
f 206 	315 	307
f 199 	316 	198
f 238 	273 	186
f 309 	302 	314
f 436 	179 	180
f 78 	180 	217
f 319 	320 	312
f 320 	308 	312
f 263 	312 	308
f 293 	283 	238
f 264 	263 	312
f 317 	200 	198
f 288 	286 	328
f 325 	200 	317
f 328 	286 	322
f 246 	326 	265
f 324 	268 	326
f 288 	321 	297
f 91 	88 	327
f 80 	81 	327
f 329 	91 	327
f 328 	321 	288
f 265 	326 	266
f 139 	325 	317
f 234 	472 	235
f 91 	329 	133
f 200 	325 	136
f 269 	268 	324
f 118 	136 	325
f 434 	399 	291
f 333 	311 	332
f 310 	332 	311
f 378 	377 	327
f 267 	250 	330
f 275 	335 	250
f 391 	394 	335
f 108 	140 	311
f 108 	311 	333
f 108 	333 	336
f 108 	336 	337
f 108 	337 	260
f 439 	194 	436
f 291 	331 	290
f 235 	290 	331
f 235 	331 	236
f 420 	297 	321
f 336 	334 	337
f 334 	209 	337
f 323 	296 	301
f 266 	326 	268
f 260 	337 	219
f 320 	467 	308
f 272 	141 	372
f 259 	260 	337
f 338 	322 	286
f 340 	483 	279
f 338 	286 	296
f 271 	341 	260
f 337 	260 	341
f 336 	337 	341
f 296 	323 	338
f 267 	330 	263
f 330 	452 	263
f 312 	263 	342
f 167 	340 	279
f 443 	429 	262
f 227 	228 	344
f 248 	244 	344
f 244 	227 	344
f 228 	262 	429
f 345 	496 	343
f 346 	340 	280
f 279 	280 	340
f 262 	259 	443
f 292 	361 	289
f 496 	345 	205
f 275 	256 	335
f 335 	256 	281
f 310 	347 	332
f 333 	334 	336
f 243 	349 	241
f 249 	241 	349
f 249 	349 	350
f 346 	232 	229
f 79 	334 	341
f 336 	341 	334
f 274 	249 	241
f 122 	121 	302
f 355 	354 	351
f 353 	320 	319
f 109 	299 	106
f 299 	306 	106
f 488 	152 	154
f 93 	440 	96
f 248 	344 	247
f 341 	271 	344
f 239 	344 	240
f 247 	344 	239
f 126 	144 	97
f 93 	97 	440
f 351 	352 	355
f 357 	355 	352
f 356 	358 	249
f 241 	249 	358
f 343 	339 	345
f 343 	348 	339
f 256 	281 	243
f 205 	345 	339
f 357 	339 	355
f 358 	360 	241
f 271 	240 	344
f 249 	350 	356
f 255 	483 	340
f 357 	131 	339
f 359 	339 	348
f 277 	272 	388
f 354 	137 	351
f 349 	243 	360
f 360 	243 	281
f 255 	279 	340
f 214 	351 	137
f 103 	143 	104
f 348 	369 	359
f 214 	253 	351
f 364 	360 	363
f 360 	281 	363
f 366 	367 	306
f 313 	366 	306
f 103 	106 	143
f 295 	315 	368
f 498 	497 	366
f 67 	137 	354
f 327 	368 	399
f 399 	365 	331
f 274 	241 	360
f 281 	274 	360
f 365 	399 	368
f 386 	306 	367
f 327 	295 	368
f 368 	365 	295
f 291 	295 	365
f 331 	291 	365
f 363 	231 	285
f 366 	313 	498
f 293 	206 	375
f 371 	270 	383
f 159 	254 	229
f 346 	229 	254
f 383 	270 	397
f 459 	293 	375
f 255 	340 	346
f 383 	352 	371
f 237 	236 	365
f 331 	365 	236
f 369 	370 	359
f 369 	348 	495
f 495 	498 	369
f 368 	257 	365
f 257 	161 	365
f 237 	365 	161
f 440 	458 	96
f 182 	415 	422
f 414 	359 	370
f 292 	362 	361
f 422 	375 	206
f 257 	294 	245
f 81 	258 	245
f 351 	371 	352
f 113 	373 	114
f 257 	368 	294
f 295 	294 	368
f 253 	371 	351
f 354 	73 	67
f 372 	141 	374
f 295 	327 	294
f 143 	106 	306
f 462 	379 	76
f 380 	76 	379
f 76 	380 	394
f 252 	287 	374
f 393 	395 	224
f 391 	87 	394
f 374 	375 	372
f 357 	352 	397
f 406 	70 	408
f 252 	374 	141
f 227 	380 	228
f 379 	228 	380
f 329 	327 	377
f 187 	70 	406
f 94 	408 	70
f 425 	318 	382
f 302 	403 	318
f 272 	372 	381
f 370 	190 	189
f 438 	361 	362
f 192 	193 	414
f 414 	187 	406
f 327 	399 	378
f 414 	370 	192
f 189 	192 	370
f 380 	379 	330
f 352 	383 	397
f 130 	376 	389
f 73 	354 	90
f 150 	385 	398
f 385 	219 	208
f 298 	390 	299
f 76 	394 	87
f 132 	73 	68
f 90 	68 	73
f 224 	142 	393
f 219 	150 	170
f 392 	87 	391
f 219 	385 	150
f 397 	270 	251
f 408 	224 	395
f 388 	272 	381
f 380 	227 	394
f 394 	227 	391
f 398 	385 	396
f 130 	389 	393
f 393 	389 	395
f 251 	357 	397
f 373 	390 	298
f 115 	114 	298
f 373 	113 	299
f 390 	373 	299
f 391 	335 	392
f 440 	97 	144
f 378 	399 	208
f 403 	400 	382
f 399 	401 	208
f 377 	402 	404
f 277 	388 	362
f 171 	400 	246
f 403 	246 	400
f 373 	298 	114
f 277 	362 	183
f 109 	299 	113
f 152 	150 	405
f 382 	318 	403
f 150 	398 	405
f 68 	359 	389
f 362 	292 	183
f 406 	408 	389
f 395 	389 	408
f 326 	246 	261
f 329 	404 	384
f 301 	282 	407
f 410 	384 	404
f 302 	458 	403
f 387 	384 	410
f 132 	407 	282
f 402 	410 	404
f 132 	68 	407
f 329 	377 	404
f 412 	386 	411
f 359 	414 	389
f 406 	389 	414
f 417 	402 	416
f 410 	402 	417
f 482 	416 	402
f 376 	130 	297
f 428 	387 	410
f 409 	415 	476
f 297 	71 	376
f 412 	411 	269
f 499 	269 	411
f 71 	68 	376
f 410 	417 	418
f 444 	428 	418
f 410 	418 	428
f 413 	375 	374
f 192 	304 	193
f 310 	419 	347
f 297 	420 	71
f 287 	413 	374
f 349 	360 	412
f 386 	412 	306
f 193 	303 	202
f 415 	409 	381
f 310 	311 	417
f 418 	417 	311
f 412 	269 	349
f 309 	202 	303
f 71 	301 	407
f 416 	419 	417
f 419 	310 	417
f 324 	349 	269
f 304 	190 	313
f 301 	71 	420
f 401 	396 	385
f 401 	385 	208
f 433 	321 	328
f 416 	482 	166
f 485 	155 	424
f 186 	423 	238
f 230 	202 	314
f 309 	314 	202
f 185 	149 	186
f 421 	289 	361
f 230 	314 	425
f 424 	147 	426
f 422 	415 	381
f 321 	433 	420
f 372 	422 	381
f 318 	425 	314
f 427 	424 	429
f 287 	289 	421
f 454 	143 	412
f 360 	454 	412
f 375 	422 	372
f 428 	429 	424
f 430 	424 	427
f 382 	118 	425
f 325 	425 	118
f 426 	387 	428
f 323 	301 	420
f 421 	413 	287
f 426 	133 	387
f 322 	433 	328
f 434 	435 	396
f 317 	198 	316
f 424 	426 	428
f 246 	403 	261
f 452 	342 	403
f 338 	323 	433
f 322 	338 	433
f 111 	458 	440
f 442 	494 	205
f 205 	195 	442
f 443 	429 	428
f 68 	389 	376
f 443 	428 	444
f 433 	323 	420
f 343 	496 	495
f 445 	196 	207
f 205 	493 	496
f 486 	430 	445
f 121 	96 	458
f 250 	335 	394
f 394 	380 	250
f 330 	250 	380
f 104 	143 	144
f 429 	443 	196
f 427 	429 	445
f 444 	144 	443
f 144 	196 	443
f 359 	90 	339
f 285 	75 	484
f 396 	435 	398
f 443 	220 	429
f 354 	355 	90
f 104 	144 	126
f 448 	449 	87
f 480 	447 	431
f 220 	430 	427
f 427 	429 	220
f 220 	443 	444
f 355 	339 	90
f 87 	392 	448
f 437 	361 	438
f 438 	432 	437
f 431 	437 	432
f 75 	87 	484
f 446 	362 	388
f 441 	431 	447
f 449 	448 	191
f 392 	191 	448
f 71 	407 	68
f 342 	312 	403
f 312 	261 	403
f 452 	403 	458
f 418 	440 	144
f 444 	418 	144
f 449 	448 	335
f 392 	335 	448
f 220 	444 	418
f 362 	446 	438
f 492 	238 	423
f 99 	452 	458
f 441 	421 	361
f 427 	490 	429
f 437 	431 	441
f 441 	413 	421
f 430 	490 	427
f 143 	454 	455
f 143 	455 	456
f 143 	456 	135
f 432 	446 	409
f 331 	492 	291
f 290 	492 	472
f 259 	337 	417
f 437 	441 	361
f 432 	438 	446
f 446 	388 	381
f 306 	412 	143
f 464 	344 	429
f 280 	457 	167
f 149 	167 	457
f 409 	446 	381
f 76 	77 	467
f 444 	443 	418
f 417 	418 	443
f 259 	417 	443
f 100 	99 	110
f 111 	110 	99
f 459 	413 	447
f 76 	467 	460
f 462 	76 	461
f 460 	461 	76
f 201 	211 	167
f 332 	347 	419
f 302 	121 	458
f 441 	447 	413
f 458 	111 	99
f 207 	204 	463
f 207 	463 	445
f 461 	108 	462
f 460 	108 	461
f 379 	462 	108
f 259 	262 	108
f 379 	108 	228
f 434 	451 	450
f 453 	435 	450
f 434 	450 	435
f 461 	330 	462
f 324 	326 	349
f 350 	349 	326
f 261 	264 	326
f 350 	326 	264
f 457 	280 	435
f 83 	182 	422
f 459 	375 	413
f 379 	462 	330
f 330 	461 	460
f 457 	435 	453
f 312 	342 	319
f 465 	431 	432
f 480 	431 	465
f 300 	467 	77
f 464 	469 	170
f 457 	215 	450
f 453 	457 	450
f 280 	215 	457
f 264 	312 	350
f 342 	350 	312
f 471 	423 	451
f 356 	107 	358
f 471 	475 	423
f 472 	423 	475
f 473 	320 	353
f 474 	467 	473
f 320 	473 	467
f 300 	308 	467
f 468 	191 	464
f 466 	191 	468
f 319 	452 	353
f 465 	432 	470
f 291 	492 	290
f 474 	460 	467
f 469 	464 	191
f 392 	244 	191
f 476 	470 	432
f 475 	471 	434
f 473 	353 	452
f 342 	452 	319
f 101 	477 	98
f 468 	469 	464
f 471 	451 	434
f 473 	477 	474
f 101 	474 	477
f 452 	99 	98
f 452 	98 	477
f 452 	477 	473
f 468 	466 	469
f 478 	469 	466
f 476 	432 	409
f 342 	263 	452
f 479 	377 	151
f 364 	456 	455
f 455 	454 	364
f 475 	434 	472
f 101 	100 	474
f 460 	474 	100
f 472 	434 	290
f 377 	479 	402
f 481 	402 	479
f 364 	454 	360
f 460 	100 	108
f 402 	481 	482
f 472 	475 	294
f 475 	471 	294
f 451 	294 	471
f 452 	330 	460
f 452 	460 	100
f 452 	100 	99
f 481 	419 	482
f 470 	273 	465
f 416 	482 	419
f 363 	484 	364
f 285 	484 	363
f 456 	364 	484
f 116 	120 	484
f 456 	484 	120
f 470 	276 	273
f 117 	116 	484
f 435 	405 	398
f 476 	276 	470
f 417 	416 	166
f 418 	417 	166
f 162 	164 	479
f 482 	481 	166
f 164 	166 	481
f 479 	164 	481
f 151 	162 	479
f 107 	135 	456
f 107 	456 	455
f 107 	455 	454
f 107 	454 	360
f 107 	360 	358
f 350 	452 	356
f 342 	452 	350
f 99 	356 	452
f 107 	356 	99
f 127 	484 	449
f 117 	484 	127
f 87 	449 	484
f 435 	483 	405
f 343 	495 	348
f 476 	175 	276
f 191 	127 	449
f 424 	486 	485
f 480 	465 	273
f 370 	369 	190
f 424 	430 	486
f 455 	456 	120
f 119 	454 	120
f 273 	283 	480
f 317 	316 	72
f 436 	72 	316
f 445 	485 	486
f 449 	454 	127
f 182 	175 	415
f 436 	316 	439
f 430 	427 	445
f 442 	439 	316
f 175 	476 	415
f 449 	335 	454
f 455 	120 	454
f 124 	454 	119
f 124 	127 	454
f 199 	203 	316
f 220 	155 	485
f 220 	485 	486
f 430 	220 	486
f 454 	335 	281
f 454 	281 	360
f 480 	459 	447
f 401 	399 	434
f 461 	462 	128
f 166 	165 	418
f 165 	222 	418
f 220 	418 	222
f 487 	316 	203
f 401 	434 	396
f 283 	459 	480
f 481 	334 	333
f 332 	419 	333
f 481 	333 	419
f 461 	128 	460
f 100 	460 	128
f 100 	128 	105
f 293 	459 	283
f 471 	233 	451
f 450 	451 	233
f 316 	487 	494
f 127 	134 	449
f 448 	449 	134
f 148 	487 	203
f 445 	463 	489
f 445 	489 	485
f 462 	380 	128
f 129 	128 	380
f 379 	380 	462
f 394 	129 	380
f 491 	487 	148
f 472 	234 	475
f 471 	475 	234
f 129 	394 	134
f 394 	391 	134
f 448 	134 	391
f 448 	391 	392
f 154 	153 	488
f 233 	232 	450
f 453 	450 	232
f 87 	199 	76
f 198 	76 	199
f 191 	490 	204
f 466 	490 	191
f 463 	204 	490
f 463 	490 	489
f 331 	291 	399
f 170 	157 	490
f 77 	76 	200
f 486 	485 	489
f 486 	489 	490
f 87 	203 	199
f 235 	472 	290
f 490 	466 	170
f 87 	75 	203
f 435 	279 	483
f 136 	300 	77
f 280 	457 	346
f 466 	468 	490
f 468 	464 	490
f 486 	490 	430
f 464 	429 	490
f 453 	232 	457
f 346 	457 	232
f 337 	336 	482
f 481 	482 	336
f 334 	481 	336
f 200 	136 	77
f 493 	205 	494
f 238 	492 	293
f 416 	417 	337
f 482 	416 	337
f 496 	497 	495
f 489 	488 	490
f 488 	478 	490
f 153 	478 	488
f 160 	478 	153
f 466 	490 	478
f 423 	472 	492
f 469 	344 	464
f 344 	228 	429
f 331 	365 	492
f 315 	492 	365
f 190 	369 	498
f 497 	498 	495
f 492 	315 	293
f 487 	493 	494
f 329 	384 	133
f 496 	487 	497
f 367 	497 	487
f 487 	496 	493
f 469 	478 	344
f 367 	366 	497
f 426 	147 	133
f 386 	367 	491
f 341 	123 	79
f 344 	478 	341
f 316 	494 	442
f 80 	307 	81
f 85 	86 	188
f 86 	173 	188
f 223 	188 	173
f 85 	188 	89
f 487 	491 	367
f 215 	211 	91
f 212 	91 	210
f 125 	123 	161
f 173 	86 	91
f 212 	223 	91
f 173 	91 	223
f 451 	173 	86
f 159 	341 	478
f 160 	159 	478
f 161 	123 	159
f 123 	341 	159
f 491 	181 	499
f 411 	491 	499
f 491 	411 	386
f 152 	405 	483
f 181 	171 	499
f 499 	171 	268
f 248 	244 	170
f 170 	469 	248
f 74 	72 	180
f 72 	436 	180
f 157 	152 	488
f 146 	154 	152
f 78 	74 	180
f 152 	483 	146
f 138 	139 	284
f 139 	82 	284
f 284 	82 	217
f 157 	488 	489
f 284 	305 	142
f 284 	142 	138
f 489 	490 	157
f 305 	393 	142
f 466 	468 	170
f 500 	233 	471
f 378 	208 	125
f 209 	123 	208
f 500 	471 	234
f 233 	500 	234
f 125 	208 	123
f 123 	209 	79
# 1036 faces

 #end of obj_1

o obj_2
v 2.7215 		-0.5729 		0.0437
v 2.7268 		-0.5729 		0.1563
v 2.1413 		0.3311 		0.0621
v 2.1232 		0.2991 		0.0628
v 2.058 		0.2991 		0.0655
v 2.0467 		0.3141 		0.0659
v 2.4144 		0.1018 		0.1754
v 2.0467 		0.3493 		0.0659
v 2.0676 		0.3681 		0.0651
v 2.4792 		-0.5729 		0.0538
v 2.3316 		0.0431 		0.181
v 2.848 		-0.3619 		0.1513
v 2.4842 		-0.5729 		0.1673
v 2.0466 		0.3335 		0.066
v 2.4128 		0.0886 		0.1668
v 2.0507 		0.2371 		0.1999
v 1.376 		1.0551 		0.0936
v 1.4375 		0.684 		0.1987
v 1.4369 		0.6831 		0.1976
v 2.0472 		0.2991 		0.0647
v 2.1354 		0.2991 		0.0713
v 2.1796 		0.3532 		0.0794
v 2.0458 		0.3366 		0.0679
v 1.4426 		0.6999 		0.0913
v 2.4649 		0.6791 		0.0727
v 2.0472 		0.2991 		0.0647
v 2.4686 		0.6791 		0.15
v 1.469 		0.7431 		0.0899
v 2.4111 		0.0647 		0.1524
v 1.6627 		0.6831 		0.2271
v 1.4426 		0.6999 		0.0913
v 2.0346 		0.3715 		0.095
v 2.0036 		0.3163 		0.1699
v 2.1098 		0.2991 		0.0694
v 2.4435 		0.6501 		0.0487
v 2.0946 		0.4554 		0.0821
v 1.4741 		0.7515 		0.0896
v 1.5624 		0.6831 		0.2315
v 1.4333 		0.6831 		0.1152
v 2.0014 		0.2998 		0.1751
v 2.4493 		0.6501 		0.1756
v 2.0014 		0.2991 		0.1751
v 1.4361 		0.6881 		0.1087
v 2.0361 		0.3743 		0.0914
v 1.7537 		0.6831 		0.1043
v 2.8068 		-0.3619 		0
v 1.9893 		0.2991 		0.2045
v 1.7529 		0.6831 		0.086
v 1.9878 		0.2991 		0.208
v 1.9891 		0.294 		0.205
v 2.8146 		-0.3619 		0.1927
v 1.777 		0.8171 		0.0768
v 2.4077 		0.0795 		0.0664
v 1.7294 		0.6831 		0.0751
v 2.4272 		0.0793 		0.0744
v 1.7071 		0.6831 		0.2168
v 1.7036 		0.6831 		0.2252
v 1.7396 		0.8081 		0.0624
v 2.4062 		0.0633 		0.0772
v 2.4062 		0.0633 		0.0772
v 2.4062 		0.0633 		0.0772
v 1.7562 		0.7401 		0.0617
v 2.0735 		0.3681 		0.192
v 1.7926 		0.7491 		0.0757
v 2.0451 		0.3216 		0.1932
v 2.8431 		-0.3619 		0.0378
v 2.0612 		0.2991 		0.1926
v 2.134 		0.2991 		0.1896
v 2.134 		0.3073 		0.1896
v 1.4829 		0.7655 		0.0892
v 2.0988 		0.4556 		0.1724
v 2.0451 		0.3216 		0.1932
v 2.2808 		0.1507 		0.1695
v 1.5689 		0.6831 		0.2159
v 1.624 		0.6831 		0.0829
v 1.6303 		0.6831 		0.0677
v 2.6512 		-0.4519 		0.007
v 2.1147 		0.2991 		0.1837
v 2.138 		0.2991 		0.1799
v 2.7031 		-0.3619 		0.0047
v 2.6512 		-0.2719 		0.007
v 2.0921 		0.4664 		0.0888
v 1.7476 		0.6749 		0.0777
v 1.7424 		0.6749 		0.0754
v 2.0954 		0.4668 		0.1658
v 2.0956 		0.4661 		0.1662
v 1.4295 		0.6762 		0.1242
v 1.4295 		0.6762 		0.1241
v 1.432 		0.6808 		0.1181
v 1.4322 		0.676 		0.1886
v 1.4296 		0.6762 		0.1261
v 1.4306 		0.6762 		0.1501
v 1.6612 		0.584 		0.0659
v 1.6305 		0.6107 		0.0673
v 1.397 		0.6251 		0.0926
v 2.0936 		0.4668 		0.1148
v 2.0949 		0.4671 		0.1483
v 1.6642 		0.5763 		0.0696
v 2.0956 		0.4671 		0.1646
v 2.0956 		0.4671 		0.1654
v 1.6724 		0.5551 		0.08
v 2.0923 		0.4667 		0.0891
v 1.6946 		0.5551 		0.0644
v 1.3028 		0.8391 		0.1293
v 2.3818 		0.5361 		0.0513
v 1.6125 		0.5706 		0.1105
v 2.0486 		0.2991 		0.1947
v 2.6399 		-0.4309 		0.024
v 1.5968 		0.6457 		0.23
v 1.6679 		0.5837 		0.2268
v 1.5624 		0.6755 		0.2315
v 2.6399 		-0.2929 		0.024
v 1.7265 		0.5295 		0.0613
v 1.6707 		0.5761 		0.2229
v 1.6781 		0.5551 		0.212
v 1.7007 		0.5551 		0.2253
v 1.7332 		0.5551 		0.064
v 1.5804 		0.6013 		0.1881
v 1.5788 		0.6079 		0.192
v 1.4503 		0.8681 		0.1233
v 1.5689 		0.6488 		0.2159
v 1.7091 		0.5551 		0.0541
v 1.7817 		0.8171 		0.2065
v 2.3867 		0.5361 		0.1778
v 1.5927 		0.5896 		0.1584
v 2.6793 		-0.3619 		0.023
v 1.5813 		0.6005 		0.186
v 1.998 		0.5187 		0.1834
v 1.6305 		0.6687 		0.0673
v 1.6352 		0.6714 		0.0671
v 1.6787 		0.6127 		0.0651
v 1.7214 		0.5551 		0.0632
v 2.1589 		0.2991 		0.1294
v 2.1606 		0.2991 		0.1635
v 2.1612 		0.2991 		0.1761
v 2.2867 		0.2991 		0.1553
v 2.3159 		0.2991 		0.0849
v 2.1815 		0.2991 		0.0748
v 1.6305 		0.6778 		0.0673
v 2.157 		0.2991 		0.0887
v 1.7036 		0.5551 		0.2252
v 2.1569 		0.2991 		0.0862
v 1.7036 		0.5954 		0.2252
v 1.4256 		0.8511 		0.0914
v 1.7036 		0.6423 		0.2252
v 2.1363 		0.2991 		0.1839
v 1.7051 		0.6333 		0.2215
v 1.4132 		0.5571 		0.0928
v 2.3635 		0.5071 		0.0772
v 1.2145 		1.1711 		0.1988
v 2.3197 		0.1913 		0.0758
v 2.3183 		0.1949 		0.0791
v 2.7031 		-0.5429 		0.0047
v 1.2112 		1.1711 		0.1336
v 2.3029 		0.1837 		0.1162
v 1.2118 		1.1421 		0.2313
v 2.1419 		0.2991 		0.1792
v 2.3935 		0.0871 		0.0778
v 2.4062 		0.0633 		0.0773
v 2.2857 		0.1706 		0.1578
v 2.3672 		0.5071 		0.1545
v 1.4331 		0.6341 		0.0761
v 1.2891 		1.0861 		0.2276
v 2.6152 		0.2191 		0.1436
v 2.6115 		0.2191 		0.0663
v 1.7243 		0.6572 		0.0725
v 2.4065 		0.0633 		0.0832
v 2.5554 		-0.2719 		0.2044
v 1.4496 		0.5661 		0.0754
v 2.5554 		-0.4519 		0.2044
v 2.2248 		0.6851 		0.0826
v 2.2285 		0.6851 		0.1599
v 2.5803 		0.2281 		0.1703
v 2.2396 		0.6541 		0.0573
v 2.2455 		0.6541 		0.1843
v 2.5668 		0.0431 		0.0615
v 1.6329 		0.9081 		0.213
v 1.6272 		0.9081 		0.0829
v 2.7031 		-0.1819 		0.0047
v 1.6241 		0.7269 		0.0827
v 2.7109 		-0.1819 		0.1974
v 1.5826 		0.7865 		0.1828
v 1.5887 		0.7823 		0.168
v 1.6101 		0.7678 		0.1164
v 2.6591 		-0.4519 		0.1997
v 1.5689 		0.7478 		0.2159
v 1.5689 		0.7655 		0.2158
v 1.5712 		0.7693 		0.2103
v 2.7109 		-0.3619 		0.1974
v 2.7268 		-0.1519 		0.1563
v 2.6591 		-0.2719 		0.1997
v 1.6239 		0.6055 		0.0831
v 2.6467 		-0.4309 		0.1826
v 2.6861 		-0.3619 		0.1816
v 1.6099 		0.5794 		0.1168
v 1.635 		0.8721 		0.0667
v 2.6467 		-0.2929 		0.1826
v 2.7215 		-0.1519 		0.0437
v 2.5671 		-0.4309 		0.1865
v 1.583 		0.5953 		0.1818
v 2.5671 		-0.2929 		0.1865
v 1.5689 		0.6377 		0.2159
v 1.5745 		0.8551 		0.231
v 1.642 		0.8721 		0.2276
v 1.2676 		1.0541 		0.1959
v 2.6695 		-0.1519 		0.0659
v 2.6729 		-0.1519 		0.1388
v 1.5152 		0.8111 		0.2054
v 1.5104 		0.8025 		0.2176
v 2.4948 		-0.1819 		0.0137
v 2.5592 		-0.1559 		0.0452
v 2.544 		-0.1559 		0.0458
v 1.2813 		0.8061 		0.0977
v 2.5377 		-0.1519 		0.0513
v 2.4361 		0.0431 		0.0556
v 1.4402 		0.688 		0.2039
v 1.2965 		0.7411 		0.0975
v 1.4478 		0.6994 		0.2205
v 2.7109 		-0.5429 		0.1974
v 1.4536 		0.8681 		0.1885
v 2.4948 		-0.3619 		0.0137
v 2.5466 		-0.4519 		0.0113
v 2.4792 		-0.1519 		0.0538
v 2.4948 		-0.5429 		0.0137
v 2.2754 		0.5091 		0.0808
v 1.5109 		0.8111 		0.1012
v 1.5049 		0.802 		0.0885
v 2.2782 		0.5091 		0.1577
v 2.6555 		-0.1519 		0.1595
v 2.6549 		-0.1528 		0.1608
v 1.2869 		0.8061 		0.2277
v 1.3021 		0.7411 		0.2275
v 2.1801 		0.3406 		0.0783
v 1.3338 		0.7211 		0.193
v 2.2048 		0.3841 		0.084
v 2.1772 		0.3351 		0.0853
v 2.5466 		-0.2719 		0.0113
v 1.5598 		0.8921 		0.0864
v 1.3817 		1.0551 		0.2237
v 1.5649 		0.8921 		0.2151
v 2.3911 		-0.3619 		0.0183
v 1.5225 		0.8246 		0.1854
v 1.5225 		0.8246 		0.1842
v 2.5594 		-0.4309 		0.0274
v 1.5224 		0.8243 		0.1858
v 1.3481 		0.7211 		0.1924
v 2.5594 		-0.2929 		0.0274
v 2.5213 		-0.1519 		0.072
v 2.5253 		-0.1519 		0.0676
v 1.3061 		0.8391 		0.1945
v 1.3737 		0.7381 		0.2247
v 2.6529 		-0.1556 		0.1646
v 2.3504 		-0.2129 		0.0426
v 2.3567 		-0.1887 		0.0452
v 2.3569 		-0.2129 		0.0453
v 1.5888 		0.7491 		0.0843
v 2.5026 		-0.1819 		0.2063
v 2.5499 		-0.1558 		0.1695
v 2.5197 		-0.3619 		0.0294
v 1.5172 		0.8147 		0.2003
v 1.5053 		0.8012 		0.088
v 2.506 		-0.1015 		0.1549
v 2.543 		-0.1519 		0.1646
v 2.6497 		-0.1529 		0.0454
v 2.6504 		-0.1519 		0.0467
v 1.511 		0.8015 		0.2182
v 1.003 		1.1271 		0.2075
v 0.9994 		1.1271 		0.1432
v 2.4842 		-0.1519 		0.1673
v 1.5208 		0.8244 		0.1461
v 2.6474 		-0.1555 		0.042
v 1.5198 		0.8244 		0.1203
v 1.021 		1.1021 		0.2399
v 1.4027 		0.6251 		0.2226
v 2.3347 		-0.2129 		0.0464
v 2.3521 		-0.1824 		0.0454
v 2.3337 		-0.2075 		0.0418
v 2.3327 		-0.2129 		0.0442
v 1.4192 		0.5571 		0.2219
v 1.0154 		1.1021 		0.1098
v 2.5652 		-0.1559 		0.1689
v 2.2072 		0.3861 		0.1173
v 1.513 		0.8142 		0.1057
v 2.1722 		0.3255 		0.0973
v 2.3993 		-0.3619 		0.2101
v 2.3339 		-0.2129 		0.0414
v 2.5026 		-0.3619 		0.2063
v 2.5287 		-0.1519 		0.1498
v 2.5243 		-0.1519 		0.1456
v 2.5226 		0.1516 		0.0721
v 2.2036 		0.3825 		0.0838
v 2.5213 		0.1507 		0.0704
v 2.5213 		0.1506 		0.0703
v 2.2064 		0.381 		0.1612
v 2.5237 		-0.1519 		0.1326
v 2.2093 		0.3862 		0.1603
v 1.4761 		0.7432 		0.2201
v 1.4494 		0.6994 		0.2213
v 2.4121 		0.0677 		0.0682
v 2.2857 		-0.0302 		0.1577
v 2.3125 		-0.0083 		0.0931
v 2.3183 		-0.0034 		0.0792
v 2.1773 		0.3355 		0.0851
v 2.2055 		0.386 		0.0842
v 2.2751 		0.0011 		0.1834
v 2.2755 		0.0001 		0.1825
v 2.5745 		0.2281 		0.0434
v 2.2777 		0.0032 		0.1833
v 2.2751 		0.0013 		0.1834
v 2.5265 		-0.3619 		0.188
v 2.2749 		0.0018 		0.1839
v 2.3254 		0.0303 		0.0621
v 2.4752 		0.2681 		0.0478
v 2.1472 		0.3311 		0.189
v 2.263 		0.5391 		0.1839
v 2.4917 		0.1637 		0.0489
v 2.5119 		0.1553 		0.0637
v 2.4914 		0.1634 		0.0489
v 2.4096 		0.1011 		0.052
v 2.4088 		0.1026 		0.052
v 2.258 		0.5391 		0.0574
v 1.0326 		1.0041 		0.2068
v 1.5457 		0.6501 		0.2169
v 2.2722 		-0.065 		0.1903
v 1.5676 		0.8551 		0.0701
v 2.4079 		0.0887 		0.061
v 2.3318 		-0.2129 		0.0465
v 2.3319 		-0.1548 		0.0463
v 2.2723 		-0.2129 		0.19
v 1.0844 		0.7901 		0.2044
v 1.0811 		0.7901 		0.1392
v 1.5401 		0.6501 		0.0869
v 2.2911 		-0.3239 		0.1891
v 1.0596 		0.7571 		0.1076
v 1.5554 		0.6101 		0.1831
v 2.363 		-0.3619 		0.1723
v 2.3581 		-0.3619 		0.0588
v 1.4566 		0.5661 		0.2363
v 1.44 		0.6341 		0.237
v 0.9327 		0.9691 		0.1135
v 2.4394 		0.2771 		0.0741
v 2.5026 		-0.5429 		0.2063
v 1.4313 		0.8511 		0.2215
v 1.703 		0.5551 		0.2266
v 2.4542 		0.099 		0.0856
v 2.4542 		0.0993 		0.0856
v 1.569 		0.4661 		0.2157
v 2.2363 		-0.2129 		0.1849
v 1.7631 		0.7401 		0.2226
v 2.2443 		-0.2129 		0.1912
v 1.5633 		0.4661 		0.0857
v 1.7466 		0.8081 		0.2233
v 2.526 		0.1516 		0.145
v 2.5253 		0.1515 		0.1286
v 0.9947 		1.0251 		0.1099
v 1.6217 		0.5191 		0.0676
v 1.5533 		0.5021 		0.0707
v 2.5248 		0.1507 		0.1468
v 1.7983 		0.7491 		0.2057
v 2.5244 		0.1504 		0.1475
v 1.0293 		1.0041 		0.1416
v 2.2066 		0.3881 		0.1606
v 2.2025 		0.3881 		0.0842
v 2.2142 		0.0901 		0.0587
v 2.213 		0.0893 		0.0587
v 0.9046 		0.9741 		0.1473
v 2.4811 		0.2681 		0.1747
v 0.907 		0.9741 		0.2121
v 1.1127 		0.7011 		0.1047
v 0.9383 		0.9691 		0.2435
v 2.2201 		0.0901 		0.1856
v 2.2169 		0.088 		0.1857
v 2.4969 		0.1637 		0.1722
v 2.5158 		0.155 		0.155
v 1.7647 		0.7007 		0.1119
v 1.7643 		0.7006 		0.1037
v 2.4965 		0.1635 		0.1722
v 1.8151 		0.6644 		0.1015
v 1.7512 		0.7103 		0.1104
v 1.7537 		0.7082 		0.1042
v 1.0009 		1.0251 		0.2413
v 1.7676 		0.7006 		0.1798
v 1.6304 		0.4821 		0.0832
v 1.0652 		0.7571 		0.2376
v 1.7216 		0.7334 		0.1818
v 1.6733 		0.5528 		0.0812
v 1.7535 		0.6752 		0.2075
v 1.7534 		0.6752 		0.2076
v 1.6614 		0.5315 		0.1058
v 1.6602 		0.5292 		0.1085
v 1.118 		0.7011 		0.2357
v 1.113 		0.6711 		0.2033
v 1.1097 		0.6711 		0.1381
v 2.4422 		0.2771 		0.151
v 1.3314 		0.7211 		0.1282
v 1.748 		0.6753 		0.2107
v 1.7663 		0.6982 		0.1824
v 2.4421 		0.0891 		0.1148
v 1.3457 		0.7211 		0.1276
v 2.4063 		0.0631 		0.0772
v 2.4095 		0.0635 		0.1501
v 2.0247 		0.2151 		0.1686
v 2.4066 		0.0631 		0.0833
v 0.9588 		0.7591 		0.2098
v 2.4077 		0.0633 		0.109
v 0.9564 		0.7591 		0.1449
v 0.9791 		0.7771 		0.1111
v 1.368 		0.7381 		0.0946
v 0.9848 		0.7771 		0.2411
v 2.2309 		-0.2129 		0.0581
v 2.2023 		-0.2129 		0.0847
v 2.4148 		0.1011 		0.1754
v 2.2377 		-0.2129 		0.0511
v 2.2054 		-0.2129 		0.1607
v 1.7078 		0.7005 		0.2151
v 1.5602 		0.5021 		0.2316
v 1.6286 		0.5191 		0.2285
v 1.758 		0.6909 		0.0939
v 1.6364 		0.4821 		0.2123
v 1.679 		0.5524 		0.2106
v 1.6789 		0.5527 		0.2107
v 1.9835 		0.2991 		0.2055
v 2.0216 		0.2151 		0.0926
v 2.0452 		0.2371 		0.0591
v 1.7948 		0.4731 		0.2211
v 1.7036 		0.5526 		0.2252
v 1.7329 		0.6605 		0.2145
v 1.6636 		0.529 		0.1844
v 2.2758 		0.006 		0.0562
v 2.2897 		0.013 		0.0579
v 2.2721 		0.0111 		0.0564
v 2.2748 		0.0071 		0.1834
v 1.2062 		1.1421 		0.1012
v 1.6279 		0.7581 		0.1806
v 1.2835 		1.0861 		0.0975
v 1.404 		1.0741 		0.1907
v 1.4007 		1.0741 		0.1255
v 1.2653 		1.0541 		0.1311
# 438 vertices

g group_2_14528853

usemtl color_14528853
s 0

f 504 	505 	503
f 503 	505 	506
f 509 	503 	508
f 506 	508 	503
f 502 	513 	501
f 509 	508 	514
f 511 	515 	507
f 877 	511 	507
f 510 	501 	513
f 523 	536 	509
f 514 	523 	509
f 506 	514 	508
f 506 	505 	520
f 506 	523 	514
f 520 	526 	506
f 523 	506 	526
f 521 	522 	534
f 528 	644 	537
f 538 	530 	852
f 540 	542 	526
f 523 	533 	526
f 544 	532 	523
f 532 	533 	523
f 540 	526 	533
f 515 	806 	529
f 543 	908 	531
f 547 	549 	550
f 537 	595 	528
f 524 	528 	595
f 802 	812 	553
f 826 	553 	812
f 802 	553 	555
f 548 	545 	554
f 527 	525 	672
f 671 	672 	525
f 525 	535 	671
f 512 	681 	551
f 672 	541 	527
f 524 	595 	531
f 559 	560 	561
f 672 	675 	541
f 743 	543 	528
f 523 	534 	536
f 863 	536 	534
f 534 	523 	526
f 531 	595 	543
f 543 	743 	539
f 531 	528 	543
f 524 	528 	531
f 743 	528 	537
f 727 	726 	537
f 558 	564 	562
f 558 	552 	564
f 563 	565 	567
f 568 	569 	567
f 563 	567 	569
f 569 	814 	563
f 557 	530 	556
f 565 	563 	571
f 672 	571 	563
f 575 	556 	530
f 538 	574 	530
f 570 	825 	537
f 501 	512 	502
f 570 	727 	537
f 574 	575 	530
f 512 	501 	566
f 628 	565 	571
f 575 	554 	556
f 576 	554 	575
f 545 	556 	554
f 571 	862 	578
f 571 	578 	567
f 571 	567 	565
f 862 	794 	578
f 528 	756 	537
f 580 	581 	546
f 832 	543 	539
f 582 	544 	536
f 523 	536 	544
f 543 	832 	531
f 585 	586 	533
f 577 	580 	546
f 587 	899 	588
f 581 	580 	612
f 519 	746 	590
f 580 	577 	608
f 565 	572 	533
f 540 	533 	572
f 571 	565 	533
f 586 	571 	533
f 554 	584 	548
f 584 	583 	548
f 746 	592 	590
f 598 	856 	593
f 532 	596 	597
f 532 	597 	599
f 532 	599 	600
f 532 	600 	585
f 532 	585 	533
f 601 	856 	598
f 588 	595 	587
f 589 	595 	588
f 602 	596 	582
f 544 	582 	596
f 544 	596 	532
f 593 	603 	598
f 601 	598 	603
f 587 	595 	591
f 595 	774 	592
f 588 	743 	587
f 606 	593 	594
f 601 	598 	606
f 598 	593 	606
f 584 	583 	536
f 614 	610 	917
f 917 	615 	614
f 807 	605 	535
f 616 	610 	614
f 589 	743 	588
f 924 	613 	526
f 523 	526 	613
f 536 	523 	613
f 536 	613 	617
f 617 	666 	536
f 590 	592 	774
f 519 	590 	774
f 613 	622 	617
f 621 	609 	619
f 611 	609 	621
f 609 	610 	619
f 618 	619 	610
f 618 	610 	614
f 615 	921 	618
f 614 	615 	618
f 937 	620 	517
f 591 	595 	592
f 540 	572 	607
f 540 	607 	542
f 587 	743 	591
f 627 	928 	625
f 618 	928 	627
f 606 	625 	928
f 607 	572 	547
f 572 	565 	547
f 565 	628 	547
f 592 	743 	590
f 519 	590 	743
f 592 	591 	743
f 631 	632 	603
f 631 	603 	593
f 626 	612 	580
f 635 	636 	634
f 633 	634 	636
f 637 	638 	636
f 633 	636 	638
f 620 	644 	517
f 639 	629 	630
f 589 	539 	595
f 539 	543 	595
f 608 	626 	580
f 616 	641 	643
f 645 	610 	643
f 616 	643 	610
f 566 	653 	546
f 675 	624 	541
f 610 	645 	647
f 610 	647 	614
f 566 	546 	679
f 539 	743 	589
f 521 	534 	504
f 505 	504 	534
f 526 	520 	505
f 526 	505 	534
f 578 	579 	646
f 841 	651 	652
f 567 	578 	568
f 646 	568 	578
f 657 	646 	579
f 658 	659 	559
f 658 	559 	561
f 546 	653 	577
f 871 	894 	573
f 719 	512 	551
f 634 	633 	657
f 579 	657 	633
f 719 	502 	512
f 566 	501 	653
f 567 	640 	607
f 633 	640 	578
f 579 	633 	578
f 567 	578 	640
f 542 	607 	640
f 640 	642 	542
f 542 	642 	521
f 542 	521 	534
f 542 	534 	526
f 614 	927 	615
f 527 	664 	665
f 632 	666 	617
f 631 	666 	632
f 584 	536 	666
f 659 	658 	667
f 631 	562 	666
f 561 	560 	667
f 561 	667 	658
f 631 	593 	598
f 631 	598 	666
f 584 	666 	564
f 655 	894 	652
f 583 	584 	666
f 598 	601 	666
f 601 	886 	666
f 583 	666 	886
f 527 	541 	664
f 584 	554 	666
f 576 	639 	554
f 666 	554 	630
f 630 	554 	639
f 631 	666 	630
f 541 	673 	664
f 674 	671 	535
f 648 	595 	669
f 595 	662 	669
f 535 	605 	674
f 552 	623 	859
f 624 	673 	541
f 539 	589 	832
f 588 	587 	832
f 695 	832 	587
f 589 	588 	832
f 546 	581 	679
f 583 	886 	889
f 545 	548 	889
f 583 	889 	548
f 605 	821 	674
f 670 	719 	685
f 680 	574 	684
f 683 	684 	574
f 575 	574 	680
f 574 	686 	683
f 686 	688 	683
f 687 	688 	686
f 682 	683 	688
f 551 	681 	691
f 678 	677 	623
f 685 	551 	689
f 538 	611 	574
f 621 	574 	611
f 512 	690 	681
f 623 	552 	678
f 551 	691 	689
f 594 	629 	692
f 575 	692 	629
f 575 	629 	639
f 575 	639 	576
f 730 	681 	729
f 594 	692 	606
f 695 	606 	692
f 618 	627 	619
f 698 	566 	679
f 656 	663 	739
f 695 	625 	606
f 698 	679 	710
f 693 	699 	685
f 627 	625 	700
f 698 	690 	512
f 699 	670 	685
f 702 	621 	619
f 698 	512 	566
f 822 	705 	663
f 852 	704 	703
f 729 	690 	707
f 690 	698 	707
f 706 	707 	698
f 677 	704 	623
f 592 	835 	591
f 591 	835 	587
f 704 	677 	740
f 693 	685 	689
f 852 	623 	704
f 694 	693 	689
f 703 	704 	740
f 691 	701 	697
f 691 	668 	701
f 697 	694 	689
f 712 	714 	715
f 738 	678 	696
f 689 	691 	697
f 696 	552 	558
f 751 	716 	718
f 751 	663 	705
f 551 	685 	719
f 552 	696 	678
f 596 	672 	671
f 518 	774 	716
f 723 	714 	710
f 719 	513 	502
f 519 	743 	518
f 711 	710 	712
f 724 	741 	722
f 712 	710 	714
f 649 	821 	605
f 577 	653 	722
f 709 	718 	708
f 743 	742 	718
f 716 	743 	718
f 716 	518 	743
f 722 	653 	724
f 726 	727 	644
f 649 	661 	725
f 668 	691 	681
f 570 	644 	761
f 608 	577 	722
f 690 	729 	681
f 653 	501 	724
f 661 	728 	725
f 858 	730 	729
f 707 	853 	729
f 749 	748 	715
f 726 	783 	537
f 735 	782 	733
f 709 	708 	843
f 731 	732 	734
f 678 	738 	677
f 705 	746 	751
f 737 	721 	741
f 737 	741 	710
f 738 	740 	677
f 656 	739 	650
f 721 	722 	741
f 720 	742 	743
f 743 	770 	720
f 620 	720 	770
f 626 	608 	744
f 744 	759 	626
f 688 	760 	682
f 720 	745 	742
f 612 	626 	747
f 748 	749 	723
f 714 	723 	749
f 620 	770 	772
f 747 	626 	759
f 714 	749 	715
f 900 	715 	748
f 737 	581 	612
f 831 	830 	604
f 721 	747 	759
f 769 	795 	723
f 737 	612 	747
f 730 	752 	681
f 721 	737 	747
f 731 	734 	750
f 753 	754 	755
f 858 	860 	730
f 604 	750 	734
f 744 	608 	722
f 620 	783 	644
f 726 	644 	783
f 684 	756 	680
f 721 	744 	722
f 766 	709 	843
f 708 	760 	843
f 720 	843 	760
f 746 	716 	751
f 737 	679 	581
f 738 	825 	727
f 760 	745 	720
f 663 	751 	843
f 663 	843 	739
f 762 	763 	758
f 727 	761 	644
f 721 	759 	744
f 765 	698 	764
f 710 	771 	698
f 743 	742 	740
f 765 	706 	698
f 727 	761 	726
f 756 	726 	761
f 742 	745 	740
f 788 	763 	762
f 724 	501 	510
f 760 	740 	745
f 788 	762 	789
f 901 	789 	762
f 790 	706 	676
f 709 	766 	703
f 745 	718 	742
f 510 	837 	724
f 905 	795 	901
f 903 	795 	905
f 764 	676 	765
f 760 	708 	740
f 709 	740 	708
f 676 	706 	765
f 769 	681 	758
f 837 	741 	724
f 760 	718 	745
f 708 	718 	760
f 737 	710 	679
f 688 	687 	766
f 709 	708 	766
f 688 	766 	708
f 763 	769 	758
f 764 	698 	771
f 771 	710 	711
f 654 	780 	768
f 710 	741 	837
f 775 	776 	777
f 775 	777 	778
f 648 	779 	595
f 771 	816 	676
f 764 	771 	676
f 710 	837 	723
f 774 	595 	779
f 650 	654 	768
f 758 	681 	781
f 752 	781 	681
f 838 	774 	779
f 768 	767 	650
f 735 	725 	782
f 728 	782 	725
f 736 	733 	782
f 736 	782 	784
f 620 	772 	783
f 668 	757 	785
f 753 	786 	777
f 776 	754 	777
f 753 	777 	754
f 650 	773 	656
f 757 	681 	769
f 668 	681 	757
f 767 	773 	650
f 754 	776 	775
f 754 	775 	755
f 787 	668 	785
f 738 	772 	770
f 743 	740 	770
f 738 	770 	740
f 787 	785 	670
f 821 	649 	725
f 525 	527 	665
f 769 	763 	788
f 769 	788 	789
f 789 	795 	769
f 772 	738 	783
f 727 	726 	738
f 783 	738 	726
f 706 	790 	854
f 733 	791 	735
f 787 	670 	699
f 792 	790 	676
f 817 	676 	816
f 676 	793 	792
f 634 	794 	635
f 703 	839 	852
f 771 	711 	818
f 771 	818 	816
f 748 	723 	795
f 819 	818 	712
f 789 	901 	795
f 728 	796 	782
f 670 	785 	842
f 852 	839 	538
f 711 	712 	818
f 819 	712 	715
f 795 	903 	748
f 900 	748 	903
f 797 	751 	798
f 799 	553 	715
f 553 	826 	715
f 881 	663 	656
f 751 	718 	798
f 693 	694 	810
f 694 	697 	810
f 656 	773 	881
f 766 	797 	703
f 797 	798 	703
f 728 	794 	796
f 664 	854 	665
f 854 	790 	665
f 693 	810 	699
f 784 	782 	803
f 791 	803 	782
f 791 	782 	804
f 792 	793 	665
f 790 	792 	665
f 815 	624 	675
f 511 	805 	806
f 515 	511 	806
f 525 	665 	535
f 766 	797 	709
f 718 	709 	797
f 718 	797 	798
f 661 	815 	728
f 805 	511 	808
f 701 	668 	787
f 657 	635 	794
f 808 	809 	805
f 537 	644 	570
f 665 	807 	535
f 800 	529 	806
f 761 	825 	570
f 809 	808 	811
f 665 	817 	807
f 761 	727 	570
f 728 	814 	794
f 825 	662 	595
f 813 	605 	807
f 604 	713 	831
f 646 	657 	569
f 814 	569 	657
f 794 	814 	657
f 797 	766 	687
f 797 	687 	686
f 929 	820 	930
f 830 	731 	750
f 823 	797 	574
f 686 	574 	797
f 797 	823 	798
f 794 	634 	657
f 756 	528 	832
f 524 	832 	528
f 815 	661 	624
f 813 	649 	605
f 570 	537 	756
f 761 	570 	756
f 793 	676 	817
f 728 	815 	814
f 823 	835 	518
f 716 	823 	518
f 573 	660 	636
f 718 	798 	716
f 823 	716 	798
f 818 	819 	820
f 651 	637 	652
f 637 	636 	652
f 594 	856 	669
f 629 	594 	669
f 660 	655 	636
f 648 	847 	779
f 629 	669 	662
f 847 	648 	851
f 610 	609 	917
f 655 	652 	636
f 733 	522 	791
f 786 	778 	777
f 822 	663 	881
f 538 	839 	611
f 839 	838 	611
f 609 	611 	838
f 770 	537 	783
f 743 	537 	770
f 772 	770 	783
f 828 	801 	800
f 824 	828 	800
f 825 	696 	558
f 725 	735 	503
f 827 	828 	829
f 738 	696 	825
f 803 	791 	522
f 869 	834 	713
f 819 	715 	826
f 819 	826 	820
f 717 	869 	713
f 824 	829 	828
f 810 	697 	701
f 665 	793 	817
f 717 	893 	869
f 787 	699 	810
f 828 	812 	802
f 801 	828 	802
f 806 	805 	824
f 806 	824 	800
f 823 	574 	621
f 702 	823 	621
f 824 	805 	811
f 809 	811 	805
f 701 	787 	810
f 692 	575 	832
f 680 	756 	832
f 575 	680 	832
f 692 	832 	695
f 817 	816 	807
f 524 	531 	832
f 627 	700 	835
f 818 	820 	807
f 816 	818 	807
f 884 	830 	822
f 619 	835 	702
f 823 	702 	835
f 627 	835 	619
f 590 	519 	835
f 519 	518 	835
f 700 	625 	835
f 929 	807 	820
f 769 	836 	757
f 835 	592 	590
f 826 	930 	820
f 742 	743 	683
f 770 	683 	743
f 785 	836 	842
f 695 	587 	625
f 625 	587 	835
f 813 	841 	649
f 760 	745 	682
f 785 	757 	836
f 931 	813 	929
f 684 	683 	770
f 684 	770 	772
f 761 	727 	825
f 595 	537 	825
f 718 	716 	774
f 518 	519 	774
f 831 	822 	830
f 756 	684 	783
f 772 	783 	684
f 807 	929 	813
f 750 	604 	830
f 756 	783 	726
f 709 	703 	740
f 513 	836 	510
f 837 	510 	836
f 688 	708 	760
f 769 	723 	836
f 837 	836 	723
f 774 	838 	839
f 742 	682 	745
f 842 	719 	670
f 798 	774 	703
f 718 	774 	798
f 842 	513 	719
f 739 	843 	720
f 839 	703 	774
f 836 	513 	842
f 641 	616 	844
f 622 	603 	632
f 766 	843 	797
f 751 	797 	843
f 622 	632 	617
f 848 	833 	516
f 845 	846 	555
f 553 	799 	555
f 845 	555 	799
f 850 	516 	833
f 833 	848 	850
f 902 	516 	550
f 853 	707 	854
f 706 	854 	707
f 857 	669 	856
f 858 	729 	853
f 516 	607 	550
f 547 	550 	607
f 752 	730 	860
f 874 	752 	860
f 849 	859 	852
f 623 	852 	859
f 856 	883 	857
f 648 	669 	857
f 912 	758 	877
f 780 	855 	840
f 593 	856 	594
f 780 	933 	855
f 781 	752 	877
f 873 	877 	752
f 834 	831 	713
f 860 	858 	664
f 664 	853 	854
f 796 	862 	782
f 804 	782 	863
f 853 	664 	858
f 815 	563 	814
f 705 	822 	861
f 664 	673 	874
f 864 	813 	931
f 861 	822 	831
f 841 	813 	864
f 767 	768 	866
f 874 	860 	664
f 651 	841 	864
f 651 	864 	865
f 768 	780 	866
f 804 	863 	791
f 522 	791 	863
f 522 	863 	534
f 767 	866 	868
f 867 	673 	624
f 637 	651 	638
f 868 	870 	773
f 732 	731 	891
f 773 	767 	868
f 865 	638 	651
f 840 	866 	780
f 796 	794 	862
f 657 	579 	794
f 579 	578 	794
f 638 	733 	736
f 638 	736 	784
f 638 	784 	633
f 932 	871 	872
f 784 	803 	736
f 646 	569 	568
f 906 	904 	866
f 661 	867 	624
f 859 	564 	552
f 736 	642 	784
f 640 	784 	642
f 873 	752 	874
f 876 	564 	875
f 859 	875 	564
f 781 	877 	758
f 803 	521 	736
f 633 	784 	640
f 872 	871 	573
f 638 	521 	733
f 912 	762 	758
f 876 	875 	878
f 673 	873 	874
f 821 	725 	503
f 873 	673 	877
f 636 	635 	573
f 872 	573 	635
f 511 	877 	673
f 876 	875 	880
f 879 	880 	875
f 522 	733 	521
f 638 	865 	521
f 791 	503 	735
f 779 	847 	916
f 504 	503 	521
f 773 	870 	881
f 522 	521 	503
f 522 	503 	791
f 875 	859 	882
f 857 	851 	648
f 522 	521 	803
f 642 	736 	521
f 857 	883 	851
f 674 	821 	509
f 884 	881 	870
f 879 	875 	882
f 879 	882 	885
f 822 	881 	884
f 856 	601 	886
f 883 	856 	886
f 927 	859 	849
f 731 	830 	884
f 585 	586 	672
f 599 	600 	672
f 596 	597 	672
f 919 	851 	883
f 889 	890 	883
f 597 	599 	672
f 886 	889 	883
f 932 	511 	867
f 596 	671 	602
f 622 	613 	603
f 932 	867 	871
f 891 	731 	884
f 875 	597 	878
f 867 	661 	894
f 871 	867 	894
f 891 	884 	909
f 673 	867 	511
f 613 	924 	889
f 596 	878 	597
f 602 	878 	596
f 516 	902 	848
f 596 	782 	597
f 906 	893 	892
f 894 	649 	841
f 862 	597 	782
f 863 	782 	596
f 863 	596 	602
f 894 	661 	649
f 579 	578 	872
f 635 	657 	872
f 657 	579 	872
f 660 	573 	894
f 891 	909 	892
f 893 	717 	895
f 604 	895 	713
f 894 	655 	660
f 888 	887 	859
f 927 	896 	859
f 888 	859 	896
f 895 	717 	713
f 859 	887 	897
f 882 	859 	897
f 892 	732 	891
f 585 	672 	600
f 841 	652 	894
f 892 	734 	732
f 895 	604 	734
f 846 	845 	898
f 600 	599 	882
f 799 	715 	900
f 893 	734 	892
f 734 	893 	895
f 515 	529 	762
f 901 	762 	529
f 868 	866 	904
f 599 	597 	882
f 875 	882 	597
f 898 	845 	799
f 898 	799 	900
f 898 	900 	903
f 898 	903 	905
f 597 	862 	599
f 907 	906 	866
f 840 	907 	866
f 529 	800 	901
f 905 	901 	801
f 600 	599 	862
f 800 	801 	901
f 868 	904 	909
f 528 	524 	908
f 534 	865 	924
f 521 	865 	534
f 563 	815 	675
f 892 	904 	906
f 559 	659 	802
f 802 	555 	559
f 892 	909 	904
f 924 	526 	534
f 644 	528 	908
f 909 	870 	868
f 586 	571 	672
f 560 	559 	555
f 846 	898 	555
f 589 	899 	539
f 589 	588 	899
f 543 	539 	899
f 516 	578 	567
f 516 	567 	607
f 659 	667 	802
f 667 	905 	802
f 801 	802 	905
f 587 	591 	899
f 675 	672 	563
f 899 	908 	543
f 524 	531 	908
f 585 	600 	628
f 516 	872 	578
f 519 	518 	746
f 716 	746 	518
f 560 	555 	667
f 667 	555 	898
f 905 	667 	898
f 571 	586 	628
f 586 	585 	628
f 882 	628 	600
f 507 	912 	877
f 600 	862 	585
f 899 	591 	592
f 893 	906 	907
f 571 	586 	862
f 586 	585 	862
f 829 	824 	850
f 912 	515 	762
f 507 	515 	912
f 592 	746 	899
f 603 	613 	886
f 603 	886 	601
f 893 	907 	869
f 896 	628 	888
f 887 	888 	628
f 882 	897 	628
f 886 	613 	889
f 821 	503 	509
f 887 	628 	897
f 828 	827 	913
f 888 	885 	887
f 890 	889 	606
f 889 	886 	606
f 601 	606 	886
f 884 	870 	909
f 674 	509 	671
f 516 	850 	824
f 834 	869 	907
f 882 	897 	885
f 897 	887 	885
f 896 	885 	888
f 915 	885 	896
f 838 	916 	917
f 536 	671 	509
f 582 	671 	536
f 834 	907 	840
f 838 	917 	609
f 582 	602 	671
f 536 	878 	582
f 855 	834 	840
f 548 	878 	583
f 548 	918 	878
f 876 	878 	918
f 536 	583 	878
f 917 	919 	920
f 917 	920 	921
f 615 	917 	921
f 602 	582 	878
f 834 	855 	861
f 876 	880 	918
f 916 	847 	919
f 861 	831 	834
f 582 	863 	602
f 536 	863 	582
f 547 	922 	549
f 847 	851 	919
f 890 	889 	924
f 923 	890 	924
f 916 	919 	917
f 928 	902 	925
f 926 	920 	925
f 916 	838 	779
f 925 	643 	641
f 925 	641 	926
f 932 	872 	811
f 811 	872 	824
f 645 	849 	557
f 922 	547 	628
f 643 	628 	647
f 927 	647 	628
f 925 	628 	643
f 922 	628 	925
f 849 	645 	927
f 647 	927 	645
f 550 	922 	902
f 549 	922 	550
f 922 	925 	902
f 614 	647 	927
f 883 	890 	928
f 920 	919 	928
f 883 	928 	919
f 628 	896 	927
f 911 	914 	923
f 616 	926 	844
f 887 	920 	927
f 896 	888 	927
f 888 	887 	927
f 929 	930 	828
f 812 	828 	930
f 647 	556 	927
f 896 	927 	556
f 896 	556 	915
f 897 	889 	887
f 616 	920 	926
f 614 	615 	616
f 826 	812 	930
f 875 	545 	882
f 918 	545 	876
f 875 	876 	545
f 545 	889 	882
f 897 	882 	889
f 928 	925 	920
f 921 	920 	616
f 615 	921 	616
f 915 	545 	885
f 918 	880 	545
f 879 	545 	880
f 879 	885 	545
f 556 	545 	915
f 910 	911 	923
f 921 	920 	618
f 928 	618 	920
f 902 	923 	914
f 923 	924 	910
f 913 	910 	924
f 647 	645 	643
f 645 	557 	556
f 645 	556 	647
f 844 	926 	641
f 902 	928 	923
f 902 	914 	848
f 662 	825 	558
f 890 	923 	928
f 630 	629 	558
f 865 	864 	931
f 931 	828 	865
f 929 	828 	931
f 924 	865 	828
f 606 	928 	890
f 828 	913 	924
f 808 	511 	932
f 921 	927 	920
f 615 	927 	921
f 811 	808 	932
f 516 	824 	872
f 755 	775 	753
f 786 	753 	775
f 786 	775 	778
f 889 	890 	928
f 889 	928 	920
f 889 	920 	887
f 827 	829 	850
f 827 	850 	848
f 827 	848 	914
f 911 	910 	914
f 827 	914 	910
f 827 	910 	913
f 654 	933 	780
f 584 	564 	583
f 548 	564 	918
f 876 	918 	564
f 564 	548 	583
f 683 	934 	742
f 742 	934 	682
f 682 	934 	683
f 855 	933 	935
f 562 	631 	630
f 938 	861 	935
f 562 	630 	558
f 564 	666 	562
f 935 	861 	855
f 662 	558 	629
f 650 	936 	937
f 654 	650 	937
f 650 	739 	936
f 530 	849 	852
f 557 	849 	530
f 517 	935 	933
f 517 	644 	935
f 908 	935 	644
f 720 	936 	739
f 720 	620 	936
f 937 	936 	620
f 938 	705 	861
f 899 	746 	938
f 705 	938 	746
f 935 	908 	938
f 938 	908 	899
f 654 	937 	517
f 517 	933 	654
# 1032 faces

 #end of obj_2

o obj_3
v 2.7515 		-2.1742 		0.0371
v 2.7141 		-2.1742 		0.1275
v 2.7106 		-2.1742 		0.0418
v 2.7467 		-2.1742 		0.0351
v 2.005 		-0.5132 		0.0363
v 2.7515 		-0.2642 		0.0371
v 2.7515 		-0.5114 		0.0371
v 2.7099 		-0.4942 		0.0199
v 2.7099 		-0.2892 		0.0199
v 2.7467 		-0.2642 		0.0351
v 2.1023 		-1.0702 		0.0052
v 2.1189 		-1.0682 		0.0251
v 2.0214 		-0.5282 		0.015
v 2.7099 		-2.1492 		0.0199
v 2.7099 		-1.9442 		0.0199
v 2.7515 		-1.9269 		0.0371
v 2.0362 		-0.5092 		0.0471
v 2.7106 		-0.2642 		0.0418
v 2.7141 		-0.2642 		0.1275
v 2.7158 		-0.4942 		0.1652
v 2.716 		-0.4948 		0.1646
v 2.7158 		-0.2892 		0.1652
v 2.7158 		-1.9442 		0.1652
v 2.716 		-1.9436 		0.1646
v 2.0617 		-0.5312 		0.0718
v 2.0362 		-0.5092 		0.0471
v 2.7158 		-2.1492 		0.1652
v 2.2575 		-1.7022 		0.0251
v 2.7249 		-1.9203 		0.143
v 2.7247 		-1.9203 		0.1437
v 2.6981 		-0.3008 		0.166
v 1.759 		-1.5792 		0.0449
v 2.7072 		-0.4957 		0.165
v 2.0218 		-1.3352 		0.0087
v 2.2239 		-1.2222 		0.0199
v 1.9824 		-0.9662 		0.2424
v 2.6983 		-0.4966 		0.1655
v 2.0311 		-1.1092 		0.2398
v 1.6525 		-1.6752 		0.2367
v 2.2399 		-1.7172 		0.0049
v 2.6986 		-0.4972 		0.1649
v 2.0218 		-1.4482 		0.0087
v 1.9824 		-1.4782 		0.2424
v 2.0311 		-0.9962 		0.2398
v 2.1115 		-1.0702 		0.2364
v 2.032 		-1.5562 		0.2402
v 2.707 		-0.2654 		0.1445
v 2.7069 		-0.2658 		0.1449
v 2.6981 		-0.2919 		0.166
v 1.6678 		-1.6602 		0.2571
v 2.707 		-0.52 		0.1445
v 2.7503 		-0.5149 		0.04
v 1.9544 		-1.2222 		0.0121
v 1.7375 		-1.7302 		0.2535
v 1.9418 		-1.2222 		0.0372
v 2.0218 		-1.1092 		0.0087
v 2.2487 		-1.7172 		0.2239
v 2.2652 		-1.7022 		0.2026
v 2.0093 		-1.3332 		0.0338
v 2.0169 		-1.1112 		0.2166
v 2.0613 		-0.5332 		0.0283
v 2.0218 		-0.9962 		0.0087
v 1.7553 		-1.5912 		0.2523
v 2.0808 		-0.5492 		0.0493
v 1.9663 		-1.4702 		0.0355
v 1.974 		-0.9752 		0.2183
v 2.0093 		-1.4442 		0.0338
v 1.9731 		-0.9662 		0.0113
v 2.2074 		-0.3432 		0.065
v 1.9757 		-1.7302 		0.2429
v 2.127 		-1.5312 		0.2146
v 2.222 		-0.3652 		0.0429
v 1.9801 		-1.6952 		0.2363
v 1.9801 		-1.6512 		0.2363
v 2.2316 		-1.2222 		0.2103
v 2.2165 		-1.2222 		0.2311
v 1.9757 		-1.6512 		0.2429
v 2.0169 		-1.0002 		0.2166
v 2.127 		-1.3762 		0.2146
v 2.0763 		-1.54 		0.0131
v 2.0773 		-1.54 		0.0136
v 2.0093 		-1.1112 		0.0338
v 2.1023 		-1.5252 		0.0052
v 2.005 		-1.9252 		0.0363
v 2.3417 		-0.5352 		0.1823
v 2.098 		-1.5397 		0.0259
v 2.0362 		-1.9292 		0.0471
v 2.0214 		-1.9102 		0.015
v 2.1189 		-1.5312 		0.0251
v 2.0418 		-0.5092 		0.201
v 1.9663 		-0.9752 		0.0355
v 2.0617 		-1.9072 		0.0718
v 2.1006 		-1.5387 		0.0281
v 2.1051 		-1.5369 		0.032
v 2.3359 		-0.5352 		0.037
v 2.3563 		-0.5582 		0.1602
v 2.0113 		-0.5132 		0.2143
v 2.0093 		-1.0002 		0.0338
v 2.0302 		-0.5282 		0.2341
v 2.707 		-2.173 		0.1445
v 2.3522 		-0.5582 		0.0579
v 2.0659 		-0.5312 		0.1741
v 2.7069 		-2.1725 		0.1449
v 2.6981 		-2.1464 		0.166
v 2.6981 		-2.1376 		0.166
v 1.9664 		-1.7302 		0.0117
v 2.6983 		-1.9417 		0.1655
v 1.9118 		-1.5912 		0.2456
v 2.2112 		-0.6642 		0.0428
v 1.9025 		-0.8532 		0.0145
v 1.9709 		-1.6951 		0.0173
v 1.9711 		-1.6512 		0.0175
v 2.0102 		-1.5856 		0.0159
v 2.0261 		-1.5594 		0.0153
v 2.7503 		-1.9235 		0.04
v 2.0228 		-1.5562 		0.0091
v 2.6986 		-1.9411 		0.1649
v 2.7073 		-1.9184 		0.1439
v 1.8909 		-0.7094 		0.0218
v 1.8915 		-0.71 		0.021
v 2.3417 		-1.9032 		0.1823
v 2.2319 		-0.6812 		0.0633
v 1.9664 		-1.6512 		0.0117
v 2.2289 		-0.6802 		0.0209
v 2.0698 		-0.5332 		0.2169
v 2.0613 		-1.9052 		0.0283
v 2.0808 		-1.8892 		0.0493
v 2.3359 		-1.9032 		0.037
v 1.9731 		-1.4782 		0.0113
v 2.3522 		-1.8802 		0.0579
v 2.256 		-0.7032 		0.0364
v 2.0866 		-0.5492 		0.1946
v 1.9801 		-0.7095 		0.2363
v 1.9757 		-0.7142 		0.2429
v 2.3563 		-1.8802 		0.1602
v 1.9004 		-0.71 		0.0205
v 1.9801 		-0.7432 		0.2363
v 1.9056 		-1.5792 		0.2214
v 1.9801 		-0.7932 		0.2363
v 1.9757 		-0.7932 		0.2429
v 1.639 		-1.2222 		0.0471
v 1.9709 		-1.7344 		0.0173
v 1.6444 		-1.3972 		0.0472
v 2.2319 		-1.7572 		0.0633
v 2.081 		-0.9033 		0.2316
v 2.019 		-0.8588 		0.2345
v 1.6532 		-1.2222 		0.0259
v 2.0347 		-0.8851 		0.2337
v 1.6586 		-1.3972 		0.026
v 2.0839 		-0.9031 		0.2296
v 2.2289 		-1.7582 		0.0209
v 2.256 		-1.7352 		0.0364
v 1.8788 		-0.6992 		0.2201
v 1.898 		-0.8652 		0.0386
v 2.032 		-0.8882 		0.2402
v 2.1115 		-0.9192 		0.2364
v 2.2112 		-1.7742 		0.0428
v 2.0418 		-1.9292 		0.201
v 1.9025 		-1.5912 		0.0145
v 2.0113 		-1.9252 		0.2143
v 2.1025 		-0.9032 		0.2159
v 1.897 		-0.7068 		0.2363
v 2.2115 		-0.3432 		0.1674
v 2.2278 		-0.3652 		0.1882
v 1.8879 		-0.6992 		0.2262
v 1.6467 		-1.2222 		0.2376
v 1.7666 		-0.8652 		0.2277
v 2.1049 		-0.9042 		0.2134
v 2.0302 		-1.9102 		0.2341
v 1.6525 		-1.3972 		0.2367
v 2.1087 		-0.9058 		0.2096
v 2.0659 		-1.9072 		0.1741
v 2.1073 		-0.9058 		0.1755
v 1.7293 		-0.6992 		0.0434
v 1.7374 		-0.6992 		0.2329
v 2.1115 		-1.3742 		0.2364
v 1.8726 		-0.6992 		0.076
v 1.8714 		-0.6992 		0.0426
v 1.6624 		-1.2222 		0.2571
v 2.2361 		-0.6812 		0.1656
v 1.6678 		-1.3972 		0.2571
v 2.2365 		-0.6802 		0.2091
v 2.2625 		-0.7032 		0.1907
v 1.6444 		-0.7692 		0.0472
v 2.217 		-0.6642 		0.1881
v 1.6586 		-0.7842 		0.026
v 1.8796 		-0.6992 		0.0362
v 1.8884 		-0.7071 		0.025
v 2.0311 		-1.3352 		0.2398
v 2.0311 		-1.4482 		0.2398
v 1.7282 		-0.7142 		0.0224
v 2.0698 		-1.9052 		0.2169
v 2.0866 		-1.8892 		0.1946
v 1.7457 		-0.8532 		0.022
v 1.898 		-1.5792 		0.0386
v 2.0723 		-0.9028 		0.0133
v 2.0745 		-0.9027 		0.0146
v 2.2074 		-2.0952 		0.065
v 2.0169 		-1.3332 		0.2166
v 2.222 		-2.0732 		0.0429
v 1.7666 		-1.5792 		0.2277
v 2.1023 		-0.9192 		0.0052
v 2.2575 		-0.7362 		0.0251
v 1.759 		-0.8652 		0.0449
v 2.2399 		-0.7212 		0.0049
v 2.0939 		-0.903 		0.0261
v 2.0169 		-1.4442 		0.2166
v 2.1189 		-0.9132 		0.0251
v 1.9801 		-1.7348 		0.2363
v 2.2115 		-2.0952 		0.1674
v 2.0971 		-0.9042 		0.0287
v 1.6525 		-0.7692 		0.2367
v 2.2278 		-2.0732 		0.1882
v 2.1011 		-0.9058 		0.0322
v 1.9636 		-1.2222 		0.2433
v 1.6678 		-0.7842 		0.2571
v 1.9494 		-1.2222 		0.2201
v 1.9006 		-0.7096 		0.24
v 1.9003 		-0.7094 		0.2397
v 1.7375 		-0.7142 		0.2535
v 2.2487 		-0.7212 		0.2239
v 2.2652 		-0.7362 		0.2026
v 1.8831 		-1.7452 		0.2199
v 2.217 		-1.7742 		0.1881
v 1.9037 		-0.7096 		0.2399
v 2.2361 		-1.7572 		0.1656
v 1.8922 		-1.7452 		0.226
v 2.2365 		-1.7582 		0.2091
v 1.9709 		-0.7099 		0.0173
v 1.9008 		-1.738 		0.2355
v 1.7553 		-0.8532 		0.2523
v 1.9664 		-0.7142 		0.0117
v 2.127 		-0.9132 		0.2146
v 1.974 		-1.4702 		0.2183
v 2.2625 		-1.7352 		0.1907
v 1.9049 		-1.7347 		0.2398
v 2.127 		-1.0682 		0.2146
v 1.9118 		-0.8532 		0.2456
v 1.9709 		-0.7432 		0.0173
v 2.0261 		-0.8849 		0.0154
v 2.0101 		-0.8586 		0.016
v 1.9711 		-0.7932 		0.0175
v 2.0228 		-0.8882 		0.0091
v 2.0347 		-1.5592 		0.2337
v 2.019 		-1.5856 		0.2345
v 2.0851 		-1.5395 		0.2314
v 1.9664 		-0.7932 		0.0117
v 1.6444 		-1.0472 		0.0472
v 1.6525 		-1.0472 		0.2367
v 1.7293 		-1.7452 		0.0434
v 1.7374 		-1.7452 		0.2329
v 2.0867 		-1.5396 		0.2303
v 1.6444 		-1.6752 		0.0472
v 2.1115 		-1.5252 		0.2364
v 1.8771 		-1.7452 		0.0805
v 1.6586 		-1.6602 		0.026
v 1.6678 		-1.0472 		0.2571
v 2.2073 		-1.2222 		0
v 2.0362 		-0.5092 		0.0471
v 2.1065 		-1.5395 		0.2157
v 2.1189 		-1.3762 		0.0251
v 2.0362 		-0.5092 		0.0471
v 1.6586 		-1.0472 		0.026
v 1.7282 		-1.7302 		0.0224
v 1.8757 		-1.7452 		0.0424
v 2.1128 		-1.5369 		0.2095
v 2.1085 		-1.5387 		0.2137
v 1.9056 		-0.8652 		0.2214
v 1.8839 		-1.7452 		0.036
v 2.1023 		-1.3742 		0.0052
v 1.8958 		-1.7344 		0.0208
v 1.8955 		-1.7347 		0.0212
v 1.8923 		-1.7376 		0.0254
v 2.1117 		-1.5369 		0.1842
v 1.7457 		-1.5912 		0.022
v 1.9004 		-1.7344 		0.0205
v 2.7072 		-1.9426 		0.165
# 277 vertices

g group_3_9772161

usemtl color_9772161
s 0

f 941 	942 	940
f 939 	940 	942
f 946 	947 	945
f 947 	948 	945
f 944 	945 	948
f 953 	954 	952
f 942 	952 	954
f 942 	954 	939
f 948 	956 	957
f 948 	957 	944
f 958 	959 	960
f 968 	961 	962
f 1040 	963 	964
f 962 	961 	965
f 967 	968 	962
f 969 	958 	960
f 979 	971 	1023
f 958 	1023 	971
f 963 	999 	964
f 958 	971 	959
f 971 	969 	959
f 975 	969 	971
f 960 	959 	969
f 975 	971 	979
f 982 	976 	983
f 972 	1208 	980
f 957 	985 	986
f 957 	986 	987
f 957 	987 	969
f 957 	969 	975
f 957 	975 	979
f 957 	979 	989
f 957 	989 	990
f 957 	990 	945
f 957 	945 	944
f 1119 	1108 	988
f 977 	988 	1108
f 976 	1014 	983
f 956 	1007 	957
f 948 	947 	956
f 992 	988 	977
f 976 	982 	1016
f 958 	969 	1023
f 997 	993 	991
f 997 	991 	972
f 955 	999 	951
f 1005 	997 	972
f 998 	976 	1016
f 979 	1034 	989
f 949 	994 	1000
f 946 	945 	990
f 996 	1204 	995
f 972 	980 	1005
f 1034 	1039 	989
f 985 	957 	1007
f 1005 	980 	1067
f 988 	992 	1001
f 947 	1010 	956
f 1010 	1007 	956
f 1012 	995 	1183
f 1011 	995 	1012
f 955 	964 	999
f 1183 	1015 	1012
f 1049 	1050 	978
f 1036 	1006 	1000
f 963 	1002 	999
f 987 	1102 	969
f 1020 	998 	1036
f 1016 	1036 	998
f 1018 	1019 	978
f 1019 	1024 	978
f 1016 	982 	974
f 1031 	1032 	978
f 1004 	1016 	974
f 1143 	1167 	951
f 1012 	1015 	1011
f 991 	993 	1020
f 947 	1033 	1010
f 1008 	1011 	1015
f 947 	946 	1033
f 1019 	1018 	1021
f 991 	1020 	994
f 1031 	978 	1024
f 966 	978 	1032
f 1015 	984 	1046
f 994 	1020 	1036
f 1000 	994 	1036
f 1029 	1036 	1004
f 1017 	1013 	1014
f 1022 	1026 	1025
f 1027 	1024 	1021
f 1021 	1024 	1019
f 1013 	1199 	973
f 1026 	1064 	1025
f 1027 	1031 	1024
f 1031 	1027 	1032
f 1127 	1114 	1014
f 979 	1023 	1034
f 1036 	1029 	1006
f 1022 	1211 	1026
f 1028 	1035 	1037
f 1038 	1136 	940
f 1028 	1063 	1040
f 942 	941 	952
f 1016 	1004 	1036
f 1039 	1033 	946
f 946 	990 	1039
f 1060 	1039 	1034
f 990 	989 	1039
f 1033 	1047 	1002
f 1051 	978 	1050
f 1052 	978 	1051
f 1018 	978 	1052
f 954 	953 	1053
f 1052 	1054 	1018
f 1021 	1018 	1054
f 1010 	1033 	1002
f 1057 	1058 	1129
f 1054 	1052 	1051
f 1046 	984 	981
f 1053 	1068 	1056
f 1101 	963 	1040
f 1039 	1047 	1033
f 1055 	1073 	1045
f 1047 	1039 	1060
f 1061 	1054 	1051
f 1061 	1051 	1050
f 1059 	1045 	1073
f 1046 	981 	1076
f 1037 	1063 	1028
f 1061 	1097 	1054
f 1101 	1040 	1102
f 952 	1066 	953
f 1062 	1047 	1060
f 1102 	1040 	1070
f 1060 	1069 	1062
f 1066 	1068 	953
f 1068 	1053 	953
f 1095 	1065 	1064
f 1076 	1172 	1133
f 1044 	1061 	1049
f 1049 	1080 	1044
f 1063 	1070 	1040
f 1065 	1030 	1064
f 1073 	1056 	1068
f 1047 	1062 	999
f 1172 	1076 	981
f 1050 	1049 	1061
f 1075 	1159 	1071
f 1064 	1030 	1025
f 1072 	1078 	1075
f 1072 	1075 	1071
f 999 	1062 	951
f 1075 	1078 	1077
f 1028 	1040 	1197
f 1097 	1067 	1054
f 1065 	1095 	1066
f 943 	1035 	1028
f 1002 	1047 	999
f 1066 	1095 	1068
f 1095 	1082 	1068
f 1005 	1067 	1003
f 1060 	1121 	1069
f 1049 	978 	1080
f 1084 	1159 	1077
f 1084 	1086 	1159
f 1083 	1159 	1086
f 1083 	1088 	1159
f 1088 	1099 	1159
f 1106 	1159 	1099
f 1116 	1115 	943
f 1085 	1087 	1081
f 1085 	1081 	1079
f 951 	1062 	1143
f 1148 	1110 	1030
f 1115 	1113 	1091
f 1003 	1133 	1172
f 1090 	1082 	1089
f 1088 	1083 	1094
f 1093 	1094 	1083
f 1093 	1083 	1086
f 1115 	1091 	1035
f 1214 	1209 	1044
f 1035 	1100 	1037
f 1100 	1157 	1037
f 1007 	1101 	985
f 1082 	1095 	1089
f 985 	1101 	986
f 1102 	986 	1101
f 1102 	987 	986
f 1099 	1094 	1171
f 1088 	1094 	1099
f 1035 	1091 	1103
f 1035 	1103 	1100
f 1082 	1090 	1173
f 1107 	1098 	1096
f 1133 	1067 	1097
f 1156 	1163 	1037
f 1110 	1025 	1030
f 1108 	1104 	1079
f 1163 	1071 	1037
f 1110 	1130 	1096
f 1171 	1109 	1106
f 1171 	1106 	1099
f 1110 	1096 	1025
f 1111 	1109 	1171
f 1023 	969 	1102
f 1081 	1108 	1079
f 1114 	1192 	1017
f 1103 	1091 	1113
f 1115 	1112 	1113
f 1115 	1116 	1112
f 1125 	1112 	1116
f 1095 	1064 	1089
f 1102 	1070 	1023
f 1104 	1108 	1117
f 1123 	1034 	1023
f 1118 	1034 	1123
f 1105 	1142 	1206
f 1034 	1118 	1060
f 1108 	1119 	1117
f 1121 	1118 	1120
f 1014 	1114 	1017
f 1057 	1129 	1112
f 1001 	1119 	988
f 1125 	1126 	1112
f 1035 	943 	1115
f 1121 	1060 	1118
f 1199 	1013 	1017
f 1001 	1117 	1119
f 1070 	1123 	1023
f 1150 	1113 	1122
f 1073 	1068 	1082
f 1093 	1086 	1084
f 1057 	1112 	1126
f 1110 	1148 	1151
f 1118 	1123 	1120
f 1126 	951 	1057
f 1058 	1057 	951
f 943 	951 	1126
f 1129 	1122 	1112
f 1120 	1159 	1121
f 1128 	981 	984
f 1107 	1096 	1130
f 1159 	1160 	1121
f 1129 	1124 	1122
f 943 	1125 	1116
f 1151 	1131 	1110
f 1105 	1169 	1139
f 1128 	1145 	981
f 1126 	1125 	943
f 1120 	1123 	1070
f 1026 	1089 	1064
f 1074 	1058 	951
f 1127 	1128 	1114
f 966 	996 	1090
f 1077 	1078 	1084
f 1093 	1084 	1078
f 1145 	1128 	1127
f 1143 	1177 	1167
f 1133 	1003 	1067
f 1134 	1178 	1143
f 1132 	1124 	1129
f 1153 	1127 	1014
f 1063 	1120 	1070
f 1026 	1080 	978
f 1143 	1135 	1134
f 1132 	970 	1213
f 941 	940 	1136
f 1136 	1038 	1148
f 1120 	1063 	1037
f 1136 	1148 	1030
f 1129 	1048 	1132
f 1037 	1159 	1120
f 1138 	941 	1136
f 1134 	1140 	1181
f 1153 	1137 	1127
f 1138 	952 	941
f 974 	982 	1093
f 1135 	1140 	1134
f 1030 	1138 	1136
f 1130 	1110 	1131
f 1030 	1065 	1138
f 1001 	1046 	1139
f 1127 	1137 	1145
f 1069 	1141 	1143
f 1144 	1143 	1149
f 1135 	1143 	1144
f 1143 	1062 	1069
f 1149 	1143 	1152
f 1046 	1076 	1139
f 1092 	1142 	1048
f 1160 	1069 	1121
f 1059 	1151 	1043
f 982 	1094 	1093
f 1142 	970 	1132
f 1160 	1141 	1069
f 1146 	1140 	1144
f 1066 	1138 	1065
f 1142 	1132 	1048
f 1147 	1107 	995
f 1135 	1144 	1140
f 1133 	970 	1076
f 970 	1139 	1076
f 1066 	952 	1138
f 1092 	1206 	1142
f 981 	1145 	1172
f 1141 	1152 	1143
f 1137 	1005 	1145
f 1141 	1111 	1152
f 1186 	1187 	1122
f 1145 	1005 	1172
f 1187 	1150 	1122
f 1151 	1041 	1042
f 1153 	1014 	976
f 1147 	1011 	1008
f 1112 	1122 	1113
f 1038 	1041 	1148
f 1151 	1148 	1041
f 1098 	1022 	1096
f 1203 	1022 	1193
f 1015 	992 	1008
f 1155 	1153 	998
f 1149 	1152 	1146
f 1144 	1149 	1146
f 1156 	1157 	1158
f 1113 	1158 	1157
f 1025 	1096 	1022
f 1187 	1154 	1150
f 1152 	1111 	1146
f 1013 	973 	950
f 993 	1155 	998
f 992 	1015 	1046
f 1042 	1043 	1151
f 1100 	1103 	1113
f 1100 	1113 	1157
f 1171 	1146 	1111
f 1154 	1158 	1150
f 1193 	1161 	1189
f 1059 	1131 	1151
f 1146 	950 	1140
f 949 	1140 	950
f 998 	1153 	976
f 1153 	1155 	1137
f 1171 	1175 	1146
f 1158 	1113 	1150
f 1162 	1131 	1059
f 1156 	1037 	1157
f 1161 	1193 	1098
f 1059 	1073 	1162
f 1075 	1077 	1159
f 1159 	1037 	1071
f 1164 	1162 	1073
f 1098 	1193 	1022
f 1000 	1140 	949
f 998 	1020 	993
f 1164 	1073 	1082
f 1158 	1072 	1156
f 1163 	1156 	1072
f 1165 	1189 	1161
f 1209 	1210 	1202
f 1106 	1109 	1159
f 1160 	1159 	1109
f 1165 	1168 	1189
f 1137 	993 	997
f 1155 	993 	1137
f 1109 	1111 	1160
f 1141 	1160 	1111
f 951 	1167 	1074
f 1169 	1176 	1158
f 1074 	1170 	1058
f 1129 	1058 	1170
f 1163 	1072 	1071
f 1098 	1168 	1165
f 1098 	1165 	1161
f 1078 	1158 	1176
f 1166 	1162 	1164
f 1078 	1072 	1158
f 1170 	1074 	1167
f 1189 	1168 	1174
f 1005 	1137 	997
f 1171 	1094 	1175
f 1173 	1166 	1164
f 1098 	1107 	1168
f 1174 	1168 	1107
f 1164 	1082 	1173
f 1178 	1179 	1143
f 1179 	1180 	1143
f 1177 	1143 	1180
f 1169 	1158 	1154
f 1013 	1175 	1014
f 1046 	1001 	992
f 1169 	1154 	1195
f 1176 	974 	1093
f 1090 	996 	1173
f 1181 	1178 	1134
f 1107 	1147 	1174
f 1097 	1202 	1213
f 1130 	1131 	1166
f 1005 	1003 	1172
f 1166 	1107 	1130
f 1174 	1147 	1008
f 1174 	1008 	1189
f 1044 	1202 	1061
f 1166 	1131 	1162
f 1182 	1183 	995
f 1182 	995 	1184
f 1061 	1202 	1097
f 1181 	1185 	1179
f 1205 	995 	1204
f 1180 	1179 	1185
f 1173 	995 	1166
f 977 	1108 	1081
f 950 	1175 	1013
f 1176 	1093 	1078
f 995 	1173 	996
f 1179 	1178 	1181
f 1122 	1124 	1186
f 1205 	1198 	995
f 995 	1190 	1184
f 977 	1191 	1189
f 1188 	1189 	1191
f 1079 	1104 	1187
f 995 	1107 	1166
f 1191 	977 	1081
f 1182 	1184 	984
f 1193 	1189 	1188
f 1207 	1203 	1188
f 1187 	1186 	1079
f 1189 	992 	977
f 1105 	1176 	1169
f 1192 	984 	1184
f 974 	1176 	1206
f 1187 	1104 	1117
f 1011 	1147 	995
f 1000 	1181 	1140
f 1192 	1184 	1190
f 1008 	992 	1189
f 950 	973 	1196
f 1206 	1176 	1105
f 1187 	1195 	1154
f 1006 	1048 	1181
f 943 	1028 	1197
f 1032 	1212 	966
f 1206 	1004 	974
f 1196 	949 	950
f 1087 	1194 	1081
f 1197 	951 	943
f 1187 	1117 	1195
f 1190 	995 	1198
f 1000 	1006 	1181
f 955 	1197 	1200
f 1081 	1194 	1191
f 996 	966 	1212
f 1027 	1021 	1199
f 1197 	955 	951
f 1201 	1085 	1186
f 1079 	1186 	1085
f 1197 	964 	1200
f 1193 	1188 	1203
f 1017 	1009 	1199
f 964 	1197 	1040
f 1009 	1192 	1198
f 1198 	1192 	1190
f 1194 	1202 	1191
f 1167 	1177 	1170
f 963 	1101 	1007
f 1201 	1186 	1124
f 1196 	973 	1199
f 1169 	1195 	1117
f 1199 	1021 	1208
f 1180 	1185 	1177
f 1170 	1177 	1185
f 1010 	963 	1007
f 1188 	1202 	1210
f 1021 	980 	1208
f 963 	1010 	1002
f 1199 	1208 	1196
f 1001 	1169 	1117
f 1029 	1004 	1092
f 1202 	1188 	1191
f 1188 	1210 	1211
f 1188 	1211 	1207
f 1204 	996 	1212
f 955 	1200 	964
f 1132 	1213 	1085
f 1201 	1132 	1085
f 1048 	1129 	1185
f 1204 	1009 	1205
f 1198 	1205 	1009
f 1132 	1201 	1124
f 1209 	1026 	1210
f 1210 	1026 	1211
f 1196 	1208 	972
f 1206 	1092 	1004
f 1080 	1026 	1214
f 1048 	1185 	1181
f 1204 	1212 	1009
f 991 	994 	1196
f 994 	949 	1196
f 1001 	1139 	1169
f 991 	1196 	972
f 1203 	1207 	1022
f 1185 	1129 	1170
f 1022 	1207 	1211
f 1175 	1094 	983
f 1209 	1214 	1026
f 1059 	1043 	961
f 965 	961 	1043
f 1067 	980 	1054
f 961 	968 	1215
f 950 	1146 	1175
f 1202 	1044 	1209
f 1032 	1027 	1212
f 1059 	961 	1045
f 1215 	1045 	961
f 1080 	1214 	1044
f 982 	983 	1094
f 1043 	1045 	1215
f 1043 	1215 	962
f 1043 	962 	965
f 1092 	1048 	1006
f 1017 	1192 	1009
f 980 	1021 	1054
f 1215 	968 	1055
f 1073 	1055 	968
f 968 	967 	1056
f 968 	1056 	1073
f 1014 	1175 	983
f 1029 	1092 	1006
f 1055 	1056 	1215
f 962 	1215 	1056
f 962 	1056 	967
f 1027 	1199 	1009
f 1202 	1194 	1213
f 1128 	984 	1192
f 1056 	1055 	1053
f 1055 	1043 	1053
f 1045 	1043 	1055
f 954 	1053 	1043
f 1042 	1041 	1043
f 954 	1043 	1041
f 954 	1041 	1038
f 954 	1038 	940
f 954 	940 	939
f 1213 	1194 	1087
f 1192 	1114 	1128
f 978 	966 	1090
f 1213 	1087 	1085
f 984 	1015 	1183
f 1090 	1089 	978
f 1089 	1026 	978
f 1183 	1182 	984
f 1139 	970 	1105
f 1142 	1105 	970
f 1097 	970 	1133
f 1097 	1213 	970
f 1009 	1212 	1027
# 558 faces

 #end of obj_3

