# Object Export From Tinkercad Server 2015

mtllib obj.mtl

o obj_0
v -1.6549 		0.1314 		0.1771
v -1.6419 		0.1534 		0.1771
v -1.6490 		0.1535 		0.1771
v -1.6623 		0.1316 		0.1771
v -1.8873 		-0.1682 		0.0481
v -1.9156 		-0.1866 		0.0361
v -1.8266 		0.0429 		0.0371
v -1.7932 		-0.1620 		0.0191
v -1.8017 		-0.1181 		0.0416
v -1.7809 		-0.1075 		0.0291
v -1.7880 		-0.1130 		0.0191
v -1.7924 		-0.1157 		0.0191
v -1.8129 		-0.1279 		0.0191
v -1.7894 		-0.1092 		0.0191
v -1.7922 		-0.1091 		0.0191
v -1.8875 		-0.1791 		-0.0309
v -1.8026 		-0.1317 		-0.0379
v -1.9157 		-0.1936 		-0.0149
v -1.7925 		-0.1238 		-0.0390
v -1.7925 		-0.1241 		-0.0390
v -1.8025 		-0.1217 		0.0421
v -1.8053 		-0.1316 		-0.0379
v -1.6101 		0.0231 		0.0306
v 1.6226 		0.0216 		-0.1329
v -1.5433 		0.0233 		0.0312
v -1.7924 		-0.1201 		-0.0130
v 1.6791 		-0.1173 		-0.0579
v -1.7924 		-0.1205 		-0.0126
v -1.7936 		-0.1209 		-0.0108
v 1.9157 		-0.0304 		-0.0209
v 1.6823 		0.0656 		0.0171
v -1.5994 		0.0834 		-0.0163
v -1.7925 		-0.1215 		-0.0119
v -1.5959 		0.0831 		-0.0177
v 1.6209 		-0.0714 		0.0921
v -1.5939 		0.0836 		-0.0140
v -1.3307 		-0.1968 		0.0361
v -1.8269 		0.0279 		-0.0789
v -1.2817 		-0.1978 		0.0349
v -1.8767 		0.0357 		-0.0209
v -1.8277 		-0.0192 		-0.0429
v -1.3605 		-0.1293 		0.0421
v -1.7814 		-0.1052 		0.0294
v -1.8275 		-0.0111 		0.0151
v -1.8259 		0.0818 		-0.0559
v -1.7051 		0.1159 		0.1348
v -1.6955 		0.1116 		0.1503
v -1.3607 		-0.1393 		-0.0379
v -1.2807 		-0.1421 		-0.0225
v -1.2818 		-0.2034 		-0.0060
v -1.3308 		-0.2038 		-0.0149
v -1.7742 		-0.1070 		0.0251
v -1.8258 		0.0898 		0.0021
v -1.2958 		-0.1346 		0.0301
v -1.5978 		0.0780 		-0.0231
v -1.6008 		0.0153 		0.0275
v -1.5442 		0.0144 		0.0275
v -1.2806 		-0.1356 		0.0298
v 1.6571 		0.0211 		-0.0559
v 1.6817 		0.0286 		0.0019
v 1.6816 		0.0287 		0.0021
v 1.6558 		-0.0330 		-0.0789
v 1.6565 		-0.0179 		0.0371
v 1.6797 		-0.0803 		-0.0429
v 1.6555 		-0.0719 		0.0151
v 1.6798 		-0.0803 		-0.0427
# 66 vertices

g group_0_15506754

usemtl color_15506754
s 0

f 1 	2 	3
f 1 	3 	4
f 10 	11 	9
f 11 	12 	9
f 12 	13 	9
f 5 	9 	13
f 13 	26 	16
f 14 	15 	12
f 14 	12 	11
f 5 	21 	9
f 20 	22 	19
f 19 	22 	16
f 16 	22 	17
f 23 	25 	7
f 19 	16 	26
f 5 	13 	16
f 6 	5 	16
f 64 	66 	41
f 32 	34 	45
f 22 	20 	28
f 22 	28 	29
f 30 	27 	24
f 18 	6 	16
f 24 	31 	30
f 17 	22 	33
f 29 	33 	22
f 13 	8 	29
f 28 	26 	29
f 13 	29 	26
f 33 	29 	8
f 27 	30 	35
f 7 	40 	44
f 32 	53 	36
f 40 	38 	41
f 21 	37 	42
f 10 	43 	14
f 10 	14 	11
f 41 	44 	40
f 40 	45 	38
f 37 	21 	5
f 46 	47 	4
f 46 	4 	3
f 50 	51 	49
f 48 	49 	51
f 40 	53 	45
f 51 	16 	17
f 37 	54 	42
f 51 	18 	16
f 7 	53 	40
f 51 	17 	48
f 51 	37 	18
f 6 	37 	5
f 39 	37 	50
f 51 	50 	37
f 55 	34 	32
f 59 	62 	45
f 32 	36 	55
f 37 	6 	18
f 49 	48 	54
f 34 	55 	36
f 46 	23 	47
f 56 	47 	23
f 15 	14 	33
f 57 	65 	25
f 7 	25 	63
f 56 	57 	1
f 56 	1 	4
f 56 	4 	47
f 2 	1 	25
f 57 	25 	1
f 19 	26 	20
f 28 	20 	26
f 48 	17 	33
f 42 	48 	52
f 37 	39 	54
f 58 	54 	39
f 23 	44 	56
f 39 	50 	58
f 42 	52 	21
f 44 	57 	56
f 35 	30 	31
f 49 	58 	50
f 31 	24 	59
f 31 	59 	60
f 58 	49 	54
f 42 	54 	48
f 65 	57 	44
f 31 	60 	61
f 2 	23 	3
f 48 	33 	52
f 38 	45 	62
f 63 	25 	65
f 46 	3 	23
f 25 	23 	2
f 24 	62 	59
f 64 	41 	62
f 41 	38 	62
f 53 	61 	36
f 36 	59 	34
f 60 	36 	61
f 8 	12 	33
f 15 	33 	12
f 61 	63 	31
f 35 	31 	63
f 52 	43 	10
f 9 	21 	10
f 52 	10 	21
f 65 	41 	66
f 43 	52 	14
f 52 	33 	14
f 64 	62 	27
f 24 	27 	62
f 61 	53 	63
f 59 	36 	60
f 53 	32 	45
f 23 	7 	44
f 7 	63 	53
f 8 	13 	12
f 63 	65 	35
f 64 	27 	66
f 59 	45 	34
f 35 	65 	27
f 66 	27 	65
f 44 	41 	65
# 124 faces

 #end of obj_0

o obj_1
v 1.0905 		-0.6615 		-0.1326
v 0.7332 		-0.8726 		-0.0009
v 1.0968 		-0.6615 		-0.0201
v 0.7911 		-1.3057 		-0.0083
v 0.7698 		-0.8726 		0.0365
v 0.8950 		-1.3860 		-0.0460
v 0.8483 		-0.6615 		-0.1205
v 0.8959 		-1.3860 		-0.0297
v 0.6088 		-1.8886 		-0.1148
v 0.5986 		-1.9195 		-0.0122
v 0.6158 		-1.8886 		0.0120
v 0.8947 		-1.3852 		-0.0278
v 0.0742 		-1.9176 		0.0577
v -0.1975 		-1.9104 		0.0235
v -0.1927 		-1.9176 		0.0324
v 0.8943 		-1.3848 		-0.0271
v -0.3649 		-2.2885 		-0.0326
v -0.2007 		-1.9106 		-0.0410
v -0.2008 		-1.9106 		-0.0409
v -0.1982 		-1.9153 		-0.0470
v 0.5942 		-1.9195 		-0.0894
v -0.1994 		-1.9106 		-0.0150
v -0.2007 		-1.9106 		-0.0390
v 0.7273 		-0.8726 		-0.1144
v -0.2335 		-1.8595 		-0.0722
v 0.6577 		-0.8263 		-0.0196
v 0.6560 		-0.8309 		-0.0154
v 0.7911 		-1.3063 		-0.0081
v 0.6436 		-0.9466 		0.0153
v 0.6065 		-1.0215 		0.0127
v 0.5753 		-1.0215 		-0.0140
v 0.4189 		-1.5335 		0.0242
v 0.4189 		-1.5335 		0.0242
v 0.4154 		-1.5561 		0.0228
v 0.4154 		-1.5561 		0.0228
v -0.2545 		-2.2896 		-0.0710
v 0.6543 		-0.9105 		-0.1234
v 0.6001 		-1.0215 		-0.1140
v 0.3716 		-1.5342 		0.0051
v 0.6076 		-1.0215 		-0.1211
v 0.3716 		-1.5335 		0.0051
v 0.3866 		-1.7417 		0.0111
v 0.7008 		-1.0215 		-0.1264
v 0.3597 		-1.5335 		0.0345
v 0.3595 		-1.5285 		0.0350
v 0.3583 		-1.5335 		0.0380
v 0.7259 		-1.0215 		-0.1279
v 0.7194 		-1.0215 		-0.1305
v 0.7029 		-1.0215 		-0.1316
v 0.4159 		-1.5837 		-0.1045
v 0.4158 		-1.5679 		-0.1044
v 0.8513 		-1.5026 		0.0004
v 0.4158 		-1.5500 		-0.1043
v 0.4159 		-1.5476 		-0.1045
v 0.6139 		-1.0215 		0.0190
v 0.6426 		-1.0215 		0.0176
v 0.0333 		-1.9176 		0.0599
v 0.4151 		-1.5706 		-0.1026
v -0.0669 		-1.9176 		0.0653
v 0.5717 		-1.0215 		-0.0872
v 0.4151 		-1.5710 		-0.1025
v 0.3737 		-1.5508 		-0.0002
v 0.4041 		-1.6059 		-0.0753
v 1.0813 		-1.0525 		0.0211
v 1.0717 		-1.0525 		-0.1715
v 0.8543 		-0.6615 		-0.0070
v -0.2173 		-1.7915 		-0.0722
v 0.4056 		-1.6087 		-0.0790
v 0.4164 		-1.5335 		-0.1058
v 0.7569 		-1.7705 		0.0044
v 1.0717 		-0.6915 		-0.1715
v 0.8670 		-1.3982 		-0.0022
v 0.8858 		-1.3894 		-0.0196
v 0.3539 		-1.5335 		0.0355
v -0.3274 		-2.0736 		-0.0347
v 0.8667 		-1.3980 		-0.0022
v 0.4143 		-1.4715 		-0.1114
v 0.3910 		-1.4496 		-0.0777
v 1.0905 		-1.0826 		-0.1326
v -0.1976 		-1.8686 		-0.0890
v -0.1811 		-1.8006 		-0.0899
v 0.7509 		-1.7705 		-0.1221
v -0.1799 		-2.1025 		-0.0420
v 0.1463 		-2.0515 		-0.0913
v -0.0669 		-1.9100 		0.0653
v 0.1089 		-2.0426 		-0.1054
v -0.0003 		-1.9123 		-0.0996
v -0.0003 		-1.9031 		-0.0996
v -0.0003 		-1.8452 		-0.0996
v 0.7371 		-1.7415 		-0.0187
v 0.1254 		-1.9746 		-0.1063
v -0.0067 		-1.8399 		-0.0837
v -0.0066 		-1.9176 		-0.0839
v -0.0005 		-1.9176 		-0.0991
v -0.0606 		-1.9176 		0.0496
v -0.0606 		-1.8833 		0.0496
v 1.2179 		-0.8726 		-0.0262
v -0.0508 		-1.8423 		0.0256
v -0.0484 		-1.8349 		0.0195
v -0.0493 		-1.8357 		0.0217
v -0.2049 		-2.0855 		-0.0736
v -0.0467 		-1.8297 		0.0154
v 1.0968 		-1.0826 		-0.0201
v 0.1619 		-1.9835 		-0.0926
v 0.8122 		-1.5115 		-0.0229
v 1.1849 		-0.8726 		0.0155
v -0.1970 		-1.9176 		-0.0500
v -0.0605 		-1.8721 		0.0496
v -0.4242 		-2.3765 		-0.0619
v 1.1754 		-0.8726 		-0.1771
v 1.2120 		-0.8726 		-0.1396
v 1.0427 		-1.0826 		-0.0372
v 1.0387 		-1.0826 		-0.1100
v 1.0085 		-1.1533 		-0.0354
v 0.7328 		-1.7415 		-0.0960
v -0.3470 		-2.3205 		-0.0663
v -0.2988 		-1.9555 		-0.0361
v 0.8117 		-1.3235 		-0.0592
v -0.2295 		-2.3086 		-0.0394
v -0.2257 		-2.3086 		0.0258
v 0.7796 		-1.2976 		-0.0235
v -0.2845 		-1.9555 		-0.0368
v 0.7756 		-1.2977 		-0.0964
v 0.7768 		-1.2987 		-0.0983
v 0.4097 		-1.7236 		-0.0893
v 0.7759 		-1.2977 		-0.0904
v 0.7773 		-1.2977 		-0.0646
v 1.0194 		-1.0826 		-0.1291
v 1.0187 		-1.0815 		-0.1303
v 0.0957 		-1.7640 		-0.1064
v 0.7755 		-1.2977 		-0.0964
v 0.8385 		-1.9136 		-0.0241
v 0.8342 		-1.9136 		-0.1014
v 0.8195 		-1.8846 		0.0016
v -0.2625 		-1.9725 		-0.0699
v 0.7811 		-1.2991 		-0.0213
v 0.8125 		-1.8846 		-0.1252
v 0.1024 		-1.7895 		-0.1037
v 1.0164 		-1.0790 		-0.1337
v -0.3620 		-2.2885 		0.0322
v 0.0783 		-1.7895 		-0.1135
v 0.1172 		-2.0426 		0.0554
v 0.1337 		-1.9746 		0.0546
v -0.1879 		-1.9344 		-0.0739
v -0.1616 		-1.9776 		-0.0755
v -0.1879 		-1.9344 		-0.0739
v 1.0717 		-0.8726 		-0.1715
v 1.0199 		-0.7825 		-0.1687
v -0.1565 		-1.9860 		-0.0758
v 1.0255 		-1.0826 		-0.0162
v 1.0249 		-1.0817 		-0.0150
v 1.0199 		-0.9626 		-0.1687
v 0.1687 		-1.9835 		0.0374
v -0.0178 		-1.8050 		-0.0561
v -0.0204 		-1.8138 		-0.0498
v -0.0372 		-1.8240 		-0.0081
v -0.1943 		-1.9225 		-0.0565
v 0.7850 		-1.3355 		0.0017
v 0.6482 		-1.7436 		-0.0148
v 0.7846 		-1.3362 		0.0017
v 0.1343 		-1.9351 		-0.0561
v 0.1378 		-1.9351 		0.0117
v -0.0066 		-1.9614 		-0.0840
v 0.7829 		-1.3231 		-0.0069
v 0.6447 		-1.7436 		-0.0917
v -0.0202 		-2.0023 		-0.0502
v -0.0411 		-2.0168 		0.0015
v -0.0471 		-2.0210 		0.0164
v -0.0583 		-2.0038 		0.0440
v -0.0605 		-1.9999 		0.0495
v -0.0606 		-1.9822 		0.0496
v -0.2477 		-2.2896 		0.0590
v 0.1208 		-1.9447 		-0.0575
v 0.0918 		-1.9679 		0.0141
v 0.5466 		-1.5695 		-0.0863
v 0.5742 		-1.6186 		-0.0878
v 0.5494 		-1.5750 		-0.0933
v 0.1339 		-1.9351 		-0.0643
v -0.1921 		-1.9184 		0.0335
v 0.6510 		-1.3852 		-0.0030
v 0.1233 		-1.9426 		-0.0637
v 0.1275 		-1.9254 		-0.0740
v 0.5417 		-1.5599 		-0.0742
v 0.5768 		-1.6205 		-0.0546
v 1.0087 		-0.9416 		-0.1517
v -0.3235 		-2.0736 		0.0305
v 1.0087 		-0.8035 		-0.1517
v -0.0905 		-1.8846 		-0.0792
v -0.1477 		-1.9999 		-0.0764
v 0.5729 		-1.6169 		-0.0881
v -0.0837 		-1.8846 		0.0508
v -0.0743 		-1.8446 		0.0169
v 0.1240 		-1.9096 		0.0396
v 0.1185 		-1.9098 		0.0428
v 0.5313 		-1.5335 		0.0046
v 0.1365 		-1.9326 		0.0144
v 0.5765 		-1.6154 		-0.0106
v 0.5306 		-1.5335 		-0.0080
v 0.6557 		-1.4050 		-0.0148
v 0.6726 		-1.4182 		-0.0565
v 0.5793 		-1.6207 		-0.0116
v 0.6876 		-1.4294 		-0.0937
v 0.6890 		-1.4258 		-0.0971
v 1.0481 		-0.8726 		-0.1530
v 0.0783 		-1.9349 		0.0476
v -0.3492 		-2.0405 		-0.0661
v -0.4151 		-2.4055 		0.0356
v 0.5466 		-1.5699 		-0.0865
v 0.5749 		-1.6205 		-0.0876
v -0.4190 		-2.4055 		-0.0296
v -0.3340 		-1.9755 		-0.0665
v 0.7628 		-1.3216 		-0.0957
v -0.1257 		-2.0365 		-0.0773
v -0.1195 		-2.0455 		-0.0646
v 0.5490 		-1.5876 		-0.0922
v 1.0813 		-0.6915 		0.0211
v -0.4175 		-2.3765 		0.0681
v 1.0230 		-1.0788 		-0.0112
v 0.6272 		-1.7735 		-0.1149
v 1.0813 		-0.8726 		0.0211
v -0.3424 		-2.0405 		0.0639
v 1.0295 		-0.9626 		0.0239
v -0.3272 		-1.9755 		0.0636
v -0.1144 		-2.0455 		0.0396
v -0.1190 		-2.0370 		0.0519
v -0.2959 		-1.9555 		0.0288
v -0.3402 		-2.3205 		0.0637
v -0.1894 		-1.9224 		0.0387
v -0.1816 		-1.9338 		0.0553
v 1.0295 		-0.7825 		0.0239
v 0.9258 		-0.9626 		0.0295
v 0.7025 		-1.0331 		-0.1306
v 0.7008 		-1.0235 		-0.1264
v 0.6332 		-1.7735 		0.0115
v 0.9258 		-0.7825 		0.0295
v 0.6425 		-1.1695 		0.0178
v 0.6819 		-1.2261 		-0.0797
v 0.6876 		-1.2310 		-0.0936
v 0.9353 		-1.0786 		-0.0061
v 0.7009 		-1.0796 		-0.1266
v -0.2816 		-1.9555 		0.0281
v 0.5175 		-1.5655 		0.0176
v 0.6557 		-1.2042 		-0.0148
v 0.0742 		-1.7871 		0.0577
v 0.1654 		-1.7076 		0.0528
v 0.5121 		-1.5335 		0.0079
v 0.6945 		-1.2648 		-0.1108
v 0.6457 		-1.2345 		0.0100
v -0.2557 		-1.9725 		0.0601
v 0.9807 		-1.4536 		-0.1091
v 0.9851 		-1.4536 		-0.0318
v 0.6451 		-1.2360 		0.0114
v 0.5066 		-1.5335 		0.0127
v 0.5043 		-1.5417 		0.0183
v 0.9374 		-0.9416 		0.0115
v 1.0563 		-0.8726 		0.0056
v 0.9374 		-0.8035 		0.0115
v 0.6853 		-1.5335 		-0.0879
v 0.9505 		-1.4626 		-0.0048
v 0.6567 		-1.5335 		-0.0173
v -0.2267 		-1.8595 		0.0578
v 1.0169 		-0.9416 		0.0069
v -0.2102 		-1.7915 		0.0569
v 0.5767 		-1.6226 		-0.0113
v -0.1184 		-2.0359 		0.0524
v 0.0742 		-1.7895 		0.0577
v 0.0742 		-1.8298 		0.0577
v 0.0742 		-1.8768 		0.0577
v 0.5719 		-1.6226 		-0.0876
v 0.0757 		-1.8677 		0.0541
v 0.1034 		-1.8949 		0.0468
v 1.0169 		-0.8035 		0.0069
v 0.8635 		-1.0525 		-0.1607
v -0.1252 		-2.0356 		-0.0778
v 0.0776 		-1.9176 		0.0492
v 0.5082 		-1.5335 		0.0086
v 0.9130 		-1.0786 		-0.1290
v 0.1232 		-1.9176 		-0.0636
v 0.9282 		-1.0786 		-0.1297
v -0.0418 		-1.9835 		-0.0822
v 0.0736 		-1.7895 		0.0592
v 0.9068 		-1.0826 		-0.1234
v 0.5508 		-1.5335 		-0.0969
v 0.5287 		-1.5335 		-0.0421
v 0.9153 		-0.7825 		-0.1635
v 0.8635 		-0.8726 		-0.1607
v 0.5043 		-1.5335 		0.0183
v 0.8635 		-0.6915 		-0.1607
v 0.7599 		-0.8726 		-0.1551
v 0.5264 		-1.5335 		-0.0828
v 0.9153 		-0.9626 		-0.1635
v 0.5263 		-1.5335 		-0.0852
v 0.8483 		-1.0826 		-0.1205
v 0.5047 		-1.5335 		-0.0999
v -0.5165 		-1.9056 		0.0410
v -0.5204 		-1.9056 		-0.0242
v 0.5105 		-1.5655 		-0.1092
v 0.4923 		-1.5335 		-0.1083
v -0.1533 		-1.9776 		0.0546
v 0.6589 		-1.2474 		-0.1147
v 0.6450 		-1.2404 		-0.1163
v -0.1800 		-1.9338 		0.0560
v 0.8945 		-1.0826 		-0.1071
v 0.8905 		-1.0826 		-0.1026
v 0.9283 		-0.8035 		-0.1475
v -0.5490 		-2.0245 		-0.0228
v 0.7257 		-1.0457 		-0.1280
v -0.5451 		-2.0245 		0.0424
v -0.5969 		-2.2386 		0.0452
v 0.8731 		-1.0525 		0.0319
v -0.1727 		-1.8006 		0.0710
v -0.1892 		-1.8686 		0.0718
v 0.4657 		-1.7015 		-0.0055
v 0.4649 		-1.7015 		-0.0226
v -0.5708 		-1.9915 		-0.0543
v 0.6451 		-1.2415 		0.0109
v 0.8885 		-0.8726 		-0.1452
v -0.0605 		-1.7006 		0.0494
v 0.1522 		-2.0515 		0.0383
v 0.6413 		-1.2455 		-0.1161
v -0.0673 		-1.7006 		-0.0806
v -0.5177 		-1.9355 		-0.0576
v 0.8543 		-1.0826 		-0.0070
v 0.7187 		-1.0554 		-0.1276
v 0.4617 		-1.7011 		-0.0814
v 0.4617 		-1.7011 		-0.0818
v 0.9200 		-1.0786 		-0.0053
v 0.4632 		-1.7013 		-0.0561
v 0.9131 		-1.0826 		-0.0102
v 0.0034 		-2.1425 		0.0461
v 0.9283 		-0.9416 		-0.1475
v -0.0034 		-2.1425 		-0.0839
v -0.0548 		-2.0896 		0.0647
v 0.5903 		-1.3246 		0.0136
v 0.0126 		-2.1066 		0.0606
v -0.0007 		-1.7535 		0.0617
v 0.5872 		-1.3225 		0.0138
v -0.0691 		-1.7366 		0.0654
v 0.0043 		-2.1066 		-0.1002
v 0.8942 		-1.0826 		-0.0290
v 0.8731 		-0.6915 		0.0319
v 0.8986 		-1.0826 		-0.0249
v -0.6976 		-2.2035 		-0.0473
v 0.0069 		-1.7166 		0.0454
v 0.5833 		-1.3246 		-0.1132
v 0.5821 		-1.3237 		-0.1132
v -0.5640 		-1.9915 		0.0757
v 0.8935 		-1.0826 		-0.0420
v -0.6356 		-2.2595 		-0.0513
v 0.0486 		-1.7895 		0.0447
v 0.0495 		-1.7869 		0.0433
v 0.0339 		-1.7634 		0.0173
v 0.0714 		-1.7895 		0.0579
v 0.8731 		-0.8726 		0.0319
v -0.5113 		-1.9355 		0.0733
v -0.6008 		-2.2386 		-0.0200
v -0.1761 		-2.1025 		0.0232
v -0.0091 		-1.7535 		-0.0991
v 0.6480 		-1.2375 		0.0108
v -0.0774 		-1.7366 		-0.0955
v 0.0426 		-1.7873 		-0.0861
v -0.0002 		-1.7166 		-0.0837
v 0.0427 		-1.7873 		-0.0860
v 0.0418 		-1.7895 		-0.0872
v -0.7225 		-2.2085 		0.0516
v -0.7254 		-2.2085 		-0.0132
v 0.8967 		-0.8726 		0.0134
v -0.0646 		-2.1265 		0.0489
v -0.0708 		-2.1265 		-0.0798
v 0.8919 		-1.3860 		-0.1025
v -0.6707 		-1.9936 		0.0488
v -0.6736 		-1.9936 		-0.0160
v 0.8905 		-1.3852 		-0.1043
v 0.3948 		-1.4496 		-0.0017
v -0.6444 		-2.0115 		0.0799
v 0.8905 		-1.3850 		-0.1043
v 0.0310 		-1.7659 		-0.0613
v 0.0298 		-1.7636 		-0.0586
v 0.0638 		-1.7895 		-0.1030
v -0.6512 		-2.0115 		-0.0501
v -0.6909 		-2.2035 		0.0827
v 0.4615 		-1.7008 		-0.0821
v 0.4640 		-1.6899 		-0.0888
v -0.1092 		-2.0588 		-0.0198
v -0.1073 		-2.0591 		0.0183
v 0.4850 		-1.5335 		0.0127
v -0.1105 		-2.0588 		-0.0456
v 0.4790 		-1.5335 		-0.1016
v 0.4301 		-1.5335 		-0.1049
v 0.4268 		-1.5335 		-0.1051
v -0.1174 		-2.0487 		-0.0602
v 0.4211 		-1.4715 		0.0294
v -0.6283 		-2.2595 		0.0800
v 0.4689 		-1.6901 		0.0014
v 0.4657 		-1.7006 		-0.0047
v 0.4655 		-1.7013 		-0.0051
v 0.0906 		-1.7895 		-0.1045
v 0.1169 		-1.9094 		-0.0901
v -0.6265 		-2.3616 		0.0462
v 0.1118 		-1.9094 		-0.0924
v 0.4438 		-1.6026 		0.0213
v 0.1166 		-1.9094 		-0.0903
v 0.1223 		-1.9176 		-0.0819
v -0.6307 		-2.3616 		-0.0181
v -0.1072 		-2.0591 		0.0195
v -0.1124 		-2.0492 		0.0344
v 0.4315 		-1.5335 		0.0220
v 0.4155 		-1.5561 		0.0228
v -0.1073 		-2.0587 		0.0199
v -0.6150 		-2.3365 		-0.0516
v 0.4308 		-1.5335 		0.0221
v 0.0987 		-1.9176 		-0.0926
v -0.0326 		-1.8801 		0.0635
v -0.6082 		-2.3365 		0.0784
v 0.0386 		-1.8181 		0.0596
v 0.0413 		-1.8105 		0.0557
v -0.0631 		-2.0896 		-0.0962
v 0.4368 		-1.6026 		-0.1056
v 0.0304 		-1.8185 		-0.1012
v 0.0335 		-1.8107 		-0.0975
v 0.9435 		-1.4626 		-0.1317
v 0.0045 		-1.9058 		-0.0998
v 0.0479 		-1.8471 		-0.1022
v 0.0936 		-1.8917 		-0.0952
v 0.8443 		-1.5026 		-0.1264
v -0.1981 		-2.0855 		0.0564
v 0.8607 		-1.3982 		-0.1255
v 0.8810 		-1.3898 		-0.1108
v 0.7787 		-1.3355 		-0.1217
v 0.8604 		-1.3978 		-0.1255
v 0.7779 		-1.3370 		-0.1216
v 0.7771 		-1.3231 		-0.1127
v 0.8087 		-1.5115 		-0.0998
v -0.0019 		-1.9925 		0.0138
# 434 vertices

g group_1_6970902

usemtl color_6970902
s 0

f 86 	85 	84
f 90 	359 	68
f 86 	85 	91
f 224 	408 	94
f 92 	93 	95
f 96 	95 	93
f 93 	92 	97
f 81 	245 	327
f 98 	99 	100
f 98 	100 	101
f 96 	97 	95
f 92 	95 	97
f 74 	317 	72
f 99 	100 	105
f 99 	105 	107
f 86 	84 	85
f 85 	89 	91
f 74 	78 	317
f 103 	104 	106
f 317 	78 	82
f 89 	88 	91
f 110 	140 	108
f 110 	108 	100
f 317 	82 	139
f 89 	451 	85
f 111 	112 	110
f 109 	113 	114
f 109 	114 	115
f 451 	86 	84
f 119 	120 	117
f 116 	117 	120
f 80 	327 	88
f 124 	117 	127
f 119 	117 	124
f 109 	106 	122
f 106 	104 	122
f 121 	122 	104
f 126 	97 	104
f 97 	96 	104
f 121 	104 	96
f 88 	451 	89
f 102 	167 	149
f 73 	132 	67
f 84 	85 	451
f 81 	451 	80
f 88 	80 	451
f 69 	67 	132
f 129 	127 	128
f 127 	124 	128
f 134 	127 	129
f 124 	119 	128
f 119 	120 	128
f 120 	135 	128
f 105 	128 	135
f 107 	105 	135
f 78 	217 	82
f 112 	111 	140
f 440 	140 	111
f 384 	387 	133
f 145 	339 	131
f 139 	138 	325
f 142 	325 	138
f 135 	196 	143
f 110 	112 	140
f 226 	425 	142
f 155 	158 	154
f 423 	186 	149
f 156 	118 	171
f 160 	153 	159
f 159 	154 	158
f 154 	159 	153
f 136 	118 	156
f 162 	151 	161
f 161 	151 	125
f 170 	152 	157
f 146 	91 	147
f 451 	423 	450
f 149 	450 	423
f 150 	152 	170
f 164 	165 	166
f 149 	453 	450
f 91 	133 	147
f 118 	400 	171
f 258 	81 	80
f 457 	453 	149
f 182 	201 	167
f 84 	254 	85
f 86 	254 	84
f 173 	254 	86
f 162 	174 	164
f 221 	222 	85
f 212 	254 	223
f 179 	145 	178
f 169 	178 	145
f 222 	258 	85
f 258 	80 	88
f 181 	491 	148
f 67 	177 	137
f 268 	171 	266
f 70 	184 	94
f 180 	179 	178
f 177 	145 	131
f 464 	170 	468
f 187 	414 	193
f 156 	171 	181
f 145 	194 	195
f 195 	205 	145
f 172 	130 	163
f 184 	70 	187
f 184 	187 	193
f 182 	102 	175
f 163 	130 	169
f 145 	179 	194
f 143 	196 	144
f 445 	429 	196
f 182 	167 	102
f 189 	304 	197
f 190 	304 	189
f 303 	193 	304
f 177 	67 	163
f 195 	194 	439
f 179 	436 	194
f 197 	304 	192
f 102 	149 	185
f 163 	145 	177
f 83 	188 	201
f 184 	202 	94
f 163 	67 	69
f 120 	196 	135
f 204 	196 	191
f 127 	191 	196
f 188 	223 	201
f 88 	89 	188
f 120 	119 	196
f 119 	124 	196
f 127 	196 	124
f 339 	145 	205
f 145 	163 	169
f 200 	76 	198
f 207 	196 	204
f 201 	182 	83
f 439 	442 	195
f 201 	210 	211
f 201 	212 	210
f 202 	184 	193
f 137 	176 	214
f 215 	167 	211
f 255 	167 	215
f 214 	176 	213
f 217 	216 	130
f 169 	130 	216
f 178 	169 	216
f 294 	245 	307
f 131 	218 	176
f 213 	176 	218
f 155 	220 	158
f 221 	158 	220
f 148 	203 	75
f 307 	80 	88
f 219 	209 	208
f 83 	422 	206
f 222 	221 	220
f 498 	313 	190
f 142 	224 	226
f 201 	223 	212
f 222 	165 	168
f 228 	219 	227
f 262 	219 	228
f 170 	227 	219
f 202 	230 	94
f 224 	94 	230
f 224 	230 	226
f 176 	177 	131
f 88 	188 	307
f 230 	425 	226
f 325 	142 	425
f 237 	161 	233
f 234 	235 	233
f 235 	237 	233
f 236 	237 	235
f 232 	233 	161
f 229 	232 	161
f 159 	229 	161
f 210 	91 	211
f 156 	181 	231
f 227 	239 	228
f 240 	228 	239
f 156 	231 	225
f 212 	211 	210
f 382 	400 	118
f 125 	151 	378
f 377 	378 	151
f 227 	170 	244
f 241 	250 	243
f 242 	250 	231
f 253 	214 	213
f 211 	223 	451
f 392 	391 	244
f 227 	244 	391
f 225 	231 	250
f 451 	450 	215
f 451 	215 	211
f 212 	223 	211
f 173 	451 	223
f 154 	146 	147
f 177 	176 	137
f 244 	247 	227
f 81 	307 	245
f 239 	227 	247
f 131 	357 	218
f 245 	294 	327
f 155 	154 	147
f 147 	424 	155
f 249 	250 	241
f 242 	243 	250
f 294 	451 	245
f 81 	245 	451
f 248 	191 	244
f 469 	191 	248
f 159 	158 	254
f 248 	247 	244
f 340 	167 	255
f 174 	162 	257
f 256 	243 	242
f 255 	215 	483
f 91 	483 	215
f 162 	161 	257
f 334 	79 	209
f 215 	279 	255
f 231 	181 	285
f 219 	337 	209
f 483 	91 	146
f 259 	260 	219
f 174 	257 	258
f 168 	165 	258
f 165 	164 	258
f 174 	258 	164
f 346 	254 	211
f 210 	211 	254
f 88 	89 	258
f 219 	262 	259
f 210 	254 	212
f 261 	263 	264
f 171 	246 	265
f 206 	293 	315
f 260 	259 	108
f 357 	251 	218
f 255 	346 	215
f 211 	215 	346
f 263 	225 	267
f 250 	267 	225
f 228 	108 	262
f 257 	245 	258
f 158 	221 	254
f 221 	85 	254
f 223 	254 	173
f 218 	251 	213
f 228 	240 	262
f 499 	268 	269
f 371 	253 	270
f 89 	85 	258
f 168 	258 	222
f 253 	213 	270
f 256 	250 	274
f 275 	250 	256
f 249 	274 	250
f 189 	197 	278
f 251 	270 	213
f 167 	279 	280
f 216 	217 	180
f 178 	216 	180
f 285 	181 	148
f 183 	141 	272
f 231 	363 	242
f 172 	282 	296
f 272 	277 	183
f 217 	130 	284
f 307 	315 	294
f 163 	69 	282
f 278 	197 	192
f 280 	279 	435
f 256 	363 	281
f 242 	363 	256
f 282 	69 	132
f 192 	189 	278
f 172 	163 	282
f 307 	83 	206
f 256 	274 	281
f 279 	215 	280
f 148 	75 	285
f 171 	265 	266
f 286 	288 	172
f 368 	315 	365
f 288 	297 	130
f 130 	172 	288
f 295 	294 	315
f 289 	287 	292
f 298 	299 	115
f 109 	115 	299
f 434 	291 	290
f 296 	286 	172
f 252 	292 	287
f 282 	301 	296
f 300 	156 	225
f 300 	136 	156
f 318 	314 	302
f 304 	306 	303
f 302 	309 	306
f 292 	252 	141
f 276 	185 	273
f 186 	273 	185
f 292 	141 	183
f 122 	302 	306
f 122 	306 	299
f 175 	102 	276
f 284 	130 	305
f 393 	305 	130
f 225 	308 	300
f 295 	291 	294
f 290 	294 	291
f 290 	472 	294
f 122 	299 	109
f 102 	185 	276
f 240 	271 	260
f 262 	240 	259
f 260 	259 	240
f 303 	306 	309
f 238 	283 	273
f 140 	440 	311
f 440 	418 	311
f 188 	83 	307
f 261 	312 	263
f 304 	313 	306
f 263 	308 	225
f 206 	315 	307
f 199 	316 	198
f 238 	273 	186
f 309 	302 	314
f 436 	179 	180
f 78 	180 	217
f 319 	320 	312
f 320 	308 	312
f 263 	312 	308
f 293 	283 	238
f 264 	263 	312
f 317 	200 	198
f 288 	286 	328
f 325 	200 	317
f 328 	286 	322
f 246 	326 	265
f 324 	268 	326
f 288 	321 	297
f 91 	88 	327
f 80 	81 	327
f 329 	91 	327
f 328 	321 	288
f 265 	326 	266
f 139 	325 	317
f 234 	472 	235
f 91 	329 	133
f 200 	325 	136
f 269 	268 	324
f 118 	136 	325
f 434 	399 	291
f 333 	311 	332
f 310 	332 	311
f 378 	377 	327
f 267 	250 	330
f 275 	335 	250
f 391 	394 	335
f 108 	140 	311
f 108 	311 	333
f 108 	333 	336
f 108 	336 	337
f 108 	337 	260
f 439 	194 	436
f 291 	331 	290
f 235 	290 	331
f 235 	331 	236
f 420 	297 	321
f 336 	334 	337
f 334 	209 	337
f 323 	296 	301
f 266 	326 	268
f 260 	337 	219
f 320 	467 	308
f 272 	141 	372
f 259 	260 	337
f 338 	322 	286
f 340 	483 	279
f 338 	286 	296
f 271 	341 	260
f 337 	260 	341
f 336 	337 	341
f 296 	323 	338
f 267 	330 	263
f 330 	452 	263
f 312 	263 	342
f 167 	340 	279
f 443 	429 	262
f 227 	228 	344
f 248 	244 	344
f 244 	227 	344
f 228 	262 	429
f 345 	496 	343
f 346 	340 	280
f 279 	280 	340
f 262 	259 	443
f 292 	361 	289
f 496 	345 	205
f 275 	256 	335
f 335 	256 	281
f 310 	347 	332
f 333 	334 	336
f 243 	349 	241
f 249 	241 	349
f 249 	349 	350
f 346 	232 	229
f 79 	334 	341
f 336 	341 	334
f 274 	249 	241
f 122 	121 	302
f 355 	354 	351
f 353 	320 	319
f 109 	299 	106
f 299 	306 	106
f 488 	152 	154
f 93 	440 	96
f 248 	344 	247
f 341 	271 	344
f 239 	344 	240
f 247 	344 	239
f 126 	144 	97
f 93 	97 	440
f 351 	352 	355
f 357 	355 	352
f 356 	358 	249
f 241 	249 	358
f 343 	339 	345
f 343 	348 	339
f 256 	281 	243
f 205 	345 	339
f 357 	339 	355
f 358 	360 	241
f 271 	240 	344
f 249 	350 	356
f 255 	483 	340
f 357 	131 	339
f 359 	339 	348
f 277 	272 	388
f 354 	137 	351
f 349 	243 	360
f 360 	243 	281
f 255 	279 	340
f 214 	351 	137
f 103 	143 	104
f 348 	369 	359
f 214 	253 	351
f 364 	360 	363
f 360 	281 	363
f 366 	367 	306
f 313 	366 	306
f 103 	106 	143
f 295 	315 	368
f 498 	497 	366
f 67 	137 	354
f 327 	368 	399
f 399 	365 	331
f 274 	241 	360
f 281 	274 	360
f 365 	399 	368
f 386 	306 	367
f 327 	295 	368
f 368 	365 	295
f 291 	295 	365
f 331 	291 	365
f 363 	231 	285
f 366 	313 	498
f 293 	206 	375
f 371 	270 	383
f 159 	254 	229
f 346 	229 	254
f 383 	270 	397
f 459 	293 	375
f 255 	340 	346
f 383 	352 	371
f 237 	236 	365
f 331 	365 	236
f 369 	370 	359
f 369 	348 	495
f 495 	498 	369
f 368 	257 	365
f 257 	161 	365
f 237 	365 	161
f 440 	458 	96
f 182 	415 	422
f 414 	359 	370
f 292 	362 	361
f 422 	375 	206
f 257 	294 	245
f 81 	258 	245
f 351 	371 	352
f 113 	373 	114
f 257 	368 	294
f 295 	294 	368
f 253 	371 	351
f 354 	73 	67
f 372 	141 	374
f 295 	327 	294
f 143 	106 	306
f 462 	379 	76
f 380 	76 	379
f 76 	380 	394
f 252 	287 	374
f 393 	395 	224
f 391 	87 	394
f 374 	375 	372
f 357 	352 	397
f 406 	70 	408
f 252 	374 	141
f 227 	380 	228
f 379 	228 	380
f 329 	327 	377
f 187 	70 	406
f 94 	408 	70
f 425 	318 	382
f 302 	403 	318
f 272 	372 	381
f 370 	190 	189
f 438 	361 	362
f 192 	193 	414
f 414 	187 	406
f 327 	399 	378
f 414 	370 	192
f 189 	192 	370
f 380 	379 	330
f 352 	383 	397
f 130 	376 	389
f 73 	354 	90
f 150 	385 	398
f 385 	219 	208
f 298 	390 	299
f 76 	394 	87
f 132 	73 	68
f 90 	68 	73
f 224 	142 	393
f 219 	150 	170
f 392 	87 	391
f 219 	385 	150
f 397 	270 	251
f 408 	224 	395
f 388 	272 	381
f 380 	227 	394
f 394 	227 	391
f 398 	385 	396
f 130 	389 	393
f 393 	389 	395
f 251 	357 	397
f 373 	390 	298
f 115 	114 	298
f 373 	113 	299
f 390 	373 	299
f 391 	335 	392
f 440 	97 	144
f 378 	399 	208
f 403 	400 	382
f 399 	401 	208
f 377 	402 	404
f 277 	388 	362
f 171 	400 	246
f 403 	246 	400
f 373 	298 	114
f 277 	362 	183
f 109 	299 	113
f 152 	150 	405
f 382 	318 	403
f 150 	398 	405
f 68 	359 	389
f 362 	292 	183
f 406 	408 	389
f 395 	389 	408
f 326 	246 	261
f 329 	404 	384
f 301 	282 	407
f 410 	384 	404
f 302 	458 	403
f 387 	384 	410
f 132 	407 	282
f 402 	410 	404
f 132 	68 	407
f 329 	377 	404
f 412 	386 	411
f 359 	414 	389
f 406 	389 	414
f 417 	402 	416
f 410 	402 	417
f 482 	416 	402
f 376 	130 	297
f 428 	387 	410
f 409 	415 	476
f 297 	71 	376
f 412 	411 	269
f 499 	269 	411
f 71 	68 	376
f 410 	417 	418
f 444 	428 	418
f 410 	418 	428
f 413 	375 	374
f 192 	304 	193
f 310 	419 	347
f 297 	420 	71
f 287 	413 	374
f 349 	360 	412
f 386 	412 	306
f 193 	303 	202
f 415 	409 	381
f 310 	311 	417
f 418 	417 	311
f 412 	269 	349
f 309 	202 	303
f 71 	301 	407
f 416 	419 	417
f 419 	310 	417
f 324 	349 	269
f 304 	190 	313
f 301 	71 	420
f 401 	396 	385
f 401 	385 	208
f 433 	321 	328
f 416 	482 	166
f 485 	155 	424
f 186 	423 	238
f 230 	202 	314
f 309 	314 	202
f 185 	149 	186
f 421 	289 	361
f 230 	314 	425
f 424 	147 	426
f 422 	415 	381
f 321 	433 	420
f 372 	422 	381
f 318 	425 	314
f 427 	424 	429
f 287 	289 	421
f 454 	143 	412
f 360 	454 	412
f 375 	422 	372
f 428 	429 	424
f 430 	424 	427
f 382 	118 	425
f 325 	425 	118
f 426 	387 	428
f 323 	301 	420
f 421 	413 	287
f 426 	133 	387
f 322 	433 	328
f 434 	435 	396
f 317 	198 	316
f 424 	426 	428
f 246 	403 	261
f 452 	342 	403
f 338 	323 	433
f 322 	338 	433
f 111 	458 	440
f 442 	494 	205
f 205 	195 	442
f 443 	429 	428
f 68 	389 	376
f 443 	428 	444
f 433 	323 	420
f 343 	496 	495
f 445 	196 	207
f 205 	493 	496
f 486 	430 	445
f 121 	96 	458
f 250 	335 	394
f 394 	380 	250
f 330 	250 	380
f 104 	143 	144
f 429 	443 	196
f 427 	429 	445
f 444 	144 	443
f 144 	196 	443
f 359 	90 	339
f 285 	75 	484
f 396 	435 	398
f 443 	220 	429
f 354 	355 	90
f 104 	144 	126
f 448 	449 	87
f 480 	447 	431
f 220 	430 	427
f 427 	429 	220
f 220 	443 	444
f 355 	339 	90
f 87 	392 	448
f 437 	361 	438
f 438 	432 	437
f 431 	437 	432
f 75 	87 	484
f 446 	362 	388
f 441 	431 	447
f 449 	448 	191
f 392 	191 	448
f 71 	407 	68
f 342 	312 	403
f 312 	261 	403
f 452 	403 	458
f 418 	440 	144
f 444 	418 	144
f 449 	448 	335
f 392 	335 	448
f 220 	444 	418
f 362 	446 	438
f 492 	238 	423
f 99 	452 	458
f 441 	421 	361
f 427 	490 	429
f 437 	431 	441
f 441 	413 	421
f 430 	490 	427
f 143 	454 	455
f 143 	455 	456
f 143 	456 	135
f 432 	446 	409
f 331 	492 	291
f 290 	492 	472
f 259 	337 	417
f 437 	441 	361
f 432 	438 	446
f 446 	388 	381
f 306 	412 	143
f 464 	344 	429
f 280 	457 	167
f 149 	167 	457
f 409 	446 	381
f 76 	77 	467
f 444 	443 	418
f 417 	418 	443
f 259 	417 	443
f 100 	99 	110
f 111 	110 	99
f 459 	413 	447
f 76 	467 	460
f 462 	76 	461
f 460 	461 	76
f 201 	211 	167
f 332 	347 	419
f 302 	121 	458
f 441 	447 	413
f 458 	111 	99
f 207 	204 	463
f 207 	463 	445
f 461 	108 	462
f 460 	108 	461
f 379 	462 	108
f 259 	262 	108
f 379 	108 	228
f 434 	451 	450
f 453 	435 	450
f 434 	450 	435
f 461 	330 	462
f 324 	326 	349
f 350 	349 	326
f 261 	264 	326
f 350 	326 	264
f 457 	280 	435
f 83 	182 	422
f 459 	375 	413
f 379 	462 	330
f 330 	461 	460
f 457 	435 	453
f 312 	342 	319
f 465 	431 	432
f 480 	431 	465
f 300 	467 	77
f 464 	469 	170
f 457 	215 	450
f 453 	457 	450
f 280 	215 	457
f 264 	312 	350
f 342 	350 	312
f 471 	423 	451
f 356 	107 	358
f 471 	475 	423
f 472 	423 	475
f 473 	320 	353
f 474 	467 	473
f 320 	473 	467
f 300 	308 	467
f 468 	191 	464
f 466 	191 	468
f 319 	452 	353
f 465 	432 	470
f 291 	492 	290
f 474 	460 	467
f 469 	464 	191
f 392 	244 	191
f 476 	470 	432
f 475 	471 	434
f 473 	353 	452
f 342 	452 	319
f 101 	477 	98
f 468 	469 	464
f 471 	451 	434
f 473 	477 	474
f 101 	474 	477
f 452 	99 	98
f 452 	98 	477
f 452 	477 	473
f 468 	466 	469
f 478 	469 	466
f 476 	432 	409
f 342 	263 	452
f 479 	377 	151
f 364 	456 	455
f 455 	454 	364
f 475 	434 	472
f 101 	100 	474
f 460 	474 	100
f 472 	434 	290
f 377 	479 	402
f 481 	402 	479
f 364 	454 	360
f 460 	100 	108
f 402 	481 	482
f 472 	475 	294
f 475 	471 	294
f 451 	294 	471
f 452 	330 	460
f 452 	460 	100
f 452 	100 	99
f 481 	419 	482
f 470 	273 	465
f 416 	482 	419
f 363 	484 	364
f 285 	484 	363
f 456 	364 	484
f 116 	120 	484
f 456 	484 	120
f 470 	276 	273
f 117 	116 	484
f 435 	405 	398
f 476 	276 	470
f 417 	416 	166
f 418 	417 	166
f 162 	164 	479
f 482 	481 	166
f 164 	166 	481
f 479 	164 	481
f 151 	162 	479
f 107 	135 	456
f 107 	456 	455
f 107 	455 	454
f 107 	454 	360
f 107 	360 	358
f 350 	452 	356
f 342 	452 	350
f 99 	356 	452
f 107 	356 	99
f 127 	484 	449
f 117 	484 	127
f 87 	449 	484
f 435 	483 	405
f 343 	495 	348
f 476 	175 	276
f 191 	127 	449
f 424 	486 	485
f 480 	465 	273
f 370 	369 	190
f 424 	430 	486
f 455 	456 	120
f 119 	454 	120
f 273 	283 	480
f 317 	316 	72
f 436 	72 	316
f 445 	485 	486
f 449 	454 	127
f 182 	175 	415
f 436 	316 	439
f 430 	427 	445
f 442 	439 	316
f 175 	476 	415
f 449 	335 	454
f 455 	120 	454
f 124 	454 	119
f 124 	127 	454
f 199 	203 	316
f 220 	155 	485
f 220 	485 	486
f 430 	220 	486
f 454 	335 	281
f 454 	281 	360
f 480 	459 	447
f 401 	399 	434
f 461 	462 	128
f 166 	165 	418
f 165 	222 	418
f 220 	418 	222
f 487 	316 	203
f 401 	434 	396
f 283 	459 	480
f 481 	334 	333
f 332 	419 	333
f 481 	333 	419
f 461 	128 	460
f 100 	460 	128
f 100 	128 	105
f 293 	459 	283
f 471 	233 	451
f 450 	451 	233
f 316 	487 	494
f 127 	134 	449
f 448 	449 	134
f 148 	487 	203
f 445 	463 	489
f 445 	489 	485
f 462 	380 	128
f 129 	128 	380
f 379 	380 	462
f 394 	129 	380
f 491 	487 	148
f 472 	234 	475
f 471 	475 	234
f 129 	394 	134
f 394 	391 	134
f 448 	134 	391
f 448 	391 	392
f 154 	153 	488
f 233 	232 	450
f 453 	450 	232
f 87 	199 	76
f 198 	76 	199
f 191 	490 	204
f 466 	490 	191
f 463 	204 	490
f 463 	490 	489
f 331 	291 	399
f 170 	157 	490
f 77 	76 	200
f 486 	485 	489
f 486 	489 	490
f 87 	203 	199
f 235 	472 	290
f 490 	466 	170
f 87 	75 	203
f 435 	279 	483
f 136 	300 	77
f 280 	457 	346
f 466 	468 	490
f 468 	464 	490
f 486 	490 	430
f 464 	429 	490
f 453 	232 	457
f 346 	457 	232
f 337 	336 	482
f 481 	482 	336
f 334 	481 	336
f 200 	136 	77
f 493 	205 	494
f 238 	492 	293
f 416 	417 	337
f 482 	416 	337
f 496 	497 	495
f 489 	488 	490
f 488 	478 	490
f 153 	478 	488
f 160 	478 	153
f 466 	490 	478
f 423 	472 	492
f 469 	344 	464
f 344 	228 	429
f 331 	365 	492
f 315 	492 	365
f 190 	369 	498
f 497 	498 	495
f 492 	315 	293
f 487 	493 	494
f 329 	384 	133
f 496 	487 	497
f 367 	497 	487
f 487 	496 	493
f 469 	478 	344
f 367 	366 	497
f 426 	147 	133
f 386 	367 	491
f 341 	123 	79
f 344 	478 	341
f 316 	494 	442
f 80 	307 	81
f 85 	86 	188
f 86 	173 	188
f 223 	188 	173
f 85 	188 	89
f 487 	491 	367
f 215 	211 	91
f 212 	91 	210
f 125 	123 	161
f 173 	86 	91
f 212 	223 	91
f 173 	91 	223
f 451 	173 	86
f 159 	341 	478
f 160 	159 	478
f 161 	123 	159
f 123 	341 	159
f 491 	181 	499
f 411 	491 	499
f 491 	411 	386
f 152 	405 	483
f 181 	171 	499
f 499 	171 	268
f 248 	244 	170
f 170 	469 	248
f 74 	72 	180
f 72 	436 	180
f 157 	152 	488
f 146 	154 	152
f 78 	74 	180
f 152 	483 	146
f 138 	139 	284
f 139 	82 	284
f 284 	82 	217
f 157 	488 	489
f 284 	305 	142
f 284 	142 	138
f 489 	490 	157
f 305 	393 	142
f 466 	468 	170
f 500 	233 	471
f 378 	208 	125
f 209 	123 	208
f 500 	471 	234
f 233 	500 	234
f 125 	208 	123
f 123 	209 	79
# 1036 faces

 #end of obj_1

o obj_2
v 1.1453 		0.6616 		-0.1334
v 1.1506 		0.6616 		-0.0208
v 0.5651 		1.5655 		-0.1150
v 0.5470 		1.5335 		-0.1143
v 0.4818 		1.5335 		-0.1116
v 0.4705 		1.5486 		-0.1112
v 0.8382 		1.3363 		-0.0017
v 0.4705 		1.5837 		-0.1112
v 0.4914 		1.6025 		-0.1120
v 0.9030 		0.6616 		-0.1233
v 0.7554 		1.2775 		0.0039
v 1.2718 		0.8726 		-0.0258
v 0.9080 		0.6616 		-0.0098
v 0.4704 		1.5680 		-0.1111
v 0.8366 		1.3231 		-0.0103
v 0.4745 		1.4716 		0.0228
v -0.2002 		2.2896 		-0.0835
v -0.1387 		1.9184 		0.0216
v -0.1393 		1.9176 		0.0205
v 0.4710 		1.5335 		-0.1124
v 0.5592 		1.5335 		-0.1058
v 0.6034 		1.5877 		-0.0977
v 0.4696 		1.5711 		-0.1092
v -0.1336 		1.9344 		-0.0858
v 0.8887 		1.9136 		-0.1044
v 0.4710 		1.5335 		-0.1124
v 0.8924 		1.9136 		-0.0271
v -0.1072 		1.9775 		-0.0872
v 0.8349 		1.2992 		-0.0247
v 0.0865 		1.9176 		0.0500
v -0.1336 		1.9344 		-0.0858
v 0.4584 		1.6059 		-0.0821
v 0.4274 		1.5508 		-0.0072
v 0.5336 		1.5335 		-0.1077
v 0.8673 		1.8845 		-0.1284
v 0.5184 		1.6899 		-0.0950
v -0.1021 		1.9859 		-0.0875
v -0.0138 		1.9176 		0.0544
v -0.1429 		1.9176 		-0.0619
v 0.4252 		1.5343 		-0.0020
v 0.8731 		1.8845 		-0.0015
v 0.4252 		1.5335 		-0.0020
v -0.1401 		1.9226 		-0.0684
v 0.4599 		1.6088 		-0.0857
v 0.1775 		1.9176 		-0.0728
v 1.2306 		0.8726 		-0.1771
v 0.4131 		1.5335 		0.0274
v 0.1767 		1.9176 		-0.0911
v 0.4116 		1.5335 		0.0309
v 0.4129 		1.5285 		0.0279
v 1.2384 		0.8726 		0.0156
v 0.2008 		2.0516 		-0.1003
v 0.8315 		1.3139 		-0.1107
v 0.1532 		1.9176 		-0.1020
v 0.8510 		1.3137 		-0.1027
v 0.1309 		1.9176 		0.0397
v 0.1274 		1.9176 		0.0481
v 0.1634 		2.0426 		-0.1147
v 0.8300 		1.2977 		-0.0999
v 0.8300 		1.2977 		-0.0999
v 0.8300 		1.2977 		-0.0999
v 0.1800 		1.9746 		-0.1154
v 0.4973 		1.6025 		0.0149
v 0.2164 		1.9836 		-0.1014
v 0.4689 		1.5560 		0.0161
v 1.2669 		0.8726 		-0.1393
v 0.4850 		1.5335 		0.0155
v 0.5578 		1.5335 		0.0125
v 0.5578 		1.5417 		0.0125
v -0.0933 		2.0000 		-0.0879
v 0.5226 		1.6901 		-0.0047
v 0.4689 		1.5560 		0.0161
v 0.7046 		1.3852 		-0.0076
v -0.0073 		1.9176 		0.0388
v 0.0478 		1.9176 		-0.0942
v 0.0541 		1.9176 		-0.1094
v 1.0750 		0.7826 		-0.1701
v 0.5385 		1.5335 		0.0066
v 0.5618 		1.5335 		0.0028
v 1.1269 		0.8726 		-0.1724
v 1.0750 		0.9626 		-0.1701
v 0.5159 		1.7008 		-0.0883
v 0.1714 		1.9094 		-0.0994
v 0.1662 		1.9094 		-0.1017
v 0.5192 		1.7012 		-0.0113
v 0.5194 		1.7006 		-0.0109
v -0.1467 		1.9106 		-0.0529
v -0.1467 		1.9106 		-0.0530
v -0.1442 		1.9152 		-0.0590
v -0.1440 		1.9104 		0.0115
v -0.1466 		1.9106 		-0.0510
v -0.1456 		1.9106 		-0.0270
v 0.0850 		1.8184 		-0.1112
v 0.0543 		1.8452 		-0.1098
v -0.1792 		1.8596 		-0.0845
v 0.5174 		1.7012 		-0.0623
v 0.5187 		1.7016 		-0.0288
v 0.0880 		1.8108 		-0.1075
v 0.5194 		1.7016 		-0.0125
v 0.5194 		1.7016 		-0.0117
v 0.0962 		1.7896 		-0.0971
v 0.5161 		1.7012 		-0.0880
v 0.1184 		1.7896 		-0.1127
v -0.2734 		2.0736 		-0.0478
v 0.8056 		1.7706 		-0.1258
v 0.0363 		1.8051 		-0.0666
v 0.4724 		1.5335 		0.0176
v 1.0637 		0.8035 		-0.1531
v 0.0206 		1.8801 		0.0529
v 0.0917 		1.8182 		0.0497
v -0.0138 		1.9100 		0.0544
v 1.0637 		0.9416 		-0.1531
v 0.1503 		1.7639 		-0.1158
v 0.0945 		1.8106 		0.0458
v 0.1019 		1.7896 		0.0349
v 0.1245 		1.7896 		0.0482
v 0.1570 		1.7896 		-0.1131
v 0.0042 		1.8357 		0.0110
v 0.0026 		1.8424 		0.0149
v -0.1259 		2.1025 		-0.0538
v -0.0073 		1.8833 		0.0388
v 0.1329 		1.7896 		-0.1230
v 0.2055 		2.0516 		0.0294
v 0.8105 		1.7706 		0.0007
v 0.0165 		1.8241 		-0.0187
v 1.1031 		0.8726 		-0.1541
v 0.0051 		1.8350 		0.0089
v 0.4218 		1.7532 		0.0063
v 0.0543 		1.9032 		-0.1098
v 0.0590 		1.9059 		-0.1100
v 0.1025 		1.8472 		-0.1120
v 0.1452 		1.7896 		-0.1139
v 0.5827 		1.5335 		-0.0477
v 0.5844 		1.5335 		-0.0136
v 0.5850 		1.5335 		-0.0010
v 0.7105 		1.5335 		-0.0218
v 0.7397 		1.5335 		-0.0922
v 0.6053 		1.5335 		-0.1023
v 0.0543 		1.9123 		-0.1098
v 0.5808 		1.5335 		-0.0884
v 0.1274 		1.7896 		0.0481
v 0.5807 		1.5335 		-0.0909
v 0.1274 		1.8298 		0.0481
v -0.1506 		2.0856 		-0.0857
v 0.1274 		1.8767 		0.0481
v 0.5601 		1.5335 		0.0068
v 0.1289 		1.8678 		0.0444
v -0.1630 		1.7915 		-0.0843
v 0.7873 		1.7416 		-0.0999
v -0.3617 		2.4055 		0.0217
v 0.7435 		1.4258 		-0.1013
v 0.7421 		1.4294 		-0.0980
v 1.1269 		0.6915 		-0.1724
v -0.3650 		2.4055 		-0.0435
v 0.7267 		1.4182 		-0.0609
v -0.3644 		2.3765 		0.0542
v 0.5657 		1.5335 		0.0021
v 0.8173 		1.3216 		-0.0993
v 0.8300 		1.2977 		-0.0998
v 0.7095 		1.4051 		-0.0193
v 0.7910 		1.7416 		-0.0226
v -0.1431 		1.8685 		-0.1010
v -0.2871 		2.3205 		0.0505
v 1.0390 		1.4536 		-0.0335
v 1.0353 		1.4536 		-0.1108
v 0.1481 		1.8917 		-0.1046
v 0.8303 		1.2977 		-0.0939
v 0.9792 		0.9626 		0.0273
v -0.1266 		1.8006 		-0.1017
v 0.9792 		0.7826 		0.0273
v 0.6486 		1.9196 		-0.0945
v 0.6523 		1.9196 		-0.0172
v 1.0041 		1.4626 		-0.0068
v 0.6634 		1.8885 		-0.1198
v 0.6693 		1.8885 		0.0072
v 0.9906 		1.2775 		-0.1156
v 0.0567 		2.1425 		0.0359
v 0.0510 		2.1425 		-0.0942
v 1.1269 		1.0526 		-0.1724
v 0.0479 		1.9613 		-0.0944
v 1.1347 		1.0526 		0.0203
v 0.0064 		2.0210 		0.0057
v 0.0125 		2.0168 		-0.0091
v 0.0339 		2.0023 		-0.0607
v 1.0829 		0.7826 		0.0226
v -0.0073 		1.9823 		0.0388
v -0.0073 		2.0000 		0.0387
v -0.0050 		2.0038 		0.0332
v 1.1347 		0.8726 		0.0203
v 1.1506 		1.0826 		-0.0208
v 1.0829 		0.9626 		0.0226
v 0.0477 		1.8399 		-0.0940
v 1.0705 		0.8035 		0.0055
v 1.1099 		0.8726 		0.0045
v 0.0337 		1.8138 		-0.0603
v 0.0588 		2.1065 		-0.1104
v 1.0705 		0.9416 		0.0055
v 1.1453 		1.0826 		-0.1334
v 0.9909 		0.8035 		0.0094
v 0.0068 		1.8298 		0.0047
v 0.9909 		0.9416 		0.0094
v -0.0073 		1.8721 		0.0388
v -0.0017 		2.0896 		0.0539
v 0.0658 		2.1065 		0.0505
v -0.3086 		2.2885 		0.0188
v 1.0933 		1.0826 		-0.1112
v 1.0967 		1.0826 		-0.0383
v -0.0610 		2.0455 		0.0283
v -0.0658 		2.0370 		0.0405
v 0.9186 		1.0526 		-0.1634
v 0.9830 		1.0786 		-0.1319
v 0.9678 		1.0786 		-0.1313
v -0.2949 		2.0406 		-0.0794
v 0.9615 		1.0826 		-0.1258
v 0.8599 		1.2775 		-0.1215
v -0.1360 		1.9224 		0.0268
v -0.2797 		1.9756 		-0.0796
v -0.1284 		1.9339 		0.0434
v 1.1347 		0.6915 		0.0203
v -0.1226 		2.1025 		0.0114
v 0.9186 		0.8726 		-0.1634
v 0.9704 		0.7826 		-0.1658
v 0.9030 		1.0826 		-0.1233
v 0.9186 		0.6915 		-0.1634
v 0.6992 		1.7435 		-0.0963
v -0.0653 		2.0455 		-0.0759
v -0.0713 		2.0365 		-0.0886
v 0.7020 		1.7435 		-0.0194
v 1.0793 		1.0826 		-0.0176
v 1.0787 		1.0817 		-0.0163
v -0.2893 		2.0406 		0.0506
v -0.2741 		1.9756 		0.0504
v 0.6039 		1.5751 		-0.0988
v -0.2424 		1.9556 		0.0159
v 0.6286 		1.6185 		-0.0931
v 0.6010 		1.5696 		-0.0918
v 0.9704 		0.9626 		-0.1658
v -0.0164 		2.1265 		-0.0907
v -0.1945 		2.2896 		0.0466
v -0.0113 		2.1265 		0.0380
v 0.8149 		0.8726 		-0.1588
v -0.0537 		2.0591 		0.0083
v -0.0537 		2.0591 		0.0071
v 0.9832 		0.8035 		-0.1497
v -0.0538 		2.0587 		0.0087
v -0.2281 		1.9556 		0.0153
v 0.9832 		0.9416 		-0.1497
v 0.9451 		1.0826 		-0.1051
v 0.9491 		1.0826 		-0.1095
v -0.2701 		2.0736 		0.0174
v -0.2025 		1.9726 		0.0476
v 1.0767 		1.0789 		-0.0125
v 0.7742 		1.0215 		-0.1345
v 0.7805 		1.0457 		-0.1319
v 0.7807 		1.0215 		-0.1318
v 0.0126 		1.9836 		-0.0928
v 0.9264 		1.0526 		0.0292
v 0.9737 		1.0787 		-0.0076
v 0.9435 		0.8726 		-0.1477
v -0.0590 		2.0492 		0.0232
v -0.0709 		2.0356 		-0.0891
v 0.9298 		1.1330 		-0.0222
v 0.9668 		1.0826 		-0.0125
v 1.0735 		1.0816 		-0.1317
v 1.0742 		1.0826 		-0.1304
v -0.0652 		2.0360 		0.0411
v -0.5732 		2.3616 		0.0304
v -0.5768 		2.3616 		-0.0339
v 0.9080 		1.0826 		-0.0098
v -0.0554 		2.0589 		-0.0310
v 1.0712 		1.0790 		-0.1351
v -0.0564 		2.0589 		-0.0568
v -0.5552 		2.3365 		0.0628
v -0.1735 		1.8596 		0.0455
v 0.7585 		1.0215 		-0.1307
v 0.7759 		1.0520 		-0.1317
v 0.7575 		1.0270 		-0.1353
v 0.7565 		1.0215 		-0.1329
v -0.1570 		1.7915 		0.0448
v -0.5608 		2.3365 		-0.0673
v 0.9890 		1.0786 		-0.0082
v 0.6310 		1.6206 		-0.0598
v -0.0632 		2.0487 		-0.0714
v 0.5960 		1.5600 		-0.0798
v 0.8231 		0.8726 		0.0330
v 0.7577 		1.0215 		-0.1357
v 0.9264 		0.8726 		0.0292
v 0.9525 		1.0826 		-0.0273
v 0.9481 		1.0826 		-0.0315
v 0.9464 		1.3861 		-0.1050
v 0.6274 		1.6170 		-0.0933
v 0.9451 		1.3852 		-0.1067
v 0.9451 		1.3851 		-0.1068
v 0.6302 		1.6155 		-0.0159
v 0.9475 		1.0826 		-0.0445
v 0.6331 		1.6206 		-0.0168
v -0.1001 		1.9777 		0.0430
v -0.1268 		1.9339 		0.0442
v 0.8359 		1.3022 		-0.1089
v 0.7095 		1.2043 		-0.0194
v 0.7363 		1.2262 		-0.0840
v 0.7421 		1.2310 		-0.0979
v 0.6011 		1.5699 		-0.0920
v 0.6293 		1.6204 		-0.0929
v 0.6989 		1.2356 		0.0063
v 0.6993 		1.2346 		0.0054
v 0.9983 		1.4626 		-0.1337
v 0.7015 		1.2377 		0.0062
v 0.6989 		1.2358 		0.0063
v 0.9503 		0.8726 		0.0109
v 0.6987 		1.2363 		0.0068
v 0.7492 		1.2648 		-0.1150
v 0.8990 		1.5026 		-0.1293
v 0.5710 		1.5655 		0.0119
v 0.6868 		1.7736 		0.0068
v 0.9155 		1.3982 		-0.1282
v 0.9357 		1.3898 		-0.1134
v 0.9152 		1.3979 		-0.1282
v 0.8334 		1.3356 		-0.1251
v 0.8326 		1.3371 		-0.1251
v 0.6818 		1.7736 		-0.1197
v -0.5436 		2.2386 		0.0297
v -0.0305 		1.8845 		0.0398
v 0.6960 		1.1695 		0.0132
v -0.0086 		2.0896 		-0.1070
v 0.8317 		1.3232 		-0.1161
v 0.7556 		1.0215 		-0.1306
v 0.7557 		1.0796 		-0.1308
v 0.6961 		1.0215 		0.0129
v -0.4918 		2.0246 		0.0273
v -0.4951 		2.0246 		-0.0379
v -0.0361 		1.8845 		-0.0902
v 0.7149 		0.9105 		0.0120
v -0.5166 		1.9916 		-0.0695
v -0.0208 		1.8445 		0.0060
v 0.7868 		0.8726 		-0.0048
v 0.7819 		0.8726 		-0.1183
v -0.1196 		1.8006 		0.0592
v -0.1362 		1.8685 		0.0599
v -0.6435 		2.2035 		-0.0636
v 0.8632 		1.5116 		-0.1030
v 0.9264 		0.6915 		0.0292
v -0.1449 		2.0856 		0.0444
v 0.1268 		1.7896 		0.0495
v 0.8780 		1.3335 		-0.0915
v 0.8780 		1.3337 		-0.0915
v -0.0072 		1.7006 		0.0386
v 0.6601 		1.0215 		0.0078
v 0.1869 		1.9746 		0.0455
v 0.6681 		1.0215 		0.0141
v -0.0129 		1.7006 		-0.0914
v 0.1704 		2.0426 		0.0462
v 0.9498 		1.3861 		-0.0321
v 0.9491 		1.3860 		-0.0485
v -0.5815 		2.2595 		-0.0672
v 0.0455 		1.7536 		-0.1095
v -0.0229 		1.7366 		-0.1064
v 0.9486 		1.3852 		-0.0303
v 0.2221 		1.9836 		0.0286
v 0.9482 		1.3849 		-0.0296
v -0.5469 		2.2386 		-0.0355
v 0.6304 		1.6225 		-0.0165
v 0.6263 		1.6225 		-0.0929
v 0.6380 		1.3246 		-0.1184
v 0.6368 		1.3237 		-0.1184
v -0.6716 		2.2085 		-0.0298
v 0.9049 		1.5026 		-0.0024
v -0.6692 		2.2085 		0.0350
v -0.4635 		1.9356 		-0.0724
v -0.6379 		2.2035 		0.0664
v 0.6439 		1.3246 		0.0085
v 0.6407 		1.3225 		0.0086
v 0.9207 		1.3982 		-0.0049
v 0.9396 		1.3895 		-0.0221
v 0.1885 		1.9352 		-0.0652
v 0.1881 		1.9350 		-0.0734
v 0.9203 		1.3980 		-0.0049
v 0.2389 		1.8988 		-0.0756
v 0.1750 		1.9447 		-0.0667
v 0.1775 		1.9426 		-0.0729
v -0.5753 		2.2595 		0.0642
v 0.1914 		1.9350 		0.0027
v 0.0542 		1.7166 		-0.0939
v -0.5110 		1.9916 		0.0605
v 0.1454 		1.9679 		0.0047
v 0.0971 		1.7873 		-0.0959
v 0.1773 		1.9097 		0.0304
v 0.1772 		1.9097 		0.0305
v 0.0852 		1.7660 		-0.0713
v 0.0840 		1.7637 		-0.0686
v -0.4582 		1.9356 		0.0586
v -0.4632 		1.9056 		0.0262
v -0.4665 		1.9056 		-0.0390
v 0.8660 		1.5116 		-0.0261
v -0.2448 		1.9556 		-0.0489
v 0.1718 		1.9098 		0.0336
v 0.1901 		1.9327 		0.0053
v 0.8659 		1.3236 		-0.0623
v -0.2305 		1.9556 		-0.0495
v 0.8301 		1.2975 		-0.0999
v 0.8333 		1.2980 		-0.0270
v 0.4485 		1.4496 		-0.0085
v 0.8304 		1.2975 		-0.0938
v -0.6174 		1.9935 		0.0327
v 0.8315 		1.2977 		-0.0681
v -0.6198 		1.9935 		-0.0322
v -0.5971 		2.0116 		-0.0660
v -0.2082 		1.9726 		-0.0825
v -0.5914 		2.0116 		0.0640
v 0.6547 		1.0215 		-0.1190
v 0.6261 		1.0215 		-0.0924
v 0.8386 		1.3356 		-0.0017
v 0.6615 		1.0215 		-0.1260
v 0.6292 		1.0215 		-0.0164
v 0.1316 		1.9350 		0.0380
v -0.0160 		1.7366 		0.0545
v 0.0524 		1.7536 		0.0514
v 0.1818 		1.9253 		-0.0832
v 0.0602 		1.7166 		0.0352
v 0.1028 		1.7869 		0.0335
v 0.1027 		1.7872 		0.0336
v 0.4073 		1.5335 		0.0284
v 0.4454 		1.4496 		-0.0845
v 0.4690 		1.4716 		-0.1180
v 0.2186 		1.7076 		0.0440
v 0.1274 		1.7871 		0.0481
v 0.1567 		1.8950 		0.0374
v 0.0874 		1.7635 		0.0073
v 0.6996 		1.2405 		-0.1209
v 0.7135 		1.2474 		-0.1192
v 0.6959 		1.2456 		-0.1207
v 0.6986 		1.2416 		0.0063
v -0.3700 		2.3765 		-0.0759
v 0.0517 		1.9926 		0.0035
v -0.2927 		2.3205 		-0.0796
v -0.1722 		2.3086 		0.0136
v -0.1755 		2.3086 		-0.0516
v -0.3109 		2.2885 		-0.0460
# 438 vertices

g group_2_14528853

usemtl color_14528853
s 0

f 504 	505 	503
f 503 	505 	506
f 509 	503 	508
f 506 	508 	503
f 502 	513 	501
f 509 	508 	514
f 511 	515 	507
f 877 	511 	507
f 510 	501 	513
f 523 	536 	509
f 514 	523 	509
f 506 	514 	508
f 506 	505 	520
f 506 	523 	514
f 520 	526 	506
f 523 	506 	526
f 521 	522 	534
f 528 	644 	537
f 538 	530 	852
f 540 	542 	526
f 523 	533 	526
f 544 	532 	523
f 532 	533 	523
f 540 	526 	533
f 515 	806 	529
f 543 	908 	531
f 547 	549 	550
f 537 	595 	528
f 524 	528 	595
f 802 	812 	553
f 826 	553 	812
f 802 	553 	555
f 548 	545 	554
f 527 	525 	672
f 671 	672 	525
f 525 	535 	671
f 512 	681 	551
f 672 	541 	527
f 524 	595 	531
f 559 	560 	561
f 672 	675 	541
f 743 	543 	528
f 523 	534 	536
f 863 	536 	534
f 534 	523 	526
f 531 	595 	543
f 543 	743 	539
f 531 	528 	543
f 524 	528 	531
f 743 	528 	537
f 727 	726 	537
f 558 	564 	562
f 558 	552 	564
f 563 	565 	567
f 568 	569 	567
f 563 	567 	569
f 569 	814 	563
f 557 	530 	556
f 565 	563 	571
f 672 	571 	563
f 575 	556 	530
f 538 	574 	530
f 570 	825 	537
f 501 	512 	502
f 570 	727 	537
f 574 	575 	530
f 512 	501 	566
f 628 	565 	571
f 575 	554 	556
f 576 	554 	575
f 545 	556 	554
f 571 	862 	578
f 571 	578 	567
f 571 	567 	565
f 862 	794 	578
f 528 	756 	537
f 580 	581 	546
f 832 	543 	539
f 582 	544 	536
f 523 	536 	544
f 543 	832 	531
f 585 	586 	533
f 577 	580 	546
f 587 	899 	588
f 581 	580 	612
f 519 	746 	590
f 580 	577 	608
f 565 	572 	533
f 540 	533 	572
f 571 	565 	533
f 586 	571 	533
f 554 	584 	548
f 584 	583 	548
f 746 	592 	590
f 598 	856 	593
f 532 	596 	597
f 532 	597 	599
f 532 	599 	600
f 532 	600 	585
f 532 	585 	533
f 601 	856 	598
f 588 	595 	587
f 589 	595 	588
f 602 	596 	582
f 544 	582 	596
f 544 	596 	532
f 593 	603 	598
f 601 	598 	603
f 587 	595 	591
f 595 	774 	592
f 588 	743 	587
f 606 	593 	594
f 601 	598 	606
f 598 	593 	606
f 584 	583 	536
f 614 	610 	917
f 917 	615 	614
f 807 	605 	535
f 616 	610 	614
f 589 	743 	588
f 924 	613 	526
f 523 	526 	613
f 536 	523 	613
f 536 	613 	617
f 617 	666 	536
f 590 	592 	774
f 519 	590 	774
f 613 	622 	617
f 621 	609 	619
f 611 	609 	621
f 609 	610 	619
f 618 	619 	610
f 618 	610 	614
f 615 	921 	618
f 614 	615 	618
f 937 	620 	517
f 591 	595 	592
f 540 	572 	607
f 540 	607 	542
f 587 	743 	591
f 627 	928 	625
f 618 	928 	627
f 606 	625 	928
f 607 	572 	547
f 572 	565 	547
f 565 	628 	547
f 592 	743 	590
f 519 	590 	743
f 592 	591 	743
f 631 	632 	603
f 631 	603 	593
f 626 	612 	580
f 635 	636 	634
f 633 	634 	636
f 637 	638 	636
f 633 	636 	638
f 620 	644 	517
f 639 	629 	630
f 589 	539 	595
f 539 	543 	595
f 608 	626 	580
f 616 	641 	643
f 645 	610 	643
f 616 	643 	610
f 566 	653 	546
f 675 	624 	541
f 610 	645 	647
f 610 	647 	614
f 566 	546 	679
f 539 	743 	589
f 521 	534 	504
f 505 	504 	534
f 526 	520 	505
f 526 	505 	534
f 578 	579 	646
f 841 	651 	652
f 567 	578 	568
f 646 	568 	578
f 657 	646 	579
f 658 	659 	559
f 658 	559 	561
f 546 	653 	577
f 871 	894 	573
f 719 	512 	551
f 634 	633 	657
f 579 	657 	633
f 719 	502 	512
f 566 	501 	653
f 567 	640 	607
f 633 	640 	578
f 579 	633 	578
f 567 	578 	640
f 542 	607 	640
f 640 	642 	542
f 542 	642 	521
f 542 	521 	534
f 542 	534 	526
f 614 	927 	615
f 527 	664 	665
f 632 	666 	617
f 631 	666 	632
f 584 	536 	666
f 659 	658 	667
f 631 	562 	666
f 561 	560 	667
f 561 	667 	658
f 631 	593 	598
f 631 	598 	666
f 584 	666 	564
f 655 	894 	652
f 583 	584 	666
f 598 	601 	666
f 601 	886 	666
f 583 	666 	886
f 527 	541 	664
f 584 	554 	666
f 576 	639 	554
f 666 	554 	630
f 630 	554 	639
f 631 	666 	630
f 541 	673 	664
f 674 	671 	535
f 648 	595 	669
f 595 	662 	669
f 535 	605 	674
f 552 	623 	859
f 624 	673 	541
f 539 	589 	832
f 588 	587 	832
f 695 	832 	587
f 589 	588 	832
f 546 	581 	679
f 583 	886 	889
f 545 	548 	889
f 583 	889 	548
f 605 	821 	674
f 670 	719 	685
f 680 	574 	684
f 683 	684 	574
f 575 	574 	680
f 574 	686 	683
f 686 	688 	683
f 687 	688 	686
f 682 	683 	688
f 551 	681 	691
f 678 	677 	623
f 685 	551 	689
f 538 	611 	574
f 621 	574 	611
f 512 	690 	681
f 623 	552 	678
f 551 	691 	689
f 594 	629 	692
f 575 	692 	629
f 575 	629 	639
f 575 	639 	576
f 730 	681 	729
f 594 	692 	606
f 695 	606 	692
f 618 	627 	619
f 698 	566 	679
f 656 	663 	739
f 695 	625 	606
f 698 	679 	710
f 693 	699 	685
f 627 	625 	700
f 698 	690 	512
f 699 	670 	685
f 702 	621 	619
f 698 	512 	566
f 822 	705 	663
f 852 	704 	703
f 729 	690 	707
f 690 	698 	707
f 706 	707 	698
f 677 	704 	623
f 592 	835 	591
f 591 	835 	587
f 704 	677 	740
f 693 	685 	689
f 852 	623 	704
f 694 	693 	689
f 703 	704 	740
f 691 	701 	697
f 691 	668 	701
f 697 	694 	689
f 712 	714 	715
f 738 	678 	696
f 689 	691 	697
f 696 	552 	558
f 751 	716 	718
f 751 	663 	705
f 551 	685 	719
f 552 	696 	678
f 596 	672 	671
f 518 	774 	716
f 723 	714 	710
f 719 	513 	502
f 519 	743 	518
f 711 	710 	712
f 724 	741 	722
f 712 	710 	714
f 649 	821 	605
f 577 	653 	722
f 709 	718 	708
f 743 	742 	718
f 716 	743 	718
f 716 	518 	743
f 722 	653 	724
f 726 	727 	644
f 649 	661 	725
f 668 	691 	681
f 570 	644 	761
f 608 	577 	722
f 690 	729 	681
f 653 	501 	724
f 661 	728 	725
f 858 	730 	729
f 707 	853 	729
f 749 	748 	715
f 726 	783 	537
f 735 	782 	733
f 709 	708 	843
f 731 	732 	734
f 678 	738 	677
f 705 	746 	751
f 737 	721 	741
f 737 	741 	710
f 738 	740 	677
f 656 	739 	650
f 721 	722 	741
f 720 	742 	743
f 743 	770 	720
f 620 	720 	770
f 626 	608 	744
f 744 	759 	626
f 688 	760 	682
f 720 	745 	742
f 612 	626 	747
f 748 	749 	723
f 714 	723 	749
f 620 	770 	772
f 747 	626 	759
f 714 	749 	715
f 900 	715 	748
f 737 	581 	612
f 831 	830 	604
f 721 	747 	759
f 769 	795 	723
f 737 	612 	747
f 730 	752 	681
f 721 	737 	747
f 731 	734 	750
f 753 	754 	755
f 858 	860 	730
f 604 	750 	734
f 744 	608 	722
f 620 	783 	644
f 726 	644 	783
f 684 	756 	680
f 721 	744 	722
f 766 	709 	843
f 708 	760 	843
f 720 	843 	760
f 746 	716 	751
f 737 	679 	581
f 738 	825 	727
f 760 	745 	720
f 663 	751 	843
f 663 	843 	739
f 762 	763 	758
f 727 	761 	644
f 721 	759 	744
f 765 	698 	764
f 710 	771 	698
f 743 	742 	740
f 765 	706 	698
f 727 	761 	726
f 756 	726 	761
f 742 	745 	740
f 788 	763 	762
f 724 	501 	510
f 760 	740 	745
f 788 	762 	789
f 901 	789 	762
f 790 	706 	676
f 709 	766 	703
f 745 	718 	742
f 510 	837 	724
f 905 	795 	901
f 903 	795 	905
f 764 	676 	765
f 760 	708 	740
f 709 	740 	708
f 676 	706 	765
f 769 	681 	758
f 837 	741 	724
f 760 	718 	745
f 708 	718 	760
f 737 	710 	679
f 688 	687 	766
f 709 	708 	766
f 688 	766 	708
f 763 	769 	758
f 764 	698 	771
f 771 	710 	711
f 654 	780 	768
f 710 	741 	837
f 775 	776 	777
f 775 	777 	778
f 648 	779 	595
f 771 	816 	676
f 764 	771 	676
f 710 	837 	723
f 774 	595 	779
f 650 	654 	768
f 758 	681 	781
f 752 	781 	681
f 838 	774 	779
f 768 	767 	650
f 735 	725 	782
f 728 	782 	725
f 736 	733 	782
f 736 	782 	784
f 620 	772 	783
f 668 	757 	785
f 753 	786 	777
f 776 	754 	777
f 753 	777 	754
f 650 	773 	656
f 757 	681 	769
f 668 	681 	757
f 767 	773 	650
f 754 	776 	775
f 754 	775 	755
f 787 	668 	785
f 738 	772 	770
f 743 	740 	770
f 738 	770 	740
f 787 	785 	670
f 821 	649 	725
f 525 	527 	665
f 769 	763 	788
f 769 	788 	789
f 789 	795 	769
f 772 	738 	783
f 727 	726 	738
f 783 	738 	726
f 706 	790 	854
f 733 	791 	735
f 787 	670 	699
f 792 	790 	676
f 817 	676 	816
f 676 	793 	792
f 634 	794 	635
f 703 	839 	852
f 771 	711 	818
f 771 	818 	816
f 748 	723 	795
f 819 	818 	712
f 789 	901 	795
f 728 	796 	782
f 670 	785 	842
f 852 	839 	538
f 711 	712 	818
f 819 	712 	715
f 795 	903 	748
f 900 	748 	903
f 797 	751 	798
f 799 	553 	715
f 553 	826 	715
f 881 	663 	656
f 751 	718 	798
f 693 	694 	810
f 694 	697 	810
f 656 	773 	881
f 766 	797 	703
f 797 	798 	703
f 728 	794 	796
f 664 	854 	665
f 854 	790 	665
f 693 	810 	699
f 784 	782 	803
f 791 	803 	782
f 791 	782 	804
f 792 	793 	665
f 790 	792 	665
f 815 	624 	675
f 511 	805 	806
f 515 	511 	806
f 525 	665 	535
f 766 	797 	709
f 718 	709 	797
f 718 	797 	798
f 661 	815 	728
f 805 	511 	808
f 701 	668 	787
f 657 	635 	794
f 808 	809 	805
f 537 	644 	570
f 665 	807 	535
f 800 	529 	806
f 761 	825 	570
f 809 	808 	811
f 665 	817 	807
f 761 	727 	570
f 728 	814 	794
f 825 	662 	595
f 813 	605 	807
f 604 	713 	831
f 646 	657 	569
f 814 	569 	657
f 794 	814 	657
f 797 	766 	687
f 797 	687 	686
f 929 	820 	930
f 830 	731 	750
f 823 	797 	574
f 686 	574 	797
f 797 	823 	798
f 794 	634 	657
f 756 	528 	832
f 524 	832 	528
f 815 	661 	624
f 813 	649 	605
f 570 	537 	756
f 761 	570 	756
f 793 	676 	817
f 728 	815 	814
f 823 	835 	518
f 716 	823 	518
f 573 	660 	636
f 718 	798 	716
f 823 	716 	798
f 818 	819 	820
f 651 	637 	652
f 637 	636 	652
f 594 	856 	669
f 629 	594 	669
f 660 	655 	636
f 648 	847 	779
f 629 	669 	662
f 847 	648 	851
f 610 	609 	917
f 655 	652 	636
f 733 	522 	791
f 786 	778 	777
f 822 	663 	881
f 538 	839 	611
f 839 	838 	611
f 609 	611 	838
f 770 	537 	783
f 743 	537 	770
f 772 	770 	783
f 828 	801 	800
f 824 	828 	800
f 825 	696 	558
f 725 	735 	503
f 827 	828 	829
f 738 	696 	825
f 803 	791 	522
f 869 	834 	713
f 819 	715 	826
f 819 	826 	820
f 717 	869 	713
f 824 	829 	828
f 810 	697 	701
f 665 	793 	817
f 717 	893 	869
f 787 	699 	810
f 828 	812 	802
f 801 	828 	802
f 806 	805 	824
f 806 	824 	800
f 823 	574 	621
f 702 	823 	621
f 824 	805 	811
f 809 	811 	805
f 701 	787 	810
f 692 	575 	832
f 680 	756 	832
f 575 	680 	832
f 692 	832 	695
f 817 	816 	807
f 524 	531 	832
f 627 	700 	835
f 818 	820 	807
f 816 	818 	807
f 884 	830 	822
f 619 	835 	702
f 823 	702 	835
f 627 	835 	619
f 590 	519 	835
f 519 	518 	835
f 700 	625 	835
f 929 	807 	820
f 769 	836 	757
f 835 	592 	590
f 826 	930 	820
f 742 	743 	683
f 770 	683 	743
f 785 	836 	842
f 695 	587 	625
f 625 	587 	835
f 813 	841 	649
f 760 	745 	682
f 785 	757 	836
f 931 	813 	929
f 684 	683 	770
f 684 	770 	772
f 761 	727 	825
f 595 	537 	825
f 718 	716 	774
f 518 	519 	774
f 831 	822 	830
f 756 	684 	783
f 772 	783 	684
f 807 	929 	813
f 750 	604 	830
f 756 	783 	726
f 709 	703 	740
f 513 	836 	510
f 837 	510 	836
f 688 	708 	760
f 769 	723 	836
f 837 	836 	723
f 774 	838 	839
f 742 	682 	745
f 842 	719 	670
f 798 	774 	703
f 718 	774 	798
f 842 	513 	719
f 739 	843 	720
f 839 	703 	774
f 836 	513 	842
f 641 	616 	844
f 622 	603 	632
f 766 	843 	797
f 751 	797 	843
f 622 	632 	617
f 848 	833 	516
f 845 	846 	555
f 553 	799 	555
f 845 	555 	799
f 850 	516 	833
f 833 	848 	850
f 902 	516 	550
f 853 	707 	854
f 706 	854 	707
f 857 	669 	856
f 858 	729 	853
f 516 	607 	550
f 547 	550 	607
f 752 	730 	860
f 874 	752 	860
f 849 	859 	852
f 623 	852 	859
f 856 	883 	857
f 648 	669 	857
f 912 	758 	877
f 780 	855 	840
f 593 	856 	594
f 780 	933 	855
f 781 	752 	877
f 873 	877 	752
f 834 	831 	713
f 860 	858 	664
f 664 	853 	854
f 796 	862 	782
f 804 	782 	863
f 853 	664 	858
f 815 	563 	814
f 705 	822 	861
f 664 	673 	874
f 864 	813 	931
f 861 	822 	831
f 841 	813 	864
f 767 	768 	866
f 874 	860 	664
f 651 	841 	864
f 651 	864 	865
f 768 	780 	866
f 804 	863 	791
f 522 	791 	863
f 522 	863 	534
f 767 	866 	868
f 867 	673 	624
f 637 	651 	638
f 868 	870 	773
f 732 	731 	891
f 773 	767 	868
f 865 	638 	651
f 840 	866 	780
f 796 	794 	862
f 657 	579 	794
f 579 	578 	794
f 638 	733 	736
f 638 	736 	784
f 638 	784 	633
f 932 	871 	872
f 784 	803 	736
f 646 	569 	568
f 906 	904 	866
f 661 	867 	624
f 859 	564 	552
f 736 	642 	784
f 640 	784 	642
f 873 	752 	874
f 876 	564 	875
f 859 	875 	564
f 781 	877 	758
f 803 	521 	736
f 633 	784 	640
f 872 	871 	573
f 638 	521 	733
f 912 	762 	758
f 876 	875 	878
f 673 	873 	874
f 821 	725 	503
f 873 	673 	877
f 636 	635 	573
f 872 	573 	635
f 511 	877 	673
f 876 	875 	880
f 879 	880 	875
f 522 	733 	521
f 638 	865 	521
f 791 	503 	735
f 779 	847 	916
f 504 	503 	521
f 773 	870 	881
f 522 	521 	503
f 522 	503 	791
f 875 	859 	882
f 857 	851 	648
f 522 	521 	803
f 642 	736 	521
f 857 	883 	851
f 674 	821 	509
f 884 	881 	870
f 879 	875 	882
f 879 	882 	885
f 822 	881 	884
f 856 	601 	886
f 883 	856 	886
f 927 	859 	849
f 731 	830 	884
f 585 	586 	672
f 599 	600 	672
f 596 	597 	672
f 919 	851 	883
f 889 	890 	883
f 597 	599 	672
f 886 	889 	883
f 932 	511 	867
f 596 	671 	602
f 622 	613 	603
f 932 	867 	871
f 891 	731 	884
f 875 	597 	878
f 867 	661 	894
f 871 	867 	894
f 891 	884 	909
f 673 	867 	511
f 613 	924 	889
f 596 	878 	597
f 602 	878 	596
f 516 	902 	848
f 596 	782 	597
f 906 	893 	892
f 894 	649 	841
f 862 	597 	782
f 863 	782 	596
f 863 	596 	602
f 894 	661 	649
f 579 	578 	872
f 635 	657 	872
f 657 	579 	872
f 660 	573 	894
f 891 	909 	892
f 893 	717 	895
f 604 	895 	713
f 894 	655 	660
f 888 	887 	859
f 927 	896 	859
f 888 	859 	896
f 895 	717 	713
f 859 	887 	897
f 882 	859 	897
f 892 	732 	891
f 585 	672 	600
f 841 	652 	894
f 892 	734 	732
f 895 	604 	734
f 846 	845 	898
f 600 	599 	882
f 799 	715 	900
f 893 	734 	892
f 734 	893 	895
f 515 	529 	762
f 901 	762 	529
f 868 	866 	904
f 599 	597 	882
f 875 	882 	597
f 898 	845 	799
f 898 	799 	900
f 898 	900 	903
f 898 	903 	905
f 597 	862 	599
f 907 	906 	866
f 840 	907 	866
f 529 	800 	901
f 905 	901 	801
f 600 	599 	862
f 800 	801 	901
f 868 	904 	909
f 528 	524 	908
f 534 	865 	924
f 521 	865 	534
f 563 	815 	675
f 892 	904 	906
f 559 	659 	802
f 802 	555 	559
f 892 	909 	904
f 924 	526 	534
f 644 	528 	908
f 909 	870 	868
f 586 	571 	672
f 560 	559 	555
f 846 	898 	555
f 589 	899 	539
f 589 	588 	899
f 543 	539 	899
f 516 	578 	567
f 516 	567 	607
f 659 	667 	802
f 667 	905 	802
f 801 	802 	905
f 587 	591 	899
f 675 	672 	563
f 899 	908 	543
f 524 	531 	908
f 585 	600 	628
f 516 	872 	578
f 519 	518 	746
f 716 	746 	518
f 560 	555 	667
f 667 	555 	898
f 905 	667 	898
f 571 	586 	628
f 586 	585 	628
f 882 	628 	600
f 507 	912 	877
f 600 	862 	585
f 899 	591 	592
f 893 	906 	907
f 571 	586 	862
f 586 	585 	862
f 829 	824 	850
f 912 	515 	762
f 507 	515 	912
f 592 	746 	899
f 603 	613 	886
f 603 	886 	601
f 893 	907 	869
f 896 	628 	888
f 887 	888 	628
f 882 	897 	628
f 886 	613 	889
f 821 	503 	509
f 887 	628 	897
f 828 	827 	913
f 888 	885 	887
f 890 	889 	606
f 889 	886 	606
f 601 	606 	886
f 884 	870 	909
f 674 	509 	671
f 516 	850 	824
f 834 	869 	907
f 882 	897 	885
f 897 	887 	885
f 896 	885 	888
f 915 	885 	896
f 838 	916 	917
f 536 	671 	509
f 582 	671 	536
f 834 	907 	840
f 838 	917 	609
f 582 	602 	671
f 536 	878 	582
f 855 	834 	840
f 548 	878 	583
f 548 	918 	878
f 876 	878 	918
f 536 	583 	878
f 917 	919 	920
f 917 	920 	921
f 615 	917 	921
f 602 	582 	878
f 834 	855 	861
f 876 	880 	918
f 916 	847 	919
f 861 	831 	834
f 582 	863 	602
f 536 	863 	582
f 547 	922 	549
f 847 	851 	919
f 890 	889 	924
f 923 	890 	924
f 916 	919 	917
f 928 	902 	925
f 926 	920 	925
f 916 	838 	779
f 925 	643 	641
f 925 	641 	926
f 932 	872 	811
f 811 	872 	824
f 645 	849 	557
f 922 	547 	628
f 643 	628 	647
f 927 	647 	628
f 925 	628 	643
f 922 	628 	925
f 849 	645 	927
f 647 	927 	645
f 550 	922 	902
f 549 	922 	550
f 922 	925 	902
f 614 	647 	927
f 883 	890 	928
f 920 	919 	928
f 883 	928 	919
f 628 	896 	927
f 911 	914 	923
f 616 	926 	844
f 887 	920 	927
f 896 	888 	927
f 888 	887 	927
f 929 	930 	828
f 812 	828 	930
f 647 	556 	927
f 896 	927 	556
f 896 	556 	915
f 897 	889 	887
f 616 	920 	926
f 614 	615 	616
f 826 	812 	930
f 875 	545 	882
f 918 	545 	876
f 875 	876 	545
f 545 	889 	882
f 897 	882 	889
f 928 	925 	920
f 921 	920 	616
f 615 	921 	616
f 915 	545 	885
f 918 	880 	545
f 879 	545 	880
f 879 	885 	545
f 556 	545 	915
f 910 	911 	923
f 921 	920 	618
f 928 	618 	920
f 902 	923 	914
f 923 	924 	910
f 913 	910 	924
f 647 	645 	643
f 645 	557 	556
f 645 	556 	647
f 844 	926 	641
f 902 	928 	923
f 902 	914 	848
f 662 	825 	558
f 890 	923 	928
f 630 	629 	558
f 865 	864 	931
f 931 	828 	865
f 929 	828 	931
f 924 	865 	828
f 606 	928 	890
f 828 	913 	924
f 808 	511 	932
f 921 	927 	920
f 615 	927 	921
f 811 	808 	932
f 516 	824 	872
f 755 	775 	753
f 786 	753 	775
f 786 	775 	778
f 889 	890 	928
f 889 	928 	920
f 889 	920 	887
f 827 	829 	850
f 827 	850 	848
f 827 	848 	914
f 911 	910 	914
f 827 	914 	910
f 827 	910 	913
f 654 	933 	780
f 584 	564 	583
f 548 	564 	918
f 876 	918 	564
f 564 	548 	583
f 683 	934 	742
f 742 	934 	682
f 682 	934 	683
f 855 	933 	935
f 562 	631 	630
f 938 	861 	935
f 562 	630 	558
f 564 	666 	562
f 935 	861 	855
f 662 	558 	629
f 650 	936 	937
f 654 	650 	937
f 650 	739 	936
f 530 	849 	852
f 557 	849 	530
f 517 	935 	933
f 517 	644 	935
f 908 	935 	644
f 720 	936 	739
f 720 	620 	936
f 937 	936 	620
f 938 	705 	861
f 899 	746 	938
f 705 	938 	746
f 935 	908 	938
f 938 	908 	899
f 654 	937 	517
f 517 	933 	654
# 1032 faces

 #end of obj_2

o obj_3
v 1.1753 		-0.9397 		-0.1400
v 1.1379 		-0.9397 		-0.0496
v 1.1344 		-0.9397 		-0.1353
v 1.1705 		-0.9397 		-0.1420
v 0.4288 		0.7213 		-0.1408
v 1.1753 		0.9703 		-0.1400
v 1.1753 		0.7231 		-0.1400
v 1.1337 		0.7403 		-0.1572
v 1.1337 		0.9453 		-0.1572
v 1.1705 		0.9703 		-0.1420
v 0.5261 		0.1643 		-0.1719
v 0.5427 		0.1663 		-0.1520
v 0.4452 		0.7063 		-0.1621
v 1.1337 		-0.9147 		-0.1572
v 1.1337 		-0.7097 		-0.1572
v 1.1753 		-0.6925 		-0.1400
v 0.4600 		0.7253 		-0.1300
v 1.1344 		0.9703 		-0.1353
v 1.1379 		0.9703 		-0.0496
v 1.1396 		0.7403 		-0.0119
v 1.1398 		0.7397 		-0.0125
v 1.1396 		0.9453 		-0.0119
v 1.1396 		-0.7097 		-0.0119
v 1.1398 		-0.7091 		-0.0125
v 0.4855 		0.7033 		-0.1053
v 0.4600 		0.7253 		-0.1300
v 1.1396 		-0.9147 		-0.0119
v 0.6813 		-0.4677 		-0.1520
v 1.1487 		-0.6858 		-0.0341
v 1.1485 		-0.6858 		-0.0334
v 1.1219 		0.9337 		-0.0111
v 0.1828 		-0.3447 		-0.1322
v 1.1310 		0.7388 		-0.0121
v 0.4456 		-0.1007 		-0.1684
v 0.6477 		0.0123 		-0.1572
v 0.4062 		0.2683 		0.0653
v 1.1221 		0.7379 		-0.0116
v 0.4549 		0.1253 		0.0627
v 0.0763 		-0.4407 		0.0596
v 0.6637 		-0.4828 		-0.1722
v 1.1224 		0.7373 		-0.0122
v 0.4456 		-0.2137 		-0.1684
v 0.4062 		-0.2437 		0.0653
v 0.4549 		0.2383 		0.0627
v 0.5353 		0.1643 		0.0593
v 0.4558 		-0.3217 		0.0631
v 1.1308 		0.9690 		-0.0326
v 1.1307 		0.9687 		-0.0322
v 1.1219 		0.9425 		-0.0111
v 0.0916 		-0.4257 		0.0800
v 1.1308 		0.7145 		-0.0326
v 1.1741 		0.7196 		-0.1371
v 0.3782 		0.0123 		-0.1650
v 0.1613 		-0.4957 		0.0764
v 0.3656 		0.0123 		-0.1399
v 0.4456 		0.1253 		-0.1684
v 0.6725 		-0.4828 		0.0468
v 0.6890 		-0.4677 		0.0255
v 0.4331 		-0.0987 		-0.1433
v 0.4407 		0.1233 		0.0395
v 0.4851 		0.7013 		-0.1488
v 0.4456 		0.2383 		-0.1684
v 0.1791 		-0.3567 		0.0752
v 0.5046 		0.6853 		-0.1278
v 0.3901 		-0.2357 		-0.1416
v 0.3978 		0.2593 		0.0412
v 0.4331 		-0.2097 		-0.1433
v 0.3969 		0.2683 		-0.1658
v 0.6312 		0.8913 		-0.1121
v 0.3995 		-0.4957 		0.0658
v 0.5508 		-0.2967 		0.0375
v 0.6458 		0.8693 		-0.1342
v 0.4039 		-0.4607 		0.0592
v 0.4039 		-0.4167 		0.0592
v 0.6554 		0.0123 		0.0332
v 0.6403 		0.0123 		0.0540
v 0.3995 		-0.4167 		0.0658
v 0.4407 		0.2343 		0.0395
v 0.5508 		-0.1418 		0.0375
v 0.5001 		-0.3055 		-0.1640
v 0.5011 		-0.3055 		-0.1635
v 0.4331 		0.1233 		-0.1433
v 0.5261 		-0.2907 		-0.1719
v 0.4288 		-0.6907 		-0.1408
v 0.7655 		0.6993 		0.0052
v 0.5218 		-0.3053 		-0.1512
v 0.4600 		-0.6947 		-0.1300
v 0.4452 		-0.6757 		-0.1621
v 0.5427 		-0.2967 		-0.1520
v 0.4656 		0.7253 		0.0239
v 0.3901 		0.2593 		-0.1416
v 0.4855 		-0.6727 		-0.1053
v 0.5244 		-0.3042 		-0.1490
v 0.5289 		-0.3024 		-0.1451
v 0.7597 		0.6993 		-0.1401
v 0.7801 		0.6763 		-0.0169
v 0.4351 		0.7213 		0.0372
v 0.4331 		0.2343 		-0.1433
v 0.4540 		0.7063 		0.0570
v 1.1308 		-0.9385 		-0.0326
v 0.7760 		0.6763 		-0.1192
v 0.4897 		0.7033 		-0.0030
v 1.1307 		-0.9380 		-0.0322
v 1.1219 		-0.9119 		-0.0111
v 1.1219 		-0.9031 		-0.0111
v 0.3902 		-0.4957 		-0.1654
v 1.1221 		-0.7072 		-0.0116
v 0.3356 		-0.3567 		0.0685
v 0.6350 		0.5703 		-0.1343
v 0.3263 		0.3813 		-0.1626
v 0.3947 		-0.4607 		-0.1598
v 0.3949 		-0.4167 		-0.1596
v 0.4340 		-0.3511 		-0.1612
v 0.4499 		-0.3249 		-0.1618
v 1.1741 		-0.6890 		-0.1371
v 0.4466 		-0.3217 		-0.1680
v 1.1224 		-0.7067 		-0.0122
v 1.1311 		-0.6840 		-0.0332
v 0.3147 		0.5251 		-0.1553
v 0.3153 		0.5245 		-0.1561
v 0.7655 		-0.6687 		0.0052
v 0.6557 		0.5533 		-0.1138
v 0.3902 		-0.4167 		-0.1654
v 0.6527 		0.5543 		-0.1562
v 0.4936 		0.7013 		0.0398
v 0.4851 		-0.6707 		-0.1488
v 0.5046 		-0.6547 		-0.1278
v 0.7597 		-0.6687 		-0.1401
v 0.3969 		-0.2437 		-0.1658
v 0.7760 		-0.6458 		-0.1192
v 0.6798 		0.5312 		-0.1407
v 0.5104 		0.6853 		0.0175
v 0.4039 		0.5250 		0.0592
v 0.3995 		0.5203 		0.0658
v 0.7801 		-0.6458 		-0.0169
v 0.3242 		0.5245 		-0.1566
v 0.4039 		0.4913 		0.0592
v 0.3294 		-0.3447 		0.0443
v 0.4039 		0.4413 		0.0592
v 0.3995 		0.4413 		0.0658
v 0.0628 		0.0123 		-0.1300
v 0.3947 		-0.4999 		-0.1598
v 0.0682 		-0.1627 		-0.1299
v 0.6557 		-0.5228 		-0.1138
v 0.5048 		0.3312 		0.0545
v 0.4428 		0.3757 		0.0574
v 0.0770 		0.0123 		-0.1512
v 0.4585 		0.3494 		0.0566
v 0.0824 		-0.1627 		-0.1511
v 0.5077 		0.3314 		0.0525
v 0.6527 		-0.5237 		-0.1562
v 0.6798 		-0.5008 		-0.1407
v 0.3026 		0.5353 		0.0430
v 0.3218 		0.3693 		-0.1385
v 0.4558 		0.3463 		0.0631
v 0.5353 		0.3153 		0.0593
v 0.6350 		-0.5397 		-0.1343
v 0.4656 		-0.6947 		0.0239
v 0.3263 		-0.3567 		-0.1626
v 0.4351 		-0.6907 		0.0372
v 0.5263 		0.3313 		0.0388
v 0.3208 		0.5277 		0.0592
v 0.6353 		0.8913 		-0.0097
v 0.6516 		0.8693 		0.0111
v 0.3117 		0.5353 		0.0491
v 0.0705 		0.0123 		0.0605
v 0.1904 		0.3693 		0.0506
v 0.5287 		0.3303 		0.0363
v 0.4540 		-0.6757 		0.0570
v 0.0763 		-0.1627 		0.0596
v 0.5325 		0.3286 		0.0325
v 0.4897 		-0.6727 		-0.0030
v 0.5311 		0.3286 		-0.0016
v 0.1531 		0.5353 		-0.1337
v 0.1612 		0.5353 		0.0558
v 0.5353 		-0.1398 		0.0593
v 0.2964 		0.5353 		-0.1011
v 0.2952 		0.5353 		-0.1345
v 0.0862 		0.0123 		0.0800
v 0.6599 		0.5533 		-0.0115
v 0.0916 		-0.1627 		0.0800
v 0.6603 		0.5543 		0.0320
v 0.6863 		0.5312 		0.0136
v 0.0682 		0.4653 		-0.1299
v 0.6408 		0.5703 		0.0110
v 0.0824 		0.4503 		-0.1511
v 0.3034 		0.5353 		-0.1409
v 0.3122 		0.5274 		-0.1521
v 0.4549 		-0.1007 		0.0627
v 0.4549 		-0.2137 		0.0627
v 0.1520 		0.5203 		-0.1547
v 0.4936 		-0.6707 		0.0398
v 0.5104 		-0.6547 		0.0175
v 0.1695 		0.3813 		-0.1551
v 0.3218 		-0.3447 		-0.1385
v 0.4961 		0.3317 		-0.1638
v 0.4983 		0.3318 		-0.1625
v 0.6312 		-0.8608 		-0.1121
v 0.4407 		-0.0987 		0.0395
v 0.6458 		-0.8387 		-0.1342
v 0.1904 		-0.3447 		0.0506
v 0.5261 		0.3153 		-0.1719
v 0.6813 		0.4983 		-0.1520
v 0.1828 		0.3693 		-0.1322
v 0.6637 		0.5133 		-0.1722
v 0.5177 		0.3315 		-0.1510
v 0.4407 		-0.2097 		0.0395
v 0.5427 		0.3213 		-0.1520
v 0.4039 		-0.5003 		0.0592
v 0.6353 		-0.8608 		-0.0097
v 0.5209 		0.3303 		-0.1484
v 0.0763 		0.4653 		0.0596
v 0.6516 		-0.8387 		0.0111
v 0.5249 		0.3286 		-0.1449
v 0.3874 		0.0123 		0.0662
v 0.0916 		0.4503 		0.0800
v 0.3732 		0.0123 		0.0430
v 0.3244 		0.5249 		0.0629
v 0.3241 		0.5251 		0.0626
v 0.1613 		0.5203 		0.0764
v 0.6725 		0.5133 		0.0468
v 0.6890 		0.4983 		0.0255
v 0.3069 		-0.5108 		0.0428
v 0.6408 		-0.5397 		0.0110
v 0.3275 		0.5249 		0.0628
v 0.6599 		-0.5228 		-0.0115
v 0.3160 		-0.5108 		0.0489
v 0.6603 		-0.5237 		0.0320
v 0.3947 		0.5246 		-0.1598
v 0.3246 		-0.5035 		0.0584
v 0.1791 		0.3813 		0.0752
v 0.3902 		0.5203 		-0.1654
v 0.5508 		0.3213 		0.0375
v 0.3978 		-0.2357 		0.0412
v 0.6863 		-0.5008 		0.0136
v 0.3287 		-0.5002 		0.0627
v 0.5508 		0.1663 		0.0375
v 0.3356 		0.3813 		0.0685
v 0.3947 		0.4913 		-0.1598
v 0.4499 		0.3496 		-0.1617
v 0.4339 		0.3759 		-0.1611
v 0.3949 		0.4413 		-0.1596
v 0.4466 		0.3463 		-0.1680
v 0.4585 		-0.3247 		0.0566
v 0.4428 		-0.3511 		0.0574
v 0.5089 		-0.3051 		0.0543
v 0.3902 		0.4413 		-0.1654
v 0.0682 		0.1873 		-0.1299
v 0.0763 		0.1873 		0.0596
v 0.1531 		-0.5108 		-0.1337
v 0.1612 		-0.5108 		0.0558
v 0.5105 		-0.3052 		0.0532
v 0.0682 		-0.4407 		-0.1299
v 0.5353 		-0.2907 		0.0593
v 0.3009 		-0.5108 		-0.0966
v 0.0824 		-0.4257 		-0.1511
v 0.0916 		0.1873 		0.0800
v 0.6311 		0.0123 		-0.1771
v 0.4600 		0.7253 		-0.1300
v 0.5303 		-0.3051 		0.0386
v 0.5427 		-0.1418 		-0.1520
v 0.4600 		0.7253 		-0.1300
v 0.0824 		0.1873 		-0.1511
v 0.1520 		-0.4957 		-0.1547
v 0.2995 		-0.5108 		-0.1347
v 0.5366 		-0.3024 		0.0324
v 0.5323 		-0.3042 		0.0366
v 0.3294 		0.3693 		0.0443
v 0.3077 		-0.5108 		-0.1411
v 0.5261 		-0.1398 		-0.1719
v 0.3196 		-0.4999 		-0.1563
v 0.3193 		-0.5002 		-0.1559
v 0.3161 		-0.5031 		-0.1517
v 0.5355 		-0.3024 		0.0071
v 0.1695 		-0.3567 		-0.1551
v 0.3242 		-0.4999 		-0.1566
v 1.1310 		-0.7082 		-0.0121
# 277 vertices

g group_3_9772161

usemtl color_9772161
s 0

f 941 	942 	940
f 939 	940 	942
f 946 	947 	945
f 947 	948 	945
f 944 	945 	948
f 953 	954 	952
f 942 	952 	954
f 942 	954 	939
f 948 	956 	957
f 948 	957 	944
f 958 	959 	960
f 968 	961 	962
f 1040 	963 	964
f 962 	961 	965
f 967 	968 	962
f 969 	958 	960
f 979 	971 	1023
f 958 	1023 	971
f 963 	999 	964
f 958 	971 	959
f 971 	969 	959
f 975 	969 	971
f 960 	959 	969
f 975 	971 	979
f 982 	976 	983
f 972 	1208 	980
f 957 	985 	986
f 957 	986 	987
f 957 	987 	969
f 957 	969 	975
f 957 	975 	979
f 957 	979 	989
f 957 	989 	990
f 957 	990 	945
f 957 	945 	944
f 1119 	1108 	988
f 977 	988 	1108
f 976 	1014 	983
f 956 	1007 	957
f 948 	947 	956
f 992 	988 	977
f 976 	982 	1016
f 958 	969 	1023
f 997 	993 	991
f 997 	991 	972
f 955 	999 	951
f 1005 	997 	972
f 998 	976 	1016
f 979 	1034 	989
f 949 	994 	1000
f 946 	945 	990
f 996 	1204 	995
f 972 	980 	1005
f 1034 	1039 	989
f 985 	957 	1007
f 1005 	980 	1067
f 988 	992 	1001
f 947 	1010 	956
f 1010 	1007 	956
f 1012 	995 	1183
f 1011 	995 	1012
f 955 	964 	999
f 1183 	1015 	1012
f 1049 	1050 	978
f 1036 	1006 	1000
f 963 	1002 	999
f 987 	1102 	969
f 1020 	998 	1036
f 1016 	1036 	998
f 1018 	1019 	978
f 1019 	1024 	978
f 1016 	982 	974
f 1031 	1032 	978
f 1004 	1016 	974
f 1143 	1167 	951
f 1012 	1015 	1011
f 991 	993 	1020
f 947 	1033 	1010
f 1008 	1011 	1015
f 947 	946 	1033
f 1019 	1018 	1021
f 991 	1020 	994
f 1031 	978 	1024
f 966 	978 	1032
f 1015 	984 	1046
f 994 	1020 	1036
f 1000 	994 	1036
f 1029 	1036 	1004
f 1017 	1013 	1014
f 1022 	1026 	1025
f 1027 	1024 	1021
f 1021 	1024 	1019
f 1013 	1199 	973
f 1026 	1064 	1025
f 1027 	1031 	1024
f 1031 	1027 	1032
f 1127 	1114 	1014
f 979 	1023 	1034
f 1036 	1029 	1006
f 1022 	1211 	1026
f 1028 	1035 	1037
f 1038 	1136 	940
f 1028 	1063 	1040
f 942 	941 	952
f 1016 	1004 	1036
f 1039 	1033 	946
f 946 	990 	1039
f 1060 	1039 	1034
f 990 	989 	1039
f 1033 	1047 	1002
f 1051 	978 	1050
f 1052 	978 	1051
f 1018 	978 	1052
f 954 	953 	1053
f 1052 	1054 	1018
f 1021 	1018 	1054
f 1010 	1033 	1002
f 1057 	1058 	1129
f 1054 	1052 	1051
f 1046 	984 	981
f 1053 	1068 	1056
f 1101 	963 	1040
f 1039 	1047 	1033
f 1055 	1073 	1045
f 1047 	1039 	1060
f 1061 	1054 	1051
f 1061 	1051 	1050
f 1059 	1045 	1073
f 1046 	981 	1076
f 1037 	1063 	1028
f 1061 	1097 	1054
f 1101 	1040 	1102
f 952 	1066 	953
f 1062 	1047 	1060
f 1102 	1040 	1070
f 1060 	1069 	1062
f 1066 	1068 	953
f 1068 	1053 	953
f 1095 	1065 	1064
f 1076 	1172 	1133
f 1044 	1061 	1049
f 1049 	1080 	1044
f 1063 	1070 	1040
f 1065 	1030 	1064
f 1073 	1056 	1068
f 1047 	1062 	999
f 1172 	1076 	981
f 1050 	1049 	1061
f 1075 	1159 	1071
f 1064 	1030 	1025
f 1072 	1078 	1075
f 1072 	1075 	1071
f 999 	1062 	951
f 1075 	1078 	1077
f 1028 	1040 	1197
f 1097 	1067 	1054
f 1065 	1095 	1066
f 943 	1035 	1028
f 1002 	1047 	999
f 1066 	1095 	1068
f 1095 	1082 	1068
f 1005 	1067 	1003
f 1060 	1121 	1069
f 1049 	978 	1080
f 1084 	1159 	1077
f 1084 	1086 	1159
f 1083 	1159 	1086
f 1083 	1088 	1159
f 1088 	1099 	1159
f 1106 	1159 	1099
f 1116 	1115 	943
f 1085 	1087 	1081
f 1085 	1081 	1079
f 951 	1062 	1143
f 1148 	1110 	1030
f 1115 	1113 	1091
f 1003 	1133 	1172
f 1090 	1082 	1089
f 1088 	1083 	1094
f 1093 	1094 	1083
f 1093 	1083 	1086
f 1115 	1091 	1035
f 1214 	1209 	1044
f 1035 	1100 	1037
f 1100 	1157 	1037
f 1007 	1101 	985
f 1082 	1095 	1089
f 985 	1101 	986
f 1102 	986 	1101
f 1102 	987 	986
f 1099 	1094 	1171
f 1088 	1094 	1099
f 1035 	1091 	1103
f 1035 	1103 	1100
f 1082 	1090 	1173
f 1107 	1098 	1096
f 1133 	1067 	1097
f 1156 	1163 	1037
f 1110 	1025 	1030
f 1108 	1104 	1079
f 1163 	1071 	1037
f 1110 	1130 	1096
f 1171 	1109 	1106
f 1171 	1106 	1099
f 1110 	1096 	1025
f 1111 	1109 	1171
f 1023 	969 	1102
f 1081 	1108 	1079
f 1114 	1192 	1017
f 1103 	1091 	1113
f 1115 	1112 	1113
f 1115 	1116 	1112
f 1125 	1112 	1116
f 1095 	1064 	1089
f 1102 	1070 	1023
f 1104 	1108 	1117
f 1123 	1034 	1023
f 1118 	1034 	1123
f 1105 	1142 	1206
f 1034 	1118 	1060
f 1108 	1119 	1117
f 1121 	1118 	1120
f 1014 	1114 	1017
f 1057 	1129 	1112
f 1001 	1119 	988
f 1125 	1126 	1112
f 1035 	943 	1115
f 1121 	1060 	1118
f 1199 	1013 	1017
f 1001 	1117 	1119
f 1070 	1123 	1023
f 1150 	1113 	1122
f 1073 	1068 	1082
f 1093 	1086 	1084
f 1057 	1112 	1126
f 1110 	1148 	1151
f 1118 	1123 	1120
f 1126 	951 	1057
f 1058 	1057 	951
f 943 	951 	1126
f 1129 	1122 	1112
f 1120 	1159 	1121
f 1128 	981 	984
f 1107 	1096 	1130
f 1159 	1160 	1121
f 1129 	1124 	1122
f 943 	1125 	1116
f 1151 	1131 	1110
f 1105 	1169 	1139
f 1128 	1145 	981
f 1126 	1125 	943
f 1120 	1123 	1070
f 1026 	1089 	1064
f 1074 	1058 	951
f 1127 	1128 	1114
f 966 	996 	1090
f 1077 	1078 	1084
f 1093 	1084 	1078
f 1145 	1128 	1127
f 1143 	1177 	1167
f 1133 	1003 	1067
f 1134 	1178 	1143
f 1132 	1124 	1129
f 1153 	1127 	1014
f 1063 	1120 	1070
f 1026 	1080 	978
f 1143 	1135 	1134
f 1132 	970 	1213
f 941 	940 	1136
f 1136 	1038 	1148
f 1120 	1063 	1037
f 1136 	1148 	1030
f 1129 	1048 	1132
f 1037 	1159 	1120
f 1138 	941 	1136
f 1134 	1140 	1181
f 1153 	1137 	1127
f 1138 	952 	941
f 974 	982 	1093
f 1135 	1140 	1134
f 1030 	1138 	1136
f 1130 	1110 	1131
f 1030 	1065 	1138
f 1001 	1046 	1139
f 1127 	1137 	1145
f 1069 	1141 	1143
f 1144 	1143 	1149
f 1135 	1143 	1144
f 1143 	1062 	1069
f 1149 	1143 	1152
f 1046 	1076 	1139
f 1092 	1142 	1048
f 1160 	1069 	1121
f 1059 	1151 	1043
f 982 	1094 	1093
f 1142 	970 	1132
f 1160 	1141 	1069
f 1146 	1140 	1144
f 1066 	1138 	1065
f 1142 	1132 	1048
f 1147 	1107 	995
f 1135 	1144 	1140
f 1133 	970 	1076
f 970 	1139 	1076
f 1066 	952 	1138
f 1092 	1206 	1142
f 981 	1145 	1172
f 1141 	1152 	1143
f 1137 	1005 	1145
f 1141 	1111 	1152
f 1186 	1187 	1122
f 1145 	1005 	1172
f 1187 	1150 	1122
f 1151 	1041 	1042
f 1153 	1014 	976
f 1147 	1011 	1008
f 1112 	1122 	1113
f 1038 	1041 	1148
f 1151 	1148 	1041
f 1098 	1022 	1096
f 1203 	1022 	1193
f 1015 	992 	1008
f 1155 	1153 	998
f 1149 	1152 	1146
f 1144 	1149 	1146
f 1156 	1157 	1158
f 1113 	1158 	1157
f 1025 	1096 	1022
f 1187 	1154 	1150
f 1152 	1111 	1146
f 1013 	973 	950
f 993 	1155 	998
f 992 	1015 	1046
f 1042 	1043 	1151
f 1100 	1103 	1113
f 1100 	1113 	1157
f 1171 	1146 	1111
f 1154 	1158 	1150
f 1193 	1161 	1189
f 1059 	1131 	1151
f 1146 	950 	1140
f 949 	1140 	950
f 998 	1153 	976
f 1153 	1155 	1137
f 1171 	1175 	1146
f 1158 	1113 	1150
f 1162 	1131 	1059
f 1156 	1037 	1157
f 1161 	1193 	1098
f 1059 	1073 	1162
f 1075 	1077 	1159
f 1159 	1037 	1071
f 1164 	1162 	1073
f 1098 	1193 	1022
f 1000 	1140 	949
f 998 	1020 	993
f 1164 	1073 	1082
f 1158 	1072 	1156
f 1163 	1156 	1072
f 1165 	1189 	1161
f 1209 	1210 	1202
f 1106 	1109 	1159
f 1160 	1159 	1109
f 1165 	1168 	1189
f 1137 	993 	997
f 1155 	993 	1137
f 1109 	1111 	1160
f 1141 	1160 	1111
f 951 	1167 	1074
f 1169 	1176 	1158
f 1074 	1170 	1058
f 1129 	1058 	1170
f 1163 	1072 	1071
f 1098 	1168 	1165
f 1098 	1165 	1161
f 1078 	1158 	1176
f 1166 	1162 	1164
f 1078 	1072 	1158
f 1170 	1074 	1167
f 1189 	1168 	1174
f 1005 	1137 	997
f 1171 	1094 	1175
f 1173 	1166 	1164
f 1098 	1107 	1168
f 1174 	1168 	1107
f 1164 	1082 	1173
f 1178 	1179 	1143
f 1179 	1180 	1143
f 1177 	1143 	1180
f 1169 	1158 	1154
f 1013 	1175 	1014
f 1046 	1001 	992
f 1169 	1154 	1195
f 1176 	974 	1093
f 1090 	996 	1173
f 1181 	1178 	1134
f 1107 	1147 	1174
f 1097 	1202 	1213
f 1130 	1131 	1166
f 1005 	1003 	1172
f 1166 	1107 	1130
f 1174 	1147 	1008
f 1174 	1008 	1189
f 1044 	1202 	1061
f 1166 	1131 	1162
f 1182 	1183 	995
f 1182 	995 	1184
f 1061 	1202 	1097
f 1181 	1185 	1179
f 1205 	995 	1204
f 1180 	1179 	1185
f 1173 	995 	1166
f 977 	1108 	1081
f 950 	1175 	1013
f 1176 	1093 	1078
f 995 	1173 	996
f 1179 	1178 	1181
f 1122 	1124 	1186
f 1205 	1198 	995
f 995 	1190 	1184
f 977 	1191 	1189
f 1188 	1189 	1191
f 1079 	1104 	1187
f 995 	1107 	1166
f 1191 	977 	1081
f 1182 	1184 	984
f 1193 	1189 	1188
f 1207 	1203 	1188
f 1187 	1186 	1079
f 1189 	992 	977
f 1105 	1176 	1169
f 1192 	984 	1184
f 974 	1176 	1206
f 1187 	1104 	1117
f 1011 	1147 	995
f 1000 	1181 	1140
f 1192 	1184 	1190
f 1008 	992 	1189
f 950 	973 	1196
f 1206 	1176 	1105
f 1187 	1195 	1154
f 1006 	1048 	1181
f 943 	1028 	1197
f 1032 	1212 	966
f 1206 	1004 	974
f 1196 	949 	950
f 1087 	1194 	1081
f 1197 	951 	943
f 1187 	1117 	1195
f 1190 	995 	1198
f 1000 	1006 	1181
f 955 	1197 	1200
f 1081 	1194 	1191
f 996 	966 	1212
f 1027 	1021 	1199
f 1197 	955 	951
f 1201 	1085 	1186
f 1079 	1186 	1085
f 1197 	964 	1200
f 1193 	1188 	1203
f 1017 	1009 	1199
f 964 	1197 	1040
f 1009 	1192 	1198
f 1198 	1192 	1190
f 1194 	1202 	1191
f 1167 	1177 	1170
f 963 	1101 	1007
f 1201 	1186 	1124
f 1196 	973 	1199
f 1169 	1195 	1117
f 1199 	1021 	1208
f 1180 	1185 	1177
f 1170 	1177 	1185
f 1010 	963 	1007
f 1188 	1202 	1210
f 1021 	980 	1208
f 963 	1010 	1002
f 1199 	1208 	1196
f 1001 	1169 	1117
f 1029 	1004 	1092
f 1202 	1188 	1191
f 1188 	1210 	1211
f 1188 	1211 	1207
f 1204 	996 	1212
f 955 	1200 	964
f 1132 	1213 	1085
f 1201 	1132 	1085
f 1048 	1129 	1185
f 1204 	1009 	1205
f 1198 	1205 	1009
f 1132 	1201 	1124
f 1209 	1026 	1210
f 1210 	1026 	1211
f 1196 	1208 	972
f 1206 	1092 	1004
f 1080 	1026 	1214
f 1048 	1185 	1181
f 1204 	1212 	1009
f 991 	994 	1196
f 994 	949 	1196
f 1001 	1139 	1169
f 991 	1196 	972
f 1203 	1207 	1022
f 1185 	1129 	1170
f 1022 	1207 	1211
f 1175 	1094 	983
f 1209 	1214 	1026
f 1059 	1043 	961
f 965 	961 	1043
f 1067 	980 	1054
f 961 	968 	1215
f 950 	1146 	1175
f 1202 	1044 	1209
f 1032 	1027 	1212
f 1059 	961 	1045
f 1215 	1045 	961
f 1080 	1214 	1044
f 982 	983 	1094
f 1043 	1045 	1215
f 1043 	1215 	962
f 1043 	962 	965
f 1092 	1048 	1006
f 1017 	1192 	1009
f 980 	1021 	1054
f 1215 	968 	1055
f 1073 	1055 	968
f 968 	967 	1056
f 968 	1056 	1073
f 1014 	1175 	983
f 1029 	1092 	1006
f 1055 	1056 	1215
f 962 	1215 	1056
f 962 	1056 	967
f 1027 	1199 	1009
f 1202 	1194 	1213
f 1128 	984 	1192
f 1056 	1055 	1053
f 1055 	1043 	1053
f 1045 	1043 	1055
f 954 	1053 	1043
f 1042 	1041 	1043
f 954 	1043 	1041
f 954 	1041 	1038
f 954 	1038 	940
f 954 	940 	939
f 1213 	1194 	1087
f 1192 	1114 	1128
f 978 	966 	1090
f 1213 	1087 	1085
f 984 	1015 	1183
f 1090 	1089 	978
f 1089 	1026 	978
f 1183 	1182 	984
f 1139 	970 	1105
f 1142 	1105 	970
f 1097 	970 	1133
f 1097 	1213 	970
f 1009 	1212 	1027
# 558 faces

 #end of obj_3

