# Object Export From Tinkercad Server 2015

mtllib obj.mtl

o obj_0
v 0.241 		0.9129 		-0.7987
v 0.2499 		0.8905 		-0.7899
v 0.2536 		0.8943 		-0.7947
v 0.2449 		0.9167 		-0.8036
v 0.0879 		1.1844 		-1.05
v 0.0838 		1.2067 		-1.0779
v 0.2016 		0.9991 		-1.0176
v 0.0297 		1.1163 		-1.0086
v 0.076 		1.1009 		-0.9976
v 0.0669 		1.0764 		-0.9929
v 0.0619 		1.0793 		-1.0051
v 0.0623 		1.0834 		-1.008
v 0.0643 		1.1029 		-1.0218
v 0.0653 		1.0774 		-1.006
v 0.0669 		1.0788 		-1.0079
v 0.0431 		1.1545 		-1.1088
v 0.0295 		1.0729 		-1.0573
v 0.055 		1.1873 		-1.1158
v 0.0293 		1.0615 		-1.0513
v 0.0291 		1.0618 		-1.0513
v 0.0741 		1.104 		-0.9977
v 0.031 		1.0743 		-1.059
v 0.0717 		0.8951 		-0.8775
v -1.6898 		-0.8954 		1.164
v 0.0374 		0.8598 		-0.8324
v 0.0441 		1.0713 		-1.0319
v -1.7833 		-0.7922 		1.2576
v 0.044 		1.0718 		-1.0316
v 0.0451 		1.0736 		-1.0311
v -1.8272 		-0.9608 		1.4434
v -1.6193 		-0.8863 		1.3155
v 0.0871 		0.8248 		-0.9052
v 0.0437 		1.0728 		-1.0311
v 0.0844 		0.8224 		-0.9039
v -1.6498 		-0.722 		1.3302
v 0.0855 		0.8228 		-0.8998
v -0.2281 		0.9038 		-0.6865
v 0.1366 		0.9544 		-1.1039
v -0.2549 		0.878 		-0.6546
v 0.1954 		1.003 		-1.0942
v 0.1204 		1.0049 		-1.0777
v -0.1616 		0.8751 		-0.702
v 0.0688 		1.0753 		-0.9931
v 0.1533 		1.0269 		-1.0345
v 0.1854 		0.927 		-1.0862
v 0.2363 		0.9301 		-0.8637
v 0.2354 		0.9356 		-0.8457
v -0.2062 		0.844 		-0.7615
v -0.2426 		0.811 		-0.6966
v -0.2781 		0.8624 		-0.6851
v -0.257 		0.8844 		-0.7245
v 0.0617 		1.0707 		-0.9914
v 0.2183 		0.949 		-1.043
v -0.2047 		0.8388 		-0.6676
v 0.0794 		0.8244 		-0.9092
v 0.0599 		0.8941 		-0.8736
v 0.0297 		0.8648 		-0.8357
v -0.2135 		0.8313 		-0.6577
v -1.6721 		-0.8765 		1.2444
v -1.6524 		-0.8673 		1.3038
v -1.6523 		-0.8671 		1.3039
v -1.7207 		-0.8489 		1.2264
v -1.656 		-0.8045 		1.3131
v -1.7502 		-0.8112 		1.2692
v -1.7043 		-0.7766 		1.296
v -1.7501 		-0.8112 		1.2693
# 66 vertices

g group_0_15506754

usemtl color_15506754
s 0

f 1 	2 	3
f 1 	3 	4
f 10 	11 	9
f 11 	12 	9
f 12 	13 	9
f 5 	9 	13
f 13 	26 	16
f 14 	15 	12
f 14 	12 	11
f 5 	21 	9
f 20 	22 	19
f 19 	22 	16
f 16 	22 	17
f 23 	25 	7
f 19 	16 	26
f 5 	13 	16
f 6 	5 	16
f 64 	66 	41
f 32 	34 	45
f 22 	20 	28
f 22 	28 	29
f 30 	27 	24
f 18 	6 	16
f 24 	31 	30
f 17 	22 	33
f 29 	33 	22
f 13 	8 	29
f 28 	26 	29
f 13 	29 	26
f 33 	29 	8
f 27 	30 	35
f 7 	40 	44
f 32 	53 	36
f 40 	38 	41
f 21 	37 	42
f 10 	43 	14
f 10 	14 	11
f 41 	44 	40
f 40 	45 	38
f 37 	21 	5
f 46 	47 	4
f 46 	4 	3
f 50 	51 	49
f 48 	49 	51
f 40 	53 	45
f 51 	16 	17
f 37 	54 	42
f 51 	18 	16
f 7 	53 	40
f 51 	17 	48
f 51 	37 	18
f 6 	37 	5
f 39 	37 	50
f 51 	50 	37
f 55 	34 	32
f 59 	62 	45
f 32 	36 	55
f 37 	6 	18
f 49 	48 	54
f 34 	55 	36
f 46 	23 	47
f 56 	47 	23
f 15 	14 	33
f 57 	65 	25
f 7 	25 	63
f 56 	57 	1
f 56 	1 	4
f 56 	4 	47
f 2 	1 	25
f 57 	25 	1
f 19 	26 	20
f 28 	20 	26
f 48 	17 	33
f 42 	48 	52
f 37 	39 	54
f 58 	54 	39
f 23 	44 	56
f 39 	50 	58
f 42 	52 	21
f 44 	57 	56
f 35 	30 	31
f 49 	58 	50
f 31 	24 	59
f 31 	59 	60
f 58 	49 	54
f 42 	54 	48
f 65 	57 	44
f 31 	60 	61
f 2 	23 	3
f 48 	33 	52
f 38 	45 	62
f 63 	25 	65
f 46 	3 	23
f 25 	23 	2
f 24 	62 	59
f 64 	41 	62
f 41 	38 	62
f 53 	61 	36
f 36 	59 	34
f 60 	36 	61
f 8 	12 	33
f 15 	33 	12
f 61 	63 	31
f 35 	31 	63
f 52 	43 	10
f 9 	21 	10
f 52 	10 	21
f 65 	41 	66
f 43 	52 	14
f 52 	33 	14
f 64 	62 	27
f 24 	27 	62
f 61 	53 	63
f 59 	36 	60
f 53 	32 	45
f 23 	7 	44
f 7 	63 	53
f 8 	13 	12
f 63 	65 	35
f 64 	27 	66
f 59 	45 	34
f 35 	65 	27
f 66 	27 	65
f 44 	41 	65
# 124 faces

 #end of obj_0

o obj_1
v -1.8999 		-0.1344 		0.8083
v -1.8024 		0.2658 		0.667
v -1.8504 		-0.084 		0.8961
v -2.1451 		0.5352 		0.7004
v -1.804 		0.2642 		0.7194
v -2.2741 		0.5183 		0.7418
v -1.768 		-0.0002 		0.6552
v -2.2669 		0.5257 		0.7545
v -2.5157 		0.9895 		0.4991
v -2.4844 		1.0656 		0.5686
v -2.4599 		1.0463 		0.5981
v -2.2648 		0.5266 		0.7551
v -2.177 		1.3755 		0.2697
v -2.0466 		1.4982 		0.0625
v -2.0499 		1.5049 		0.0723
v -2.2641 		0.5269 		0.7554
v -2.2553 		1.8252 		-0.0913
v -2.0752 		1.4693 		0.0123
v -2.0751 		1.4693 		0.0124
v -2.0826 		1.4683 		0.0095
v -2.5183 		1.031 		0.5083
v -2.0637 		1.4809 		0.0325
v -2.0743 		1.4702 		0.0139
v -1.8526 		0.2147 		0.5787
v -2.0363 		1.4359 		-0.0328
v -1.7389 		0.2645 		0.6026
v -1.7393 		0.2705 		0.6046
v -2.1453 		0.5356 		0.7004
v -1.801 		0.3729 		0.6191
v -1.8363 		0.4438 		0.5924
v -1.8326 		0.4476 		0.5517
v -2.0984 		0.9076 		0.4754
v -2.0984 		0.9076 		0.4754
v -2.1134 		0.9246 		0.472
v -2.1134 		0.9246 		0.472
v -2.3315 		1.749 		-0.0459
v -1.8459 		0.2758 		0.5232
v -1.8924 		0.3868 		0.4939
v -2.0833 		0.9241 		0.4295
v -1.8996 		0.3794 		0.4937
v -2.0828 		0.9236 		0.4295
v -2.2362 		1.0644 		0.4441
v -1.9507 		0.3274 		0.5521
v -2.0627 		0.9439 		0.4435
v -2.0587 		0.9407 		0.4437
v -2.0604 		0.9464 		0.4451
v -1.9645 		0.3135 		0.5678
v -1.9623 		0.3156 		0.5615
v -1.9543 		0.3239 		0.5497
v -2.193 		0.883 		0.3777
v -2.1817 		0.872 		0.3777
v -2.3127 		0.6454 		0.747
v -2.1689 		0.8595 		0.3778
v -2.1673 		0.8577 		0.3777
v -1.8372 		0.4429 		0.602
v -1.8529 		0.427 		0.6202
v -2.1547 		1.3982 		0.244
v -2.1823 		0.8751 		0.3786
v -2.1 		1.4539 		0.1809
v -1.865 		0.4146 		0.4949
v -2.1826 		0.8755 		0.3787
v -2.0987 		0.932 		0.427
v -2.189 		0.9187 		0.3915
v -2.1018 		0.2179 		0.9163
v -2.1872 		0.1311 		0.7668
v -1.7179 		0.0508 		0.7435
v -1.9962 		1.3797 		-0.022
v -2.1935 		0.9181 		0.3898
v -2.1581 		0.8469 		0.3771
v -2.4528 		0.8851 		0.6868
v -1.9297 		-0.122 		0.7668
v -2.2476 		0.5626 		0.7556
v -2.2594 		0.5383 		0.7553
v -2.0593 		0.9475 		0.4403
v -2.1225 		1.6536 		-0.0677
v -2.2473 		0.5627 		0.7554
v -2.1154 		0.8019 		0.3716
v -2.0718 		0.8149 		0.381
v -2.2001 		0.1607 		0.8083
v -2.0693 		1.4152 		-0.0213
v -2.0298 		1.3583 		-0.0108
v -2.509 		0.828 		0.5888
v -2.2234 		1.5923 		0.0255
v -2.3801 		1.36 		0.2071
v -2.0946 		1.4486 		0.1809
v -2.3607 		1.3669 		0.1716
v -2.2082 		1.3362 		0.1029
v -2.2018 		1.3298 		0.1029
v -2.1604 		1.2892 		0.1029
v -2.4327 		0.8642 		0.6564
v -2.3213 		1.31 		0.182
v -2.1459 		1.2965 		0.1104
v -2.2014 		1.3507 		0.1103
v -2.2117 		1.3402 		0.1032
v -2.1107 		1.443 		0.1735
v -2.0862 		1.419 		0.1735
v -2.0668 		-0.0032 		0.9726
v -2.0734 		1.3738 		0.1621
v -2.0721 		1.3643 		0.1592
v -2.0713 		1.3664 		0.1603
v -2.2131 		1.5785 		-0.0147
v -2.0713 		1.3578 		0.1573
v -2.1506 		0.211 		0.8961
v -2.3403 		1.3035 		0.2166
v -2.3097 		0.6613 		0.7035
v -2.03 		0.0342 		0.9815
v -2.0863 		1.4678 		0.0082
v -2.0783 		1.4112 		0.1735
v -2.3009 		1.9043 		-0.1528
v -2.1154 		-0.0527 		0.832
v -2.1169 		-0.0543 		0.8843
v -2.1305 		0.2316 		0.8472
v -2.1625 		0.199 		0.7904
v -2.1623 		0.3001 		0.8256
v -2.4666 		0.8297 		0.5961
v -2.3033 		1.822 		-0.1043
v -2.0538 		1.5551 		-0.0496
v -2.1923 		0.5124 		0.6763
v -2.3432 		1.7642 		-0.0057
v -2.3147 		1.7933 		0.0453
v -2.1404 		0.5284 		0.6813
v -2.0616 		1.5472 		-0.0406
v -2.1726 		0.4958 		0.6244
v -2.1748 		0.4949 		0.6238
v -2.2825 		0.9915 		0.3849
v -2.1699 		0.4985 		0.6291
v -2.1585 		0.51 		0.6492
v -2.1614 		0.2001 		0.7633
v -2.1609 		0.1992 		0.7619
v -2.1557 		1.1781 		0.1621
v -2.1725 		0.4958 		0.6244
v -2.6107 		0.9285 		0.7203
v -2.6447 		0.8939 		0.6599
v -2.568 		0.9305 		0.7267
v -2.1008 		1.5316 		-0.0505
v -2.1412 		0.5296 		0.684
v -2.6239 		0.8737 		0.6277
v -2.1761 		1.1938 		0.1686
v -2.1594 		0.1969 		0.7578
v -2.2264 		1.8546 		-0.0412
v -2.1681 		1.2019 		0.1452
v -2.2897 		1.4392 		0.2967
v -2.2502 		1.3824 		0.3071
v -2.1143 		1.4634 		-0.0036
v -2.1595 		1.4789 		0.0129
v -2.1142 		1.4634 		-0.0035
v -2.0588 		0.0049 		0.7668
v -1.9663 		-0.0294 		0.7342
v -2.1683 		1.482 		0.0161
v -2.1117 		0.2507 		0.8512
v -2.1101 		0.251 		0.8518
v -2.0947 		0.0968 		0.7342
v -2.2829 		1.362 		0.3178
v -2.1023 		1.2911 		0.1235
v -2.1043 		1.3016 		0.1264
v -2.0831 		1.3376 		0.1462
v -2.0943 		1.4668 		0.0051
v -2.1584 		0.5641 		0.7036
v -2.3859 		0.9147 		0.5998
v -2.1588 		0.5648 		0.7033
v -2.2743 		1.3016 		0.2253
v -2.2443 		1.3321 		0.278
v -2.2327 		1.3813 		0.1103
v -2.1525 		0.5524 		0.6958
v -2.4202 		0.8798 		0.5404
v -2.2389 		1.4334 		0.1263
v -2.2141 		1.4793 		0.1507
v -2.207 		1.4926 		0.1578
v -2.176 		1.4996 		0.1708
v -2.1695 		1.5008 		0.1734
v -2.1568 		1.4884 		0.1735
v -2.2741 		1.8075 		0.0552
v -2.2747 		1.3149 		0.2152
v -2.2425 		1.3806 		0.2491
v -2.2425 		0.8124 		0.4787
v -2.2925 		0.8314 		0.4961
v -2.2511 		0.8115 		0.4754
v -2.2779 		1.2979 		0.2189
v -2.0503 		1.5057 		0.0735
v -2.1262 		0.6677 		0.6105
v -2.2775 		1.3091 		0.2123
v -2.2722 		1.2899 		0.2074
v -2.2273 		0.8141 		0.4844
v -2.2797 		0.8473 		0.5225
v -2.0659 		0.0961 		0.7393
v -2.0939 		1.6827 		-0.0167
v -1.9675 		-0.0006 		0.7393
v -2.1319 		1.3743 		0.0577
v -2.1831 		1.4868 		0.0215
v -2.2908 		0.8309 		0.495
v -2.0745 		1.4328 		0.1589
v -2.0668 		1.3835 		0.1399
v -2.2058 		1.335 		0.2895
v -2.2016 		1.3394 		0.2882
v -2.1662 		0.8387 		0.5361
v -2.2406 		1.3324 		0.2791
v -2.2553 		0.8649 		0.5549
v -2.1717 		0.833 		0.5262
v -2.1484 		0.6734 		0.6049
v -2.1861 		0.6537 		0.5851
v -2.2609 		0.8666 		0.5561
v -2.2194 		0.6359 		0.5676
v -2.2191 		0.631 		0.566
v -2.0378 		0.0262 		0.7647
v -2.1964 		1.3807 		0.2649
v -2.1023 		1.627 		-0.1057
v -2.2806 		1.9663 		-0.0742
v -2.2429 		0.8126 		0.4786
v -2.2941 		0.8325 		0.4967
v -2.3092 		1.9373 		-0.1252
v -2.064 		1.5732 		-0.0958
v -2.1826 		0.5195 		0.6164
v -2.2211 		1.5004 		0.0356
v -2.2248 		1.5095 		0.0492
v -2.2594 		0.8211 		0.4759
v -1.8443 		-0.0351 		0.9163
v -2.2435 		1.9627 		-0.0516
v -2.1054 		0.2519 		0.8533
v -2.4433 		0.8991 		0.5114
v -1.9734 		0.0918 		0.9163
v -2.0449 		1.6855 		-0.0045
v -2.0093 		0.1836 		0.8837
v -2.0066 		1.6317 		0.0054
v -2.1786 		1.5565 		0.13
v -2.1643 		1.5588 		0.136
v -2.025 		1.5845 		0.0005
v -2.2458 		1.8805 		-0.0032
v -2.0522 		1.5096 		0.0791
v -2.0566 		1.5213 		0.0967
v -1.8809 		0.0575 		0.8837
v -1.9527 		0.2412 		0.8185
v -1.9619 		0.3327 		0.5501
v -1.9522 		0.3289 		0.5521
v -2.3872 		0.9562 		0.6094
v -1.8243 		0.1151 		0.8185
v -1.9582 		0.5309 		0.6203
v -2.0649 		0.5032 		0.5742
v -2.0779 		0.497 		0.5676
v -2.0571 		0.3006 		0.7984
v -1.9923 		0.3681 		0.552
v -2.0327 		1.5765 		0.0096
v -2.1757 		0.8747 		0.5365
v -2.0052 		0.5326 		0.6049
v -2.084 		1.284 		0.2697
v -2.0771 		1.1776 		0.327
v -2.1546 		0.8505 		0.5257
v -2.1136 		0.5087 		0.5595
v -2.01 		0.5711 		0.6166
v -2.0433 		1.59 		0.0507
v -2.3965 		0.4902 		0.7523
v -2.3625 		0.5247 		0.8126
v -2.0101 		0.5731 		0.6173
v -2.1495 		0.8557 		0.5255
v -2.1515 		0.8653 		0.5282
v -1.9522 		0.2118 		0.8129
v -1.9677 		0.0976 		0.888
v -1.8538 		0.1151 		0.8129
v -2.2897 		0.713 		0.5703
v -2.3383 		0.5623 		0.8095
v -2.2418 		0.7618 		0.6037
v -1.9789 		1.4944 		0.0683
v -1.9958 		0.1675 		0.8627
v -1.9394 		1.4375 		0.0788
v -2.2607 		0.8694 		0.5546
v -2.1637 		1.558 		0.1369
v -2.0858 		1.2857 		0.2697
v -2.1145 		1.314 		0.2697
v -2.1479 		1.3469 		0.2697
v -2.2941 		0.8355 		0.4947
v -2.144 		1.338 		0.2679
v -2.1812 		1.3389 		0.2811
v -1.8973 		0.0708 		0.8627
v -2.0737 		0.2466 		0.6355
v -2.221 		1.4993 		0.0355
v -2.1828 		1.3696 		0.2657
v -2.1522 		0.8529 		0.5236
v -2.1031 		0.2537 		0.6922
v -2.2595 		1.2916 		0.2123
v -2.1114 		0.2453 		0.7018
v -2.2293 		1.4165 		0.0881
v -2.0848 		1.2868 		0.2704
v -2.1001 		0.2624 		0.6922
v -2.2239 		0.7799 		0.4737
v -2.1867 		0.8178 		0.4996
v -1.9094 		0.0285 		0.6681
v -1.9453 		0.1204 		0.6355
v -2.1456 		0.8596 		0.5282
v -1.8162 		-0.0065 		0.6355
v -1.8887 		0.178 		0.5703
v -2.2046 		0.7996 		0.4678
v -2.0378 		0.1547 		0.6681
v -2.2057 		0.7985 		0.4659
v -2.0683 		0.2948 		0.6552
v -2.2013 		0.8029 		0.4405
v -1.8686 		1.6722 		-0.1381
v -1.8972 		1.6431 		-0.1891
v -2.2315 		0.8178 		0.4376
v -2.1988 		0.8055 		0.4261
v -2.1029 		1.5367 		0.1151
v -2.0845 		0.5136 		0.5327
v -2.073 		0.5153 		0.5223
v -2.057 		1.5208 		0.0983
v -2.086 		0.2768 		0.6961
v -2.0819 		0.281 		0.6967
v -1.9236 		0.044 		0.6886
v -1.9665 		1.7424 		-0.2072
v -1.9817 		0.3305 		0.5676
v -1.938 		1.7714 		-0.1562
v -2.0623 		1.9502 		-0.1888
v -1.9883 		0.3334 		0.785
v -1.9588 		1.4307 		0.1143
v -1.9982 		1.4875 		0.1039
v -2.2566 		0.9864 		0.4846
v -2.2642 		0.9787 		0.4714
v -1.9464 		1.7158 		-0.2452
v -2.0142 		0.5768 		0.6169
v -1.951 		0.1145 		0.6637
v -1.956 		1.2908 		0.1734
v -2.3223 		1.4188 		0.3074
v -2.0746 		0.521 		0.5199
v -2.0134 		1.2324 		0.0722
v -1.9357 		1.6468 		-0.2121
v -2.0181 		0.3459 		0.7435
v -1.9847 		0.3411 		0.5632
v -2.2898 		0.952 		0.4255
v -2.29 		0.9519 		0.4253
v -2.0488 		0.3091 		0.7887
v -2.2788 		0.9634 		0.4453
v -2.0503 		0.3132 		0.7805
v -2.3061 		1.5652 		0.2137
v -2.022 		0.1407 		0.6886
v -2.3635 		1.5067 		0.1125
v -2.2293 		1.5677 		0.1885
v -2.0436 		0.6652 		0.5822
v -2.2784 		1.542 		0.2306
v -2.0192 		1.3022 		0.2225
v -2.0404 		0.6655 		0.5803
v -1.9697 		1.3282 		0.1795
v -2.3495 		1.4696 		0.1055
v -2.0493 		0.3142 		0.7539
v -1.7308 		0.0804 		0.785
v -2.0496 		0.3138 		0.7599
v -2.0282 		1.9349 		-0.3248
v -2.0044 		1.2644 		0.2155
v -2.0995 		0.6084 		0.4833
v -2.0982 		0.6085 		0.4825
v -1.8889 		1.7742 		-0.144
v -2.055 		0.3083 		0.7437
v -2.1024 		1.9394 		-0.2864
v -2.0785 		1.2931 		0.2428
v -2.0777 		1.2901 		0.2424
v -2.0651 		1.2696 		0.2126
v -2.0842 		1.2873 		0.2679
v -1.8599 		0.2073 		0.785
v -1.8776 		1.7059 		-0.1105
v -2.0909 		1.9212 		-0.2398
v -2.1948 		1.6214 		0.0765
v -2.0902 		1.2298 		0.0974
v -2.0129 		0.5723 		0.6187
v -2.0408 		1.2559 		0.0544
v -2.1352 		1.2323 		0.1417
v -2.0612 		1.2066 		0.1148
v -2.1351 		1.2322 		0.1417
v -2.1368 		1.2338 		0.1403
v -1.9725 		1.9988 		-0.268
v -2.0014 		1.9694 		-0.3181
v -1.8809 		0.1859 		0.7871
v -2.258 		1.5913 		0.1702
v -2.3151 		1.5332 		0.0704
v -2.299 		0.4931 		0.6977
v -1.8474 		1.8193 		-0.2354
v -1.8763 		1.7899 		-0.2855
v -2.2985 		0.4923 		0.6955
v -2.0381 		0.8491 		0.44
v -1.8594 		1.8329 		-0.1947
v -2.2984 		0.4923 		0.6955
v -2.1022 		1.2353 		0.1523
v -2.0987 		1.2356 		0.1535
v -2.1557 		1.2146 		0.1432
v -1.9168 		1.7744 		-0.2959
v -1.9708 		1.9934 		-0.2237
v -2.2898 		0.9516 		0.4249
v -2.2864 		0.9394 		0.4216
v -2.2187 		1.5348 		0.0893
v -2.202 		1.552 		0.1189
v -2.1382 		0.8671 		0.511
v -2.2301 		1.5232 		0.0693
v -2.1888 		0.8157 		0.4221
v -2.1648 		0.8401 		0.387
v -2.1632 		0.8418 		0.3846
v -2.226 		1.5127 		0.0538
v -2.0529 		0.8655 		0.4807
v -2.0446 		1.9982 		-0.1839
v -2.2468 		0.98 		0.4919
v -2.2555 		0.9861 		0.4852
v -2.256 		0.9865 		0.4848
v -2.1703 		1.1997 		0.1601
v -2.2628 		1.2766 		0.1884
v -2.1342 		2.0526 		-0.2078
v -2.2612 		1.2782 		0.1832
v -2.162 		0.9414 		0.4899
v -2.2627 		1.2767 		0.188
v -2.2676 		1.2834 		0.198
v -2.1621 		2.0241 		-0.2584
v -2.2014 		1.5526 		0.1199
v -2.1846 		1.5556 		0.1275
v -2.106 		0.8999 		0.4822
v -2.1134 		0.9246 		0.472
v -2.201 		1.5527 		0.1201
v -2.1682 		1.9823 		-0.2728
v -2.1056 		0.9004 		0.4818
v -2.2603 		1.2908 		0.1743
v -2.092 		1.4086 		0.2025
v -2.1108 		2.0407 		-0.1716
v -2.0867 		1.3256 		0.2472
v -2.0845 		1.317 		0.2461
v -2.3004 		1.4954 		0.0634
v -2.2178 		0.8846 		0.3909
v -2.1581 		1.2534 		0.1223
v -2.1525 		1.2482 		0.127
v -2.3941 		0.5054 		0.7106
v -2.2063 		1.3291 		0.1059
v -2.1882 		1.2638 		0.1332
v -2.2405 		1.2741 		0.169
v -2.3685 		0.5885 		0.6481
v -2.1557 		1.6369 		0.0865
v -2.3022 		0.5071 		0.6598
v -2.2999 		0.4974 		0.6843
v -2.213 		0.5085 		0.6078
v -2.3018 		0.5071 		0.6596
v -2.2137 		0.5101 		0.6072
v -2.1991 		0.505 		0.6133
v -2.3439 		0.6264 		0.6441
v -2.2115 		1.4474 		0.1861
# 434 vertices

g group_1_6970902

usemtl color_6970902
s 0

f 86 	85 	84
f 90 	359 	68
f 86 	85 	91
f 224 	408 	94
f 92 	93 	95
f 96 	95 	93
f 93 	92 	97
f 81 	245 	327
f 98 	99 	100
f 98 	100 	101
f 96 	97 	95
f 92 	95 	97
f 74 	317 	72
f 99 	100 	105
f 99 	105 	107
f 86 	84 	85
f 85 	89 	91
f 74 	78 	317
f 103 	104 	106
f 317 	78 	82
f 89 	88 	91
f 110 	140 	108
f 110 	108 	100
f 317 	82 	139
f 89 	451 	85
f 111 	112 	110
f 109 	113 	114
f 109 	114 	115
f 451 	86 	84
f 119 	120 	117
f 116 	117 	120
f 80 	327 	88
f 124 	117 	127
f 119 	117 	124
f 109 	106 	122
f 106 	104 	122
f 121 	122 	104
f 126 	97 	104
f 97 	96 	104
f 121 	104 	96
f 88 	451 	89
f 102 	167 	149
f 73 	132 	67
f 84 	85 	451
f 81 	451 	80
f 88 	80 	451
f 69 	67 	132
f 129 	127 	128
f 127 	124 	128
f 134 	127 	129
f 124 	119 	128
f 119 	120 	128
f 120 	135 	128
f 105 	128 	135
f 107 	105 	135
f 78 	217 	82
f 112 	111 	140
f 440 	140 	111
f 384 	387 	133
f 145 	339 	131
f 139 	138 	325
f 142 	325 	138
f 135 	196 	143
f 110 	112 	140
f 226 	425 	142
f 155 	158 	154
f 423 	186 	149
f 156 	118 	171
f 160 	153 	159
f 159 	154 	158
f 154 	159 	153
f 136 	118 	156
f 162 	151 	161
f 161 	151 	125
f 170 	152 	157
f 146 	91 	147
f 451 	423 	450
f 149 	450 	423
f 150 	152 	170
f 164 	165 	166
f 149 	453 	450
f 91 	133 	147
f 118 	400 	171
f 258 	81 	80
f 457 	453 	149
f 182 	201 	167
f 84 	254 	85
f 86 	254 	84
f 173 	254 	86
f 162 	174 	164
f 221 	222 	85
f 212 	254 	223
f 179 	145 	178
f 169 	178 	145
f 222 	258 	85
f 258 	80 	88
f 181 	491 	148
f 67 	177 	137
f 268 	171 	266
f 70 	184 	94
f 180 	179 	178
f 177 	145 	131
f 464 	170 	468
f 187 	414 	193
f 156 	171 	181
f 145 	194 	195
f 195 	205 	145
f 172 	130 	163
f 184 	70 	187
f 184 	187 	193
f 182 	102 	175
f 163 	130 	169
f 145 	179 	194
f 143 	196 	144
f 445 	429 	196
f 182 	167 	102
f 189 	304 	197
f 190 	304 	189
f 303 	193 	304
f 177 	67 	163
f 195 	194 	439
f 179 	436 	194
f 197 	304 	192
f 102 	149 	185
f 163 	145 	177
f 83 	188 	201
f 184 	202 	94
f 163 	67 	69
f 120 	196 	135
f 204 	196 	191
f 127 	191 	196
f 188 	223 	201
f 88 	89 	188
f 120 	119 	196
f 119 	124 	196
f 127 	196 	124
f 339 	145 	205
f 145 	163 	169
f 200 	76 	198
f 207 	196 	204
f 201 	182 	83
f 439 	442 	195
f 201 	210 	211
f 201 	212 	210
f 202 	184 	193
f 137 	176 	214
f 215 	167 	211
f 255 	167 	215
f 214 	176 	213
f 217 	216 	130
f 169 	130 	216
f 178 	169 	216
f 294 	245 	307
f 131 	218 	176
f 213 	176 	218
f 155 	220 	158
f 221 	158 	220
f 148 	203 	75
f 307 	80 	88
f 219 	209 	208
f 83 	422 	206
f 222 	221 	220
f 498 	313 	190
f 142 	224 	226
f 201 	223 	212
f 222 	165 	168
f 228 	219 	227
f 262 	219 	228
f 170 	227 	219
f 202 	230 	94
f 224 	94 	230
f 224 	230 	226
f 176 	177 	131
f 88 	188 	307
f 230 	425 	226
f 325 	142 	425
f 237 	161 	233
f 234 	235 	233
f 235 	237 	233
f 236 	237 	235
f 232 	233 	161
f 229 	232 	161
f 159 	229 	161
f 210 	91 	211
f 156 	181 	231
f 227 	239 	228
f 240 	228 	239
f 156 	231 	225
f 212 	211 	210
f 382 	400 	118
f 125 	151 	378
f 377 	378 	151
f 227 	170 	244
f 241 	250 	243
f 242 	250 	231
f 253 	214 	213
f 211 	223 	451
f 392 	391 	244
f 227 	244 	391
f 225 	231 	250
f 451 	450 	215
f 451 	215 	211
f 212 	223 	211
f 173 	451 	223
f 154 	146 	147
f 177 	176 	137
f 244 	247 	227
f 81 	307 	245
f 239 	227 	247
f 131 	357 	218
f 245 	294 	327
f 155 	154 	147
f 147 	424 	155
f 249 	250 	241
f 242 	243 	250
f 294 	451 	245
f 81 	245 	451
f 248 	191 	244
f 469 	191 	248
f 159 	158 	254
f 248 	247 	244
f 340 	167 	255
f 174 	162 	257
f 256 	243 	242
f 255 	215 	483
f 91 	483 	215
f 162 	161 	257
f 334 	79 	209
f 215 	279 	255
f 231 	181 	285
f 219 	337 	209
f 483 	91 	146
f 259 	260 	219
f 174 	257 	258
f 168 	165 	258
f 165 	164 	258
f 174 	258 	164
f 346 	254 	211
f 210 	211 	254
f 88 	89 	258
f 219 	262 	259
f 210 	254 	212
f 261 	263 	264
f 171 	246 	265
f 206 	293 	315
f 260 	259 	108
f 357 	251 	218
f 255 	346 	215
f 211 	215 	346
f 263 	225 	267
f 250 	267 	225
f 228 	108 	262
f 257 	245 	258
f 158 	221 	254
f 221 	85 	254
f 223 	254 	173
f 218 	251 	213
f 228 	240 	262
f 499 	268 	269
f 371 	253 	270
f 89 	85 	258
f 168 	258 	222
f 253 	213 	270
f 256 	250 	274
f 275 	250 	256
f 249 	274 	250
f 189 	197 	278
f 251 	270 	213
f 167 	279 	280
f 216 	217 	180
f 178 	216 	180
f 285 	181 	148
f 183 	141 	272
f 231 	363 	242
f 172 	282 	296
f 272 	277 	183
f 217 	130 	284
f 307 	315 	294
f 163 	69 	282
f 278 	197 	192
f 280 	279 	435
f 256 	363 	281
f 242 	363 	256
f 282 	69 	132
f 192 	189 	278
f 172 	163 	282
f 307 	83 	206
f 256 	274 	281
f 279 	215 	280
f 148 	75 	285
f 171 	265 	266
f 286 	288 	172
f 368 	315 	365
f 288 	297 	130
f 130 	172 	288
f 295 	294 	315
f 289 	287 	292
f 298 	299 	115
f 109 	115 	299
f 434 	291 	290
f 296 	286 	172
f 252 	292 	287
f 282 	301 	296
f 300 	156 	225
f 300 	136 	156
f 318 	314 	302
f 304 	306 	303
f 302 	309 	306
f 292 	252 	141
f 276 	185 	273
f 186 	273 	185
f 292 	141 	183
f 122 	302 	306
f 122 	306 	299
f 175 	102 	276
f 284 	130 	305
f 393 	305 	130
f 225 	308 	300
f 295 	291 	294
f 290 	294 	291
f 290 	472 	294
f 122 	299 	109
f 102 	185 	276
f 240 	271 	260
f 262 	240 	259
f 260 	259 	240
f 303 	306 	309
f 238 	283 	273
f 140 	440 	311
f 440 	418 	311
f 188 	83 	307
f 261 	312 	263
f 304 	313 	306
f 263 	308 	225
f 206 	315 	307
f 199 	316 	198
f 238 	273 	186
f 309 	302 	314
f 436 	179 	180
f 78 	180 	217
f 319 	320 	312
f 320 	308 	312
f 263 	312 	308
f 293 	283 	238
f 264 	263 	312
f 317 	200 	198
f 288 	286 	328
f 325 	200 	317
f 328 	286 	322
f 246 	326 	265
f 324 	268 	326
f 288 	321 	297
f 91 	88 	327
f 80 	81 	327
f 329 	91 	327
f 328 	321 	288
f 265 	326 	266
f 139 	325 	317
f 234 	472 	235
f 91 	329 	133
f 200 	325 	136
f 269 	268 	324
f 118 	136 	325
f 434 	399 	291
f 333 	311 	332
f 310 	332 	311
f 378 	377 	327
f 267 	250 	330
f 275 	335 	250
f 391 	394 	335
f 108 	140 	311
f 108 	311 	333
f 108 	333 	336
f 108 	336 	337
f 108 	337 	260
f 439 	194 	436
f 291 	331 	290
f 235 	290 	331
f 235 	331 	236
f 420 	297 	321
f 336 	334 	337
f 334 	209 	337
f 323 	296 	301
f 266 	326 	268
f 260 	337 	219
f 320 	467 	308
f 272 	141 	372
f 259 	260 	337
f 338 	322 	286
f 340 	483 	279
f 338 	286 	296
f 271 	341 	260
f 337 	260 	341
f 336 	337 	341
f 296 	323 	338
f 267 	330 	263
f 330 	452 	263
f 312 	263 	342
f 167 	340 	279
f 443 	429 	262
f 227 	228 	344
f 248 	244 	344
f 244 	227 	344
f 228 	262 	429
f 345 	496 	343
f 346 	340 	280
f 279 	280 	340
f 262 	259 	443
f 292 	361 	289
f 496 	345 	205
f 275 	256 	335
f 335 	256 	281
f 310 	347 	332
f 333 	334 	336
f 243 	349 	241
f 249 	241 	349
f 249 	349 	350
f 346 	232 	229
f 79 	334 	341
f 336 	341 	334
f 274 	249 	241
f 122 	121 	302
f 355 	354 	351
f 353 	320 	319
f 109 	299 	106
f 299 	306 	106
f 488 	152 	154
f 93 	440 	96
f 248 	344 	247
f 341 	271 	344
f 239 	344 	240
f 247 	344 	239
f 126 	144 	97
f 93 	97 	440
f 351 	352 	355
f 357 	355 	352
f 356 	358 	249
f 241 	249 	358
f 343 	339 	345
f 343 	348 	339
f 256 	281 	243
f 205 	345 	339
f 357 	339 	355
f 358 	360 	241
f 271 	240 	344
f 249 	350 	356
f 255 	483 	340
f 357 	131 	339
f 359 	339 	348
f 277 	272 	388
f 354 	137 	351
f 349 	243 	360
f 360 	243 	281
f 255 	279 	340
f 214 	351 	137
f 103 	143 	104
f 348 	369 	359
f 214 	253 	351
f 364 	360 	363
f 360 	281 	363
f 366 	367 	306
f 313 	366 	306
f 103 	106 	143
f 295 	315 	368
f 498 	497 	366
f 67 	137 	354
f 327 	368 	399
f 399 	365 	331
f 274 	241 	360
f 281 	274 	360
f 365 	399 	368
f 386 	306 	367
f 327 	295 	368
f 368 	365 	295
f 291 	295 	365
f 331 	291 	365
f 363 	231 	285
f 366 	313 	498
f 293 	206 	375
f 371 	270 	383
f 159 	254 	229
f 346 	229 	254
f 383 	270 	397
f 459 	293 	375
f 255 	340 	346
f 383 	352 	371
f 237 	236 	365
f 331 	365 	236
f 369 	370 	359
f 369 	348 	495
f 495 	498 	369
f 368 	257 	365
f 257 	161 	365
f 237 	365 	161
f 440 	458 	96
f 182 	415 	422
f 414 	359 	370
f 292 	362 	361
f 422 	375 	206
f 257 	294 	245
f 81 	258 	245
f 351 	371 	352
f 113 	373 	114
f 257 	368 	294
f 295 	294 	368
f 253 	371 	351
f 354 	73 	67
f 372 	141 	374
f 295 	327 	294
f 143 	106 	306
f 462 	379 	76
f 380 	76 	379
f 76 	380 	394
f 252 	287 	374
f 393 	395 	224
f 391 	87 	394
f 374 	375 	372
f 357 	352 	397
f 406 	70 	408
f 252 	374 	141
f 227 	380 	228
f 379 	228 	380
f 329 	327 	377
f 187 	70 	406
f 94 	408 	70
f 425 	318 	382
f 302 	403 	318
f 272 	372 	381
f 370 	190 	189
f 438 	361 	362
f 192 	193 	414
f 414 	187 	406
f 327 	399 	378
f 414 	370 	192
f 189 	192 	370
f 380 	379 	330
f 352 	383 	397
f 130 	376 	389
f 73 	354 	90
f 150 	385 	398
f 385 	219 	208
f 298 	390 	299
f 76 	394 	87
f 132 	73 	68
f 90 	68 	73
f 224 	142 	393
f 219 	150 	170
f 392 	87 	391
f 219 	385 	150
f 397 	270 	251
f 408 	224 	395
f 388 	272 	381
f 380 	227 	394
f 394 	227 	391
f 398 	385 	396
f 130 	389 	393
f 393 	389 	395
f 251 	357 	397
f 373 	390 	298
f 115 	114 	298
f 373 	113 	299
f 390 	373 	299
f 391 	335 	392
f 440 	97 	144
f 378 	399 	208
f 403 	400 	382
f 399 	401 	208
f 377 	402 	404
f 277 	388 	362
f 171 	400 	246
f 403 	246 	400
f 373 	298 	114
f 277 	362 	183
f 109 	299 	113
f 152 	150 	405
f 382 	318 	403
f 150 	398 	405
f 68 	359 	389
f 362 	292 	183
f 406 	408 	389
f 395 	389 	408
f 326 	246 	261
f 329 	404 	384
f 301 	282 	407
f 410 	384 	404
f 302 	458 	403
f 387 	384 	410
f 132 	407 	282
f 402 	410 	404
f 132 	68 	407
f 329 	377 	404
f 412 	386 	411
f 359 	414 	389
f 406 	389 	414
f 417 	402 	416
f 410 	402 	417
f 482 	416 	402
f 376 	130 	297
f 428 	387 	410
f 409 	415 	476
f 297 	71 	376
f 412 	411 	269
f 499 	269 	411
f 71 	68 	376
f 410 	417 	418
f 444 	428 	418
f 410 	418 	428
f 413 	375 	374
f 192 	304 	193
f 310 	419 	347
f 297 	420 	71
f 287 	413 	374
f 349 	360 	412
f 386 	412 	306
f 193 	303 	202
f 415 	409 	381
f 310 	311 	417
f 418 	417 	311
f 412 	269 	349
f 309 	202 	303
f 71 	301 	407
f 416 	419 	417
f 419 	310 	417
f 324 	349 	269
f 304 	190 	313
f 301 	71 	420
f 401 	396 	385
f 401 	385 	208
f 433 	321 	328
f 416 	482 	166
f 485 	155 	424
f 186 	423 	238
f 230 	202 	314
f 309 	314 	202
f 185 	149 	186
f 421 	289 	361
f 230 	314 	425
f 424 	147 	426
f 422 	415 	381
f 321 	433 	420
f 372 	422 	381
f 318 	425 	314
f 427 	424 	429
f 287 	289 	421
f 454 	143 	412
f 360 	454 	412
f 375 	422 	372
f 428 	429 	424
f 430 	424 	427
f 382 	118 	425
f 325 	425 	118
f 426 	387 	428
f 323 	301 	420
f 421 	413 	287
f 426 	133 	387
f 322 	433 	328
f 434 	435 	396
f 317 	198 	316
f 424 	426 	428
f 246 	403 	261
f 452 	342 	403
f 338 	323 	433
f 322 	338 	433
f 111 	458 	440
f 442 	494 	205
f 205 	195 	442
f 443 	429 	428
f 68 	389 	376
f 443 	428 	444
f 433 	323 	420
f 343 	496 	495
f 445 	196 	207
f 205 	493 	496
f 486 	430 	445
f 121 	96 	458
f 250 	335 	394
f 394 	380 	250
f 330 	250 	380
f 104 	143 	144
f 429 	443 	196
f 427 	429 	445
f 444 	144 	443
f 144 	196 	443
f 359 	90 	339
f 285 	75 	484
f 396 	435 	398
f 443 	220 	429
f 354 	355 	90
f 104 	144 	126
f 448 	449 	87
f 480 	447 	431
f 220 	430 	427
f 427 	429 	220
f 220 	443 	444
f 355 	339 	90
f 87 	392 	448
f 437 	361 	438
f 438 	432 	437
f 431 	437 	432
f 75 	87 	484
f 446 	362 	388
f 441 	431 	447
f 449 	448 	191
f 392 	191 	448
f 71 	407 	68
f 342 	312 	403
f 312 	261 	403
f 452 	403 	458
f 418 	440 	144
f 444 	418 	144
f 449 	448 	335
f 392 	335 	448
f 220 	444 	418
f 362 	446 	438
f 492 	238 	423
f 99 	452 	458
f 441 	421 	361
f 427 	490 	429
f 437 	431 	441
f 441 	413 	421
f 430 	490 	427
f 143 	454 	455
f 143 	455 	456
f 143 	456 	135
f 432 	446 	409
f 331 	492 	291
f 290 	492 	472
f 259 	337 	417
f 437 	441 	361
f 432 	438 	446
f 446 	388 	381
f 306 	412 	143
f 464 	344 	429
f 280 	457 	167
f 149 	167 	457
f 409 	446 	381
f 76 	77 	467
f 444 	443 	418
f 417 	418 	443
f 259 	417 	443
f 100 	99 	110
f 111 	110 	99
f 459 	413 	447
f 76 	467 	460
f 462 	76 	461
f 460 	461 	76
f 201 	211 	167
f 332 	347 	419
f 302 	121 	458
f 441 	447 	413
f 458 	111 	99
f 207 	204 	463
f 207 	463 	445
f 461 	108 	462
f 460 	108 	461
f 379 	462 	108
f 259 	262 	108
f 379 	108 	228
f 434 	451 	450
f 453 	435 	450
f 434 	450 	435
f 461 	330 	462
f 324 	326 	349
f 350 	349 	326
f 261 	264 	326
f 350 	326 	264
f 457 	280 	435
f 83 	182 	422
f 459 	375 	413
f 379 	462 	330
f 330 	461 	460
f 457 	435 	453
f 312 	342 	319
f 465 	431 	432
f 480 	431 	465
f 300 	467 	77
f 464 	469 	170
f 457 	215 	450
f 453 	457 	450
f 280 	215 	457
f 264 	312 	350
f 342 	350 	312
f 471 	423 	451
f 356 	107 	358
f 471 	475 	423
f 472 	423 	475
f 473 	320 	353
f 474 	467 	473
f 320 	473 	467
f 300 	308 	467
f 468 	191 	464
f 466 	191 	468
f 319 	452 	353
f 465 	432 	470
f 291 	492 	290
f 474 	460 	467
f 469 	464 	191
f 392 	244 	191
f 476 	470 	432
f 475 	471 	434
f 473 	353 	452
f 342 	452 	319
f 101 	477 	98
f 468 	469 	464
f 471 	451 	434
f 473 	477 	474
f 101 	474 	477
f 452 	99 	98
f 452 	98 	477
f 452 	477 	473
f 468 	466 	469
f 478 	469 	466
f 476 	432 	409
f 342 	263 	452
f 479 	377 	151
f 364 	456 	455
f 455 	454 	364
f 475 	434 	472
f 101 	100 	474
f 460 	474 	100
f 472 	434 	290
f 377 	479 	402
f 481 	402 	479
f 364 	454 	360
f 460 	100 	108
f 402 	481 	482
f 472 	475 	294
f 475 	471 	294
f 451 	294 	471
f 452 	330 	460
f 452 	460 	100
f 452 	100 	99
f 481 	419 	482
f 470 	273 	465
f 416 	482 	419
f 363 	484 	364
f 285 	484 	363
f 456 	364 	484
f 116 	120 	484
f 456 	484 	120
f 470 	276 	273
f 117 	116 	484
f 435 	405 	398
f 476 	276 	470
f 417 	416 	166
f 418 	417 	166
f 162 	164 	479
f 482 	481 	166
f 164 	166 	481
f 479 	164 	481
f 151 	162 	479
f 107 	135 	456
f 107 	456 	455
f 107 	455 	454
f 107 	454 	360
f 107 	360 	358
f 350 	452 	356
f 342 	452 	350
f 99 	356 	452
f 107 	356 	99
f 127 	484 	449
f 117 	484 	127
f 87 	449 	484
f 435 	483 	405
f 343 	495 	348
f 476 	175 	276
f 191 	127 	449
f 424 	486 	485
f 480 	465 	273
f 370 	369 	190
f 424 	430 	486
f 455 	456 	120
f 119 	454 	120
f 273 	283 	480
f 317 	316 	72
f 436 	72 	316
f 445 	485 	486
f 449 	454 	127
f 182 	175 	415
f 436 	316 	439
f 430 	427 	445
f 442 	439 	316
f 175 	476 	415
f 449 	335 	454
f 455 	120 	454
f 124 	454 	119
f 124 	127 	454
f 199 	203 	316
f 220 	155 	485
f 220 	485 	486
f 430 	220 	486
f 454 	335 	281
f 454 	281 	360
f 480 	459 	447
f 401 	399 	434
f 461 	462 	128
f 166 	165 	418
f 165 	222 	418
f 220 	418 	222
f 487 	316 	203
f 401 	434 	396
f 283 	459 	480
f 481 	334 	333
f 332 	419 	333
f 481 	333 	419
f 461 	128 	460
f 100 	460 	128
f 100 	128 	105
f 293 	459 	283
f 471 	233 	451
f 450 	451 	233
f 316 	487 	494
f 127 	134 	449
f 448 	449 	134
f 148 	487 	203
f 445 	463 	489
f 445 	489 	485
f 462 	380 	128
f 129 	128 	380
f 379 	380 	462
f 394 	129 	380
f 491 	487 	148
f 472 	234 	475
f 471 	475 	234
f 129 	394 	134
f 394 	391 	134
f 448 	134 	391
f 448 	391 	392
f 154 	153 	488
f 233 	232 	450
f 453 	450 	232
f 87 	199 	76
f 198 	76 	199
f 191 	490 	204
f 466 	490 	191
f 463 	204 	490
f 463 	490 	489
f 331 	291 	399
f 170 	157 	490
f 77 	76 	200
f 486 	485 	489
f 486 	489 	490
f 87 	203 	199
f 235 	472 	290
f 490 	466 	170
f 87 	75 	203
f 435 	279 	483
f 136 	300 	77
f 280 	457 	346
f 466 	468 	490
f 468 	464 	490
f 486 	490 	430
f 464 	429 	490
f 453 	232 	457
f 346 	457 	232
f 337 	336 	482
f 481 	482 	336
f 334 	481 	336
f 200 	136 	77
f 493 	205 	494
f 238 	492 	293
f 416 	417 	337
f 482 	416 	337
f 496 	497 	495
f 489 	488 	490
f 488 	478 	490
f 153 	478 	488
f 160 	478 	153
f 466 	490 	478
f 423 	472 	492
f 469 	344 	464
f 344 	228 	429
f 331 	365 	492
f 315 	492 	365
f 190 	369 	498
f 497 	498 	495
f 492 	315 	293
f 487 	493 	494
f 329 	384 	133
f 496 	487 	497
f 367 	497 	487
f 487 	496 	493
f 469 	478 	344
f 367 	366 	497
f 426 	147 	133
f 386 	367 	491
f 341 	123 	79
f 344 	478 	341
f 316 	494 	442
f 80 	307 	81
f 85 	86 	188
f 86 	173 	188
f 223 	188 	173
f 85 	188 	89
f 487 	491 	367
f 215 	211 	91
f 212 	91 	210
f 125 	123 	161
f 173 	86 	91
f 212 	223 	91
f 173 	91 	223
f 451 	173 	86
f 159 	341 	478
f 160 	159 	478
f 161 	123 	159
f 123 	341 	159
f 491 	181 	499
f 411 	491 	499
f 491 	411 	386
f 152 	405 	483
f 181 	171 	499
f 499 	171 	268
f 248 	244 	170
f 170 	469 	248
f 74 	72 	180
f 72 	436 	180
f 157 	152 	488
f 146 	154 	152
f 78 	74 	180
f 152 	483 	146
f 138 	139 	284
f 139 	82 	284
f 284 	82 	217
f 157 	488 	489
f 284 	305 	142
f 284 	142 	138
f 489 	490 	157
f 305 	393 	142
f 466 	468 	170
f 500 	233 	471
f 378 	208 	125
f 209 	123 	208
f 500 	471 	234
f 233 	500 	234
f 125 	208 	123
f 123 	209 	79
# 1036 faces

 #end of obj_1

o obj_2
v -0.9851 		-1.0912 		0.8444
v -0.935 		-1.0402 		0.9316
v -0.0295 		-1.4085 		0.4698
v -0.0425 		-1.3761 		0.4582
v -0.0073 		-1.3403 		0.4165
v 0.0095 		-1.3446 		0.4093
v -0.2821 		-1.3385 		0.7367
v 0.0347 		-1.3692 		0.4093
v 0.0368 		-1.3939 		0.4227
v -0.8542 		-0.958 		0.6897
v -0.2782 		-1.2507 		0.6854
v -0.85 		-1.2547 		1.0089
v -0.8035 		-0.9064 		0.7774
v 0.0234 		-1.3581 		0.4093
v -0.2947 		-1.3325 		0.7292
v 0.0153 		-1.2288 		0.5116
v 0.9003 		-1.4953 		-0.0189
v 0.6529 		-1.2175 		0.1003
v 0.6521 		-1.2171 		0.0991
v -0.002 		-1.3349 		0.4087
v -0.0449 		-1.3785 		0.4727
v -0.0255 		-1.436 		0.5083
v 0.0269 		-1.3589 		0.4102
v 0.6112 		-1.2827 		0.024
v 0.0552 		-1.8188 		0.6942
v -0.002 		-1.3349 		0.4087
v 0.0895 		-1.7839 		0.7541
v 0.6277 		-1.3276 		0.0406
v -0.3177 		-1.3217 		0.7174
v 0.5483 		-1.3228 		0.2721
v 0.6112 		-1.2827 		0.024
v 0.0704 		-1.3645 		0.4229
v 0.0823 		-1.2737 		0.4577
v -0.0324 		-1.3659 		0.4541
v 0.0344 		-1.7986 		0.662
v 0.0929 		-1.4613 		0.4534
v 0.6309 		-1.3363 		0.0438
v 0.6026 		-1.2675 		0.2084
v 0.6153 		-1.2546 		0.0355
v 0.0741 		-1.2585 		0.4602
v 0.0909 		-1.7412 		0.7602
v 0.0736 		-1.2579 		0.4602
v 0.6143 		-1.2627 		0.0325
v 0.0699 		-1.369 		0.4211
v 0.4433 		-1.4296 		0.2418
v -0.8995 		-1.3051 		0.8689
v 0.0937 		-1.2375 		0.4739
v 0.4352 		-1.4379 		0.2276
v 0.0961 		-1.2351 		0.4755
v 0.0904 		-1.2336 		0.4741
v -0.8132 		-1.2173 		1.0173
v 0.5138 		-1.549 		0.2369
v -0.3457 		-1.3713 		0.6512
v 0.4423 		-1.4306 		0.2038
v -0.3522 		-1.3777 		0.6703
v 0.5203 		-1.3512 		0.2942
v 0.5261 		-1.3453 		0.2981
v 0.5201 		-1.5298 		0.2012
v -0.3513 		-1.354 		0.6583
v -0.3513 		-1.354 		0.6583
v -0.3513 		-1.354 		0.6583
v 0.4627 		-1.4912 		0.2118
v 0.0932 		-1.3364 		0.5209
v 0.4567 		-1.5101 		0.2465
v 0.0754 		-1.2883 		0.5029
v -0.9007 		-1.3063 		0.9213
v 0.0507 		-1.2813 		0.5131
v 0.0113 		-1.3213 		0.5596
v 0.0172 		-1.3271 		0.5596
v 0.636 		-1.351 		0.0493
v 0.1333 		-1.4206 		0.5232
v 0.0754 		-1.2883 		0.5029
v -0.1804 		-1.3047 		0.643
v 0.5919 		-1.2784 		0.2011
v 0.5008 		-1.3711 		0.1391
v 0.4905 		-1.3816 		0.132
v -0.8794 		-1.1562 		0.77
v 0.0186 		-1.3139 		0.5424
v 0.0047 		-1.3281 		0.5551
v -0.8433 		-1.2479 		0.803
v -0.751 		-1.2824 		0.77
v 0.1052 		-1.4645 		0.4566
v 0.4282 		-1.4333 		0.2179
v 0.4298 		-1.4317 		0.2128
v 0.1399 		-1.4298 		0.5161
v 0.1395 		-1.4292 		0.5166
v 0.6166 		-1.2434 		0.0396
v 0.6166 		-1.2435 		0.0396
v 0.6157 		-1.2509 		0.0368
v 0.6453 		-1.214 		0.0893
v 0.6174 		-1.2425 		0.0411
v 0.6281 		-1.2317 		0.0596
v 0.4028 		-1.3295 		0.1513
v 0.4385 		-1.3312 		0.1318
v 0.5822 		-1.2055 		-0.0056
v 0.1169 		-1.4531 		0.477
v 0.1321 		-1.4381 		0.5028
v 0.3975 		-1.3239 		0.1561
v 0.1395 		-1.4307 		0.5153
v 0.1399 		-1.4303 		0.516
v 0.383 		-1.3084 		0.1694
v 0.1055 		-1.4647 		0.457
v 0.3641 		-1.3276 		0.1725
v 0.8012 		-1.288 		-0.0414
v -0.0136 		-1.6848 		0.6226
v 0.4395 		-1.273 		0.152
v 0.0582 		-1.2736 		0.5063
v -0.8505 		-1.1568 		0.775
v 0.5573 		-1.2602 		0.2302
v 0.4745 		-1.256 		0.2754
v 0.5972 		-1.2622 		0.2084
v -0.7521 		-1.2536 		0.775
v 0.3278 		-1.3281 		0.1916
v 0.4659 		-1.254 		0.2743
v 0.4419 		-1.2484 		0.2712
v 0.4364 		-1.2541 		0.2963
v 0.3438 		-1.3482 		0.1982
v 0.5145 		-1.2404 		0.1881
v 0.5219 		-1.2424 		0.1899
v 0.7422 		-1.3894 		0.0529
v 0.5675 		-1.2544 		0.2011
v 0.3517 		-1.3402 		0.1746
v 0.5722 		-1.4896 		0.3364
v 0.0432 		-1.627 		0.72
v 0.4859 		-1.2529 		0.1743
v -0.8223 		-1.2266 		0.8007
v 0.5125 		-1.2413 		0.1871
v 0.2359 		-1.4062 		0.464
v 0.4799 		-1.3719 		0.1318
v 0.4793 		-1.3764 		0.1348
v 0.4138 		-1.3592 		0.1624
v 0.3496 		-1.3424 		0.1896
v -0.0299 		-1.3633 		0.5316
v -0.0147 		-1.3479 		0.558
v -0.0092 		-1.3422 		0.5677
v -0.0843 		-1.4187 		0.6363
v -0.1325 		-1.4677 		0.6036
v -0.0673 		-1.4013 		0.5061
v 0.4864 		-1.3783 		0.1318
v -0.048 		-1.3817 		0.5
v 0.4348 		-1.2556 		0.2981
v -0.0491 		-1.3828 		0.4981
v 0.4635 		-1.2839 		0.2981
v 0.728 		-1.3796 		0.0127
v 0.497 		-1.3167 		0.2981
v 0.0075 		-1.3253 		0.557
v 0.4881 		-1.313 		0.2964
v 0.5254 		-1.1663 		0.0053
v -0.0125 		-1.6424 		0.6297
v 1.1166 		-1.4407 		-0.0488
v -0.2157 		-1.3985 		0.5993
v -0.2107 		-1.3987 		0.6009
v -0.9724 		-1.121 		0.803
v 1.0877 		-1.4701 		-0.0995
v -0.1934 		-1.365 		0.6181
v 1.1125 		-1.4035 		-0.0264
v 0.0024 		-1.3304 		0.5572
v -0.3275 		-1.3637 		0.6502
v -0.3513 		-1.3539 		0.6583
v -0.1742 		-1.3268 		0.6375
v 0.0218 		-1.6074 		0.6896
v 0.5621 		-1.2388 		0.0063
v 1.0305 		-1.407 		0.0225
v -0.3179 		-1.5422 		0.8475
v -0.3523 		-1.5772 		0.7875
v 0.4252 		-1.4111 		0.1985
v -0.3487 		-1.3512 		0.6629
v -0.6085 		-1.1374 		0.8526
v 0.5047 		-1.2002 		0.0168
v -0.7369 		-1.0113 		0.8526
v 0.1892 		-1.6911 		0.5409
v 0.2235 		-1.6562 		0.6008
v -0.2808 		-1.5173 		0.844
v 0.1475 		-1.6893 		0.532
v 0.2039 		-1.6318 		0.6303
v -0.4568 		-1.4324 		0.7541
v 0.7177 		-1.4714 		0.2417
v 0.6596 		-1.5305 		0.1413
v -0.7149 		-1.3741 		0.803
v 0.532 		-1.4019 		0.139
v -0.6286 		-1.2863 		0.9514
v 0.643 		-1.3739 		0.1857
v 0.6299 		-1.3813 		0.1787
v 0.5842 		-1.407 		0.1547
v -0.7931 		-1.0684 		0.9185
v 0.6381 		-1.3237 		0.2011
v 0.6507 		-1.3362 		0.201
v 0.6496 		-1.3427 		0.1985
v -0.757 		-1.1601 		0.9514
v -0.6347 		-1.3353 		0.9316
v -0.6647 		-1.1946 		0.9185
v 0.4456 		-1.3165 		0.1392
v -0.7796 		-1.0847 		0.8975
v -0.7514 		-1.1544 		0.9231
v 0.4501 		-1.2747 		0.1549
v 0.6223 		-1.5171 		0.1344
v -0.6812 		-1.1814 		0.8975
v -0.6848 		-1.3863 		0.8444
v -0.7364 		-1.0407 		0.8472
v 0.5059 		-1.2406 		0.1852
v -0.638 		-1.1374 		0.8472
v 0.5595 		-1.2466 		0.2011
v 0.7187 		-1.3947 		0.2161
v 0.6941 		-1.444 		0.2587
v 1.0041 		-1.3883 		-0.0154
v -0.6473 		-1.3481 		0.826
v -0.6149 		-1.3151 		0.8824
v 0.7063 		-1.3446 		0.1573
v 0.7083 		-1.3302 		0.1632
v -0.6022 		-1.2594 		0.6703
v -0.6024 		-1.2967 		0.7368
v -0.5942 		-1.2883 		0.7271
v 0.774 		-1.2686 		-0.0793
v -0.5855 		-1.2852 		0.7271
v -0.3915 		-1.366 		0.6622
v 0.6568 		-1.2193 		0.106
v 0.7196 		-1.2312 		-0.0692
v 0.6688 		-1.2235 		0.1235
v -0.8861 		-1.0333 		0.9514
v 0.7711 		-1.36 		0.1036
v -0.7306 		-1.1332 		0.6703
v -0.8229 		-1.0987 		0.7032
v -0.5539 		-1.253 		0.6897
v -0.8597 		-1.0064 		0.6703
v 0.0365 		-1.5954 		0.5734
v 0.6596 		-1.3921 		0.0771
v 0.6503 		-1.3886 		0.0635
v 0.0711 		-1.5601 		0.6324
v -0.5961 		-1.296 		0.8863
v -0.5958 		-1.2944 		0.8868
v 0.8321 		-1.2095 		0.0212
v 0.7777 		-1.1721 		0.0312
v -0.0352 		-1.428 		0.5078
v 0.7307 		-1.1913 		0.0267
v -0.0145 		-1.4688 		0.5286
v -0.0344 		-1.4193 		0.511
v -0.6945 		-1.2249 		0.7032
v 0.685 		-1.4819 		0.0987
v 0.9584 		-1.4362 		0.0816
v 0.7427 		-1.4231 		0.1978
v -0.6744 		-1.076 		0.6044
v 0.7027 		-1.3675 		0.1474
v 0.7021 		-1.3681 		0.1464
v -0.807 		-1.1125 		0.7238
v 0.7028 		-1.3671 		0.1475
v 0.723 		-1.1992 		0.0359
v -0.7086 		-1.2093 		0.7238
v -0.5672 		-1.2666 		0.7314
v -0.5714 		-1.2708 		0.7308
v 0.83 		-1.2586 		0.0093
v 0.7369 		-1.2093 		0.077
v -0.595 		-1.2896 		0.8883
v -0.5355 		-1.1473 		0.5952
v -0.5203 		-1.1664 		0.6014
v -0.5376 		-1.1495 		0.6015
v 0.5669 		-1.398 		0.1166
v -0.5159 		-1.1716 		0.8187
v -0.5391 		-1.2325 		0.823
v -0.7361 		-1.1389 		0.6986
v 0.7054 		-1.3507 		0.1548
v 0.6493 		-1.3886 		0.0634
v -0.4844 		-1.2543 		0.7827
v -0.5351 		-1.2339 		0.8148
v -0.6472 		-1.3467 		0.7975
v -0.6464 		-1.3471 		0.799
v 0.7076 		-1.3296 		0.1641
v 1.1994 		-1.2936 		-0.1838
v 1.1712 		-1.3224 		-0.234
v -0.5032 		-1.2015 		0.7774
v 0.685 		-1.3853 		0.117
v -0.6495 		-1.3452 		0.7935
v 0.6735 		-1.3971 		0.0972
v 1.1874 		-1.2702 		-0.1477
v 0.6403 		-1.1464 		0.0948
v -0.5256 		-1.1372 		0.5875
v -0.5133 		-1.1682 		0.5984
v -0.5233 		-1.1426 		0.5835
v -0.5256 		-1.1372 		0.5846
v 0.5828 		-1.1079 		0.1054
v 1.1293 		-1.3293 		-0.2482
v -0.5474 		-1.2409 		0.8328
v 0.0013 		-1.4556 		0.5548
v 0.6628 		-1.3933 		0.0817
v -0.033 		-1.4041 		0.5166
v -0.5887 		-0.9889 		0.7524
v -0.5275 		-1.1392 		0.5833
v -0.6443 		-1.0454 		0.8187
v -0.5346 		-1.2334 		0.7941
v -0.5343 		-1.2331 		0.7881
v -0.3514 		-1.48 		0.7324
v -0.015 		-1.4672 		0.5276
v -0.3522 		-1.4795 		0.7302
v -0.3522 		-1.4795 		0.7301
v 0.0187 		-1.4307 		0.587
v -0.5401 		-1.239 		0.7781
v 0.0205 		-1.4363 		0.5882
v 0.6851 		-1.2693 		0.1421
v 0.6683 		-1.2239 		0.1251
v -0.3555 		-1.3645 		0.6555
v -0.3175 		-1.1861 		0.6375
v -0.3461 		-1.2465 		0.6074
v -0.3521 		-1.2597 		0.6009
v -0.0342 		-1.4197 		0.5109
v -0.0134 		-1.4704 		0.5292
v -0.2776 		-1.1902 		0.6494
v -0.2789 		-1.1902 		0.649
v -0.3373 		-1.5748 		0.7457
v -0.2775 		-1.1931 		0.6511
v -0.2775 		-1.1903 		0.6494
v -0.6653 		-1.0668 		0.8211
v -0.2768 		-1.1904 		0.6497
v -0.3399 		-1.2952 		0.5929
v -0.255 		-1.5481 		0.6826
v 0.027 		-1.351 		0.568
v 0.1127 		-1.5606 		0.6417
v -0.3376 		-1.4832 		0.6944
v -0.3471 		-1.4809 		0.7189
v -0.3375 		-1.4828 		0.6942
v -0.338 		-1.3943 		0.6418
v -0.3365 		-1.3949 		0.6413
v 0.0559 		-1.6184 		0.5444
v 1.096 		-1.2234 		-0.1646
v 0.5809 		-1.2425 		0.1863
v -0.32 		-1.1391 		0.6527
v 0.6469 		-1.4678 		0.0919
v -0.3417 		-1.3804 		0.6473
v -0.524 		-1.1356 		0.5857
v -0.4826 		-1.1765 		0.5856
v -0.4257 		-1.0356 		0.6525
v 0.9152 		-1.102 		-0.1316
v 0.8863 		-1.1314 		-0.1823
v 0.5229 		-1.3016 		0.0859
v -0.5151 		-0.9682 		0.6644
v 0.8592 		-1.112 		-0.2202
v 0.5315 		-1.2357 		0.1677
v -0.5875 		-0.9877 		0.7
v -0.6382 		-1.0392 		0.6124
v 0.5765 		-1.1271 		0.141
v 0.634 		-1.1656 		0.1305
v 1.0792 		-1.1905 		-0.3008
v -0.2176 		-1.5229 		0.6782
v -0.7734 		-0.9186 		0.8187
v 0.786 		-1.3205 		0.1131
v 0.4358 		-1.2546 		0.2988
v -0.3469 		-1.4004 		0.6966
v -0.3467 		-1.4006 		0.6966
v 0.437 		-1.1264 		0.201
v -0.4093 		-1.0189 		0.6245
v 0.5345 		-1.4181 		0.336
v -0.4106 		-1.0202 		0.6347
v 0.379 		-1.1855 		0.1005
v 0.592 		-1.4567 		0.3255
v -0.3189 		-1.447 		0.7887
v -0.3263 		-1.4544 		0.7761
v 1.0852 		-1.2643 		-0.2619
v 0.3779 		-1.2622 		0.1262
v 0.4028 		-1.2125 		0.0827
v -0.3181 		-1.4449 		0.7894
v 0.5147 		-1.4511 		0.347
v -0.3178 		-1.4441 		0.7896
v 1.0671 		-1.2528 		-0.2153
v 0.0234 		-1.4361 		0.5867
v -0.0103 		-1.4703 		0.5272
v -0.2409 		-1.2798 		0.516
v -0.2408 		-1.2785 		0.5152
v 1.1133 		-1.163 		-0.2944
v -0.1986 		-1.4907 		0.7808
v 1.1425 		-1.1333 		-0.2447
v 0.7902 		-1.1023 		-0.1868
v 1.1373 		-1.1314 		-0.2003
v -0.1844 		-1.2223 		0.6143
v -0.1843 		-1.2191 		0.6123
v -0.2824 		-1.4271 		0.7895
v -0.3065 		-1.4392 		0.7894
v 0.4537 		-1.4441 		0.2548
v 0.45 		-1.4478 		0.2485
v -0.2824 		-1.4267 		0.7893
v 0.3967 		-1.4504 		0.2807
v 0.4669 		-1.4444 		0.2446
v 0.4612 		-1.4473 		0.2417
v 1.1436 		-1.2049 		-0.1601
v 0.484 		-1.4133 		0.3072
v 0.3543 		-1.2334 		0.1436
v 0.9172 		-1.0529 		-0.1198
v 0.5322 		-1.4109 		0.2779
v 0.3814 		-1.3067 		0.1708
v 0.4862 		-1.3747 		0.3184
v 0.4863 		-1.3746 		0.3183
v 0.384 		-1.2737 		0.1812
v 0.3842 		-1.2702 		0.1823
v 0.8489 		-1.0426 		-0.0859
v 0.8149 		-1.0343 		-0.1133
v 0.786 		-1.0637 		-0.164
v -0.183 		-1.4877 		0.7372
v 0.7016 		-1.221 		-0.0231
v 0.4906 		-1.3704 		0.317
v 0.4842 		-1.4096 		0.3082
v -0.334 		-1.3731 		0.7102
v 0.6939 		-1.2289 		-0.0139
v -0.3516 		-1.3539 		0.6584
v -0.3187 		-1.321 		0.7147
v -0.0015 		-1.2146 		0.4709
v -0.3488 		-1.3511 		0.663
v 0.961 		-1.0112 		-0.2117
v -0.3372 		-1.3396 		0.6829
v 0.9319 		-1.0409 		-0.2615
v 0.917 		-1.0817 		-0.2715
v 0.6789 		-1.2683 		-0.0235
v 0.975 		-1.0226 		-0.171
v -0.466 		-1.0766 		0.5268
v -0.4386 		-1.0487 		0.5274
v -0.2828 		-1.3382 		0.737
v -0.4728 		-1.0835 		0.5262
v -0.4046 		-1.0141 		0.5859
v 0.5316 		-1.3646 		0.2934
v 0.4747 		-1.1394 		0.2069
v 0.4498 		-1.1891 		0.2504
v 0.4418 		-1.4423 		0.2369
v 0.4117 		-1.175 		0.2436
v 0.4388 		-1.2477 		0.2708
v 0.4392 		-1.2478 		0.2708
v 0.0972 		-1.234 		0.4707
v -0.0355 		-1.2492 		0.4123
v -0.0478 		-1.2931 		0.4032
v 0.3269 		-1.2485 		0.3561
v 0.433 		-1.2539 		0.2981
v 0.4897 		-1.3501 		0.3098
v 0.4179 		-1.2356 		0.241
v -0.3341 		-1.2547 		0.5554
v -0.3356 		-1.2662 		0.5659
v -0.3285 		-1.2563 		0.553
v -0.2732 		-1.1943 		0.6493
v 1.0544 		-1.4626 		-0.1269
v 0.5981 		-1.3791 		0.2143
v 0.9725 		-1.4661 		-0.0779
v 0.9449 		-1.4771 		0.072
v 0.916 		-1.5064 		0.0213
v 0.9749 		-1.418 		-0.0652
# 438 vertices

g group_2_14528853

usemtl color_14528853
s 0

f 504 	505 	503
f 503 	505 	506
f 509 	503 	508
f 506 	508 	503
f 502 	513 	501
f 509 	508 	514
f 511 	515 	507
f 877 	511 	507
f 510 	501 	513
f 523 	536 	509
f 514 	523 	509
f 506 	514 	508
f 506 	505 	520
f 506 	523 	514
f 520 	526 	506
f 523 	506 	526
f 521 	522 	534
f 528 	644 	537
f 538 	530 	852
f 540 	542 	526
f 523 	533 	526
f 544 	532 	523
f 532 	533 	523
f 540 	526 	533
f 515 	806 	529
f 543 	908 	531
f 547 	549 	550
f 537 	595 	528
f 524 	528 	595
f 802 	812 	553
f 826 	553 	812
f 802 	553 	555
f 548 	545 	554
f 527 	525 	672
f 671 	672 	525
f 525 	535 	671
f 512 	681 	551
f 672 	541 	527
f 524 	595 	531
f 559 	560 	561
f 672 	675 	541
f 743 	543 	528
f 523 	534 	536
f 863 	536 	534
f 534 	523 	526
f 531 	595 	543
f 543 	743 	539
f 531 	528 	543
f 524 	528 	531
f 743 	528 	537
f 727 	726 	537
f 558 	564 	562
f 558 	552 	564
f 563 	565 	567
f 568 	569 	567
f 563 	567 	569
f 569 	814 	563
f 557 	530 	556
f 565 	563 	571
f 672 	571 	563
f 575 	556 	530
f 538 	574 	530
f 570 	825 	537
f 501 	512 	502
f 570 	727 	537
f 574 	575 	530
f 512 	501 	566
f 628 	565 	571
f 575 	554 	556
f 576 	554 	575
f 545 	556 	554
f 571 	862 	578
f 571 	578 	567
f 571 	567 	565
f 862 	794 	578
f 528 	756 	537
f 580 	581 	546
f 832 	543 	539
f 582 	544 	536
f 523 	536 	544
f 543 	832 	531
f 585 	586 	533
f 577 	580 	546
f 587 	899 	588
f 581 	580 	612
f 519 	746 	590
f 580 	577 	608
f 565 	572 	533
f 540 	533 	572
f 571 	565 	533
f 586 	571 	533
f 554 	584 	548
f 584 	583 	548
f 746 	592 	590
f 598 	856 	593
f 532 	596 	597
f 532 	597 	599
f 532 	599 	600
f 532 	600 	585
f 532 	585 	533
f 601 	856 	598
f 588 	595 	587
f 589 	595 	588
f 602 	596 	582
f 544 	582 	596
f 544 	596 	532
f 593 	603 	598
f 601 	598 	603
f 587 	595 	591
f 595 	774 	592
f 588 	743 	587
f 606 	593 	594
f 601 	598 	606
f 598 	593 	606
f 584 	583 	536
f 614 	610 	917
f 917 	615 	614
f 807 	605 	535
f 616 	610 	614
f 589 	743 	588
f 924 	613 	526
f 523 	526 	613
f 536 	523 	613
f 536 	613 	617
f 617 	666 	536
f 590 	592 	774
f 519 	590 	774
f 613 	622 	617
f 621 	609 	619
f 611 	609 	621
f 609 	610 	619
f 618 	619 	610
f 618 	610 	614
f 615 	921 	618
f 614 	615 	618
f 937 	620 	517
f 591 	595 	592
f 540 	572 	607
f 540 	607 	542
f 587 	743 	591
f 627 	928 	625
f 618 	928 	627
f 606 	625 	928
f 607 	572 	547
f 572 	565 	547
f 565 	628 	547
f 592 	743 	590
f 519 	590 	743
f 592 	591 	743
f 631 	632 	603
f 631 	603 	593
f 626 	612 	580
f 635 	636 	634
f 633 	634 	636
f 637 	638 	636
f 633 	636 	638
f 620 	644 	517
f 639 	629 	630
f 589 	539 	595
f 539 	543 	595
f 608 	626 	580
f 616 	641 	643
f 645 	610 	643
f 616 	643 	610
f 566 	653 	546
f 675 	624 	541
f 610 	645 	647
f 610 	647 	614
f 566 	546 	679
f 539 	743 	589
f 521 	534 	504
f 505 	504 	534
f 526 	520 	505
f 526 	505 	534
f 578 	579 	646
f 841 	651 	652
f 567 	578 	568
f 646 	568 	578
f 657 	646 	579
f 658 	659 	559
f 658 	559 	561
f 546 	653 	577
f 871 	894 	573
f 719 	512 	551
f 634 	633 	657
f 579 	657 	633
f 719 	502 	512
f 566 	501 	653
f 567 	640 	607
f 633 	640 	578
f 579 	633 	578
f 567 	578 	640
f 542 	607 	640
f 640 	642 	542
f 542 	642 	521
f 542 	521 	534
f 542 	534 	526
f 614 	927 	615
f 527 	664 	665
f 632 	666 	617
f 631 	666 	632
f 584 	536 	666
f 659 	658 	667
f 631 	562 	666
f 561 	560 	667
f 561 	667 	658
f 631 	593 	598
f 631 	598 	666
f 584 	666 	564
f 655 	894 	652
f 583 	584 	666
f 598 	601 	666
f 601 	886 	666
f 583 	666 	886
f 527 	541 	664
f 584 	554 	666
f 576 	639 	554
f 666 	554 	630
f 630 	554 	639
f 631 	666 	630
f 541 	673 	664
f 674 	671 	535
f 648 	595 	669
f 595 	662 	669
f 535 	605 	674
f 552 	623 	859
f 624 	673 	541
f 539 	589 	832
f 588 	587 	832
f 695 	832 	587
f 589 	588 	832
f 546 	581 	679
f 583 	886 	889
f 545 	548 	889
f 583 	889 	548
f 605 	821 	674
f 670 	719 	685
f 680 	574 	684
f 683 	684 	574
f 575 	574 	680
f 574 	686 	683
f 686 	688 	683
f 687 	688 	686
f 682 	683 	688
f 551 	681 	691
f 678 	677 	623
f 685 	551 	689
f 538 	611 	574
f 621 	574 	611
f 512 	690 	681
f 623 	552 	678
f 551 	691 	689
f 594 	629 	692
f 575 	692 	629
f 575 	629 	639
f 575 	639 	576
f 730 	681 	729
f 594 	692 	606
f 695 	606 	692
f 618 	627 	619
f 698 	566 	679
f 656 	663 	739
f 695 	625 	606
f 698 	679 	710
f 693 	699 	685
f 627 	625 	700
f 698 	690 	512
f 699 	670 	685
f 702 	621 	619
f 698 	512 	566
f 822 	705 	663
f 852 	704 	703
f 729 	690 	707
f 690 	698 	707
f 706 	707 	698
f 677 	704 	623
f 592 	835 	591
f 591 	835 	587
f 704 	677 	740
f 693 	685 	689
f 852 	623 	704
f 694 	693 	689
f 703 	704 	740
f 691 	701 	697
f 691 	668 	701
f 697 	694 	689
f 712 	714 	715
f 738 	678 	696
f 689 	691 	697
f 696 	552 	558
f 751 	716 	718
f 751 	663 	705
f 551 	685 	719
f 552 	696 	678
f 596 	672 	671
f 518 	774 	716
f 723 	714 	710
f 719 	513 	502
f 519 	743 	518
f 711 	710 	712
f 724 	741 	722
f 712 	710 	714
f 649 	821 	605
f 577 	653 	722
f 709 	718 	708
f 743 	742 	718
f 716 	743 	718
f 716 	518 	743
f 722 	653 	724
f 726 	727 	644
f 649 	661 	725
f 668 	691 	681
f 570 	644 	761
f 608 	577 	722
f 690 	729 	681
f 653 	501 	724
f 661 	728 	725
f 858 	730 	729
f 707 	853 	729
f 749 	748 	715
f 726 	783 	537
f 735 	782 	733
f 709 	708 	843
f 731 	732 	734
f 678 	738 	677
f 705 	746 	751
f 737 	721 	741
f 737 	741 	710
f 738 	740 	677
f 656 	739 	650
f 721 	722 	741
f 720 	742 	743
f 743 	770 	720
f 620 	720 	770
f 626 	608 	744
f 744 	759 	626
f 688 	760 	682
f 720 	745 	742
f 612 	626 	747
f 748 	749 	723
f 714 	723 	749
f 620 	770 	772
f 747 	626 	759
f 714 	749 	715
f 900 	715 	748
f 737 	581 	612
f 831 	830 	604
f 721 	747 	759
f 769 	795 	723
f 737 	612 	747
f 730 	752 	681
f 721 	737 	747
f 731 	734 	750
f 753 	754 	755
f 858 	860 	730
f 604 	750 	734
f 744 	608 	722
f 620 	783 	644
f 726 	644 	783
f 684 	756 	680
f 721 	744 	722
f 766 	709 	843
f 708 	760 	843
f 720 	843 	760
f 746 	716 	751
f 737 	679 	581
f 738 	825 	727
f 760 	745 	720
f 663 	751 	843
f 663 	843 	739
f 762 	763 	758
f 727 	761 	644
f 721 	759 	744
f 765 	698 	764
f 710 	771 	698
f 743 	742 	740
f 765 	706 	698
f 727 	761 	726
f 756 	726 	761
f 742 	745 	740
f 788 	763 	762
f 724 	501 	510
f 760 	740 	745
f 788 	762 	789
f 901 	789 	762
f 790 	706 	676
f 709 	766 	703
f 745 	718 	742
f 510 	837 	724
f 905 	795 	901
f 903 	795 	905
f 764 	676 	765
f 760 	708 	740
f 709 	740 	708
f 676 	706 	765
f 769 	681 	758
f 837 	741 	724
f 760 	718 	745
f 708 	718 	760
f 737 	710 	679
f 688 	687 	766
f 709 	708 	766
f 688 	766 	708
f 763 	769 	758
f 764 	698 	771
f 771 	710 	711
f 654 	780 	768
f 710 	741 	837
f 775 	776 	777
f 775 	777 	778
f 648 	779 	595
f 771 	816 	676
f 764 	771 	676
f 710 	837 	723
f 774 	595 	779
f 650 	654 	768
f 758 	681 	781
f 752 	781 	681
f 838 	774 	779
f 768 	767 	650
f 735 	725 	782
f 728 	782 	725
f 736 	733 	782
f 736 	782 	784
f 620 	772 	783
f 668 	757 	785
f 753 	786 	777
f 776 	754 	777
f 753 	777 	754
f 650 	773 	656
f 757 	681 	769
f 668 	681 	757
f 767 	773 	650
f 754 	776 	775
f 754 	775 	755
f 787 	668 	785
f 738 	772 	770
f 743 	740 	770
f 738 	770 	740
f 787 	785 	670
f 821 	649 	725
f 525 	527 	665
f 769 	763 	788
f 769 	788 	789
f 789 	795 	769
f 772 	738 	783
f 727 	726 	738
f 783 	738 	726
f 706 	790 	854
f 733 	791 	735
f 787 	670 	699
f 792 	790 	676
f 817 	676 	816
f 676 	793 	792
f 634 	794 	635
f 703 	839 	852
f 771 	711 	818
f 771 	818 	816
f 748 	723 	795
f 819 	818 	712
f 789 	901 	795
f 728 	796 	782
f 670 	785 	842
f 852 	839 	538
f 711 	712 	818
f 819 	712 	715
f 795 	903 	748
f 900 	748 	903
f 797 	751 	798
f 799 	553 	715
f 553 	826 	715
f 881 	663 	656
f 751 	718 	798
f 693 	694 	810
f 694 	697 	810
f 656 	773 	881
f 766 	797 	703
f 797 	798 	703
f 728 	794 	796
f 664 	854 	665
f 854 	790 	665
f 693 	810 	699
f 784 	782 	803
f 791 	803 	782
f 791 	782 	804
f 792 	793 	665
f 790 	792 	665
f 815 	624 	675
f 511 	805 	806
f 515 	511 	806
f 525 	665 	535
f 766 	797 	709
f 718 	709 	797
f 718 	797 	798
f 661 	815 	728
f 805 	511 	808
f 701 	668 	787
f 657 	635 	794
f 808 	809 	805
f 537 	644 	570
f 665 	807 	535
f 800 	529 	806
f 761 	825 	570
f 809 	808 	811
f 665 	817 	807
f 761 	727 	570
f 728 	814 	794
f 825 	662 	595
f 813 	605 	807
f 604 	713 	831
f 646 	657 	569
f 814 	569 	657
f 794 	814 	657
f 797 	766 	687
f 797 	687 	686
f 929 	820 	930
f 830 	731 	750
f 823 	797 	574
f 686 	574 	797
f 797 	823 	798
f 794 	634 	657
f 756 	528 	832
f 524 	832 	528
f 815 	661 	624
f 813 	649 	605
f 570 	537 	756
f 761 	570 	756
f 793 	676 	817
f 728 	815 	814
f 823 	835 	518
f 716 	823 	518
f 573 	660 	636
f 718 	798 	716
f 823 	716 	798
f 818 	819 	820
f 651 	637 	652
f 637 	636 	652
f 594 	856 	669
f 629 	594 	669
f 660 	655 	636
f 648 	847 	779
f 629 	669 	662
f 847 	648 	851
f 610 	609 	917
f 655 	652 	636
f 733 	522 	791
f 786 	778 	777
f 822 	663 	881
f 538 	839 	611
f 839 	838 	611
f 609 	611 	838
f 770 	537 	783
f 743 	537 	770
f 772 	770 	783
f 828 	801 	800
f 824 	828 	800
f 825 	696 	558
f 725 	735 	503
f 827 	828 	829
f 738 	696 	825
f 803 	791 	522
f 869 	834 	713
f 819 	715 	826
f 819 	826 	820
f 717 	869 	713
f 824 	829 	828
f 810 	697 	701
f 665 	793 	817
f 717 	893 	869
f 787 	699 	810
f 828 	812 	802
f 801 	828 	802
f 806 	805 	824
f 806 	824 	800
f 823 	574 	621
f 702 	823 	621
f 824 	805 	811
f 809 	811 	805
f 701 	787 	810
f 692 	575 	832
f 680 	756 	832
f 575 	680 	832
f 692 	832 	695
f 817 	816 	807
f 524 	531 	832
f 627 	700 	835
f 818 	820 	807
f 816 	818 	807
f 884 	830 	822
f 619 	835 	702
f 823 	702 	835
f 627 	835 	619
f 590 	519 	835
f 519 	518 	835
f 700 	625 	835
f 929 	807 	820
f 769 	836 	757
f 835 	592 	590
f 826 	930 	820
f 742 	743 	683
f 770 	683 	743
f 785 	836 	842
f 695 	587 	625
f 625 	587 	835
f 813 	841 	649
f 760 	745 	682
f 785 	757 	836
f 931 	813 	929
f 684 	683 	770
f 684 	770 	772
f 761 	727 	825
f 595 	537 	825
f 718 	716 	774
f 518 	519 	774
f 831 	822 	830
f 756 	684 	783
f 772 	783 	684
f 807 	929 	813
f 750 	604 	830
f 756 	783 	726
f 709 	703 	740
f 513 	836 	510
f 837 	510 	836
f 688 	708 	760
f 769 	723 	836
f 837 	836 	723
f 774 	838 	839
f 742 	682 	745
f 842 	719 	670
f 798 	774 	703
f 718 	774 	798
f 842 	513 	719
f 739 	843 	720
f 839 	703 	774
f 836 	513 	842
f 641 	616 	844
f 622 	603 	632
f 766 	843 	797
f 751 	797 	843
f 622 	632 	617
f 848 	833 	516
f 845 	846 	555
f 553 	799 	555
f 845 	555 	799
f 850 	516 	833
f 833 	848 	850
f 902 	516 	550
f 853 	707 	854
f 706 	854 	707
f 857 	669 	856
f 858 	729 	853
f 516 	607 	550
f 547 	550 	607
f 752 	730 	860
f 874 	752 	860
f 849 	859 	852
f 623 	852 	859
f 856 	883 	857
f 648 	669 	857
f 912 	758 	877
f 780 	855 	840
f 593 	856 	594
f 780 	933 	855
f 781 	752 	877
f 873 	877 	752
f 834 	831 	713
f 860 	858 	664
f 664 	853 	854
f 796 	862 	782
f 804 	782 	863
f 853 	664 	858
f 815 	563 	814
f 705 	822 	861
f 664 	673 	874
f 864 	813 	931
f 861 	822 	831
f 841 	813 	864
f 767 	768 	866
f 874 	860 	664
f 651 	841 	864
f 651 	864 	865
f 768 	780 	866
f 804 	863 	791
f 522 	791 	863
f 522 	863 	534
f 767 	866 	868
f 867 	673 	624
f 637 	651 	638
f 868 	870 	773
f 732 	731 	891
f 773 	767 	868
f 865 	638 	651
f 840 	866 	780
f 796 	794 	862
f 657 	579 	794
f 579 	578 	794
f 638 	733 	736
f 638 	736 	784
f 638 	784 	633
f 932 	871 	872
f 784 	803 	736
f 646 	569 	568
f 906 	904 	866
f 661 	867 	624
f 859 	564 	552
f 736 	642 	784
f 640 	784 	642
f 873 	752 	874
f 876 	564 	875
f 859 	875 	564
f 781 	877 	758
f 803 	521 	736
f 633 	784 	640
f 872 	871 	573
f 638 	521 	733
f 912 	762 	758
f 876 	875 	878
f 673 	873 	874
f 821 	725 	503
f 873 	673 	877
f 636 	635 	573
f 872 	573 	635
f 511 	877 	673
f 876 	875 	880
f 879 	880 	875
f 522 	733 	521
f 638 	865 	521
f 791 	503 	735
f 779 	847 	916
f 504 	503 	521
f 773 	870 	881
f 522 	521 	503
f 522 	503 	791
f 875 	859 	882
f 857 	851 	648
f 522 	521 	803
f 642 	736 	521
f 857 	883 	851
f 674 	821 	509
f 884 	881 	870
f 879 	875 	882
f 879 	882 	885
f 822 	881 	884
f 856 	601 	886
f 883 	856 	886
f 927 	859 	849
f 731 	830 	884
f 585 	586 	672
f 599 	600 	672
f 596 	597 	672
f 919 	851 	883
f 889 	890 	883
f 597 	599 	672
f 886 	889 	883
f 932 	511 	867
f 596 	671 	602
f 622 	613 	603
f 932 	867 	871
f 891 	731 	884
f 875 	597 	878
f 867 	661 	894
f 871 	867 	894
f 891 	884 	909
f 673 	867 	511
f 613 	924 	889
f 596 	878 	597
f 602 	878 	596
f 516 	902 	848
f 596 	782 	597
f 906 	893 	892
f 894 	649 	841
f 862 	597 	782
f 863 	782 	596
f 863 	596 	602
f 894 	661 	649
f 579 	578 	872
f 635 	657 	872
f 657 	579 	872
f 660 	573 	894
f 891 	909 	892
f 893 	717 	895
f 604 	895 	713
f 894 	655 	660
f 888 	887 	859
f 927 	896 	859
f 888 	859 	896
f 895 	717 	713
f 859 	887 	897
f 882 	859 	897
f 892 	732 	891
f 585 	672 	600
f 841 	652 	894
f 892 	734 	732
f 895 	604 	734
f 846 	845 	898
f 600 	599 	882
f 799 	715 	900
f 893 	734 	892
f 734 	893 	895
f 515 	529 	762
f 901 	762 	529
f 868 	866 	904
f 599 	597 	882
f 875 	882 	597
f 898 	845 	799
f 898 	799 	900
f 898 	900 	903
f 898 	903 	905
f 597 	862 	599
f 907 	906 	866
f 840 	907 	866
f 529 	800 	901
f 905 	901 	801
f 600 	599 	862
f 800 	801 	901
f 868 	904 	909
f 528 	524 	908
f 534 	865 	924
f 521 	865 	534
f 563 	815 	675
f 892 	904 	906
f 559 	659 	802
f 802 	555 	559
f 892 	909 	904
f 924 	526 	534
f 644 	528 	908
f 909 	870 	868
f 586 	571 	672
f 560 	559 	555
f 846 	898 	555
f 589 	899 	539
f 589 	588 	899
f 543 	539 	899
f 516 	578 	567
f 516 	567 	607
f 659 	667 	802
f 667 	905 	802
f 801 	802 	905
f 587 	591 	899
f 675 	672 	563
f 899 	908 	543
f 524 	531 	908
f 585 	600 	628
f 516 	872 	578
f 519 	518 	746
f 716 	746 	518
f 560 	555 	667
f 667 	555 	898
f 905 	667 	898
f 571 	586 	628
f 586 	585 	628
f 882 	628 	600
f 507 	912 	877
f 600 	862 	585
f 899 	591 	592
f 893 	906 	907
f 571 	586 	862
f 586 	585 	862
f 829 	824 	850
f 912 	515 	762
f 507 	515 	912
f 592 	746 	899
f 603 	613 	886
f 603 	886 	601
f 893 	907 	869
f 896 	628 	888
f 887 	888 	628
f 882 	897 	628
f 886 	613 	889
f 821 	503 	509
f 887 	628 	897
f 828 	827 	913
f 888 	885 	887
f 890 	889 	606
f 889 	886 	606
f 601 	606 	886
f 884 	870 	909
f 674 	509 	671
f 516 	850 	824
f 834 	869 	907
f 882 	897 	885
f 897 	887 	885
f 896 	885 	888
f 915 	885 	896
f 838 	916 	917
f 536 	671 	509
f 582 	671 	536
f 834 	907 	840
f 838 	917 	609
f 582 	602 	671
f 536 	878 	582
f 855 	834 	840
f 548 	878 	583
f 548 	918 	878
f 876 	878 	918
f 536 	583 	878
f 917 	919 	920
f 917 	920 	921
f 615 	917 	921
f 602 	582 	878
f 834 	855 	861
f 876 	880 	918
f 916 	847 	919
f 861 	831 	834
f 582 	863 	602
f 536 	863 	582
f 547 	922 	549
f 847 	851 	919
f 890 	889 	924
f 923 	890 	924
f 916 	919 	917
f 928 	902 	925
f 926 	920 	925
f 916 	838 	779
f 925 	643 	641
f 925 	641 	926
f 932 	872 	811
f 811 	872 	824
f 645 	849 	557
f 922 	547 	628
f 643 	628 	647
f 927 	647 	628
f 925 	628 	643
f 922 	628 	925
f 849 	645 	927
f 647 	927 	645
f 550 	922 	902
f 549 	922 	550
f 922 	925 	902
f 614 	647 	927
f 883 	890 	928
f 920 	919 	928
f 883 	928 	919
f 628 	896 	927
f 911 	914 	923
f 616 	926 	844
f 887 	920 	927
f 896 	888 	927
f 888 	887 	927
f 929 	930 	828
f 812 	828 	930
f 647 	556 	927
f 896 	927 	556
f 896 	556 	915
f 897 	889 	887
f 616 	920 	926
f 614 	615 	616
f 826 	812 	930
f 875 	545 	882
f 918 	545 	876
f 875 	876 	545
f 545 	889 	882
f 897 	882 	889
f 928 	925 	920
f 921 	920 	616
f 615 	921 	616
f 915 	545 	885
f 918 	880 	545
f 879 	545 	880
f 879 	885 	545
f 556 	545 	915
f 910 	911 	923
f 921 	920 	618
f 928 	618 	920
f 902 	923 	914
f 923 	924 	910
f 913 	910 	924
f 647 	645 	643
f 645 	557 	556
f 645 	556 	647
f 844 	926 	641
f 902 	928 	923
f 902 	914 	848
f 662 	825 	558
f 890 	923 	928
f 630 	629 	558
f 865 	864 	931
f 931 	828 	865
f 929 	828 	931
f 924 	865 	828
f 606 	928 	890
f 828 	913 	924
f 808 	511 	932
f 921 	927 	920
f 615 	927 	921
f 811 	808 	932
f 516 	824 	872
f 755 	775 	753
f 786 	753 	775
f 786 	775 	778
f 889 	890 	928
f 889 	928 	920
f 889 	920 	887
f 827 	829 	850
f 827 	850 	848
f 827 	848 	914
f 911 	910 	914
f 827 	914 	910
f 827 	910 	913
f 654 	933 	780
f 584 	564 	583
f 548 	564 	918
f 876 	918 	564
f 564 	548 	583
f 683 	934 	742
f 742 	934 	682
f 682 	934 	683
f 855 	933 	935
f 562 	631 	630
f 938 	861 	935
f 562 	630 	558
f 564 	666 	562
f 935 	861 	855
f 662 	558 	629
f 650 	936 	937
f 654 	650 	937
f 650 	739 	936
f 530 	849 	852
f 557 	849 	530
f 517 	935 	933
f 517 	644 	935
f 908 	935 	644
f 720 	936 	739
f 720 	620 	936
f 937 	936 	620
f 938 	705 	861
f 899 	746 	938
f 705 	938 	746
f 935 	908 	938
f 938 	908 	899
f 654 	937 	517
f 517 	933 	654
# 1032 faces

 #end of obj_2

o obj_3
v -2.1459 		0.0121 		0.8595
v -2.084 		0.0751 		0.9016
v -2.1224 		0.0361 		0.8356
v -2.1443 		0.0137 		0.8548
v -0.5727 		-0.7567 		0.3594
v -0.7836 		-1.3266 		0.8595
v -0.9599 		-1.1533 		0.8595
v -0.934 		-1.1516 		0.8189
v -0.7878 		-1.2953 		0.8189
v -0.782 		-1.325 		0.8548
v -1.0352 		-0.4328 		0.4014
v -1.0332 		-0.4335 		0.4273
v -0.6019 		-0.7651 		0.3545
v -2.1145 		0.0084 		0.8189
v -1.9683 		-0.1353 		0.8189
v -1.9695 		-0.1612 		0.8595
v -0.5811 		-0.771 		0.3883
v -0.7601 		-1.3027 		0.8356
v -0.7217 		-1.2636 		0.9016
v -0.8689 		-1.0853 		0.9308
v -0.8697 		-1.0853 		0.9305
v -0.7227 		-1.229 		0.9308
v -1.9032 		-0.069 		0.9308
v -1.9031 		-0.0698 		0.9305
v -0.5985 		-0.7573 		0.4237
v -0.5811 		-0.771 		0.3883
v -2.0494 		0.0747 		0.9308
v -1.5575 		-0.0626 		0.52
v -1.9013 		-0.1012 		0.9205
v -1.9008 		-0.1007 		0.9208
v -0.7214 		-1.2111 		0.9196
v -1.2009 		0.1249 		0.2011
v -0.8656 		-1.0798 		0.9249
v -1.1807 		-0.2027 		0.3501
v -1.2001 		-0.3837 		0.4937
v -0.7874 		-0.3289 		0.4974
v -0.8615 		-1.0742 		0.9193
v -0.9159 		-0.2557 		0.5281
v -1.1239 		0.3402 		0.2724
v -1.5686 		-0.0524 		0.4932
v -0.8623 		-1.0742 		0.9191
v -1.2613 		-0.1235 		0.3501
v -1.1526 		0.0299 		0.4974
v -0.8353 		-0.3349 		0.5281
v -0.9317 		-0.3274 		0.5794
v -1.2351 		0.0573 		0.529
v -0.7109 		-1.2509 		0.9096
v -0.7109 		-1.2504 		0.9097
v -0.7151 		-1.2173 		0.9196
v -1.1116 		0.3313 		0.2979
v -0.8925 		-1.0724 		0.9096
v -0.9604 		-1.1489 		0.8609
v -1.0634 		-0.2445 		0.3076
v -1.1995 		0.3417 		0.3418
v -1.0451 		-0.2259 		0.3178
v -1.0195 		-0.3611 		0.3501
v -1.4704 		0.0475 		0.6619
v -1.4783 		0.0181 		0.657
v -1.161 		-0.1855 		0.3604
v -0.9209 		-0.2579 		0.5014
v -0.6201 		-0.7764 		0.3911
v -0.9389 		-0.4403 		0.3501
v -1.1103 		0.2342 		0.3528
v -0.6317 		-0.7655 		0.4198
v -1.2355 		-0.0659 		0.3329
v -0.8007 		-0.3296 		0.4739
v -1.2401 		-0.1077 		0.3604
v -0.891 		-0.4343 		0.3195
v -0.5434 		-0.9695 		0.5162
v -1.3286 		0.2103 		0.4933
v -1.2787 		-0.0228 		0.5736
v -0.5771 		-0.9724 		0.5095
v -1.309 		0.1804 		0.4914
v -1.2776 		0.1495 		0.4914
v -1.1148 		-0.2969 		0.6404
v -1.0972 		-0.279 		0.6457
v -1.2723 		0.155 		0.4933
v -0.8417 		-0.3357 		0.5014
v -1.1682 		-0.1315 		0.5736
v -1.3531 		-0.086 		0.3899
v -1.3534 		-0.0862 		0.3909
v -1.0026 		-0.3411 		0.3604
v -1.3598 		-0.1139 		0.4014
v -1.5798 		0.2329 		0.3594
v -0.6953 		-0.8501 		0.6932
v -1.3582 		-0.0915 		0.4139
v -1.5939 		0.2243 		0.3883
v -1.5876 		0.2035 		0.3545
v -1.3634 		-0.109 		0.4273
v -0.5118 		-0.7005 		0.5064
v -0.8825 		-0.4129 		0.3329
v -1.5799 		0.2071 		0.4237
v -1.3578 		-0.0926 		0.4173
v -1.3571 		-0.0944 		0.4232
v -0.7604 		-0.9164 		0.5814
v -0.7297 		-0.8523 		0.6866
v -0.4925 		-0.6752 		0.4959
v -0.9235 		-0.4189 		0.3604
v -0.5038 		-0.6653 		0.5232
v -2.0715 		0.0861 		0.9096
v -0.7755 		-0.899 		0.6077
v -0.5526 		-0.7106 		0.5026
v -2.0709 		0.0861 		0.9097
v -2.0378 		0.0825 		0.9196
v -2.0315 		0.0763 		0.9196
v -1.4322 		0.1049 		0.3153
v -1.8922 		-0.0614 		0.9193
v -1.1949 		0.1481 		0.4526
v -0.7848 		-0.7572 		0.5022
v -0.7721 		-0.4746 		0.2746
v -1.4069 		0.0807 		0.3225
v -1.3756 		0.0498 		0.3227
v -1.3499 		-0.0176 		0.3477
v -1.3397 		-0.0447 		0.3579
v -1.9651 		-0.1615 		0.8609
v -1.3386 		-0.0481 		0.351
v -1.8921 		-0.0622 		0.9191
v -1.8903 		-0.0928 		0.9093
v -0.66 		-0.5657 		0.2723
v -0.6612 		-0.566 		0.2721
v -1.671 		0.1087 		0.6932
v -0.7981 		-0.7465 		0.5313
v -1.3758 		0.0496 		0.3153
v -0.8157 		-0.7658 		0.4978
v -0.536 		-0.6909 		0.537
v -1.5987 		0.1852 		0.3911
v -1.5875 		0.1737 		0.4198
v -1.7361 		0.0424 		0.5814
v -1.2562 		-0.0755 		0.3195
v -1.7184 		0.0276 		0.6077
v -0.8389 		-0.7566 		0.5275
v -0.5666 		-0.6992 		0.5317
v -0.606 		-0.5105 		0.4914
v -0.6039 		-0.5018 		0.4933
v -1.6726 		0.0743 		0.6866
v -0.666 		-0.5709 		0.2777
v -0.63 		-0.4869 		0.4914
v -1.1944 		0.1314 		0.4304
v -0.6657 		-0.4519 		0.4914
v -0.6603 		-0.4464 		0.4933
v -0.8827 		-0.0607 		0.1225
v -1.435 		0.1082 		0.3225
v -1.0103 		0.0592 		0.1262
v -1.5656 		0.0077 		0.5313
v -0.7989 		-0.4305 		0.5554
v -0.7336 		-0.4274 		0.516
v -0.9 		-0.0783 		0.1163
v -0.7609 		-0.4176 		0.526
v -1.0276 		0.0415 		0.1199
v -0.8013 		-0.433 		0.5558
v -1.5846 		-0.0102 		0.4978
v -1.575 		-0.0333 		0.5275
v -0.5535 		-0.4718 		0.4116
v -0.767 		-0.4522 		0.2895
v -0.7586 		-0.4109 		0.529
v -0.824 		-0.4332 		0.5794
v -1.5765 		0.0208 		0.5022
v -1.5246 		0.2948 		0.5064
v -1.2985 		0.0427 		0.2746
v -1.4996 		0.3145 		0.4959
v -0.8175 		-0.4494 		0.5581
v -0.5608 		-0.4684 		0.4357
v -0.4976 		-0.9229 		0.595
v -0.512 		-0.9061 		0.6214
v -0.5553 		-0.4737 		0.4222
v -0.7974 		0.0261 		0.2692
v -0.6098 		-0.2924 		0.3421
v -0.8206 		-0.4511 		0.5579
v -1.4895 		0.3034 		0.5232
v -0.9256 		0.1453 		0.2724
v -0.8255 		-0.4538 		0.5576
v -1.534 		0.2538 		0.5026
v -0.8408 		-0.4694 		0.5313
v -0.5584 		-0.4769 		0.1802
v -0.4738 		-0.3907 		0.3264
v -1.1485 		-0.1143 		0.5794
v -0.6178 		-0.5373 		0.3003
v -0.6328 		-0.5526 		0.2747
v -0.7964 		0.0271 		0.2942
v -0.7522 		-0.6998 		0.6101
v -0.924 		0.1469 		0.2979
v -0.7314 		-0.68 		0.6427
v -0.77 		-0.6864 		0.6464
v -0.5624 		-0.381 		0.1262
v -0.7197 		-0.6909 		0.6141
v -0.5904 		-0.3881 		0.1199
v -0.6401 		-0.56 		0.2754
v -0.6557 		-0.5644 		0.273
v -1.0771 		-0.0973 		0.5281
v -1.1577 		-0.0181 		0.5281
v -0.5784 		-0.4758 		0.1639
v -1.5146 		0.2707 		0.537
v -1.5224 		0.24 		0.5317
v -0.6868 		-0.3878 		0.1753
v -1.2762 		0.0482 		0.2895
v -0.8964 		-0.5303 		0.3873
v -0.8969 		-0.531 		0.3898
v -1.793 		0.2585 		0.5162
v -1.0792 		-0.1023 		0.5014
v -1.7953 		0.2248 		0.5095
v -1.1191 		0.2081 		0.3421
v -0.9275 		-0.5386 		0.4014
v -0.8685 		-0.7396 		0.52
v -0.6916 		-0.3756 		0.2011
v -0.8582 		-0.7505 		0.4932
v -0.9018 		-0.5356 		0.4113
v -1.1584 		-0.0245 		0.5014
v -0.9226 		-0.5422 		0.4273
v -1.3372 		0.2081 		0.4914
v -1.7472 		0.3051 		0.595
v -0.9031 		-0.5351 		0.4153
v -0.4777 		-0.2948 		0.2724
v -1.7302 		0.291 		0.6214
v -0.9047 		-0.5345 		0.4207
v -0.9598 		-0.1391 		0.4855
v -0.4868 		-0.2827 		0.2979
v -0.9633 		-0.1427 		0.4588
v -0.5629 		-0.4665 		0.4409
v -0.5628 		-0.4667 		0.4405
v -0.4749 		-0.3704 		0.3418
v -0.76 		-0.6506 		0.6619
v -0.7893 		-0.659 		0.657
v -1.3018 		0.259 		0.4143
v -1.5114 		0.0871 		0.6141
v -0.5646 		-0.4682 		0.4429
v -1.5197 		0.0544 		0.6101
v -1.3037 		0.2571 		0.4249
v -1.5002 		0.0756 		0.6427
v -0.7042 		-0.6099 		0.3225
v -1.2986 		0.252 		0.4377
v -0.5839 		-0.2831 		0.3528
v -0.7075 		-0.6072 		0.3153
v -0.8379 		-0.456 		0.5736
v -1.1538 		0.0173 		0.4739
v -1.506 		0.0369 		0.6464
v -1.2964 		0.2496 		0.4437
v -0.9485 		-0.3473 		0.5736
v -0.6685 		-0.3692 		0.4526
v -0.728 		-0.5866 		0.3225
v -0.8587 		-0.5174 		0.3579
v -0.8313 		-0.5271 		0.3477
v -0.7636 		-0.5515 		0.3227
v -0.8622 		-0.5163 		0.351
v -1.2417 		0.0549 		0.526
v -1.2519 		0.082 		0.516
v -1.2549 		0.0133 		0.558
v -0.7639 		-0.5518 		0.3153
v -0.7606 		-0.1862 		0.1262
v -0.676 		-0.1 		0.2724
v -1.3045 		0.2563 		0.1802
v -1.2198 		0.3424 		0.3264
v -1.2564 		0.0119 		0.5582
v -1.2086 		0.254 		0.1262
v -1.2562 		-0.0085 		0.5794
v -1.3641 		0.1956 		0.3066
v -1.2152 		0.2259 		0.1199
v -0.6744 		-0.0984 		0.2979
v -1.2008 		-0.3844 		0.4678
v -0.581 		-0.771 		0.3883
v -1.2735 		-0.0056 		0.5606
v -1.2528 		-0.2176 		0.4273
v -0.5811 		-0.771 		0.3883
v -0.778 		-0.2038 		0.1199
v -1.3031 		0.2363 		0.1639
v -1.3812 		0.1782 		0.2774
v -1.2778 		-0.0137 		0.5602
v -1.2749 		-0.0082 		0.5605
v -0.6852 		-0.369 		0.4304
v -1.3885 		0.1708 		0.2781
v -1.2521 		-0.2197 		0.4014
v -1.3941 		0.1496 		0.2748
v -1.394 		0.1502 		0.2749
v -1.3925 		0.156 		0.2759
v -1.2891 		-0.0252 		0.5407
v -1.2132 		0.1294 		0.1753
v -1.3966 		0.1471 		0.2777
v -1.8976 		-0.0656 		0.9249
# 277 vertices

g group_3_9772161

usemtl color_9772161
s 0

f 941 	942 	940
f 939 	940 	942
f 946 	947 	945
f 947 	948 	945
f 944 	945 	948
f 953 	954 	952
f 942 	952 	954
f 942 	954 	939
f 948 	956 	957
f 948 	957 	944
f 958 	959 	960
f 968 	961 	962
f 1040 	963 	964
f 962 	961 	965
f 967 	968 	962
f 969 	958 	960
f 979 	971 	1023
f 958 	1023 	971
f 963 	999 	964
f 958 	971 	959
f 971 	969 	959
f 975 	969 	971
f 960 	959 	969
f 975 	971 	979
f 982 	976 	983
f 972 	1208 	980
f 957 	985 	986
f 957 	986 	987
f 957 	987 	969
f 957 	969 	975
f 957 	975 	979
f 957 	979 	989
f 957 	989 	990
f 957 	990 	945
f 957 	945 	944
f 1119 	1108 	988
f 977 	988 	1108
f 976 	1014 	983
f 956 	1007 	957
f 948 	947 	956
f 992 	988 	977
f 976 	982 	1016
f 958 	969 	1023
f 997 	993 	991
f 997 	991 	972
f 955 	999 	951
f 1005 	997 	972
f 998 	976 	1016
f 979 	1034 	989
f 949 	994 	1000
f 946 	945 	990
f 996 	1204 	995
f 972 	980 	1005
f 1034 	1039 	989
f 985 	957 	1007
f 1005 	980 	1067
f 988 	992 	1001
f 947 	1010 	956
f 1010 	1007 	956
f 1012 	995 	1183
f 1011 	995 	1012
f 955 	964 	999
f 1183 	1015 	1012
f 1049 	1050 	978
f 1036 	1006 	1000
f 963 	1002 	999
f 987 	1102 	969
f 1020 	998 	1036
f 1016 	1036 	998
f 1018 	1019 	978
f 1019 	1024 	978
f 1016 	982 	974
f 1031 	1032 	978
f 1004 	1016 	974
f 1143 	1167 	951
f 1012 	1015 	1011
f 991 	993 	1020
f 947 	1033 	1010
f 1008 	1011 	1015
f 947 	946 	1033
f 1019 	1018 	1021
f 991 	1020 	994
f 1031 	978 	1024
f 966 	978 	1032
f 1015 	984 	1046
f 994 	1020 	1036
f 1000 	994 	1036
f 1029 	1036 	1004
f 1017 	1013 	1014
f 1022 	1026 	1025
f 1027 	1024 	1021
f 1021 	1024 	1019
f 1013 	1199 	973
f 1026 	1064 	1025
f 1027 	1031 	1024
f 1031 	1027 	1032
f 1127 	1114 	1014
f 979 	1023 	1034
f 1036 	1029 	1006
f 1022 	1211 	1026
f 1028 	1035 	1037
f 1038 	1136 	940
f 1028 	1063 	1040
f 942 	941 	952
f 1016 	1004 	1036
f 1039 	1033 	946
f 946 	990 	1039
f 1060 	1039 	1034
f 990 	989 	1039
f 1033 	1047 	1002
f 1051 	978 	1050
f 1052 	978 	1051
f 1018 	978 	1052
f 954 	953 	1053
f 1052 	1054 	1018
f 1021 	1018 	1054
f 1010 	1033 	1002
f 1057 	1058 	1129
f 1054 	1052 	1051
f 1046 	984 	981
f 1053 	1068 	1056
f 1101 	963 	1040
f 1039 	1047 	1033
f 1055 	1073 	1045
f 1047 	1039 	1060
f 1061 	1054 	1051
f 1061 	1051 	1050
f 1059 	1045 	1073
f 1046 	981 	1076
f 1037 	1063 	1028
f 1061 	1097 	1054
f 1101 	1040 	1102
f 952 	1066 	953
f 1062 	1047 	1060
f 1102 	1040 	1070
f 1060 	1069 	1062
f 1066 	1068 	953
f 1068 	1053 	953
f 1095 	1065 	1064
f 1076 	1172 	1133
f 1044 	1061 	1049
f 1049 	1080 	1044
f 1063 	1070 	1040
f 1065 	1030 	1064
f 1073 	1056 	1068
f 1047 	1062 	999
f 1172 	1076 	981
f 1050 	1049 	1061
f 1075 	1159 	1071
f 1064 	1030 	1025
f 1072 	1078 	1075
f 1072 	1075 	1071
f 999 	1062 	951
f 1075 	1078 	1077
f 1028 	1040 	1197
f 1097 	1067 	1054
f 1065 	1095 	1066
f 943 	1035 	1028
f 1002 	1047 	999
f 1066 	1095 	1068
f 1095 	1082 	1068
f 1005 	1067 	1003
f 1060 	1121 	1069
f 1049 	978 	1080
f 1084 	1159 	1077
f 1084 	1086 	1159
f 1083 	1159 	1086
f 1083 	1088 	1159
f 1088 	1099 	1159
f 1106 	1159 	1099
f 1116 	1115 	943
f 1085 	1087 	1081
f 1085 	1081 	1079
f 951 	1062 	1143
f 1148 	1110 	1030
f 1115 	1113 	1091
f 1003 	1133 	1172
f 1090 	1082 	1089
f 1088 	1083 	1094
f 1093 	1094 	1083
f 1093 	1083 	1086
f 1115 	1091 	1035
f 1214 	1209 	1044
f 1035 	1100 	1037
f 1100 	1157 	1037
f 1007 	1101 	985
f 1082 	1095 	1089
f 985 	1101 	986
f 1102 	986 	1101
f 1102 	987 	986
f 1099 	1094 	1171
f 1088 	1094 	1099
f 1035 	1091 	1103
f 1035 	1103 	1100
f 1082 	1090 	1173
f 1107 	1098 	1096
f 1133 	1067 	1097
f 1156 	1163 	1037
f 1110 	1025 	1030
f 1108 	1104 	1079
f 1163 	1071 	1037
f 1110 	1130 	1096
f 1171 	1109 	1106
f 1171 	1106 	1099
f 1110 	1096 	1025
f 1111 	1109 	1171
f 1023 	969 	1102
f 1081 	1108 	1079
f 1114 	1192 	1017
f 1103 	1091 	1113
f 1115 	1112 	1113
f 1115 	1116 	1112
f 1125 	1112 	1116
f 1095 	1064 	1089
f 1102 	1070 	1023
f 1104 	1108 	1117
f 1123 	1034 	1023
f 1118 	1034 	1123
f 1105 	1142 	1206
f 1034 	1118 	1060
f 1108 	1119 	1117
f 1121 	1118 	1120
f 1014 	1114 	1017
f 1057 	1129 	1112
f 1001 	1119 	988
f 1125 	1126 	1112
f 1035 	943 	1115
f 1121 	1060 	1118
f 1199 	1013 	1017
f 1001 	1117 	1119
f 1070 	1123 	1023
f 1150 	1113 	1122
f 1073 	1068 	1082
f 1093 	1086 	1084
f 1057 	1112 	1126
f 1110 	1148 	1151
f 1118 	1123 	1120
f 1126 	951 	1057
f 1058 	1057 	951
f 943 	951 	1126
f 1129 	1122 	1112
f 1120 	1159 	1121
f 1128 	981 	984
f 1107 	1096 	1130
f 1159 	1160 	1121
f 1129 	1124 	1122
f 943 	1125 	1116
f 1151 	1131 	1110
f 1105 	1169 	1139
f 1128 	1145 	981
f 1126 	1125 	943
f 1120 	1123 	1070
f 1026 	1089 	1064
f 1074 	1058 	951
f 1127 	1128 	1114
f 966 	996 	1090
f 1077 	1078 	1084
f 1093 	1084 	1078
f 1145 	1128 	1127
f 1143 	1177 	1167
f 1133 	1003 	1067
f 1134 	1178 	1143
f 1132 	1124 	1129
f 1153 	1127 	1014
f 1063 	1120 	1070
f 1026 	1080 	978
f 1143 	1135 	1134
f 1132 	970 	1213
f 941 	940 	1136
f 1136 	1038 	1148
f 1120 	1063 	1037
f 1136 	1148 	1030
f 1129 	1048 	1132
f 1037 	1159 	1120
f 1138 	941 	1136
f 1134 	1140 	1181
f 1153 	1137 	1127
f 1138 	952 	941
f 974 	982 	1093
f 1135 	1140 	1134
f 1030 	1138 	1136
f 1130 	1110 	1131
f 1030 	1065 	1138
f 1001 	1046 	1139
f 1127 	1137 	1145
f 1069 	1141 	1143
f 1144 	1143 	1149
f 1135 	1143 	1144
f 1143 	1062 	1069
f 1149 	1143 	1152
f 1046 	1076 	1139
f 1092 	1142 	1048
f 1160 	1069 	1121
f 1059 	1151 	1043
f 982 	1094 	1093
f 1142 	970 	1132
f 1160 	1141 	1069
f 1146 	1140 	1144
f 1066 	1138 	1065
f 1142 	1132 	1048
f 1147 	1107 	995
f 1135 	1144 	1140
f 1133 	970 	1076
f 970 	1139 	1076
f 1066 	952 	1138
f 1092 	1206 	1142
f 981 	1145 	1172
f 1141 	1152 	1143
f 1137 	1005 	1145
f 1141 	1111 	1152
f 1186 	1187 	1122
f 1145 	1005 	1172
f 1187 	1150 	1122
f 1151 	1041 	1042
f 1153 	1014 	976
f 1147 	1011 	1008
f 1112 	1122 	1113
f 1038 	1041 	1148
f 1151 	1148 	1041
f 1098 	1022 	1096
f 1203 	1022 	1193
f 1015 	992 	1008
f 1155 	1153 	998
f 1149 	1152 	1146
f 1144 	1149 	1146
f 1156 	1157 	1158
f 1113 	1158 	1157
f 1025 	1096 	1022
f 1187 	1154 	1150
f 1152 	1111 	1146
f 1013 	973 	950
f 993 	1155 	998
f 992 	1015 	1046
f 1042 	1043 	1151
f 1100 	1103 	1113
f 1100 	1113 	1157
f 1171 	1146 	1111
f 1154 	1158 	1150
f 1193 	1161 	1189
f 1059 	1131 	1151
f 1146 	950 	1140
f 949 	1140 	950
f 998 	1153 	976
f 1153 	1155 	1137
f 1171 	1175 	1146
f 1158 	1113 	1150
f 1162 	1131 	1059
f 1156 	1037 	1157
f 1161 	1193 	1098
f 1059 	1073 	1162
f 1075 	1077 	1159
f 1159 	1037 	1071
f 1164 	1162 	1073
f 1098 	1193 	1022
f 1000 	1140 	949
f 998 	1020 	993
f 1164 	1073 	1082
f 1158 	1072 	1156
f 1163 	1156 	1072
f 1165 	1189 	1161
f 1209 	1210 	1202
f 1106 	1109 	1159
f 1160 	1159 	1109
f 1165 	1168 	1189
f 1137 	993 	997
f 1155 	993 	1137
f 1109 	1111 	1160
f 1141 	1160 	1111
f 951 	1167 	1074
f 1169 	1176 	1158
f 1074 	1170 	1058
f 1129 	1058 	1170
f 1163 	1072 	1071
f 1098 	1168 	1165
f 1098 	1165 	1161
f 1078 	1158 	1176
f 1166 	1162 	1164
f 1078 	1072 	1158
f 1170 	1074 	1167
f 1189 	1168 	1174
f 1005 	1137 	997
f 1171 	1094 	1175
f 1173 	1166 	1164
f 1098 	1107 	1168
f 1174 	1168 	1107
f 1164 	1082 	1173
f 1178 	1179 	1143
f 1179 	1180 	1143
f 1177 	1143 	1180
f 1169 	1158 	1154
f 1013 	1175 	1014
f 1046 	1001 	992
f 1169 	1154 	1195
f 1176 	974 	1093
f 1090 	996 	1173
f 1181 	1178 	1134
f 1107 	1147 	1174
f 1097 	1202 	1213
f 1130 	1131 	1166
f 1005 	1003 	1172
f 1166 	1107 	1130
f 1174 	1147 	1008
f 1174 	1008 	1189
f 1044 	1202 	1061
f 1166 	1131 	1162
f 1182 	1183 	995
f 1182 	995 	1184
f 1061 	1202 	1097
f 1181 	1185 	1179
f 1205 	995 	1204
f 1180 	1179 	1185
f 1173 	995 	1166
f 977 	1108 	1081
f 950 	1175 	1013
f 1176 	1093 	1078
f 995 	1173 	996
f 1179 	1178 	1181
f 1122 	1124 	1186
f 1205 	1198 	995
f 995 	1190 	1184
f 977 	1191 	1189
f 1188 	1189 	1191
f 1079 	1104 	1187
f 995 	1107 	1166
f 1191 	977 	1081
f 1182 	1184 	984
f 1193 	1189 	1188
f 1207 	1203 	1188
f 1187 	1186 	1079
f 1189 	992 	977
f 1105 	1176 	1169
f 1192 	984 	1184
f 974 	1176 	1206
f 1187 	1104 	1117
f 1011 	1147 	995
f 1000 	1181 	1140
f 1192 	1184 	1190
f 1008 	992 	1189
f 950 	973 	1196
f 1206 	1176 	1105
f 1187 	1195 	1154
f 1006 	1048 	1181
f 943 	1028 	1197
f 1032 	1212 	966
f 1206 	1004 	974
f 1196 	949 	950
f 1087 	1194 	1081
f 1197 	951 	943
f 1187 	1117 	1195
f 1190 	995 	1198
f 1000 	1006 	1181
f 955 	1197 	1200
f 1081 	1194 	1191
f 996 	966 	1212
f 1027 	1021 	1199
f 1197 	955 	951
f 1201 	1085 	1186
f 1079 	1186 	1085
f 1197 	964 	1200
f 1193 	1188 	1203
f 1017 	1009 	1199
f 964 	1197 	1040
f 1009 	1192 	1198
f 1198 	1192 	1190
f 1194 	1202 	1191
f 1167 	1177 	1170
f 963 	1101 	1007
f 1201 	1186 	1124
f 1196 	973 	1199
f 1169 	1195 	1117
f 1199 	1021 	1208
f 1180 	1185 	1177
f 1170 	1177 	1185
f 1010 	963 	1007
f 1188 	1202 	1210
f 1021 	980 	1208
f 963 	1010 	1002
f 1199 	1208 	1196
f 1001 	1169 	1117
f 1029 	1004 	1092
f 1202 	1188 	1191
f 1188 	1210 	1211
f 1188 	1211 	1207
f 1204 	996 	1212
f 955 	1200 	964
f 1132 	1213 	1085
f 1201 	1132 	1085
f 1048 	1129 	1185
f 1204 	1009 	1205
f 1198 	1205 	1009
f 1132 	1201 	1124
f 1209 	1026 	1210
f 1210 	1026 	1211
f 1196 	1208 	972
f 1206 	1092 	1004
f 1080 	1026 	1214
f 1048 	1185 	1181
f 1204 	1212 	1009
f 991 	994 	1196
f 994 	949 	1196
f 1001 	1139 	1169
f 991 	1196 	972
f 1203 	1207 	1022
f 1185 	1129 	1170
f 1022 	1207 	1211
f 1175 	1094 	983
f 1209 	1214 	1026
f 1059 	1043 	961
f 965 	961 	1043
f 1067 	980 	1054
f 961 	968 	1215
f 950 	1146 	1175
f 1202 	1044 	1209
f 1032 	1027 	1212
f 1059 	961 	1045
f 1215 	1045 	961
f 1080 	1214 	1044
f 982 	983 	1094
f 1043 	1045 	1215
f 1043 	1215 	962
f 1043 	962 	965
f 1092 	1048 	1006
f 1017 	1192 	1009
f 980 	1021 	1054
f 1215 	968 	1055
f 1073 	1055 	968
f 968 	967 	1056
f 968 	1056 	1073
f 1014 	1175 	983
f 1029 	1092 	1006
f 1055 	1056 	1215
f 962 	1215 	1056
f 962 	1056 	967
f 1027 	1199 	1009
f 1202 	1194 	1213
f 1128 	984 	1192
f 1056 	1055 	1053
f 1055 	1043 	1053
f 1045 	1043 	1055
f 954 	1053 	1043
f 1042 	1041 	1043
f 954 	1043 	1041
f 954 	1041 	1038
f 954 	1038 	940
f 954 	940 	939
f 1213 	1194 	1087
f 1192 	1114 	1128
f 978 	966 	1090
f 1213 	1087 	1085
f 984 	1015 	1183
f 1090 	1089 	978
f 1089 	1026 	978
f 1183 	1182 	984
f 1139 	970 	1105
f 1142 	1105 	970
f 1097 	970 	1133
f 1097 	1213 	970
f 1009 	1212 	1027
# 558 faces

 #end of obj_3

